<svg width="46" height="50" viewBox="0 0 46 50" fill="none" xmlns="http://www.w3.org/2000/svg">
<path d="M32.4388 41.9986C33.2156 41.9986 33.8453 41.2289 33.8453 40.2795C33.8453 39.3302 33.2156 38.5605 32.4388 38.5605C31.6621 38.5605 31.0324 39.3302 31.0324 40.2795C31.0324 41.2289 31.6621 41.9986 32.4388 41.9986Z" fill="#3D5E87"/>
<path d="M15.9053 33.968C15.2343 33.2219 14.4272 32.748 13.5748 32.748C12.6952 32.748 11.8791 33.2219 11.2172 33.9982C12.4867 33.6958 14.1008 33.5345 15.9053 33.968Z" fill="#3D5E87"/>
<path d="M45.1859 45.919C44.0971 37.4718 39.6871 30.3304 33.6166 26.4435C33.8979 28.8205 34.1792 32.8707 33.5077 36.4414C34.8507 36.9923 35.8397 38.5022 35.8397 40.2875C35.8397 42.5524 34.3244 44.3275 32.4188 44.3275C30.5133 44.3275 28.9979 42.5116 28.9979 40.2875C28.9979 38.3492 30.1231 36.7577 31.6476 36.319C32.564 32.1158 31.82 26.6781 31.6113 25.2907C31.3663 25.1682 31.1213 25.056 30.8672 24.9336C28.8255 27.3106 26.0671 28.7797 23 28.7797C20.0056 28.7797 17.2471 27.3515 15.2418 25.056C14.9242 25.8518 14.3253 27.7901 14.4342 30.6875C17.4286 31.3608 19.7243 35.4824 19.7243 40.4406C19.7243 42.2667 19.4067 44.0929 18.8079 45.6334C18.4812 46.7964 17.111 47.2657 16.4758 47.2657C15.5231 47.2657 14.7518 46.3577 14.7518 45.2049C14.7518 44.0521 15.5322 43.1441 16.4758 43.1441C16.7571 43.1441 17.1473 43.2257 17.5738 43.4195C18.2997 41.0629 17.7462 37.8697 17.4014 36.7985C14.0168 35.0539 10.9135 36.2476 9.77924 36.7985C9.46165 37.8697 8.8537 40.7874 9.60684 43.4195C10.0333 43.2257 10.4144 43.1441 10.7048 43.1441C11.6576 43.1441 12.4288 44.0521 12.4288 45.2049C12.4288 46.3577 11.6485 47.2657 10.7048 47.2657C10.1059 47.2657 8.76296 46.827 8.40907 45.7558C7.77389 44.1745 7.4563 42.3483 7.4563 40.4406C7.4563 35.5232 9.71572 31.4424 12.6375 30.6875C12.565 28.7797 12.7827 27.1984 13.0277 26.0456C6.59427 29.8611 1.93932 37.1963 0.814144 45.919C0.53285 48.0614 1.93932 49.9998 3.74504 49.9998H42.2278C44.0608 49.9998 45.4672 48.0614 45.1859 45.919Z" fill="#3D5E87"/>
<path d="M23.0313 26.9798C28.9836 26.9798 33.8231 21.8647 33.8231 15.5447C33.8231 14.6667 33.7414 13.8397 33.5474 13.0025C33.5474 13.0025 28.4731 11.4199 23.0313 11.4199C17.5997 11.4199 12.556 13.0025 12.556 13.0025C12.3926 13.8397 12.2803 14.6667 12.2803 15.5447C12.2395 21.8953 17.079 26.9798 23.0313 26.9798Z" fill="#3D5E87"/>
<path d="M32.6796 10.552C33.4351 7.57065 34.1498 4.55873 34.8645 1.57743C27.1152 -0.525811 18.9474 -0.525811 11.2083 1.57743C11.923 4.55873 12.6785 7.57065 13.3932 10.552C19.6927 8.83669 26.3699 8.83669 32.6796 10.552ZM20.1317 3.68068H22.1532V1.53659H23.8991V3.68068H25.9207V5.50825H23.8991V7.65234H22.1532V5.50825H20.1317V3.68068Z" fill="#3D5E87"/>
<path d="M32.6796 10.552C33.4351 7.57065 34.1498 4.55873 34.8645 1.57743C27.1152 -0.525811 18.9474 -0.525811 11.2083 1.57743C11.923 4.55873 12.6785 7.57065 13.3932 10.552C19.6927 8.83669 26.3699 8.83669 32.6796 10.552ZM20.1317 3.68068H22.1532V1.53659H23.8991V3.68068H25.9207V5.50825H23.8991V7.65234H22.1532V5.50825H20.1317V3.68068Z" fill="#3D5E87"/>
</svg>
