<svg width="78" height="35" viewBox="0 0 78 35" fill="none" xmlns="http://www.w3.org/2000/svg">
<path d="M74.2071 17.5417C73.7518 17.0807 72.2572 15.5184 72.2572 15.5171C66.6889 9.61532 58.2762 0.693848 39.0003 0.693848C19.7355 0.693848 11.32 9.60842 5.75015 15.51C5.75015 15.5115 4.24903 17.0805 3.79342 17.5415C1.45166 19.9227 0.633057 20.827 0.633057 21.61C0.633057 22.396 1.45166 23.2974 3.79087 25.6731C4.24618 26.1341 5.61677 27.5641 5.61677 27.5654C7.01597 29.0464 8.60402 30.727 10.5386 32.4433L10.7091 32.5947L12.0851 31.5845L11.9916 31.3767C9.40479 25.5947 8.31237 23.1682 7.85541 22.202L8.91636 20.9178C10.6129 18.8505 12.3687 16.7146 14.4559 14.7408C17.8945 11.7309 20.8252 9.86177 22.1008 9.86177C22.2067 9.86177 22.27 9.87271 22.3099 9.89205C21.3675 12.0943 20.8885 14.4217 20.8885 16.8122C20.8885 26.7301 28.9531 34.7981 38.8669 34.7981C48.7821 34.7981 56.848 26.7301 56.848 16.8122C56.848 14.4986 56.3787 12.1658 55.4858 10.0214C61.4783 12.8332 65.1561 16.9264 68.6924 21.2276L69.5413 22.2584C69.1849 23.3237 68.424 25.8794 67.0989 30.4642L66.1633 33.7164L68.618 31.3918C70.0519 30.032 71.282 28.73 72.3634 27.5821C72.3634 27.5821 73.7558 26.1342 74.2099 25.6732C76.549 23.2976 77.3678 22.3961 77.3678 21.6101C77.3678 20.8255 76.549 19.9227 74.2071 17.5417ZM32.7384 18.1541C29.9397 18.1541 27.6638 15.8776 27.6638 13.078C27.6638 10.28 29.9397 8.00345 32.7384 8.00345C35.5372 8.00345 37.8131 10.28 37.8131 13.078C37.813 15.8776 35.537 18.1541 32.7384 18.1541Z" fill="#FBF8F3"/>
</svg>
