<svg width="77" height="41" viewBox="0 0 77 41" fill="none" xmlns="http://www.w3.org/2000/svg">
<path d="M74.5579 13.4886H45.2524C44.6047 13.4886 43.9836 13.2304 43.5256 12.7709C43.0676 12.3115 42.8103 11.6883 42.8103 11.0385C42.8103 10.3887 43.0676 9.7655 43.5256 9.30602C43.9836 8.84654 44.6047 8.58841 45.2524 8.58841H74.5579C75.2056 8.58841 75.8267 8.84654 76.2847 9.30602C76.7427 9.7655 77 10.3887 77 11.0385C77 11.6883 76.7427 12.3115 76.2847 12.7709C75.8267 13.2304 75.2056 13.4886 74.5579 13.4886Z" fill="#6C64C4"/>
<path d="M74.5579 23.2892H45.2524C44.6047 23.2892 43.9836 23.0311 43.5256 22.5716C43.0676 22.1121 42.8103 21.4889 42.8103 20.8391C42.8103 20.1893 43.0676 19.5661 43.5256 19.1067C43.9836 18.6472 44.6047 18.389 45.2524 18.389H74.5579C75.2056 18.389 75.8267 18.6472 76.2847 19.1067C76.7427 19.5661 77 20.1893 77 20.8391C77 21.4889 76.7427 22.1121 76.2847 22.5716C75.8267 23.0311 75.2056 23.2892 74.5579 23.2892Z" fill="#6C64C4"/>
<path d="M59.9051 33.0894H45.2524C44.6047 33.0894 43.9836 32.8313 43.5256 32.3718C43.0676 31.9123 42.8103 31.2891 42.8103 30.6393C42.8103 29.9895 43.0676 29.3663 43.5256 28.9068C43.9836 28.4474 44.6047 28.1892 45.2524 28.1892H59.9051C60.5528 28.1892 61.174 28.4474 61.632 28.9068C62.09 29.3663 62.3473 29.9895 62.3473 30.6393C62.3473 31.2891 62.09 31.9123 61.632 32.3718C61.174 32.8313 60.5528 33.0894 59.9051 33.0894Z" fill="#6C64C4"/>
<path d="M2 39.0598C2 37.7876 2.8147 34.6518 2.8147 34.6518C2.8147 34.6518 3.26194 31.748 7.39034 28.1598C11.223 24.83 15.1999 25.0247 15.1999 25.0247H18.3409" stroke="#6C64C4" stroke-width="3.33366" stroke-linecap="round"/>
<path d="M34.575 39.0598C34.575 37.7876 33.7603 34.6518 33.7603 34.6518C33.7603 34.6518 33.3152 31.748 29.1854 28.1598C25.352 24.83 21.3751 25.0247 21.3751 25.0247H18.2349" stroke="#6C64C4" stroke-width="3.33366" stroke-linecap="round"/>
<path d="M18.2347 39.0598H2" stroke="#6C64C4" stroke-width="3.33366" stroke-linecap="round"/>
<path d="M34.5216 39.0598H18.2876" stroke="#6C64C4" stroke-width="3.33366" stroke-linecap="round"/>
<path d="M18.2348 20.3523C23.3026 20.3523 27.4109 16.244 27.4109 11.1761C27.4109 6.10823 23.3026 1.99991 18.2348 1.99991C13.1669 1.99991 9.05859 6.10823 9.05859 11.1761C9.05859 16.244 13.1669 20.3523 18.2348 20.3523Z" stroke="#6C64C4" stroke-width="3.33366" stroke-linecap="round"/>
</svg>
