<svg width="60" height="47" viewBox="0 0 60 47" fill="none" xmlns="http://www.w3.org/2000/svg">
<path d="M55 0H5C2.23958 0 0 2.23958 0 5V41.6667C0 44.4271 2.23958 46.6667 5 46.6667H55C57.7604 46.6667 60 44.4271 60 41.6667V5C60 2.23958 57.7604 0 55 0ZM55 41.6667H5V5H55V41.6667ZM21.6667 23.3333C25.3438 23.3333 28.3333 20.3438 28.3333 16.6667C28.3333 12.9896 25.3438 10 21.6667 10C17.9896 10 15 12.9896 15 16.6667C15 20.3438 17.9896 23.3333 21.6667 23.3333ZM12.3333 36.6667H31C32.2917 36.6667 33.3333 35.7708 33.3333 34.6667V32.6667C33.3333 29.3542 30.1979 26.6667 26.3333 26.6667C25.2083 26.6667 24.3854 27.5 21.6667 27.5C18.8646 27.5 18.1875 26.6667 17 26.6667C13.1354 26.6667 10 29.3542 10 32.6667V34.6667C10 35.7708 11.0417 36.6667 12.3333 36.6667ZM37.5 30H49.1667C49.625 30 50 29.625 50 29.1667V27.5C50 27.0417 49.625 26.6667 49.1667 26.6667H37.5C37.0417 26.6667 36.6667 27.0417 36.6667 27.5V29.1667C36.6667 29.625 37.0417 30 37.5 30ZM37.5 23.3333H49.1667C49.625 23.3333 50 22.9583 50 22.5V20.8333C50 20.375 49.625 20 49.1667 20H37.5C37.0417 20 36.6667 20.375 36.6667 20.8333V22.5C36.6667 22.9583 37.0417 23.3333 37.5 23.3333ZM37.5 16.6667H49.1667C49.625 16.6667 50 16.2917 50 15.8333V14.1667C50 13.7083 49.625 13.3333 49.1667 13.3333H37.5C37.0417 13.3333 36.6667 13.7083 36.6667 14.1667V15.8333C36.6667 16.2917 37.0417 16.6667 37.5 16.6667Z" fill="#74A0D4"/>
</svg>
