<svg width="88" height="95" viewBox="0 0 88 95" fill="none" xmlns="http://www.w3.org/2000/svg">
<path d="M36.9144 89.113H12.8559C10.1061 89.113 8.73114 89.113 7.68086 88.6036C6.75701 88.1555 6.00589 87.441 5.53513 86.5615C5 85.562 5 84.2536 5 81.6363V73.618C5 70.6478 5 69.1623 5.23558 67.924C6.32995 62.1706 11.0609 57.6683 17.1058 56.6267C17.4834 56.5617 17.8821 56.5155 18.3341 56.4827C19.439 56.4024 19.9915 56.3622 20.7294 56.4145C21.4965 56.4692 21.9254 56.5412 22.6657 56.7398C23.3779 56.9309 24.6607 57.4842 27.2263 58.5902C28.7539 59.2487 30.3511 59.787 32.0045 60.1921M59.009 23.6918C59.009 34.015 50.2158 42.3835 39.3694 42.3835C28.5227 42.3835 19.7297 34.015 19.7297 23.6918C19.7297 13.3686 28.5227 5 39.3694 5C50.2158 5 59.009 13.3686 59.009 23.6918ZM66.3621 66.7385C62.9261 63.0978 57.1968 62.1183 52.8917 65.4525C48.5872 68.7861 47.9809 74.3605 51.3618 78.3035C53.2703 80.5297 57.8051 84.4321 61.3923 87.4087C63.0936 88.8204 63.944 89.5265 64.9731 89.8153C65.8505 90.0616 66.8737 90.0616 67.7511 89.8153C68.7802 89.5265 69.6306 88.8204 71.3319 87.4087C74.9191 84.4321 79.4539 80.5297 81.3623 78.3035C84.7433 74.3605 84.2111 68.7511 79.8324 65.4525C75.4533 62.1534 69.798 63.0978 66.3621 66.7385Z" stroke="#FBF8F3" stroke-width="8.5" stroke-linecap="round" stroke-linejoin="round"/>
</svg>
