<svg width="86" height="86" viewBox="0 0 86 86" fill="none" xmlns="http://www.w3.org/2000/svg">
<path d="M43.0551 0C19.5763 0 0.547607 19.2076 0.547607 42.907C0.547607 66.6064 19.5763 85.814 43.0551 85.814C66.5338 85.814 85.5626 66.6064 85.5626 42.907C85.5626 19.2076 66.5338 0 43.0551 0ZM31.1663 60.8575H22.8806V34.0909H31.1663V60.8575ZM26.7993 30.7388H26.7329C23.7275 30.7388 21.7847 28.694 21.7847 26.0962C21.7847 23.448 23.7939 21.4535 26.8491 21.4535C29.9043 21.4535 31.7806 23.448 31.8471 26.0962C31.8637 28.6773 29.9209 30.7388 26.7993 30.7388ZM64.3088 60.8575H54.9107V47.0133C54.9107 43.393 53.4495 40.9125 50.2116 40.9125C47.7375 40.9125 46.3594 42.5885 45.7284 44.1975C45.4959 44.7674 45.5291 45.5719 45.5291 46.3932V60.8575H36.214C36.214 60.8575 36.3303 36.3201 36.214 34.0909H45.5291V38.2978C46.0771 36.4542 49.0493 33.8395 53.7982 33.8395C59.6928 33.8395 64.3088 37.6945 64.3088 45.9742V60.8575Z" fill="#FBF8F3"/>
</svg>
