<svg width="54" height="62" viewBox="0 0 54 62" fill="none" xmlns="http://www.w3.org/2000/svg">
<path d="M40.0204 0.254853C40.0204 0.254853 31.5969 -1.21988 26.6802 2.92569C21.7663 -1.21988 13.3401 0.254853 13.3401 0.254853C0.889343 2.92569 0 16.3728 0 16.3728C0 23.282 4.69719 27.9792 4.69719 27.9792L18.7916 42.3578C18.7916 42.3578 21.6144 45.4677 26.6802 45.4677C31.7461 45.4677 34.5689 42.3578 34.5689 42.3578L48.6605 27.9792C48.6605 27.9792 53.3577 23.282 53.3577 16.3728C53.3577 16.3728 52.4711 2.92569 40.0204 0.254853ZM43.5017 24.2023L29.9618 37.4665C29.9618 37.4665 28.8304 38.9412 26.6802 38.9412C24.5301 38.9412 23.3987 37.4665 23.3987 37.4665L9.85874 24.2023C6.63629 21.5315 6.54341 16.3728 6.54341 16.3728C6.54341 12.1596 9.61952 9.24958 11.6318 7.79455C12.8335 6.92491 14.2604 6.39863 15.7436 6.32827C19.5824 6.14815 22.4784 8.08162 22.4784 8.08162C22.4784 8.08162 24.9381 10.3275 26.6831 10.3275C28.428 10.3275 30.8877 8.08162 30.8877 8.08162C30.8877 8.08162 33.7809 6.14533 37.6225 6.32827C39.1057 6.39863 40.5298 6.92491 41.7343 7.79455C43.7494 9.24958 46.8227 12.1596 46.8227 16.3728C46.8171 16.3728 46.727 21.5315 43.5017 24.2023Z" fill="#6C64C4"/>
<path d="M46.8144 32.6849C46.7806 33.4251 46.4569 37.959 43.5018 40.4075L29.9619 53.6716C29.9619 53.6716 28.8305 55.1464 26.6804 55.1464C24.5302 55.1464 23.3988 53.6716 23.3988 53.6716L9.85886 40.4075C7.06418 38.0913 6.62233 33.9119 6.55479 32.8369C5.13916 31.5507 3.00586 29.4427 1.33976 27.059C0.168978 30.0985 0.00292969 32.5779 0.00292969 32.5779C0.00292969 39.4872 4.70011 44.1844 4.70011 44.1844L18.7917 58.563C18.7917 58.563 21.6145 61.6729 26.6804 61.6729C31.7462 61.6729 34.569 58.563 34.569 58.563L48.6606 44.1844C48.6606 44.1844 53.3578 39.4872 53.3578 32.5779C53.3578 32.5779 53.1889 30.0169 51.9647 26.9098C50.3492 29.2654 48.2581 31.3621 46.8144 32.6849Z" fill="#74A0D4"/>
<path d="M12.1946 23.6339C13.2697 22.9866 14.4855 22.5954 15.7435 22.5363C19.5823 22.3562 22.4783 24.2896 22.4783 24.2896C22.4783 24.2896 24.938 26.5355 26.683 26.5355C28.4279 26.5355 30.8876 24.2896 30.8876 24.2896C30.8876 24.2896 33.7808 22.3533 37.6224 22.5363C38.8439 22.5926 40.0231 22.9669 41.0757 23.5804C43.2286 21.6216 44.0645 19.4968 44.3854 18.0361C43.1161 17.3606 41.6723 16.8175 40.0231 16.4629C40.0231 16.4629 31.5997 14.9881 26.683 19.1337C21.7691 14.9881 13.3428 16.4629 13.3428 16.4629C11.6317 16.8287 10.1429 17.4 8.83984 18.1121C9.17475 19.584 10.0331 21.692 12.1946 23.6339Z" fill="#74A0D4"/>
</svg>
