<svg width="60" height="48" viewBox="0 0 60 48" fill="none" xmlns="http://www.w3.org/2000/svg">
<path d="M8.2 9.8V46.2H6C4.88609 46.2 3.8178 45.7575 3.03015 44.9698C2.2425 44.1822 1.8 43.1139 1.8 42V14C1.8 12.8861 2.2425 11.8178 3.03015 11.0302C3.8178 10.2425 4.88609 9.8 6 9.8H8.2Z" fill="#6C64C4" stroke="#6C64C4" stroke-width="3.6"/>
<path d="M13.8 46.2V9.8H46.2V46.2H13.8Z" fill="#6C64C4" stroke="#6C64C4" stroke-width="3.6"/>
<path d="M51.8 9.8H54C55.1139 9.8 56.1822 10.2425 56.9698 11.0302C57.7575 11.8178 58.2 12.8861 58.2 14V42C58.2 43.1139 57.7575 44.1822 56.9698 44.9698C56.1822 45.7575 55.1139 46.2 54 46.2H51.8V9.8Z" fill="#6C64C4" stroke="#6C64C4" stroke-width="3.6"/>
<path d="M21.5 7V4.5C21.5 3.43913 21.9214 2.42172 22.6716 1.67157C23.4217 0.921427 24.4391 0.5 25.5 0.5H34.5C35.5609 0.5 36.5783 0.921427 37.3284 1.67157C38.0786 2.42172 38.5 3.43913 38.5 4.5V7H36.5V4.5C36.5 3.96957 36.2893 3.46086 35.9142 3.08579C35.5391 2.71071 35.0304 2.5 34.5 2.5H25.5C24.9696 2.5 24.4609 2.71071 24.0858 3.08579C23.7107 3.46086 23.5 3.96957 23.5 4.5V7H21.5Z" fill="#6C64C4" stroke="#6C64C4"/>
</svg>
