<svg width="82" height="75" viewBox="0 0 82 75" fill="none" xmlns="http://www.w3.org/2000/svg">
<path d="M22.5 15.1H15.84C11.6956 15.1 9.62341 15.1 8.04047 15.9066C6.64805 16.616 5.516 17.7481 4.80656 19.1405C4 20.7234 4 22.7956 4 26.94V58.76C4 62.9044 4 64.9767 4.80656 66.5596C5.516 67.9519 6.64805 69.0841 8.04047 69.7934C9.62341 70.6 11.6956 70.6 15.84 70.6H66.16C70.3044 70.6 72.3767 70.6 73.9596 69.7934C75.3519 69.0841 76.4841 67.9519 77.1934 66.5596C78 64.9767 78 62.9044 78 58.76V26.94C78 22.7956 78 20.7234 77.1934 19.1405C76.4841 17.7481 75.3519 16.616 73.9596 15.9066C72.3767 15.1 70.3044 15.1 66.16 15.1H59.5M4 29.9H11.4M70.6 29.9H78M4 44.7H11.4M70.6 44.7H78M41 15.1V29.9M33.6 22.5H48.4M59.5 70.6V15.84C59.5 11.6956 59.5 9.62341 58.6934 8.04047C57.9841 6.64805 56.8519 5.516 55.4596 4.80656C53.8767 4 51.8044 4 47.66 4H34.34C30.1956 4 28.1234 4 26.5405 4.80656C25.1481 5.516 24.016 6.64805 23.3066 8.04047C22.5 9.62341 22.5 11.6956 22.5 15.84V70.6H59.5ZM48.4 70.6V55.8C48.4 51.713 45.087 48.4 41 48.4C36.913 48.4 33.6 51.713 33.6 55.8V70.6H48.4Z" stroke="#B5B1E1" stroke-width="7.4" stroke-linecap="round" stroke-linejoin="round"/>
</svg>
