<svg width="135" height="100" viewBox="0 0 135 100" fill="none" xmlns="http://www.w3.org/2000/svg">
<path fill-rule="evenodd" clip-rule="evenodd" d="M58.371 37.1984C57.428 50.2761 47.589 60.726 35.2805 61.732V53.6226H31.4161V61.732C19.1076 60.726 9.27242 50.2761 8.3295 37.1984H15.958V33.0924H8.3295C9.27242 20.0147 19.1076 9.56482 31.416 8.55886V16.6683H35.2805V8.55882C47.589 9.56482 57.428 20.0147 58.371 33.0924H50.7386V37.1984H58.371V37.1984ZM62.2355 33.0924C61.2771 17.7523 49.7222 5.47112 35.2805 4.45283V0.244141H31.4161V4.45283C16.9783 5.47115 5.42338 17.7523 4.46496 33.0924H0.5V37.1984H4.46496C5.42338 52.5386 16.9783 64.8197 31.416 65.838V70.0467H35.2805V65.838C49.7222 64.8197 61.2771 52.5386 62.2355 37.1984H66.1966V33.0924H62.2355V33.0924ZM33.3498 20.7743C25.8914 20.7743 19.8241 27.2208 19.8241 35.1454C19.8241 43.07 25.8914 49.5165 33.3498 49.5165C40.8083 49.5165 46.8756 43.07 46.8756 35.1454C46.8756 27.2208 40.8083 20.7743 33.3498 20.7743Z" fill="#FBF8F3"/>
<path fill-rule="evenodd" clip-rule="evenodd" d="M127.125 69.6235C126.241 81.6435 117.017 91.2481 105.478 92.1727V84.7192H101.855V92.1728C90.3157 91.2481 81.0952 81.6435 80.2112 69.6236H87.363V65.8496H80.2112C81.0952 53.8297 90.3157 44.225 101.855 43.3004V50.7539H105.478V43.3004C117.017 44.225 126.241 53.8297 127.125 65.8496H119.97V69.6236H127.125V69.6235ZM130.748 65.8496C129.85 51.7502 119.017 40.4624 105.478 39.5265V35.6582H101.855V39.5265C88.3195 40.4624 77.4868 51.7502 76.5882 65.8496H72.8711V69.6236H76.5882C77.4868 83.7229 88.3195 95.0107 101.855 95.9467V99.8149H105.478V95.9467C119.017 95.0107 129.85 83.7229 130.748 69.6236H134.462V65.8496H130.748V65.8496ZM103.668 77.1714C98.6754 77.1714 94.6104 72.937 94.6104 67.7365C94.6104 62.5361 98.6754 58.3018 103.668 58.3018C108.66 58.3018 112.725 62.5361 112.725 67.7366C112.725 72.937 108.66 77.1714 103.668 77.1714ZM103.668 54.5278C96.6755 54.5278 90.9874 60.4529 90.9874 67.7366C90.9874 75.0202 96.6755 80.9453 103.668 80.9453C110.66 80.9453 116.348 75.0202 116.348 67.7366C116.348 60.4529 110.66 54.5278 103.668 54.5278Z" fill="#FBF8F3"/>
</svg>
