<svg width="95" height="95" viewBox="0 0 95 95" fill="none" xmlns="http://www.w3.org/2000/svg">
<path d="M47.5 23.8889V85.2778M47.5 23.8889H30.8036C28.3435 23.8889 25.9841 22.8939 24.2446 21.1227C22.505 19.3515 21.5278 16.9493 21.5278 14.4444C21.5278 11.9396 22.505 9.53739 24.2446 7.76623C25.9841 5.99502 28.3435 5 30.8036 5C43.7897 5 47.5 23.8889 47.5 23.8889ZM47.5 23.8889H64.1964C66.6566 23.8889 69.0159 22.8939 70.7555 21.1227C72.4947 19.3515 73.4722 16.9493 73.4722 14.4444C73.4722 11.9396 72.4947 9.53739 70.7555 7.76623C69.0159 5.99502 66.6566 5 64.1964 5C51.2103 5 47.5 23.8889 47.5 23.8889ZM14.4444 47.5H80.5556V74.8889C80.5556 80.1782 80.5556 82.8232 79.5261 84.8433C78.6209 86.6203 77.1759 88.0653 75.3989 88.9706C73.3787 90 70.7338 90 65.4444 90H29.5556C24.2661 90 21.6215 90 19.6012 88.9706C17.8241 88.0653 16.3793 86.6203 15.4738 84.8433C14.4444 82.8232 14.4444 80.1782 14.4444 74.8889V47.5ZM12.5556 47.5H82.4444C85.0894 47.5 86.4116 47.5 87.4217 46.9853C88.3104 46.5324 89.0324 45.8104 89.4853 44.9217C90 43.9116 90 42.5894 90 39.9444V31.4444C90 28.7998 90 27.4774 89.4853 26.4673C89.0324 25.5787 88.3104 24.8563 87.4217 24.4036C86.4116 23.8889 85.0894 23.8889 82.4444 23.8889H12.5556C9.91087 23.8889 8.58851 23.8889 7.57838 24.4036C6.68985 24.8563 5.96744 25.5787 5.51467 26.4673C5 27.4774 5 28.7998 5 31.4444V39.9444C5 42.5894 5 43.9116 5.51467 44.9217C5.96744 45.8104 6.68985 46.5324 7.57838 46.9853C8.58851 47.5 9.91087 47.5 12.5556 47.5Z" stroke="#FBF8F3" stroke-width="9.44444" stroke-linecap="round" stroke-linejoin="round"/>
</svg>
