<svg width="60" height="48" viewBox="0 0 60 48" fill="none" xmlns="http://www.w3.org/2000/svg">
<path d="M8.2 9.8V46.2H6C4.88609 46.2 3.8178 45.7575 3.03015 44.9698C2.2425 44.1822 1.8 43.1139 1.8 42V14C1.8 12.8861 2.2425 11.8178 3.03015 11.0302C3.8178 10.2425 4.88609 9.8 6 9.8H8.2Z" fill="#FBF8F3" stroke="#FBF8F3" stroke-width="3.6"/>
<path d="M13.8 46.2V9.8H46.2V46.2H13.8Z" fill="#FBF8F3" stroke="#FBF8F3" stroke-width="3.6"/>
<path d="M51.8 9.8H54C55.1139 9.8 56.1822 10.2425 56.9698 11.0302C57.7575 11.8178 58.2 12.8861 58.2 14V42C58.2 43.1139 57.7575 44.1822 56.9698 44.9698C56.1822 45.7575 55.1139 46.2 54 46.2H51.8V9.8Z" fill="#FBF8F3" stroke="#FBF8F3" stroke-width="3.6"/>
<path d="M21 7.5V4.5C21 3.30653 21.4741 2.16193 22.318 1.31802C23.1619 0.474106 24.3065 0 25.5 0L34.5 0C35.6935 0 36.8381 0.474106 37.682 1.31802C38.5259 2.16193 39 3.30653 39 4.5V7.5H36V4.5C36 4.10218 35.842 3.72064 35.5607 3.43934C35.2794 3.15804 34.8978 3 34.5 3H25.5C25.1022 3 24.7206 3.15804 24.4393 3.43934C24.158 3.72064 24 4.10218 24 4.5V7.5H21Z" fill="#FBF8F3"/>
</svg>
