<svg width="65" height="56" viewBox="0 0 65 56" fill="none" xmlns="http://www.w3.org/2000/svg">
<path d="M2.61108 43V19.25C2.61108 15.7497 2.61108 13.9995 3.33095 12.6626C3.96413 11.4865 4.9745 10.5304 6.21726 9.93122C7.63005 9.25 9.47953 9.25 13.1784 9.25H16.6612C17.0672 9.25 17.2701 9.25 17.4574 9.22969C18.4346 9.12378 19.311 8.61122 19.848 7.83153C19.951 7.68209 20.0418 7.51025 20.2233 7.16666C20.5864 6.47944 20.768 6.13581 20.9739 5.83694C22.0481 4.27756 23.8009 3.25244 25.7552 3.04059C26.1297 3 26.5356 3 27.3476 3H37.3159C38.1279 3 38.5338 3 38.9083 3.04059C40.8626 3.25244 42.6154 4.27756 43.6897 5.83694C43.8954 6.13578 44.077 6.47953 44.4403 7.16666C44.6216 7.51028 44.7124 7.68209 44.8154 7.83153C45.3527 8.61122 46.2288 9.12378 47.206 9.22969C47.3935 9.25 47.5963 9.25 48.0025 9.25H51.4851C55.184 9.25 57.0336 9.25 58.4463 9.93122C59.689 10.5304 60.6995 11.4865 61.3325 12.6626C62.0524 13.9995 62.0524 15.7497 62.0524 19.25V43C62.0524 46.5003 62.0524 48.2506 61.3325 49.5875C60.6995 50.7634 59.689 51.7197 58.4463 52.3187C57.0336 53 55.184 53 51.4851 53H13.1784C9.47953 53 7.63005 53 6.21726 52.3187C4.9745 51.7197 3.96413 50.7634 3.33095 49.5875C2.61108 48.2506 2.61108 46.5003 2.61108 43Z" fill="#6C64C4" stroke="#6C64C4" stroke-width="4.99999" stroke-linecap="round" stroke-linejoin="round"/>
<path d="M32.3317 41.75C37.8033 41.75 42.2386 37.273 42.2386 31.75C42.2386 26.227 37.8033 21.75 32.3317 21.75C26.8601 21.75 22.4248 26.227 22.4248 31.75C22.4248 37.273 26.8601 41.75 32.3317 41.75Z" fill="#FBF8F3" stroke="#FBF8F3" stroke-width="4.99999" stroke-linecap="round" stroke-linejoin="round"/>
</svg>
