<svg width="54" height="54" viewBox="0 0 54 54" fill="none" xmlns="http://www.w3.org/2000/svg">
<path fill-rule="evenodd" clip-rule="evenodd" d="M13.2541 46.8406L8.35436 51.7546L2 45.3824L24.8299 22.5096C21.7696 16.1687 23.7821 8.54376 29.5725 4.53874C35.3632 0.533713 43.2079 1.34123 48.0609 6.44189C52.9142 11.5426 53.3309 19.4175 49.0433 25.002C44.7554 30.5866 37.0401 32.2173 30.8591 28.8461L18.3076 41.4333L23.5505 46.694L18.3291 51.9297L13.2541 46.8406Z" stroke="#6C64C4" stroke-width="3.53703" stroke-linecap="round" stroke-linejoin="round"/>
<path fill-rule="evenodd" clip-rule="evenodd" d="M41.77 12.1884C43.9983 14.4232 43.9951 18.0407 41.7621 20.2714C39.5295 22.5018 35.9121 22.5018 33.6795 20.2714C31.4469 18.0407 31.4433 14.4232 33.6716 12.1884C35.9135 9.9652 39.5285 9.9652 41.77 12.1884Z" stroke="#6C64C4" stroke-width="3.53703" stroke-linecap="round" stroke-linejoin="round"/>
</svg>
