<svg width="39" height="41" viewBox="0 0 39 41" fill="none" xmlns="http://www.w3.org/2000/svg">
<path d="M1.74622 38.5546C1.74622 37.3157 2.62125 34.262 2.62125 34.262C2.62125 34.262 3.10161 31.4342 7.53573 27.9399C11.6522 24.6972 15.9236 24.8868 15.9236 24.8868H19.2971" stroke="#FBF8F3" stroke-width="3.11264" stroke-linecap="round"/>
<path d="M36.7334 38.5546C36.7334 37.3157 35.8583 34.262 35.8583 34.262C35.8583 34.262 35.3803 31.4342 30.9447 27.9399C26.8274 24.6972 22.556 24.8868 22.556 24.8868H19.1832" stroke="#FBF8F3" stroke-width="3.11264" stroke-linecap="round"/>
<path d="M19.4369 39H2" stroke="#FBF8F3" stroke-width="3.11264" stroke-linecap="round"/>
<path d="M36.4362 39H19" stroke="#FBF8F3" stroke-width="3.11264" stroke-linecap="round"/>
<path d="M19.1832 20.3368C24.6264 20.3368 29.0389 16.336 29.0389 11.4008C29.0389 6.46552 24.6264 2.46472 19.1832 2.46472C13.7401 2.46472 9.32751 6.46552 9.32751 11.4008C9.32751 16.336 13.7401 20.3368 19.1832 20.3368Z" stroke="#FBF8F3" stroke-width="3.11264" stroke-linecap="round"/>
</svg>
