<svg width="68" height="69" viewBox="0 0 68 69" fill="none" xmlns="http://www.w3.org/2000/svg">
<path d="M67.5284 55.9824L67.5305 55.9866C67.9225 56.7174 67.8551 57.6108 67.3535 58.2697C66.8519 58.9287 66.0151 59.2455 65.2037 59.049L54.6233 56.6181L51.0023 66.7241M67.5284 55.9824L55.1945 33.1262C56.4527 30.2644 57.1567 27.1027 57.1567 23.7742C57.1567 10.95 46.7828 0.554688 33.9852 0.554688C21.1855 0.554688 10.8116 10.9521 10.8116 23.7742C10.8116 27.183 11.5514 30.4165 12.8645 33.3289L0.475747 55.9718C0.075294 56.7005 0.142739 57.5981 0.642251 58.2613C1.14176 58.9244 1.98693 59.2349 2.79627 59.0448L13.3745 56.6139L16.9955 66.7199M67.5284 55.9824L67.308 56.0924L67.3097 56.0959M67.5284 55.9824L67.3097 56.0959M16.9955 66.7199C17.2779 67.5055 17.9945 68.0504 18.8228 68.1117C18.8755 68.1159 18.9282 68.118 18.9788 68.118C19.7502 68.118 20.4668 67.6935 20.8356 67.005L31.6183 46.8775C32.396 46.9578 33.1864 46.9979 33.9852 46.9979C34.7166 46.9979 35.4395 46.9599 36.154 46.8923L47.1707 67.024C47.5437 67.7062 48.254 68.1223 49.0191 68.1223C49.0739 68.1223 49.1287 68.1201 49.1835 68.1159M16.9955 66.7199L17.2273 66.6365M16.9955 66.7199L17.2274 66.6368M49.1835 68.1159C50.0097 68.0483 50.722 67.5055 51.0023 66.7241M49.1835 68.1159L49.1634 67.8704C49.1636 67.8704 49.1639 67.8704 49.1641 67.8703M49.1835 68.1159L49.1645 67.8703C49.1644 67.8703 49.1643 67.8703 49.1641 67.8703M51.0023 66.7241L50.7704 66.641M51.0023 66.7241L50.7705 66.6409L54.3914 56.535L54.4652 56.329L54.6784 56.378L65.2588 58.809L65.2616 58.8096C65.9741 58.9821 66.7126 58.7049 67.1575 58.1205C67.6001 57.539 67.6603 56.7496 67.3134 56.1031L67.31 56.0967L67.3101 56.0966L67.3116 56.0994L67.3984 56.0526M50.7704 66.641L67.3984 56.0526M50.7704 66.641C50.523 67.3307 49.8942 67.8103 49.1641 67.8703M50.7704 66.641L67.3097 56.0959M67.3984 56.0526V56.0526ZM67.3097 56.0959L54.9777 33.2432L54.9205 33.1372L54.969 33.027C56.2139 30.1956 56.9103 27.0676 56.9103 23.7742C56.9103 11.0856 46.6463 0.801028 33.9852 0.801028C21.322 0.801028 11.058 11.0877 11.058 23.7742C11.058 27.147 11.7899 30.346 13.0891 33.2277L13.1395 33.3395L13.0806 33.4472L0.691855 56.0901L0.691632 56.0905C0.338205 56.7336 0.397421 57.5268 0.839019 58.113C1.28037 58.699 2.02662 58.9725 2.73994 58.805L2.74109 58.8047L13.3194 56.3738L13.5326 56.3248L13.6064 56.5308L17.2273 66.6365M17.2273 66.6365C17.2273 66.6366 17.2274 66.6367 17.2274 66.6368M17.2273 66.6365L17.2274 66.6368M17.2274 66.6368C17.4771 67.3311 18.1101 67.812 18.841 67.866L18.8425 67.8661C18.8888 67.8699 18.9349 67.8717 18.9788 67.8717C19.6597 67.8717 20.2927 67.4968 20.6185 66.8887L31.4012 46.7612L31.4792 46.6155L31.6436 46.6325C32.4127 46.7118 33.1947 46.7515 33.9852 46.7515C34.708 46.7515 35.4232 46.714 36.1308 46.647L36.2922 46.6318L36.3701 46.774L47.3867 66.9057L47.3868 66.9058C47.7165 67.5087 48.3437 67.8759 49.0191 67.8759C49.0674 67.8759 49.1157 67.8741 49.1641 67.8703M19.1326 60.9083L19.3196 61.4305L19.5816 60.9416L27.519 46.1279L27.6612 45.8626L27.373 45.7757C22.5836 44.332 18.4547 41.3649 15.5497 37.4299L15.3206 37.1195L15.1354 37.458L6.21795 53.7585L5.95467 54.2397L6.48928 54.1168L14.3129 52.3174L14.3145 52.317C15.2308 52.0995 16.1601 52.6137 16.4813 53.506L19.1326 60.9083ZM53.6856 52.317L53.6871 52.3174L61.5487 54.1231L62.0791 54.245L61.8206 53.766L52.939 37.3113L52.7531 36.9669L52.5229 37.2835C49.5804 41.3314 45.3492 44.3758 40.4347 45.8196L40.1412 45.9058L40.2881 46.1742L48.4004 60.9942L48.6636 61.475L48.8484 60.959L51.5186 53.5041C51.8397 52.6137 52.765 52.0994 53.6856 52.317ZM33.9852 4.54927C23.4074 4.54927 14.7996 13.1736 14.7996 23.7742C14.7996 34.3726 23.4031 42.9991 33.9831 42.9991C44.563 42.9991 53.1688 34.3748 53.1688 23.7742C53.1688 13.1736 44.563 4.54927 33.9852 4.54927Z" fill="#6C64C4" stroke="#6C64C4" stroke-width="0.49268"/>
<path d="M33.0173 23.6193C33.0164 23.7812 33.0473 23.9417 33.1082 24.0916C33.1692 24.2417 33.259 24.3782 33.3726 24.4934L33.3732 24.494L36.0759 27.2008C36.1851 27.3277 36.3189 27.4309 36.4693 27.5041C36.6215 27.5781 36.7873 27.6197 36.9563 27.6263C37.1253 27.6328 37.2938 27.6042 37.4512 27.5422C37.6086 27.4802 37.7515 27.3861 37.871 27.266C37.9905 27.1459 38.0839 27.0023 38.1455 26.8442C38.2071 26.6862 38.2355 26.5171 38.229 26.3475C38.2224 26.1779 38.1811 26.0115 38.1076 25.8587C38.0349 25.7076 37.9323 25.5731 37.806 25.4633L35.4697 23.1141V19.2824C35.4697 18.9559 35.3407 18.6426 35.1109 18.4115C34.881 18.1803 34.569 18.0503 34.2435 18.0503C33.918 18.0503 33.606 18.1803 33.3761 18.4115C33.1463 18.6426 33.0173 18.9559 33.0173 19.2824V23.6193ZM33.0173 23.6193C33.0173 23.6192 33.0173 23.619 33.0173 23.6188L33.1651 23.6197H33.0173V23.6193ZM44.5988 15.3748L44.5985 15.3751L44.6072 15.3825C44.7046 15.4664 44.7838 15.5697 44.8397 15.686C44.8956 15.8022 44.9271 15.9288 44.932 16.0579C44.937 16.187 44.9154 16.3157 44.8685 16.4359C44.8217 16.5562 44.7506 16.6653 44.6599 16.7565L44.7648 16.8608L44.6599 16.7565C44.5692 16.8478 44.4607 16.9191 44.3414 16.9661C44.2221 17.0131 44.0944 17.0348 43.9664 17.0298C43.8383 17.0249 43.7127 16.9933 43.5973 16.9372C43.4819 16.8811 43.3792 16.8015 43.2957 16.7035L43.2961 16.7032L43.288 16.6951L40.0571 13.4464C39.9068 13.2679 39.8283 13.0391 39.8373 12.805C39.8464 12.569 39.9437 12.3454 40.1095 12.1787C40.2752 12.012 40.4973 11.9145 40.7313 11.9054C40.9634 11.8964 41.1905 11.9751 41.3679 12.126L44.5988 15.3748ZM26.297 28.9595C25.2467 27.379 24.6861 25.5207 24.6861 23.6197C24.6861 21.0704 25.6932 18.6258 27.4857 16.8234C29.2781 15.0211 31.709 14.0088 34.2435 14.0088C36.1336 14.0088 37.9813 14.5723 39.553 15.6283C41.1247 16.6842 42.3498 18.1852 43.0733 19.9415C43.7968 21.6977 43.9861 23.6303 43.6173 25.4948C43.2484 27.3593 42.338 29.0719 41.0014 30.4159C39.6647 31.76 37.9617 32.6752 36.1079 33.046C34.2541 33.4167 32.3326 33.2265 30.5863 32.4991C28.84 31.7718 27.3473 30.5401 26.297 28.9595ZM23.8774 16.6951C23.7042 16.5198 23.6068 16.2824 23.6068 16.0349C23.6068 15.7873 23.7043 15.55 23.8776 15.3746C23.8776 15.3745 23.8777 15.3745 23.8777 15.3745L27.1083 12.126C27.2858 11.9751 27.5129 11.8964 27.745 11.9054C27.9789 11.9145 28.201 12.012 28.3668 12.1787C28.5326 12.3454 28.6298 12.569 28.6389 12.805C28.6479 13.0391 28.5694 13.2679 28.4191 13.4464L25.1885 16.6948C25.1885 16.6949 25.1884 16.6949 25.1884 16.695C25.014 16.8692 24.7783 16.9668 24.5328 16.9668C24.2874 16.9668 24.0518 16.8692 23.8774 16.6951Z" fill="#6C64C4" stroke="#6C64C4" stroke-width="0.295726"/>
</svg>
