<svg width="40" height="37" viewBox="0 0 40 37" fill="none" xmlns="http://www.w3.org/2000/svg">
<path d="M15.0521 0.719238C13.2796 0.719238 11.8274 2.03594 11.8274 3.64306V12.1011C11.8274 13.7083 13.2796 15.025 15.0521 15.025H24.3807C26.1532 15.025 27.6054 13.7083 27.6054 12.1011V3.64306C27.6055 3.62555 27.6049 3.60805 27.6037 3.59057C27.4878 2.01416 26.0664 0.719238 24.2938 0.719238H15.0521ZM15.0521 2.30002H24.2938C25.1352 2.30002 25.8017 2.89957 25.8619 3.69246V12.1011C25.8619 12.8652 25.2234 13.4442 24.3807 13.4442H15.0521C14.2094 13.4442 13.5709 12.8652 13.5709 12.1011V3.64306C13.5709 2.87902 14.2094 2.30002 15.0521 2.30002ZM18.8013 4.67118V7.04235H16.1861V8.62313H18.8013V10.9943H20.5447V8.62313H23.1599V7.04235H20.5447V4.67118H18.8013ZM3.7196 7.04235C1.94127 7.04235 0.494873 8.35378 0.494873 9.96617V36.2867H16.1861V26.8021H23.1599V36.2867H39.7228V9.96617C39.7228 8.35378 38.2764 7.04235 36.4981 7.04235H29.3489V12.1011C29.3489 14.583 27.1179 16.6057 24.3807 16.6057H15.0521C12.3149 16.6057 10.0839 14.583 10.0839 12.1011V7.04235H3.7196ZM4.85353 18.1078H10.9557V22.8501H4.85353V18.1078ZM16.1861 18.1078H23.1599V22.8501H16.1861V18.1078ZM28.3903 18.1078H34.4924V22.8501H28.3903V18.1078ZM4.85353 26.8021H10.9557V31.5444H4.85353V26.8021ZM28.3903 26.8021H34.4924V31.5444H28.3903V26.8021Z" fill="white"/>
</svg>
