<svg width="99" height="83" viewBox="0 0 99 83" fill="none" xmlns="http://www.w3.org/2000/svg">
<path d="M19.1157 43V19.25C19.1157 15.7497 19.1157 13.9995 19.8356 12.6626C20.4688 11.4865 21.4791 10.5304 22.7219 9.93122C24.1347 9.25 25.9842 9.25 29.6831 9.25H33.1658C33.5718 9.25 33.7748 9.25 33.9621 9.22969C34.9392 9.12378 35.8156 8.61122 36.3527 7.83153C36.4556 7.68209 36.5464 7.51025 36.728 7.16666C37.0911 6.47944 37.2726 6.13581 37.4785 5.83694C38.5527 4.27756 40.3055 3.25244 42.2599 3.04059C42.6343 3 43.0402 3 43.8522 3H53.8205C54.6326 3 55.0384 3 55.4129 3.04059C57.3672 3.25244 59.1201 4.27756 60.1943 5.83694C60.4 6.13578 60.5817 6.47953 60.9449 7.16666C61.1262 7.51028 61.217 7.68209 61.3201 7.83153C61.8573 8.61122 62.7334 9.12378 63.7106 9.22969C63.8982 9.25 64.1009 9.25 64.5071 9.25H67.9897C71.6886 9.25 73.5382 9.25 74.951 9.93122C76.1936 10.5304 77.2041 11.4865 77.8372 12.6626C78.5571 13.9995 78.5571 15.7497 78.5571 19.25V43C78.5571 46.5003 78.5571 48.2506 77.8372 49.5875C77.2041 50.7634 76.1936 51.7197 74.951 52.3187C73.5382 53 71.6886 53 67.9897 53H29.6831C25.9842 53 24.1347 53 22.7219 52.3187C21.4791 51.7197 20.4688 50.7634 19.8356 49.5875C19.1157 48.2506 19.1157 46.5003 19.1157 43Z" fill="#6C64C4" stroke="#6C64C4" stroke-width="4.99999" stroke-linecap="round" stroke-linejoin="round"/>
<path d="M48.8363 41.75C54.3079 41.75 58.7432 37.273 58.7432 31.75C58.7432 26.227 54.3079 21.75 48.8363 21.75C43.3648 21.75 38.9294 26.227 38.9294 31.75C38.9294 37.273 43.3648 41.75 48.8363 41.75Z" fill="#FBF8F3" stroke="#FBF8F3" stroke-width="4.99999" stroke-linecap="round" stroke-linejoin="round"/>
<path d="M8.51464 81L7.53964 78.165H3.50464L2.54464 81H0.504639L4.43464 70.245H6.62464L10.5546 81H8.51464ZM6.11464 73.755C6.07464 73.615 6.01464 73.425 5.93464 73.185C5.85464 72.945 5.77464 72.7 5.69464 72.45C5.62464 72.19 5.56964 71.975 5.52964 71.805C5.47964 72.005 5.41464 72.235 5.33464 72.495C5.26464 72.755 5.19464 73 5.12464 73.23C5.06464 73.46 5.01464 73.635 4.97464 73.755L4.02964 76.515H7.04464L6.11464 73.755ZM15.9681 81.15C15.0281 81.15 14.2631 80.8 13.6731 80.1C13.0931 79.39 12.8031 78.34 12.8031 76.95C12.8031 75.56 13.0981 74.51 13.6881 73.8C14.2781 73.08 15.0531 72.72 16.0131 72.72C16.4131 72.72 16.7631 72.775 17.0631 72.885C17.3731 72.985 17.6381 73.125 17.8581 73.305C18.0781 73.485 18.2631 73.685 18.4131 73.905H18.5031C18.4731 73.765 18.4431 73.55 18.4131 73.26C18.3831 72.97 18.3681 72.7 18.3681 72.45V69.6H20.2581V81H18.7881L18.4431 79.935H18.3681C18.2181 80.155 18.0331 80.36 17.8131 80.55C17.5931 80.73 17.3331 80.875 17.0331 80.985C16.7331 81.095 16.3781 81.15 15.9681 81.15ZM16.5381 79.62C17.2381 79.62 17.7331 79.42 18.0231 79.02C18.3131 78.62 18.4581 78.015 18.4581 77.205V76.965C18.4581 76.085 18.3181 75.415 18.0381 74.955C17.7681 74.495 17.2581 74.265 16.5081 74.265C15.9381 74.265 15.4981 74.505 15.1881 74.985C14.8781 75.455 14.7231 76.12 14.7231 76.98C14.7231 77.84 14.8781 78.495 15.1881 78.945C15.4981 79.395 15.9481 79.62 16.5381 79.62ZM26.0628 72.87V81H24.1728V72.87H26.0628ZM25.1178 69.735C25.3978 69.735 25.6428 69.81 25.8528 69.96C26.0628 70.1 26.1678 70.355 26.1678 70.725C26.1678 71.085 26.0628 71.345 25.8528 71.505C25.6428 71.655 25.3978 71.73 25.1178 71.73C24.8278 71.73 24.5778 71.655 24.3678 71.505C24.1678 71.345 24.0678 71.085 24.0678 70.725C24.0678 70.355 24.1678 70.1 24.3678 69.96C24.5778 69.81 24.8278 69.735 25.1178 69.735ZM33.2644 81.15C32.4944 81.15 31.8244 81.005 31.2544 80.715C30.6944 80.415 30.2594 79.96 29.9494 79.35C29.6494 78.73 29.4994 77.94 29.4994 76.98C29.4994 75.98 29.6644 75.17 29.9944 74.55C30.3344 73.92 30.7994 73.46 31.3894 73.17C31.9794 72.87 32.6544 72.72 33.4144 72.72C33.9244 72.72 34.3794 72.77 34.7794 72.87C35.1794 72.97 35.5194 73.09 35.7994 73.23L35.2444 74.715C34.9344 74.595 34.6244 74.495 34.3144 74.415C34.0044 74.325 33.7044 74.28 33.4144 74.28C32.9644 74.28 32.5894 74.38 32.2894 74.58C31.9994 74.78 31.7844 75.08 31.6444 75.48C31.5044 75.87 31.4344 76.365 31.4344 76.965C31.4344 77.545 31.5044 78.03 31.6444 78.42C31.7944 78.81 32.0144 79.105 32.3044 79.305C32.5944 79.495 32.9544 79.59 33.3844 79.59C33.8444 79.59 34.2494 79.535 34.5994 79.425C34.9494 79.315 35.2794 79.165 35.5894 78.975V80.61C35.2794 80.8 34.9444 80.935 34.5844 81.015C34.2344 81.105 33.7944 81.15 33.2644 81.15ZM40.8841 72.87V81H38.9941V72.87H40.8841ZM39.9391 69.735C40.2191 69.735 40.4641 69.81 40.6741 69.96C40.8841 70.1 40.9891 70.355 40.9891 70.725C40.9891 71.085 40.8841 71.345 40.6741 71.505C40.4641 71.655 40.2191 71.73 39.9391 71.73C39.6491 71.73 39.3991 71.655 39.1891 71.505C38.9891 71.345 38.8891 71.085 38.8891 70.725C38.8891 70.355 38.9891 70.1 39.1891 69.96C39.3991 69.81 39.6491 69.735 39.9391 69.735ZM52.0607 76.92C52.0607 77.6 51.9707 78.2 51.7907 78.72C51.6107 79.24 51.3507 79.685 51.0107 80.055C50.6807 80.415 50.2707 80.69 49.7807 80.88C49.3007 81.06 48.7657 81.15 48.1757 81.15C47.6157 81.15 47.1007 81.06 46.6307 80.88C46.1607 80.69 45.7507 80.415 45.4007 80.055C45.0607 79.685 44.7957 79.24 44.6057 78.72C44.4157 78.2 44.3207 77.6 44.3207 76.92C44.3207 76.02 44.4757 75.26 44.7857 74.64C45.0957 74.01 45.5407 73.535 46.1207 73.215C46.7107 72.885 47.4057 72.72 48.2057 72.72C48.9657 72.72 49.6307 72.885 50.2007 73.215C50.7807 73.535 51.2357 74.01 51.5657 74.64C51.8957 75.26 52.0607 76.02 52.0607 76.92ZM46.2557 76.92C46.2557 77.49 46.3207 77.98 46.4507 78.39C46.5907 78.79 46.8007 79.095 47.0807 79.305C47.3707 79.515 47.7407 79.62 48.1907 79.62C48.6507 79.62 49.0207 79.515 49.3007 79.305C49.5907 79.095 49.8007 78.79 49.9307 78.39C50.0607 77.98 50.1257 77.49 50.1257 76.92C50.1257 76.34 50.0557 75.855 49.9157 75.465C49.7857 75.065 49.5757 74.765 49.2857 74.565C49.0057 74.355 48.6407 74.25 48.1907 74.25C47.5107 74.25 47.0157 74.48 46.7057 74.94C46.4057 75.4 46.2557 76.06 46.2557 76.92ZM59.8646 72.72C60.7746 72.72 61.4846 72.955 61.9946 73.425C62.5146 73.895 62.7746 74.655 62.7746 75.705V81H60.8846V76.08C60.8846 75.47 60.7646 75.015 60.5246 74.715C60.2846 74.405 59.9046 74.25 59.3846 74.25C58.6246 74.25 58.1046 74.49 57.8246 74.97C57.5446 75.44 57.4046 76.125 57.4046 77.025V81H55.5146V72.87H56.9696L57.2396 73.935H57.3446C57.5246 73.655 57.7446 73.425 58.0046 73.245C58.2646 73.065 58.5546 72.935 58.8746 72.855C59.1946 72.765 59.5246 72.72 59.8646 72.72ZM69.8786 72.72C70.9286 72.72 71.7236 72.95 72.2636 73.41C72.8136 73.86 73.0886 74.57 73.0886 75.54V81H71.7536L71.3786 79.875H71.3186C71.0886 80.165 70.8486 80.41 70.5986 80.61C70.3586 80.8 70.0786 80.935 69.7586 81.015C69.4486 81.105 69.0686 81.15 68.6186 81.15C68.1386 81.15 67.7036 81.06 67.3136 80.88C66.9336 80.7 66.6336 80.425 66.4136 80.055C66.1936 79.675 66.0836 79.2 66.0836 78.63C66.0836 77.79 66.3886 77.16 66.9986 76.74C67.6186 76.31 68.5536 76.075 69.8036 76.035L71.2136 75.99V75.585C71.2136 75.065 71.0886 74.695 70.8386 74.475C70.5886 74.255 70.2386 74.145 69.7886 74.145C69.3786 74.145 68.9836 74.205 68.6036 74.325C68.2236 74.445 67.8536 74.585 67.4936 74.745L66.8936 73.425C67.2936 73.215 67.7486 73.045 68.2586 72.915C68.7786 72.785 69.3186 72.72 69.8786 72.72ZM70.2236 77.19C69.3936 77.22 68.8186 77.365 68.4986 77.625C68.1786 77.875 68.0186 78.215 68.0186 78.645C68.0186 79.025 68.1336 79.3 68.3636 79.47C68.5936 79.64 68.8886 79.725 69.2486 79.725C69.7986 79.725 70.2636 79.57 70.6436 79.26C71.0236 78.94 71.2136 78.47 71.2136 77.85V77.16L70.2236 77.19ZM81.2169 72.72C81.3369 72.72 81.4769 72.725 81.6369 72.735C81.7969 72.745 81.9319 72.765 82.0419 72.795L81.8769 74.55C81.7869 74.53 81.6669 74.515 81.5169 74.505C81.3769 74.485 81.2519 74.475 81.1419 74.475C80.8419 74.475 80.5519 74.525 80.2719 74.625C80.0019 74.715 79.7569 74.855 79.5369 75.045C79.3269 75.225 79.1569 75.46 79.0269 75.75C78.9069 76.04 78.8469 76.385 78.8469 76.785V81H76.9569V72.87H78.4119L78.6819 74.28H78.7719C78.9319 73.99 79.1319 73.73 79.3719 73.5C79.6119 73.26 79.8869 73.07 80.1969 72.93C80.5169 72.79 80.8569 72.72 81.2169 72.72ZM94.2102 75.015H97.1052V76.41H94.2102V79.335H92.8002V76.41H89.9202V75.015H92.8002V72.06H94.2102V75.015Z" fill="#6C64C4"/>
</svg>
