<svg width="30" height="27" viewBox="0 0 30 27" fill="none" xmlns="http://www.w3.org/2000/svg">
<path d="M14.9269 19.3213C13.9483 19.3213 13.1538 20.1189 13.1538 21.1024C13.1538 22.0862 13.9483 22.8839 14.9269 22.8839C15.9055 22.8839 16.6992 22.0862 16.6992 21.1024C16.6993 20.1189 15.9056 19.3213 14.9269 19.3213Z" fill="#232323"/>
<path d="M29.4499 22.2514L17.5365 1.51447C16.9999 0.580254 15.9998 0 14.9257 0C13.8525 0 12.8533 0.580312 12.3168 1.51447L0.402439 22.2505C-0.134146 23.1847 -0.134146 24.3453 0.402439 25.2795C0.939083 26.2136 1.93914 26.7935 3.01237 26.7935H26.8401C27.9132 26.7935 28.9133 26.2136 29.4499 25.2795C29.9866 24.3453 29.9866 23.1847 29.4499 22.2514ZM27.0809 23.733C26.9089 24.032 26.5885 24.2173 26.2442 24.2173H3.60784C3.2643 24.2173 2.94351 24.032 2.77238 23.7321C2.59956 23.4327 2.59869 23.0615 2.77157 22.7625L14.0899 3.06094C14.2615 2.76193 14.5818 2.57613 14.9266 2.57613C15.2706 2.57613 15.5905 2.76193 15.7625 3.06141L27.0809 22.7621C27.2529 23.0615 27.2529 23.4336 27.0809 23.733Z" fill="#232323"/>
<path d="M14.9269 7.34521C13.9483 7.34521 13.1538 8.14285 13.1538 9.12676L13.8348 17.1826C13.8348 17.7888 14.3233 18.2797 14.9269 18.2797C15.5297 18.2797 16.0191 17.7888 16.0191 17.1826L16.6992 9.12676C16.6993 8.14279 15.9056 7.34521 14.9269 7.34521Z" fill="#232323"/>
</svg>
