<svg width="55" height="56" viewBox="0 0 55 56" fill="none" xmlns="http://www.w3.org/2000/svg">
<path d="M19.6573 15.5945C18.1173 15.5945 16.9072 16.832 16.9072 18.3445C16.9072 19.8571 18.1448 21.0946 19.6573 21.0946C21.1698 21.0946 22.4073 19.8571 22.4073 18.3445C22.4073 16.832 21.1698 15.5945 19.6573 15.5945Z" fill="#6C64C4"/>
<path d="M53.51 8.8624C51.2003 3.5004 46.1132 0.503174 39.0189 0.503174H15.976C7.14934 0.503174 0 7.65251 0 16.4792V39.5221C0 46.6164 2.99722 51.7035 8.35923 54.0132C8.88168 54.2332 9.48662 54.0957 9.87159 53.7108L53.2076 10.3748C53.62 9.9623 53.7575 9.35736 53.51 8.8624ZM23.4553 28.6606C22.3829 29.7055 20.9806 30.2004 19.5782 30.2004C18.1758 30.2004 16.7734 29.678 15.701 28.6606C12.8963 26.0208 9.81659 21.8137 10.999 16.8092C12.0439 12.2721 16.0585 10.2373 19.5782 10.2373C23.0979 10.2373 27.1125 12.2721 28.1574 16.8367C29.3123 21.8137 26.2326 26.0208 23.4553 28.6606Z" fill="#6C64C4"/>
<path d="M48.0355 51.4546C48.6404 52.0595 48.5579 53.0495 47.8155 53.4619C45.3957 54.8093 42.4535 55.4967 39.0163 55.4967H15.9735C15.176 55.4967 14.8461 54.5618 15.396 54.0119L32.0044 37.4034C32.5544 36.8534 33.4068 36.8534 33.9568 37.4034L48.0355 51.4546Z" fill="#6C64C4"/>
<path d="M55.0001 16.4761V39.519C55.0001 42.9561 54.3126 45.9259 52.9653 48.3182C52.5528 49.0606 51.5629 49.1156 50.958 48.5381L36.8793 34.4594C36.3293 33.9095 36.3293 33.0571 36.8793 32.5071L53.4877 15.8987C54.0652 15.3487 55.0001 15.6787 55.0001 16.4761Z" fill="#6C64C4"/>
</svg>
