<svg width="56" height="61" viewBox="0 0 56 61" fill="none" xmlns="http://www.w3.org/2000/svg">
<path d="M52.5177 7.80664H48.4089V8.25293C48.4089 10.8445 46.6348 12.9507 44.4518 12.9507H44.0824C41.8993 12.9507 40.1253 10.8445 40.1253 8.25293V7.80664H32.1451V8.25293C32.1451 10.8445 30.371 12.9507 28.188 12.9507H27.8186C25.6356 12.9507 23.8615 10.8445 23.8615 8.25293V7.80664H15.8813V8.25293C15.8813 10.8445 14.1072 12.9507 11.9242 12.9507H11.5548C9.3718 12.9507 7.59769 10.8445 7.59769 8.25293V7.80664H3.48887C1.56307 7.80664 0 9.66226 0 11.9485V56.3659C0 58.6521 1.56307 60.5077 3.48887 60.5077H39.723C39.5318 59.944 39.4262 59.3333 39.4262 58.7069V47.3462C39.4262 43.7445 41.8928 40.8163 44.9266 40.8163H54.4831C55.0174 40.8163 55.5317 40.9337 56 41.1608V11.9407C56.0066 9.65443 54.4435 7.80664 52.5177 7.80664ZM27.5548 47.3462H15.3537C14.4435 47.3462 13.7049 46.4693 13.7049 45.3888C13.7049 44.3082 14.4435 43.4314 15.3537 43.4314H27.5548C28.465 43.4314 29.2036 44.3082 29.2036 45.3888C29.2036 46.4693 28.465 47.3462 27.5548 47.3462ZM39.8087 36.5805H15.413C14.5029 36.5805 13.7642 35.7035 13.7642 34.6231C13.7642 33.5425 14.5029 32.6657 15.413 32.6657H39.8087C40.7189 32.6657 41.4575 33.5425 41.4575 34.6231C41.4575 35.7035 40.7189 36.5805 39.8087 36.5805ZM39.8087 25.8147H15.413C14.5029 25.8147 13.7642 24.9378 13.7642 23.8573C13.7642 22.7768 14.5029 21.8999 15.413 21.8999H39.8087C40.7189 21.8999 41.4575 22.7768 41.4575 23.8573C41.4575 24.9378 40.7189 25.8147 39.8087 25.8147Z" fill="#6C64C4"/>
<path d="M54.4816 43.8613H44.9251C43.3026 43.8613 41.9902 45.4193 41.9902 47.3455V58.6906C41.9902 60.2409 43.5731 61.0238 44.4964 59.9199L55.5236 46.8288C55.8204 46.4764 55.9589 46.038 55.9589 45.6073C55.9523 44.7226 55.3653 43.8613 54.4816 43.8613Z" fill="#6C64C4"/>
<path d="M44.0821 10.6013H44.4514C45.5462 10.6013 46.43 9.55213 46.43 8.25241V7.80612V5.30065V2.34888C46.43 1.04917 45.5462 0 44.4514 0H44.0821C42.9872 0 42.1035 1.04917 42.1035 2.34888V5.30065V7.80612V8.25241C42.1035 9.55213 42.9873 10.6013 44.0821 10.6013Z" fill="#6C64C4"/>
<path d="M27.8184 10.6013H28.1878C29.2826 10.6013 30.1664 9.55213 30.1664 8.25241V7.80612V5.30065V2.34888C30.1664 1.04917 29.2826 0 28.1878 0H27.8184C26.7236 0 25.8398 1.04917 25.8398 2.34888V5.30065V7.80612V8.25241C25.8398 9.55213 26.7236 10.6013 27.8184 10.6013Z" fill="#6C64C4"/>
<path d="M11.5528 10.6013H11.9221C13.0169 10.6013 13.9007 9.55213 13.9007 8.25241V7.80612V5.30065V2.34888C13.9007 1.04917 13.0169 0 11.9221 0H11.5528C10.458 0 9.57422 1.04917 9.57422 2.34888V5.30065V7.80612V8.25241C9.57422 9.55213 10.458 10.6013 11.5528 10.6013Z" fill="#6C64C4"/>
</svg>
