<svg width="50" height="52" viewBox="0 0 50 52" fill="none" xmlns="http://www.w3.org/2000/svg">
<path d="M15.2248 27.0462V21.4573H9.63074L9.63585 27.0462H15.2248Z" fill="#6C64C4"/>
<path d="M27.799 27.0462V21.4573H22.2015L22.2101 27.0462H27.799Z" fill="#6C64C4"/>
<path d="M40.3692 27.0462V21.4573H34.7751L34.7803 27.0462H40.3692Z" fill="#6C64C4"/>
<path d="M15.2248 35.7088V30.1199H9.63074L9.63585 35.7088H15.2248Z" fill="#6C64C4"/>
<path d="M27.799 35.7088V30.1199H22.2015L22.2101 35.7088H27.799Z" fill="#6C64C4"/>
<path d="M40.3692 35.7088V30.1199H34.7751L34.7803 35.7088H40.3692Z" fill="#6C64C4"/>
<path d="M15.2248 44.3718V38.7829H9.63074L9.63585 44.3718H15.2248Z" fill="#6C64C4"/>
<path d="M27.799 44.3718V38.7829H22.2015L22.2101 44.3718H27.799Z" fill="#6C64C4"/>
<path d="M40.3692 44.3718V38.7829H34.7751L34.7803 44.3718H40.3692Z" fill="#6C64C4"/>
<path d="M0 43.2314C0 47.6087 3.56144 51.1701 7.93932 51.1701H42.0607C46.4386 51.1701 50 47.6087 50 43.2314V13.2275C50 9.58308 47.5279 6.51231 44.1751 5.58329V7.43224V7.94166C44.1751 10.1312 42.3938 11.9125 40.2043 11.9125H39.2116C37.0221 11.9125 35.2408 10.1312 35.2408 7.94166V7.05016V5.28821H14.7597V7.05016V7.94166C14.7597 10.1312 12.9779 11.9125 10.7889 11.9125H9.79623C7.60672 11.9125 5.82543 10.1312 5.82543 7.94166V7.43224V5.58329C2.47208 6.51231 0.000568786 9.58308 0.000568786 13.2275V43.2314H0ZM46.4761 18.8164V43.2308C46.4761 45.6654 44.4958 47.6462 42.0607 47.6462H7.93932C5.50477 47.6462 3.52391 45.6654 3.52391 43.2308V18.8164H46.4761Z" fill="#6C64C4"/>
<path d="M9.7962 10.4239H10.7889C12.1574 10.4239 13.2707 9.31068 13.2707 7.94217V2.48175C13.2707 1.11323 12.1574 0 10.7889 0H9.7962C8.42769 0 7.31445 1.11323 7.31445 2.48175V7.94217C7.31388 9.31068 8.42769 10.4239 9.7962 10.4239Z" fill="#6C64C4"/>
<path d="M39.2111 10.4239H40.2038C41.5723 10.4239 42.6856 9.31068 42.6856 7.94217V2.48175C42.6861 1.11323 41.5723 0 40.2038 0H39.2111C37.8426 0 36.7294 1.11323 36.7294 2.48175V7.94217C36.7294 9.31068 37.8426 10.4239 39.2111 10.4239Z" fill="#6C64C4"/>
</svg>
