<svg width="71" height="71" viewBox="0 0 71 71" fill="none" xmlns="http://www.w3.org/2000/svg">
<path d="M10.7686 14.6143V22.799H13.1156V11.932H11.242L7.98779 14.1212L8.91474 15.7779L10.7686 14.6143Z" fill="#6C64C4"/>
<path d="M10.9854 29.2285C11.1887 29.2095 11.3936 29.2323 11.5877 29.2954C11.7818 29.3585 11.961 29.4606 12.1143 29.5954C12.2676 29.7302 12.3917 29.8949 12.4791 30.0794C12.5664 30.2638 12.6152 30.4642 12.6224 30.6682C12.6224 31.4176 12.2082 32.1276 10.9065 33.1729L6.96208 36.2693V38.2415H15.1271V36.0524H10.5121L12.4843 34.5337C14.4565 33.1532 15.0088 32.029 15.0088 30.5893C14.9921 30.0975 14.875 29.6143 14.6647 29.1693C14.4544 28.7244 14.1554 28.3272 13.786 28.0021C13.4165 27.677 12.9845 27.4309 12.5165 27.2789C12.0484 27.1269 11.5543 27.0722 11.0643 27.1182C10.2424 27.1134 9.43105 27.3041 8.69725 27.6744C7.96345 28.0447 7.32816 28.5841 6.84375 29.2482L8.34264 30.6879C8.64378 30.2603 9.03816 29.9067 9.49599 29.6539C9.95382 29.4011 10.4631 29.2556 10.9854 29.2285Z" fill="#6C64C4"/>
<path d="M12.9375 48.5955C13.4973 48.4556 13.9948 48.1337 14.3518 47.6803C14.7088 47.2269 14.905 46.6678 14.9097 46.0908C14.9097 44.3749 13.3714 43.1127 10.9652 43.1127C10.1694 43.0989 9.38121 43.2698 8.66257 43.612C7.94394 43.9542 7.31445 44.4584 6.82358 45.0849L8.18441 46.5049C8.49937 46.1265 8.8904 45.8186 9.33211 45.6011C9.77382 45.3837 10.2563 45.2616 10.7483 45.2427C11.8133 45.2427 12.5627 45.7555 12.5627 46.5444C12.5627 47.3333 11.8527 47.7672 10.5905 47.7672H9.44664V49.7394H10.7089C12.1683 49.7394 12.8191 50.1536 12.8191 50.9819C12.8191 51.8102 12.1289 52.323 10.8469 52.323C10.3046 52.3187 9.76902 52.2027 9.27358 51.9821C8.77815 51.7616 8.33352 51.4412 7.96747 51.041L6.58691 52.5794C7.13656 53.1834 7.81122 53.6604 8.56395 53.9771C9.31668 54.2939 10.1294 54.4428 10.9455 54.4135C13.4897 54.4135 15.1464 53.0527 15.1464 51.1791C15.1448 50.5563 14.9217 49.9544 14.517 49.4811C14.1123 49.0077 13.5524 48.6938 12.9375 48.5955Z" fill="#6C64C4"/>
<path d="M63.9389 17.75C63.9389 17.2269 63.7311 16.7253 63.3613 16.3554C62.9914 15.9855 62.4897 15.7778 61.9667 15.7778H19.7217V19.7222H61.9667C62.4897 19.7222 62.9914 19.5144 63.3613 19.1445C63.7311 18.7747 63.9389 18.273 63.9389 17.75Z" fill="#6C64C4"/>
<path d="M61.9667 31.5554H19.7217V35.4999H61.9667C62.4897 35.4999 62.9914 35.2921 63.3613 34.9222C63.7311 34.5523 63.9389 34.0507 63.9389 33.5276C63.9389 33.0046 63.7311 32.5029 63.3613 32.1331C62.9914 31.7632 62.4897 31.5554 61.9667 31.5554Z" fill="#6C64C4"/>
<path d="M61.9667 47.3333H19.7217V51.2777H61.9667C62.4897 51.2777 62.9914 51.0699 63.3613 50.7001C63.7311 50.3302 63.9389 49.8286 63.9389 49.3055C63.9389 48.7824 63.7311 48.2808 63.3613 47.9109C62.9914 47.5411 62.4897 47.3333 61.9667 47.3333Z" fill="#6C64C4"/>
</svg>
