<svg width="64" height="64" viewBox="0 0 64 64" fill="none" xmlns="http://www.w3.org/2000/svg">
<path d="M39.9608 24.1766L33.3414 30.7959M39.9608 24.1766V16.2334L47.904 8.29016V16.2334H55.8472L47.904 24.1766H39.9608Z" stroke="#FBF8F3" stroke-width="5.29547" stroke-linecap="round" stroke-linejoin="round"/>
<path d="M44.9914 34.7675C44.5125 37.1105 43.4079 39.2801 41.7949 41.0456C40.1819 42.8112 38.1208 44.1069 35.8305 44.7951C33.5402 45.4833 31.1063 45.5382 28.7873 44.9541C26.4682 44.3699 24.3508 43.1686 22.6597 41.4775C20.9687 39.7865 19.7674 37.669 19.1832 35.35C18.5991 33.031 18.654 30.5971 19.3422 28.3068C20.0304 26.0165 21.3261 23.9554 23.0917 22.3424C24.8572 20.7294 27.0268 19.6248 29.3698 19.1459" stroke="#FBF8F3" stroke-width="5.29547" stroke-linecap="round" stroke-linejoin="round"/>
<path d="M32.891 8.29016H32.0173C27.3042 8.29016 22.697 9.68774 18.7782 12.3062C14.8595 14.9246 11.8052 18.6463 10.0016 23.0006C8.19795 27.3549 7.72604 32.1462 8.64551 36.7687C9.56498 41.3912 11.8345 45.6372 15.1672 48.9699C18.4998 52.3025 22.7458 54.572 27.3683 55.4915C31.9908 56.411 36.7822 55.9391 41.1365 54.1355C45.4908 52.3319 49.2124 49.2776 51.8309 45.3588C54.4493 41.44 55.8469 36.8328 55.8469 32.1198C55.8469 31.8285 55.8469 31.5373 55.8469 31.246" stroke="#FBF8F3" stroke-width="5.29547" stroke-linecap="round" stroke-linejoin="round"/>
</svg>
