<svg width="38" height="38" viewBox="0 0 38 38" fill="none" xmlns="http://www.w3.org/2000/svg">
<path d="M14.5761 16.7608C12.0716 16.7608 10.034 14.504 10.034 11.7301C10.034 10.6884 9.27147 9.84375 8.33088 9.84375C7.39029 9.84375 6.62773 10.6884 6.62773 11.7301C6.62773 16.5845 10.1933 20.5336 14.5761 20.5336C15.5167 20.5336 16.2792 19.689 16.2792 18.6472C16.2792 17.6054 15.5167 16.7608 14.5761 16.7608Z" fill="#FBF8F3"/>
<path d="M37.0109 34.5997L25.3853 22.9741C27.2842 20.558 28.4182 17.5135 28.4182 14.2091C28.4182 6.37413 22.044 0 14.209 0C6.37414 0 0 6.37413 0 14.209C0 22.0439 6.37414 28.418 14.209 28.418C17.5133 28.418 20.5579 27.2842 22.974 25.3852L34.5997 37.0108C34.9326 37.3438 35.3689 37.5103 35.8053 37.5103C36.2417 37.5103 36.678 37.3438 37.0109 37.0108C37.6767 36.345 37.6767 35.2654 37.0109 34.5997ZM3.41003 14.209C3.41003 8.25442 8.25443 3.41002 14.209 3.41002C20.1636 3.41002 25.0081 8.25442 25.0081 14.209C25.0081 20.1636 20.1636 25.008 14.209 25.008C8.25443 25.008 3.41003 20.1636 3.41003 14.209Z" fill="#FBF8F3"/>
</svg>
