<svg width="40" height="53" viewBox="0 0 40 53" fill="none" xmlns="http://www.w3.org/2000/svg">
<path d="M2 50.9997C2 49.7231 2.90036 46.5764 2.90036 46.5764C2.90036 46.5764 3.39463 43.6627 7.9571 40.0621C12.1927 36.7208 16.5878 36.9162 16.5878 36.9162H20.059" fill="#F8F3FB"/>
<path d="M2 50.9997C2 49.7231 2.90036 46.5764 2.90036 46.5764C2.90036 46.5764 3.39463 43.6627 7.9571 40.0621C12.1927 36.7208 16.5878 36.9162 16.5878 36.9162H20.059" stroke="#F8F3FB" stroke-width="3.14837" stroke-linecap="round"/>
<path d="M38 50.9997C38 49.7231 37.0997 46.5764 37.0997 46.5764C37.0997 46.5764 36.6078 43.6627 32.0438 40.0621C27.8073 36.7208 23.4123 36.9162 23.4123 36.9162H19.9419" fill="#F8F3FB"/>
<path d="M38 50.9997C38 49.7231 37.0997 46.5764 37.0997 46.5764C37.0997 46.5764 36.6078 43.6627 32.0438 40.0621C27.8073 36.7208 23.4123 36.9162 23.4123 36.9162H19.9419" stroke="#F8F3FB" stroke-width="3.14837" stroke-linecap="round"/>
<path d="M8.2 41.1429C7.4 42.0159 5.44 44.8095 4 49H37L34 42.1905L31.6 40.0952L26.2 38H20.8H14.2L8.2 41.1429Z" fill="#F8F3FB" stroke="#F8F3FB"/>
<path d="M19.9417 51H2" stroke="#F8F3FB" stroke-width="3.14837" stroke-linecap="round"/>
<path d="M37.9409 51H20" stroke="#F8F3FB" stroke-width="3.14837" stroke-linecap="round"/>
<path d="M19.9413 32.2281C25.542 32.2281 30.0822 28.1056 30.0822 23.0203C30.0822 17.935 25.542 13.8125 19.9413 13.8125C14.3406 13.8125 9.80029 17.935 9.80029 23.0203C9.80029 28.1056 14.3406 32.2281 19.9413 32.2281Z" fill="#F8F3FB" stroke="#F8F3FB" stroke-width="3.14837" stroke-linecap="round"/>
<path d="M15.9135 4.20274H15.8579V4.25833V6.37273V6.42831H15.9135H18.4337V8.85331V8.90889H18.4893H20.7139H20.7695V8.85331V6.42831H23.2898H23.3454V6.37273V4.25833V4.20274H23.2898H20.7695V1.77775V1.72216H20.7139H18.4893H18.4337V1.77775V4.20274H15.9135ZM4.62104 1.86308C14.4352 -0.547494 24.7885 -0.546914 34.6153 1.86484C33.5234 5.33748 31.2187 11.0906 29.4778 14.4493C25.6948 12.0779 22.6268 10.8869 19.699 10.8869C16.7728 10.8869 13.9964 12.0766 10.7956 14.445C9.04755 11.0841 6.17059 5.33581 4.62104 1.86308Z" fill="#F8F3FB" stroke="#F8F3FB" stroke-width="0.111174"/>
</svg>
