<svg width="630" height="620" viewBox="0 0 630 620" fill="none" xmlns="http://www.w3.org/2000/svg">
<path d="M595.551 195.27L577.511 184.706V130.595C577.511 130.595 557.56 119.283 557.198 119.283C556.837 119.283 536.886 130.595 536.886 130.595V152.253L516.573 140.329L496.274 152.253V172.851L475.961 184.774V148.786L465.798 142.831L455.648 148.786V172.633L445.485 166.678L425.172 178.602V160.438L415.023 154.483L394.71 166.406V196.48L384.56 190.525V178.602L364.247 166.678L343.935 178.602V166.665L313.459 148.786L293.146 160.71V136.862L272.887 124.884L252.574 136.808V169.955L242.411 175.91V152.076L222.071 140.193L201.745 152.076V187.847L171.256 170.009V146.162L150.943 134.238L130.63 146.162V159.867L120.481 153.912L100.168 165.835V180.383L79.8552 192.306V148.65L59.5424 136.726L33.1318 152.253V356.668H595.551V195.27Z" fill="#F5F5F5"/>
<path d="M34.7103 356.668C35.5661 356.668 36.2481 357.538 36.2481 356.668V32.3366C36.427 29.4766 37.254 26.6974 38.6644 24.2162C40.0749 21.735 42.0305 19.6191 44.3786 18.0337L67.9409 4.16582C69.813 3.06455 71.5113 2.80624 72.6881 3.52682C73.8649 4.2474 74.5201 5.82453 74.5201 8.02707V36.7553C74.556 37.1465 74.7342 37.5101 75.0199 37.7748C75.3056 38.0394 75.6781 38.1861 76.0646 38.1861C76.4511 38.1861 76.8237 38.0394 77.1094 37.7748C77.3951 37.5101 77.5733 37.1465 77.6092 36.7553V8.02707C77.6092 4.65528 76.4056 2.09924 74.2259 0.821227C72.0462 -0.45679 69.2781 -0.239257 66.403 1.44664L42.8809 15.3281C40.0483 17.1696 37.6918 19.6755 36.0094 22.6352C34.327 25.5949 33.3679 28.9218 33.2126 32.3366V356.668C33.1725 357.538 33.8678 356.668 34.7103 356.668Z" fill="black"/>
<path d="M70.9629 30.0662C72.6861 29.1744 74.5923 28.7095 76.5259 28.7095C78.4595 28.7095 80.3656 29.1744 82.0888 30.0662C82.7136 30.3595 83.2508 30.8161 83.6454 31.3893C84.0401 31.9626 84.2782 32.6319 84.3354 33.3292V35.6405C84.2705 36.3428 84.0233 37.0149 83.6192 37.5882C83.2151 38.1614 82.6685 38.6154 82.0353 38.9036C80.31 39.788 78.4046 40.2488 76.4724 40.2488C74.5401 40.2488 72.6348 39.788 70.9094 38.9036C70.2819 38.6075 69.7403 38.1514 69.3372 37.5797C68.9342 37.0079 68.6835 36.3399 68.6094 35.6405V33.3292C68.6793 32.6212 68.9344 31.9451 69.3483 31.3713C69.7622 30.7974 70.3197 30.3468 70.9629 30.0662Z" fill="#455A64"/>
<path d="M70.9627 32.4318C67.9004 34.2265 67.9004 37.1496 70.9627 38.9578C72.6881 39.8423 74.5934 40.3031 76.5257 40.3031C78.4579 40.3031 80.3633 39.8423 82.0886 38.9578C85.1509 37.1496 85.1509 34.2265 82.0886 32.4318C80.3654 31.54 78.4593 31.0751 76.5257 31.0751C74.5921 31.0751 72.6859 31.54 70.9627 32.4318Z" fill="#37474F"/>
<path d="M68.8623 54.5524H84.1871V36.4154C84.1244 35.7301 83.8832 35.074 83.4883 34.5149C83.0935 33.9557 82.5592 33.5136 81.9406 33.234C80.2607 32.3734 78.4058 31.925 76.5247 31.925C74.6436 31.925 72.7887 32.3734 71.1089 33.234C70.4902 33.5136 69.956 33.9557 69.5611 34.5149C69.1663 35.074 68.9251 35.7301 68.8623 36.4154V54.5524Z" fill="#6C64C4"/>
<path opacity="0.7" d="M68.8623 54.5524H84.1871V36.4154C84.1244 35.7301 83.8832 35.074 83.4883 34.5149C83.0935 33.9557 82.5592 33.5136 81.9406 33.234C80.2607 32.3734 78.4058 31.925 76.5247 31.925C74.6436 31.925 72.7887 32.3734 71.1089 33.234C70.4902 33.5136 69.956 33.9557 69.5611 34.5149C69.1663 35.074 68.9251 35.7301 68.8623 36.4154V54.5524Z" fill="white"/>
<path d="M81.9423 57.7338C84.9377 55.98 84.9377 53.1248 81.9423 51.371C80.2624 50.5103 78.4075 50.062 76.5264 50.062C74.6453 50.062 72.7904 50.5103 71.1106 51.371C68.1285 53.1248 68.1285 55.98 71.1106 57.7338C72.7904 58.5945 74.6453 59.0428 76.5264 59.0428C78.4075 59.0428 80.2624 58.5945 81.9423 57.7338Z" fill="#6C64C4"/>
<path opacity="0.5" d="M81.9423 57.7338C84.9377 55.98 84.9377 53.1248 81.9423 51.371C80.2624 50.5103 78.4075 50.062 76.5264 50.062C74.6453 50.062 72.7904 50.5103 71.1106 51.371C68.1285 53.1248 68.1285 55.98 71.1106 57.7338C72.7904 58.5945 74.6453 59.0428 76.5264 59.0428C78.4075 59.0428 80.2624 58.5945 81.9423 57.7338Z" fill="white"/>
<path opacity="0.2" d="M71.9258 39.0393C71.9258 38.1143 72.1956 37.21 72.701 36.4409C73.2065 35.6718 73.9249 35.0723 74.7655 34.7183C75.6061 34.3643 76.531 34.2717 77.4233 34.4522C78.3157 34.6326 79.1353 35.0781 79.7787 35.7322C80.422 36.3863 80.8602 37.2196 81.0376 38.1269C81.2151 39.0341 81.124 39.9745 80.7759 40.8291C80.4277 41.6837 79.8381 42.4142 79.0816 42.9281C78.3251 43.442 77.4357 43.7163 76.5259 43.7163C75.3059 43.7163 74.1358 43.2236 73.2731 42.3464C72.4104 41.4693 71.9258 40.2797 71.9258 39.0393Z" fill="white"/>
<path opacity="0.2" d="M68.8623 44.6681C69.7258 45.9192 70.8729 46.9404 72.2066 47.6454C73.5404 48.3505 75.0215 48.7185 76.5247 48.7185C78.028 48.7185 79.5091 48.3505 80.8428 47.6454C82.1766 46.9404 83.3237 45.9192 84.1871 44.6681V36.5105C84.1244 35.8251 83.8832 35.1691 83.4883 34.61C83.0935 34.0508 82.5592 33.6087 81.9406 33.3291C80.2607 32.4684 78.4058 32.0201 76.5247 32.0201C74.6436 32.0201 72.7887 32.4684 71.1089 33.3291C70.4902 33.6087 69.956 34.0508 69.5611 34.61C69.1663 35.1691 68.9251 35.8251 68.8623 36.5105V44.6681Z" fill="white"/>
<path opacity="0.4" d="M74.3858 39.0394C74.3831 38.6086 74.5064 38.1867 74.7399 37.8272C74.9733 37.4677 75.3066 37.1867 75.6973 37.02C76.088 36.8532 76.5186 36.8082 76.9345 36.8906C77.3505 36.973 77.7329 37.1791 78.0335 37.4828C78.3341 37.7865 78.5392 38.1741 78.6228 38.5964C78.7065 39.0187 78.6649 39.4568 78.5034 39.8551C78.3418 40.2534 78.0676 40.5939 77.7155 40.8336C77.3633 41.0732 76.9491 41.2012 76.5254 41.2012C75.9602 41.2012 75.418 40.9739 75.0172 40.5688C74.6163 40.1638 74.3893 39.614 74.3858 39.0394Z" fill="white"/>
<path d="M70.9629 50.6095C72.6861 49.7177 74.5923 49.2528 76.5259 49.2528C78.4595 49.2528 80.3656 49.7177 82.0888 50.6095C82.7136 50.9029 83.2508 51.3594 83.6454 51.9326C84.0401 52.5059 84.2782 53.1753 84.3354 53.8726V56.1839C84.2718 56.8865 84.0252 57.5592 83.6209 58.1327C83.2166 58.7063 82.6693 59.1599 82.0353 59.4469C80.31 60.3314 78.4046 60.7921 76.4724 60.7921C74.5401 60.7921 72.6348 60.3314 70.9094 59.4469C70.2771 59.1576 69.7312 58.7033 69.3273 58.1302C68.9233 57.5572 68.6757 56.8857 68.6094 56.1839V53.8726C68.6793 53.1645 68.9344 52.4884 69.3483 51.9146C69.7622 51.3408 70.3197 50.8901 70.9629 50.6095Z" fill="#455A64"/>
<path d="M70.9627 52.9208C67.9004 54.7155 67.9004 57.6386 70.9627 59.4469C72.6881 60.3313 74.5934 60.7921 76.5257 60.7921C78.4579 60.7921 80.3633 60.3313 82.0886 59.4469C85.1509 57.6386 85.1509 54.7155 82.0886 52.9208C80.3654 52.029 78.4593 51.5641 76.5257 51.5641C74.5921 51.5641 72.6859 52.029 70.9627 52.9208Z" fill="#37474F"/>
<path d="M593.973 356.668C593.117 356.668 592.435 357.538 592.435 356.668V32.3366C592.256 29.4766 591.429 26.6974 590.019 24.2162C588.609 21.735 586.653 19.6191 584.305 18.0337L560.743 4.16582C558.87 3.06455 557.172 2.80624 555.995 3.52682C554.818 4.2474 554.163 5.82453 554.163 8.02707V36.7553C554.127 37.1465 553.949 37.5101 553.664 37.7748C553.378 38.0394 553.005 38.1861 552.619 38.1861C552.232 38.1861 551.86 38.0394 551.574 37.7748C551.288 37.5101 551.11 37.1465 551.074 36.7553V8.02707C551.074 4.65528 552.278 2.09924 554.457 0.821227C556.637 -0.45679 559.405 -0.239257 562.28 1.44664L585.802 15.3281C588.635 17.1696 590.992 19.6755 592.674 22.6352C594.356 25.5949 595.316 28.9218 595.471 32.3366V356.668C595.511 357.538 594.816 356.668 593.973 356.668Z" fill="black"/>
<path d="M557.721 30.0662C555.998 29.1744 554.092 28.7095 552.158 28.7095C550.224 28.7095 548.318 29.1744 546.595 30.0662C545.96 30.352 545.412 30.8053 545.008 31.3791C544.603 31.9529 544.357 32.6262 544.295 33.3292V35.6405C544.36 36.3428 544.607 37.0149 545.011 37.5882C545.415 38.1614 545.962 38.6154 546.595 38.9036C548.32 39.788 550.226 40.2488 552.158 40.2488C554.09 40.2488 555.996 39.788 557.721 38.9036C558.348 38.6075 558.89 38.1514 559.293 37.5797C559.696 37.0079 559.947 36.3399 560.021 35.6405V33.3292C559.956 32.627 559.709 31.9549 559.305 31.3816C558.901 30.8083 558.354 30.3544 557.721 30.0662Z" fill="#455A64"/>
<path d="M557.72 32.4318C560.783 34.2265 560.783 37.1496 557.72 38.9578C555.995 39.8423 554.09 40.3031 552.158 40.3031C550.225 40.3031 548.32 39.8423 546.595 38.9578C543.532 37.1496 543.532 34.2265 546.595 32.4318C548.318 31.54 550.224 31.0751 552.158 31.0751C554.091 31.0751 555.997 31.54 557.72 32.4318Z" fill="#37474F"/>
<path d="M559.82 54.5524H544.495V36.4154C544.558 35.7301 544.799 35.074 545.194 34.5149C545.589 33.9557 546.123 33.5136 546.742 33.234C548.422 32.3734 550.276 31.925 552.158 31.925C554.039 31.925 555.894 32.3734 557.573 33.234C558.192 33.5136 558.726 33.9557 559.121 34.5149C559.516 35.074 559.757 35.7301 559.82 36.4154V54.5524Z" fill="#6C64C4"/>
<path opacity="0.7" d="M559.82 54.5524H544.495V36.4154C544.558 35.7301 544.799 35.074 545.194 34.5149C545.589 33.9557 546.123 33.5136 546.742 33.234C548.422 32.3734 550.276 31.925 552.158 31.925C554.039 31.925 555.894 32.3734 557.573 33.234C558.192 33.5136 558.726 33.9557 559.121 34.5149C559.516 35.074 559.757 35.7301 559.82 36.4154V54.5524Z" fill="white"/>
<path d="M546.742 57.7338C543.746 55.98 543.746 53.1248 546.742 51.371C548.422 50.5103 550.276 50.062 552.158 50.062C554.039 50.062 555.894 50.5103 557.573 51.371C560.555 53.1248 560.555 55.98 557.573 57.7338C555.894 58.5945 554.039 59.0428 552.158 59.0428C550.276 59.0428 548.422 58.5945 546.742 57.7338Z" fill="#6C64C4"/>
<path opacity="0.5" d="M546.742 57.7338C543.746 55.98 543.746 53.1248 546.742 51.371C548.422 50.5103 550.276 50.062 552.158 50.062C554.039 50.062 555.894 50.5103 557.573 51.371C560.555 53.1248 560.555 55.98 557.573 57.7338C555.894 58.5945 554.039 59.0428 552.158 59.0428C550.276 59.0428 548.422 58.5945 546.742 57.7338Z" fill="white"/>
<path opacity="0.2" d="M556.758 39.0393C556.758 38.1143 556.488 37.21 555.983 36.4409C555.477 35.6718 554.759 35.0723 553.918 34.7183C553.078 34.3643 552.153 34.2717 551.26 34.4522C550.368 34.6326 549.548 35.0781 548.905 35.7322C548.262 36.3863 547.824 37.2196 547.646 38.1269C547.469 39.0341 547.56 39.9745 547.908 40.8291C548.256 41.6837 548.846 42.4142 549.602 42.9281C550.359 43.442 551.248 43.7163 552.158 43.7163C553.378 43.7163 554.548 43.2236 555.411 42.3464C556.273 41.4693 556.758 40.2797 556.758 39.0393Z" fill="white"/>
<path opacity="0.2" d="M559.82 44.6681C558.957 45.9192 557.809 46.9404 556.476 47.6454C555.142 48.3505 553.661 48.7185 552.158 48.7185C550.654 48.7185 549.173 48.3505 547.839 47.6454C546.506 46.9404 545.359 45.9192 544.495 44.6681V36.5105C544.558 35.8251 544.799 35.1691 545.194 34.61C545.589 34.0508 546.123 33.6087 546.742 33.3291C548.422 32.4684 550.276 32.0201 552.158 32.0201C554.039 32.0201 555.894 32.4684 557.573 33.3291C558.192 33.6087 558.726 34.0508 559.121 34.61C559.516 35.1691 559.757 35.8251 559.82 36.5105V44.6681Z" fill="white"/>
<path opacity="0.4" d="M554.297 39.0394C554.299 38.6086 554.176 38.1867 553.943 37.8272C553.709 37.4677 553.376 37.1867 552.985 37.02C552.595 36.8532 552.164 36.8082 551.748 36.8906C551.332 36.973 550.95 37.1791 550.649 37.4828C550.348 37.7865 550.143 38.1741 550.06 38.5964C549.976 39.0187 550.018 39.4568 550.179 39.8551C550.341 40.2534 550.615 40.5939 550.967 40.8336C551.319 41.0732 551.733 41.2012 552.157 41.2012C552.722 41.2012 553.264 40.9739 553.665 40.5688C554.066 40.1638 554.293 39.614 554.297 39.0394Z" fill="white"/>
<path d="M557.721 50.6095C555.998 49.7177 554.092 49.2528 552.158 49.2528C550.224 49.2528 548.318 49.7177 546.595 50.6095C545.96 50.8954 545.412 51.3487 545.008 51.9224C544.603 52.4962 544.357 53.1695 544.295 53.8726V56.1839C544.359 56.8865 544.605 57.5592 545.009 58.1327C545.414 58.7063 545.961 59.1599 546.595 59.4469C548.32 60.3314 550.226 60.7921 552.158 60.7921C554.09 60.7921 555.996 60.3314 557.721 59.4469C558.353 59.1576 558.899 58.7033 559.303 58.1302C559.707 57.5572 559.955 56.8857 560.021 56.1839V53.8726C559.956 53.1703 559.709 52.4982 559.305 51.9249C558.901 51.3516 558.354 50.8977 557.721 50.6095Z" fill="#455A64"/>
<path d="M557.72 52.9208C560.783 54.7155 560.783 57.6386 557.72 59.4469C555.995 60.3313 554.09 60.7921 552.158 60.7921C550.225 60.7921 548.32 60.3313 546.595 59.4469C543.532 57.6386 543.532 54.7155 546.595 52.9208C548.318 52.029 550.224 51.5641 552.158 51.5641C554.091 51.5641 555.997 52.029 557.72 52.9208Z" fill="#37474F"/>
<path d="M506.157 87.6856C506.157 83.1989 510.984 80.0719 516.467 79.528C522.912 78.9026 527.499 81.8258 527.646 86.9922C531.872 85.2383 536.311 86.3668 535.977 91.071C537.074 89.7114 541.179 89.8202 542.663 90.1737C543.463 90.4046 544.205 90.8084 544.837 91.3574C545.47 91.9065 545.978 92.5879 546.327 93.3551C546.686 94.1061 546.821 94.9473 546.715 95.7752C549.176 94.9594 554.739 94.4156 556.17 96.7541C558.657 100.833 548.708 100.955 546.702 99.7316C546.274 102.899 535.589 103.43 532.995 100.493C530.976 102.56 528.074 103.022 524.972 103.212C519.623 103.525 516.44 101.703 512.321 99.5684C507.828 103.43 500.072 103.498 496.02 99.079C494.991 100.071 492.156 100.439 489.882 99.8268C488.385 99.4597 488.037 98.8071 488.037 98.8071C487.158 99.1946 486.238 99.4774 485.296 99.65C482.354 100.275 476.898 99.65 479.198 96.9308C480.606 95.9258 482.333 95.4941 484.039 95.7208C485.309 93.1648 490.457 90.7311 493.399 92.9064C493.533 89.8474 496.207 87.4137 500.219 86.8155C501.556 86.5979 504.646 86.4076 506.157 87.6856Z" fill="#F5F5F5"/>
<path d="M95.0337 95.0679C95.0337 90.5813 99.8745 87.4678 105.344 86.9104C111.803 86.2985 116.376 89.2217 116.537 94.3881C120.749 92.6206 125.202 93.7491 124.868 98.4669C125.964 97.1889 130.07 97.2161 131.554 97.5832C132.357 97.8098 133.103 98.2119 133.738 98.7614C134.373 99.3108 134.883 99.9944 135.231 100.765C135.582 101.513 135.717 102.348 135.619 103.171C138.066 102.355 143.643 101.811 145.06 104.15C147.561 108.229 137.612 108.365 135.606 107.128C135.178 110.309 124.48 110.826 121.899 107.889C119.866 109.969 116.965 110.418 113.875 110.608C108.527 110.934 105.344 109.113 101.212 106.964C96.732 110.839 88.9626 110.907 84.9241 106.488C83.8944 107.467 81.0461 107.848 78.7728 107.223C77.2751 106.869 76.9274 106.217 76.9274 106.217C76.0685 106.595 75.1717 106.878 74.2529 107.06C71.3243 107.685 65.8684 107.06 68.1551 104.34C69.5661 103.343 71.2906 102.912 72.9959 103.13C74.3331 100.574 79.4147 98.1542 82.3566 100.316C82.477 97.2161 85.2584 94.796 89.1899 94.1706C90.3667 93.9802 93.5226 93.8035 95.0337 95.0679Z" fill="#F5F5F5"/>
<path d="M618.78 439.154C629.224 449.772 621.829 459.439 610.101 458.719C614.781 471.363 606.317 481.165 602.225 482.715H25.1627V482.647C5.17089 474.041 4.74297 446.849 17.0055 442.444C8.44714 440.622 6.13371 421.425 17.8212 424.158L17.5939 423.981L17.9282 424.198C17.086 423.51 16.3433 422.704 15.7218 421.806C13.8229 419.44 12.7798 415.606 15.2403 413.24C9.06227 414.246 1.86789 408.821 4.93018 402.2C-2.61188 398.475 -0.993816 384.988 6.34766 381.806C-1.4886 375.335 1.80103 361.644 11.135 358.693C9.80407 357.109 9.03213 355.119 8.94192 353.037C8.11283 338.911 19.7201 332.643 22.769 332.276C22.1522 329.854 22.1308 327.315 22.7068 324.882C23.2828 322.45 24.4385 320.198 26.072 318.327C26.6061 317.752 27.1877 317.224 27.8105 316.75C29.4308 315.359 31.3254 314.337 33.3668 313.753C35.4083 313.169 37.5491 313.036 39.6451 313.364C39.1771 299.769 52.6565 290.591 64.2905 297.675C66.8046 284.446 93.71 286.798 95.0472 297.892C104.154 293.256 110.746 299.075 109.944 309.218C110.684 307.87 111.801 306.776 113.154 306.076C114.507 305.376 116.034 305.101 117.541 305.287C119.048 305.472 120.467 306.109 121.617 307.116C122.767 308.124 123.596 309.456 123.999 310.944C122.795 303.616 130.685 296.927 137.09 301.101C134.844 292.44 144.659 284.174 151.907 290.224C152.134 284.092 158.125 280.625 163.621 282.678C164.132 281.142 165.072 279.791 166.325 278.788C167.579 277.785 169.092 277.174 170.681 277.03C172.269 276.886 173.865 277.215 175.273 277.976C176.681 278.738 177.841 279.899 178.612 281.319C185.512 267.804 204.019 277.729 200.141 290.904C204.875 287.029 213.982 286.118 215.239 293.786C215.694 286.295 223.075 285.629 227.368 290.51C226.218 280.993 233.091 276.356 239.242 278.858C239.242 271.475 250.328 269.993 252.896 277.322C251.692 273.855 258.579 270.796 261.628 275.038C265.252 271.339 273.208 275.133 272.393 281.713C274.145 273.025 285.351 273.841 288.226 281.455C288.226 277.675 295.327 274.874 295.313 278.736C295.313 260.979 320.373 253.447 329.159 276.642C331.9 268.743 342.037 267.41 343.534 277.254C345.005 272.386 351.17 273.379 353.029 277.498C357.763 262.978 372.7 263.685 373.542 275.309C374.986 270.32 381.378 271.584 382.1 276.18C387.195 266.662 396.663 272.536 393.587 281.917C394.515 280.741 395.836 279.953 397.298 279.702C398.76 279.451 400.262 279.756 401.517 280.557C401.758 266.962 418.661 270.728 420.907 279.647C421.507 279.072 422.225 278.639 423.009 278.379C423.793 278.12 424.624 278.04 425.442 278.145C426.26 278.25 427.045 278.538 427.741 278.988C428.436 279.438 429.025 280.039 429.466 280.748C430.616 275.309 438.211 277.09 440.685 280.381C432.314 269.885 446.529 253.461 454.927 265.684C454.111 255.31 467.497 260.381 470.907 269.246C478.208 261.591 491.942 272.794 485.162 282.42C492.33 281.917 497.772 294.656 490.016 298.191C490.71 298.325 491.368 298.608 491.945 299.022C492.523 299.436 493.006 299.97 493.364 300.59C493.721 301.209 493.944 301.899 494.017 302.614C494.09 303.328 494.012 304.05 493.787 304.731C495.887 300.829 499.323 297.851 503.389 300.652C498.762 296.206 503.776 289.599 509.62 290.414C506.331 273.474 530.842 265.819 537.983 278.831C541.995 267.777 560.716 276.112 556.705 286.512C558.088 286.063 559.554 285.937 560.992 286.145C562.429 286.352 563.803 286.886 565.009 287.709C566.021 288.313 566.952 289.049 567.777 289.898C568.366 290.522 568.903 291.195 569.382 291.91C570.462 293.465 571.074 295.305 571.145 297.206C571.217 299.108 570.743 300.99 569.783 302.624C578.248 302.828 580.976 315.54 574.624 320.815C579.505 322.175 581.096 332.032 575.386 336.967C578.689 336.967 583.837 344.023 583.677 347.844C586.926 340.611 599.162 341.861 599.403 351.324C607.761 347.681 614.995 355.403 612.2 363.751C620.919 365.491 622.43 376.354 619.622 383.669C631.55 385.396 632.781 403.696 625.439 411.935C631.911 416.748 631.925 438.678 618.78 439.154Z" fill="#6C64C4"/>
<g opacity="0.15">
<path d="M545.405 308.429C544.667 307.463 543.736 306.666 542.674 306.093C541.611 305.519 540.44 305.181 539.24 305.101C538.039 305.022 536.835 305.202 535.708 305.63C534.581 306.059 533.556 306.725 532.701 307.586C532.047 308.241 531.489 308.987 531.043 309.802C530.127 308.935 529.032 308.285 527.839 307.9C526.646 307.514 525.384 307.402 524.143 307.573C522.208 307.912 520.427 308.861 519.052 310.286C517.677 311.711 516.777 313.539 516.48 315.513C517.573 314.015 519.04 312.842 520.73 312.117C522.419 311.392 524.269 311.14 526.086 311.389C527.904 311.637 529.623 312.377 531.063 313.53C532.504 314.683 533.615 316.208 534.279 317.946C534.332 317.381 534.332 316.812 534.279 316.247C534.114 314.898 533.701 313.593 533.062 312.399C533.349 312.019 533.661 311.66 533.998 311.325C535.595 309.697 537.688 308.667 539.935 308.405C542.182 308.144 544.45 308.665 546.368 309.884C546.098 309.366 545.775 308.878 545.405 308.429Z" fill="black"/>
<path d="M430.549 301.359C431.117 300.612 431.835 299.996 432.655 299.552C433.475 299.109 434.379 298.847 435.306 298.785C436.232 298.724 437.162 298.863 438.032 299.194C438.902 299.526 439.692 300.041 440.351 300.707C440.854 301.212 441.282 301.789 441.622 302.42C442.331 301.747 443.18 301.244 444.105 300.948C445.031 300.651 446.01 300.569 446.971 300.707C448.462 300.965 449.836 301.695 450.895 302.794C451.954 303.893 452.644 305.303 452.868 306.825C452.032 305.667 450.905 304.759 449.607 304.194C448.308 303.63 446.884 303.429 445.483 303.614C444.082 303.799 442.756 304.362 441.642 305.244C440.527 306.127 439.666 307.297 439.148 308.633C439.105 308.181 439.105 307.726 439.148 307.273C439.27 306.233 439.588 305.227 440.084 304.309C439.865 304.01 439.624 303.728 439.362 303.467C438.131 302.211 436.517 301.418 434.784 301.218C433.052 301.018 431.304 301.423 429.827 302.365C430.03 302.003 430.272 301.666 430.549 301.359Z" fill="black"/>
<path d="M592.583 433.185C592.329 433.199 592.074 433.199 591.82 433.185C592.073 433.146 592.33 433.146 592.583 433.185Z" fill="black"/>
<path d="M618.78 439.154C629.224 449.772 621.829 459.439 610.101 458.719C614.781 471.363 606.317 481.165 602.225 482.715H588.478C592.262 479.085 597.13 476.094 595.579 469.486C594.322 464.13 596.648 458.148 592.971 455.456C594.308 453.865 595.779 452.546 597.156 451.064C597.681 450.625 598.113 450.084 598.428 449.472C598.743 448.86 598.933 448.19 598.988 447.502C598.988 443.899 597.919 440.595 594.977 438.732C592.369 437.101 594.629 433.457 592.65 433.185C593.722 433.156 594.777 432.909 595.753 432.458C596.729 432.008 597.606 431.363 598.333 430.561C599.165 429.587 599.671 428.369 599.777 427.083C599.882 425.798 599.583 424.511 598.922 423.41C603.562 424.769 608.951 425.544 612.776 422.336C616.359 419.304 617.309 413.295 615.45 408.74C614.491 406.571 613.006 404.685 611.135 403.259C609.265 401.832 607.068 400.911 604.752 400.582C609.299 399.631 612.147 393.254 610.101 388.659C609.103 386.626 607.504 384.962 605.528 383.9C601.008 381.317 594.83 381.684 591.446 385.858C591.808 383.472 591.497 381.031 590.55 378.818C589.604 376.604 588.06 374.708 586.097 373.35C584.156 372.18 581.894 371.681 579.65 371.926C577.406 372.171 575.301 373.147 573.648 374.709C574.292 373.217 574.603 371.598 574.559 369.969C574.515 368.34 574.117 366.741 573.394 365.287C572.515 363.563 571.151 362.143 569.475 361.209C568.9 360.882 567.643 360.746 567.697 359.849C567.738 359.629 567.815 359.418 567.924 359.223C568.325 358.502 568.665 357.747 568.941 356.967C569.64 354.79 569.487 352.423 568.513 350.359C565.838 345.22 561.064 345.6 558.136 346.974C561.813 341.413 555.956 332.018 550.192 336.913C553.094 333.282 554.859 331.474 558.109 330.794C560.529 330.278 563.819 330.604 565.424 332.154C568.031 328.266 567.189 318.721 560.703 317.81C565.437 311.624 562.522 304.541 556.156 302.161C558.831 300.707 562.843 300.095 564.367 296.614C566.025 292.753 563.953 288.987 561.693 286.145L562.161 286.281C562.315 286.311 562.467 286.352 562.615 286.404C563.267 286.61 563.899 286.879 564.501 287.206C564.768 287.33 565.027 287.471 565.277 287.627C565.572 287.797 565.857 287.983 566.132 288.185C566.253 288.264 566.369 288.351 566.48 288.443C566.88 288.759 567.263 289.095 567.63 289.449C567.691 289.5 567.749 289.554 567.804 289.612C567.863 289.679 567.925 289.743 567.991 289.803C568.125 289.952 568.272 290.102 568.392 290.265C568.837 290.745 569.24 291.264 569.596 291.815C569.687 291.944 569.767 292.08 569.837 292.223C569.936 292.365 570.026 292.515 570.104 292.671C570.405 293.27 570.669 293.888 570.893 294.52C570.898 294.593 570.898 294.666 570.893 294.738C570.91 294.791 570.91 294.848 570.893 294.901C570.893 295.024 570.96 295.119 570.987 295.241C570.993 295.336 570.993 295.432 570.987 295.527C571.021 295.618 571.044 295.714 571.053 295.812C571.468 298.127 571.035 300.516 569.837 302.528C570.878 302.518 571.909 302.736 572.86 303.167C573.811 303.599 574.659 304.235 575.346 305.03L575.921 305.71C578.997 309.789 579.184 316.927 574.677 320.665C579.558 322.025 581.15 331.882 575.44 336.817C578.743 336.817 583.891 343.874 583.731 347.694C583.888 347.321 584.076 346.962 584.292 346.62C584.5 346.287 584.738 345.973 585.001 345.682C585.126 345.546 585.259 345.41 585.402 345.274C585.803 344.874 586.253 344.527 586.739 344.241C587.087 344.05 587.421 343.887 587.782 343.724C588.141 343.584 588.507 343.466 588.879 343.371C593.466 342.161 599.202 344.594 599.416 351.175C601.296 350.266 603.418 350.01 605.455 350.448C607.492 350.885 609.331 351.991 610.689 353.595C611.573 354.731 612.202 356.05 612.535 357.458C612.867 358.867 612.895 360.332 612.615 361.752C612.518 362.364 612.38 362.968 612.2 363.561C613.822 363.886 615.344 364.599 616.64 365.641C616.821 365.771 616.991 365.917 617.148 366.076C617.577 366.495 617.971 366.95 618.325 367.435C620.281 370.303 621.189 373.775 620.893 377.252C620.893 377.85 620.799 378.448 620.732 379.046C620.665 379.645 620.532 380.284 620.398 380.882C620.264 381.48 620.104 382.078 619.93 382.663C619.836 382.962 619.743 383.248 619.636 383.519C620.654 383.624 621.65 383.885 622.591 384.294C622.949 384.446 623.293 384.628 623.621 384.838C623.967 385.027 624.294 385.25 624.597 385.504C624.914 385.735 625.213 385.99 625.493 386.266L625.907 386.687C631.403 392.615 631.443 405.151 625.453 411.785C631.911 416.748 631.925 438.678 618.78 439.154Z" fill="black"/>
<path d="M35.8072 470.452C28.5326 472.138 33.9752 451.295 38.9363 448.018C23.3842 445.367 29.5756 432.424 33.106 428.984C23.0231 426.931 21.2045 414.831 31.4077 408.413C29.2146 407.693 26.0587 404.335 28.2651 398.325C30.8594 391.296 41.1696 390.535 43.9644 390.263C41.7446 389.733 35.2054 381.697 41.4236 375.09C39.883 376.258 38.1732 377.175 36.3555 377.809C35.3052 378.166 34.1953 378.307 33.0909 378.223C31.9865 378.139 30.9096 377.832 29.9233 377.32C28.7064 376.613 24.0929 372.099 28.5861 367.231C17.1526 367.531 25.2831 351.46 34.2426 352.004C30.0972 349.353 26.7808 346.198 28.3052 340.529C28.9806 338.367 30.1995 336.422 31.8413 334.887C33.4831 333.351 35.4909 332.278 37.666 331.773C30.5518 327.694 26.3796 322.107 29.6425 315.458C29.0034 315.835 28.3912 316.258 27.8105 316.723C27.1877 317.197 26.6061 317.724 26.072 318.3C24.4434 320.179 23.295 322.437 22.7283 324.875C22.1616 327.312 22.1939 329.854 22.8225 332.276C19.7736 332.643 8.11283 338.911 8.99541 353.037C9.0617 355.126 9.81506 357.132 11.135 358.734C1.77428 361.711 -1.4886 375.403 6.34766 381.847C-0.993816 385.001 -2.61188 398.488 4.93018 402.241C1.89464 408.862 9.06227 414.287 15.2403 413.281C12.7798 415.647 13.8229 419.481 15.7218 421.846C16.3433 422.745 17.086 423.551 17.9282 424.239L17.5939 424.022L17.8212 424.198C6.13371 421.479 8.46051 440.663 17.0055 442.485C4.74297 446.89 5.17089 474.082 25.1627 482.688V482.756H46.6523C40.9823 480.934 36.0479 476.91 35.8072 470.452Z" fill="black"/>
<path d="M121.498 324.35C120.899 323.286 120.085 322.364 119.109 321.644C118.134 320.924 117.019 320.422 115.839 320.171C114.659 319.921 113.44 319.927 112.263 320.191C111.085 320.454 109.976 320.968 109.008 321.699C108.268 322.247 107.614 322.907 107.069 323.657C106.271 322.665 105.268 321.865 104.13 321.312C102.993 320.76 101.75 320.47 100.49 320.462C98.5397 320.512 96.6575 321.201 95.1229 322.426C93.5884 323.65 92.4832 325.345 91.9717 327.26C92.9174 326.277 94.0444 325.494 95.2881 324.955C96.5317 324.417 97.8677 324.132 99.2196 324.119C101.529 324.18 103.758 324.992 105.579 326.436C107.401 327.88 108.72 329.879 109.343 332.14C109.435 331.579 109.48 331.01 109.476 330.441C109.478 329.077 109.224 327.725 108.727 326.457C109.053 326.12 109.401 325.807 109.77 325.519C111.576 324.137 113.788 323.419 116.047 323.48C118.306 323.542 120.477 324.381 122.207 325.859C122.02 325.333 121.783 324.828 121.498 324.35Z" fill="black"/>
<path d="M168.355 301.006C168.7 299.881 169.317 298.862 170.151 298.044C170.985 297.226 172.008 296.635 173.126 296.324C174.244 296.014 175.42 295.995 176.547 296.269C177.674 296.543 178.715 297.101 179.574 297.892C180.056 296.973 180.726 296.169 181.537 295.534C182.349 294.899 183.284 294.446 184.282 294.208C185.793 293.888 187.367 294.086 188.756 294.773C190.145 295.459 191.271 296.594 191.957 298.001C191.06 297.399 190.054 296.987 188.997 296.788C187.94 296.59 186.855 296.609 185.806 296.845C183.98 297.316 182.344 298.355 181.129 299.818C179.913 301.281 179.178 303.094 179.026 305.003C178.858 304.564 178.737 304.108 178.665 303.643C178.458 302.561 178.458 301.449 178.665 300.367C178.356 300.164 178.035 299.982 177.702 299.823C176.042 299.068 174.181 298.904 172.418 299.355C170.654 299.806 169.091 300.847 167.98 302.311C168.061 301.864 168.187 301.427 168.355 301.006Z" fill="black"/>
<path d="M45.663 349.081C46.122 348.493 46.699 348.011 47.3555 347.667C48.012 347.323 48.7329 347.125 49.4704 347.087C50.208 347.048 50.9451 347.17 51.6328 347.443C52.3206 347.717 52.9431 348.136 53.4591 348.673C53.858 349.073 54.196 349.531 54.4621 350.033C55.0275 349.5 55.7023 349.101 56.4378 348.866C57.1732 348.631 57.9509 348.565 58.7145 348.673C59.9023 348.893 60.9916 349.489 61.8271 350.375C62.6627 351.261 63.2019 352.393 63.3681 353.608C62.7079 352.683 61.8159 351.954 60.7848 351.497C59.7537 351.04 58.6211 350.872 57.5047 351.011C56.3883 351.15 55.3289 351.59 54.4363 352.286C53.5438 352.982 52.8509 353.908 52.4295 354.968C52.3963 354.62 52.3963 354.269 52.4295 353.921C52.5412 353.095 52.8042 352.297 53.2051 351.569C53.0324 351.335 52.8447 351.112 52.6434 350.903C51.6725 349.891 50.3931 349.243 49.0137 349.065C47.6343 348.888 46.2364 349.19 45.0479 349.924C45.2228 349.621 45.4291 349.339 45.663 349.081Z" fill="black"/>
</g>
<path d="M313.701 619.871C474.237 619.871 604.378 548.171 604.378 459.725C604.378 371.278 474.237 299.578 313.701 299.578C153.164 299.578 23.0234 371.278 23.0234 459.725C23.0234 548.171 153.164 619.871 313.701 619.871Z" fill="#6C64C4"/>
<path opacity="0.6" d="M313.701 619.871C474.237 619.871 604.378 548.171 604.378 459.725C604.378 371.278 474.237 299.578 313.701 299.578C153.164 299.578 23.0234 371.278 23.0234 459.725C23.0234 548.171 153.164 619.871 313.701 619.871Z" fill="white"/>
<path opacity="0.2" d="M204.38 573.781C261.551 573.781 307.897 546.578 307.897 513.021C307.897 479.464 261.551 452.26 204.38 452.26C147.21 452.26 100.864 479.464 100.864 513.021C100.864 546.578 147.21 573.781 204.38 573.781Z" fill="#6C64C4"/>
<path opacity="0.2" d="M426.832 562.347C481.521 562.347 525.855 536.324 525.855 504.224C525.855 472.124 481.521 446.102 426.832 446.102C372.143 446.102 327.809 472.124 327.809 504.224C327.809 536.324 372.143 562.347 426.832 562.347Z" fill="#6C64C4"/>
<path d="M157.642 241.116C153.871 252.768 152.775 268.947 151.223 295.5C149.699 321.468 149.164 344.69 147.305 373.663C144.631 380.569 141.1 387.789 138.734 419.562C137.543 435.66 137.249 455.564 135.578 472.587L134.334 482.892C136.487 494.952 153.831 496.04 156.158 488.915C157.691 484.98 158.955 480.941 159.942 476.828C165.706 453.933 174.853 422.567 180.349 405.545C184.628 392.343 196.329 344.866 204.125 317.579L215.037 372.085C215.037 372.085 211.386 378.707 218.273 415.062C221.509 432.125 223.849 437.02 226.831 460.649C227.152 463.219 229.171 464.728 229.238 467.298C229.238 468.046 231.177 470.506 238.225 471.567C245.272 472.627 252.627 467.706 252.573 466.659C251.236 439.902 253.175 396.531 253.309 378.544C253.683 334.316 253.309 264.99 251.53 236.792L157.642 241.116Z" fill="#B16668"/>
<path d="M291.821 499.234C292.276 499.234 293.078 504.17 290.738 506.345C288.063 508.874 280.04 513.143 269.168 512.015C258.296 510.886 255.274 508.806 250.861 505.217C246.448 501.627 242.37 497.929 237.489 496.977C232.929 496.107 225.988 494.462 224.491 493.075C222.993 491.689 223.02 485.367 223.02 485.367L291.821 499.234Z" fill="#263238"/>
<path d="M226.336 457.862C225.912 457.889 225.509 458.056 225.187 458.338C224.866 458.621 224.645 459.003 224.558 459.426C224.277 461.179 224.063 466.224 223.434 469.147C222.604 475.259 222.546 481.455 223.26 487.583C223.942 490.819 233.37 492.545 238.131 494.245C242.891 495.944 246.569 498.324 251.583 502.334C257.378 506.781 264.449 509.169 271.709 509.132C280.013 508.82 289.294 505.801 291.326 501.818C293.84 496.896 294.094 492.301 281.605 486.781C279.251 485.761 271.936 481.682 269.088 479.983C265.96 478.163 263.021 476.027 260.316 473.606C259.18 472.592 258.096 471.522 257.066 470.398C256.255 469.358 255.642 468.173 255.261 466.903C254.472 464.619 254.699 462.104 254.244 459.725C254.241 459.499 254.161 459.282 254.017 459.111C253.873 458.939 253.674 458.825 253.455 458.787C251.472 458.313 249.413 458.267 247.411 458.651C245.338 458.911 243.307 459.441 241.367 460.228C240.27 460.526 239.304 461.192 238.625 462.118C238.266 462.846 238.1 463.656 238.144 464.47C238.204 465.28 238.204 466.093 238.144 466.903C238.136 467.201 238.033 467.487 237.85 467.719C237.449 468.154 236.767 467.828 236.406 467.515C235.159 466.291 234.01 464.968 232.969 463.559C232.354 462.838 229.733 462.444 228.957 461.886C228.215 461.474 227.497 461.02 226.804 460.527C226.082 459.847 226.403 458.868 226.336 457.862Z" fill="#37474F"/>
<path d="M251.583 502.334C249.715 500.791 247.759 499.361 245.726 498.052C245.726 498.052 259.018 502.933 264.755 498.704C268.445 495.985 266.56 492.831 266.44 491.825C266.319 490.819 275.506 486.169 279.157 485.625C280.2 486.169 281.069 486.604 281.604 486.835C294.094 492.273 293.84 496.95 291.326 501.872C289.293 505.856 282.607 509.119 271.855 509.431C264.522 509.348 257.412 506.859 251.583 502.334Z" fill="#455A64"/>
<path d="M265.344 488.874C273.1 491.757 269.878 493.307 267.738 493.687C265.598 494.068 254.606 488.045 246.556 481.954C238.118 475.659 230.817 468.861 227.688 466.495C226.538 465.625 225.281 464.551 224.157 463.545C224.318 461.818 224.425 460.255 224.558 459.466C224.799 457.998 226.484 457.522 226.484 457.522L226.832 460.636C227.505 461.159 228.28 461.53 229.105 461.723C230.513 462.067 231.832 462.716 232.97 463.627C234.011 465.036 235.16 466.359 236.406 467.583C243.347 475.985 257.602 485.978 265.344 488.874Z" fill="#263238"/>
<path d="M267.162 492.559C267.019 492.562 266.879 492.525 266.756 492.45C266.633 492.376 266.533 492.269 266.468 492.14C266.402 492.011 266.374 491.866 266.385 491.721C266.397 491.577 266.448 491.438 266.533 491.322C268.288 489.364 270.435 487.811 272.829 486.767C275.223 485.724 277.81 485.214 280.414 485.272C280.599 485.307 280.765 485.41 280.879 485.562C280.993 485.714 281.048 485.904 281.033 486.095C281.018 486.285 280.934 486.464 280.798 486.595C280.661 486.727 280.482 486.803 280.294 486.808C275.012 486.386 269.395 490.071 267.737 492.246C267.669 492.337 267.582 492.412 267.483 492.466C267.384 492.52 267.274 492.551 267.162 492.559Z" fill="#F0F0F0"/>
<path d="M260.355 488.915C260.178 488.926 260.003 488.873 259.861 488.766C259.701 488.644 259.594 488.463 259.564 488.262C259.534 488.061 259.583 487.856 259.7 487.691C261.411 485.697 263.521 484.097 265.89 482.999C268.259 481.902 270.831 481.332 273.434 481.329C273.533 481.332 273.631 481.356 273.722 481.398C273.812 481.44 273.893 481.501 273.96 481.575C274.028 481.65 274.08 481.738 274.113 481.833C274.147 481.928 274.161 482.03 274.156 482.131C274.151 482.233 274.126 482.332 274.083 482.424C274.04 482.516 273.979 482.599 273.904 482.667C273.83 482.735 273.743 482.788 273.648 482.822C273.554 482.856 273.454 482.87 273.353 482.865C271.004 482.891 268.686 483.415 266.547 484.402C264.408 485.39 262.495 486.821 260.93 488.602C260.861 488.692 260.775 488.767 260.676 488.821C260.577 488.875 260.467 488.907 260.355 488.915Z" fill="#F0F0F0"/>
<path d="M254.044 484.741C253.866 484.741 253.693 484.684 253.549 484.578C253.392 484.45 253.291 484.265 253.266 484.062C253.241 483.859 253.294 483.654 253.415 483.49C255.171 481.535 257.318 479.985 259.712 478.943C262.107 477.902 264.692 477.394 267.296 477.454C267.496 477.471 267.681 477.568 267.811 477.723C267.941 477.878 268.006 478.08 267.991 478.283C267.984 478.384 267.958 478.483 267.913 478.574C267.868 478.665 267.806 478.745 267.73 478.811C267.654 478.877 267.566 478.927 267.47 478.958C267.375 478.988 267.275 478.999 267.175 478.99C261.893 478.569 256.277 482.253 254.619 484.429C254.55 484.519 254.464 484.594 254.364 484.648C254.265 484.702 254.156 484.734 254.044 484.741Z" fill="#F0F0F0"/>
<path d="M248.467 480.948C248.292 480.964 248.116 480.916 247.972 480.812C247.89 480.755 247.819 480.681 247.765 480.596C247.71 480.511 247.673 480.415 247.656 480.315C247.639 480.215 247.641 480.112 247.663 480.013C247.685 479.914 247.727 479.82 247.785 479.738C249.46 477.712 251.54 476.072 253.888 474.927C256.235 473.783 258.796 473.161 261.398 473.103C261.506 473.089 261.616 473.097 261.72 473.129C261.824 473.161 261.92 473.215 262.001 473.288C262.083 473.361 262.148 473.451 262.193 473.551C262.238 473.652 262.261 473.761 262.261 473.871C262.261 473.982 262.238 474.091 262.193 474.191C262.148 474.292 262.083 474.382 262.001 474.454C261.92 474.527 261.824 474.581 261.72 474.613C261.616 474.645 261.506 474.654 261.398 474.639C256.049 474.449 250.7 478.378 249.082 480.622C249.015 480.724 248.923 480.808 248.816 480.865C248.708 480.922 248.589 480.95 248.467 480.948Z" fill="#F0F0F0"/>
<path d="M242.45 476.475C242.279 476.489 242.108 476.441 241.969 476.339C241.886 476.282 241.815 476.208 241.761 476.123C241.707 476.038 241.67 475.942 241.652 475.842C241.635 475.742 241.637 475.639 241.659 475.54C241.682 475.441 241.723 475.347 241.781 475.265C244.456 471.254 251.035 468.29 256.705 468.467C256.907 468.476 257.098 468.566 257.234 468.718C257.371 468.87 257.443 469.07 257.434 469.276C257.425 469.481 257.336 469.675 257.187 469.814C257.038 469.953 256.84 470.026 256.638 470.017C251.543 469.799 245.432 472.532 243.025 476.094C242.967 476.2 242.884 476.291 242.784 476.357C242.684 476.423 242.569 476.464 242.45 476.475Z" fill="#F0F0F0"/>
<path d="M155.315 526.685C154.553 534.244 153.175 539.22 150.327 543.544C147.479 547.867 142.424 548.982 137.436 547.5C132.448 546.018 126.11 542.184 124.96 535.576C123.81 528.969 124.291 524.509 125.749 517.535L155.315 526.685Z" fill="#263238"/>
<path d="M135.577 472.532C133.785 473.035 132.903 483.409 131.231 493.524C129.466 504.401 127.42 507.596 125.882 516.501C124.104 526.671 124.665 530.097 127.915 536.474C131.164 542.85 143.387 549.471 149.926 540.892C155.275 533.904 155.596 527.038 155.596 516.8C155.528 508.668 155.912 500.538 156.746 492.45C157.495 484.809 161.72 477.698 159.942 476.774C160.276 476.937 158.605 482.022 158.444 482.457C158.188 483.444 157.782 484.384 157.241 485.244C156.198 486.604 155.823 484.279 155.903 483.395C155.903 481.886 156.518 480.676 155.409 479.384C154.544 478.521 153.509 477.854 152.373 477.426C151.171 476.871 149.917 476.443 148.629 476.148C145.988 475.604 143.3 475.33 140.605 475.333C140.027 475.275 139.443 475.35 138.896 475.552C138.35 475.754 137.856 476.079 137.449 476.502C137.292 476.742 137.179 477.009 137.115 477.291C136.874 478.283 136.941 479.33 136.687 480.322C136.687 480.594 136.473 481.329 136.206 481.478C135.938 481.628 135.51 481.478 135.497 481.342C135.484 481.206 135.296 474.299 135.577 472.532Z" fill="#37474F"/>
<path d="M126.457 513.021C126.189 514.489 124.772 523.653 127.313 525.543C130.067 527.568 131.966 519.968 131.966 519.968C131.966 519.968 138.653 518.201 148.187 522.946C147.612 524.509 148.869 529.812 151.584 528.819C154.298 527.827 155.595 517.82 155.595 517.684C155.595 527.5 155.114 534.094 149.926 540.892C143.386 549.471 131.204 542.823 127.914 536.474C124.625 530.124 124.103 526.671 125.882 516.501C126.056 515.482 126.243 513.932 126.457 513.021Z" fill="#455A64"/>
<path d="M132.689 520.648C132.489 524.346 129.293 522.932 129.025 517.711C128.624 509.88 130.871 502.511 131.232 493.524C132.89 483.382 133.492 472.6 135.578 472.532C135.417 474.299 135.471 481.342 135.471 481.342C134.495 488.929 132.128 497.766 132.074 505.638C132.034 512.572 132.903 516.95 132.689 520.648Z" fill="#263238"/>
<path d="M147.063 522.796C147.906 519.193 149.109 518.214 150.139 511.348C151.169 504.482 155.488 492.314 157.2 484.945C157.694 482.647 159.874 476.788 159.874 476.788C161.211 477.481 159.727 481.709 158.537 486.305C157.347 490.9 156.504 493.674 155.648 498.065C153.469 506.794 152.787 516.134 151.396 521.178C150.005 526.222 146.221 526.399 147.063 522.796Z" fill="#263238"/>
<path d="M147.88 523.014C147.782 522.994 147.688 522.963 147.599 522.919C142.695 520.312 137.067 519.469 131.632 520.526C131.534 520.548 131.432 520.55 131.333 520.531C131.234 520.513 131.139 520.475 131.055 520.419C130.97 520.364 130.897 520.292 130.84 520.207C130.783 520.123 130.743 520.028 130.723 519.928C130.699 519.827 130.696 519.722 130.713 519.619C130.73 519.517 130.767 519.419 130.822 519.332C130.877 519.244 130.948 519.169 131.032 519.11C131.116 519.051 131.211 519.01 131.311 518.989C137.129 517.831 143.162 518.753 148.388 521.6C148.476 521.652 148.552 521.721 148.613 521.803C148.674 521.886 148.719 521.98 148.744 522.08C148.769 522.18 148.774 522.284 148.758 522.386C148.743 522.488 148.708 522.586 148.655 522.674C148.571 522.799 148.453 522.898 148.316 522.958C148.179 523.018 148.027 523.038 147.88 523.014Z" fill="#F0F0F0"/>
<path d="M150.314 515.753C150.225 515.741 150.139 515.713 150.059 515.672C149.979 515.672 140.913 510.886 131.432 512.654C131.23 512.69 131.022 512.645 130.852 512.528C130.683 512.411 130.564 512.232 130.522 512.028C130.491 511.822 130.538 511.61 130.655 511.438C130.772 511.266 130.949 511.147 131.151 511.104C141.18 509.241 150.421 514.095 150.782 514.285C150.962 514.383 151.096 514.55 151.157 514.748C151.217 514.947 151.197 515.162 151.103 515.346C151.029 515.489 150.914 515.605 150.772 515.678C150.631 515.751 150.47 515.777 150.314 515.753Z" fill="#F0F0F0"/>
<path d="M130.63 506.603C130.483 506.583 130.346 506.519 130.234 506.42C130.123 506.321 130.042 506.191 130.002 506.046C129.943 505.846 129.966 505.631 130.063 505.447C130.161 505.264 130.326 505.127 130.523 505.067C140.004 502.28 152.079 507.283 152.467 507.514C152.644 507.619 152.773 507.791 152.825 507.993C152.878 508.194 152.85 508.408 152.748 508.588C152.64 508.763 152.471 508.889 152.275 508.942C152.079 508.995 151.871 508.971 151.692 508.874C151.598 508.874 139.777 503.979 130.951 506.576C130.848 506.612 130.738 506.622 130.63 506.603Z" fill="#F0F0F0"/>
<path d="M132.475 500.037C132.305 500.007 132.15 499.92 132.034 499.791C131.918 499.662 131.847 499.497 131.834 499.323C131.82 499.148 131.863 498.974 131.958 498.828C132.052 498.681 132.192 498.571 132.354 498.514C142.798 495.237 153.095 501.451 153.443 501.682C153.531 501.739 153.606 501.813 153.666 501.9C153.726 501.987 153.768 502.085 153.79 502.188C153.813 502.292 153.815 502.399 153.796 502.503C153.778 502.608 153.74 502.707 153.683 502.797C153.627 502.886 153.554 502.963 153.469 503.024C153.383 503.084 153.287 503.127 153.185 503.15C153.083 503.173 152.978 503.175 152.875 503.156C152.773 503.137 152.675 503.098 152.587 503.041C152.507 503.041 142.531 497.032 132.809 500.064C132.697 500.089 132.581 500.079 132.475 500.037Z" fill="#F0F0F0"/>
<path d="M133.424 491.974C133.254 491.944 133.099 491.858 132.983 491.729C132.867 491.6 132.797 491.435 132.783 491.26C132.769 491.086 132.813 490.912 132.907 490.765C133.001 490.619 133.141 490.508 133.304 490.451C143.079 487.229 154.124 493.592 154.512 493.85C154.69 493.962 154.816 494.141 154.864 494.348C154.911 494.554 154.876 494.771 154.766 494.952C154.656 495.132 154.481 495.261 154.277 495.309C154.074 495.357 153.861 495.322 153.683 495.21C153.59 495.142 142.865 488.983 133.772 491.974C133.657 492.001 133.538 492.001 133.424 491.974Z" fill="#EBEBEB"/>
<path d="M204.378 321.576L213.485 370.413C213.485 370.413 213.325 381.453 214.354 395.593C215.384 409.732 219.369 429.093 222.766 444.021C227.432 446.655 232.684 448.03 238.021 448.015C243.358 448.001 248.602 446.598 253.255 443.94C253.255 443.94 254.097 387.965 254.231 368.075C254.418 342.446 253.495 268.172 251.824 236.711L154.205 241.333C154.205 241.333 150.902 252.781 149.792 278.042C148.682 303.304 146.155 371.759 146.155 371.759C138.131 396.232 137.69 411.799 136.406 456.407C146.034 469.5 164.742 462.729 164.742 462.729C164.742 462.729 178.904 416.816 182.969 403.315C187.743 387.422 199.778 336.695 204.365 321.508" fill="#455A64"/>
<path d="M245.299 287.152L246.944 325.043C247.251 331.202 247.759 364.091 247.639 370.168C247.519 376.246 245.78 425.395 246.542 437.754C248.027 423.995 250.006 381.725 250.474 369.298C250.474 356.804 250.327 347.395 249.07 326.131C248.474 313.081 247.215 300.07 245.299 287.152Z" fill="#37474F"/>
<path d="M186.981 282.787C185.483 296.886 175.828 354.248 173.702 368.197C171.576 382.146 157.08 437.02 155.382 451.132C158.15 437.223 174.21 382.717 176.47 368.673C178.73 354.628 186.566 296.968 186.981 282.787Z" fill="#37474F"/>
<path d="M215.143 273.27L204.445 321.576L213.552 370.413L209.313 329.476L219.663 279.497C219.663 279.497 237.85 275.717 239.722 262.162C230.254 273.95 215.143 273.27 215.143 273.27Z" fill="#37474F"/>
<path d="M247.25 96.523C241.54 88.1343 232.233 85.3336 218.9 87.5497L251.489 155.747C252.767 145.371 253.486 134.932 253.642 124.476C253.682 111.927 252.96 104.912 247.25 96.523Z" fill="#37474F"/>
<path d="M253.254 237.173C235.068 270.143 168.486 270.727 151.691 249.042C153.955 233.753 155.437 218.356 156.13 202.911C156.652 189.655 149.805 166.895 150.367 150.2C150.928 133.504 157.374 122.804 157.374 122.804C157.374 122.804 179.947 99.4595 195.151 93.1918C220.559 82.7094 231.925 90.0376 231.925 90.0376C238.612 92.0362 253.629 115.992 253.629 133.857C253.629 156.753 253.254 237.173 253.254 237.173Z" fill="#EBEBEB"/>
<path d="M187.904 34.2536C185.741 33.0124 183.3 32.3614 180.816 32.3638C178.075 32.3638 177.139 32.3638 174.678 34.1448C173.279 35.1497 172.271 36.6221 171.83 38.3052C171.183 40.6181 171.363 43.0892 172.338 45.2799C173.114 47.3465 172.044 48.978 171.375 50.9358C170.94 52.1344 170.846 53.4334 171.104 54.6839C171.362 55.9343 171.961 57.0856 172.833 58.0057C174.438 59.6508 176.698 61.0376 177.607 63.2537C178.703 65.8777 178.396 68.8281 179.479 71.5336C180.409 73.6867 181.699 75.66 183.29 77.3663C184.313 78.6711 185.208 80.0735 185.965 81.5538C186.78 82.9134 188.506 83.5117 189.669 84.4498C190.07 84.7761 191.006 86.1221 191.581 85.9589C192.424 85.7414 191.915 83.1038 191.902 82.5191C191.902 80.235 191.902 77.9509 191.755 75.7212L191.314 66.8159C191.314 66.8159 196.917 59.0798 197.545 52.7305C198.348 44.5729 196.663 41.2147 196.663 41.2147C193.828 39.0394 191.046 36.0619 187.904 34.2536Z" fill="#263238"/>
<path d="M196.409 47.2785C196.155 51.552 197.038 55.816 198.963 59.6236C200.634 62.8866 203.657 67.3189 207.267 68.5017C208.587 68.8877 209.926 69.2009 211.279 69.4399C215.809 70.3149 220.47 70.213 224.959 69.1408C228.302 68.3658 231.645 67.1965 233.999 64.5181C235.588 62.8687 236.992 61.0447 238.184 59.0798C238.545 58.3592 238.572 57.5842 238.947 56.8636C239.842 55.1641 241.487 53.655 242.049 51.8059C242.345 50.1377 242.421 48.4369 242.276 46.7483C242.276 44.8856 243.507 43.526 243.614 41.7042C243.817 40.0597 243.422 38.3965 242.504 37.0272C241.993 36.1786 241.42 35.3697 240.792 34.6071C239.785 33.7042 238.643 32.9699 237.409 32.4317C236.312 31.7927 235.349 30.9362 234.253 30.3108C231.569 28.8157 228.736 27.617 225.801 26.735C221.629 25.509 217.232 25.2948 212.964 26.1096C208.564 26.939 204.205 30.5283 201.477 33.9817C198.487 37.7811 196.718 42.4229 196.409 47.2785Z" fill="#263238"/>
<path d="M180.616 79.3241C185.738 81.3635 188.051 78.0461 188.051 78.0461L186.299 100.071C192.317 107.889 206.679 117.474 217.243 116.06C222.913 115.299 223.756 110.214 218.246 102.573L219.222 95.3537C222.175 95.6437 225.149 95.6437 228.102 95.3537C233.825 94.4563 238.278 90.2144 240.003 83.9195C242.771 73.7905 241.808 55.7895 238.666 36.5105C232.274 31.4392 207.909 33.1659 194.456 41.8129C195.941 50.0928 196.034 52.4857 195.165 57.5434C194.296 62.6011 192.491 64.926 190.993 65.1435C188.252 65.5514 187.837 62.5331 186.085 60.6569C184.334 58.7806 177.634 57.6794 174.772 63.8111C171.911 69.9429 176.698 77.7605 180.616 79.3241Z" fill="#C8856A"/>
<path d="M219.236 95.3537C210.116 94.4156 198.615 90.0513 195.7 85.8366C194.019 83.458 192.669 80.8547 191.688 78.1005C191.688 78.1005 191.849 83.8923 194.055 87.6176C196.262 91.3429 204.473 97.801 218.768 98.8071L219.236 95.3537Z" fill="#AF6152"/>
<path d="M238.117 21.7726C237.229 21.3667 236.489 20.6863 236.004 19.8284C235.201 18.3057 234.894 16.6606 233.73 15.3282C232.94 14.3266 231.941 13.5149 230.806 12.9508C229.671 12.3868 228.428 12.0844 227.165 12.0651C224.811 12.0651 222.591 13.5199 220.264 13.887C217.737 14.2949 216.681 13.112 214.742 11.8884C212.308 10.352 208.269 10.3792 205.555 11.2222C204.318 11.5758 203.17 12.1921 202.185 13.0304C201.289 13.8734 200.848 15.1378 199.671 15.7496C197.678 16.8645 194.576 15.5185 192.423 15.3418C188.639 15.0154 185.59 16.2119 184.801 19.4205C184.466 20.7801 184.44 21.8814 184.119 23.1322C183.961 23.6536 183.703 24.1376 183.358 24.5557C183.014 24.9737 182.59 25.3172 182.113 25.5659C181.235 25.986 180.45 26.5818 179.804 27.3177C179.159 28.0536 178.666 28.9144 178.355 29.8486C177.951 31.1345 177.911 32.5102 178.24 33.8181C178.568 35.1261 179.253 36.3136 180.214 37.2448C182.046 38.7947 185.322 39.964 187.756 39.2842C188.064 41.4323 190.658 42.9687 192.69 43.2134C193.833 43.4515 195.011 43.4515 196.154 43.2134C196.555 43.1046 199.631 41.745 199.296 41.1332C199.902 42.1697 200.752 43.036 201.77 43.6533C202.788 44.2707 203.942 44.6195 205.127 44.6682C206.556 44.7839 207.989 44.5082 209.278 43.8698C210.567 43.2314 211.664 42.2536 212.455 41.0381C211.853 42.0034 213.458 43.4445 214.113 43.9068C215.224 44.5932 216.491 44.9729 217.791 45.0081C218.9 45.066 220.004 44.8234 220.991 44.305C221.978 43.7866 222.812 43.0111 223.407 42.0578C223.899 41.3372 224.588 40.78 225.39 40.456C226.192 40.1319 227.069 40.0554 227.913 40.2359C229.502 40.7246 231.149 40.9899 232.808 41.0245C233.924 41.0141 235.016 40.6882 235.96 40.0831C236.905 39.478 237.666 38.6177 238.157 37.5983C238.714 36.2425 238.78 34.7299 238.344 33.3292C239.775 35.6405 244.215 36.5378 244.642 33.0572C244.486 33.2044 244.294 33.3063 244.086 33.3523C243.878 33.3982 243.661 33.3866 243.459 33.3185C243.257 33.2505 243.077 33.1285 242.937 32.9654C242.797 32.8022 242.702 32.6039 242.663 32.391C242.449 31.1946 243.68 29.9574 243.92 28.8289C244.118 27.7041 243.951 26.5446 243.444 25.5246C242.938 24.5046 242.119 23.6794 241.112 23.173C240.216 22.6292 239.12 22.2757 238.117 21.7726Z" fill="#263238"/>
<path d="M216.186 59.1748C216.16 59.706 215.981 60.2178 215.672 60.6467C215.363 61.0757 214.937 61.4029 214.446 61.5881C213.956 61.7732 213.423 61.808 212.913 61.6882C212.403 61.5684 211.939 61.2993 211.579 60.9142C211.218 60.529 210.976 60.0448 210.883 59.5214C210.79 58.9979 210.851 58.4583 211.056 57.9693C211.262 57.4803 211.604 57.0634 212.041 56.7702C212.477 56.477 212.989 56.3204 213.512 56.3197C214.238 56.3411 214.926 56.653 215.427 57.1877C215.928 57.7224 216.201 58.4366 216.186 59.1748Z" fill="#263238"/>
<path d="M214.047 49.2363L207.802 51.3165C207.542 50.4509 207.623 49.5165 208.027 48.7101C208.431 47.9036 209.127 47.2881 209.968 46.993C210.381 46.856 210.816 46.8058 211.248 46.8454C211.681 46.8851 212.1 47.0138 212.482 47.2237C212.863 47.4336 213.199 47.7203 213.468 48.0663C213.737 48.4123 213.934 48.8104 214.047 49.2363Z" fill="#263238"/>
<path d="M237.849 49.9841L231.497 48.0806C231.595 47.6508 231.779 47.2462 232.038 46.892C232.297 46.5379 232.625 46.2418 233.002 46.0223C233.378 45.8029 233.795 45.6647 234.226 45.6165C234.658 45.5683 235.094 45.6111 235.509 45.7421C236.359 46.0104 237.075 46.5998 237.51 47.3889C237.946 48.178 238.067 49.1068 237.849 49.9841Z" fill="#263238"/>
<path d="M237.421 57.8696C237.398 58.4016 237.221 58.9148 236.913 59.3455C236.606 59.7763 236.18 60.1057 235.69 60.2929C235.2 60.4801 234.666 60.5168 234.155 60.3984C233.645 60.2801 233.179 60.012 232.817 59.6273C232.455 59.2425 232.212 58.7582 232.118 58.2343C232.025 57.7105 232.084 57.1701 232.29 56.6804C232.495 56.1906 232.838 55.7729 233.274 55.4792C233.711 55.1855 234.223 55.0286 234.747 55.0281C235.109 55.0277 235.466 55.1019 235.799 55.2461C236.132 55.3904 236.432 55.6017 236.682 55.8673C236.932 56.1329 237.126 56.4473 237.253 56.7914C237.381 57.1356 237.438 57.5024 237.421 57.8696Z" fill="#263238"/>
<path d="M214.422 75.0415L223.274 78.5493C223.072 79.1538 222.753 79.7109 222.335 80.1873C221.917 80.6638 221.409 81.0499 220.842 81.3226C220.274 81.5954 219.658 81.7492 219.031 81.7749C218.403 81.8006 217.777 81.6978 217.19 81.4724C215.999 80.9731 215.046 80.024 214.53 78.8247C214.013 77.6254 213.975 76.2693 214.422 75.0415Z" fill="#AF6152"/>
<path d="M214.154 76.4419C214.07 77.4993 214.319 78.5564 214.864 79.4606C215.41 80.3649 216.224 81.0694 217.189 81.4724C218.215 81.8659 219.346 81.8659 220.372 81.4724C219.924 80.1129 219.098 78.9144 217.995 78.0217C216.891 77.129 215.557 76.5803 214.154 76.4419Z" fill="#F28F8F"/>
<path d="M230.094 64.287C228.729 61.8586 227.12 59.5805 225.293 57.489C225.199 57.3802 225.092 57.2987 225.012 57.2035C225.007 57.1877 224.998 57.1734 224.987 57.1616C224.975 57.1498 224.961 57.1409 224.945 57.1355C223.904 55.9133 222.493 55.0766 220.934 54.7562L221.469 59.3788L222.993 72.3494L232.875 69.2903C231.953 67.5364 231.03 65.8505 230.094 64.287Z" fill="#AF6152"/>
<path d="M245.981 166.746C245.981 166.746 196.356 136.631 187.302 131.464C175.923 124.938 166.856 119.418 161.494 124.476C156.733 128.963 154.299 134.238 155.409 147.059C156.118 155.217 159.728 160.764 170.386 169.234C181.044 177.704 225.133 196.317 233.678 198.669C251.838 203.659 252.948 204.012 263.619 194.672" fill="#C8856A"/>
<path d="M160.062 120.112C164.341 117.746 171.175 119.962 181.364 126.475C191.554 132.987 226.831 155.108 226.831 155.108C227.701 163.429 226.158 171.827 222.391 179.268C216.133 191.504 212.642 192.293 212.642 192.293C212.642 192.293 172.191 174.237 167.684 171.722C163.178 169.207 155.208 163.755 152.533 155.026C149.859 146.297 147.345 129.153 160.062 120.112Z" fill="#37474F"/>
<path d="M419.194 449.827L421.401 425.762L389.975 421.683C389.975 421.683 390.885 434.368 390.898 443.804C390.898 452.94 390.898 456.788 387.836 461.941C384.774 467.094 377.031 473.688 368.473 477.141C359.914 480.594 351.77 485.299 354.097 490.234C356.424 495.169 369.221 497.508 374.784 496.325C380.347 495.142 392.744 488.466 399.055 483.735C405.367 479.004 415.758 476.774 418.165 475.727C420.572 474.68 421.147 471.227 421.066 465.489C420.768 460.234 420.143 455.002 419.194 449.827Z" fill="#FFA8A7"/>
<path d="M375.774 220.504C374.664 236.819 378.529 283.63 379.679 317.865C380.214 334.017 383.076 356.967 383.691 364.091C385.295 384.349 389.722 430.711 389.722 430.711C389.722 430.711 406.451 437.509 421.441 431.459C423.969 406.034 432.808 369.91 426.162 348.292L436.927 227.846L375.774 220.504Z" fill="#455A64"/>
<path d="M414.02 347.544C413.311 341.086 414.728 280.666 414.742 280.054H413.405C413.405 282.542 411.974 341.168 412.696 347.721C412.965 349.776 413.345 351.813 413.832 353.826C416.27 364.174 417.251 374.821 416.748 385.45C416.306 399.046 415.477 419.698 414.916 433.403L416.253 433.131C416.815 419.413 417.59 398.964 418.072 385.545C418.579 374.798 417.588 364.032 415.13 353.568C414.653 351.582 414.282 349.571 414.02 347.544Z" fill="#37474F"/>
<path d="M426.121 348.36L432.232 279.973C410.528 276.941 395.364 265.915 391.379 256.86C392.337 262.202 394.601 267.214 397.964 271.434C401.327 275.654 405.68 278.945 410.622 281.006C410.622 281.006 415.663 323.031 418.07 337.769C420.477 352.507 423.633 359.862 427.739 383.859C428.969 370.617 429.089 358.04 426.121 348.36Z" fill="#37474F"/>
<path d="M352.413 490.615C351.985 490.615 351.41 495.414 353.75 497.413C356.424 499.71 364.448 503.436 374.825 501.913C385.202 500.39 390.805 497.032 394.884 493.443C398.962 489.853 404.766 484.768 409.46 483.64C413.832 482.593 420.92 479.983 422.297 478.596C423.675 477.209 423.38 471.118 423.38 471.118L352.413 490.615Z" fill="#263238"/>
<path d="M419.195 449.827C419.606 450.027 419.971 450.313 420.266 450.667C420.561 451.021 420.779 451.434 420.906 451.88C421.254 453.552 421.307 455.7 422.03 458.446C423.046 462.253 423.821 470.098 423.287 473.225C422.752 476.352 413.297 479.167 408.764 480.989C403.437 483.45 398.505 486.713 394.135 490.669C389.294 494.829 379.064 499.098 372.271 499.302C361.907 499.615 355.141 496.869 353.014 493.13C351.169 489.894 352.733 485.122 355.368 482.77C359.005 479.507 363.525 477.426 367.858 475.183C374.544 471.689 382.14 467.379 386.365 460.799C388.16 457.989 389.091 454.699 389.04 451.349C388.99 450.834 389.054 450.314 389.227 449.827C389.49 449.428 389.84 449.097 390.252 448.861C390.663 448.625 391.122 448.49 391.594 448.467C396.662 447.624 401.155 449.827 405.929 451.608C407.082 451.911 408.106 452.589 408.844 453.538C410.182 455.591 408.55 458.324 408.991 460.731C409.012 460.89 409.067 461.043 409.152 461.179C409.473 461.669 410.235 461.546 410.743 461.247C412.575 460.146 413.083 457.767 414.14 455.904C414.98 454.427 416.213 453.221 417.697 452.424C418.159 452.193 418.637 451.998 419.128 451.839C419.128 451.839 419.248 449.827 419.195 449.827Z" fill="#37474F"/>
<path d="M362.669 477.889C377.7 478.705 382.166 491.104 382.888 496.923C379.492 498.282 375.911 499.103 372.271 499.357C361.907 499.67 354.713 496.937 352.586 493.198C350.099 488.806 352.092 482.144 362.669 477.889Z" fill="#FAFAFA"/>
<path d="M383.37 479.738C383.542 479.739 383.708 479.676 383.838 479.561C383.912 479.498 383.972 479.421 384.017 479.334C384.061 479.247 384.087 479.152 384.095 479.055C384.102 478.957 384.09 478.859 384.06 478.766C384.03 478.674 383.982 478.588 383.918 478.514C381.792 475.958 375.988 471.567 370.546 472.26C370.451 472.273 370.359 472.304 370.276 472.352C370.194 472.401 370.121 472.465 370.062 472.542C370.004 472.619 369.961 472.707 369.936 472.801C369.911 472.895 369.905 472.993 369.917 473.089C369.929 473.186 369.96 473.279 370.008 473.363C370.056 473.447 370.119 473.521 370.195 473.581C370.271 473.64 370.357 473.684 370.449 473.709C370.542 473.734 370.638 473.741 370.733 473.728C375.814 473.103 381.123 477.454 382.768 479.48C382.84 479.569 382.932 479.64 383.037 479.685C383.142 479.73 383.256 479.748 383.37 479.738Z" fill="#F0F0F0"/>
<path d="M389.775 475.836C389.945 475.836 390.109 475.778 390.243 475.673C390.317 475.61 390.378 475.533 390.422 475.446C390.466 475.359 390.493 475.264 390.5 475.166C390.507 475.069 390.496 474.971 390.465 474.878C390.435 474.785 390.387 474.699 390.323 474.626C388.197 472.056 382.38 467.665 376.951 468.358C376.856 468.37 376.765 468.402 376.682 468.45C376.599 468.499 376.526 468.563 376.468 468.64C376.409 468.717 376.367 468.805 376.342 468.899C376.317 468.993 376.31 469.091 376.322 469.187C376.335 469.284 376.366 469.377 376.413 469.461C376.461 469.545 376.524 469.619 376.6 469.679C376.676 469.738 376.762 469.782 376.855 469.807C376.947 469.832 377.043 469.839 377.138 469.826C382.22 469.201 387.529 473.552 389.173 475.577C389.245 475.667 389.338 475.738 389.443 475.783C389.548 475.828 389.662 475.846 389.775 475.836Z" fill="#F0F0F0"/>
<path d="M395.7 471.39C395.868 471.391 396.03 471.328 396.154 471.213C396.229 471.151 396.291 471.075 396.336 470.989C396.382 470.902 396.409 470.807 396.418 470.71C396.427 470.612 396.416 470.514 396.387 470.421C396.358 470.327 396.311 470.241 396.248 470.166C394.122 467.61 388.291 463.219 382.876 463.912C382.78 463.924 382.688 463.955 382.605 464.003C382.522 464.051 382.449 464.116 382.39 464.193C382.332 464.27 382.289 464.358 382.264 464.453C382.24 464.547 382.234 464.645 382.247 464.742C382.274 464.935 382.374 465.111 382.527 465.23C382.679 465.35 382.872 465.404 383.063 465.381C388.131 464.755 393.453 469.106 395.098 471.132C395.173 471.218 395.265 471.286 395.37 471.331C395.474 471.376 395.587 471.396 395.7 471.39Z" fill="#F0F0F0"/>
<path d="M401.168 466.06C401.33 466.062 401.487 466.004 401.609 465.897C401.685 465.836 401.748 465.761 401.795 465.675C401.841 465.589 401.87 465.494 401.88 465.397C401.89 465.299 401.881 465.2 401.853 465.107C401.825 465.013 401.778 464.926 401.716 464.85C398.788 461.22 392.53 457.848 387.087 458.528C386.903 458.563 386.739 458.667 386.629 458.82C386.518 458.973 386.468 459.163 386.491 459.352C386.513 459.541 386.605 459.714 386.748 459.836C386.891 459.958 387.074 460.02 387.261 460.01C392.169 459.385 397.959 462.58 400.633 465.788C400.697 465.871 400.778 465.939 400.87 465.986C400.963 466.033 401.065 466.058 401.168 466.06Z" fill="#F0F0F0"/>
<path d="M388.986 424.076C395.057 428.427 412.361 432.451 422.324 425.436L420.599 438.216C414.608 442.294 396.916 443.872 389.909 435.809L388.986 424.076Z" fill="#37474F"/>
<path d="M475.105 472.043L475.72 443.804L444.589 444.987L449.176 473.538C449.176 473.538 450.981 485.122 451.382 487.923C452.347 495.945 452.891 504.015 453.014 512.096C453.147 522.742 453.682 532.612 456.557 537.521C459.432 542.429 462.561 543.19 467.255 541.599C471.949 540.009 477.686 534.638 479.491 526.182C481.296 517.725 478.796 505.23 477.753 502.375C476.71 499.52 475.265 482.457 475.105 472.043Z" fill="#FFA8A7"/>
<path d="M470.906 228.934L409.393 228.607C411.412 244.338 425.68 351.188 428.863 369.244C432.046 387.299 446.006 458.107 446.006 458.107C446.006 458.107 449.309 463.409 459.793 462.757C471.575 462.022 476.121 457.182 476.121 457.182C476.121 457.182 478.408 419.114 478.635 396.789C478.892 382.694 477.122 368.637 473.38 355.063C473.38 355.063 474.944 314.357 474.904 287.084C474.864 259.81 474.704 251.177 470.906 228.934Z" fill="#455A64"/>
<path d="M450.513 525.366C450.834 532.843 451.917 537.806 454.458 542.225C456.998 546.643 461.933 548.098 466.947 546.902C471.962 545.705 478.408 542.388 479.932 536.025C481.457 529.662 482.366 525.216 481.269 518.282L450.513 525.366Z" fill="#263238"/>
<path d="M475.106 472.043C477.152 472.247 476.443 482.131 477.513 492.178C478.623 502.946 480.094 507.242 481.096 516.08C482.247 526.168 480.535 530.641 476.964 536.678C473.394 542.714 460.917 548.479 455.007 539.655C450.153 532.463 450.059 524.564 450.661 514.516C451.276 504.129 450.38 497.127 449.658 489.255C448.909 481.097 447.384 474.3 449.176 473.552C449.176 473.552 450.38 479.751 450.835 481.043C451.035 481.601 451.811 483.015 452.172 480.921C452.279 480.295 452.172 478.854 452.172 478.202C452.346 476.461 453.402 476.203 454.084 475.822C456.842 474.544 459.853 473.93 462.883 474.028C466.895 474.028 470.385 474.028 472.605 475.197C473.942 475.917 473.942 477.209 474.022 478.487C474.17 480.01 474.183 480.948 474.557 480.649C475.293 480.078 474.811 473.117 475.106 472.043Z" fill="#37474F"/>
<path d="M481.591 521.885C481.878 527.296 480.438 532.656 477.485 537.167C473.915 543.19 460.489 548.968 454.538 540.145C451.569 535.753 450.834 530.627 450.526 525.366C454.271 518.704 475.921 516.107 481.591 521.885Z" fill="#FAFAFA"/>
<path d="M455.166 514.489C455.254 514.481 455.34 514.458 455.42 514.421C455.514 514.421 465.089 510.56 474.329 512.885C474.427 512.91 474.528 512.915 474.627 512.9C474.727 512.885 474.822 512.851 474.909 512.798C474.995 512.746 475.07 512.677 475.13 512.595C475.19 512.513 475.234 512.419 475.258 512.32C475.283 512.221 475.288 512.118 475.274 512.017C475.259 511.916 475.225 511.819 475.174 511.731C475.122 511.643 475.054 511.567 474.973 511.506C474.893 511.445 474.801 511.4 474.704 511.375C464.928 508.928 455.153 512.844 454.792 513.021C454.7 513.06 454.616 513.118 454.547 513.192C454.477 513.266 454.423 513.353 454.388 513.448C454.353 513.544 454.338 513.646 454.343 513.747C454.348 513.849 454.373 513.949 454.418 514.04C454.483 514.184 454.589 514.304 454.723 514.384C454.857 514.464 455.011 514.501 455.166 514.489Z" fill="#F0F0F0"/>
<path d="M473.981 505.366C474.126 505.353 474.264 505.299 474.38 505.21C474.496 505.121 474.585 505.001 474.637 504.863C474.706 504.67 474.696 504.457 474.611 504.271C474.526 504.085 474.372 503.941 474.182 503.871C464.995 500.553 454.685 505.121 454.297 505.325C454.207 505.369 454.125 505.43 454.059 505.506C453.992 505.582 453.941 505.671 453.908 505.767C453.876 505.864 453.863 505.966 453.87 506.067C453.877 506.169 453.904 506.268 453.949 506.359C454.044 506.541 454.203 506.679 454.395 506.744C454.586 506.81 454.796 506.799 454.979 506.712C455.073 506.712 465.115 502.226 473.701 505.353C473.792 505.377 473.888 505.382 473.981 505.366Z" fill="#F0F0F0"/>
<path d="M473.768 498.283C473.911 498.27 474.047 498.216 474.161 498.127C474.275 498.038 474.361 497.917 474.409 497.78C474.479 497.588 474.472 497.377 474.389 497.191C474.307 497.005 474.155 496.86 473.968 496.787C463.872 492.939 454.07 497.97 453.709 498.147C453.621 498.195 453.543 498.26 453.481 498.34C453.419 498.419 453.373 498.511 453.347 498.609C453.321 498.707 453.315 498.809 453.328 498.91C453.342 499.01 453.376 499.107 453.428 499.194C453.531 499.373 453.7 499.504 453.898 499.558C454.096 499.611 454.307 499.583 454.484 499.479C454.565 499.479 464.032 494.612 473.433 498.187C473.532 498.253 473.649 498.287 473.768 498.283Z" fill="#F0F0F0"/>
<path d="M473.354 491.308C473.526 491.294 473.688 491.221 473.814 491.101C473.94 490.981 474.023 490.821 474.048 490.647C474.072 490.473 474.038 490.296 473.951 490.144C473.864 489.993 473.729 489.876 473.568 489.812C464.113 486.046 453.576 491.172 453.175 491.417C452.997 491.516 452.866 491.683 452.81 491.88C452.753 492.078 452.776 492.29 452.874 492.47C452.971 492.651 453.135 492.784 453.33 492.842C453.524 492.899 453.733 492.875 453.91 492.776C454.004 492.776 464.234 487.759 473.019 491.254C473.127 491.291 473.24 491.31 473.354 491.308Z" fill="#EBEBEB"/>
<path d="M444.054 449.623C450.419 453.321 467.736 455.524 476.763 447.502L476.348 460.391C470.892 465.013 453.762 468.548 446.126 461.193L444.054 449.623Z" fill="#37474F"/>
<path d="M472.444 372.928C472.016 369.434 471.615 366.674 471.227 364.009C469.89 355.077 468.699 346.647 467.041 312.957C466.426 300.272 466.373 290.496 466.319 281.863C466.226 264.378 466.159 251.68 461.679 228.839H460.342C464.581 250.306 464.902 262.828 465.009 278.695C456.785 278.355 452.091 270.333 450.299 253.502C448.373 235.691 446.434 223.509 446.408 223.4L445.07 223.618C445.07 223.74 447.036 235.854 448.948 253.651C450.834 271.095 456.103 279.728 464.995 280.082C464.995 280.666 464.995 281.237 464.995 281.835C464.995 290.469 465.102 300.272 465.717 312.984C467.389 346.742 468.619 355.213 469.916 364.159C470.304 366.878 470.705 369.597 471.12 373.051C474.095 399.612 474.989 426.371 473.794 453.076H475.132C476.317 426.33 475.418 399.53 472.444 372.928Z" fill="#37474F"/>
<path d="M403.228 83.4028C394.188 84.4089 382.54 93.3958 366.507 114.32C350.981 134.578 340.858 147.712 340.858 147.712L366.106 172.062L396.929 134.605L403.228 83.4028Z" fill="#FFA8A7"/>
<path d="M415.075 83.1583C402.064 80.2215 392.155 83.403 383.503 92.7842C373.554 103.579 348.734 136.821 348.734 136.821C354.315 139.957 359.501 143.769 364.18 148.174C370.277 154.374 373.407 163.578 373.407 163.578L397.477 132.729L415.075 83.1583Z" fill="#37474F"/>
<path d="M375.854 129.153C375.921 111.288 391.901 87.2641 398.173 85.2655C398.173 85.2655 408.871 77.9237 432.714 88.4198C446.982 94.6875 470.772 112.213 470.772 112.213C472.947 123.163 474.288 134.267 474.783 145.428C475.305 162.11 468.873 184.856 469.434 198.139C469.996 211.422 471.066 224.787 473.593 244.256C457.827 265.942 392.556 264.759 375.479 231.802C375.573 205.562 375.854 148.269 375.854 129.153Z" fill="#6C64C4"/>
<path d="M385.496 48.5293C382.634 42.2344 385.001 31.7247 385.001 31.7247C383.582 33.8303 382.637 36.2278 382.232 38.7468C381.828 41.2659 381.974 43.8446 382.661 46.2996C376.737 39.3385 377.874 25.3347 389.855 17.4218C405.715 6.95296 436.659 5.02234 443.345 27.5508C448.493 28.3394 451.476 34.3488 451.008 46.8298C450.539 59.3109 443.532 75.3813 444.776 81.2003C446.02 87.0194 447.745 88.4878 447.745 88.4878C446.132 88.2266 444.607 87.5685 443.302 86.5709C441.996 85.5733 440.951 84.2663 440.256 82.7639C440.846 85.3322 441.679 87.8364 442.743 90.2416H399.35L385.496 48.5293Z" fill="#263238"/>
<path d="M460.02 27.9315C460.236 26.4233 460.018 24.884 459.392 23.4992C458.765 22.1182 457.92 20.8507 456.891 19.7467C455.866 18.5408 454.627 17.5402 453.241 16.7964C452.951 16.6519 452.652 16.5292 452.345 16.4293C449.068 11.2764 442.984 7.67352 437.434 10.4335C424.597 17.2315 440.443 37.1903 451.288 31.1537C452.278 30.4334 453.101 29.5015 453.7 28.4234C454.298 27.3454 454.657 26.1473 454.752 24.9132C455.091 25.2466 455.4 25.6106 455.674 26.0008C456.096 26.6127 456.441 27.2748 456.704 27.9722C457.186 29.181 457.519 30.4461 457.694 31.7383C458.091 29.7885 458.059 27.7735 457.6 25.8377C457.132 23.9381 456.007 22.2731 454.431 21.1471C455.797 21.788 457.007 22.7288 457.974 23.9019C458.94 25.0749 459.639 26.4511 460.02 27.9315Z" fill="#263238"/>
<path d="M444.241 75.7892C439.173 77.6654 437.153 74.4296 437.153 74.4296L438.865 96.0199C432.781 103.525 418.472 113.3 408.108 111.642C402.586 110.744 401.89 105.714 407.48 98.372L406.611 91.4381C403.204 91.5892 399.791 91.3566 396.434 90.7447C393.614 89.9817 391.072 88.4048 389.114 86.2044C387.156 84.0041 385.867 81.2744 385.402 78.3452C384.158 71.4113 384.185 54.7291 387.06 38.917C387.702 35.3957 389.962 30.1748 392.61 27.9043C393.318 30.9226 393.639 33.6826 401.516 34.5527C410.208 35.518 423.487 25.9873 429.478 32.8668C428.143 33.9256 427.081 35.2976 426.382 36.8651C425.684 38.4327 425.369 40.1491 425.466 41.8673C425.573 46.7483 429.478 51.7924 429.906 54.8378C430.641 59.8411 432.366 62.1253 433.797 62.3836C436.471 62.8594 436.966 59.9091 438.731 58.1145C440.496 56.3198 447.089 55.3953 449.737 61.4998C452.385 67.6044 448.132 74.348 444.241 75.7892Z" fill="#FFA8A7"/>
<path d="M430.146 84.4089C432.406 80.8195 432.7 75.15 432.7 75.15C431.687 77.8224 430.314 80.339 428.621 82.6278C425.666 86.7066 415.516 90.7853 406.557 91.438L406.998 94.6602C419.983 93.6133 428.006 87.8486 430.146 84.4089Z" fill="#F28F8F"/>
<path d="M392.557 65.5922L402.292 68.4473L404.044 51.1669C400.152 51.6427 396.328 58.2639 392.557 65.5922Z" fill="#F28F8F"/>
<path d="M409.807 56.0886C409.807 56.6264 409.963 57.1521 410.257 57.5993C410.551 58.0464 410.969 58.395 411.458 58.6008C411.946 58.8066 412.484 58.8604 413.003 58.7555C413.522 58.6506 413.998 58.3916 414.372 58.0113C414.746 57.631 415.001 57.1465 415.104 56.6191C415.207 56.0916 415.154 55.5449 414.952 55.048C414.75 54.5511 414.407 54.1264 413.967 53.8276C413.527 53.5289 413.01 53.3694 412.481 53.3694C411.772 53.3694 411.092 53.6559 410.59 54.1658C410.088 54.6758 409.807 55.3674 409.807 56.0886Z" fill="#263238"/>
<path d="M412.12 46.3811L418.205 48.5293C418.471 47.6851 418.406 46.7685 418.022 45.9724C417.638 45.1763 416.965 44.5625 416.145 44.2602C415.744 44.1197 415.32 44.0634 414.897 44.0949C414.474 44.1264 414.062 44.2449 413.685 44.4432C413.309 44.6416 412.976 44.9157 412.707 45.2488C412.438 45.5819 412.238 45.9672 412.12 46.3811Z" fill="#263238"/>
<path d="M388.732 46.6939L394.99 44.94C394.899 44.52 394.724 44.1233 394.477 43.7742C394.229 43.4251 393.914 43.1309 393.552 42.9096C393.189 42.6882 392.785 42.5443 392.366 42.4867C391.947 42.429 391.52 42.4589 391.112 42.5743C390.273 42.8225 389.56 43.3874 389.117 44.1533C388.675 44.9192 388.537 45.8281 388.732 46.6939Z" fill="#263238"/>
<path d="M389.026 54.4434C389.026 54.9812 389.183 55.507 389.477 55.9541C389.771 56.4013 390.189 56.7498 390.677 56.9556C391.166 57.1614 391.704 57.2153 392.223 57.1104C392.741 57.0054 393.218 56.7465 393.592 56.3662C393.966 55.9859 394.221 55.5014 394.324 54.9739C394.427 54.4464 394.374 53.8997 394.172 53.4028C393.969 52.906 393.627 52.4813 393.187 52.1825C392.747 51.8837 392.23 51.7242 391.701 51.7242C390.992 51.7242 390.311 52.0107 389.81 52.5207C389.308 53.0306 389.026 53.7223 389.026 54.4434Z" fill="#263238"/>
<path d="M410.543 71.6016L401.784 74.8102C401.965 75.4081 402.263 75.9626 402.66 76.4406C403.057 76.9186 403.545 77.3102 404.095 77.592C404.644 77.8738 405.244 78.04 405.858 78.0806C406.472 78.1213 407.087 78.0355 407.668 77.8285C408.848 77.3722 409.807 76.4677 410.344 75.3059C410.88 74.1442 410.952 72.8159 410.543 71.6016Z" fill="#B16668"/>
<path d="M410.769 72.9883C410.828 74.0261 410.559 75.056 410.001 75.9269C409.442 76.7979 408.625 77.4643 407.667 77.8284C406.668 78.2165 405.563 78.2165 404.564 77.8284C405.019 76.4927 405.849 75.322 406.952 74.4616C408.055 73.6012 409.383 73.0889 410.769 72.9883Z" fill="#F28F8F"/>
<path d="M460.1 119.785C467.121 111.315 472.403 110.703 482.151 130.771C494.855 156.902 498.88 164.489 505.994 184.271C511.343 199.227 511.464 200.205 505.606 212.822C502.344 219.838 483.154 255.854 477.31 262.461C473.432 266.866 468.257 275.269 464.165 278.776C464.165 278.776 454.564 279.266 451.461 261.768C451.461 261.768 448.987 259.674 443.558 262.148C439.801 263.862 434.893 264.596 432.366 262.516C429.838 260.435 435.174 258.736 437.795 256.751C441.561 253.539 445.983 251.217 450.739 249.953C457.532 248.158 458.856 246.35 464.112 238.192C470.437 228.308 476.976 203.373 476.976 203.373L461.437 171.3C446.728 141.199 453.093 128.256 460.1 119.785Z" fill="#FFA8A7"/>
<path d="M451.355 131.369C454.431 115.979 465.383 111.438 469.448 111.846C473.513 112.253 479.892 119.622 483.77 128.405C489.721 141.838 502.17 172.361 502.17 172.361C499.305 178.974 494.284 184.381 487.955 187.67C477.11 193.503 471.146 194.101 471.146 194.101C471.146 194.101 466.412 185.712 460.301 172.837C454.19 159.962 448.975 143.307 451.355 131.369Z" fill="#37474F"/>
<path d="M476.963 203.278C478.86 200.914 481.217 198.975 483.886 197.582C486.556 196.19 489.481 195.375 492.475 195.189C486.578 193.04 479.678 195.583 475.586 200.477L476.963 203.278Z" fill="#F28F8F"/>
<path d="M310.811 120.112C310.504 122.491 312.269 125.401 315.772 128.419C320.373 132.389 344.764 146.665 344.764 146.665L366.16 172.062C363.309 175.452 360.226 178.632 356.933 181.579C353.148 184.869 349.03 186.243 338.893 180.097C323.903 171.11 283.277 130.322 283.277 130.322L287.289 124.517L310.811 120.112Z" fill="#FFA8A7"/>
<path d="M263.66 194.672C273.756 185.019 277.032 180.328 290.044 162.137C296.031 153.931 301.429 145.298 306.198 136.305C308.565 132.131 313.486 122.165 313.459 120.139C313.291 114.227 312.823 108.327 312.055 102.464C311.985 101.679 311.697 100.929 311.226 100.303C310.303 99.1742 308.631 98.9431 307.548 98.0185C306.465 97.094 306.211 95.7752 305.328 94.9051C304.138 94.0067 302.656 93.6032 301.183 93.7766C300.732 93.8242 300.276 93.7732 299.846 93.627C299.436 93.3885 299.062 93.0908 298.736 92.7433C296.168 90.4592 292.558 92.0907 290.712 94.4972L294.283 97.937C290.839 98.4244 287.472 99.3659 284.267 100.738L287.289 124.517L283.277 130.322C273.836 140.887 245.981 166.732 245.981 166.732" fill="#C8856A"/>
<path d="M281.071 100.901C285.226 100.503 289.413 100.594 293.548 101.173C295.888 101.703 295.634 104.939 292.505 106.013C297.854 106.013 300.902 106.57 302.574 107.672C302.994 107.99 303.282 108.457 303.381 108.98C303.48 109.503 303.383 110.045 303.109 110.5C302.119 111.363 300.909 111.924 299.619 112.118C300.368 112.213 303.39 112.43 303.51 114.51C303.644 116.89 299.365 117.23 296.436 117.542C299.03 117.964 299.619 121.866 294.898 122.858C290.178 123.851 287.276 124.531 287.276 124.531L283.264 130.336C282.856 130.242 282.474 130.057 282.145 129.793C281.817 129.53 281.55 129.195 281.365 128.813C281.253 128.396 281.101 127.99 280.911 127.603C280.416 126.828 279.413 126.543 278.811 125.836C278.196 124.881 277.971 123.721 278.183 122.6C278.395 121.484 278.225 120.328 277.701 119.323C277.1 118.467 275.99 118.086 275.428 117.202C274.996 116.24 274.888 115.161 275.12 114.13C275.237 113.616 275.244 113.084 275.14 112.568C275.036 112.051 274.824 111.564 274.519 111.139C274.171 110.785 273.716 110.581 273.409 110.201C273.153 109.724 273.039 109.182 273.082 108.641C273.125 108.1 273.322 107.584 273.649 107.155C274.595 105.59 275.767 104.178 277.126 102.967C278.15 101.813 279.552 101.078 281.071 100.901Z" fill="#FFA8A7"/>
<path d="M292.505 106.013C291.168 106.203 289.67 106.298 288.252 106.38C286.835 106.462 285.417 106.475 284.027 106.611C283.704 106.628 283.385 106.688 283.077 106.788C282.771 106.919 282.48 107.083 282.208 107.277C281.606 107.644 281.045 108.08 280.47 108.501L277.06 111.084C278.033 110.025 279.064 109.021 280.149 108.08C280.697 107.604 281.259 107.169 281.847 106.72C282.159 106.5 282.491 106.309 282.836 106.149C283.2 106.024 283.577 105.946 283.96 105.918C285.388 105.816 286.821 105.789 288.252 105.836C289.67 105.85 291.087 105.931 292.505 106.013Z" fill="#F28F8F"/>
<path d="M299.632 112.117C296.222 112.444 292.812 112.525 289.402 112.62H288.065C287.874 112.596 287.68 112.596 287.49 112.62C287.295 112.674 287.103 112.737 286.915 112.811C286.139 113.11 285.377 113.504 284.601 113.858L280.001 116.142C281.41 115.158 282.87 114.25 284.374 113.423C285.126 112.987 285.903 112.597 286.701 112.253L287.329 112.036C287.561 111.974 287.799 111.942 288.038 111.941H289.375C292.772 111.927 296.195 111.886 299.632 112.117Z" fill="#F28F8F"/>
<path d="M296.409 117.393C295.072 117.583 293.734 117.678 292.491 117.787C291.247 117.896 289.816 117.95 288.599 118.127C287.998 118.259 287.43 118.514 286.928 118.875L285.243 119.894C284.133 120.588 283.023 121.254 281.873 121.974C282.844 121.077 283.862 120.233 284.922 119.446C285.443 119.038 286.005 118.671 286.553 118.304C287.127 117.895 287.771 117.6 288.452 117.433C289.784 117.286 291.124 117.226 292.464 117.257C293.788 117.27 295.098 117.311 296.409 117.393Z" fill="#F28F8F"/>
<path d="M281.619 100.874C282.702 98.9838 284.641 95.2993 285.979 94.7554C288.092 94.1824 290.247 93.7868 292.424 93.5726C293.467 93.4638 296.315 94.6467 297.773 95.0681C299.231 95.4896 298.629 97.7873 295.005 98.4127C291.381 99.0381 288.854 99.1061 287.918 99.4052C286.982 99.7043 284.294 100.765 284.294 100.765L281.619 100.874Z" fill="#F28F8F"/>
<path d="M297.198 81.9753C296.843 81.9753 296.503 81.8321 296.252 81.5771C296.002 81.3221 295.861 80.9763 295.861 80.6157L295.005 63.7024C295.005 63.3418 295.146 62.996 295.397 62.741C295.647 62.486 295.987 62.3428 296.342 62.3428C296.683 62.3422 297.012 62.4741 297.26 62.7117C297.509 62.9493 297.659 63.2745 297.679 63.6208L298.508 80.6293C298.509 80.9784 298.377 81.3143 298.141 81.5674C297.904 81.8205 297.581 81.9714 297.238 81.9889L297.198 81.9753Z" fill="#E0E0E0"/>
<path d="M283.277 86.53C283.05 86.5357 282.825 86.4825 282.624 86.3754C282.423 86.2684 282.252 86.111 282.127 85.9181L272.887 71.3841C272.791 71.2341 272.725 71.0664 272.693 70.8906C272.661 70.7149 272.664 70.5344 272.7 70.3595C272.737 70.1847 272.807 70.0188 272.907 69.8716C273.006 69.7243 273.134 69.5984 273.281 69.5011C273.429 69.4038 273.594 69.3369 273.766 69.3044C273.939 69.2719 274.117 69.2744 274.289 69.3116C274.461 69.3489 274.624 69.4202 274.769 69.5215C274.914 69.6228 275.037 69.7522 275.133 69.9021L284.36 84.4362C284.551 84.7392 284.616 85.1069 284.541 85.4586C284.466 85.8103 284.257 86.1174 283.959 86.3124C283.758 86.4527 283.521 86.5285 283.277 86.53Z" fill="#E0E0E0"/>
<path d="M273.448 97.5699C273.231 97.5658 273.017 97.5148 272.82 97.4203L258.271 89.8338C257.966 89.6636 257.738 89.3793 257.636 89.0413C257.534 88.7032 257.565 88.338 257.724 88.0232C257.882 87.7083 258.155 87.4686 258.484 87.3548C258.813 87.241 259.173 87.2621 259.488 87.4137L274.05 94.9731C274.363 95.1384 274.599 95.4226 274.706 95.7637C274.814 96.1049 274.785 96.4755 274.625 96.7949C274.519 97.0222 274.353 97.2149 274.145 97.3518C273.937 97.4886 273.696 97.5641 273.448 97.5699Z" fill="#E0E0E0"/>
<path d="M338.412 131.437C338.195 131.435 337.98 131.384 337.784 131.288L323.074 123.633C322.759 123.467 322.521 123.181 322.413 122.837C322.305 122.492 322.336 122.119 322.499 121.798C322.662 121.477 322.944 121.235 323.283 121.125C323.621 121.016 323.989 121.047 324.304 121.213L339.014 128.868C339.327 129.033 339.563 129.317 339.67 129.658C339.778 130 339.749 130.37 339.589 130.69C339.479 130.912 339.311 131.099 339.104 131.231C338.896 131.363 338.657 131.434 338.412 131.437Z" fill="#E0E0E0"/>
<path d="M326.844 109.235C326.501 109.236 326.17 109.102 325.921 108.861C325.672 108.621 325.524 108.292 325.507 107.944C325.506 107.595 325.638 107.259 325.875 107.006C326.111 106.752 326.434 106.602 326.777 106.584L343.934 105.7C344.115 105.691 344.296 105.719 344.466 105.784C344.636 105.848 344.792 105.946 344.923 106.074C345.055 106.201 345.159 106.354 345.23 106.523C345.302 106.693 345.338 106.875 345.338 107.06C345.338 107.42 345.197 107.766 344.947 108.021C344.696 108.276 344.356 108.419 344.001 108.419L326.844 109.29V109.235Z" fill="#E0E0E0"/>
<path d="M322.365 95.0817C322.137 95.0859 321.912 95.0307 321.71 94.9212C321.509 94.8117 321.339 94.6517 321.215 94.4563C321.024 94.1532 320.959 93.7855 321.034 93.4338C321.11 93.0821 321.319 92.7751 321.616 92.58L335.577 83.4028C335.875 83.2008 336.24 83.1275 336.591 83.1989C336.942 83.2703 337.251 83.4806 337.449 83.7835C337.648 84.0863 337.72 84.4571 337.65 84.814C337.58 85.171 337.373 85.485 337.075 85.6869L323.114 94.8641C322.89 95.007 322.63 95.0824 322.365 95.0817Z" fill="#E0E0E0"/>
<path d="M311.506 85.1024C311.288 85.1054 311.072 85.0541 310.878 84.9528C310.72 84.8721 310.58 84.7605 310.465 84.6244C310.35 84.4882 310.262 84.3303 310.207 84.1597C310.153 83.989 310.132 83.8091 310.146 83.6302C310.16 83.4513 310.209 83.277 310.289 83.1174L318.045 67.7811C318.126 67.622 318.236 67.4806 318.371 67.365C318.505 67.2495 318.661 67.162 318.829 67.1077C318.996 67.0534 319.173 67.0333 319.348 67.0485C319.524 67.0638 319.694 67.1141 319.851 67.1965C320.166 67.3595 320.404 67.6426 320.514 67.984C320.625 68.3254 320.598 68.6973 320.439 69.0184L312.67 84.3682C312.559 84.5858 312.392 84.7689 312.187 84.8982C311.982 85.0274 311.747 85.0979 311.506 85.1024Z" fill="#E0E0E0"/>
</svg>
