<svg width="630" height="585" viewBox="0 0 630 585" fill="none" xmlns="http://www.w3.org/2000/svg">
<path d="M541.159 304.082C423.218 239.878 232.632 239.878 115.454 304.082C-1.72391 368.286 -1.10538 472.385 116.77 536.589C234.646 600.793 425.31 600.806 542.488 536.589C659.666 472.373 659.114 368.286 541.159 304.082Z" fill="white"/>
<path d="M123.192 417.339L221.657 363.769L341.269 428.855C341.983 429.244 342.575 429.803 342.986 430.476C343.398 431.149 343.615 431.912 343.615 432.689C343.615 433.466 343.398 434.229 342.986 434.902C342.575 435.575 341.983 436.134 341.269 436.523L308.961 454.094C328.859 451.848 350.337 454.938 365.721 463.364C390.028 476.679 389.896 498.27 365.445 511.598C340.993 524.925 301.447 524.912 277.14 511.598C261.743 503.16 256.163 491.408 260.361 480.575L254.478 483.764C250.915 485.703 246.873 486.723 242.759 486.723C238.645 486.723 234.603 485.703 231.04 483.764L123.192 425.008C122.479 424.619 121.887 424.06 121.475 423.387C121.064 422.714 120.847 421.95 120.847 421.173C120.847 420.396 121.064 419.633 121.475 418.96C121.887 418.287 122.479 417.728 123.192 417.339Z" fill="#E6E6E6"/>
<path d="M120.192 514.328L185.861 478.577C186.304 478.337 186.672 477.991 186.928 477.573C187.183 477.156 187.318 476.683 187.318 476.201C187.318 475.719 187.183 475.246 186.928 474.829C186.672 474.412 186.304 474.065 185.861 473.825L127.956 442.107C127.515 441.864 127.013 441.736 126.502 441.736C125.991 441.736 125.489 441.864 125.048 442.107L57.9049 478.652C57.4621 478.892 57.0943 479.239 56.8386 479.656C56.5829 480.073 56.4482 480.546 56.4482 481.028C56.4482 481.51 56.5829 481.983 56.8386 482.401C57.0943 482.818 57.4621 483.164 57.9049 483.404L114.323 514.315C115.212 514.807 116.224 515.067 117.255 515.069C118.287 515.071 119.3 514.815 120.192 514.328Z" fill="#E6E6E6"/>
<path d="M584.693 461.614C587.825 463.327 587.838 466.094 584.693 467.819L571.888 474.78C570.134 475.624 568.192 476.065 566.223 476.065C564.253 476.065 562.312 475.624 560.557 474.78L420.059 398.229C416.914 396.529 416.901 393.749 420.059 392.025L432.864 385.051C434.619 384.207 436.56 383.766 438.53 383.766C440.499 383.766 442.441 384.207 444.195 385.051L584.693 461.614Z" fill="#E6E6E6"/>
<path d="M545.265 472.559C548.41 474.271 548.424 477.038 545.265 478.763L532.46 485.737C530.706 486.581 528.764 487.022 526.795 487.022C524.825 487.022 522.884 486.581 521.129 485.737L401.109 420.367C397.977 418.667 397.95 415.887 401.109 414.162L413.914 407.188C415.668 406.344 417.609 405.904 419.579 405.904C421.549 405.904 423.49 406.344 425.244 407.188L545.265 472.559Z" fill="#E6E6E6"/>
<path d="M137.984 121.372L138.077 154.417L142.328 156.75L142.21 119.064L137.984 121.372Z" fill="#B5B1E1"/>
<path d="M92.2263 179.384L92.2395 184.013L142.327 156.75L138.076 154.417L92.2263 179.384Z" fill="#B5B1E1" fill-opacity="0.8"/>
<path d="M147.394 110.725L86.9756 143.584L87.1203 192.339L147.473 159.48L147.394 110.725ZM92.2397 184.013V179.384L92.1212 146.339L137.984 121.372L142.209 119.126L142.327 156.812L92.2397 184.013Z" fill="#6C64C4"/>
<path d="M147.328 110.725L143.077 108.392L82.7246 141.251L86.9753 143.572L147.328 110.725Z" fill="#6C64C4" fill-opacity="0.9"/>
<path d="M82.7244 141.252L82.8692 190.044L87.1208 192.377L86.976 143.572L82.7244 141.252Z" fill="#6C64C4" fill-opacity="0.8"/>
<path d="M123.416 133.918L135.918 143.212L135.944 152.271L94.3452 174.917L94.3188 165.846L102.254 151.005L109.374 156.217L106.847 163.588L110.506 157.036L123.416 133.918Z" fill="#6C64C4"/>
<path d="M109.743 138.497C111.704 137.43 113.296 138.286 113.309 140.408C113.242 141.564 112.887 142.69 112.272 143.692C111.657 144.695 110.799 145.547 109.769 146.178C107.808 147.245 106.216 146.389 106.216 144.267C106.28 143.111 106.633 141.986 107.246 140.983C107.859 139.981 108.714 139.129 109.743 138.497Z" fill="#6C64C4"/>
<path d="M137.984 195.372L138.077 228.417L142.328 230.75L142.21 193.064L137.984 195.372Z" fill="#B5B1E1"/>
<path d="M92.2263 253.384L92.2395 258.013L142.327 230.75L138.076 228.417L92.2263 253.384Z" fill="#B5B1E1" fill-opacity="0.8"/>
<path d="M147.394 184.725L86.9756 217.584L87.1203 266.339L147.473 233.48L147.394 184.725ZM92.2397 258.013V253.384L92.1212 220.339L137.984 195.372L142.209 193.126L142.327 230.812L92.2397 258.013Z" fill="#6C64C4"/>
<path d="M147.328 184.725L143.077 182.392L82.7246 215.251L86.9753 217.572L147.328 184.725Z" fill="#6C64C4" fill-opacity="0.9"/>
<path d="M82.7244 215.252L82.8692 264.044L87.1208 266.377L86.976 217.572L82.7244 215.252Z" fill="#6C64C4" fill-opacity="0.8"/>
<path d="M123.416 207.918L135.918 217.212L135.944 226.271L94.3452 248.917L94.3188 239.846L102.254 225.005L109.374 230.217L106.847 237.588L110.506 231.036L123.416 207.918Z" fill="#6C64C4"/>
<path d="M109.743 212.497C111.704 211.43 113.296 212.286 113.309 214.408C113.242 215.564 112.887 216.69 112.272 217.692C111.657 218.695 110.799 219.547 109.769 220.178C107.808 221.245 106.216 220.389 106.216 218.267C106.28 217.111 106.633 215.986 107.246 214.983C107.859 213.981 108.714 213.129 109.743 212.497Z" fill="#6C64C4"/>
<path d="M586.838 162.409C585.708 160.211 583.901 158.386 581.653 157.172L446.551 84.7037C445.928 84.4786 445.27 84.3528 444.603 84.3314C437.654 84.2073 430.666 90.3746 429.679 93.6258C429.455 94.0366 429.338 94.4916 429.337 94.9535V370.371C429.337 372.522 429.94 374.634 431.087 376.494C432.233 378.353 433.882 379.892 435.865 380.956L570.967 453.548C571.133 453.625 571.305 453.691 571.48 453.747C579.547 456.973 588.128 450.272 588.128 443.249V167.769C588.137 165.913 587.696 164.079 586.838 162.409Z" fill="#263238"/>
<path d="M429.692 93.6381C430.679 90.3869 437.667 84.2197 444.616 84.3438C445.283 84.3652 445.941 84.491 446.564 84.716L581.679 157.172C583.655 158.247 585.3 159.788 586.454 161.644C587.607 163.5 588.229 165.606 588.259 167.757V443.236C588.259 450.26 579.679 456.961 571.612 453.734C571.436 453.679 571.265 453.613 571.098 453.536L435.864 380.956C433.884 379.891 432.238 378.35 431.094 376.491C429.95 374.632 429.348 372.52 429.35 370.371V94.9659C429.351 94.504 429.468 94.0489 429.692 93.6381Z" fill="#455A64"/>
<path d="M569.335 196.881C569.332 195.805 569.029 194.749 568.456 193.819C567.883 192.889 567.061 192.118 566.071 191.582L440.629 124.301C440.138 124.038 439.583 123.901 439.019 123.904C438.455 123.907 437.902 124.049 437.415 124.317C436.927 124.584 436.522 124.968 436.241 125.429C435.96 125.89 435.812 126.412 435.812 126.944V349.127C435.814 350.201 436.116 351.256 436.689 352.184C437.263 353.112 438.086 353.881 439.076 354.413L564.571 421.819C565.063 422.081 565.62 422.217 566.186 422.213C566.751 422.21 567.306 422.066 567.794 421.798C568.283 421.529 568.688 421.145 568.97 420.682C569.252 420.22 569.4 419.696 569.401 419.163L569.335 196.881Z" fill="#6C64C4"/>
<path opacity="0.2" d="M569.335 196.881C569.332 195.805 569.029 194.749 568.456 193.819C567.883 192.889 567.061 192.118 566.071 191.582L440.629 124.301C440.138 124.038 439.583 123.901 439.019 123.904C438.455 123.907 437.902 124.049 437.415 124.317C436.927 124.584 436.522 124.968 436.241 125.429C435.96 125.89 435.812 126.412 435.812 126.944V349.127C435.814 350.201 436.116 351.256 436.689 352.184C437.263 353.112 438.086 353.881 439.076 354.413L564.571 421.819C565.063 422.081 565.62 422.217 566.186 422.213C566.751 422.21 567.306 422.066 567.794 421.798C568.283 421.529 568.688 421.145 568.97 420.682C569.252 420.22 569.4 419.696 569.401 419.163L569.335 196.881Z" fill="black"/>
<path opacity="0.3" d="M588.181 167.757V443.236C588.181 450.26 579.6 456.961 571.533 453.734C572.018 453.899 572.538 453.952 573.049 453.888C573.561 453.824 574.048 453.645 574.471 453.367C574.894 453.088 575.24 452.718 575.48 452.288C575.719 451.858 575.846 451.379 575.849 450.893V175.413C575.841 173.017 575.081 170.677 573.665 168.688L586.891 162.483C587.735 164.127 588.176 165.93 588.181 167.757Z" fill="black"/>
<path opacity="0.1" d="M444.603 84.3812C445.27 84.4025 445.928 84.5284 446.551 84.7534L581.68 157.172C583.927 158.386 585.735 160.211 586.865 162.409L573.639 168.613C572.53 167.022 571.043 165.696 569.296 164.742L434.18 92.3105C433.797 92.1064 433.372 91.9787 432.934 91.9353C432.495 91.8918 432.052 91.9336 431.632 92.0581C431.211 92.1825 430.822 92.3869 430.489 92.6587C430.155 92.9305 429.884 93.2639 429.693 93.6383C430.667 90.3747 437.655 84.2074 444.603 84.3812Z" fill="white"/>
<path d="M485.926 137.814C484.979 137.293 484.189 137.69 484.189 138.72C484.221 139.286 484.393 139.837 484.693 140.329C484.992 140.82 485.41 141.238 485.913 141.549L512.417 155.968C513.365 156.49 514.128 156.055 514.128 155.025C514.1 154.468 513.931 153.925 513.636 153.442C513.34 152.959 512.927 152.549 512.431 152.246L485.926 137.814Z" fill="#263238"/>
<path d="M519.235 155.944C518.287 155.435 517.51 155.844 517.51 156.874C517.545 157.435 517.717 157.98 518.014 158.467C518.311 158.954 518.725 159.369 519.222 159.679C520.169 160.2 520.959 159.766 520.959 158.748C520.925 158.186 520.75 157.639 520.451 157.152C520.151 156.665 519.735 156.251 519.235 155.944Z" fill="#263238"/>
<path d="M502.271 135.717C500.376 134.687 498.836 135.506 498.836 137.553C498.895 138.677 499.234 139.772 499.826 140.749C500.419 141.726 501.247 142.557 502.244 143.175C504.14 144.205 505.706 143.361 505.719 141.301C505.648 140.181 505.3 139.091 504.701 138.121C504.102 137.151 503.269 136.328 502.271 135.717Z" fill="#263238"/>
<path d="M502.258 395.102C498.402 393.005 495.283 394.668 495.27 398.825C495.392 401.109 496.084 403.335 497.289 405.321C498.494 407.306 500.178 408.996 502.205 410.253C506.074 412.35 509.272 410.638 509.285 406.444C509.14 404.166 508.428 401.952 507.207 399.982C505.986 398.012 504.291 396.34 502.258 395.102Z" fill="#263238"/>
<path d="M548.779 206.908C548.617 205.665 548.234 204.457 547.647 203.334C547.39 202.843 547.095 202.37 546.765 201.919C545.774 200.544 544.464 199.398 542.936 198.569L420.309 132.801L420.125 132.727C419.961 132.675 419.794 132.634 419.625 132.603C419.265 132.534 418.9 132.493 418.533 132.478C416.54 132.466 414.571 132.891 412.782 133.719C411.034 134.532 409.424 135.586 408.005 136.846L407.254 137.554C406.256 138.482 405.483 139.604 404.991 140.842C404.895 141.024 404.82 141.216 404.767 141.413C404.703 141.618 404.672 141.832 404.675 142.046V392.124C404.681 394.074 405.231 395.989 406.271 397.675C407.31 399.361 408.803 400.759 410.597 401.729L533.224 467.62C533.377 467.689 533.535 467.747 533.697 467.794C541.014 470.723 548.805 464.642 548.805 458.264V208.186C548.823 207.759 548.814 207.333 548.779 206.908Z" fill="#6C64C4"/>
<path d="M404.965 140.904C405.86 137.963 412.203 132.354 418.507 132.478C419.114 132.492 419.714 132.601 420.283 132.801L542.91 198.569C544.947 199.68 546.588 201.339 547.621 203.334C548.414 204.842 548.828 206.502 548.832 208.186V458.276C548.832 464.654 541.041 470.685 533.724 467.806C533.562 467.759 533.403 467.701 533.25 467.633L410.597 401.704C408.8 400.737 407.306 399.339 406.266 397.653C405.226 395.966 404.677 394.05 404.675 392.099V142.108C404.674 141.691 404.773 141.279 404.965 140.904Z" fill="#6C64C4"/>
<path opacity="0.2" d="M548.779 208.186V458.276C548.779 464.655 540.988 470.685 533.671 467.806C534.113 467.966 534.59 468.021 535.06 467.968C535.53 467.914 535.979 467.753 536.368 467.499C536.757 467.245 537.074 466.905 537.292 466.508C537.51 466.112 537.622 465.672 537.619 465.225V215.097C537.613 212.923 536.927 210.799 535.645 208.992L547.647 203.334C548.412 204.848 548.8 206.508 548.779 208.186Z" fill="white"/>
<path opacity="0.4" d="M418.493 132.466C419.1 132.479 419.701 132.588 420.27 132.789L542.896 198.556C544.934 199.668 546.574 201.327 547.607 203.321L535.618 208.992C534.614 207.545 533.261 206.341 531.67 205.48L409.044 139.713C408.694 139.527 408.307 139.412 407.908 139.374C407.508 139.337 407.105 139.377 406.723 139.494C406.341 139.61 405.988 139.8 405.688 140.051C405.388 140.303 405.146 140.61 404.978 140.954C405.846 137.951 412.189 132.342 418.493 132.466Z" fill="white"/>
<path opacity="0.3" d="M404.965 140.904C405.86 137.963 412.203 132.354 418.507 132.478C419.114 132.492 419.714 132.601 420.283 132.801L542.91 198.569C544.947 199.68 546.588 201.339 547.621 203.334C548.414 204.842 548.828 206.502 548.832 208.186V458.276C548.832 464.654 541.041 470.685 533.724 467.806C533.562 467.759 533.403 467.701 533.25 467.633L410.597 401.704C408.8 400.737 407.306 399.339 406.266 397.653C405.226 395.966 404.677 394.05 404.675 392.099V142.108C404.674 141.691 404.773 141.279 404.965 140.904Z" fill="white"/>
<path d="M417.019 155.695L418.388 156.452L418.415 150.881L417.032 150.136L417.019 155.695Z" fill="white"/>
<path d="M414.664 154.418L416.033 155.162L416.046 150.658L414.677 149.913L414.664 154.418Z" fill="white"/>
<path d="M412.295 153.127L413.664 153.872L413.677 150.534L412.308 149.789L412.295 153.127Z" fill="white"/>
<path d="M409.939 151.849L411.308 152.593V150.335L409.939 149.59V151.849Z" fill="white"/>
<path d="M422.125 158.488L430.535 163.067L430.548 158.388L422.138 153.81L422.125 158.488Z" fill="white"/>
<path d="M434.719 165.338L438.918 167.621L438.932 162.955L434.733 160.672L434.719 165.338Z" fill="white"/>
<path d="M521.485 211.983L521.498 208.223L526.012 210.68L521.498 208.223L521.485 211.983Z" fill="white"/>
<path d="M521.485 211.983L525.999 214.44L526.012 210.68L521.498 208.223L521.485 211.983Z" fill="#6C64C4"/>
<path d="M529.197 212.976V211.511L520.669 206.87V212.43L529.197 217.071V215.606L530.289 216.202V213.571L529.197 212.976ZM525.999 214.44L521.485 211.958V208.235L525.999 210.717V214.44Z" fill="white"/>
<path d="M508.456 205.394L516.865 209.96L516.879 205.294L508.469 200.715L508.456 205.394Z" fill="white"/>
<path d="M468.331 183.268L476.74 187.847L476.753 183.182L468.344 178.603L468.331 183.268Z" fill="white"/>
<path d="M515.194 227.717L391.634 160.448C391.279 160.216 390.869 160.069 390.439 160.022C390.01 159.974 389.575 160.027 389.173 160.175H389.107L386.475 161.59L388.094 163.104L388.001 196.372V197.154V206.126C388.068 207.294 388.426 208.43 389.046 209.444C389.665 210.457 390.529 211.318 391.568 211.958L510.312 276.72L514.879 280.964L517.432 279.587C517.525 279.547 517.613 279.497 517.695 279.438H517.813C518.101 279.185 518.325 278.874 518.469 278.528C518.612 278.182 518.671 277.81 518.642 277.44V269.225V267.687L518.748 233.649C518.699 232.465 518.351 231.309 517.733 230.277C517.115 229.246 516.244 228.368 515.194 227.717Z" fill="#6C64C4"/>
<path opacity="0.2" d="M515.194 227.717L391.634 160.448C391.279 160.216 390.869 160.069 390.439 160.022C390.01 159.974 389.575 160.027 389.173 160.175H389.107L386.475 161.59L388.094 163.104L388.001 196.372V197.154V206.126C388.068 207.294 388.426 208.43 389.046 209.444C389.665 210.457 390.529 211.318 391.568 211.958L510.312 276.72L514.879 280.964L517.432 279.587C517.525 279.547 517.613 279.497 517.695 279.438H517.813C518.101 279.185 518.325 278.874 518.469 278.528C518.612 278.182 518.671 277.81 518.642 277.44V269.225V267.687L518.748 233.649C518.699 232.465 518.351 231.309 517.733 230.277C517.115 229.246 516.244 228.368 515.194 227.717Z" fill="black"/>
<path d="M512.549 229.119C513.588 229.759 514.452 230.62 515.071 231.634C515.691 232.647 516.049 233.784 516.115 234.952L516.01 268.977L385.29 197.824V199.375L516.01 270.516V278.718C516.01 280.865 514.391 281.733 512.417 280.654L388.83 213.434C387.794 212.796 386.931 211.937 386.311 210.926C385.691 209.915 385.333 208.78 385.264 207.615L385.396 163.823C385.396 161.689 387.001 160.82 388.988 161.888L512.549 229.119Z" fill="#6C64C4"/>
<path d="M516.01 268.977V270.528L385.29 199.375V197.824L516.01 268.977Z" fill="#6C64C4"/>
<g opacity="0.2">
<path d="M516.01 268.977V270.528L385.29 199.375V197.824L516.01 268.977Z" fill="white"/>
</g>
<g opacity="0.6">
<path d="M452.157 239.667L452.144 243.464L389.409 209.302L389.422 205.517L452.157 239.667Z" fill="white"/>
</g>
<path d="M412.689 179.521C413.312 179.905 413.829 180.422 414.2 181.03C414.57 181.638 414.783 182.32 414.821 183.02V205.778C414.821 207.019 413.861 207.578 412.663 206.932L391.673 195.491C391.048 195.111 390.528 194.597 390.155 193.991C389.782 193.385 389.567 192.704 389.528 192.004L389.593 169.246C389.593 168.005 390.567 167.435 391.752 168.08L412.689 179.521Z" fill="white"/>
<g opacity="0.6">
<path d="M489.4 223.697L489.387 228.673L422.915 192.488L422.928 187.512L489.4 223.697Z" fill="white"/>
</g>
<g opacity="0.6">
<path d="M459.987 225.173L459.974 230.149L422.863 209.948L422.876 204.972L459.987 225.173Z" fill="white"/>
</g>
<g opacity="0.6">
<path d="M489.374 232.433L489.361 237.396L422.889 201.212L422.902 196.248L489.374 232.433Z" fill="white"/>
</g>
<g opacity="0.5">
<path d="M511.062 233.276L509.062 234.964L511.417 239.568L509.443 238.488L508.022 235.585L506.719 237.012L504.732 235.92L507.14 233.922L505.219 230.1L507.167 231.155L508.193 233.289L509.088 232.209L511.062 233.276Z" fill="white"/>
</g>
<path d="M515.194 289.7L391.634 222.431C391.278 222.201 390.867 222.056 390.438 222.011C390.009 221.965 389.574 222.02 389.173 222.17H389.107L386.475 223.585L388.094 225.099L388.001 258.367V259.149V268.121C388.07 269.287 388.429 270.421 389.048 271.432C389.668 272.443 390.531 273.302 391.568 273.941L510.404 338.641L514.971 342.885L517.524 341.495C517.617 341.459 517.705 341.414 517.787 341.359L517.905 341.297C518.193 341.043 518.417 340.732 518.561 340.387C518.704 340.041 518.764 339.669 518.735 339.299V331.084V329.533L518.84 295.508C518.76 294.337 518.388 293.201 517.755 292.192C517.121 291.183 516.244 290.329 515.194 289.7Z" fill="#6C64C4"/>
<path opacity="0.2" d="M515.194 289.7L391.634 222.431C391.278 222.201 390.867 222.056 390.438 222.011C390.009 221.965 389.574 222.02 389.173 222.17H389.107L386.475 223.585L388.094 225.099L388.001 258.367V259.149V268.121C388.07 269.287 388.429 270.421 389.048 271.432C389.668 272.443 390.531 273.302 391.568 273.941L510.404 338.641L514.971 342.885L517.524 341.495C517.617 341.459 517.705 341.414 517.787 341.359L517.905 341.297C518.193 341.043 518.417 340.732 518.561 340.387C518.704 340.041 518.764 339.669 518.735 339.299V331.084V329.533L518.84 295.508C518.76 294.337 518.388 293.201 517.755 292.192C517.121 291.183 516.244 290.329 515.194 289.7Z" fill="black"/>
<path d="M512.549 291.115C513.587 291.754 514.451 292.616 515.071 293.629C515.691 294.642 516.048 295.779 516.115 296.947L516.01 330.972L385.29 259.819V261.358L516.01 332.561V340.763C516.01 342.91 514.391 343.778 512.417 342.699L388.856 275.43C387.82 274.791 386.957 273.932 386.337 272.921C385.718 271.91 385.359 270.776 385.29 269.61L385.422 225.819C385.422 223.672 387.027 222.803 389.014 223.883L512.549 291.115Z" fill="#6C64C4"/>
<path d="M516.01 330.972V332.524L385.29 261.358V259.819L516.01 330.972Z" fill="#6C64C4"/>
<g opacity="0.2">
<path d="M516.01 330.972V332.524L385.29 261.358V259.819L516.01 330.972Z" fill="white"/>
</g>
<path d="M412.689 241.516C413.312 241.9 413.829 242.417 414.2 243.025C414.57 243.633 414.783 244.315 414.821 245.015V267.761C414.821 269.002 413.861 269.56 412.663 268.927L391.673 257.486C391.046 257.105 390.525 256.589 390.152 255.981C389.779 255.372 389.565 254.689 389.528 253.987L389.593 231.241C389.593 230 390.567 229.43 391.752 230.075L412.689 241.516Z" fill="white"/>
<g opacity="0.6">
<path d="M489.4 285.692L489.387 290.668L422.915 254.471L422.928 249.495L489.4 285.692Z" fill="white"/>
</g>
<g opacity="0.5">
<path d="M511.062 295.272L509.062 296.96L511.417 301.551L509.443 300.484L508.022 297.58L506.719 298.995L504.732 297.915L507.14 295.917L505.219 292.095L507.167 293.15L508.193 295.284L509.088 294.205L511.062 295.272Z" fill="white"/>
</g>
<path opacity="0.6" d="M389.422 267.513L389.409 271.298L425.876 291.152V287.355L389.422 267.513Z" fill="white"/>
<path opacity="0.6" d="M422.902 258.231L422.889 263.207L454.592 280.456V275.48L422.902 258.231Z" fill="white"/>
<path d="M515.194 414.547L391.634 347.278C391.279 347.045 390.869 346.899 390.439 346.851C390.01 346.803 389.575 346.856 389.173 347.005H389.107L386.475 348.419L388.094 349.933L388.001 383.202V383.983V392.955C388.068 394.123 388.426 395.26 389.046 396.273C389.665 397.286 390.529 398.148 391.568 398.787L510.404 463.475L514.971 467.719L517.524 466.342L517.787 466.205L517.905 466.131C518.193 465.878 518.417 465.567 518.561 465.221C518.704 464.875 518.764 464.503 518.735 464.133V455.931V454.38L518.84 420.342C518.758 419.174 518.385 418.04 517.752 417.033C517.119 416.026 516.242 415.174 515.194 414.547Z" fill="#6C64C4"/>
<path opacity="0.2" d="M515.194 414.547L391.634 347.278C391.279 347.045 390.869 346.899 390.439 346.851C390.01 346.803 389.575 346.856 389.173 347.005H389.107L386.475 348.419L388.094 349.933L388.001 383.202V383.983V392.955C388.068 394.123 388.426 395.26 389.046 396.273C389.665 397.286 390.529 398.148 391.568 398.787L510.404 463.475L514.971 467.719L517.524 466.342L517.787 466.205L517.905 466.131C518.193 465.878 518.417 465.567 518.561 465.221C518.704 464.875 518.764 464.503 518.735 464.133V455.931V454.38L518.84 420.342C518.758 419.174 518.385 418.04 517.752 417.033C517.119 416.026 516.242 415.174 515.194 414.547Z" fill="black"/>
<path d="M512.549 415.962C513.586 416.6 514.449 417.46 515.068 418.471C515.688 419.482 516.046 420.616 516.115 421.782L516.01 455.819L385.29 384.679V386.23L516.01 457.383V465.598C516.01 467.732 514.391 468.601 512.417 467.534L388.856 400.264C387.818 399.625 386.954 398.763 386.334 397.75C385.715 396.737 385.357 395.6 385.29 394.432L385.422 350.653C385.422 348.507 387.027 347.638 389.014 348.717L512.549 415.962Z" fill="#6C64C4"/>
<path d="M516.01 455.819V457.358L385.29 386.205V384.654L516.01 455.819Z" fill="#6C64C4"/>
<g opacity="0.2">
<path d="M516.01 455.819V457.358L385.29 386.205V384.654L516.01 455.819Z" fill="white"/>
</g>
<path d="M412.689 366.35C413.311 366.735 413.828 367.252 414.198 367.86C414.569 368.468 414.782 369.15 414.821 369.85V392.608C414.821 393.849 413.861 394.407 412.663 393.762L391.673 382.333C391.048 381.951 390.528 381.434 390.155 380.826C389.782 380.218 389.567 379.535 389.528 378.834L389.541 356.138C389.541 354.897 390.515 354.339 391.699 354.984L412.689 366.35Z" fill="white"/>
<g opacity="0.6">
<path d="M489.4 410.526L489.387 415.502L422.915 379.318L422.928 374.342L489.4 410.526Z" fill="white"/>
</g>
<g opacity="0.5">
<path d="M511.062 420.119L509.062 421.806L511.417 426.398L509.443 425.33L508.022 422.427L506.719 423.841L504.732 422.762L507.14 420.751L505.219 416.929L507.167 417.997L508.193 420.131L509.088 419.039L511.062 420.119Z" fill="white"/>
</g>
<path opacity="0.6" d="M389.422 392.347L389.409 396.144L425.876 415.986V412.189L389.422 392.347Z" fill="white"/>
<path opacity="0.6" d="M422.902 383.078L422.889 388.041L437.22 395.834V390.858L422.902 383.078Z" fill="white"/>
<path d="M515.194 351.695L391.634 284.426C391.281 284.19 390.869 284.041 390.439 283.996C390.008 283.95 389.573 284.009 389.173 284.166H389.107L386.475 285.593L388.094 287.094L388.001 320.375V321.157V330.129C388.07 331.294 388.429 332.429 389.048 333.44C389.668 334.451 390.531 335.31 391.568 335.948L510.404 400.649L514.971 404.893L517.524 403.503L517.787 403.366L517.905 403.304C518.195 403.05 518.42 402.737 518.564 402.389C518.707 402.041 518.766 401.666 518.735 401.294V393.092V391.541L518.84 357.515C518.762 356.343 518.391 355.204 517.758 354.193C517.124 353.181 516.246 352.326 515.194 351.695Z" fill="#6C64C4"/>
<path opacity="0.2" d="M515.194 351.695L391.634 284.426C391.281 284.19 390.869 284.041 390.439 283.996C390.008 283.95 389.573 284.009 389.173 284.166H389.107L386.475 285.593L388.094 287.094L388.001 320.375V321.157V330.129C388.07 331.294 388.429 332.429 389.048 333.44C389.668 334.451 390.531 335.31 391.568 335.948L510.404 400.649L514.971 404.893L517.524 403.503L517.787 403.366L517.905 403.304C518.195 403.05 518.42 402.737 518.564 402.389C518.707 402.041 518.766 401.666 518.735 401.294V393.092V391.541L518.84 357.515C518.762 356.343 518.391 355.204 517.758 354.193C517.124 353.181 516.246 352.326 515.194 351.695Z" fill="black"/>
<path d="M512.549 353.11C513.586 353.748 514.449 354.608 515.068 355.619C515.688 356.63 516.046 357.764 516.115 358.93L516.01 392.968L385.29 321.802V323.353L516.01 394.519V402.721C516.01 404.868 514.391 405.724 512.417 404.657L388.856 337.388C387.82 336.749 386.957 335.89 386.337 334.879C385.718 333.868 385.359 332.734 385.29 331.568L385.422 287.777C385.422 285.63 387.027 284.761 389.014 285.841L512.549 353.11Z" fill="#6C64C4"/>
<path d="M516.01 392.968V394.519L385.29 323.353V321.802L516.01 392.968Z" fill="#6C64C4"/>
<g opacity="0.2">
<path d="M516.01 392.968V394.519L385.29 323.353V321.802L516.01 392.968Z" fill="white"/>
</g>
<g opacity="0.6">
<path d="M436.075 355.033L436.062 358.818L389.409 333.293L389.422 329.508L436.075 355.033Z" fill="white"/>
</g>
<path d="M412.689 303.499C413.311 303.884 413.828 304.401 414.198 305.009C414.569 305.617 414.782 306.298 414.821 306.998V329.756C414.821 330.997 413.861 331.556 412.663 330.911L391.673 319.482C391.046 319.101 390.525 318.585 390.152 317.976C389.779 317.368 389.565 316.684 389.528 315.983L389.593 293.237C389.593 291.996 390.567 291.425 391.752 292.07L412.689 303.499Z" fill="white"/>
<g opacity="0.6">
<path d="M489.4 347.675L489.387 352.651L422.915 316.466L422.928 311.49L489.4 347.675Z" fill="white"/>
</g>
<g opacity="0.6">
<path d="M477.675 358.893L477.661 363.869L422.863 333.938L422.876 328.962L477.675 358.893Z" fill="white"/>
</g>
<g opacity="0.6">
<path d="M489.374 356.411L489.361 361.387L422.889 325.202L422.902 320.226L489.374 356.411Z" fill="white"/>
</g>
<g opacity="0.5">
<path d="M511.062 357.267L509.062 358.955L511.417 363.546L509.443 362.479L508.022 359.575L506.719 360.99L504.732 359.91L507.14 357.912L505.219 354.09L507.167 355.145L508.193 357.279L509.088 356.2L511.062 357.267Z" fill="white"/>
</g>
<path d="M374.328 161.23L352.298 149.317C350.376 148.275 345.81 149.69 345.81 152.618C345.809 152.381 345.874 152.148 345.999 151.942C346.124 151.736 346.304 151.565 346.522 151.446C346.739 151.326 346.986 151.263 347.237 151.262C347.489 151.261 347.736 151.322 347.955 151.439L369.972 163.352C370.695 163.744 371.277 164.332 371.643 165.04L375.92 162.744C375.543 162.114 374.993 161.591 374.328 161.23Z" fill="#6C64C4"/>
<path d="M371.643 165.039C371.956 165.598 372.123 166.219 372.13 166.851V190.689C372.128 190.925 372.061 191.157 371.935 191.361C371.809 191.565 371.629 191.734 371.412 191.852C371.195 191.97 370.949 192.032 370.699 192.033C370.448 192.034 370.202 191.972 369.985 191.855C370.62 192.229 371.348 192.439 372.096 192.462C372.845 192.485 373.586 192.322 374.246 191.988C374.906 191.654 375.46 191.162 375.854 190.561C376.247 189.961 376.465 189.273 376.486 188.567V164.742C376.479 164.045 376.284 163.362 375.92 162.756L371.643 165.039Z" fill="#6C64C4"/>
<path opacity="0.4" d="M374.328 161.23L352.298 149.317C350.376 148.275 345.81 149.69 345.81 152.618C345.809 152.381 345.874 152.148 345.999 151.942C346.124 151.736 346.304 151.565 346.522 151.446C346.739 151.326 346.986 151.263 347.237 151.262C347.489 151.261 347.736 151.322 347.955 151.439L369.972 163.352C370.695 163.744 371.277 164.332 371.643 165.04L375.92 162.744C375.543 162.114 374.993 161.591 374.328 161.23Z" fill="white"/>
<path opacity="0.2" d="M371.643 165.039C371.956 165.598 372.123 166.219 372.13 166.851V190.689C372.128 190.925 372.061 191.157 371.935 191.361C371.809 191.565 371.629 191.734 371.412 191.852C371.195 191.97 370.949 192.032 370.699 192.033C370.448 192.034 370.202 191.972 369.985 191.855C370.62 192.229 371.348 192.439 372.096 192.462C372.845 192.485 373.586 192.322 374.246 191.988C374.906 191.654 375.46 191.162 375.854 190.561C376.247 189.961 376.465 189.273 376.486 188.567V164.742C376.479 164.045 376.284 163.362 375.92 162.756L371.643 165.039Z" fill="white"/>
<path d="M347.955 151.39L369.972 163.302C370.629 163.655 371.174 164.166 371.554 164.783C371.933 165.4 372.132 166.101 372.13 166.814V190.652C372.128 190.888 372.061 191.119 371.935 191.323C371.809 191.527 371.629 191.697 371.412 191.815C371.195 191.933 370.949 191.995 370.699 191.996C370.449 191.996 370.202 191.935 369.985 191.818L347.968 179.955C347.311 179.602 346.765 179.091 346.386 178.474C346.007 177.857 345.808 177.156 345.81 176.443V152.63C345.797 152.388 345.854 152.147 345.974 151.932C346.094 151.718 346.273 151.538 346.492 151.411C346.712 151.284 346.963 151.215 347.22 151.211C347.478 151.207 347.731 151.269 347.955 151.39Z" fill="#6C64C4"/>
<path d="M377.433 179.769L372.169 180.7V174.297L377.644 179.186C377.691 179.232 377.723 179.289 377.737 179.351C377.752 179.413 377.748 179.477 377.726 179.538C377.705 179.598 377.666 179.651 377.614 179.692C377.563 179.733 377.5 179.759 377.433 179.769Z" fill="#6C64C4"/>
<path d="M372.143 174.297L376.486 171.951L381.961 176.915C382.001 176.953 382.03 176.999 382.048 177.049C382.066 177.1 382.072 177.154 382.064 177.206C382.056 177.259 382.036 177.31 382.004 177.354C381.973 177.398 381.931 177.435 381.882 177.461L377.552 179.744L372.143 174.297Z" fill="#6C64C4"/>
<path opacity="0.2" d="M372.143 174.297L376.486 171.951L381.961 176.915C382.001 176.953 382.03 176.999 382.048 177.049C382.066 177.1 382.072 177.154 382.064 177.206C382.056 177.259 382.036 177.31 382.004 177.354C381.973 177.398 381.931 177.435 381.882 177.461L377.552 179.744L372.143 174.297Z" fill="white"/>
<path d="M356.259 178.069C356.549 179.43 357.383 180.634 358.588 181.432H358.693C359.891 182.089 361.062 181.767 361.207 180.712L356.259 178.069Z" fill="white"/>
<path d="M352.798 172.659C353.186 172.046 353.404 171.35 353.429 170.636C353.508 169.594 353.535 168.514 353.574 167.447C353.653 165.251 354.587 164.097 356.403 163.997C356.838 163.997 356.93 163.836 356.864 163.265C356.746 162.31 357.035 161.739 357.719 161.627C358.086 161.578 358.459 161.653 358.772 161.838C359.196 162.076 359.559 162.398 359.838 162.781C360.15 163.134 360.385 163.541 360.53 163.98C360.674 164.419 360.726 164.88 360.68 165.337C360.625 165.563 360.637 165.799 360.716 166.018C360.795 166.237 360.938 166.432 361.128 166.578C362.497 168.093 363.406 169.928 363.76 171.889C363.844 172.54 363.883 173.195 363.878 173.85C363.862 175 363.941 176.149 364.115 177.287C364.294 178.5 364.743 179.662 365.431 180.7C365.669 181.01 365.794 181.384 365.787 181.767C365.787 182.325 365.55 182.462 365.01 182.176L358.72 178.69L353.6 175.898L352.942 175.538L352.271 175.178C352.011 175.034 351.811 174.811 351.705 174.545C351.495 174.061 351.587 173.453 351.903 173.304C352.265 173.182 352.578 172.957 352.798 172.659ZM357.667 172.535L359.812 173.701L360.365 168.427L357.154 166.678L357.667 172.535ZM358.733 176.692C359.654 177.2 360.299 176.853 360.299 175.997C360.264 175.511 360.103 175.04 359.83 174.627C359.557 174.214 359.18 173.87 358.733 173.627C357.812 173.13 357.167 173.428 357.167 174.297C357.202 174.786 357.362 175.26 357.635 175.677C357.908 176.094 358.285 176.443 358.733 176.692ZM358.733 163.253C358.377 163.054 358.075 163.253 358.075 163.613C358.094 163.824 358.163 164.028 358.277 164.211C358.39 164.393 358.546 164.549 358.733 164.667C358.795 164.713 358.87 164.739 358.948 164.744C359.027 164.749 359.105 164.731 359.173 164.694C359.24 164.657 359.295 164.601 359.329 164.535C359.363 164.468 359.376 164.393 359.364 164.32C359.364 164.105 359.305 163.893 359.192 163.706C359.079 163.519 358.916 163.363 358.72 163.253" fill="white"/>
<path d="M374.328 225.533L352.298 213.621C350.376 212.578 345.81 213.993 345.81 216.909C345.811 216.673 345.878 216.441 346.004 216.237C346.13 216.033 346.311 215.864 346.527 215.746C346.744 215.628 346.99 215.566 347.241 215.565C347.491 215.564 347.737 215.626 347.955 215.743L369.972 227.655C370.697 228.051 371.28 228.643 371.643 229.355L375.92 227.06C375.545 226.425 374.995 225.898 374.328 225.533Z" fill="#6C64C4"/>
<path d="M371.643 229.355C371.956 229.914 372.123 230.535 372.13 231.167V255.005C372.128 255.241 372.061 255.472 371.935 255.676C371.809 255.88 371.629 256.05 371.412 256.168C371.195 256.286 370.949 256.348 370.699 256.349C370.448 256.349 370.202 256.288 369.985 256.171C370.621 256.546 371.35 256.755 372.1 256.778C372.849 256.8 373.591 256.636 374.252 256.3C374.912 255.965 375.466 255.471 375.858 254.869C376.251 254.267 376.467 253.577 376.486 252.87V229.045C376.481 228.348 376.286 227.665 375.92 227.06L371.643 229.355Z" fill="#6C64C4"/>
<path opacity="0.4" d="M374.328 225.533L352.298 213.621C350.376 212.578 345.81 213.993 345.81 216.909C345.811 216.673 345.878 216.441 346.004 216.237C346.13 216.033 346.311 215.864 346.527 215.746C346.744 215.628 346.99 215.566 347.241 215.565C347.491 215.564 347.737 215.626 347.955 215.743L369.972 227.655C370.697 228.051 371.28 228.643 371.643 229.355L375.92 227.06C375.545 226.425 374.995 225.898 374.328 225.533Z" fill="white"/>
<path opacity="0.2" d="M371.643 229.355C371.956 229.914 372.123 230.535 372.13 231.167V255.005C372.128 255.241 372.061 255.472 371.935 255.676C371.809 255.88 371.629 256.05 371.412 256.168C371.195 256.286 370.949 256.348 370.699 256.349C370.448 256.349 370.202 256.288 369.985 256.171C370.621 256.546 371.35 256.755 372.1 256.778C372.849 256.8 373.591 256.636 374.252 256.3C374.912 255.965 375.466 255.471 375.858 254.869C376.251 254.267 376.467 253.577 376.486 252.87V229.045C376.481 228.348 376.286 227.665 375.92 227.06L371.643 229.355Z" fill="white"/>
<path d="M347.955 215.743L369.972 227.655C370.629 228.008 371.174 228.52 371.554 229.136C371.933 229.753 372.132 230.454 372.13 231.167V255.005C372.128 255.241 372.061 255.472 371.935 255.676C371.809 255.88 371.629 256.05 371.412 256.168C371.195 256.286 370.949 256.348 370.699 256.349C370.449 256.349 370.202 256.288 369.985 256.171L347.968 244.308C347.309 243.954 346.762 243.441 346.383 242.822C346.004 242.202 345.806 241.499 345.81 240.784V216.909C345.811 216.673 345.878 216.441 346.004 216.237C346.13 216.033 346.311 215.864 346.527 215.746C346.744 215.628 346.99 215.566 347.241 215.565C347.491 215.564 347.737 215.626 347.955 215.743Z" fill="#6C64C4"/>
<path d="M377.433 244.072L372.169 245.003V238.6L377.644 243.489C377.691 243.535 377.723 243.592 377.737 243.654C377.752 243.716 377.748 243.781 377.726 243.841C377.705 243.901 377.666 243.954 377.614 243.995C377.563 244.036 377.5 244.063 377.433 244.072Z" fill="#6C64C4"/>
<path d="M372.143 238.6L376.486 236.255L381.961 241.218C382.001 241.256 382.03 241.302 382.048 241.352C382.066 241.403 382.072 241.457 382.064 241.509C382.056 241.562 382.036 241.613 382.004 241.657C381.973 241.701 381.931 241.738 381.882 241.764L377.552 244.047L372.143 238.6Z" fill="#6C64C4"/>
<path opacity="0.2" d="M372.143 238.6L376.486 236.255L381.961 241.218C382.001 241.256 382.03 241.302 382.048 241.352C382.066 241.403 382.072 241.457 382.064 241.509C382.056 241.562 382.036 241.613 382.004 241.657C381.973 241.701 381.931 241.738 381.882 241.764L377.552 244.047L372.143 238.6Z" fill="white"/>
<path d="M356.259 242.36C356.546 243.726 357.38 244.935 358.588 245.735H358.693C359.891 246.393 361.062 246.058 361.207 245.015L356.259 242.36Z" fill="white"/>
<path d="M352.798 237.011C353.188 236.404 353.406 235.711 353.429 235.001C353.508 233.959 353.535 232.879 353.574 231.812C353.653 229.603 354.587 228.462 356.404 228.362C356.838 228.362 356.93 228.201 356.864 227.63C356.746 226.675 357.035 226.104 357.72 225.992C358.086 225.936 358.462 226.011 358.772 226.203C359.196 226.441 359.559 226.763 359.838 227.146C360.15 227.499 360.385 227.906 360.53 228.345C360.674 228.784 360.726 229.245 360.681 229.703C360.625 229.928 360.637 230.164 360.716 230.383C360.795 230.603 360.938 230.797 361.128 230.943C362.497 232.458 363.406 234.293 363.76 236.254C363.844 236.905 363.884 237.56 363.878 238.215C363.862 239.365 363.941 240.514 364.115 241.652C364.294 242.865 364.743 244.027 365.431 245.065C365.67 245.375 365.794 245.749 365.787 246.132C365.787 246.69 365.55 246.827 365.01 246.542L358.654 243.079L353.535 240.287L352.877 239.928L352.205 239.568C351.946 239.424 351.746 239.201 351.64 238.935C351.429 238.451 351.521 237.843 351.837 237.694C352.231 237.578 352.57 237.337 352.798 237.011ZM357.667 236.9L359.812 238.054L360.365 232.792L357.154 231.043L357.667 236.9ZM358.733 241.057C359.654 241.553 360.299 241.218 360.299 240.362C360.264 239.876 360.103 239.405 359.83 238.992C359.557 238.579 359.18 238.235 358.733 237.992C357.812 237.483 357.167 237.793 357.167 238.662C357.202 239.151 357.363 239.625 357.635 240.042C357.908 240.459 358.285 240.808 358.733 241.057ZM358.733 227.618C358.378 227.419 358.075 227.618 358.075 227.965C358.092 228.178 358.16 228.385 358.274 228.57C358.388 228.755 358.545 228.913 358.733 229.032C358.795 229.078 358.87 229.104 358.948 229.109C359.027 229.114 359.105 229.096 359.173 229.059C359.24 229.022 359.295 228.966 359.329 228.9C359.363 228.833 359.376 228.758 359.365 228.685C359.365 228.47 359.305 228.258 359.192 228.071C359.079 227.884 358.916 227.728 358.72 227.618" fill="white"/>
<path d="M374.328 289.837L352.298 277.961C350.376 276.919 345.81 278.334 345.81 281.25C345.811 281.014 345.878 280.782 346.004 280.578C346.13 280.374 346.311 280.204 346.527 280.086C346.744 279.968 346.99 279.906 347.241 279.906C347.491 279.905 347.737 279.966 347.955 280.083L369.972 291.996C370.697 292.391 371.28 292.984 371.643 293.696L375.92 291.4C375.551 290.752 375 290.211 374.328 289.837Z" fill="#6C64C4"/>
<path d="M371.643 293.659C371.956 294.217 372.123 294.839 372.13 295.47V319.296C372.13 319.533 372.065 319.766 371.94 319.972C371.815 320.178 371.635 320.349 371.418 320.468C371.2 320.588 370.953 320.651 370.702 320.652C370.45 320.653 370.203 320.592 369.985 320.475C370.621 320.849 371.35 321.058 372.1 321.081C372.849 321.104 373.591 320.939 374.252 320.604C374.912 320.269 375.466 319.775 375.858 319.172C376.251 318.57 376.467 317.88 376.486 317.174V293.348C376.481 292.652 376.286 291.968 375.92 291.363L371.643 293.659Z" fill="#6C64C4"/>
<path opacity="0.4" d="M374.328 289.837L352.298 277.961C350.376 276.919 345.81 278.334 345.81 281.25C345.811 281.014 345.878 280.782 346.004 280.578C346.13 280.374 346.311 280.204 346.527 280.086C346.744 279.968 346.99 279.906 347.241 279.906C347.491 279.905 347.737 279.966 347.955 280.083L369.972 291.996C370.697 292.391 371.28 292.984 371.643 293.696L375.92 291.4C375.551 290.752 375 290.211 374.328 289.837Z" fill="white"/>
<path opacity="0.2" d="M371.643 293.659C371.956 294.217 372.123 294.839 372.13 295.47V319.296C372.13 319.533 372.065 319.766 371.94 319.972C371.815 320.178 371.635 320.349 371.418 320.468C371.2 320.588 370.953 320.651 370.702 320.652C370.45 320.653 370.203 320.592 369.985 320.475C370.621 320.849 371.35 321.058 372.1 321.081C372.849 321.104 373.591 320.939 374.252 320.604C374.912 320.269 375.466 319.775 375.858 319.172C376.251 318.57 376.467 317.88 376.486 317.174V293.348C376.481 292.652 376.286 291.968 375.92 291.363L371.643 293.659Z" fill="white"/>
<path d="M347.955 280.046L369.972 291.958C370.629 292.312 371.174 292.823 371.553 293.44C371.933 294.057 372.132 294.757 372.13 295.47V319.295C372.131 319.533 372.065 319.766 371.94 319.972C371.815 320.177 371.635 320.349 371.418 320.468C371.2 320.587 370.954 320.651 370.702 320.652C370.451 320.653 370.203 320.592 369.985 320.474L347.968 308.611C347.31 308.256 346.764 307.743 346.385 307.124C346.005 306.505 345.807 305.802 345.81 305.087V281.212C345.811 280.976 345.878 280.745 346.004 280.54C346.13 280.336 346.311 280.167 346.527 280.049C346.744 279.931 346.99 279.869 347.241 279.868C347.491 279.868 347.737 279.929 347.955 280.046Z" fill="#6C64C4"/>
<path d="M377.433 308.376L372.169 309.307V302.904L377.644 307.78C377.694 307.826 377.73 307.884 377.747 307.948C377.763 308.012 377.761 308.079 377.739 308.141C377.717 308.203 377.676 308.258 377.622 308.3C377.568 308.342 377.503 308.368 377.433 308.376Z" fill="#6C64C4"/>
<path d="M372.143 302.903L376.486 300.558L381.961 305.521C382.001 305.559 382.03 305.605 382.048 305.656C382.066 305.706 382.072 305.76 382.064 305.813C382.056 305.866 382.036 305.916 382.004 305.96C381.973 306.004 381.931 306.041 381.882 306.067L377.552 308.351L372.143 302.903Z" fill="#6C64C4"/>
<path opacity="0.2" d="M372.143 302.903L376.486 300.558L381.961 305.521C382.001 305.559 382.03 305.605 382.048 305.656C382.066 305.706 382.072 305.76 382.064 305.813C382.056 305.866 382.036 305.916 382.004 305.96C381.973 306.004 381.931 306.041 381.882 306.067L377.552 308.351L372.143 302.903Z" fill="white"/>
<path d="M356.259 306.663C356.542 308.027 357.378 309.233 358.588 310.026H358.693C359.891 310.671 361.062 310.349 361.207 309.306L356.259 306.663Z" fill="white"/>
<path d="M352.798 301.253C353.188 300.645 353.406 299.953 353.429 299.242C353.508 298.2 353.535 297.121 353.574 296.053C353.653 293.845 354.587 292.703 356.404 292.604C356.838 292.604 356.93 292.442 356.864 291.872C356.746 290.916 357.035 290.345 357.72 290.234C358.086 290.177 358.462 290.253 358.772 290.445C359.196 290.682 359.559 291.004 359.838 291.388C360.151 291.74 360.386 292.147 360.531 292.586C360.676 293.025 360.726 293.486 360.681 293.944C360.625 294.169 360.637 294.405 360.716 294.625C360.795 294.844 360.938 295.038 361.128 295.185C362.497 296.699 363.406 298.534 363.76 300.496C363.844 301.146 363.884 301.801 363.878 302.456C363.862 303.602 363.941 304.747 364.115 305.881C364.295 307.097 364.744 308.264 365.431 309.306C365.671 309.615 365.796 309.99 365.787 310.373C365.787 310.932 365.55 311.068 365.01 310.783L358.654 307.321L353.535 304.529L352.877 304.169L352.205 303.809C351.943 303.662 351.743 303.434 351.64 303.164C351.429 302.692 351.521 302.084 351.837 301.923C352.229 301.81 352.568 301.573 352.798 301.253ZM357.667 301.141L359.812 302.295L360.365 297.034L357.154 295.334L357.667 301.191M358.733 305.348C359.654 305.844 360.299 305.497 360.299 304.653C360.264 304.167 360.103 303.696 359.83 303.283C359.557 302.87 359.18 302.526 358.733 302.283C357.812 301.774 357.167 302.084 357.167 302.94C357.2 303.432 357.359 303.908 357.632 304.328C357.905 304.747 358.283 305.097 358.733 305.348ZM358.733 291.909C358.378 291.71 358.075 291.909 358.075 292.256C358.09 292.468 358.157 292.674 358.271 292.857C358.386 293.04 358.544 293.196 358.733 293.311C359.075 293.497 359.365 293.311 359.365 292.951C359.362 292.738 359.302 292.529 359.189 292.344C359.076 292.159 358.914 292.005 358.72 291.896" fill="white"/>
<path d="M374.328 354.14L352.298 342.227C350.376 341.172 345.81 342.587 345.81 345.516C345.807 345.278 345.872 345.044 345.997 344.838C346.122 344.631 346.303 344.46 346.521 344.342C346.739 344.223 346.987 344.161 347.239 344.162C347.491 344.164 347.738 344.228 347.955 344.349L369.972 356.262C370.697 356.657 371.28 357.25 371.643 357.962L375.92 355.666C375.549 355.029 374.998 354.501 374.328 354.14Z" fill="#6C64C4"/>
<path d="M371.643 357.962C371.956 358.521 372.123 359.142 372.13 359.774V383.599C372.13 383.836 372.065 384.069 371.94 384.275C371.815 384.481 371.635 384.652 371.418 384.771C371.2 384.891 370.953 384.954 370.702 384.955C370.45 384.956 370.203 384.895 369.985 384.778C370.621 385.152 371.35 385.361 372.1 385.384C372.849 385.407 373.591 385.242 374.252 384.907C374.912 384.572 375.466 384.078 375.858 383.476C376.251 382.873 376.467 382.184 376.486 381.477V357.652C376.481 356.955 376.286 356.271 375.92 355.666L371.643 357.962Z" fill="#6C64C4"/>
<path opacity="0.4" d="M374.328 354.14L352.298 342.227C350.376 341.172 345.81 342.587 345.81 345.516C345.807 345.278 345.872 345.044 345.997 344.838C346.122 344.631 346.303 344.46 346.521 344.342C346.739 344.223 346.987 344.161 347.239 344.162C347.491 344.164 347.738 344.228 347.955 344.349L369.972 356.262C370.697 356.657 371.28 357.25 371.643 357.962L375.92 355.666C375.549 355.029 374.998 354.501 374.328 354.14Z" fill="white"/>
<path opacity="0.2" d="M371.643 357.962C371.956 358.521 372.123 359.142 372.13 359.774V383.599C372.13 383.836 372.065 384.069 371.94 384.275C371.815 384.481 371.635 384.652 371.418 384.771C371.2 384.891 370.953 384.954 370.702 384.955C370.45 384.956 370.203 384.895 369.985 384.778C370.621 385.152 371.35 385.361 372.1 385.384C372.849 385.407 373.591 385.242 374.252 384.907C374.912 384.572 375.466 384.078 375.858 383.476C376.251 382.873 376.467 382.184 376.486 381.477V357.652C376.481 356.955 376.286 356.271 375.92 355.666L371.643 357.962Z" fill="white"/>
<path d="M347.955 344.349L369.972 356.262C370.629 356.615 371.174 357.126 371.554 357.743C371.933 358.36 372.132 359.061 372.13 359.774V383.599C372.131 383.836 372.065 384.069 371.94 384.275C371.815 384.481 371.635 384.652 371.418 384.771C371.201 384.891 370.954 384.954 370.702 384.955C370.451 384.957 370.203 384.895 369.985 384.778L347.968 372.915C347.31 372.56 346.764 372.046 346.385 371.427C346.005 370.808 345.807 370.105 345.81 369.391V345.516C345.807 345.278 345.872 345.044 345.997 344.838C346.122 344.632 346.303 344.46 346.521 344.342C346.739 344.223 346.987 344.161 347.239 344.162C347.491 344.164 347.738 344.228 347.955 344.349Z" fill="#6C64C4"/>
<path d="M377.433 372.679L372.169 373.61V367.207L377.644 372.084C377.694 372.129 377.73 372.187 377.747 372.251C377.763 372.315 377.761 372.382 377.739 372.444C377.717 372.506 377.676 372.562 377.622 372.603C377.568 372.645 377.503 372.671 377.433 372.679Z" fill="#6C64C4"/>
<path d="M372.143 367.207L376.486 364.861L381.961 369.825C382.001 369.863 382.03 369.909 382.048 369.959C382.066 370.01 382.072 370.064 382.064 370.116C382.056 370.169 382.036 370.22 382.004 370.264C381.973 370.308 381.931 370.345 381.882 370.371L377.552 372.654L372.143 367.207Z" fill="#6C64C4"/>
<path opacity="0.2" d="M372.143 367.207L376.486 364.861L381.961 369.825C382.001 369.863 382.03 369.909 382.048 369.959C382.066 370.01 382.072 370.064 382.064 370.116C382.056 370.169 382.036 370.22 382.004 370.264C381.973 370.308 381.931 370.345 381.882 370.371L377.552 372.654L372.143 367.207Z" fill="white"/>
<path d="M356.259 371.029C356.542 372.392 357.378 373.598 358.588 374.392H358.693C359.891 375.037 361.062 374.714 361.207 373.659L356.259 371.029Z" fill="white"/>
<path d="M352.798 365.556C353.188 364.948 353.406 364.256 353.429 363.546C353.508 362.491 353.535 361.424 353.574 360.344C353.653 358.148 354.587 357.006 356.404 356.907C356.838 356.907 356.93 356.746 356.864 356.163C356.746 355.207 357.035 354.649 357.72 354.537C358.084 354.483 358.458 354.553 358.772 354.736C359.193 354.982 359.556 355.307 359.838 355.691C360.151 356.043 360.386 356.451 360.531 356.89C360.676 357.328 360.726 357.79 360.681 358.247C360.625 358.473 360.637 358.709 360.716 358.928C360.795 359.147 360.938 359.341 361.128 359.488C362.5 361.001 363.409 362.837 363.76 364.799C363.844 365.45 363.884 366.105 363.878 366.76C363.862 367.906 363.941 369.051 364.115 370.185C364.294 371.397 364.743 372.56 365.431 373.597C365.671 373.911 365.796 374.29 365.787 374.677C365.787 375.235 365.55 375.372 365.01 375.086L358.654 371.624L353.535 368.832L352.877 368.472L352.205 368.1C351.946 367.956 351.746 367.733 351.64 367.467C351.429 366.996 351.521 366.388 351.837 366.226C352.226 366.108 352.564 365.873 352.798 365.556ZM357.667 365.432L359.812 366.599L360.365 361.337L357.154 359.587L357.667 365.432ZM358.733 369.602C359.654 370.098 360.299 369.75 360.299 368.907C360.268 368.42 360.108 367.948 359.835 367.534C359.561 367.12 359.183 366.777 358.733 366.536C357.812 366.028 357.167 366.338 357.167 367.194C357.2 367.685 357.359 368.162 357.632 368.581C357.905 369.001 358.283 369.351 358.733 369.602ZM358.733 356.15C358.669 356.102 358.59 356.073 358.508 356.067C358.426 356.061 358.344 356.079 358.273 356.118C358.202 356.157 358.145 356.215 358.11 356.285C358.074 356.355 358.062 356.433 358.075 356.51C358.09 356.722 358.157 356.928 358.271 357.111C358.386 357.294 358.544 357.449 358.733 357.565C359.075 357.751 359.365 357.565 359.365 357.205C359.357 356.991 359.295 356.782 359.182 356.596C359.07 356.41 358.911 356.253 358.72 356.138" fill="white"/>
<path d="M339.019 403.515L336.506 378.598L332.873 342.711C332.581 339.84 331.669 337.056 330.193 334.529C328.718 332.003 326.71 329.787 324.293 328.019L246.858 271.471L242.621 256.581C242.457 256 242.166 255.459 241.765 254.992C241.715 254.929 241.658 254.87 241.594 254.819C237.646 250.277 232.224 246.418 225.355 246.356H224.986C224.608 246.355 224.231 246.406 223.868 246.504C223.489 246.598 223.126 246.74 222.789 246.926L147.605 287.876C147.075 288.171 146.569 288.503 146.091 288.869C145.617 289.224 145.176 289.619 144.775 290.048C144.392 290.474 144.048 290.931 143.749 291.413C143.445 291.896 143.185 292.402 142.972 292.927C142.775 293.411 142.616 293.909 142.498 294.416C142.377 294.921 142.302 295.436 142.275 295.954C142.235 296.467 142.235 296.981 142.275 297.493C142.331 298.021 142.432 298.544 142.577 299.057L157.54 351.621L151.118 347.998L123.482 417.165C124.508 419.548 127.114 418.22 127.114 418.22L135.102 402.411C135.5 401.621 136.066 400.917 136.767 400.344C137.467 399.771 138.285 399.341 139.171 399.081C140.056 398.821 140.989 398.737 141.91 398.833C142.832 398.93 143.722 399.206 144.525 399.644L228.987 445.569C231.279 446.812 233.25 448.518 234.759 450.565C236.267 452.612 237.276 454.949 237.712 457.408L238.791 463.414H244.055L243.805 460.932C243.481 457.711 244.145 454.471 245.717 451.596C247.29 448.72 249.705 446.332 252.675 444.713L325.688 405.079C326.48 404.649 327.37 404.406 328.283 404.369C329.197 404.333 330.106 404.505 330.933 404.87C331.761 405.235 332.483 405.783 333.039 406.468C333.594 407.152 333.966 407.953 334.124 408.802L338.072 430.877C338.635 431.219 339.303 431.374 339.97 431.318C340.638 431.262 341.266 430.998 341.756 430.567L339.019 403.515ZM316.989 335.378C318.373 336.164 319.559 337.223 320.468 338.483C321.377 339.742 321.986 341.172 322.253 342.674L327.004 369.242C326.629 368.733 326.139 368.309 325.569 368.001L264.506 334.497C264.482 333.767 264.367 333.042 264.164 332.337L255.07 300.397L316.989 335.378ZM157.659 352.031L161.37 365.085L156.106 367.976C155.226 368.445 154.55 369.192 154.198 370.086C152.013 373.883 151.237 382.333 154.014 388.054L152 386.974C149.834 385.817 148.192 383.954 147.382 381.735C146.573 379.515 146.652 377.093 147.605 374.925L149.605 370.396L157.659 352.031ZM329.294 382.519V382.097L329.36 382.457L329.294 382.519Z" fill="#455A64"/>
<path d="M224.315 432.714L150.513 392.012C148.175 390.72 146.412 388.674 145.551 386.251C144.69 383.828 144.788 381.193 145.828 378.834L149.552 370.396L147.552 374.925C146.599 377.093 146.52 379.515 147.33 381.734C148.139 383.954 149.782 385.817 151.948 386.974L232.225 429.797C231.991 430.538 231.582 431.218 231.027 431.786C230.473 432.355 229.788 432.796 229.025 433.078C228.263 433.359 227.442 433.472 226.626 433.409C225.809 433.346 225.019 433.108 224.315 432.714Z" fill="#37474F"/>
<path d="M151.144 348.109L157.725 351.832L149.539 370.445L145.815 378.884C144.775 381.243 144.676 383.878 145.538 386.301C146.399 388.723 148.162 390.77 150.5 392.062L224.302 432.763C225.005 433.155 225.794 433.391 226.609 433.453C227.424 433.515 228.243 433.401 229.004 433.12C229.765 432.839 230.448 432.398 231.001 431.831C231.555 431.264 231.964 430.586 232.198 429.847L237.462 432.639L336.505 378.598L339.703 410.241L334.505 410.973L334.123 408.826C333.966 407.978 333.594 407.177 333.038 406.493C332.483 405.808 331.761 405.26 330.933 404.895C330.105 404.53 329.196 404.358 328.283 404.394C327.37 404.431 326.48 404.674 325.688 405.104L252.675 444.713C249.695 446.33 247.272 448.721 245.695 451.602C244.117 454.482 243.452 457.73 243.779 460.957L244.029 463.438H238.765L237.686 457.432C237.25 454.974 236.241 452.637 234.732 450.59C233.224 448.543 231.252 446.837 228.961 445.594L144.604 399.78C143.801 399.343 142.911 399.067 141.989 398.97C141.068 398.873 140.135 398.957 139.25 399.217C138.364 399.477 137.546 399.907 136.845 400.481C136.145 401.054 135.579 401.757 135.181 402.547L127.193 418.357C127.193 418.357 124.561 419.684 123.561 417.302L151.144 348.109Z" fill="#455A64"/>
<path d="M244.99 270.094L324.293 328.019C326.71 329.787 328.718 332.003 330.193 334.529C331.669 337.056 332.581 339.84 332.873 342.711L341.756 430.592C341.266 431.022 340.638 431.287 339.97 431.343C339.303 431.399 338.635 431.244 338.072 430.902L322.279 342.674C322.012 341.172 321.403 339.742 320.494 338.483C319.586 337.223 318.399 336.164 317.015 335.378L246.924 295.768C237.738 290.618 236.133 272.414 244.99 270.094Z" fill="#455A64"/>
<path opacity="0.3" d="M244.99 270.094L324.293 328.019C326.71 329.787 328.718 332.003 330.193 334.529C331.669 337.056 332.581 339.84 332.873 342.711L341.756 430.592C341.266 431.022 340.638 431.287 339.97 431.343C339.303 431.399 338.635 431.244 338.072 430.902L322.279 342.674C322.012 341.172 321.403 339.742 320.494 338.483C319.586 337.223 318.399 336.164 317.015 335.378L246.924 295.768C237.738 290.618 236.133 272.414 244.99 270.094Z" fill="white"/>
<path d="M154.145 370.086C154.498 369.192 155.173 368.445 156.053 367.976L235.567 324.693C237.248 323.773 239.157 323.288 241.101 323.288C243.045 323.288 244.954 323.773 246.635 324.693L325.596 367.951C326.479 368.427 327.155 369.184 327.504 370.086C329.767 374.032 330.531 382.991 327.372 388.699C326.956 389.445 326.333 390.072 325.569 390.511L246.095 433.793C244.413 434.71 242.504 435.193 240.561 435.193C238.618 435.193 236.709 434.71 235.027 433.793L156.066 390.536C155.29 390.108 154.67 389.467 154.29 388.699C151.118 382.991 151.881 374.032 154.145 370.086Z" fill="#6C64C4"/>
<path opacity="0.3" d="M154.145 370.086C154.498 369.192 155.173 368.445 156.053 367.976L235.567 324.693C237.248 323.773 239.157 323.288 241.101 323.288C243.045 323.288 244.954 323.773 246.635 324.693L325.596 367.951C326.479 368.427 327.155 369.184 327.504 370.086C329.767 374.032 330.531 382.991 327.372 388.699C326.956 389.445 326.333 390.072 325.569 390.511L246.095 433.793C244.413 434.71 242.504 435.193 240.561 435.193C238.618 435.193 236.709 434.71 235.027 433.793L156.066 390.536C155.29 390.108 154.67 389.467 154.29 388.699C151.118 382.991 151.881 374.032 154.145 370.086Z" fill="white"/>
<path opacity="0.3" d="M154.145 370.086C153.767 371.01 153.75 372.03 154.098 372.965C154.445 373.899 155.133 374.686 156.04 375.186L235.001 418.444C236.683 419.361 238.592 419.844 240.535 419.844C242.478 419.844 244.387 419.361 246.069 418.444L325.582 375.149C326.489 374.658 327.18 373.879 327.532 372.951C327.884 372.023 327.874 371.007 327.504 370.086C329.767 374.032 330.531 382.991 327.372 388.699C326.956 389.446 326.333 390.072 325.569 390.511L246.095 433.794C244.413 434.711 242.504 435.194 240.561 435.194C238.618 435.194 236.709 434.711 235.027 433.794L156.066 390.536C155.29 390.108 154.67 389.468 154.29 388.699C151.118 382.991 151.881 374.032 154.145 370.086Z" fill="black"/>
<path d="M147.578 287.888L222.762 246.939C223.43 246.572 224.187 246.376 224.96 246.368H225.328C232.198 246.43 237.581 250.289 241.568 254.831C241.632 254.883 241.689 254.941 241.739 255.005C242.14 255.471 242.431 256.013 242.595 256.593L264.164 332.288C264.804 334.438 264.67 336.728 263.782 338.799C262.893 340.869 261.301 342.603 259.255 343.729L184.084 384.678C183.288 385.113 182.37 385.308 181.452 385.237C172.846 384.393 167.779 379.38 165.239 376.737C164.757 376.229 164.41 375.621 164.226 374.962L142.656 299.267C142.033 297.124 142.178 294.847 143.068 292.79C143.958 290.732 145.543 289.009 147.578 287.888Z" fill="#6C64C4"/>
<path opacity="0.2" d="M147.578 287.888L222.762 246.939C223.43 246.572 224.187 246.376 224.96 246.368H225.328C232.198 246.43 237.581 250.289 241.568 254.831C241.632 254.883 241.689 254.941 241.739 255.005C242.14 255.471 242.431 256.013 242.595 256.593L264.164 332.288C264.804 334.438 264.67 336.728 263.782 338.799C262.893 340.869 261.301 342.603 259.255 343.729L184.084 384.678C183.288 385.113 182.37 385.308 181.452 385.237C172.846 384.393 167.779 379.38 165.239 376.737C164.757 376.229 164.41 375.621 164.226 374.962L142.656 299.267C142.033 297.124 142.178 294.847 143.068 292.79C143.958 290.732 145.543 289.009 147.578 287.888Z" fill="white"/>
<path opacity="0.1" d="M147.578 287.888L222.762 246.939C223.43 246.572 224.187 246.376 224.96 246.368H225.328C232.198 246.43 237.581 250.289 241.568 254.831C240.867 254.107 239.925 253.632 238.898 253.483C237.871 253.334 236.821 253.521 235.922 254.012L160.738 294.962C158.601 296.133 156.959 297.965 156.093 300.148L142.933 293.001C143.816 290.846 145.455 289.042 147.578 287.888Z" fill="black"/>
<path opacity="0.2" d="M156.093 300.086C155.287 302.069 155.172 304.242 155.764 306.291L177.333 381.986C177.576 382.846 178.097 383.614 178.823 384.183C179.549 384.752 180.445 385.095 181.386 385.162C172.78 384.319 167.713 379.305 165.173 376.662C164.691 376.155 164.344 375.547 164.16 374.888L142.59 299.193C142.011 297.141 142.135 294.969 142.946 292.989L156.093 300.086Z" fill="black"/>
<path d="M313.988 424.859C313.113 429.206 312.615 433.614 312.501 438.037L309.264 436.796C307.695 436.229 305.982 436.113 304.343 436.462C302.704 436.811 301.211 437.609 300.052 438.757L299.894 438.918C299.304 439.505 298.496 439.853 297.64 439.89C296.783 439.927 295.945 439.65 295.301 439.117C294.957 438.835 294.678 438.489 294.483 438.1C294.288 437.711 294.181 437.288 294.169 436.858L293.722 423.606L313.988 424.859Z" fill="#FFA8A7"/>
<path d="M301.25 474.085C308.093 480.997 320.713 487.04 329.873 481.146L328.846 483.342C319.634 489.237 307.066 483.193 300.223 476.294C293.38 469.395 297.815 464.592 291.656 458.462C289.33 456.372 287.512 453.832 286.326 451.017C286.602 450.359 286.852 449.491 287.181 448.535C288.511 451.412 290.373 454.043 292.682 456.303C298.841 462.396 294.393 467.186 301.25 474.085Z" fill="white"/>
<path d="M290.55 441.276C291.61 439.863 292.346 438.257 292.708 436.561C292.771 436.172 292.92 435.8 293.147 435.471C293.374 435.141 293.673 434.861 294.024 434.65L294.103 436.871C294.122 437.489 294.335 438.088 294.714 438.592C295.094 439.096 295.623 439.483 296.236 439.704C296.849 439.924 297.517 439.968 298.156 439.831C298.796 439.693 299.377 439.38 299.828 438.931L299.986 438.769C301.145 437.622 302.638 436.823 304.277 436.474C305.917 436.126 307.629 436.242 309.198 436.809L312.554 438.05C313.048 438.232 313.472 438.552 313.771 438.966C314.069 439.38 314.227 439.869 314.225 440.37C314.002 449.429 318.489 461.465 323.201 468.067C328.043 469.966 332.215 476.182 330.083 480.737L329.873 481.196C320.661 487.09 308.093 481.047 301.249 474.135C294.406 467.223 298.841 462.446 292.682 456.316C290.373 454.055 288.51 451.425 287.181 448.548C287.94 445.988 289.074 443.54 290.55 441.276Z" fill="#6C64C4"/>
<path opacity="0.2" d="M290.55 441.276C291.61 439.863 292.346 438.257 292.708 436.561C292.771 436.172 292.92 435.8 293.147 435.471C293.374 435.141 293.673 434.861 294.024 434.65L294.103 436.871C294.122 437.489 294.335 438.088 294.714 438.592C295.094 439.096 295.623 439.483 296.236 439.704C296.849 439.924 297.517 439.968 298.156 439.831C298.796 439.693 299.377 439.38 299.828 438.931L299.986 438.769C301.145 437.622 302.638 436.823 304.277 436.474C305.917 436.126 307.629 436.242 309.198 436.809L312.554 438.05C313.048 438.232 313.472 438.552 313.771 438.966C314.069 439.38 314.227 439.869 314.225 440.37C314.002 449.429 318.489 461.465 323.201 468.067C328.043 469.966 332.215 476.182 330.083 480.737L329.873 481.196C320.661 487.09 308.093 481.047 301.249 474.135C294.406 467.223 298.841 462.446 292.682 456.316C290.373 454.055 288.51 451.425 287.181 448.548C287.94 445.988 289.074 443.54 290.55 441.276Z" fill="white"/>
<path d="M304 454.355C303.863 454.419 303.715 454.456 303.563 454.466C303.411 454.475 303.259 454.457 303.114 454.41C302.97 454.364 302.837 454.292 302.722 454.197C302.608 454.102 302.514 453.987 302.447 453.859C302.376 453.733 302.332 453.596 302.317 453.454C302.302 453.313 302.317 453.17 302.361 453.033C302.405 452.897 302.477 452.771 302.573 452.661C302.669 452.551 302.787 452.461 302.921 452.394C304.928 451.323 307.195 450.76 309.501 450.76C311.807 450.76 314.074 451.323 316.081 452.394C316.278 453.102 316.502 453.809 316.726 454.516C314.801 453.452 312.617 452.877 310.386 452.849C308.155 452.82 305.954 453.339 304 454.355Z" fill="white"/>
<path d="M302.276 449.453C302 449.588 301.679 449.614 301.383 449.526C301.087 449.438 300.84 449.242 300.697 448.982C300.554 448.722 300.526 448.419 300.62 448.14C300.713 447.86 300.921 447.628 301.197 447.493C303.299 446.41 305.66 445.852 308.055 445.872C310.451 445.891 312.801 446.488 314.883 447.604C315.015 448.337 315.186 449.081 315.357 449.826C311.356 447.84 307.329 447.046 302.276 449.453Z" fill="white"/>
<path d="M305.803 459.232C305.527 459.357 305.209 459.375 304.919 459.282C304.629 459.19 304.388 458.993 304.25 458.735C304.111 458.48 304.083 458.183 304.175 457.909C304.266 457.635 304.468 457.406 304.737 457.271C306.697 456.229 308.905 455.671 311.155 455.649C313.406 455.627 315.625 456.143 317.607 457.147C317.897 457.916 318.2 458.661 318.516 459.405C316.594 458.341 314.412 457.765 312.184 457.735C309.955 457.705 307.756 458.22 305.803 459.232Z" fill="white"/>
<path d="M323.2 468.017C328.043 469.916 332.215 476.133 330.083 480.687L329.872 481.146C320.845 486.953 308.487 481.146 301.565 474.396C307.329 463.736 319.384 466.392 323.2 468.017Z" fill="white"/>
<path d="M307.829 463.984C307.693 464.048 307.544 464.086 307.392 464.095C307.24 464.105 307.088 464.086 306.944 464.04C306.799 463.994 306.666 463.921 306.552 463.827C306.437 463.732 306.344 463.617 306.276 463.488C306.139 463.234 306.112 462.939 306.201 462.666C306.289 462.393 306.486 462.163 306.75 462.024C308.719 460.982 310.935 460.427 313.192 460.409C315.449 460.392 317.674 460.913 319.66 461.924C320.068 462.768 320.489 463.575 320.976 464.406C316.923 462.371 312.896 461.614 307.829 463.984Z" fill="white"/>
<path d="M328.386 451.191C329.436 455.483 330.858 459.687 332.637 463.761L329.123 463.947C327.45 464.03 325.841 464.578 324.497 465.52C323.153 466.463 322.134 467.759 321.569 469.246L321.49 469.444C321.2 470.204 320.609 470.829 319.841 471.188C319.073 471.546 318.188 471.611 317.371 471.368C316.935 471.244 316.532 471.035 316.188 470.755C315.843 470.475 315.565 470.13 315.37 469.742L309.264 457.78L328.386 451.191Z" fill="#FFA8A7"/>
<path d="M337.808 501.087C347.021 504.81 361.155 505.53 367.011 496.645V499.052C361.155 507.924 347.034 507.205 337.808 503.494C328.583 499.784 330.597 493.704 322.332 490.44C319.308 489.405 316.556 487.767 314.265 485.638C314.265 484.931 314.107 484.05 313.975 483.02C316.424 485.148 319.253 486.849 322.332 488.045C330.597 491.309 328.583 497.377 337.808 501.087Z" fill="white"/>
<path d="M313.975 475.14C314.355 473.446 314.355 471.696 313.975 470.003C313.869 469.618 313.851 469.216 313.924 468.824C313.997 468.432 314.158 468.06 314.396 467.732L315.423 469.742C315.617 470.13 315.895 470.475 316.24 470.755C316.584 471.035 316.987 471.244 317.423 471.368C318.24 471.611 319.125 471.546 319.893 471.188C320.661 470.829 321.252 470.204 321.542 469.444L321.621 469.246C322.187 467.759 323.205 466.463 324.549 465.52C325.893 464.578 327.502 464.03 329.175 463.947L332.755 463.761C333.285 463.743 333.809 463.877 334.258 464.145C334.707 464.413 335.059 464.802 335.268 465.262C338.953 473.626 348.205 482.92 355.337 487.189C360.601 487.065 367.063 491.172 367.063 496.148V496.645C361.207 505.53 347.086 504.797 337.861 501.087C328.635 497.377 330.649 491.309 322.384 488.045C319.305 486.849 316.476 485.148 314.028 483.02C313.624 480.408 313.606 477.756 313.975 475.14Z" fill="#6C64C4"/>
<path opacity="0.2" d="M313.975 475.14C314.355 473.446 314.355 471.696 313.975 470.003C313.869 469.618 313.851 469.216 313.924 468.824C313.997 468.432 314.158 468.06 314.396 467.732L315.423 469.742C315.617 470.13 315.895 470.475 316.24 470.755C316.584 471.035 316.987 471.244 317.423 471.368C318.24 471.611 319.125 471.546 319.893 471.188C320.661 470.829 321.252 470.204 321.542 469.444L321.621 469.246C322.187 467.759 323.205 466.463 324.549 465.52C325.893 464.578 327.502 464.03 329.175 463.947L332.755 463.761C333.285 463.743 333.809 463.877 334.258 464.145C334.707 464.413 335.059 464.802 335.268 465.262C338.953 473.626 348.205 482.92 355.337 487.189C360.601 487.065 367.063 491.172 367.063 496.148V496.645C361.207 505.53 347.086 504.797 337.861 501.087C328.635 497.377 330.649 491.309 322.384 488.045C319.305 486.849 316.476 485.148 314.028 483.02C313.624 480.408 313.606 477.756 313.975 475.14Z" fill="white"/>
<path d="M331.834 482.002C331.638 482.231 331.354 482.377 331.045 482.409C330.735 482.44 330.425 482.354 330.182 482.17C329.939 481.985 329.784 481.718 329.751 481.426C329.718 481.134 329.809 480.841 330.004 480.612C331.393 478.879 333.232 477.512 335.343 476.643C337.454 475.774 339.767 475.431 342.059 475.649C342.546 476.232 343.046 476.79 343.559 477.349C341.345 477.101 339.1 477.4 337.045 478.216C334.99 479.031 333.194 480.336 331.834 482.002Z" fill="white"/>
<path d="M328.189 478.155C327.985 478.35 327.712 478.467 327.422 478.483C327.132 478.499 326.846 478.412 326.62 478.241C326.394 478.069 326.243 477.825 326.198 477.554C326.152 477.284 326.214 477.007 326.372 476.778C327.83 474.985 329.75 473.573 331.95 472.678C334.15 471.783 336.557 471.435 338.94 471.666C339.388 472.286 339.848 472.906 340.322 473.514C335.821 473.217 331.794 474.023 328.189 478.155Z" fill="white"/>
<path d="M335.584 485.75C335.38 485.945 335.107 486.061 334.817 486.077C334.527 486.093 334.242 486.007 334.016 485.835C333.789 485.664 333.639 485.419 333.593 485.149C333.547 484.878 333.61 484.602 333.768 484.372C335.123 482.683 336.907 481.342 338.957 480.475C341.006 479.607 343.254 479.241 345.494 479.409C346.086 480.004 346.691 480.575 347.297 481.134C345.088 480.883 342.848 481.176 340.795 481.985C338.742 482.794 336.947 484.091 335.584 485.75Z" fill="white"/>
<path d="M355.325 487.189C360.589 487.065 367.05 491.172 367.05 496.148V496.645C361.273 505.331 347.494 504.81 338.269 501.248C338.94 489.299 351.1 487.139 355.325 487.189Z" fill="white"/>
<path d="M339.532 489.336C339.335 489.553 339.056 489.689 338.754 489.715C338.452 489.742 338.151 489.657 337.914 489.479C337.677 489.3 337.522 489.042 337.483 488.758C337.444 488.475 337.523 488.188 337.703 487.958C339.062 486.263 340.853 484.919 342.91 484.052C344.966 483.184 347.223 482.82 349.468 482.995C350.205 483.615 350.929 484.236 351.666 484.744C347.126 484.397 343.099 485.191 339.532 489.336Z" fill="white"/>
<path d="M274.192 338.058L320.371 362.342C324.556 364.54 327.903 367.922 329.941 372.009C331.979 376.097 332.604 380.685 331.728 385.125L322.766 430.592L330.123 452.605C323.74 460.634 309.264 461.043 309.264 461.043C301.144 445.694 295.183 439.166 290.577 426.298C285.971 413.43 282.852 404.533 282.852 404.533L244.503 394.606C235.733 392.359 227.879 387.684 221.955 381.185C216.032 374.686 212.311 366.661 211.273 358.148C210.629 352.688 210.589 348.953 210.589 348.953L274.192 338.058Z" fill="#455A64"/>
<path d="M274.192 338.058L320.371 362.342C324.556 364.54 327.903 367.922 329.941 372.009C331.979 376.097 332.604 380.685 331.728 385.125L322.766 430.592L330.123 452.605C323.74 460.634 309.264 461.043 309.264 461.043C301.144 445.694 295.183 439.166 290.577 426.298C285.971 413.43 282.852 404.533 282.852 404.533L244.503 394.606C235.733 392.359 227.879 387.684 221.955 381.185C216.032 374.686 212.311 366.661 211.273 358.148C210.629 352.688 210.589 348.953 210.589 348.953L274.192 338.058Z" fill="#37474F"/>
<path opacity="0.2" d="M273.85 350.293C273.85 355.159 272.022 359.867 268.691 363.583L301.262 382.817C306.046 385.636 309.589 389.99 311.238 395.077L322.766 430.592L312.37 390.995C311.172 386.438 308.13 382.505 303.894 380.038L273.81 362.516C276.89 355.282 273.85 350.293 273.85 350.293Z" fill="black"/>
<path d="M269.204 263.269H270.389C278.364 263.343 288.458 268.468 293.393 281.585L312.554 316.578L290.682 325.723L278.706 292.703L269.204 263.269Z" fill="#6C64C4"/>
<g opacity="0.2">
<path d="M269.204 263.269H270.389C278.364 263.343 288.458 268.468 293.393 281.585L312.554 316.578L290.682 325.723L278.706 292.703L269.204 263.269Z" fill="black"/>
</g>
<path opacity="0.2" d="M284.562 286.486C286.089 290.619 286.181 295.073 286.431 299.454C286.681 303.834 287.207 309.096 289.326 312.992C291.665 311.457 294.469 310.679 297.317 310.775C300.164 310.871 302.902 311.836 305.118 313.526C306.703 314.784 307.922 316.403 308.658 318.229L290.708 325.736L278.732 292.716L272.85 274.499C275.547 275.665 277.972 277.325 279.983 279.383C281.994 281.441 283.551 283.856 284.562 286.486Z" fill="black"/>
<path d="M290.471 319.42C291.31 317.476 292.657 315.764 294.388 314.444C296.119 313.125 298.176 312.241 300.368 311.875C302.653 311.658 304.96 311.975 307.086 312.797C309.211 313.62 311.089 314.922 312.554 316.59C314.936 319.308 314.567 322.994 313.054 326.22C311.794 328.729 309.652 330.748 306.991 331.936C304.331 333.124 301.316 333.406 298.459 332.735C292.814 331.246 288.339 324.582 290.471 319.42Z" fill="#6C64C4"/>
<g opacity="0.2">
<path d="M290.471 319.42C291.31 317.476 292.657 315.764 294.388 314.444C296.119 313.125 298.176 312.241 300.368 311.875C302.653 311.658 304.96 311.975 307.086 312.797C309.211 313.62 311.089 314.922 312.554 316.59C314.936 319.308 314.567 322.994 313.054 326.22C311.794 328.729 309.652 330.748 306.991 331.936C304.331 333.124 301.316 333.406 298.459 332.735C292.814 331.246 288.339 324.582 290.471 319.42Z" fill="black"/>
</g>
<path d="M209.852 352.415C218.051 359.861 257.386 361.188 277.456 343.17C275.534 330.451 276.14 316.826 277.456 303.35C278.772 289.874 287.089 266.309 271.139 263.567C249.833 259.646 239.081 263.257 221.683 267.525C206.483 291.4 208.575 327.138 209.852 352.415Z" fill="#6C64C4"/>
<path opacity="0.2" d="M209.852 352.415C218.051 359.861 257.386 361.188 277.456 343.17C275.534 330.451 276.14 316.826 277.456 303.35C278.772 289.874 287.089 266.309 271.139 263.567C249.833 259.646 239.081 263.257 221.683 267.525C206.483 291.4 208.575 327.138 209.852 352.415Z" fill="black"/>
<path opacity="0.2" d="M233.132 325.897C232.29 312.644 233.132 290.097 228.513 283.508L215.827 279.202C208.036 299.54 208.483 324.681 209.457 345.069C218.004 349.711 227.364 352.871 237.093 354.401C241.147 355.108 245.24 355.641 249.346 355.952C259.65 353.941 269.902 349.909 277.429 343.146C277.166 341.446 276.969 339.708 276.798 337.971C266.863 337.447 257.049 335.66 247.622 332.66C245.864 330.617 243.66 328.955 241.16 327.787C238.659 326.62 235.921 325.976 233.132 325.897Z" fill="black"/>
<path opacity="0.15" d="M267.902 351.522C267.902 351.522 267.902 351.522 267.902 351.46C267.902 351.398 267.902 351.46 267.902 351.385V351.323V351.249C267.902 351.249 267.902 351.249 267.902 351.174V351.112L282.22 325.984L284.194 328.106L269.876 353.234C269.785 353.375 269.722 353.531 269.691 353.693C269.677 353.74 269.675 353.79 269.686 353.838C269.698 353.886 269.722 353.93 269.757 353.966L267.783 351.857V351.758C267.783 351.758 267.783 351.696 267.783 351.671L267.902 351.522Z" fill="white"/>
<path opacity="0.2" d="M282.456 325.823V325.748V325.674V325.599V325.513V325.438V325.351L282.522 325.277V325.202V325.128V325.066L282.733 324.892H282.799H282.878H282.97H283.062H283.154L299.617 316.206H299.709H299.802H299.894H299.986H300.065H300.157H300.236H300.328H300.42H300.723C300.769 316.205 300.816 316.214 300.859 316.231C300.902 316.248 300.941 316.273 300.973 316.305L302.934 318.427C302.855 318.328 302.684 318.303 302.447 318.353C302.129 318.43 301.824 318.547 301.539 318.7L285.075 327.386C284.751 327.562 284.439 327.757 284.141 327.97C283.825 328.205 283.522 328.441 283.233 328.702C282.957 328.947 282.697 329.208 282.456 329.483C282.252 329.715 282.071 329.964 281.917 330.228L279.943 328.106L282.456 325.823Z" fill="white"/>
<path d="M290.734 335.378C290.734 335.378 280.338 340.341 275.732 337.611L278.166 333.343C271.624 333.247 265.249 335.29 260.124 339.125C250.293 337.429 240.695 334.695 231.514 330.972L228.25 329.732L211.708 342.699C222.986 349.586 276.192 354.301 281.72 351.087C287.247 347.873 291.484 341.495 290.734 335.378Z" fill="#FFA8A7"/>
<path d="M301.973 322.733C302.322 324.368 302.525 326.029 302.579 327.696C302.153 331.702 300.351 335.467 297.446 338.418C296.842 339.064 296.085 339.566 295.235 339.882C294.811 340.03 294.352 340.073 293.905 340.006C293.458 339.938 293.037 339.763 292.682 339.497C292.062 338.806 291.743 337.92 291.787 337.016C291.648 335.659 291.728 334.291 292.024 332.958C292.319 331.611 293.123 330.411 294.288 329.583C295.193 329.063 296.161 328.647 297.17 328.342C298.156 327.952 299.035 327.353 299.736 326.592L301.973 322.733Z" fill="#FFA8A7"/>
<path d="M228.25 329.694L228.75 287.752C228.817 282.084 227.34 276.496 224.46 271.521L221.683 267.538C219.469 267.746 217.345 268.474 215.506 269.655C213.667 270.837 212.171 272.434 211.155 274.3C207.308 280.532 205.525 287.705 206.035 294.899C206.035 294.899 204.285 338.132 211.708 342.662L228.25 329.694Z" fill="#6C64C4"/>
<path d="M239.357 331.407L228.25 329.694L211.708 342.662C216.564 346.198 228.197 349.995 235.87 351.77C238.22 352.313 240.682 352.257 243.002 351.609L244.318 351.249L246.858 335.043C244.82 333.124 242.198 331.853 239.357 331.407Z" fill="#6C64C4"/>
<g opacity="0.2">
<path d="M228.25 329.694L228.75 287.752C228.817 282.084 227.34 276.496 224.46 271.521L221.683 267.538C219.469 267.746 217.345 268.474 215.506 269.655C213.667 270.837 212.171 272.434 211.155 274.3C207.308 280.532 205.525 287.705 206.035 294.899C206.035 294.899 204.285 338.132 211.708 342.662L228.25 329.694Z" fill="black"/>
<path d="M239.357 331.407L228.25 329.694L211.707 342.661C216.563 346.198 228.197 349.995 235.869 351.77C238.22 352.313 240.682 352.257 243.002 351.608L244.318 351.248L246.858 335.042C244.82 333.124 242.198 331.853 239.357 331.407Z" fill="black"/>
</g>
<path d="M256.623 338.517C251.583 340.937 254.162 350.516 255.149 351.249L256.623 351.373C256.381 351.759 256.027 352.073 255.603 352.277C255.179 352.482 254.702 352.568 254.228 352.527C251.53 352.266 246.174 351.708 244.253 351.286C239.081 343.952 244.858 336.097 246.806 335.042C249.964 335.924 253.057 336.569 254.702 336.879C255.054 336.947 255.386 337.086 255.675 337.288C255.963 337.489 256.202 337.748 256.373 338.045L256.623 338.517Z" fill="#6C64C4"/>
<path opacity="0.3" d="M256.623 338.517C251.583 340.937 254.162 350.516 255.149 351.249L256.623 351.373C256.381 351.759 256.027 352.073 255.603 352.277C255.179 352.482 254.702 352.568 254.228 352.527C251.53 352.266 246.174 351.708 244.253 351.286C239.081 343.952 244.858 336.097 246.806 335.042C249.964 335.924 253.057 336.569 254.702 336.879C255.054 336.947 255.386 337.086 255.675 337.288C255.963 337.489 256.202 337.748 256.373 338.045L256.623 338.517Z" fill="black"/>
<path d="M237.593 265.106C237.23 265.768 237.029 266.499 237.006 267.244C236.984 267.99 237.139 268.731 237.462 269.411C238.13 270.768 239.11 271.968 240.331 272.923C243.963 275.951 248.54 277.784 253.372 278.147C255.977 278.428 258.613 277.997 260.966 276.906C262.13 276.34 263.125 275.507 263.858 274.483C264.592 273.46 265.041 272.279 265.164 271.049C265.124 269.608 264.657 268.205 263.815 267.001C262.973 265.797 261.79 264.839 260.4 264.237C257.591 263.099 254.515 262.671 251.477 262.996C248.634 263.355 245.765 263.505 242.897 263.443C240.923 263.17 238.738 263.257 237.593 265.106Z" fill="#6C64C4"/>
<path opacity="0.3" d="M237.593 265.106C237.23 265.768 237.029 266.499 237.006 267.244C236.984 267.99 237.139 268.731 237.462 269.411C238.13 270.768 239.11 271.968 240.331 272.923C243.963 275.951 248.54 277.784 253.372 278.147C255.977 278.428 258.613 277.997 260.966 276.906C262.13 276.34 263.125 275.507 263.858 274.483C264.592 273.46 265.041 272.279 265.164 271.049C265.124 269.608 264.657 268.205 263.815 267.001C262.973 265.797 261.79 264.839 260.4 264.237C257.591 263.099 254.515 262.671 251.477 262.996C248.634 263.355 245.765 263.505 242.897 263.443C240.923 263.17 238.738 263.257 237.593 265.106Z" fill="black"/>
<path d="M235.777 233.922L247.371 250.054H247.661L235.29 232.88C235.29 232.88 215.432 240.908 216.866 246.653C216.898 246.726 216.925 246.801 216.945 246.877L217.103 247.249C217.098 247.286 217.098 247.324 217.103 247.361L217.498 248.304C217.421 248.14 217.359 247.969 217.314 247.795C215.919 241.975 235.777 233.922 235.777 233.922Z" fill="#6C64C4"/>
<path opacity="0.1" d="M235.777 233.922L247.371 250.054H247.661L235.29 232.88C235.29 232.88 215.432 240.908 216.866 246.653C216.898 246.726 216.925 246.801 216.945 246.877L217.103 247.249C217.098 247.286 217.098 247.324 217.103 247.361L217.498 248.304C217.421 248.14 217.359 247.969 217.314 247.795C215.919 241.975 235.777 233.922 235.777 233.922Z" fill="black"/>
<path d="M247.411 250.029L235.817 233.897C235.817 233.897 215.958 241.938 217.393 247.671C217.438 247.845 217.5 248.016 217.577 248.18C220.656 255.129 248.174 251.071 248.174 251.071L247.411 250.029Z" fill="#6C64C4"/>
<path opacity="0.3" d="M247.411 250.029L235.817 233.897C235.817 233.897 215.958 241.938 217.393 247.671C217.438 247.845 217.5 248.016 217.577 248.18C220.656 255.129 248.174 251.071 248.174 251.071L247.411 250.029Z" fill="black"/>
<path d="M242.002 259.733C239.264 255.025 237.13 250.026 235.646 244.842C234.33 239.605 230.553 227.978 233.238 223.238C235.264 219.676 240.844 216.078 244.595 214.13C248.345 212.181 253.254 212.777 257.439 211.921C261.116 211.062 264.918 210.786 268.691 211.102C272.442 211.536 277.166 217.927 279.667 220.607C283.615 224.826 283.746 231.49 280.904 236.453C278.061 241.417 272.784 244.817 267.151 246.74C261.519 248.664 255.505 249.222 249.556 249.83C247.095 252.932 244.463 256.605 242.002 259.733Z" fill="#263238"/>
<path d="M273.521 208.31C267.678 203.346 258.847 202.353 251.149 204.264C244.634 205.89 237.08 207.789 233.317 212.951C229.553 218.113 231.461 225.459 231.895 232.805C238.693 227.688 246.742 224.258 255.307 222.828C256.321 222.655 257.36 222.53 258.413 222.431L257.9 220.024C257.75 219.338 257.757 218.63 257.922 217.948C258.087 217.265 258.405 216.624 258.856 216.068C259.306 215.511 259.878 215.052 260.533 214.722C261.187 214.392 261.91 214.198 262.651 214.154C263.831 214.092 265.015 214.117 266.191 214.229C267.827 214.388 269.37 215.024 270.604 216.05C271.838 217.075 272.701 218.439 273.074 219.949C273.337 221.066 273.6 222.195 273.85 223.213C276.763 223.696 279.634 224.376 282.444 225.248C280.522 219.205 278.509 212.554 273.521 208.31Z" fill="#455A64"/>
<path d="M272.889 219.44C267.929 218.384 262.799 218.24 257.781 219.018C257.778 219.356 257.813 219.693 257.887 220.024L258.4 222.431C263.559 222.033 268.752 222.296 273.837 223.213C273.587 222.195 273.324 221.066 273.06 219.949C273.008 219.775 272.942 219.639 272.889 219.44Z" fill="#37474F"/>
<path d="M260.887 258.107L260.124 266.123C260.094 266.747 260.263 267.366 260.611 267.898C261.08 268.733 261.259 269.686 261.125 270.623C260.99 271.56 260.548 272.434 259.861 273.122C258.769 273.914 257.434 274.349 256.057 274.363C253.469 274.494 250.88 274.108 248.461 273.232C246.041 272.355 243.845 271.007 242.015 269.275C241.647 268.91 241.36 268.479 241.17 268.009C240.981 267.538 240.892 267.036 240.91 266.533L241.463 246.207L260.887 258.107Z" fill="#FFA8A7"/>
<path d="M260.887 258.107L260.124 266.123C260.094 266.747 260.263 267.366 260.611 267.898C261.08 268.733 261.259 269.686 261.125 270.623C260.99 271.56 260.548 272.434 259.861 273.122C258.769 273.914 257.434 274.349 256.057 274.363C253.469 274.494 250.88 274.108 248.461 273.232C246.041 272.355 243.845 271.007 242.015 269.275C241.647 268.91 241.36 268.479 241.17 268.009C240.981 267.538 240.892 267.036 240.91 266.533L241.463 246.207L260.887 258.107Z" fill="#FFA8A7"/>
<path opacity="0.2" d="M247.793 262.09C249.937 263.832 252.544 264.99 255.333 265.441C256.985 265.656 258.667 265.499 260.242 264.981L260.887 258.119L241.463 246.182L241.265 253.627C242.647 256.924 244.892 259.835 247.793 262.09Z" fill="black"/>
<path d="M268.112 233.289C269.943 232.477 271.488 231.184 272.56 229.566C268.733 231.213 264.641 232.245 260.453 232.619C262.058 231.303 263.585 229.814 265.19 228.499C262.319 229.415 259.369 230.091 256.373 230.522C258.045 229.712 259.533 228.604 260.755 227.258C256.057 229.327 251.019 230.624 245.858 231.092C245.628 231.384 245.479 231.725 245.424 232.085L244.634 237.855C244.643 238.266 244.554 238.673 244.375 239.046C244.195 239.42 243.928 239.751 243.594 240.014C243.233 240.175 242.829 240.228 242.434 240.169C242.04 240.109 241.674 239.938 241.384 239.679C240.816 239.145 240.368 238.507 240.068 237.806C239.429 236.35 238.574 234.988 237.528 233.76C236.997 233.15 236.333 232.653 235.582 232.304C234.83 231.956 234.009 231.762 233.172 231.738C230.447 231.8 228.368 234.368 228.079 236.925C227.945 238.246 228.163 239.577 228.712 240.799C229.261 242.021 230.125 243.095 231.224 243.923C232.357 244.681 233.672 245.16 235.052 245.316C236.431 245.472 237.829 245.3 239.12 244.817C237.883 249.272 240.357 254.049 244.029 257.077C247.7 260.105 252.412 261.743 257.005 263.281C259.518 264.138 262.177 265.006 264.795 264.522C266.931 264.069 268.844 262.955 270.231 261.358C271.609 259.768 272.739 258.001 273.586 256.109C277.73 247.673 280.091 238.556 280.535 229.268C277.032 231.957 272.628 233.382 268.112 233.289Z" fill="#FFA8A7"/>
<path d="M264.69 242.372L268.533 251.952L261.808 252.027L264.69 242.372Z" fill="#F28F8F"/>
<path d="M254.36 253.875L261.414 256.618C260.873 257.385 260.083 257.966 259.162 258.273C258.241 258.58 257.239 258.595 256.307 258.318C254.583 257.697 253.991 255.625 254.36 253.875Z" fill="#F28F8F"/>
<path opacity="0.3" d="M254.36 253.875L261.414 256.618C260.873 257.385 260.083 257.966 259.162 258.273C258.241 258.58 257.239 258.595 256.307 258.318C254.583 257.697 253.991 255.625 254.36 253.875Z" fill="black"/>
<path d="M258.703 258.392C257.915 258.593 257.08 258.567 256.308 258.318C255.659 258.019 255.118 257.546 254.753 256.959C254.388 256.372 254.214 255.697 254.254 255.017C255.313 254.938 256.363 255.244 257.19 255.871C258.017 256.499 258.559 257.401 258.703 258.392Z" fill="#F28F8F"/>
<path d="M255.189 240.623C255.053 241.08 255.115 241.57 255.362 241.984C255.609 242.398 256.02 242.703 256.505 242.831C256.991 242.96 257.51 242.901 257.949 242.668C258.389 242.436 258.712 242.048 258.848 241.59C258.916 241.364 258.935 241.127 258.906 240.894C258.876 240.66 258.798 240.434 258.675 240.229C258.553 240.024 258.389 239.844 258.193 239.698C257.997 239.553 257.772 239.445 257.532 239.382C257.292 239.318 257.041 239.3 256.793 239.328C256.545 239.356 256.306 239.429 256.088 239.545C255.87 239.66 255.679 239.814 255.525 239.999C255.371 240.184 255.256 240.396 255.189 240.623Z" fill="#263238"/>
<path d="M270.349 243.613C270.213 244.071 270.276 244.56 270.522 244.975C270.769 245.389 271.181 245.694 271.666 245.822C272.151 245.95 272.67 245.892 273.11 245.659C273.549 245.426 273.873 245.039 274.009 244.581C274.076 244.355 274.096 244.118 274.066 243.884C274.036 243.651 273.958 243.425 273.836 243.22C273.714 243.015 273.55 242.834 273.354 242.689C273.157 242.543 272.933 242.436 272.692 242.372C272.452 242.309 272.201 242.29 271.953 242.318C271.705 242.346 271.466 242.42 271.248 242.535C271.031 242.65 270.839 242.805 270.685 242.99C270.531 243.175 270.417 243.387 270.349 243.613Z" fill="#263238"/>
<path d="M274.482 234.79L277.746 238.513C278.073 238.089 278.248 237.579 278.248 237.055C278.248 236.531 278.073 236.021 277.746 235.597C277.337 235.188 276.814 234.895 276.237 234.753C275.659 234.61 275.051 234.623 274.482 234.79Z" fill="#263238"/>
<path d="M257.676 231.837L252.833 233.413C252.789 232.894 252.919 232.375 253.205 231.93C253.491 231.485 253.918 231.135 254.426 230.931C255.003 230.78 255.614 230.785 256.189 230.945C256.763 231.105 257.279 231.414 257.676 231.837Z" fill="#263238"/>
<path d="M149.236 322.435L228.526 380.36C230.946 382.126 232.956 384.341 234.432 386.868C235.907 389.395 236.818 392.18 237.107 395.052L246.003 482.933C245.513 483.363 244.884 483.628 244.217 483.684C243.55 483.74 242.882 483.585 242.318 483.243L226.526 395.015C226.261 393.51 225.653 392.078 224.745 390.816C223.836 389.554 222.648 388.493 221.262 387.706L151.171 348.109C141.985 342.96 140.366 324.756 149.236 322.435Z" fill="#455A64"/>
<path opacity="0.3" d="M149.236 322.435L228.526 380.36C230.946 382.126 232.956 384.341 234.432 386.868C235.907 389.395 236.818 392.18 237.107 395.052L246.003 482.933C245.513 483.363 244.884 483.628 244.217 483.684C243.55 483.74 242.882 483.585 242.318 483.243L226.526 395.015C226.261 393.51 225.653 392.078 224.745 390.816C223.836 389.554 222.648 388.493 221.262 387.706L151.171 348.109C141.985 342.96 140.366 324.756 149.236 322.435Z" fill="white"/>
<path d="M267.901 351.596C267.901 351.596 267.901 351.658 267.901 351.683V351.782L269.875 353.892C269.875 353.892 269.875 353.805 269.875 353.755C269.954 354.078 270.454 354.066 271.31 353.619L287.773 344.933C289.047 344.236 290.128 343.267 290.932 342.103L305.316 316.938C305.539 316.516 305.539 316.268 305.316 316.156H305.382L303.421 314.034C303.388 314.003 303.35 313.977 303.307 313.96C303.264 313.943 303.217 313.935 303.171 313.935H302.868H302.776H302.684H302.605H302.513H302.434H302.342H302.249H302.157H302.065L285.602 322.621H285.51H285.418H285.325H285.246H285.181L284.97 322.795V322.857V322.932V323.006L284.904 323.08V323.167V323.242V323.329V323.403V323.478V323.552V323.626L270.586 348.755V348.817C270.586 348.817 270.586 348.817 270.586 348.891V348.966V349.028C270.586 349.028 270.586 349.028 270.586 349.102C270.586 349.177 270.586 349.102 270.586 349.164V349.263L267.901 351.596ZM304.842 316.119H304.908C304.908 316.119 304.974 316.119 305.026 316.119C304.965 316.107 304.903 316.107 304.842 316.119ZM269.875 353.656C269.906 353.494 269.969 353.338 270.06 353.197C269.963 353.353 269.9 353.526 269.875 353.706C269.875 353.706 269.875 353.656 269.875 353.656Z" fill="#455A64"/>
<path d="M171.24 474.06L176.859 477.138L176.833 471.02L171.24 474.06Z" fill="#E6E6E6"/>
<path d="M176.609 411.643L122.021 441.35L176.609 411.643Z" fill="#CFCFCF"/>
<path d="M176.833 471.02V477.138L182.676 473.961L182.479 402.051L116.112 438.186L116.323 510.084L122.166 506.907V500.789L171.24 474.023L176.833 471.02ZM122.021 441.35L176.609 411.643L176.675 434.96L122.1 464.741L122.021 441.35ZM122.113 471.057L176.701 441.338V441.412V464.667L122.179 494.374L122.113 471.057Z" fill="#B7B5C7"/>
<path d="M176.767 464.667L176.701 441.413V441.351L122.113 471.058L122.179 494.374L176.767 464.667Z" fill="#E0E0E0"/>
<path d="M176.675 434.96L176.609 411.643L122.021 441.35L122.1 464.679L176.675 434.96Z" fill="#E0E0E0"/>
<path d="M116.112 438.186L58.1677 406.431L58.3783 478.341L116.322 510.084L116.112 438.186Z" fill="#E0E0E0"/>
<path d="M116.112 438.186L182.479 402.051L124.534 370.297L58.1677 406.431L116.112 438.186Z" fill="#E0E0E0"/>
<path opacity="0.2" d="M171.24 474.06L176.859 477.138L176.833 471.02L171.24 474.06Z" fill="white"/>
<path d="M176.609 411.643L122.021 441.35L176.609 411.643Z" fill="#CFCFCF"/>
<path opacity="0.8" d="M176.767 464.667L176.701 441.413V441.351L122.113 471.058L122.179 494.374L176.767 464.667Z" fill="white"/>
<path opacity="0.8" d="M176.675 434.96L176.609 411.643L122.021 441.35L122.1 464.679L176.675 434.96Z" fill="white"/>
<path d="M158.817 429.996L158.791 426.782L139.893 437.069L139.906 440.296L158.817 429.996Z" fill="#E0E0E0"/>
<path d="M158.817 459.294L158.791 456.067L139.893 466.354L139.906 469.581L158.817 459.294Z" fill="#E0E0E0"/>
<path opacity="0.2" d="M116.112 438.186L58.1677 406.431L58.3783 478.341L116.322 510.084L116.112 438.186Z" fill="#48428E"/>
<path opacity="0.4" d="M116.112 438.186L182.479 402.051L124.534 370.297L58.1677 406.431L116.112 438.186Z" fill="#6C64C4"/>
<path opacity="0.05" d="M103.242 388.848C110.611 384.828 122.521 384.828 129.838 388.848C137.155 392.869 137.116 399.358 129.746 403.379C122.377 407.399 110.467 407.387 103.15 403.379C95.8325 399.371 95.872 392.856 103.242 388.848Z" fill="black"/>
<path d="M96.8458 363.583L117.06 364.142L137.287 363.583C138.156 376.464 135.484 389.58 131.812 395.996C130.959 397.638 129.577 398.984 127.864 399.843C121.903 403.094 112.256 403.094 106.334 399.843C104.59 398.977 103.201 397.589 102.386 395.896C98.6224 389.456 95.9772 376.414 96.8458 363.583Z" fill="white"/>
<path d="M102.821 355.79C94.9244 360.109 94.8455 367.095 102.715 371.413C110.585 375.731 123.39 375.719 131.312 371.413C139.235 367.107 139.208 360.109 131.404 355.79C123.6 351.472 110.743 351.484 102.821 355.79Z" fill="#EBEBEB"/>
<path d="M105.952 357.503C99.7672 360.878 99.7409 366.326 105.874 369.688C112.006 373.051 122.008 373.051 128.246 369.688C134.484 366.326 134.457 360.878 128.325 357.503C122.192 354.128 112.125 354.14 105.952 357.503Z" fill="#E0E0E0"/>
<g opacity="0.15">
<path d="M105.952 357.503C99.7672 360.878 99.7409 366.326 105.874 369.688C112.006 373.051 122.008 373.051 128.246 369.688C134.484 366.326 134.457 360.878 128.325 357.503C122.192 354.128 112.125 354.14 105.952 357.503Z" fill="black"/>
</g>
<path d="M118.757 364.142C117.136 365.416 115.217 366.311 113.159 366.754C111.1 367.196 108.96 367.172 106.913 366.686C104.94 366.117 103.148 365.095 101.698 363.71C100.249 362.326 99.1871 360.624 98.6091 358.756C101.002 357.684 103.194 356.251 105.097 354.512C102.057 353.792 98.8627 353.9 95.8849 354.823C95.0617 353.603 94.5677 352.213 94.4461 350.772C94.3245 349.331 94.579 347.885 95.1875 346.558C98.6381 345.11 102.52 344.855 106.15 345.838C104.644 344.599 102.882 343.666 100.975 343.1C99.0675 342.534 97.0567 342.347 95.069 342.55C94.7734 337.084 95.6692 331.619 97.701 326.493C105.242 326.865 112.546 329.918 115.02 332.126C115.128 334.671 114.844 337.216 114.178 339.684C115.151 339.213 115.982 338.518 116.594 337.663C117.206 336.808 117.579 335.822 117.678 334.794C122.403 335.911 124.416 338.132 125.153 339.82C124.476 342.982 122.938 345.924 120.692 348.357C125.114 347.117 126.917 342.438 126.917 342.438C131.299 352.167 130.47 363.186 118.757 364.142Z" fill="#6C64C4"/>
<path opacity="0.2" d="M118.757 364.142C117.136 365.416 115.217 366.311 113.159 366.754C111.1 367.196 108.96 367.172 106.913 366.686C104.94 366.117 103.148 365.095 101.698 363.71C100.249 362.326 99.1871 360.624 98.6091 358.756C101.002 357.684 103.194 356.251 105.097 354.512C102.057 353.792 98.8627 353.9 95.8849 354.823C95.0617 353.603 94.5677 352.213 94.4461 350.772C94.3245 349.331 94.579 347.885 95.1875 346.558C98.6381 345.11 102.52 344.855 106.15 345.838C104.644 344.599 102.882 343.666 100.975 343.1C99.0675 342.534 97.0567 342.347 95.069 342.55C94.7734 337.084 95.6692 331.619 97.701 326.493C105.242 326.865 112.546 329.918 115.02 332.126C115.128 334.671 114.844 337.216 114.178 339.684C115.151 339.213 115.982 338.518 116.594 337.663C117.206 336.808 117.579 335.822 117.678 334.794C122.403 335.911 124.416 338.132 125.153 339.82C124.476 342.982 122.938 345.924 120.692 348.357C125.114 347.117 126.917 342.438 126.917 342.438C131.299 352.167 130.47 363.186 118.757 364.142Z" fill="black"/>
<path opacity="0.3" d="M118.757 364.142C117.136 365.416 115.217 366.311 113.159 366.754C111.1 367.196 108.96 367.172 106.913 366.686C104.94 366.117 103.148 365.095 101.698 363.71C100.249 362.326 99.1871 360.624 98.6091 358.756C101.002 357.684 103.194 356.251 105.097 354.512C102.057 353.792 98.8627 353.9 95.8849 354.823C95.0617 353.603 94.5677 352.213 94.4461 350.772C94.3245 349.331 94.579 347.885 95.1875 346.558C98.6381 345.11 102.52 344.855 106.15 345.838C104.644 344.599 102.882 343.666 100.975 343.1C99.0675 342.534 97.0567 342.347 95.069 342.55C94.7734 337.084 95.6692 331.619 97.701 326.493C105.242 326.865 112.546 329.918 115.02 332.126C115.128 334.671 114.844 337.216 114.178 339.684C115.151 339.213 115.982 338.518 116.594 337.663C117.206 336.808 117.579 335.822 117.678 334.794C122.403 335.911 124.416 338.132 125.153 339.82C124.476 342.982 122.938 345.924 120.692 348.357C125.114 347.117 126.917 342.438 126.917 342.438C131.299 352.167 130.47 363.186 118.757 364.142Z" fill="white"/>
<path d="M119.02 365.197C119.136 365.184 119.242 365.131 119.317 365.049C119.393 364.966 119.432 364.859 119.428 364.75C118.705 355.778 113.256 340.962 100.267 328.764C100.228 328.726 100.181 328.695 100.129 328.674C100.077 328.654 100.021 328.643 99.9645 328.643C99.9081 328.643 99.8522 328.654 99.8002 328.674C99.7482 328.695 99.7011 328.726 99.6619 328.764C99.6209 328.802 99.5883 328.847 99.5661 328.897C99.5439 328.947 99.5325 329.001 99.5325 329.055C99.5325 329.11 99.5439 329.163 99.5661 329.213C99.5883 329.264 99.6209 329.309 99.6619 329.347C112.48 341.409 117.849 356.002 118.56 364.837C118.565 364.889 118.581 364.94 118.607 364.986C118.632 365.033 118.668 365.074 118.711 365.107C118.753 365.141 118.803 365.166 118.856 365.181C118.909 365.196 118.965 365.202 119.02 365.197Z" fill="#F5F5F5"/>
<path d="M115.454 368.944C116.966 370.109 118.748 370.92 120.656 371.311C122.564 371.702 124.543 371.662 126.431 371.194C128.319 370.725 130.063 369.842 131.52 368.616C132.976 367.391 134.105 365.857 134.813 364.142C132.65 363.224 130.669 361.965 128.956 360.419C131.824 359.775 134.821 359.86 137.642 360.667C138.495 359.638 139.054 358.421 139.266 357.13C139.477 355.84 139.335 354.52 138.853 353.296C135.57 352.022 131.93 351.816 128.509 352.713C131.553 350.47 135.385 349.398 139.234 349.71C139.893 344.891 139.398 339.993 137.787 335.378C130.601 335.787 123.495 338.591 121.021 340.577C120.744 342.815 120.842 345.081 121.31 347.29C120.443 346.896 119.707 346.284 119.183 345.523C118.658 344.762 118.366 343.879 118.336 342.972C113.835 344.002 111.756 345.987 111.006 347.489C111.431 350.274 112.691 352.888 114.638 355.021C113.376 354.589 112.234 353.893 111.298 352.986C110.361 352.08 109.654 350.985 109.229 349.784C104.505 358.409 104.584 368.112 115.454 368.944Z" fill="#6C64C4"/>
<path opacity="0.3" d="M115.454 368.944C116.966 370.109 118.748 370.92 120.656 371.311C122.564 371.702 124.543 371.662 126.431 371.194C128.319 370.725 130.063 369.842 131.52 368.616C132.976 367.391 134.105 365.857 134.813 364.142C132.65 363.224 130.669 361.965 128.956 360.419C131.824 359.775 134.821 359.86 137.642 360.667C138.495 359.638 139.054 358.421 139.266 357.13C139.477 355.84 139.335 354.52 138.853 353.296C135.57 352.022 131.93 351.816 128.509 352.713C131.553 350.47 135.385 349.398 139.234 349.71C139.893 344.891 139.398 339.993 137.787 335.378C130.601 335.787 123.495 338.591 121.021 340.577C120.744 342.815 120.842 345.081 121.31 347.29C120.443 346.896 119.707 346.284 119.183 345.523C118.658 344.762 118.366 343.879 118.336 342.972C113.835 344.002 111.756 345.987 111.006 347.489C111.431 350.274 112.691 352.888 114.638 355.021C113.376 354.589 112.234 353.893 111.298 352.986C110.361 352.08 109.654 350.985 109.229 349.784C104.505 358.409 104.584 368.112 115.454 368.944Z" fill="white"/>
<path d="M115.165 369.924C115.268 369.923 115.369 369.887 115.448 369.824C115.527 369.761 115.581 369.673 115.599 369.577C116.836 361.759 122.85 348.779 135.76 337.946C135.801 337.908 135.834 337.863 135.856 337.813C135.878 337.763 135.89 337.709 135.89 337.655C135.89 337.6 135.878 337.547 135.856 337.497C135.834 337.446 135.801 337.401 135.76 337.363C135.721 337.325 135.674 337.294 135.622 337.273C135.57 337.253 135.514 337.242 135.458 337.242C135.401 337.242 135.345 337.253 135.293 337.273C135.241 337.294 135.194 337.325 135.155 337.363C122.074 348.357 115.967 361.536 114.704 369.49C114.689 369.597 114.719 369.705 114.788 369.791C114.857 369.877 114.959 369.934 115.072 369.949L115.165 369.924Z" fill="white"/>
</svg>
