<svg width="30" height="30" viewBox="0 0 30 30" fill="none" xmlns="http://www.w3.org/2000/svg">
<path d="M15 0C6.71596 0 0 6.71596 0 15C0 22.0829 4.91077 28.0154 11.5125 29.5881C11.171 29.5067 10.8323 29.4156 10.5 29.3117V25.875C10.5 25.875 9.9375 26.0625 9.1875 26.0625C7.08923 26.0625 6.2175 24.1904 6 23.25C5.86788 22.6771 5.52288 22.1342 5.1525 21.8025C4.71 21.4079 4.50288 21.4067 4.5 21.2717C4.49423 20.9885 4.87962 21 5.0625 21C6 21 6.71077 21.9975 7.04077 22.5133C7.85827 23.7865 8.73577 24 9.1875 24C9.75 24 10.2358 23.9158 10.5704 23.7542C10.725 22.665 11.2096 21.6946 12 21C8.4825 20.2967 6 18.2792 6 15C6 13.3108 6.67789 11.7583 7.8075 10.5046C7.69212 10.1775 7.5 9.51577 7.5 8.4375C7.5 7.725 7.54961 6.85038 7.875 6C7.875 6 10.0142 6.015 12.0317 7.92577C12.9629 7.65462 13.9592 7.5 15 7.5C16.0408 7.5 17.0371 7.65462 17.9683 7.92577C19.9858 6.015 22.125 6 22.125 6C22.4521 6.85038 22.5 7.725 22.5 8.4375C22.5 9.6 22.3454 10.2779 22.2508 10.5704C23.3458 11.8125 24 13.3408 24 15C24 18.2792 21.5175 20.2967 18 21C18.9392 21.825 19.5 23.0267 19.5 24.375V29.3117C19.1677 29.4162 18.8296 29.5067 18.4875 29.5881C25.0892 28.0154 30 22.0829 30 15C30 6.71596 23.284 0 15 0ZM16.046 29.9596C15.7004 29.9838 15.3519 30 15 30C15.3519 30 15.6998 29.9833 16.046 29.9596ZM15 30C14.6481 30 14.2996 29.9838 13.954 29.9596C14.3002 29.9833 14.6481 30 15 30ZM13.7238 29.9423C13.0217 29.8829 12.3329 29.7756 11.6619 29.6227C12.3335 29.775 13.0217 29.8829 13.7238 29.9423Z" fill="#FBF8F3"/>
</svg>
