<svg width="30" height="27" viewBox="0 0 30 27" fill="none" xmlns="http://www.w3.org/2000/svg">
<path d="M15.0006 19.3213C14.0172 19.3213 13.2188 20.1189 13.2188 21.1024C13.2188 22.0862 14.0172 22.8839 15.0006 22.8839C15.9841 22.8839 16.7817 22.0862 16.7817 21.1024C16.7818 20.1189 15.9841 19.3213 15.0006 19.3213Z" fill="#232323"/>
<path d="M29.5955 22.2514L17.6232 1.51447C17.084 0.580254 16.0789 0 14.9995 0C13.921 0 12.9169 0.580312 12.3777 1.51447L0.404429 22.2505C-0.13481 23.1847 -0.13481 24.3453 0.404429 25.2795C0.943726 26.2136 1.94873 26.7935 3.02726 26.7935H26.9728C28.0512 26.7935 29.0563 26.2136 29.5955 25.2795C30.1348 24.3453 30.1348 23.1847 29.5955 22.2514ZM27.2148 23.733C27.0419 24.032 26.72 24.2173 26.3739 24.2173H3.62568C3.28044 24.2173 2.95806 24.032 2.78609 23.7321C2.61242 23.4327 2.61154 23.0615 2.78527 22.7625L14.1596 3.06094C14.332 2.76193 14.6539 2.57613 15.0004 2.57613C15.3461 2.57613 15.6676 2.76193 15.8404 3.06141L27.2148 22.7621C27.3876 23.0615 27.3876 23.4336 27.2148 23.733Z" fill="#232323"/>
<path d="M15.0006 7.34509C14.0172 7.34509 13.2188 8.14273 13.2188 9.12664L13.9031 17.1825C13.9031 17.7887 14.394 18.2796 15.0006 18.2796C15.6064 18.2796 16.0982 17.7887 16.0982 17.1825L16.7817 9.12664C16.7818 8.14267 15.9841 7.34509 15.0006 7.34509Z" fill="#232323"/>
</svg>
