<svg width="37" height="37" viewBox="0 0 37 37" fill="none" xmlns="http://www.w3.org/2000/svg">
<path d="M18.5 0C8.29857 0 0 8.29857 0 18.5C0 28.7014 8.29857 37 18.5 37C28.7014 37 37 28.7014 37 18.5C37 8.29857 28.7014 0 18.5 0ZM18.5 33.9192C9.99755 33.9192 3.08082 27.0024 3.08082 18.5C3.08082 9.99755 9.99755 3.08082 18.5 3.08082C27.0024 3.08082 33.9192 9.99755 33.9192 18.5C33.9192 27.0024 27.0024 33.9192 18.5 33.9192Z" fill="#FBF8F3"/>
<path d="M26.1719 16.9594H20.0404V10.828C20.0404 9.97474 19.3533 9.2876 18.5 9.2876C17.6468 9.2876 16.9596 9.97474 16.9596 10.828V16.9594H10.8282C9.97492 16.9594 9.28778 17.6466 9.28778 18.4998C9.28778 19.3531 9.97492 20.0402 10.8282 20.0402H16.9596V26.1717C16.9596 27.0249 17.6468 27.7121 18.5 27.7121C19.3533 27.7121 20.0404 27.0249 20.0404 26.1717V20.0402H26.1719C27.0251 20.0402 27.7123 19.3531 27.7123 18.4998C27.7123 17.6466 27.0251 16.9594 26.1719 16.9594Z" fill="#FBF8F3"/>
</svg>
