<svg width="45" height="50" viewBox="0 0 45 50" fill="none" xmlns="http://www.w3.org/2000/svg">
<path d="M31.6608 41.9986C32.4376 41.9986 33.0673 41.2289 33.0673 40.2795C33.0673 39.3302 32.4376 38.5605 31.6608 38.5605C30.8841 38.5605 30.2544 39.3302 30.2544 40.2795C30.2544 41.2289 30.8841 41.9986 31.6608 41.9986Z" fill="#6C64C4"/>
<path d="M15.1271 33.968C14.4561 33.2219 13.649 32.748 12.7966 32.748C11.917 32.748 11.1009 33.2219 10.439 33.9982C11.7085 33.6958 13.3226 33.5345 15.1271 33.968Z" fill="#6C64C4"/>
<path d="M44.4077 45.919C43.3189 37.4718 38.9089 30.3304 32.8384 26.4435C33.1197 28.8205 33.401 32.8707 32.7295 36.4414C34.0725 36.9923 35.0615 38.5022 35.0615 40.2875C35.0615 42.5524 33.5462 44.3275 31.6406 44.3275C29.7351 44.3275 28.2197 42.5116 28.2197 40.2875C28.2197 38.3492 29.3449 36.7577 30.8694 36.319C31.7858 32.1158 31.0418 26.6781 30.8331 25.2907C30.5881 25.1682 30.3431 25.056 30.089 24.9336C28.0473 27.3106 25.2889 28.7797 22.2218 28.7797C19.2274 28.7797 16.4689 27.3515 14.4636 25.056C14.146 25.8518 13.5471 27.7901 13.656 30.6875C16.6504 31.3608 18.9461 35.4824 18.9461 40.4406C18.9461 42.2667 18.6285 44.0929 18.0297 45.6334C17.703 46.7964 16.3328 47.2657 15.6976 47.2657C14.7449 47.2657 13.9736 46.3577 13.9736 45.2049C13.9736 44.0521 14.754 43.1441 15.6976 43.1441C15.9789 43.1441 16.3691 43.2257 16.7956 43.4195C17.5215 41.0629 16.968 37.8697 16.6232 36.7985C13.2386 35.0539 10.1353 36.2476 9.00105 36.7985C8.68346 37.8697 8.0755 40.7874 8.82864 43.4195C9.25512 43.2257 9.63622 43.1441 9.92659 43.1441C10.8794 43.1441 11.6506 44.0521 11.6506 45.2049C11.6506 46.3577 10.8703 47.2657 9.92659 47.2657C9.32771 47.2657 7.98476 46.827 7.63087 45.7558C6.99569 44.1745 6.6781 42.3483 6.6781 40.4406C6.6781 35.5232 8.93753 31.4424 11.8594 30.6875C11.7868 28.7797 12.0045 27.1984 12.2495 26.0456C5.81608 29.8611 1.16112 37.1963 0.0359454 45.919C-0.245348 48.0614 1.16112 49.9998 2.96684 49.9998H41.4496C43.2826 49.9998 44.689 48.0614 44.4077 45.919Z" fill="#6C64C4"/>
<path d="M22.2532 26.9798C28.2055 26.9798 33.045 21.8647 33.045 15.5447C33.045 14.6667 32.9633 13.8397 32.7693 13.0025C32.7693 13.0025 27.695 11.4199 22.2532 11.4199C16.8215 11.4199 11.7779 13.0025 11.7779 13.0025C11.6145 13.8397 11.5022 14.6667 11.5022 15.5447C11.4614 21.8953 16.3008 26.9798 22.2532 26.9798Z" fill="#6C64C4"/>
<path d="M31.9015 10.552C32.657 7.57066 33.3717 4.55873 34.0864 1.57743C26.3371 -0.525811 18.1692 -0.525811 10.4302 1.57743C11.1449 4.55873 11.9004 7.57066 12.6151 10.552C18.9145 8.83669 25.5918 8.83669 31.9015 10.552ZM19.3536 3.68068H21.3751V1.53659H23.121V3.68068H25.1425V5.50825H23.121V7.65234H21.3751V5.50825H19.3536V3.68068Z" fill="#6C64C4"/>
<path d="M31.9015 10.552C32.657 7.57066 33.3717 4.55873 34.0864 1.57743C26.3371 -0.525811 18.1692 -0.525811 10.4302 1.57743C11.1449 4.55873 11.9004 7.57066 12.6151 10.552C18.9145 8.83669 25.5918 8.83669 31.9015 10.552ZM19.3536 3.68068H21.3751V1.53659H23.121V3.68068H25.1425V5.50825H23.121V7.65234H21.3751V5.50825H19.3536V3.68068Z" fill="#6C64C4"/>
</svg>
