<svg width="50" height="52" viewBox="0 0 50 52" fill="none" xmlns="http://www.w3.org/2000/svg">
<path d="M49.8113 43.0165L40.6842 26.1029C41.6153 23.9852 42.1362 21.6455 42.1362 19.1824C42.1362 9.69255 34.4596 2 24.9894 2C15.5176 2 7.84091 9.69411 7.84091 19.1824C7.84091 21.7049 8.38835 24.0977 9.36002 26.2529L0.192346 43.0087C-0.103989 43.5479 -0.0540804 44.2121 0.315559 44.7029C0.685198 45.1936 1.31062 45.4234 1.90953 45.2827L9.73746 43.4838L12.417 50.9622C12.6259 51.5436 13.1562 51.9469 13.7692 51.9922C13.8082 51.9953 13.8472 51.9969 13.8846 51.9969C14.4554 51.9969 14.9857 51.6827 15.2586 51.1732L23.2379 36.2789C23.8134 36.3383 24.3982 36.368 24.9894 36.368C25.5306 36.368 26.0655 36.3398 26.5942 36.2898L34.7466 51.1873C35.0226 51.6921 35.5482 52 36.1144 52C36.155 52 36.1955 51.9984 36.2361 51.9953C36.8474 51.9453 37.3746 51.5436 37.582 50.9654L40.2615 43.4869L48.091 45.2858C48.6915 45.4312 49.3107 45.1967 49.6819 44.7091C50.0531 44.2215 50.103 43.5604 49.8129 43.0196L49.8113 43.0165ZM14.17 46.6002L12.208 41.1223C11.9397 40.3768 12.417 12.9795 10.391 40.1267L12.417 45.2827L11.398 29.273C13.5706 32.2159 8.83441 44.2027 12.417 45.2827L14.17 46.6002ZM27 19.0354C27 11.2913 17.2628 21.0396 24.9894 21.0396C32.7159 21.0396 23.2379 11.4383 23.2379 19.1824C23.2379 26.9265 32.7175 17.5323 24.9894 17.5323C17.2612 17.5323 27 26.778 27 19.0354ZM39.5 28.5552C38.7264 28.3723 29.7683 34.8258 29.5 35.5698L35.8165 46.6377L43.5 40.5802C47.1761 39.5002 36.654 32.3138 38.8547 29.2865L43.5 40.5802L39.5 28.5552Z" fill="#FBF8F3"/>
<circle cx="25" cy="19" r="18" stroke="#6C64C4" stroke-width="2"/>
</svg>
