<svg width="40" height="50" viewBox="0 0 40 50" fill="none" xmlns="http://www.w3.org/2000/svg">
<path d="M3.24824 45.3836C3.47909 47.9964 5.66757 49.9997 8.29119 49.9997H30.9008C33.5237 49.9997 35.7129 47.9964 35.9439 45.3836L38.448 12.5781H0.744141L3.24824 45.3836ZM35.6947 15.1296L33.4024 45.1585C33.2869 46.4642 32.2114 47.4483 30.9008 47.4483H8.29119C6.98065 47.4483 5.90507 46.4642 5.79208 45.1894L3.49736 15.1296H35.6947Z" fill="#74A0D4"/>
<path d="M12.4635 42.5132C13.0374 42.4791 13.4742 41.9858 13.4392 41.4127L12.4493 21.6633C12.4143 21.0895 11.9219 20.6526 11.3479 20.6875C10.774 20.7224 10.3372 21.2157 10.3721 21.7888L11.362 41.5382C11.397 42.112 11.8903 42.548 12.4635 42.5132Z" fill="#74A0D4"/>
<path d="M19.5969 42.5164C20.1716 42.5164 20.6375 42.0513 20.6375 41.4766V21.7264C20.6375 21.1517 20.1716 20.6865 19.5969 20.6865C19.0222 20.6865 18.5562 21.1517 18.5562 21.7264V41.4766C18.5562 42.0513 19.0222 42.5164 19.5969 42.5164Z" fill="#74A0D4"/>
<path d="M26.7302 42.5132C27.3042 42.548 27.7967 42.112 27.8315 41.5382L28.8207 21.7888C28.8547 21.2157 28.4187 20.7224 27.8448 20.6875C27.2709 20.6526 26.7784 21.0895 26.7436 21.6633L25.7544 41.4127C25.7195 41.9857 26.1563 42.4791 26.7302 42.5132Z" fill="#74A0D4"/>
<path d="M37.4787 6.30049C37.4787 6.30049 34.1508 5.74736 33.2463 5.47246C32.4357 5.22578 25.3562 4.14766 25.3562 4.14766L25.0904 2.26318C24.9077 0.962598 23.8429 0 22.5888 0H19.5956H16.6023C15.3499 0 14.2851 0.962598 14.1007 2.26318L13.835 4.14766C13.835 4.14766 6.75799 5.22568 5.94657 5.47246C5.04217 5.74736 1.7125 6.30049 1.7125 6.30049C0.704295 6.57861 0 7.53633 0 8.63086V10.7721H19.5957H39.1929V8.63086C39.1929 7.53633 38.4886 6.57861 37.4787 6.30049ZM21.5806 3.79141H17.6123C17.2601 3.79141 16.9744 3.50576 16.9744 3.15352C16.9744 2.80127 17.2601 2.51562 17.6123 2.51562H21.5806C21.9328 2.51562 22.2185 2.80127 22.2185 3.15352C22.2185 3.50576 21.9328 3.79141 21.5806 3.79141Z" fill="#74A0D4"/>
</svg>
