<svg width="35" height="37" viewBox="0 0 35 37" fill="none" xmlns="http://www.w3.org/2000/svg">
<path d="M31.3972 28.5489L26.4138 19.3331C26.9222 18.1793 27.2066 16.9045 27.2066 15.5624C27.2066 10.3916 23.0151 6.2002 17.8444 6.2002C12.6728 6.2002 8.48133 10.3925 8.48133 15.5624C8.48133 16.9368 8.78024 18.2406 9.31077 19.4149L4.30522 28.5446C4.14342 28.8384 4.17067 29.2003 4.37249 29.4677C4.57431 29.7351 4.91579 29.8603 5.2428 29.7836L9.51685 28.8035L10.9799 32.8783C11.094 33.195 11.3835 33.4148 11.7182 33.4394C11.7395 33.4412 11.7607 33.442 11.7812 33.442C12.0929 33.442 12.3824 33.2708 12.5314 32.9932L16.8881 24.8777C17.2023 24.9101 17.5216 24.9263 17.8444 24.9263C18.1399 24.9263 18.432 24.9109 18.7207 24.8837L23.1718 33.0009C23.3226 33.2759 23.6095 33.4437 23.9187 33.4437C23.9408 33.4437 23.9629 33.4429 23.9851 33.4411C24.3189 33.4139 24.6067 33.195 24.72 32.88L26.183 28.8052L30.4579 29.7853C30.7857 29.8645 31.1238 29.7368 31.3265 29.4711C31.5292 29.2054 31.5564 28.8452 31.398 28.5506L31.3972 28.5489ZM11.937 30.5015L13.3002 26.5002C13.1537 26.094 11.2384 20.1006 10.8178 20.2002L6.71261 27.6998L10.3156 21.1274C11.5019 22.7309 8.86171 26.3859 10.8178 26.9743L11.937 30.5015ZM17.8435 14.9502C17.8435 10.7307 13.2815 14.9502 17.5002 14.9502C21.7189 14.9502 17.8388 10.978 17.8388 15.1975C17.8388 19.4171 21.7197 14.9502 17.5002 14.9502C13.2806 14.9502 17.8435 19.1689 17.8435 14.9502ZM29.0034 26.9743C28.581 26.8747 20.4467 23.6448 20.3002 24.0502L23.756 30.522L28.0002 24.9263C30.0074 24.3378 19.7986 26.5272 21.0002 24.8777L29.0034 27.7024V26.9743Z" fill="#232323"/>
<path d="M34.8679 30.7116L28.4789 18.872C29.1307 17.3896 29.4954 15.7519 29.4954 14.0277C29.4954 7.38478 24.1217 2 17.4926 2C10.8623 2 5.48864 7.38588 5.48864 14.0277C5.48864 15.7934 5.87185 17.4684 6.55201 18.9771L0.134642 30.7061C-0.0727926 31.0835 -0.0378563 31.5485 0.220891 31.892C0.479638 32.2355 0.917435 32.3964 1.33667 32.2979L6.81622 31.0387L8.69186 36.2736C8.83816 36.6805 9.20936 36.9628 9.63842 36.9945C9.66572 36.9967 9.69301 36.9978 9.71921 36.9978C10.1188 36.9978 10.49 36.7779 10.6811 36.4213L16.2665 25.9952C16.6694 26.0368 17.0788 26.0576 17.4926 26.0576C17.8714 26.0576 18.2459 26.0379 18.616 26.0029L24.3226 36.4311C24.5158 36.7845 24.8838 37 25.2801 37C25.3085 37 25.3369 36.9989 25.3652 36.9967C25.7932 36.9617 26.1622 36.6805 26.3074 36.2758L28.1831 31.0409L33.6637 32.3001C34.084 32.4018 34.5175 32.2377 34.7773 31.8964C35.0372 31.555 35.0721 31.0923 34.869 30.7137L34.8679 30.7116ZM9.919 33.2201L8.54557 29.3856C8.35779 28.8637 8.69186 9.68562 7.27367 28.6887L8.69186 32.2979L7.97859 21.0911C9.49942 23.1511 6.18409 31.5419 8.69186 32.2979L9.919 33.2201ZM18.9 13.9248C18.9 8.5039 12.084 15.3277 17.4926 15.3277C22.9011 15.3277 16.2665 8.60681 16.2665 14.0277C16.2665 19.4486 22.9022 12.8726 17.4926 12.8726C12.0829 12.8726 18.9 19.3446 18.9 13.9248ZM27.65 20.5886C27.1085 20.4606 20.8378 24.9781 20.65 25.4988L25.0716 33.2464L30.45 29.0061C33.0233 28.2502 25.6578 23.2197 27.1983 21.1006L30.45 29.0061L27.65 20.5886Z" fill="#232323"/>
<circle cx="17.4996" cy="13.9" r="12.9" stroke="#F8F3FB" stroke-width="2"/>
</svg>
