<svg width="98" height="78" viewBox="0 0 98 78" fill="none" xmlns="http://www.w3.org/2000/svg">
<path fill-rule="evenodd" clip-rule="evenodd" d="M19 19.25V43C19 46.5003 19 48.2506 19.7266 49.5875C20.3658 50.7634 21.3856 51.7197 22.6401 52.3187C24.0661 53 25.933 53 29.6667 53H68.3333C72.067 53 73.934 53 75.36 52.3187C76.6143 51.7197 77.6343 50.7634 78.2733 49.5875C79 48.2506 79 46.5003 79 43V19.25C79 15.7497 79 13.9995 78.2733 12.6626C77.6343 11.4865 76.6143 10.5304 75.36 9.93122C73.934 9.25 72.067 9.25 68.3333 9.25H64.818H64.8179C64.408 9.25 64.2033 9.25 64.014 9.22969C63.0277 9.12378 62.1433 8.61122 61.601 7.83153C61.497 7.68209 61.4053 7.51028 61.2223 7.16666L61.2201 7.16248C60.8549 6.47814 60.6719 6.13518 60.4647 5.83694C59.3803 4.27756 57.611 3.25244 55.6383 3.04059C55.2603 3 54.8507 3 54.031 3H43.969C43.1493 3 42.7397 3 42.3617 3.04059C40.3889 3.25244 38.6197 4.27756 37.5354 5.83694C37.3276 6.13577 37.1444 6.47933 36.7779 7.16634L36.7778 7.16666C36.5945 7.51025 36.5029 7.68209 36.399 7.83153C35.8568 8.61122 34.9722 9.12378 33.9859 9.22969C33.7968 9.25 33.592 9.25 33.1822 9.25H33.1821H29.6667C25.933 9.25 24.0661 9.25 22.6401 9.93122C21.3856 10.5304 20.3658 11.4865 19.7266 12.6626C19 13.9995 19 15.7497 19 19.25ZM62 32C62 39.1799 56.1799 45 49 45C41.8201 45 36 39.1799 36 32C36 24.8201 41.8201 19 49 19C56.1799 19 62 24.8201 62 32Z" fill="#74A0D4"/>
<path d="M19.7266 49.5875L21.9232 48.3937L21.9231 48.3936L19.7266 49.5875ZM22.6401 52.3187L23.7177 50.0629L23.7174 50.0628L22.6401 52.3187ZM75.36 52.3187L74.2826 50.0628L74.2823 50.063L75.36 52.3187ZM78.2733 49.5875L76.0768 48.3936L76.0767 48.3939L78.2733 49.5875ZM78.2733 12.6626L76.0767 13.8561L76.0768 13.8564L78.2733 12.6626ZM75.36 9.93122L74.2824 12.187L74.2824 12.187L75.36 9.93122ZM64.014 9.22969L63.7471 11.7154L63.7473 11.7154L64.014 9.22969ZM61.601 7.83153L63.6533 6.40397L63.653 6.40347L61.601 7.83153ZM61.2223 7.16666L63.4289 5.99151L63.4275 5.98893L61.2223 7.16666ZM61.2201 7.16248L59.0145 8.33945L59.0149 8.3402L61.2201 7.16248ZM60.4647 5.83694L62.5176 4.4103L62.5172 4.40968L60.4647 5.83694ZM55.6383 3.04059L55.3714 5.5263L55.3714 5.5263L55.6383 3.04059ZM42.3617 3.04059L42.6286 5.5263L42.6286 5.5263L42.3617 3.04059ZM37.5354 5.83694L39.5879 7.26422L39.588 7.26414L37.5354 5.83694ZM36.7779 7.16634L34.5721 5.98982L34.5687 5.99616L36.7779 7.16634ZM36.7778 7.16666L38.9837 8.34305L38.987 8.33684L36.7778 7.16666ZM36.399 7.83153L38.4515 9.25873L38.4516 9.25866L36.399 7.83153ZM33.9859 9.22969L33.719 6.74398L33.7188 6.744L33.9859 9.22969ZM22.6401 9.93122L23.7176 12.1871L23.7177 12.1871L22.6401 9.93122ZM19.7266 12.6626L21.9232 13.8564L21.9232 13.8563L19.7266 12.6626ZM21.5 43V19.25H16.5V43H21.5ZM21.9231 48.3936C21.7908 48.1502 21.6576 47.7623 21.5814 46.888C21.5022 45.9794 21.5 44.7941 21.5 43H16.5C16.5 44.7062 16.4978 46.1462 16.6003 47.3221C16.7057 48.5323 16.9358 49.6879 17.5301 50.7814L21.9231 48.3936ZM23.7174 50.0628C22.9193 49.6816 22.3005 49.0879 21.9232 48.3937L17.5301 50.7813C18.4311 52.439 19.852 53.7577 21.5627 54.5747L23.7174 50.0628ZM29.6667 50.5C27.7611 50.5 26.473 50.4983 25.479 50.4221C24.5097 50.3479 24.0342 50.2141 23.7177 50.0629L21.5624 54.5746C22.672 55.1046 23.8429 55.3115 25.0971 55.4075C26.3264 55.5017 27.8385 55.5 29.6667 55.5V50.5ZM68.3333 50.5H29.6667V55.5H68.3333V50.5ZM74.2823 50.063C73.9659 50.2141 73.4904 50.3479 72.5211 50.4221C71.5271 50.4983 70.2389 50.5 68.3333 50.5V55.5C70.1615 55.5 71.6736 55.5017 72.903 55.4075C74.1571 55.3115 75.3281 55.1046 76.4377 54.5745L74.2823 50.063ZM76.0767 48.3939C75.6996 49.0878 75.0808 49.6816 74.2826 50.0628L76.4374 54.5747C78.1479 53.7578 79.569 52.4391 80.47 50.7811L76.0767 48.3939ZM76.5 43C76.5 44.7941 76.4978 45.9794 76.4186 46.888C76.3424 47.7622 76.2092 48.1502 76.0768 48.3936L80.4698 50.7814C81.0642 49.688 81.2942 48.5323 81.3997 47.3221C81.5022 46.1462 81.5 44.7062 81.5 43H76.5ZM76.5 19.25V43H81.5V19.25H76.5ZM76.0768 13.8564C76.2092 14.0999 76.3424 14.4879 76.4186 15.3621C76.4978 16.2706 76.5 17.4559 76.5 19.25H81.5C81.5 17.5438 81.5022 16.1038 81.3997 14.9279C81.2942 13.7178 81.0642 12.5621 80.4698 11.4687L76.0768 13.8564ZM74.2824 12.187C75.0809 12.5685 75.6996 13.1623 76.0767 13.8561L80.47 11.469C79.569 9.8108 78.1478 8.49234 76.4376 7.67539L74.2824 12.187ZM68.3333 11.75C70.2389 11.75 71.5271 11.7517 72.5211 11.8278C73.4904 11.9021 73.966 12.0359 74.2824 12.187L76.4376 7.67541C75.3281 7.14534 74.1571 6.93852 72.903 6.84246C71.6736 6.74829 70.1615 6.75 68.3333 6.75V11.75ZM64.818 11.75H68.3333V6.75H64.818V11.75ZM64.8179 11.75H64.818V6.75H64.8179V11.75ZM63.7473 11.7154C64.1013 11.7534 64.4646 11.75 64.8179 11.75V6.75C64.6033 6.75 64.4787 6.74989 64.3836 6.74797C64.2972 6.74623 64.2771 6.74357 64.2807 6.74396L63.7473 11.7154ZM59.5487 9.25909C60.525 10.6627 62.0765 11.536 63.7471 11.7154L64.2809 6.74398C63.9788 6.71154 63.7616 6.5597 63.6533 6.40397L59.5487 9.25909ZM59.0157 8.3418C59.1702 8.63179 59.3403 8.95963 59.549 9.25959L63.653 6.40347C63.6631 6.41802 63.6575 6.41253 63.6206 6.34687C63.5788 6.27262 63.5252 6.17238 63.4289 5.99151L59.0157 8.3418ZM59.0149 8.3402L59.0171 8.34438L63.4275 5.98893L63.4253 5.98476L59.0149 8.3402ZM58.4117 7.26357C58.5154 7.41284 58.6203 7.60077 59.0145 8.33945L63.4257 5.98551C63.0895 5.3555 62.8284 4.85751 62.5176 4.4103L58.4117 7.26357ZM55.3714 5.5263C56.6603 5.66471 57.7621 6.32936 58.4121 7.2642L62.5172 4.40968C60.9986 2.22577 58.5617 0.840166 55.9053 0.554889L55.3714 5.5263ZM54.031 5.5C54.9076 5.5 55.1583 5.50341 55.3714 5.5263L55.9053 0.55489C55.3624 0.496589 54.7938 0.500003 54.031 0.500003V5.5ZM43.969 5.5H54.031V0.500003H43.969V5.5ZM42.6286 5.5263C42.8417 5.50341 43.0924 5.5 43.969 5.5V0.500003C43.2062 0.500003 42.6376 0.496589 42.0947 0.55489L42.6286 5.5263ZM39.588 7.26414C40.238 6.32935 41.3397 5.66471 42.6286 5.5263L42.0947 0.554888C39.4382 0.840164 37.0014 2.22578 35.4828 4.40974L39.588 7.26414ZM38.9838 8.34286C39.3793 7.60124 39.4842 7.41344 39.5879 7.26422L35.4829 4.40966C35.171 4.85809 34.9094 5.35743 34.5721 5.98983L38.9838 8.34286ZM38.987 8.33684L38.9872 8.33652L34.5687 5.99616L34.5685 5.99648L38.987 8.33684ZM38.4516 9.25866C38.6595 8.95967 38.8295 8.63225 38.9837 8.34304L34.5718 5.99027C34.4752 6.1714 34.4215 6.27188 34.3795 6.34662C34.3423 6.4128 34.3364 6.41865 34.3463 6.4044L38.4516 9.25866ZM34.2528 11.7154C35.9229 11.5361 37.4751 10.663 38.4515 9.25873L34.3464 6.40433C34.2385 6.55944 34.0215 6.7115 33.719 6.74398L34.2528 11.7154ZM33.1822 11.75C33.535 11.75 33.899 11.7534 34.253 11.7154L33.7188 6.744C33.7228 6.74357 33.7029 6.74623 33.6165 6.74797C33.5213 6.74989 33.3967 6.75 33.1822 6.75V11.75ZM33.1821 11.75H33.1822V6.75H33.1821V11.75ZM29.6667 11.75H33.1821V6.75H29.6667V11.75ZM23.7177 12.1871C24.0341 12.0359 24.5097 11.9021 25.479 11.8278C26.473 11.7517 27.7611 11.75 29.6667 11.75V6.75C27.8385 6.75 26.3264 6.74829 25.0971 6.84246C23.843 6.93852 22.6721 7.14535 21.5625 7.67539L23.7177 12.1871ZM21.9232 13.8563C22.3004 13.1622 22.9192 12.5684 23.7176 12.1871L21.5625 7.67536C19.8521 8.49237 18.4311 9.81086 17.5301 11.4688L21.9232 13.8563ZM21.5 19.25C21.5 17.4559 21.5022 16.2706 21.5814 15.3621C21.6576 14.4878 21.7908 14.0999 21.9232 13.8564L17.5301 11.4687C16.9358 12.5622 16.7057 13.7178 16.6003 14.928C16.4978 16.1038 16.5 17.5438 16.5 19.25H21.5ZM49 47.5C57.5606 47.5 64.5 40.5606 64.5 32H59.5C59.5 37.7992 54.7992 42.5 49 42.5V47.5ZM33.5 32C33.5 40.5606 40.4394 47.5 49 47.5V42.5C43.2008 42.5 38.5 37.7992 38.5 32H33.5ZM49 16.5C40.4394 16.5 33.5 23.4394 33.5 32H38.5C38.5 26.2008 43.2008 21.5 49 21.5V16.5ZM64.5 32C64.5 23.4394 57.5606 16.5 49 16.5V21.5C54.7992 21.5 59.5 26.2008 59.5 32H64.5Z" fill="#74A0D4"/>
<path d="M16.0954 76L15.1204 73.165H11.0854L10.1254 76H8.08545L12.0154 65.245H14.2054L18.1354 76H16.0954ZM13.6954 68.755C13.6554 68.615 13.5954 68.425 13.5154 68.185C13.4354 67.945 13.3554 67.7 13.2754 67.45C13.2054 67.19 13.1504 66.975 13.1104 66.805C13.0604 67.005 12.9954 67.235 12.9154 67.495C12.8454 67.755 12.7754 68 12.7054 68.23C12.6454 68.46 12.5954 68.635 12.5554 68.755L11.6104 71.515H14.6254L13.6954 68.755ZM23.5489 76.15C22.6089 76.15 21.8439 75.8 21.2539 75.1C20.6739 74.39 20.3839 73.34 20.3839 71.95C20.3839 70.56 20.6789 69.51 21.2689 68.8C21.8589 68.08 22.6339 67.72 23.5939 67.72C23.9939 67.72 24.3439 67.775 24.6439 67.885C24.9539 67.985 25.2189 68.125 25.4389 68.305C25.6589 68.485 25.8439 68.685 25.9939 68.905H26.0839C26.0539 68.765 26.0239 68.55 25.9939 68.26C25.9639 67.97 25.9489 67.7 25.9489 67.45V64.6H27.8389V76H26.3689L26.0239 74.935H25.9489C25.7989 75.155 25.6139 75.36 25.3939 75.55C25.1739 75.73 24.9139 75.875 24.6139 75.985C24.3139 76.095 23.9589 76.15 23.5489 76.15ZM24.1189 74.62C24.8189 74.62 25.3139 74.42 25.6039 74.02C25.8939 73.62 26.0389 73.015 26.0389 72.205V71.965C26.0389 71.085 25.8989 70.415 25.6189 69.955C25.3489 69.495 24.8389 69.265 24.0889 69.265C23.5189 69.265 23.0789 69.505 22.7689 69.985C22.4589 70.455 22.3039 71.12 22.3039 71.98C22.3039 72.84 22.4589 73.495 22.7689 73.945C23.0789 74.395 23.5289 74.62 24.1189 74.62ZM33.6436 67.87V76H31.7536V67.87H33.6436ZM32.6986 64.735C32.9786 64.735 33.2236 64.81 33.4336 64.96C33.6436 65.1 33.7486 65.355 33.7486 65.725C33.7486 66.085 33.6436 66.345 33.4336 66.505C33.2236 66.655 32.9786 66.73 32.6986 66.73C32.4086 66.73 32.1586 66.655 31.9486 66.505C31.7486 66.345 31.6486 66.085 31.6486 65.725C31.6486 65.355 31.7486 65.1 31.9486 64.96C32.1586 64.81 32.4086 64.735 32.6986 64.735ZM40.8452 76.15C40.0752 76.15 39.4052 76.005 38.8352 75.715C38.2752 75.415 37.8402 74.96 37.5302 74.35C37.2302 73.73 37.0802 72.94 37.0802 71.98C37.0802 70.98 37.2452 70.17 37.5752 69.55C37.9152 68.92 38.3802 68.46 38.9702 68.17C39.5602 67.87 40.2352 67.72 40.9952 67.72C41.5052 67.72 41.9602 67.77 42.3602 67.87C42.7602 67.97 43.1002 68.09 43.3802 68.23L42.8252 69.715C42.5152 69.595 42.2052 69.495 41.8952 69.415C41.5852 69.325 41.2852 69.28 40.9952 69.28C40.5452 69.28 40.1702 69.38 39.8702 69.58C39.5802 69.78 39.3652 70.08 39.2252 70.48C39.0852 70.87 39.0152 71.365 39.0152 71.965C39.0152 72.545 39.0852 73.03 39.2252 73.42C39.3752 73.81 39.5952 74.105 39.8852 74.305C40.1752 74.495 40.5352 74.59 40.9652 74.59C41.4252 74.59 41.8302 74.535 42.1802 74.425C42.5302 74.315 42.8602 74.165 43.1702 73.975V75.61C42.8602 75.8 42.5252 75.935 42.1652 76.015C41.8152 76.105 41.3752 76.15 40.8452 76.15ZM48.4649 67.87V76H46.5749V67.87H48.4649ZM47.5199 64.735C47.7999 64.735 48.0449 64.81 48.2549 64.96C48.4649 65.1 48.5699 65.355 48.5699 65.725C48.5699 66.085 48.4649 66.345 48.2549 66.505C48.0449 66.655 47.7999 66.73 47.5199 66.73C47.2299 66.73 46.9799 66.655 46.7699 66.505C46.5699 66.345 46.4699 66.085 46.4699 65.725C46.4699 65.355 46.5699 65.1 46.7699 64.96C46.9799 64.81 47.2299 64.735 47.5199 64.735ZM59.6415 71.92C59.6415 72.6 59.5515 73.2 59.3715 73.72C59.1915 74.24 58.9315 74.685 58.5915 75.055C58.2615 75.415 57.8515 75.69 57.3615 75.88C56.8815 76.06 56.3465 76.15 55.7565 76.15C55.1965 76.15 54.6815 76.06 54.2115 75.88C53.7415 75.69 53.3315 75.415 52.9815 75.055C52.6415 74.685 52.3765 74.24 52.1865 73.72C51.9965 73.2 51.9015 72.6 51.9015 71.92C51.9015 71.02 52.0565 70.26 52.3665 69.64C52.6765 69.01 53.1215 68.535 53.7015 68.215C54.2915 67.885 54.9865 67.72 55.7865 67.72C56.5465 67.72 57.2115 67.885 57.7815 68.215C58.3615 68.535 58.8165 69.01 59.1465 69.64C59.4765 70.26 59.6415 71.02 59.6415 71.92ZM53.8365 71.92C53.8365 72.49 53.9015 72.98 54.0315 73.39C54.1715 73.79 54.3815 74.095 54.6615 74.305C54.9515 74.515 55.3215 74.62 55.7715 74.62C56.2315 74.62 56.6015 74.515 56.8815 74.305C57.1715 74.095 57.3815 73.79 57.5115 73.39C57.6415 72.98 57.7065 72.49 57.7065 71.92C57.7065 71.34 57.6365 70.855 57.4965 70.465C57.3665 70.065 57.1565 69.765 56.8665 69.565C56.5865 69.355 56.2215 69.25 55.7715 69.25C55.0915 69.25 54.5965 69.48 54.2865 69.94C53.9865 70.4 53.8365 71.06 53.8365 71.92ZM67.4454 67.72C68.3554 67.72 69.0654 67.955 69.5754 68.425C70.0954 68.895 70.3554 69.655 70.3554 70.705V76H68.4654V71.08C68.4654 70.47 68.3454 70.015 68.1054 69.715C67.8654 69.405 67.4854 69.25 66.9654 69.25C66.2054 69.25 65.6854 69.49 65.4054 69.97C65.1254 70.44 64.9854 71.125 64.9854 72.025V76H63.0954V67.87H64.5504L64.8204 68.935H64.9254C65.1054 68.655 65.3254 68.425 65.5854 68.245C65.8454 68.065 66.1354 67.935 66.4554 67.855C66.7754 67.765 67.1054 67.72 67.4454 67.72ZM77.4594 67.72C78.5094 67.72 79.3044 67.95 79.8444 68.41C80.3944 68.86 80.6694 69.57 80.6694 70.54V76H79.3344L78.9594 74.875H78.8994C78.6694 75.165 78.4294 75.41 78.1794 75.61C77.9394 75.8 77.6594 75.935 77.3394 76.015C77.0294 76.105 76.6494 76.15 76.1994 76.15C75.7194 76.15 75.2844 76.06 74.8944 75.88C74.5144 75.7 74.2144 75.425 73.9944 75.055C73.7744 74.675 73.6644 74.2 73.6644 73.63C73.6644 72.79 73.9694 72.16 74.5794 71.74C75.1994 71.31 76.1344 71.075 77.3844 71.035L78.7944 70.99V70.585C78.7944 70.065 78.6694 69.695 78.4194 69.475C78.1694 69.255 77.8194 69.145 77.3694 69.145C76.9594 69.145 76.5644 69.205 76.1844 69.325C75.8044 69.445 75.4344 69.585 75.0744 69.745L74.4744 68.425C74.8744 68.215 75.3294 68.045 75.8394 67.915C76.3594 67.785 76.8994 67.72 77.4594 67.72ZM77.8044 72.19C76.9744 72.22 76.3994 72.365 76.0794 72.625C75.7594 72.875 75.5994 73.215 75.5994 73.645C75.5994 74.025 75.7144 74.3 75.9444 74.47C76.1744 74.64 76.4694 74.725 76.8294 74.725C77.3794 74.725 77.8444 74.57 78.2244 74.26C78.6044 73.94 78.7944 73.47 78.7944 72.85V72.16L77.8044 72.19ZM88.7978 67.72C88.9178 67.72 89.0578 67.725 89.2178 67.735C89.3778 67.745 89.5128 67.765 89.6228 67.795L89.4578 69.55C89.3678 69.53 89.2478 69.515 89.0978 69.505C88.9578 69.485 88.8328 69.475 88.7228 69.475C88.4228 69.475 88.1328 69.525 87.8528 69.625C87.5828 69.715 87.3378 69.855 87.1178 70.045C86.9078 70.225 86.7378 70.46 86.6078 70.75C86.4878 71.04 86.4278 71.385 86.4278 71.785V76H84.5378V67.87H85.9928L86.2628 69.28H86.3528C86.5128 68.99 86.7128 68.73 86.9528 68.5C87.1928 68.26 87.4678 68.07 87.7778 67.93C88.0978 67.79 88.4378 67.72 88.7978 67.72Z" fill="#74A0D4"/>
</svg>
