<svg width="39" height="39" viewBox="0 0 39 39" fill="none" xmlns="http://www.w3.org/2000/svg">
<path d="M36.4306 2.56943C35.6714 1.81019 34.4404 1.81019 33.6812 2.56943L19.5 16.7507L5.31883 2.56943C4.55961 1.81019 3.32865 1.81019 2.56943 2.56943C1.81019 3.32865 1.81019 4.55961 2.56943 5.31883L16.7506 19.5L2.56947 33.6811C1.81023 34.4405 1.81023 35.6713 2.56947 36.4307C3.32869 37.1898 4.55965 37.1898 5.31887 36.4307L19.5 22.2494L33.6812 36.4307C34.4404 37.1898 35.6714 37.1898 36.4306 36.4307C37.1898 35.6713 37.1898 34.4405 36.4306 33.6813L22.2494 19.5L36.4306 5.31883C37.1898 4.55961 37.1898 3.32865 36.4306 2.56943Z" stroke="#FBF8F3" stroke-width="3"/>
</svg>
