<svg width="40" height="51" viewBox="0 0 40 51" fill="none" xmlns="http://www.w3.org/2000/svg">
<path fill-rule="evenodd" clip-rule="evenodd" d="M20 0.0913696C8.96182 0.0913696 0 9.05319 0 20.0914C0 25.1423 3.00727 31.1477 6.72546 36.4896C12.0691 44.1696 18.7491 50.5023 18.7491 50.5023C19.4509 51.1659 20.5491 51.1659 21.2509 50.5023C21.2509 50.5023 27.9309 44.1696 33.2745 36.4896C36.9927 31.1477 40 25.1423 40 20.0914C40 9.05319 31.0382 0.0913696 20 0.0913696ZM20 10.0914C14.48 10.0914 10 14.5714 10 20.0914C10 25.6114 14.48 30.0914 20 30.0914C25.52 30.0914 30 25.6114 30 20.0914C30 14.5714 25.52 10.0914 20 10.0914ZM20 13.7277C23.5127 13.7277 26.3636 16.5786 26.3636 20.0914C26.3636 23.6041 23.5127 26.455 20 26.455C16.4873 26.455 13.6364 23.6041 13.6364 20.0914C13.6364 16.5786 16.4873 13.7277 20 13.7277Z" fill="#6C64C4"/>
</svg>
