<svg width="45" height="51" viewBox="0 0 45 51" fill="none" xmlns="http://www.w3.org/2000/svg">
<path d="M3 47.9999C3 46.4552 3.98925 42.6475 3.98925 42.6475C3.98925 42.6475 4.53232 39.1216 9.54523 34.7646C14.1991 30.7214 19.028 30.9578 19.028 30.9578H22.8419" stroke="#6C64C4" stroke-width="4.0479" stroke-linecap="round"/>
<path d="M42.5541 47.9999C42.5541 46.4552 41.5648 42.6475 41.5648 42.6475C41.5648 42.6475 41.0244 39.1216 36.0097 34.7646C31.355 30.7214 26.5261 30.9578 26.5261 30.9578H22.7131" stroke="#6C64C4" stroke-width="4.0479" stroke-linecap="round"/>
<path d="M22.713 47.9999H3" stroke="#6C64C4" stroke-width="4.0479" stroke-linecap="round"/>
<path d="M42.4893 47.9999H22.7772" stroke="#6C64C4" stroke-width="4.0479" stroke-linecap="round"/>
<path d="M22.7131 25.2843C28.8667 25.2843 33.8553 20.2958 33.8553 14.1421C33.8553 7.98844 28.8667 2.99991 22.7131 2.99991C16.5594 2.99991 11.5709 7.98844 11.5709 14.1421C11.5709 20.2958 16.5594 25.2843 22.7131 25.2843Z" stroke="#6C64C4" stroke-width="4.0479" stroke-linecap="round"/>
</svg>
