<svg width="45" height="45" viewBox="0 0 45 45" fill="none" xmlns="http://www.w3.org/2000/svg">
<g clip-path="url(#clip0_1147_1076)">
<path d="M22.5 45.0002C34.9264 45.0002 45 34.9267 45 22.5002C45 10.0738 34.9264 0.000244141 22.5 0.000244141C10.0736 0.000244141 0 10.0738 0 22.5002C0 34.9267 10.0736 45.0002 22.5 45.0002Z" fill="#B5B1E1" fill-opacity="0.5"/>
<path d="M22.5 45.0002C34.9264 45.0002 45 34.9267 45 22.5002C45 10.0738 34.9264 0.000244141 22.5 0.000244141C10.0736 0.000244141 0 10.0738 0 22.5002C0 34.9267 10.0736 45.0002 22.5 45.0002Z" fill="#5AC48C"/>
<path d="M20.2401 32.0839L12.0811 25.7108L13.8121 23.4945L19.6031 28.017L29.0025 14.1753L31.3284 15.7545L20.2401 32.0839Z" fill="#FBF8F3"/>
</g>
<defs>
<clipPath id="clip0_1147_1076">
<rect width="45" height="45" fill="white" transform="translate(0 0.000244141)"/>
</clipPath>
</defs>
</svg>
