<svg width="68" height="69" viewBox="0 0 68 69" fill="none" xmlns="http://www.w3.org/2000/svg">
<path d="M67.5294 55.9824L55.1954 33.1262C56.4537 30.2644 57.1577 27.1027 57.1577 23.7742C57.1577 10.95 46.7838 0.554688 33.9862 0.554688C21.1865 0.554688 10.8126 10.9521 10.8126 23.7742C10.8126 27.183 11.5524 30.4165 12.8655 33.3289L0.476723 55.9718C0.0762706 56.7005 0.143715 57.5981 0.643227 58.2613C1.14274 58.9244 1.98791 59.2349 2.79724 59.0448L13.3755 56.6139L16.9965 66.7199C17.2789 67.5055 17.9955 68.0504 18.8238 68.1117C18.8765 68.1159 18.9292 68.118 18.9797 68.118C19.7511 68.118 20.4677 67.6935 20.8366 67.005L31.6193 46.8775C32.397 46.9578 33.1874 46.9979 33.9862 46.9979C34.7175 46.9979 35.4405 46.9599 36.155 46.8923L47.1716 67.024C47.5447 67.7062 48.255 68.1223 49.02 68.1223C49.0748 68.1223 49.1296 68.1201 49.1844 68.1159C50.0106 68.0483 50.723 67.5055 51.0033 66.7241L54.6243 56.6181L65.2047 59.049C66.0161 59.2455 66.8528 58.9287 67.3544 58.2697C67.8561 57.6108 67.9235 56.7174 67.5315 55.9866L67.5294 55.9824ZM19.3654 60.8252L16.714 53.4226C16.3515 52.4152 15.2998 51.8302 14.2586 52.0773L6.43504 53.8767L15.3525 37.5762C18.2884 41.5531 22.4616 44.5522 27.3028 46.0116L19.3654 60.8252ZM15.0469 23.7742C15.0469 13.3091 23.5449 4.79561 33.9862 4.79561C44.4275 4.79561 52.9234 13.3091 52.9234 23.7742C52.9234 34.2392 44.4275 42.7527 33.9841 42.7527C23.5407 42.7527 15.0469 34.2371 15.0469 23.7742ZM53.7433 52.0773C52.6979 51.8302 51.6504 52.4152 51.2879 53.4205L48.6175 60.8759L40.5051 46.0559C45.4729 44.5965 49.7493 41.5193 52.7232 37.4283L61.6048 53.883L53.7433 52.0773Z" fill="#6C64C4"/>
<path d="M27.7528 13.085C28.1627 13.085 28.4949 13.4227 28.4949 13.8392V15.6997L30.1975 15.3536C31.8306 15.0216 33.5235 15.1796 35.0699 15.8082L35.2714 15.8902C36.8161 16.5182 38.5163 16.6354 40.1303 16.2253C40.8796 16.0349 41.6054 16.6109 41.6054 17.3959V24.8046C41.6054 25.4525 41.1715 26.0173 40.553 26.1745L40.3409 26.2284C38.5899 26.6733 36.7456 26.5461 35.0699 25.8648C33.5235 25.2361 31.8306 25.0782 30.1975 25.4102L28.4949 25.7562V33.9523C28.4949 34.3689 28.1627 34.7066 27.7528 34.7066C27.343 34.7066 27.0107 34.3689 27.0107 33.9523V13.8392C27.0107 13.4227 27.343 13.085 27.7528 13.085Z" fill="#6C64C4"/>
</svg>
