<svg width="50" height="50" viewBox="0 0 50 50" fill="none" xmlns="http://www.w3.org/2000/svg">
<path d="M18.5547 0C16.2954 0 14.4444 1.85098 14.4444 4.11024V16.0004C14.4444 18.2597 16.2954 20.1107 18.5547 20.1107H30.4449C32.7041 20.1107 34.5551 18.2597 34.5551 16.0004V4.11024C34.5552 4.08563 34.5545 4.06102 34.5529 4.03646C34.4053 1.82037 32.5935 0 30.3342 0H18.5547ZM18.5547 2.22222H30.3342C31.4066 2.22222 32.2561 3.06507 32.3329 4.17969V16.0004C32.3329 17.0745 31.519 17.8885 30.4449 17.8885H18.5547C17.4806 17.8885 16.6667 17.0745 16.6667 16.0004V4.11024C16.6667 3.03617 17.4806 2.22222 18.5547 2.22222ZM23.3333 5.55556V8.88889H20V11.1111H23.3333V14.4444H25.5556V11.1111H28.8889V8.88889H25.5556V5.55556H23.3333ZM4.11024 8.88889C1.84358 8.88889 0 10.7325 0 12.9991V50H20V36.6667H28.8889V50H50V12.9991C50 10.7325 48.1564 8.88889 45.8898 8.88889H36.7773V16.0004C36.7773 19.4893 33.9338 22.3329 30.4449 22.3329H18.5547C15.0658 22.3329 12.2222 19.4893 12.2222 16.0004V8.88889H4.11024ZM5.55556 24.4444H13.3333V31.1111H5.55556V24.4444ZM20 24.4444H28.8889V31.1111H20V24.4444ZM35.5556 24.4444H43.3333V31.1111H35.5556V24.4444ZM5.55556 36.6667H13.3333V43.3333H5.55556V36.6667ZM35.5556 36.6667H43.3333V43.3333H35.5556V36.6667Z" fill="#6C64C4"/>
</svg>
