<svg width="68" height="69" viewBox="0 0 68 69" fill="none" xmlns="http://www.w3.org/2000/svg">
<path d="M67.5284 55.9824L55.1945 33.1262C56.4527 30.2644 57.1567 27.1027 57.1567 23.7742C57.1567 10.95 46.7828 0.554688 33.9852 0.554688C21.1855 0.554688 10.8116 10.9521 10.8116 23.7742C10.8116 27.183 11.5514 30.4165 12.8645 33.3289L0.475747 55.9718C0.075294 56.7005 0.142739 57.5981 0.642251 58.2613C1.14176 58.9244 1.98693 59.2349 2.79627 59.0448L13.3745 56.6139L16.9955 66.7199C17.2779 67.5055 17.9945 68.0504 18.8228 68.1117C18.8755 68.1159 18.9282 68.118 18.9788 68.118C19.7502 68.118 20.4668 67.6935 20.8356 67.005L31.6183 46.8775C32.396 46.9578 33.1864 46.9979 33.9852 46.9979C34.7166 46.9979 35.4395 46.9599 36.154 46.8923L47.1707 67.024C47.5437 67.7062 48.254 68.1223 49.0191 68.1223C49.0739 68.1223 49.1287 68.1201 49.1835 68.1159C50.0096 68.0483 50.722 67.5055 51.0023 66.7241L54.6233 56.6181L65.2037 59.049C66.0151 59.2455 66.8519 58.9287 67.3535 58.2697C67.8551 57.6108 67.9225 56.7174 67.5305 55.9866L67.5284 55.9824ZM19.3645 60.8252L16.7131 53.4226C16.3505 52.4152 15.2988 51.8302 14.2576 52.0773L6.43406 53.8767L15.3515 37.5762C18.2875 41.5531 22.4606 44.5522 27.3019 46.0116L19.3645 60.8252ZM15.0459 23.7742C15.0459 13.3091 23.5439 4.79561 33.9852 4.79561C44.4265 4.79561 52.9224 13.3091 52.9224 23.7742C52.9224 34.2392 44.4265 42.7527 33.9831 42.7527C23.5397 42.7527 15.0459 34.2371 15.0459 23.7742ZM53.7423 52.0773C52.6969 51.8302 51.6494 52.4152 51.2869 53.4205L48.6165 60.8759L40.5042 46.0559C45.4719 44.5965 49.7483 41.5193 52.7222 37.4283L61.6038 53.883L53.7423 52.0773Z" fill="#6C64C4"/>
<path d="M24.5382 23.6197C24.5382 25.5498 25.1074 27.4366 26.1738 29.0414C27.2403 30.6462 28.756 31.897 30.5294 32.6356C32.3029 33.3742 34.2543 33.5675 36.1369 33.191C38.0196 32.8144 39.7489 31.885 41.1062 30.5202C42.4635 29.1554 43.3878 27.4165 43.7623 25.5235C44.1368 23.6305 43.9446 21.6683 43.21 19.8852C42.4755 18.102 41.2315 16.5779 39.6355 15.5055C38.0395 14.4332 36.163 13.8609 34.2435 13.8609C31.6695 13.8609 29.2009 14.889 27.3808 16.7192C25.5607 18.5493 24.5382 21.0315 24.5382 23.6197ZM39.9481 13.5464C39.7714 13.339 39.6791 13.0722 39.6896 12.7993C39.7001 12.5264 39.8126 12.2675 40.0046 12.0744C40.1967 11.8813 40.4541 11.7682 40.7255 11.7576C40.9969 11.7471 41.2623 11.8399 41.4686 12.0176L44.7037 15.2705C44.8166 15.3677 44.9082 15.4873 44.973 15.6218C45.0377 15.7564 45.0741 15.9029 45.0798 16.0522C45.0855 16.2016 45.0605 16.3505 45.0063 16.4896C44.9521 16.6288 44.8698 16.7551 44.7648 16.8608C44.6597 16.9665 44.534 17.0492 44.3956 17.1037C44.2572 17.1582 44.1091 17.1833 43.9606 17.1776C43.8121 17.1718 43.6664 17.1352 43.5326 17.0702C43.3988 17.0051 43.2798 16.9129 43.1832 16.7994L39.9481 13.5464ZM23.7726 16.7994C23.5717 16.5962 23.459 16.3214 23.459 16.0349C23.459 15.7485 23.5717 15.4737 23.7726 15.2705L27.0077 12.0176C27.214 11.8399 27.4793 11.7471 27.7507 11.7576C28.0221 11.7682 28.2796 11.8813 28.4716 12.0744C28.6637 12.2675 28.7762 12.5264 28.7867 12.7993C28.7971 13.0722 28.7048 13.339 28.5282 13.5464L25.2931 16.7994C25.091 17.0013 24.8177 17.1147 24.5328 17.1147C24.2479 17.1147 23.9746 17.0013 23.7726 16.7994ZM33.4779 24.3895C33.3779 24.2882 33.2989 24.1681 33.2452 24.036C33.1915 23.9038 33.1643 23.7624 33.1651 23.6197V19.2824C33.1651 18.9949 33.2788 18.7191 33.481 18.5157C33.6832 18.3124 33.9575 18.1981 34.2435 18.1981C34.5295 18.1981 34.8038 18.3124 35.006 18.5157C35.2083 18.7191 35.3219 18.9949 35.3219 19.2824V23.1751L37.7051 25.5714C37.8179 25.6686 37.9096 25.7883 37.9744 25.9228C38.0391 26.0573 38.0755 26.2038 38.0812 26.3532C38.0869 26.5025 38.0619 26.6514 38.0077 26.7906C37.9535 26.9297 37.8712 27.0561 37.7662 27.1617C37.6611 27.2674 37.5354 27.3501 37.397 27.4046C37.2586 27.4591 37.1105 27.4843 36.962 27.4785C36.8135 27.4728 36.6678 27.4362 36.534 27.3711C36.4002 27.306 36.2812 27.2138 36.1846 27.1003L33.4779 24.3895Z" fill="#6C64C4"/>
</svg>
