<svg width="23" height="23" viewBox="0 0 23 23" fill="none" xmlns="http://www.w3.org/2000/svg">
<path d="M15.2082 13.2711V7.45858V13.2711ZM15.2082 7.45858H9.39565H15.2082ZM15.2082 7.45858L7.45833 15.2084L15.2082 7.45858ZM5.13333 21.6669H17.5333C18.9801 21.6669 19.7035 21.6669 20.2561 21.3853C20.7422 21.1377 21.1374 20.7425 21.3852 20.2564C21.6666 19.7038 21.6666 18.9804 21.6666 17.5336V5.13358C21.6666 3.68678 21.6666 2.96337 21.3852 2.41077C21.1374 1.92468 20.7422 1.52948 20.2561 1.28181C19.7035 1.00024 18.9801 1.00024 17.5333 1.00024H5.13333C3.68654 1.00024 2.96314 1.00024 2.41053 1.28181C1.92445 1.52948 1.52925 1.92468 1.28157 2.41077C1 2.96337 1 3.68677 1 5.13358V17.5336C1 18.9804 1 19.7038 1.28157 20.2564C1.52925 20.7425 1.92445 21.1377 2.41053 21.3853C2.96314 21.6669 3.68654 21.6669 5.13333 21.6669Z" fill="#FBF8F3"/>
<path d="M15.2082 13.2711V7.45858M15.2082 7.45858H9.39565M15.2082 7.45858L7.45833 15.2084M5.13333 21.6669H17.5333C18.9801 21.6669 19.7035 21.6669 20.2561 21.3853C20.7422 21.1377 21.1374 20.7425 21.3852 20.2564C21.6666 19.7038 21.6666 18.9804 21.6666 17.5336V5.13358C21.6666 3.68678 21.6666 2.96337 21.3852 2.41077C21.1374 1.92468 20.7422 1.52948 20.2561 1.28181C19.7035 1.00024 18.9801 1.00024 17.5333 1.00024H5.13333C3.68654 1.00024 2.96314 1.00024 2.41053 1.28181C1.92445 1.52948 1.52925 1.92468 1.28157 2.41077C1 2.96337 1 3.68677 1 5.13358V17.5336C1 18.9804 1 19.7038 1.28157 20.2564C1.52925 20.7425 1.92445 21.1377 2.41053 21.3853C2.96314 21.6669 3.68654 21.6669 5.13333 21.6669Z" stroke="#232323" stroke-width="2" stroke-linecap="round" stroke-linejoin="round"/>
</svg>
