<svg width="51" height="50" viewBox="0 0 51 50" fill="none" xmlns="http://www.w3.org/2000/svg">
<path d="M44.526 13.3337L24.651 33.2086C22.6718 35.1877 16.7968 36.1044 15.4843 34.7919C14.1718 33.4794 15.0676 27.6044 17.0468 25.6252L36.9427 5.72943C37.4333 5.19414 38.0272 4.76385 38.6889 4.46448C39.3504 4.1651 40.0658 4.00281 40.7918 3.98752C41.5177 3.97225 42.2393 4.1042 42.9129 4.37548C43.5864 4.64675 44.1981 5.05175 44.7108 5.56591C45.2235 6.08008 45.6268 6.69279 45.8962 7.36708C46.1656 8.04139 46.2958 8.76327 46.2785 9.4892C46.2612 10.2151 46.0968 10.9301 45.7958 11.5908C45.4945 12.2516 45.0627 12.8445 44.526 13.3337Z" stroke="#74A0D4" stroke-width="3.125" stroke-linecap="round" stroke-linejoin="round"/>
<path d="M23.1094 8.33301H12.6927C10.4826 8.33301 8.36308 9.21097 6.80027 10.7738C5.23748 12.3366 4.35938 14.4562 4.35938 16.6663V37.4997C4.35938 39.7099 5.23748 41.8295 6.80027 43.3922C8.36308 44.9551 10.4826 45.833 12.6927 45.833H35.6094C40.2135 45.833 41.8594 42.083 41.8594 37.4997V27.083" stroke="#74A0D4" stroke-width="3.125" stroke-linecap="round" stroke-linejoin="round"/>
</svg>
