<svg width="35" height="35" viewBox="0 0 35 35" fill="none" xmlns="http://www.w3.org/2000/svg">
<path fill-rule="evenodd" clip-rule="evenodd" d="M31.5 29.0762C31.5 29.2635 31.4475 29.4367 31.3932 29.6064C31.0152 24.4544 27.8565 20.0934 23.4062 17.9952C25.144 16.3957 26.25 14.1242 26.25 11.5762C26.25 7.93448 24.024 4.81775 20.86 3.5H29.75C30.716 3.5 31.5 3.61023 31.5 4.57623V29.0762ZM27.9353 31.5H6.95626C6.95626 31.5 6.94574 31.0466 6.94574 30.9766C6.94574 25.5586 11.0705 20.93 16.3432 20.3788C17.5 20.5328 17.9462 20.3384 18.5902 20.2579C23.8437 20.8284 27.9457 25.5902 27.9457 30.9924C27.9457 31.0624 27.9353 31.5 27.9353 31.5ZM3.5 29.0762V4.57623C3.5 3.61023 4.284 3.5 5.25 3.5H14.14C10.976 4.81775 8.75 7.93448 8.75 11.5762C8.75 14.105 9.83848 16.3641 11.5535 17.9619C7.18723 19.9884 4.03724 24.1851 3.52099 29.1813C3.51924 29.1446 3.5 29.113 3.5 29.0762ZM22.75 11.5762C22.75 14.0962 20.9632 16.2052 18.5902 16.7092C17.5577 16.6252 17.269 16.6389 16.394 16.7036C14.0298 16.1944 12.25 14.091 12.25 11.5762C12.25 8.68173 14.6055 6.32623 17.5 6.32623C20.3945 6.32623 22.75 8.68173 22.75 11.5762ZM31.5 0H3.5C1.56625 0 0 1.56625 0 3.5V31.5C0 33.432 1.56625 35 3.5 35H31.5C33.4338 35 35 33.432 35 31.5V3.5C35 1.56625 33.4338 0 31.5 0Z" fill="#232323"/>
<path d="M27.9353 31.5H6.95626C6.95626 31.5 6.94574 31.0466 6.94574 30.9766C6.94574 25.5586 11.0705 20.93 16.3432 20.3788C17.5 20.5328 17.9462 20.3384 18.5902 20.2579C23.8437 20.8284 27.9457 25.5902 27.9457 30.9924C27.9457 31.0624 27.9353 31.5 27.9353 31.5Z" fill="#232323"/>
<path d="M22.75 11.5762C22.75 14.0962 20.9632 16.2052 18.5902 16.7092C17.5577 16.6252 17.269 16.6389 16.394 16.7036C14.0298 16.1944 12.25 14.091 12.25 11.5762C12.25 8.68173 14.6055 6.32623 17.5 6.32623C20.3945 6.32623 22.75 8.68173 22.75 11.5762Z" fill="#232323"/>
</svg>
