<svg width="50" height="50" viewBox="0 0 50 50" fill="none" xmlns="http://www.w3.org/2000/svg">
<path fill-rule="evenodd" clip-rule="evenodd" d="M24.9999 35.7147C30.9173 35.7147 35.7142 30.9177 35.7142 25.0004C35.7142 19.0831 30.9173 14.2861 24.9999 14.2861C19.0826 14.2861 14.2856 19.0831 14.2856 25.0004C14.2856 30.9177 19.0826 35.7147 24.9999 35.7147ZM32.1428 25.0004C32.1428 28.9452 28.9448 32.1433 24.9999 32.1433C21.0551 32.1433 17.8571 28.9452 17.8571 25.0004C17.8571 21.0556 21.0551 17.8576 24.9999 17.8576C28.9448 17.8576 32.1428 21.0556 32.1428 25.0004Z" fill="#232323"/>
<path fill-rule="evenodd" clip-rule="evenodd" d="M0 23.2136V26.785C0 29.5496 2.09395 31.825 4.7823 32.1118C5.0105 32.7605 5.26896 33.3948 5.55595 34.013C3.79436 36.1179 3.90243 39.2571 5.8802 41.235L8.40557 43.7604C10.3383 45.693 13.3804 45.8404 15.4822 44.202C16.2579 44.5871 17.0604 44.9268 17.8863 45.2175C18.173 47.9059 20.4484 50 23.213 50H26.7845C29.5484 50 31.8234 47.907 32.1109 45.2193C32.8614 44.9554 33.5927 44.6511 34.302 44.3088C36.397 45.8329 39.3471 45.65 41.2368 43.7604L43.7621 41.235C45.6518 39.3454 45.8346 36.3952 44.3107 34.3002C44.6525 33.5916 44.9566 32.8613 45.2204 32.1114C47.9075 31.8234 50 29.5486 50 26.785V23.2136C50 20.45 47.9075 18.1754 45.2204 17.8873C44.9295 17.0603 44.5895 16.2567 44.2038 15.4801C45.8407 13.3784 45.6932 10.3373 43.7609 8.40502L41.2355 5.87962C39.2582 3.90234 36.1198 3.79384 34.0152 5.55411C33.3959 5.2667 32.7605 5.00788 32.1107 4.77941C31.8227 2.09245 29.5479 0 26.7845 0H23.213C20.4489 0 18.1738 2.09341 17.8864 4.78125C17.1568 5.03804 16.4453 5.33309 15.7545 5.66395C13.6508 3.7902 10.4244 3.86207 8.40682 5.87962L5.88143 8.405C3.86388 10.4226 3.792 13.649 5.6658 15.7527C5.33459 16.4442 5.03927 17.1565 4.7823 17.887C2.09395 18.1737 0 20.4491 0 23.2136ZM28.5702 5.35714C28.5702 4.37093 27.7707 3.57143 26.7845 3.57143H23.213C22.2268 3.57143 21.4273 4.37093 21.4273 5.35714V6.04052C21.4273 6.8897 20.8261 7.61207 20.0105 7.84896C18.7439 8.21693 17.5352 8.72145 16.4017 9.3455C15.6578 9.75504 14.7219 9.6693 14.1214 9.06884L13.4576 8.40502C12.7602 7.70764 11.6296 7.70764 10.9322 8.405L8.40682 10.9304C7.70945 11.6277 7.70945 12.7584 8.40682 13.4558L9.07068 14.1196C9.67114 14.7201 9.75687 15.656 9.34734 16.3999C8.72295 17.5341 8.21821 18.7434 7.8502 20.0109C7.61339 20.8266 6.89096 21.4279 6.04168 21.4279H5.35714C4.37093 21.4279 3.57143 22.2275 3.57143 23.2136V26.785C3.57143 27.7713 4.37093 28.5707 5.35714 28.5707H6.04168C6.89096 28.5707 7.61338 29.1721 7.8502 29.9877C8.19561 31.1775 8.66146 32.3159 9.23366 33.3891C9.62861 34.1298 9.53741 35.0523 8.94384 35.6459L8.40557 36.1843C7.70821 36.8816 7.70821 38.0121 8.40557 38.7096L10.931 41.235C11.6283 41.9323 12.759 41.9323 13.4563 41.235L13.8908 40.8005C14.4982 40.193 15.4474 40.113 16.1943 40.5371C17.3874 41.215 18.6663 41.7593 20.0105 42.1498C20.8261 42.3866 21.4273 43.1091 21.4273 43.9582V44.6429C21.4273 45.6291 22.2268 46.4286 23.213 46.4286H26.7845C27.7707 46.4286 28.5702 45.6291 28.5702 44.6429V43.9596C28.5702 43.1104 29.1716 42.3879 29.9873 42.1511C31.2557 41.783 32.4659 41.278 33.6007 40.6532C34.3446 40.2438 35.2805 40.3295 35.8811 40.93L36.1861 41.235C36.8834 41.9323 38.0141 41.9323 38.7114 41.235L41.2368 38.7096C41.9341 38.0121 41.9341 36.8816 41.2368 36.1843L40.9318 35.8793C40.3313 35.2787 40.2455 34.3429 40.6552 33.5989C41.2796 32.4646 41.7843 31.2554 42.1523 29.9877C42.3891 29.1721 43.1116 28.5707 43.9609 28.5707H44.6429C45.6291 28.5707 46.4286 27.7713 46.4286 26.785V23.2136C46.4286 22.2275 45.6291 21.4279 44.6429 21.4279H43.9609C43.1116 21.4279 42.3891 20.8266 42.1523 20.0109C41.7618 18.6659 41.2173 17.3862 40.5391 16.1924C40.1148 15.4455 40.195 14.4963 40.8023 13.8889L41.2355 13.4558C41.9329 12.7584 41.9329 11.6277 41.2355 10.9304L38.7102 8.405C38.0129 7.70764 36.8821 7.70764 36.1848 8.405L35.6479 8.94193C35.0543 9.5355 34.1316 9.62671 33.3909 9.23177C32.3171 8.6592 31.1779 8.19312 29.9873 7.84762C29.1716 7.61089 28.5702 6.88843 28.5702 6.03905V5.35714Z" fill="#232323"/>
</svg>
