<svg width="50" height="50" viewBox="0 0 50 50" fill="none" xmlns="http://www.w3.org/2000/svg">
<path d="M2.4957 27.4328C2.4957 31.8962 3.81199 36.2593 6.27811 39.9705C8.74424 43.6817 12.2494 46.5742 16.3505 48.2822C20.4515 49.9903 24.9641 50.4372 29.3177 49.5664C33.6713 48.6957 37.6704 46.5463 40.8092 43.3903C43.948 40.2342 46.0855 36.2131 46.9515 31.8355C47.8175 27.4579 47.373 22.9204 45.6743 18.7967C43.9756 14.6731 41.099 11.1486 37.4082 8.66889C33.7173 6.18917 29.3781 4.86563 24.9392 4.86563C18.9868 4.86563 13.2782 7.24324 9.06925 11.4754C4.86028 15.7076 2.4957 21.4476 2.4957 27.4328ZM38.131 4.13847C37.7225 3.65878 37.509 3.04176 37.5332 2.41069C37.5575 1.77962 37.8177 1.18099 38.2618 0.73442C38.7059 0.287854 39.3012 0.0262455 39.9289 0.00187002C40.5565 -0.0225054 41.1701 0.192149 41.6472 0.602938L49.1283 8.12534C49.3894 8.35013 49.6014 8.62674 49.7511 8.93783C49.9008 9.24892 49.9849 9.58776 49.9981 9.93309C50.0114 10.2784 49.9535 10.6228 49.8282 10.9445C49.7028 11.2663 49.5126 11.5586 49.2696 11.8029C49.0266 12.0473 48.7359 12.2385 48.4159 12.3646C48.0959 12.4906 47.7535 12.5488 47.41 12.5355C47.0666 12.5221 46.7296 12.4376 46.4202 12.287C46.1108 12.1365 45.8357 11.9234 45.6122 11.6609L38.131 4.13847ZM0.725156 11.6609C0.260698 11.1911 0 10.5555 0 9.8931C0 9.23067 0.260698 8.59514 0.725156 8.12534L8.20633 0.602938C8.68338 0.192149 9.29703 -0.0225054 9.92464 0.00187002C10.5522 0.0262455 11.1476 0.287854 11.5917 0.73442C12.0358 1.18099 12.296 1.77962 12.3203 2.41069C12.3445 3.04176 12.131 3.65878 11.7225 4.13847L4.24131 11.6609C3.77408 12.1279 3.14204 12.39 2.48323 12.39C1.82442 12.39 1.19239 12.1279 0.725156 11.6609ZM23.1687 29.2131C22.9375 28.9788 22.7547 28.701 22.6306 28.3955C22.5065 28.09 22.4436 27.7628 22.4455 27.4328V17.403C22.4455 16.7379 22.7082 16.1002 23.1759 15.6299C23.6436 15.1597 24.2778 14.8955 24.9392 14.8955C25.6006 14.8955 26.2349 15.1597 26.7025 15.6299C27.1702 16.1002 27.4329 16.7379 27.4329 17.403V26.4048L32.9441 31.9463C33.2051 32.1711 33.4171 32.4477 33.5668 32.7588C33.7165 33.0699 33.8006 33.4087 33.8139 33.754C33.8271 34.0993 33.7693 34.4437 33.6439 34.7655C33.5185 35.0872 33.3284 35.3795 33.0853 35.6239C32.8423 35.8682 32.5517 36.0594 32.2317 36.1855C31.9117 36.3116 31.5692 36.3697 31.2258 36.3564C30.8823 36.3431 30.5453 36.2585 30.236 36.108C29.9266 35.9575 29.6515 35.7443 29.4279 35.4818L23.1687 29.2131Z" fill="#6C64C4"/>
</svg>
