<svg width="64" height="49" viewBox="0 0 64 49" fill="none" xmlns="http://www.w3.org/2000/svg">
<path d="M54.9824 30.7044C51.5697 34.0122 38.89 37.3952 30.2057 37.176C28.7762 37.1402 28.3342 34.9646 30.3134 34.93C34.381 34.8587 35.0342 35.2462 43.5444 33.3766C45.7845 32.8847 47.8188 32.5205 49.0629 31.5447C50.9898 30.0343 50.6811 26.4137 47.2403 25.7117C43.1407 24.8752 37.0851 25.7962 33.3349 25.7962C29.5849 25.7962 28.1432 23.1677 22.7383 23.5271C14.7418 24.0586 13.0897 24.8658 9.62628 25.5372V25.2087C9.62628 23.5712 8.35843 22.2432 6.79483 22.2432H3.36173C1.79782 22.2432 0.530273 23.5712 0.530273 25.2087V41.6288C0.530273 43.2662 1.79782 44.594 3.36173 44.594H6.79529C8.35889 44.594 9.62674 43.2662 9.62674 41.6288V41.3355C12.3629 43.0888 21.9923 48.6927 33.1261 48.576C46.3206 48.4371 63.3987 37.3117 63.8152 32.7281C64.2318 28.1444 58.3949 27.3963 54.9824 30.7044Z" fill="#FBF8F3"/>
<path d="M38.3518 0.979858C36.363 0.979858 34.5605 1.77349 33.2401 3.05979C31.9197 1.77349 30.1172 0.979858 28.1284 0.979858C24.0808 0.979858 20.7996 4.26093 20.7996 8.30858C20.7996 9.87972 21.2958 11.3342 22.1375 12.5272C22.4728 13.0517 22.8757 13.5286 23.3345 13.9454L30.9368 21.5592C31.698 22.3206 32.4596 23.0819 33.2209 23.0819C33.2272 23.0819 33.2337 23.0809 33.24 23.0809C33.2463 23.0809 33.2527 23.0819 33.259 23.0819C34.0204 23.0819 34.7817 22.3206 35.5429 21.5592L43.1453 13.9454C43.6041 13.5286 44.007 13.052 44.3423 12.5272C45.1843 11.3339 45.6802 9.87956 45.6802 8.30858C45.6807 4.26078 42.3995 0.979858 38.3518 0.979858Z" fill="#FBF8F3"/>
</svg>
