<svg width="86" height="86" viewBox="0 0 86 86" fill="none" xmlns="http://www.w3.org/2000/svg">
<path fill-rule="evenodd" clip-rule="evenodd" d="M67.248 60.5865C66.2236 63.5135 62.1516 65.935 58.9041 66.6431C56.6811 67.1195 53.7822 67.4964 44.0144 63.4106C33.0438 58.8227 17.8098 42.4801 17.8098 31.6047C17.8098 26.0683 20.9722 19.6215 26.5022 19.6215C29.163 19.6215 29.7496 19.6739 30.6252 21.794C31.6496 24.2918 34.1489 30.4459 34.4465 31.0768C35.6749 33.6647 33.1968 35.1797 31.3988 37.4329C30.825 38.111 30.1747 38.8444 30.9015 40.1061C31.6241 41.3422 34.1234 45.4538 37.7959 48.7542C42.5395 53.0202 46.3863 54.3822 47.7634 54.9616C48.7878 55.3907 50.012 55.2908 50.7601 54.4839C51.708 53.4496 52.8854 51.7335 54.084 50.0426C54.9299 48.8323 56.0053 48.6811 57.1317 49.1103C57.8925 49.3764 67.5625 53.9094 67.9706 54.6347C68.2723 55.1626 68.2724 57.6595 67.248 60.5865ZM42.514 0H42.4927C19.0594 0 0 19.2444 0 42.905C0 52.2869 2.99667 60.9909 8.09308 68.0509L2.79688 83.9937L19.1318 78.7248C25.8519 83.214 33.8726 85.81 42.514 85.81C65.9473 85.81 85.011 66.5656 85.011 42.905C85.011 19.2444 65.9473 0 42.514 0Z" fill="#FBF8F3"/>
</svg>
