<svg width="48" height="40" viewBox="0 0 48 40" fill="none" xmlns="http://www.w3.org/2000/svg">
<path d="M12.2319 18.2982C15.6497 18.2982 19.0675 18.2982 22.4853 18.2982C23.2085 18.2982 23.9324 18.3121 24.6541 18.2815C25.0311 18.2655 25.4009 18.3308 25.7779 18.3051C26.1784 18.2773 26.5826 18.2989 26.9853 18.2989H30.5798C31.0569 18.2989 31.0426 18.2933 31.2071 17.8653C31.5803 16.7229 32.2885 15.7112 33.2449 14.9542C34.2013 14.1972 35.3643 13.7277 36.5913 13.6035C38.1114 13.4088 39.6531 13.7475 40.9389 14.5588C42.2248 15.37 43.1704 16.6004 43.6057 18.0286C43.6177 18.1125 43.6636 18.1884 43.7332 18.2396C43.8028 18.2908 43.8904 18.3131 43.9769 18.3016C45.0671 18.294 46.1572 18.3058 47.2473 18.294C47.5242 18.294 47.6308 18.3698 47.6257 18.6498C47.611 19.4702 47.611 20.2907 47.6257 21.1111C47.6308 21.3953 47.5177 21.4669 47.2452 21.4641C46.2044 21.453 45.1629 21.4704 44.1221 21.4544C43.9948 21.4328 43.8638 21.4611 43.7578 21.5331C43.6519 21.6051 43.5797 21.715 43.557 21.8387C43.1321 23.1195 42.2967 24.2347 41.173 25.0216C40.0493 25.8084 38.696 26.2257 37.3109 26.2124C35.9502 26.1973 34.6289 25.767 33.5338 24.9824C32.4387 24.1978 31.6252 23.0985 31.2085 21.8401C31.1858 21.717 31.1142 21.6074 31.0092 21.535C30.9042 21.4627 30.7741 21.4332 30.647 21.453C20.6488 21.4604 10.6506 21.4625 0.652416 21.4593C0.554248 21.4542 0.455872 21.4542 0.357704 21.4593C0.108059 21.485 0.0143474 21.4016 0.0193546 21.1403C0.0365222 20.2821 0.0329456 19.4232 0.0193546 18.5643C0.0193546 18.3496 0.073729 18.2905 0.298338 18.2912C4.27597 18.2991 8.25384 18.3014 12.2319 18.2982ZM40.6478 19.8853C40.6501 19.0463 40.3108 18.2405 39.7039 17.6437C39.097 17.0468 38.2718 16.7073 37.4082 16.6992C36.5414 16.7004 35.7099 17.0327 35.0932 17.6244C34.4764 18.2161 34.124 19.0197 34.112 19.8617C34.1099 20.7013 34.4496 21.5078 35.057 22.1051C35.6644 22.7025 36.4902 23.0423 37.3545 23.0506C37.7851 23.0543 38.2121 22.9753 38.6111 22.818C39.0101 22.6608 39.3731 22.4284 39.6792 22.1342C39.9853 21.8401 40.2285 21.49 40.3948 21.1041C40.561 20.7183 40.647 20.3043 40.6478 19.886V19.8853Z" fill="#FBF8F3"/>
<path d="M37.2152 34.9797C33.8961 34.9797 30.5763 34.9839 27.2572 34.9741C27.1398 34.9565 27.02 34.9843 26.9233 35.0514C26.8267 35.1186 26.7609 35.2198 26.7401 35.3334C26.4109 36.3903 25.794 37.3413 24.9546 38.086C24.1152 38.8306 23.0844 39.3412 21.9711 39.5639C20.9062 39.8209 19.7905 39.8013 18.7358 39.5071C17.6812 39.2129 16.7247 38.6545 15.9624 37.8878C15.1961 37.1703 14.6348 36.2716 14.3336 35.2799C14.3253 35.2319 14.3073 35.1859 14.2807 35.1446C14.2541 35.1034 14.2194 35.0676 14.1785 35.0394C14.1376 35.0112 14.0915 34.9911 14.0426 34.9803C13.9937 34.9694 13.9431 34.968 13.8937 34.9762C11.0263 34.9822 8.15881 34.9834 5.29135 34.9797C3.65184 34.9797 2.01163 34.9748 0.372123 34.9839C0.112463 34.9839 0.0144628 34.9262 0.0187547 34.6503C0.035207 33.7921 0.0287739 32.9332 0.0101757 32.075C0.00445315 31.8221 0.147507 31.8207 0.324905 31.8207H7.3071C9.47522 31.8207 11.6433 31.8165 13.8115 31.8269C13.9339 31.8462 14.0593 31.8186 14.1612 31.7499C14.2631 31.6812 14.3336 31.5768 14.358 31.4586C14.713 30.3217 15.3996 29.3092 16.3347 28.5435C17.2699 27.7779 18.4134 27.292 19.627 27.1447C20.5571 26.9969 21.5097 27.0563 22.4128 27.3183C23.3159 27.5804 24.1459 28.0383 24.8402 28.6575C25.7518 29.4216 26.4182 30.424 26.7601 31.5455C26.8409 31.8005 27.0055 31.8235 27.2272 31.8235C29.0932 31.8202 30.959 31.8202 32.8246 31.8235H47.025C47.6881 31.8235 47.6194 31.7943 47.6201 32.3877C47.6201 33.0937 47.6201 33.7998 47.6201 34.5058C47.6201 34.9825 47.6201 34.9825 47.143 34.9825L37.2152 34.9797ZM20.5175 36.5717C21.3856 36.5789 22.2211 36.2512 22.8406 35.6604C23.4601 35.0697 23.8129 34.2643 23.8216 33.421C23.8193 32.5829 23.4792 31.779 22.8742 31.1815C22.2692 30.584 21.4474 30.2405 20.5848 30.2245C19.7214 30.2159 18.8892 30.5381 18.2686 31.1213C17.6481 31.7045 17.289 32.5018 17.2693 33.3404C17.2617 33.7604 17.34 34.1777 17.4996 34.5681C17.6592 34.9585 17.8969 35.3143 18.199 35.6148C18.5011 35.9154 18.8616 36.1547 19.2596 36.3189C19.6576 36.4832 20.0851 36.5691 20.5175 36.5717Z" fill="#FBF8F3"/>
<path d="M33.2387 7.90451H20.4524C20.0304 7.90451 19.6077 7.9177 19.1863 7.90033C19.1383 7.89366 19.0894 7.89627 19.0424 7.90801C18.9955 7.91974 18.9513 7.94038 18.9126 7.96872C18.8738 7.99707 18.8412 8.03257 18.8167 8.07318C18.7921 8.1138 18.776 8.15874 18.7693 8.20541C18.368 9.4833 17.557 10.6032 16.4545 11.4019C15.5118 12.0993 14.3878 12.5281 13.2084 12.6402C12.0497 12.7662 10.8777 12.5748 9.825 12.0878C9.00353 11.7263 8.27032 11.1997 7.67378 10.5427C7.07724 9.88565 6.63093 9.11319 6.36431 8.27628C6.35403 8.2156 6.33142 8.15752 6.2978 8.10542C6.26419 8.05331 6.22023 8.00823 6.1685 7.97279C6.11678 7.93735 6.05832 7.91225 5.99651 7.89897C5.9347 7.8857 5.87079 7.88452 5.8085 7.89547C3.9823 7.90868 2.15539 7.89547 0.328473 7.90936C0.0509311 7.90936 0.0123015 7.82808 0.0151628 7.58834C0.0256541 6.70165 0.0206497 5.81472 0.000143958 4.92757C-0.00486325 4.71215 0.12175 4.77539 0.22404 4.77539C2.08028 4.77539 3.93652 4.76775 5.79205 4.78443C5.92291 4.80503 6.05685 4.77482 6.16498 4.70032C6.27311 4.62583 6.34676 4.51303 6.37003 4.38625C6.7408 3.21848 7.45939 2.18361 8.43509 1.41224C9.41079 0.640878 10.5999 0.167606 11.8522 0.0521796C13.2307 -0.127219 14.6308 0.159082 15.8179 0.863119C17.2115 1.63966 18.2529 2.89749 18.735 4.38625C18.76 4.51445 18.8359 4.62794 18.9463 4.70229C19.0567 4.77664 19.1927 4.80588 19.3251 4.78373C28.5565 4.77539 37.7879 4.7733 47.0192 4.77747C47.1074 4.78247 47.1958 4.78247 47.2839 4.77747C47.5429 4.74829 47.6273 4.856 47.6237 5.10477C47.6122 5.94421 47.6122 6.78364 47.6237 7.62308C47.6237 7.851 47.5522 7.91076 47.319 7.91006C44.1277 7.90219 40.9364 7.9001 37.7452 7.90381L33.2387 7.90451ZM15.8272 6.35766C15.8229 5.50914 15.4741 4.69655 14.8567 4.09636C14.2393 3.49617 13.4031 3.15686 12.5296 3.15211C11.6657 3.16346 10.8413 3.50561 10.2356 4.10416C9.62989 4.70272 9.29186 5.50931 9.29495 6.34864C9.29269 6.76672 9.37562 7.18108 9.53899 7.56787C9.70235 7.95467 9.94291 8.30622 10.2468 8.60227C10.5507 8.89832 10.9119 9.13302 11.3096 9.29282C11.7073 9.45262 12.1336 9.53436 12.5639 9.53334C13.427 9.52286 14.2517 9.18476 14.8615 8.5913C15.4713 7.99785 15.8179 7.19615 15.8272 6.35766Z" fill="#FBF8F3"/>
</svg>
