<svg width="40" height="18" viewBox="0 0 40 18" fill="none" xmlns="http://www.w3.org/2000/svg">
<path d="M40 10.7405C39.9312 10.6361 38.2948 8.02806 35.0002 5.3716C33.3512 4.04502 31.2827 2.7068 28.7762 1.6933C26.273 0.680425 23.3275 -0.00122497 19.9998 0.000246518C16.6721 -0.000734474 13.7267 0.680425 11.2232 1.6933C7.46383 3.21538 4.68992 5.45982 2.83805 7.31607C0.986484 9.17673 0.0503125 10.6616 0 10.7405L2.29148 11.8955L3.35992 12.4385L3.3618 12.4356L3.36234 12.4346C3.43227 12.3205 4.95016 10.004 7.77539 7.78708C9.18695 6.6766 10.9195 5.59169 12.953 4.78903C14.9891 3.9863 17.321 3.46049 19.9998 3.4595C22.7423 3.46049 25.1218 4.01173 27.1917 4.84677C30.2921 6.09739 32.6858 8.01194 34.2861 9.62077C35.0865 10.4239 35.6875 11.1473 36.0814 11.6598C36.2787 11.9161 36.424 12.1199 36.5169 12.2547C36.5633 12.3224 36.5966 12.3724 36.6173 12.4032L36.637 12.4346L36.6403 12.439L37.3987 12.0524L36.6382 12.4356L40 10.7405Z" fill="#6C64C4"/>
<path d="M20 5.70752C16.2727 5.70752 13.251 8.41744 13.251 11.761C13.251 15.1041 16.2727 17.814 20 17.814C23.7274 17.814 26.7491 15.1041 26.7491 11.761C26.749 8.41751 23.7273 5.70752 20 5.70752Z" fill="#6C64C4"/>
</svg>
