<svg width="35" height="28" viewBox="0 0 35 28" fill="none" xmlns="http://www.w3.org/2000/svg">
<path d="M17.4242 27.0906C19.0784 27.0906 20.4431 25.8854 20.7326 24.2877H14.1158C14.4053 25.8854 15.77 27.0906 17.4242 27.0906ZM28.4521 18.6537C27.2804 17.4625 25.833 16.8879 25.833 11.1138C25.833 6.86726 22.7865 3.34954 18.8027 2.67683H18.5959C18.844 2.39653 19.0095 2.01813 19.0095 1.59769C19.0095 0.714756 18.3064 0 17.438 0C16.5695 0 15.8665 0.714756 15.8665 1.59769C15.8665 2.01813 16.0181 2.39653 16.28 2.67683H16.0595C12.0756 3.34954 9.02915 6.86726 9.02915 11.1138C9.02915 16.8879 7.58173 17.4625 6.41 18.6537C4.79716 20.2654 5.92753 23.0404 8.17448 23.0404H26.6739C28.9208 23.0404 30.0512 20.2654 28.4521 18.6537ZM1.33714 9.47402C1.33714 11.5062 2.06774 13.4682 3.41867 15.0519L2.48129 16.0049C0.896022 14.2671 0 11.9266 0 9.51606C0 7.0915 0.909807 4.75102 2.50886 3.04122L3.44624 3.99422C2.06774 5.53585 1.33714 7.42785 1.33714 9.47402ZM3.70815 9.51606C3.70815 8.07254 4.20441 6.74113 5.14179 5.61994L6.07917 6.57295C5.4037 7.41384 5.05908 8.40889 5.05908 9.48803C5.05908 10.5672 5.41749 11.5903 6.07917 12.4031L5.14179 13.3561C4.20441 12.291 3.70815 10.9456 3.70815 9.51606ZM31.5538 3.99422L32.4911 3.04122C34.0902 4.75102 35 7.07748 35 9.51606C35 11.9266 34.104 14.2671 32.5187 16.0049L31.5813 15.0519C32.9185 13.4823 33.6629 11.5202 33.6629 9.47402C33.6629 7.42785 32.9323 5.53585 31.5538 3.99422ZM29.872 13.3421L28.9346 12.3891C29.5963 11.5762 29.9547 10.5532 29.9547 9.47402C29.9547 8.40889 29.5963 7.39983 28.9346 6.55894L29.872 5.60593C30.8094 6.72711 31.3056 8.05852 31.3056 9.50205C31.3056 10.9456 30.7956 12.291 29.872 13.3421Z" fill="#232323"/>
</svg>
