<svg width="630" height="557" viewBox="0 0 630 557" fill="none" xmlns="http://www.w3.org/2000/svg">
<path d="M315 556.902C141.03 556.902 0 476.999 0 378.433C0 279.868 141.03 199.965 315 199.965C488.97 199.965 630 279.868 630 378.433C630 476.999 488.97 556.902 315 556.902Z" fill="#F0F0F0"/>
<path d="M505.27 414.909C450.73 414.909 406.517 390.884 406.517 361.247C406.517 331.611 450.73 307.586 505.27 307.586C559.809 307.586 604.022 331.611 604.022 361.247C604.022 390.884 559.809 414.909 505.27 414.909Z" fill="#E0E0E0"/>
<path d="M565.651 449.787L410.896 537.444C410.104 537.835 409.23 538.038 408.343 538.038C407.457 538.038 406.582 537.835 405.79 537.444L132.125 382.379C131.818 382.275 131.552 382.08 131.364 381.82C131.176 381.561 131.075 381.251 131.075 380.932C131.075 380.614 131.176 380.303 131.364 380.044C131.552 379.784 131.818 379.589 132.125 379.485L286.88 291.828C287.67 291.437 288.542 291.234 289.426 291.234C290.31 291.234 291.182 291.437 291.972 291.828L565.651 446.892C565.958 446.997 566.224 447.192 566.412 447.451C566.6 447.711 566.701 448.021 566.701 448.34C566.701 448.658 566.6 448.969 566.412 449.228C566.224 449.487 565.958 449.683 565.651 449.787Z" fill="#E0E0E0"/>
<path d="M136.794 493.596C90.1654 493.596 52.3659 472.181 52.3659 445.763C52.3659 419.346 90.1654 397.93 136.794 397.93C183.422 397.93 221.221 419.346 221.221 445.763C221.221 472.181 183.422 493.596 136.794 493.596Z" fill="#E0E0E0"/>
<path d="M495.825 405.186C496.115 405.186 496.401 405.13 496.669 405.021C496.936 404.912 497.179 404.752 497.383 404.55C497.587 404.349 497.748 404.11 497.858 403.847C497.967 403.584 498.023 403.302 498.021 403.018V264.426C498.021 263.854 497.79 263.306 497.378 262.902C496.966 262.498 496.407 262.271 495.825 262.271C495.243 262.271 494.684 262.498 494.272 262.902C493.86 263.306 493.629 263.854 493.629 264.426V403.018C493.629 403.591 493.86 404.14 494.271 404.547C494.683 404.953 495.241 405.183 495.825 405.186Z" fill="#455A64"/>
<path d="M408.448 354.731C408.882 354.734 409.307 354.613 409.671 354.383C410.035 354.152 410.323 353.822 410.498 353.433L453.804 245.864C454.018 245.332 454.007 244.738 453.775 244.214C453.544 243.689 453.109 243.276 452.567 243.066C452.025 242.856 451.42 242.866 450.885 243.094C450.351 243.322 449.93 243.748 449.716 244.28L406.411 351.784C406.28 352.111 406.232 352.464 406.271 352.813C406.31 353.161 406.436 353.496 406.636 353.786C406.837 354.076 407.107 354.314 407.423 354.479C407.739 354.644 408.091 354.73 408.448 354.731Z" fill="#455A64"/>
<path d="M413.66 341.815C413.957 341.815 414.251 341.755 414.524 341.639C414.797 341.523 415.043 341.353 415.247 341.14L495.839 257.455L576.272 340.777C576.467 340.995 576.704 341.172 576.97 341.298C577.236 341.424 577.525 341.496 577.82 341.509C578.115 341.523 578.41 341.478 578.687 341.377C578.964 341.276 579.217 341.121 579.432 340.922C579.646 340.723 579.818 340.483 579.936 340.217C580.054 339.952 580.116 339.665 580.119 339.375C580.121 339.086 580.064 338.798 579.951 338.53C579.838 338.263 579.67 338.02 579.46 337.817L497.452 252.834C497.247 252.621 496.999 252.45 496.723 252.334C496.448 252.218 496.151 252.159 495.852 252.159C495.555 252.16 495.261 252.221 494.988 252.337C494.715 252.453 494.469 252.622 494.265 252.834L412.086 338.181C411.888 338.386 411.733 338.627 411.63 338.891C411.528 339.155 411.479 339.436 411.488 339.718C411.497 340.001 411.562 340.279 411.68 340.536C411.799 340.793 411.968 341.025 412.178 341.218C412.576 341.597 413.106 341.81 413.66 341.815Z" fill="#455A64"/>
<path d="M583.203 354.731C583.479 354.731 583.753 354.678 584.01 354.575C584.279 354.473 584.525 354.32 584.734 354.124C584.942 353.929 585.109 353.694 585.225 353.434C585.341 353.175 585.403 352.895 585.407 352.612C585.412 352.329 585.36 352.048 585.253 351.784L541.948 244.215C541.734 243.683 541.313 243.257 540.779 243.029C540.244 242.801 539.639 242.792 539.097 243.002C538.556 243.212 538.121 243.624 537.889 244.149C537.657 244.673 537.647 245.267 537.861 245.799L581.166 353.368C581.327 353.769 581.608 354.113 581.971 354.356C582.334 354.599 582.763 354.73 583.203 354.731Z" fill="#455A64"/>
<path d="M411.437 338.492L405.71 353.316C405.698 353.441 405.698 353.567 405.71 353.693V353.965C405.875 354.367 406.18 354.698 406.57 354.9C407.111 355.169 407.709 355.309 408.316 355.309C408.922 355.309 409.521 355.169 410.062 354.9C410.363 354.751 410.602 354.503 410.736 354.199V354.004L416.027 340.102L411.437 338.492Z" fill="#6C64C4"/>
<path d="M580.227 338.492L585.954 353.316C585.966 353.441 585.966 353.567 585.954 353.693C585.967 353.783 585.967 353.875 585.954 353.965C585.799 354.372 585.491 354.707 585.094 354.9C584.555 355.169 583.959 355.309 583.355 355.309C582.75 355.309 582.154 355.169 581.616 354.9C581.307 354.76 581.066 354.509 580.941 354.199V354.004L575.571 340.102L580.227 338.492Z" fill="#6C64C4"/>
<path d="M493.298 392.296V404.563C493.325 404.779 493.407 404.985 493.537 405.162C493.666 405.339 493.839 405.481 494.039 405.575C494.595 405.851 495.209 405.995 495.832 405.995C496.455 405.995 497.069 405.851 497.624 405.575C497.825 405.481 497.997 405.339 498.127 405.162C498.256 404.985 498.338 404.779 498.365 404.563V392.296C497.586 391.887 496.716 391.673 495.832 391.673C494.948 391.673 494.078 391.887 493.298 392.296Z" fill="#6C64C4"/>
<path d="M413.144 250.848C413.144 247.59 416.054 244.137 422.191 240.23C433.527 233.013 458.843 218.527 474.702 209.895C474.708 209.864 474.724 209.836 474.748 209.814C474.772 209.793 474.802 209.781 474.834 209.778C487.043 202.509 498.431 167.89 506.87 141.592C509.754 132.622 513.272 127.547 517.452 125.159C518.444 124.6 522.107 122.627 522.928 122.147C531.208 117.266 542.093 123.121 555.638 130.403C568.124 137.101 577.872 145.681 579.83 168.461C581.034 182.324 579.896 208.818 577.026 228.898C572.873 262.453 567.767 262.505 560.373 268.112C547.622 277.796 518.92 291.347 506.791 295.968C484.86 304.432 466.925 291.373 453.565 284.896C441.318 278.826 429.493 271.966 418.17 264.361C414.824 261.986 413.091 259.571 413.131 257.027C413.17 256.028 413.144 251.9 413.144 250.848Z" fill="#6C64C4"/>
<path opacity="0.25" d="M413.144 250.848C413.144 247.59 416.054 244.137 422.191 240.23C433.527 233.013 458.843 218.527 474.702 209.895C474.708 209.864 474.724 209.836 474.748 209.814C474.772 209.793 474.802 209.781 474.834 209.778C487.043 202.509 498.431 167.89 506.87 141.592C509.754 132.622 513.272 127.547 517.452 125.159C518.444 124.6 522.107 122.627 522.928 122.147C531.208 117.266 542.093 123.121 555.638 130.403C568.124 137.101 577.872 145.681 579.83 168.461C581.034 182.324 579.896 208.818 577.026 228.898C572.873 262.453 567.767 262.505 560.373 268.112C547.622 277.796 518.92 291.347 506.791 295.968C484.86 304.432 466.925 291.373 453.565 284.896C441.318 278.826 429.493 271.966 418.17 264.361C414.824 261.986 413.091 259.571 413.131 257.027C413.17 256.028 413.144 251.9 413.144 250.848Z" fill="black"/>
<path d="M517.941 124.886C526.155 120.654 536.829 126.405 550.03 133.505C558.482 138.061 565.691 143.448 570.069 153.534L575.571 150.367C571.193 140.32 563.997 134.933 555.572 130.403C542.014 123.121 531.142 117.266 522.848 122.147L517.941 124.886Z" fill="#6C64C4"/>
<path d="M422.138 240.23C429.492 235.544 429.651 234.35 475.046 209.674C474.971 209.692 474.899 209.723 474.834 209.765C487.03 202.47 498.405 167.877 506.844 141.592C515.428 114.878 529.726 122.614 550.003 133.518C562.516 140.203 572.264 148.796 574.248 171.577C576.232 194.357 571.934 250.757 564.011 257.637C555.373 267.009 520.706 284.429 506.857 289.777C484.927 298.24 466.991 285.182 453.632 278.704C441.361 272.624 429.514 265.75 418.17 258.13C410.591 252.705 411.292 247.162 422.138 240.23Z" fill="#6C64C4"/>
<g opacity="0.1">
<path d="M550.03 133.518C529.753 122.614 515.455 114.878 506.87 141.592C498.432 167.89 487.03 202.509 474.835 209.778C474.835 209.778 495.773 209.778 526.102 225.835C557.636 242.541 562.45 258.883 563.892 257.715C571.828 251.225 576.193 194.344 574.222 171.577C572.251 148.809 562.516 140.203 550.03 133.518Z" fill="black"/>
</g>
<path d="M408.197 361.001L547.107 282.3L315.093 150.912L176.197 229.612L408.197 361.001Z" fill="#455A64"/>
<path d="M547.107 282.3V439.701L539.792 443.842V336.143L415.512 406.562V514.261L408.197 518.402V361.001L547.107 282.3Z" fill="#263238"/>
<path d="M539.792 443.842L532.477 439.701V340.284L539.792 336.143V443.842Z" fill="black"/>
<path d="M408.197 518.402L400.883 514.261V406.562L183.498 283.468V391.167L176.196 387.026V229.612L408.197 361V518.402Z" fill="#37474F"/>
<path d="M183.498 391.167L190.812 387.026V287.609L183.498 283.468V391.167Z" fill="#263238"/>
<g opacity="0.2">
<path d="M420.816 329.951C427.919 333.962 427.919 340.478 420.816 344.502C413.713 348.526 402.298 348.513 395.142 344.502C387.986 340.491 388.052 333.962 395.142 329.951C402.232 325.94 413.7 325.927 420.816 329.951Z" fill="black"/>
</g>
<g opacity="0.2">
<path d="M523.378 282.209L472.401 311.117C471.957 311.341 471.465 311.458 470.966 311.458C470.466 311.458 469.974 311.341 469.531 311.117L431.979 289.842C431.806 289.784 431.656 289.675 431.55 289.529C431.444 289.384 431.387 289.209 431.387 289.03C431.387 288.851 431.444 288.677 431.55 288.531C431.656 288.386 431.806 288.277 431.979 288.219L482.982 259.299C483.428 259.081 483.92 258.968 484.418 258.968C484.915 258.968 485.407 259.081 485.853 259.299L523.404 280.587C524.171 281.028 524.171 281.755 523.378 282.209Z" fill="black"/>
</g>
<g opacity="0.2">
<path d="M523.377 287.375L472.401 316.283C471.957 316.507 471.465 316.624 470.966 316.624C470.466 316.624 469.974 316.507 469.53 316.283L431.979 295.008C431.185 294.554 431.185 293.827 431.979 293.385L482.982 264.465C483.428 264.248 483.919 264.134 484.417 264.134C484.915 264.134 485.406 264.248 485.852 264.465L523.377 285.74C523.549 285.801 523.697 285.912 523.801 286.058C523.906 286.204 523.962 286.379 523.962 286.558C523.962 286.736 523.906 286.911 523.801 287.057C523.697 287.203 523.549 287.315 523.377 287.375Z" fill="black"/>
</g>
<path d="M523.377 285.688L472.401 314.595C471.957 314.82 471.465 314.937 470.966 314.937C470.466 314.937 469.974 314.82 469.53 314.595L431.926 293.372C431.133 292.918 431.133 292.191 431.926 291.75L482.982 262.777C483.428 262.56 483.919 262.447 484.417 262.447C484.915 262.447 485.406 262.56 485.852 262.777L523.377 284.052C523.549 284.113 523.697 284.224 523.801 284.371C523.906 284.517 523.962 284.691 523.962 284.87C523.962 285.049 523.906 285.223 523.801 285.37C523.697 285.516 523.549 285.627 523.377 285.688Z" fill="#EBEBEB"/>
<path d="M485.826 262.777L521.486 282.988L472.401 310.831C471.955 311.048 471.463 311.161 470.965 311.161C470.468 311.161 469.976 311.048 469.53 310.831L433.818 290.62L482.982 262.777C483.425 262.564 483.911 262.453 484.404 262.453C484.897 262.453 485.383 262.564 485.826 262.777Z" fill="#E0E0E0"/>
<path d="M523.377 280.6L472.401 309.507C471.957 309.731 471.465 309.848 470.965 309.848C470.466 309.848 469.974 309.731 469.53 309.507L431.926 288.18C431.755 288.119 431.607 288.008 431.502 287.862C431.398 287.716 431.342 287.541 431.342 287.362C431.342 287.184 431.398 287.009 431.502 286.863C431.607 286.717 431.755 286.605 431.926 286.545L482.982 257.689C483.426 257.465 483.918 257.348 484.417 257.348C484.917 257.348 485.409 257.465 485.852 257.689L523.377 278.964C523.549 279.025 523.697 279.136 523.801 279.282C523.906 279.429 523.962 279.603 523.962 279.782C523.962 279.961 523.906 280.135 523.801 280.281C523.697 280.428 523.549 280.539 523.377 280.6Z" fill="#FAFAFA"/>
<g opacity="0.2">
<path d="M465.787 256.508L438.209 272.175C437.685 272.437 437.104 272.574 436.516 272.574C435.927 272.574 435.347 272.437 434.823 272.175L345.819 221.72C345.613 221.653 345.434 221.524 345.308 221.352C345.181 221.179 345.113 220.972 345.113 220.76C345.113 220.547 345.181 220.34 345.308 220.167C345.434 219.995 345.613 219.866 345.819 219.799L373.384 204.132C373.91 203.869 374.493 203.733 375.083 203.733C375.674 203.733 376.256 203.869 376.783 204.132L465.787 254.587C465.993 254.654 466.171 254.783 466.298 254.955C466.425 255.128 466.493 255.335 466.493 255.547C466.493 255.76 466.425 255.967 466.298 256.139C466.171 256.312 465.993 256.441 465.787 256.508Z" fill="black"/>
</g>
<path d="M464.835 252.834V252.224C464.799 251.702 464.64 251.195 464.369 250.744C464.098 250.293 463.723 249.911 463.274 249.628L381.558 203.288C381.075 203.045 380.54 202.919 379.997 202.919C379.454 202.919 378.919 203.045 378.436 203.288L353.12 217.67C352.674 217.956 352.301 218.339 352.03 218.789C351.76 219.24 351.598 219.745 351.559 220.266V220.876C351.596 221.398 351.757 221.904 352.028 222.355C352.299 222.805 352.672 223.188 353.12 223.472L434.836 269.813C435.319 270.055 435.854 270.182 436.397 270.182C436.939 270.182 437.474 270.055 437.958 269.813L463.274 255.482C463.727 255.191 464.104 254.8 464.375 254.34C464.646 253.88 464.803 253.365 464.835 252.834Z" fill="#E0E0E0"/>
<path d="M463.274 251.342L438.011 265.724C437.526 265.961 436.992 266.084 436.45 266.084C435.909 266.084 435.374 265.961 434.889 265.724L353.12 219.384C352.934 219.32 352.772 219.201 352.657 219.042C352.542 218.884 352.481 218.695 352.481 218.501C352.481 218.307 352.542 218.118 352.657 217.96C352.772 217.801 352.934 217.682 353.12 217.618L378.49 203.236C378.973 202.993 379.508 202.867 380.05 202.867C380.593 202.867 381.128 202.993 381.611 203.236L463.327 249.576C463.512 249.645 463.671 249.769 463.781 249.931C463.891 250.092 463.947 250.283 463.941 250.477C463.935 250.672 463.868 250.859 463.748 251.014C463.629 251.169 463.463 251.283 463.274 251.342Z" fill="#FAFAFA"/>
<path d="M396.24 338.259C389.984 331.989 386.307 316.322 392.417 311.35H423.461C429.572 316.322 425.895 331.976 419.638 338.246L419.467 338.428L419.255 338.635L418.686 339.129L418.541 339.245L418.064 339.596C417.8 339.778 417.522 339.946 417.258 340.102C414.366 341.542 411.169 342.293 407.926 342.293C404.683 342.293 401.486 341.542 398.594 340.102C398.315 339.946 398.045 339.772 397.788 339.583L397.338 339.258L397.153 339.116C396.967 338.96 396.782 338.804 396.61 338.635L396.359 338.402L396.24 338.259Z" fill="#EBEBEB"/>
<path d="M420.816 309.351C427.919 313.362 427.919 319.878 420.816 323.902C413.713 327.926 402.298 327.913 395.142 323.902C387.986 319.891 388.052 313.362 395.142 309.351C402.232 305.34 413.7 305.327 420.816 309.351Z" fill="#FAFAFA"/>
<path d="M415.763 312.194C420.075 314.647 420.075 318.606 415.763 321.047C413.344 322.257 410.668 322.888 407.953 322.888C405.237 322.888 402.561 322.257 400.142 321.047C395.83 318.606 395.83 314.647 400.142 312.194C402.563 310.991 405.239 310.364 407.953 310.364C410.666 310.364 413.342 310.991 415.763 312.194Z" fill="#EBEBEB"/>
<path d="M400.142 316.4C402.563 315.196 405.239 314.569 407.953 314.569C410.666 314.569 413.342 315.196 415.763 316.4C416.828 316.946 417.737 317.745 418.408 318.723C417.737 319.701 416.828 320.5 415.763 321.047C413.344 322.257 410.668 322.888 407.953 322.888C405.237 322.888 402.561 322.257 400.142 321.047C399.073 320.505 398.163 319.706 397.497 318.723C398.163 317.741 399.073 316.941 400.142 316.4Z" fill="#E0E0E0"/>
<path d="M414.81 318.723C417.019 316.523 418.919 314.044 420.458 311.35C423.104 306.82 423.553 300.758 422.204 300.005C420.855 299.252 415.366 305.314 415.366 305.314C415.872 302.75 416.068 300.136 415.948 297.526C415.71 293.489 414.718 289.829 413.541 289.089C412.363 288.349 409.718 293.437 408.594 297.124C407.469 300.81 406.795 303.847 406.795 303.847C406.336 300.972 405.66 298.135 404.771 295.358C403.448 291.529 402.126 290.659 401.187 291.049C400.247 291.438 399.586 293.203 399.308 298.305C399.206 300.739 399.286 303.177 399.546 305.6C399.546 305.6 397.602 303.51 395.459 301.485C393.092 299.265 392.086 298.889 391.412 299.382C390.737 299.875 390.552 303.276 394.203 309.767C396.021 313.071 398.35 316.08 401.107 318.684C401.107 318.684 406.173 321.929 414.81 318.723Z" fill="#6C64C4"/>
<path d="M279.287 244.566L272.674 166.371C272.607 165.103 272.875 163.839 273.452 162.701C274.029 161.564 274.895 160.593 275.967 159.881C277.146 159.32 278.443 159.039 279.753 159.061C281.063 159.084 282.349 159.409 283.507 160.011L370.805 209.454C371.955 210.192 372.931 211.163 373.665 212.303C374.4 213.443 374.877 214.724 375.064 216.061L381.677 294.242C381.742 295.509 381.475 296.771 380.9 297.907C380.326 299.044 379.464 300.016 378.397 300.732C377.215 301.292 375.915 301.571 374.603 301.546C373.291 301.521 372.003 301.193 370.844 300.589L283.546 251.16C282.399 250.422 281.425 249.452 280.691 248.315C279.956 247.177 279.478 245.899 279.287 244.566Z" fill="#6C64C4"/>
<path opacity="0.5" d="M279.287 244.566L272.674 166.371C272.607 165.103 272.875 163.839 273.452 162.701C274.029 161.564 274.895 160.593 275.967 159.881C277.146 159.32 278.443 159.039 279.753 159.061C281.063 159.084 282.349 159.409 283.507 160.011L370.805 209.454C371.955 210.192 372.931 211.163 373.665 212.303C374.4 213.443 374.877 214.724 375.064 216.061L381.677 294.242C381.742 295.509 381.475 296.771 380.9 297.907C380.326 299.044 379.464 300.016 378.397 300.732C377.215 301.292 375.915 301.571 374.603 301.546C373.291 301.521 372.003 301.193 370.844 300.589L283.546 251.16C282.399 250.422 281.425 249.452 280.691 248.315C279.956 247.177 279.478 245.899 279.287 244.566Z" fill="white"/>
<path d="M279.287 244.566L272.674 166.371C272.606 165.103 272.874 163.839 273.451 162.701C274.028 161.564 274.895 160.593 275.967 159.881C277.146 159.32 278.443 159.039 279.753 159.061C281.063 159.084 282.349 159.409 283.507 160.011L370.804 209.454C371.958 210.159 372.927 211.119 373.635 212.257L360.077 219.942V294.502L283.546 251.147C282.4 250.41 281.427 249.442 280.693 248.307C279.958 247.172 279.479 245.897 279.287 244.566Z" fill="#6C64C4"/>
<path opacity="0.8" d="M279.287 244.566L272.674 166.371C272.606 165.103 272.874 163.839 273.451 162.701C274.028 161.564 274.895 160.593 275.967 159.881C277.146 159.32 278.443 159.039 279.753 159.061C281.063 159.084 282.349 159.409 283.507 160.011L370.804 209.454C371.958 210.159 372.927 211.119 373.635 212.257L360.077 219.942V294.502L283.546 251.147C282.4 250.41 281.427 249.442 280.693 248.307C279.958 247.172 279.479 245.897 279.287 244.566Z" fill="white"/>
<path d="M374.363 298.409L367.749 220.227C367.563 218.891 367.087 217.609 366.352 216.469C365.617 215.329 364.641 214.358 363.49 213.62L276.192 164.178C274.036 162.958 272.462 163.944 272.661 166.371L279.274 244.566C279.463 245.902 279.94 247.182 280.675 248.322C281.409 249.461 282.384 250.434 283.533 251.173L370.831 300.602C372.987 301.823 374.521 300.836 374.363 298.409Z" fill="#6C64C4"/>
<path opacity="0.65" d="M374.363 298.409L367.749 220.227C367.563 218.891 367.087 217.609 366.352 216.469C365.617 215.329 364.641 214.358 363.49 213.62L276.192 164.178C274.036 162.958 272.462 163.944 272.661 166.371L279.274 244.566C279.463 245.902 279.94 247.182 280.675 248.322C281.409 249.461 282.384 250.434 283.533 251.173L370.831 300.602C372.987 301.823 374.521 300.836 374.363 298.409Z" fill="white"/>
<path d="M329.338 235.674C328.994 231.676 326.137 226.964 322.95 225.147C319.762 223.33 317.447 225.147 317.791 229.106C318.135 233.065 320.979 237.829 324.166 239.646C327.354 241.463 329.669 239.685 329.338 235.674Z" fill="#6C64C4"/>
<path d="M327.288 259.312L305.834 247.084L309.484 245.02L330.925 257.248L327.288 259.312Z" fill="#6C64C4"/>
<g opacity="0.85">
<path d="M327.288 259.312L305.834 247.084L309.484 245.02L330.925 257.248L327.288 259.312Z" fill="white"/>
</g>
<path d="M295.887 282.988L321.997 297.786C322.512 298.058 323.092 298.188 323.677 298.162C324.169 298.151 324.653 298.031 325.092 297.812L336.586 291.321H336.652C337.086 291.029 337.445 290.643 337.702 290.193C337.959 289.743 338.106 289.241 338.134 288.725V288.128C338.134 287.155 337.459 286.752 336.586 287.246L329.642 291.14L328.095 292.022L328.438 290.296L330.872 257.248L327.235 259.325L305.781 247.097L294.657 280.392C294.59 280.894 294.67 281.405 294.888 281.865C295.106 282.325 295.452 282.714 295.887 282.988Z" fill="#6C64C4"/>
<g opacity="0.5">
<path d="M295.887 282.988L321.997 297.786C322.512 298.058 323.092 298.188 323.677 298.162C324.169 298.151 324.653 298.031 325.092 297.812L336.586 291.321H336.652C337.086 291.029 337.445 290.643 337.702 290.193C337.959 289.743 338.106 289.241 338.134 288.725V288.128C338.134 287.155 337.459 286.752 336.586 287.246L329.642 291.14L328.095 292.022L328.438 290.296L330.872 257.248L327.235 259.325L305.781 247.097L294.657 280.392C294.59 280.894 294.67 281.405 294.888 281.865C295.106 282.325 295.452 282.714 295.887 282.988Z" fill="white"/>
</g>
<path d="M337.698 286.999L328.796 281.95L326.984 293.723L337.698 286.999Z" fill="#6C64C4"/>
<g opacity="0.25">
<path d="M337.698 286.999L328.796 281.95L326.984 293.723L337.698 286.999Z" fill="black"/>
</g>
<path d="M327.288 259.325L330.925 257.248L328.478 290.205C328.28 291.153 328.835 291.503 329.682 291.049L336.626 287.155C337.499 286.661 338.173 287.064 338.173 288.037V288.634C338.146 289.15 337.998 289.652 337.741 290.102C337.484 290.552 337.125 290.938 336.692 291.231H336.626L325.132 297.721C324.692 297.94 324.209 298.06 323.716 298.071L327.288 259.325Z" fill="#6C64C4"/>
<g opacity="0.25">
<path d="M327.288 259.325L330.925 257.248L328.478 290.205C328.28 291.153 328.835 291.503 329.682 291.049L336.626 287.155C337.499 286.661 338.173 287.064 338.173 288.037V288.634C338.146 289.15 337.998 289.652 337.741 290.102C337.484 290.552 337.125 290.938 336.692 291.231H336.626L325.132 297.721C324.692 297.94 324.209 298.06 323.716 298.071L327.288 259.325Z" fill="white"/>
</g>
<path opacity="0.2" d="M424.982 280.937L420.961 283.209L389.242 264.984L385.737 260.934L393.039 262.829L424.982 280.937Z" fill="black"/>
<path d="M392.748 260.064L385.989 258.766C385.946 258.759 385.903 258.765 385.863 258.783C385.824 258.801 385.792 258.831 385.77 258.867C385.748 258.904 385.739 258.946 385.743 258.989C385.746 259.031 385.763 259.071 385.791 259.104L390.394 264.192L392.748 260.064Z" fill="#FFA8A7"/>
<path d="M385.79 259.104C385.763 259.071 385.746 259.031 385.742 258.989C385.739 258.946 385.748 258.904 385.77 258.867C385.791 258.831 385.824 258.801 385.863 258.783C385.902 258.765 385.946 258.759 385.989 258.766L387.312 259.013C387.129 259.123 386.982 259.281 386.886 259.469C386.79 259.657 386.75 259.868 386.769 260.077V260.194L385.79 259.104Z" fill="#263238"/>
<path d="M415.525 278.367L414.969 278.055L414.295 277.692L390.394 264.192C390.17 263.464 390.236 262.68 390.579 261.998C390.757 261.527 391.048 261.105 391.428 260.768C391.808 260.432 392.265 260.19 392.761 260.064L416.715 273.551L418.038 274.265C417.125 273.902 414.731 277.939 415.525 278.367Z" fill="#6C64C4"/>
<path d="M413.461 277.199L412.231 276.498C411.873 276.303 412.072 275.433 412.508 274.525C413.064 273.317 414.175 272.149 414.665 272.396L415.565 272.915L415.895 273.097C415.406 272.85 414.294 274.018 413.739 275.226C413.329 276.095 413.117 276.939 413.435 277.173L413.461 277.199Z" fill="#EBEBEB"/>
<path d="M413.156 277.017C412.31 276.576 414.731 272.474 415.591 272.915L416.821 273.616C415.974 273.175 413.553 277.277 414.4 277.718L413.156 277.017Z" fill="#6C64C4"/>
<path d="M415.524 278.367L414.294 277.692C413.46 277.263 415.776 273.291 416.649 273.551L417.879 274.252C417.125 273.902 414.73 277.938 415.524 278.367Z" fill="#EBEBEB"/>
<path opacity="0.15" d="M385.764 258.87L385.989 258.766L390.896 261.362L416.252 275.641C416.252 275.563 416.331 275.563 416.358 275.641C415.643 276.744 415.101 278.133 415.577 278.367L415.022 278.055L414.347 277.692L390.393 264.192L385.803 259.104C385.775 259.073 385.756 259.034 385.749 258.993C385.742 258.951 385.747 258.909 385.764 258.87Z" fill="black"/>
<path d="M420.749 281.287L415.578 278.367C415.207 278.185 415.406 277.315 415.829 276.42C416.385 275.2 417.496 274.031 417.985 274.265L423.183 277.186C424.215 277.77 423.263 279.976 422.112 280.95C421.947 281.136 421.728 281.268 421.485 281.328C421.241 281.389 420.984 281.374 420.749 281.287Z" fill="#F28F8F"/>
<path opacity="0.1" d="M420.445 279.704C420.575 279.154 420.834 278.641 421.201 278.206C421.569 277.771 422.034 277.426 422.561 277.199C422.688 277.15 422.824 277.134 422.959 277.153C423.093 277.171 423.22 277.222 423.329 277.302C424.109 278.003 423.21 280.028 422.111 280.95C421.95 281.128 421.738 281.256 421.502 281.316C421.267 281.376 421.018 281.366 420.789 281.287C420.392 281.067 420.246 280.483 420.445 279.704Z" fill="black"/>
<path d="M143.909 86.5804C133.328 86.866 130.325 91.0198 123.95 99.9633C117.575 108.907 95.8823 142.799 95.8823 142.799L65.1561 154.377L69.2036 171.966C69.2036 171.966 110.273 165.138 112.958 163.594C115.643 162.049 135.643 129.715 135.643 129.715L143.909 86.5804Z" fill="#E6E6E6"/>
<path d="M152.004 86.8661C142.005 84.4128 137.587 89.8906 134.254 95.9525C119.109 123.211 112.958 286.765 112.958 286.765C112.958 286.765 146.74 299.992 171.805 284.468L152.004 86.8661Z" fill="#F0F0F0"/>
<path d="M119.797 367.984L126.12 391.596C126.12 391.596 133.408 395.814 139.691 391.66C144.677 388.363 144.373 384.456 144.373 384.456L144.082 380.9L143.368 353.446L119.797 367.984Z" fill="#B16668"/>
<path d="M150.219 397.216C151.952 400.993 152.944 412.027 152.944 412.027C152.944 412.027 151.886 416.09 146.132 419.685L140.537 405.095L150.219 397.216Z" fill="#263238"/>
<path d="M146.132 419.737L131.595 417.777L126.067 406.419L142.904 411.326L146.132 419.737Z" fill="black"/>
<path d="M125.022 387.507L124.241 384.625C122.032 384.742 122.231 389.025 122.072 390.272C121.583 393.841 121.212 397.411 120.657 400.967C120.081 404.905 119.147 408.785 117.866 412.559C116.543 416.155 115.776 419.984 113.541 423.164C111.305 426.344 107.377 428.226 104.202 430.368C103.362 430.84 102.667 431.526 102.192 432.354C101.464 433.938 102.483 435.768 103.739 436.975C105.969 439.018 108.778 440.348 111.795 440.792C114.798 441.226 117.851 441.226 120.855 440.792C126.19 440.229 131.299 438.373 135.722 435.392C139.981 432.406 140.907 426.5 141.595 421.723C142.15 417.829 141.807 413.299 143.447 409.651C145.087 406.004 149.769 401.214 150.219 397.268C150.411 393.924 149.689 390.59 148.129 387.611C146.423 384.404 145.193 380.316 144.082 380.9L144.28 383.236C144.28 383.067 143.182 387.727 136.344 389.389C133.13 390.181 127.058 390.155 125.022 387.507Z" fill="#263238"/>
<path d="M135.378 413.078C135.193 417.44 135.378 419.244 135.378 421.217C135.193 424.826 134.214 427.331 133.381 430.836C133.023 432.275 132.518 433.675 131.873 435.015C131.185 436.573 129.902 438.676 130.656 440.207C131.029 440.91 131.542 441.533 132.164 442.038C134.916 444.349 138.467 445.534 142.084 445.348C143.99 445.327 145.854 444.803 147.481 443.829C150.669 441.778 151.925 438.04 153.632 434.885C155.497 431.472 154.412 429.693 154.716 425.942C155.088 420.981 155.746 416.045 156.687 411.157C149.796 403.421 144.002 410.923 135.378 413.078Z" fill="#B16668"/>
<path d="M124.823 197.317C114.493 232.65 97.0466 292.697 101.941 311.389C105.644 325.395 121.781 376.538 121.781 376.538C128.011 377.395 140.749 378.758 145.709 368.049C146.965 350.668 151.33 232.65 151.33 232.65L124.823 197.317Z" fill="#6C64C4"/>
<path opacity="0.4" d="M124.823 197.317C114.493 232.65 97.0466 292.697 101.941 311.389C105.644 325.395 121.781 376.538 121.781 376.538C128.011 377.395 140.749 378.758 145.709 368.049C146.965 350.668 151.33 232.65 151.33 232.65L124.823 197.317Z" fill="white"/>
<path opacity="0.25" d="M151.277 232.585C144.72 226.504 138.624 219.962 133.037 213.01C133.037 213.01 134.36 221.383 146.119 232.922C146.119 232.922 126.41 307.417 126.529 319.307C126.649 331.197 133.143 373.825 133.143 373.825L151.277 232.585Z" fill="black"/>
<path d="M124.823 197.317C133.249 214.464 136.556 221.318 151.277 232.65C151.277 232.65 133.275 306.067 132.482 320.32C131.159 344.009 134.267 397.034 135.379 413.143C138.169 416.726 151.767 417.336 156.052 414.285C158.01 406.835 164.584 380.614 167.666 357.093C169.941 339.713 167.031 324.162 166.66 319.606C176.197 295.735 197.611 260.895 205.442 235.934C206.726 231.613 207.538 227.17 207.862 222.681C209.608 206.857 203.008 194.773 199.132 186.335L124.823 197.317Z" fill="#6C64C4"/>
<g opacity="0.5">
<path d="M124.823 197.317C133.249 214.464 136.556 221.318 151.277 232.65C151.277 232.65 133.275 306.067 132.482 320.32C131.159 344.009 134.267 397.034 135.379 413.143C138.169 416.726 151.767 417.336 156.052 414.285C158.01 406.835 164.584 380.614 167.666 357.093C169.941 339.713 167.031 324.162 166.66 319.606C176.197 295.735 197.611 260.895 205.442 235.934C206.726 231.613 207.538 227.17 207.862 222.681C209.608 206.857 203.008 194.773 199.132 186.335L124.823 197.317Z" fill="white"/>
</g>
<path d="M158.142 437.91C159.187 441.908 158.235 452.928 158.235 452.928C158.235 452.928 156.502 456.744 150.219 459.328L147.243 444.037L158.142 437.91Z" fill="#263238"/>
<path d="M150.219 459.328L136.251 454.953L132.799 442.868L148.499 450.501L150.219 459.328Z" fill="black"/>
<path d="M135.431 424.086L135.325 421.217C133.447 422.139 129.413 437.105 123.884 447.412C118.831 456.809 108.699 462.105 105.432 466.207C101.067 471.698 109.718 478.642 123.487 475.631C130.312 474.125 140.682 469.738 143.407 465.182C146.131 460.626 147.057 452.292 149.319 448.943C151.581 445.594 157.017 441.713 158.142 437.91C159.019 434.466 158.978 430.858 158.023 427.435C156.911 423.995 156.964 420.464 155.205 420.178L154.941 422.878C154.028 424.735 150.457 426.863 143.499 427.305C140.179 427.499 136.965 427.071 135.431 424.086Z" fill="#37474F"/>
<path d="M159.795 57.3095L166.74 80.3498C186.051 80.3498 197.982 61.8916 197.982 42.9401C197.982 23.9107 185.628 8.00964 166.237 8.00964H159.941C140.55 8.00964 124.823 20.6396 124.823 39.682C124.823 52.0783 140.484 57.3095 159.795 57.3095Z" fill="#263238"/>
<path d="M121.199 22.0806C119.717 19.7048 119.002 16.9444 119.149 14.1625C119.241 12.7705 119.655 11.4174 120.358 10.2053C121.062 8.99324 122.037 7.95395 123.21 7.166C126.821 4.9074 131.82 5.9718 135.114 8.58087C135.382 6.10216 136.622 3.82312 138.573 2.22643C140.523 0.629745 143.03 -0.159182 145.563 0.0267411C148.777 0.27337 151.634 2.02574 154.412 3.60935C159.141 5.96191 164.245 7.50286 169.504 8.1655L163.591 10.3981C164.395 11.6125 164.906 12.9909 165.085 14.4283C165.264 15.8657 165.106 17.3242 164.623 18.6927C164.369 19.2538 164.059 19.7887 163.697 20.2893C159.772 26.0508 154.351 30.68 147.994 33.6988C141.637 36.7177 134.574 38.017 127.535 37.4624C125.561 37.4206 123.63 36.8845 121.927 35.9048C120.933 35.211 120.092 34.3281 119.453 33.3087C118.218 31.5368 117.61 29.4165 117.72 27.2727C117.798 26.1872 118.159 25.1396 118.768 24.2303C119.377 23.3211 120.214 22.5808 121.199 22.0806Z" fill="#263238"/>
<path d="M174.874 89.579L187.532 90.8771C195.931 92.8891 199.727 96.5236 200.587 103.858C200.984 107.258 203.087 116.319 200.151 127.677C197.505 137.957 190.389 163.126 190.389 163.126C190.389 163.126 199.582 185.751 203.894 197.317C174.027 216.437 137.164 208.883 124.783 197.317C125.828 186.387 129.77 176.198 130.656 166.449C130.656 166.449 130.021 151.21 128.791 144.603C119.334 134.491 120.551 124.808 124.823 117.007C132.653 102.585 144.465 89.9295 148.274 89.9425L174.874 89.579Z" fill="#455A64"/>
<path d="M152.176 81.3883C148.393 82.2969 145.444 83.8027 143.909 86.5805C142.375 89.3583 130.405 107.855 130.405 107.855C130.405 107.855 140.06 95.3812 147.335 91.6039C148.82 90.7533 150.468 90.214 152.176 90.0203V81.3883Z" fill="#E0E0E0"/>
<path d="M174.874 89.5791C174.874 89.5791 161.647 116.643 159.293 134.907C156.938 153.17 161.938 215.477 161.938 235.246C161.938 259.078 161.859 298.409 161.859 298.409C161.859 298.409 176.951 298.409 187.321 295.501C194.9 293.385 203.881 289.582 209.317 283.209C209.317 283.209 210.799 234.428 207.677 211.193C204.727 189.126 192.757 161.945 192.757 161.945L208.1 104.546C208.1 104.546 207.386 94.6804 197.929 91.9155C188.974 89.2675 174.874 89.5791 174.874 89.5791Z" fill="#FAFAFA"/>
<path d="M187.321 101.391L202.981 123.886L192.81 161.919C192.81 161.919 202.254 181.481 205.733 200.419C196.302 174.237 187.784 166.384 187.784 166.384L193.313 144.24C193.313 144.24 191.368 137.269 188.657 125.379C185.945 113.489 186.395 106.596 187.321 101.391Z" fill="#EBEBEB"/>
<path d="M178.763 122.601C178.763 121.472 178.869 119.032 179.067 115.942C180.046 100.872 180.496 87.2424 175.31 86.0872L174.847 88.164C178.644 88.9688 177.387 108.427 176.911 115.748C176.699 118.902 176.54 121.381 176.593 122.627L178.763 122.601Z" fill="#6C64C4"/>
<path d="M174.874 81.3883C175.839 81.3934 176.784 81.6574 177.607 82.1516C178.43 82.6457 179.1 83.3514 179.543 84.1921C180.787 86.269 183.406 89.7607 183.406 89.7607C183.406 89.7607 183.498 103.598 182.083 107.193C180.866 110.309 165.92 121.848 165.92 121.848C165.92 121.848 167.375 134.063 167.494 138.334C167.613 142.604 159.941 158.09 159.002 166.384C159.002 166.384 157.415 146.239 158.658 136.88C160.841 120.589 171.197 96.225 174.874 89.553V81.3883Z" fill="#EBEBEB"/>
<path d="M181.898 173.005H182.083V171.525C180.287 171.377 178.566 170.749 177.109 169.707C178.664 168.692 180.055 167.453 181.236 166.034C183.683 162.932 189.027 140.8 187.374 135.647C186.051 131.324 181.673 121.784 177.81 121.628H177.718C173.869 121.628 168.816 130.636 167.07 134.79C164.98 139.8 168.393 162.296 170.562 165.58C171.613 167.098 172.893 168.45 174.358 169.591C172.825 170.52 171.055 171.006 169.253 170.993L169.067 172.459C171.415 172.498 173.719 171.843 175.681 170.577C177.479 171.945 179.634 172.786 181.898 173.005ZM177.652 123.095C179.913 123.185 183.974 130.26 185.826 136.075C187.347 140.813 182.202 162.231 179.94 165.112C178.738 166.539 177.314 167.77 175.721 168.76C174.187 167.641 172.847 166.286 171.752 164.749C169.742 161.699 166.462 139.93 168.406 135.335C170.76 129.818 175.377 123.095 177.652 123.095Z" fill="#455A64"/>
<path d="M166.858 171.615C166.84 172.046 166.952 172.473 167.181 172.841C167.41 173.209 167.745 173.502 168.144 173.683C168.543 173.864 168.987 173.926 169.421 173.859C169.856 173.792 170.26 173.601 170.583 173.309C170.907 173.017 171.135 172.638 171.238 172.219C171.342 171.8 171.317 171.36 171.166 170.955C171.015 170.55 170.745 170.199 170.39 169.944C170.036 169.69 169.612 169.544 169.173 169.526C168.584 169.504 168.011 169.712 167.577 170.103C167.144 170.495 166.885 171.038 166.858 171.615Z" fill="#263238"/>
<path d="M179.833 172.161C179.815 172.591 179.928 173.018 180.157 173.386C180.386 173.754 180.721 174.047 181.119 174.228C181.518 174.409 181.963 174.471 182.397 174.404C182.831 174.338 183.235 174.146 183.559 173.854C183.882 173.563 184.11 173.183 184.214 172.764C184.317 172.345 184.292 171.905 184.141 171.501C183.99 171.096 183.72 170.744 183.366 170.489C183.011 170.235 182.587 170.089 182.148 170.071C181.856 170.059 181.565 170.103 181.29 170.202C181.016 170.3 180.764 170.451 180.549 170.645C180.334 170.839 180.16 171.073 180.037 171.333C179.914 171.593 179.845 171.874 179.833 172.161Z" fill="#263238"/>
<path d="M166.647 144.538L167.969 144.447C168.034 144.444 168.098 144.428 168.156 144.4C168.215 144.372 168.267 144.332 168.309 144.283C168.351 144.235 168.382 144.178 168.401 144.117C168.42 144.056 168.426 143.992 168.419 143.928C168.168 139.774 168.3 136.711 168.816 135.491C171.064 130.117 175.694 123.393 177.718 123.471C179.741 123.549 183.789 130.649 185.561 136.192C185.958 137.49 185.839 140.514 185.217 144.629C185.198 144.756 185.23 144.886 185.307 144.99C185.383 145.094 185.498 145.165 185.627 145.187L186.95 145.382C187.016 145.391 187.083 145.387 187.148 145.371C187.212 145.354 187.273 145.325 187.326 145.285C187.379 145.245 187.423 145.195 187.456 145.138C187.489 145.081 187.511 145.019 187.519 144.954C188.22 140.333 188.299 137.165 187.783 135.517C186.831 132.557 182.373 121.433 177.876 121.238C173.379 121.044 167.969 131.765 166.766 134.647C166.104 136.231 165.906 139.398 166.21 144.071C166.215 144.187 166.262 144.297 166.342 144.383C166.422 144.468 166.529 144.523 166.647 144.538Z" fill="#6C64C4"/>
<path d="M218.788 257.676C216.486 259.792 215.229 262.635 212.862 266.84C210.494 271.046 198.815 271.448 197.889 259.623C197.188 250.719 200.362 247.707 206.725 240.775C213.404 233.48 215.983 232.286 215.679 225.523C215.507 222.187 210.388 173.9 210.388 173.9L193.55 128.378C193.55 128.378 187.466 107.103 190.522 92.2789C190.522 92.2789 201.434 91.4092 209.145 98.9639C218.153 107.791 228.351 151.431 230.599 160.245C233.839 171.413 235.254 183.014 234.792 194.617C234.263 208.779 234.21 238.374 232.292 244.903C230.374 251.432 224.991 251.978 218.788 257.676Z" fill="#B16668"/>
<path d="M189.768 90.3188C189.768 90.3188 201.368 89.6049 208.153 95.0567C214.938 100.509 219.158 115.748 224.144 130.974C229.131 146.2 233.575 161.036 235.215 171.706C236.538 180.637 233.893 227.782 233.893 227.782C233.893 227.782 226.168 230.534 215.679 225.523L209.185 173.952L189.741 122.186C186.157 111.853 186.166 100.646 189.768 90.3188Z" fill="#F0F0F0"/>
<path d="M144.571 25.4034C135.736 26.2991 128.355 35.5152 128.845 56.4268C129.268 74.1581 135.127 78.4936 138.103 79.7916C141.08 81.0897 146.714 81.2584 152.217 80.3498V90.0202C152.217 90.0202 145.868 103.754 148.566 108.66C163.631 102.559 174.874 89.5789 174.874 89.5789V67.6679C174.874 67.6679 178.591 71.9904 184.676 68.0313C190.76 64.0723 190.998 54.246 187.453 50.7154C183.908 47.1847 176.29 48.314 174.874 53.1816C174.874 53.1816 169.584 53.0518 159.835 46.2371C152.418 41.2612 147.016 33.888 144.571 25.4034Z" fill="#B16668"/>
<path d="M153.379 49.6251C153.351 49.943 153.387 50.2635 153.486 50.5674C153.586 50.8713 153.746 51.1526 153.958 51.3946C154.171 51.6366 154.43 51.8345 154.721 51.9764C155.013 52.1184 155.33 52.2016 155.655 52.2212C156.15 52.2641 156.648 52.1612 157.083 51.9255C157.518 51.6898 157.872 51.332 158.099 50.8979C158.327 50.4639 158.417 49.9732 158.358 49.4887C158.3 49.0041 158.095 48.5477 157.771 48.1778C157.447 47.8078 157.017 47.5411 156.538 47.4118C156.058 47.2825 155.55 47.2964 155.079 47.4518C154.607 47.6072 154.194 47.8969 153.891 48.2841C153.589 48.6712 153.41 49.1381 153.379 49.6251Z" fill="#263238"/>
<path d="M150.84 66.2141L143.671 68.4597C143.8 68.9301 144.025 69.37 144.331 69.7533C144.637 70.1366 145.019 70.4553 145.454 70.6904C145.888 70.9255 146.367 71.0721 146.861 71.1215C147.354 71.171 147.853 71.1221 148.327 70.9779C149.289 70.6514 150.085 69.9749 150.553 69.0884C151.021 68.2019 151.124 67.1729 150.84 66.2141Z" fill="#9A4A4D"/>
<path d="M132.071 44.1474L136.939 40.8374C136.734 40.5157 136.465 40.2383 136.147 40.0222C135.83 39.8061 135.47 39.6558 135.092 39.5805C134.713 39.5052 134.322 39.5064 133.944 39.5841C133.566 39.6619 133.208 39.8145 132.892 40.0326C132.239 40.4815 131.79 41.1608 131.637 41.9279C131.484 42.695 131.64 43.4904 132.071 44.1474Z" fill="#263238"/>
<path d="M133.79 49.1707C133.785 49.6339 133.92 50.0882 134.176 50.4771C134.433 50.8661 134.8 51.1724 135.233 51.3581C135.665 51.5438 136.144 51.6006 136.609 51.5214C137.074 51.4423 137.505 51.2307 137.849 50.913C138.193 50.5953 138.433 50.1855 138.542 49.7345C138.65 49.2836 138.62 48.8114 138.457 48.3767C138.294 47.9421 138.004 47.5641 137.623 47.2898C137.243 47.0156 136.788 46.8571 136.317 46.8342C135.994 46.8238 135.673 46.8761 135.371 46.9881C135.069 47.1001 134.793 47.2695 134.558 47.4867C134.323 47.7038 134.134 47.9644 134.003 48.2534C133.871 48.5424 133.798 48.8541 133.79 49.1707Z" fill="#263238"/>
<path d="M146 47.8208L145.616 62.0214L137.997 59.7109L146 47.8208Z" fill="#9A4A4D"/>
<path d="M152.176 80.3498C157.996 79.6099 169.94 75.2744 171.805 70.6274C171.059 72.9757 169.595 75.0421 167.612 76.5465C164.041 79.558 152.176 82.9329 152.176 82.9329V80.3498Z" fill="#9A4A4D"/>
<path d="M55.0247 136.932L112.536 163.788L128.355 230.949L127.072 232.286L72.4049 205.3L53.7417 138.269L55.0247 136.932Z" fill="#6C64C4"/>
<path opacity="0.35" d="M111.239 165.138L127.072 232.286L128.355 230.949L112.536 163.788L111.239 165.138Z" fill="black"/>
<path opacity="0.25" d="M53.7415 138.269L111.239 165.138L127.072 232.286L72.4047 205.3L53.7415 138.269Z" fill="black"/>
<g opacity="0.2">
<path d="M80.8831 191.644C80.354 192.942 75.9494 195.876 69.5608 195.357L68.4894 191.463L80.8831 191.644Z" fill="black"/>
</g>
<g opacity="0.1">
<path d="M71.0688 152.028L70.5927 149.782C70.3281 148.484 73.701 149.185 78.1321 151.236L86.5973 155.13C91.0283 157.181 94.8245 159.855 95.089 161.101L95.5652 163.347L71.0688 152.028Z" fill="black"/>
</g>
<path d="M67.5768 141.501C67.4048 140.722 68.7804 140.813 70.6322 141.709L73.9786 143.318C73.9786 143.318 72.9866 138.45 80.4334 141.631C87.8802 144.811 89.4939 150.431 89.4939 150.431L93.0784 152.184C95.0624 153.144 96.848 154.572 97.0465 155.351L97.4697 156.779L67.8546 142.955C67.8546 142.955 67.7355 142.28 67.5768 141.501Z" fill="#37474F"/>
<path d="M70.7249 146.161C73.4364 147.368 74.5739 147.965 74.9707 149.886C75.4336 152.067 75.6188 153.651 75.6188 153.651L88.74 159.777C88.74 159.777 88.1051 157 87.9067 155.883C87.7083 154.767 88.1448 154.274 90.2346 155.26L91.0547 153.002L69.8916 143.318L70.7249 146.161Z" fill="#37474F"/>
<path d="M70.3015 152.067C70.3015 152.067 70.0899 151.055 69.8254 149.821C69.5608 148.588 72.9337 149.224 77.3647 151.275L85.8432 155.169C90.261 157.22 94.0572 159.894 94.3217 161.14L94.7979 163.386L70.3015 152.067Z" fill="#37474F"/>
<path d="M60.1436 161.244C60.1436 161.244 62.1806 168.617 62.7097 170.473C63.2387 172.329 72.6563 176.6 77.3784 177.184C86.3991 178.287 87.4176 180.209 85.2484 186.491C83.2511 192.28 77.3783 194.474 69.2305 193.527C65.4212 193.085 60.1436 189.762 58.067 183.96C55.4216 176.561 56.8501 168.643 55.8052 164.32C54.7603 159.998 57.8421 158.674 60.1436 161.244Z" fill="#B16668"/>
</svg>
