<svg width="512" height="616" viewBox="0 0 512 616" fill="none" xmlns="http://www.w3.org/2000/svg">
<path d="M186.105 102.073C178.172 94.6161 163.818 91.7163 145.798 102.756C127.778 113.796 113.527 149.112 109.053 174.091C104.579 199.071 101.762 231.694 110.71 245.53C119.658 259.366 152.136 274.031 152.136 274.031L156.072 260.422L186.105 102.073Z" fill="#6C64C4"/>
<path opacity="0.4" d="M186.105 102.073C178.172 94.6161 163.818 91.7163 145.798 102.756C127.778 113.796 113.527 149.112 109.053 174.091C104.579 199.071 101.762 231.694 110.71 245.53C119.658 259.366 152.136 274.031 152.136 274.031L156.072 260.422L186.105 102.073Z" fill="white"/>
<path d="M119.616 241.387C133.68 258.227 156.154 260.505 156.154 260.505L242.837 210.318L208.122 190.289L119.616 241.387Z" fill="#6C64C4"/>
<path opacity="0.2" d="M119.616 241.387C133.68 258.227 156.154 260.505 156.154 260.505L242.837 210.318L208.122 190.289L119.616 241.387Z" fill="black"/>
<path d="M119.616 241.387C113.92 234.635 112.76 217.257 115.846 190.392C119.201 160.897 130.117 115.267 156.132 100.229C186.642 82.6231 217.629 126.369 208.184 190.392L119.616 241.387Z" fill="#6C64C4"/>
<path d="M322.686 384.141C338.697 402.285 350.42 405.889 354.708 409.762C358.995 413.636 357.297 422.004 347.727 424.676C338.158 427.348 327.408 425.773 320.676 419.994C313.945 414.216 308.953 406.324 302.201 402.223C295.448 398.122 292.093 397.148 290.726 391.866C289.359 386.585 293.004 370.118 293.004 370.118L322.686 384.141Z" fill="#263238"/>
<path d="M313.509 355.308C312.66 362.392 311.624 368.626 317.009 376.684C318.749 379.275 320.644 381.758 322.685 384.119C332.047 394.911 339.649 403.32 340.995 404.832C342.341 406.344 335.485 411.833 326.993 408.975C318.501 406.116 310.526 394.476 304.602 387.578C301.972 384.492 299.404 381.696 297.374 379.542C294.643 376.67 293.059 372.897 292.92 368.937L292.527 357.752L313.509 355.308Z" fill="#FFA8A7"/>
<path d="M274.074 413.822C290.085 431.987 301.788 435.57 306.096 439.444C310.404 443.317 308.685 451.706 299.116 454.378C289.546 457.05 278.796 455.475 272.044 449.676C265.291 443.876 260.341 436.026 253.589 431.925C246.836 427.824 243.46 426.85 242.114 421.569C240.767 416.287 244.392 399.82 244.392 399.82L274.074 413.822Z" fill="#263238"/>
<path d="M264.876 385.01C264.047 392.115 262.991 398.328 268.397 406.386C270.131 408.98 272.027 411.464 274.072 413.822C283.434 424.634 291.015 433.043 292.362 434.534C293.708 436.026 286.873 441.535 278.36 438.677C269.847 435.819 261.893 424.178 255.99 417.301C253.359 414.194 250.791 411.419 248.761 409.265C246.034 406.39 244.451 402.619 244.308 398.66L243.894 387.454L264.876 385.01Z" fill="#FFA8A7"/>
<path d="M200.128 2.34662e-05H212.431C217.237 -0.00541938 221.996 0.936015 226.437 2.77054C230.879 4.60507 234.915 7.29675 238.316 10.6918C241.717 14.0868 244.415 18.1186 246.257 22.5568C248.099 26.9951 249.049 31.7528 249.051 36.5582V128.44H163.549V36.5582C163.554 26.8605 167.411 17.5618 174.27 10.7064C181.129 3.85102 190.43 2.19115e-05 200.128 2.34662e-05Z" fill="#263238"/>
<path d="M254.189 106.754C239.877 91.7161 232.565 90.1833 223.866 90.1833L240.436 138.859C240.436 138.859 267.694 156.879 283.643 166.821L293.772 144.492C293.772 144.492 268.502 121.729 254.189 106.754Z" fill="#FFA8A7"/>
<path d="M157.46 216.532C152.137 228.007 145.281 240.207 152.22 252.013C159.159 263.819 215.518 252.013 215.518 252.013V216.532H157.46Z" fill="#263238"/>
<path d="M218.438 90.1837C224.652 89.6659 231.694 89.8523 239.151 102.404C246.608 114.956 250.792 121.999 248.43 140.267C246.069 158.536 237.245 172.621 236.603 179.456C235.961 186.291 237.597 219.142 237.597 219.142C237.597 219.142 226.703 234.697 199.61 235.422C191.623 235.597 183.697 233.993 176.407 230.726C169.116 227.458 162.644 222.61 157.459 216.532L178.172 179.373L172.87 103.854L193.106 91.7372L218.438 90.1837Z" fill="#6C64C4"/>
<path d="M218.438 90.1837C224.652 89.6659 231.694 89.8523 239.151 102.404C246.608 114.956 250.792 121.999 248.43 140.267C246.069 158.536 237.245 172.621 236.603 179.456C235.961 186.291 237.597 219.142 237.597 219.142C237.597 219.142 226.703 234.697 199.61 235.422C191.623 235.597 183.697 233.993 176.407 230.726C169.116 227.458 162.644 222.61 157.459 216.532L178.172 179.373L172.87 103.854L193.106 91.7372L218.438 90.1837Z" fill="#E0E0E0"/>
<path d="M193.128 116.903C191.165 116.903 189.222 116.516 187.409 115.765C185.595 115.013 183.948 113.911 182.561 112.522C181.174 111.133 180.074 109.484 179.325 107.67C178.576 105.856 178.192 103.912 178.194 101.949V58.4518H193.128V116.903Z" fill="#263238"/>
<path d="M234.967 17.2747C239.461 19.9466 245.054 31.2973 244.494 55.0756C244.039 75.2499 237.493 80.221 234.138 81.6709C230.783 83.1208 224.527 82.2302 218.355 81.1945V93.3115C218.355 93.3115 226.868 103.192 226.329 108.722C225.791 114.252 214.047 115.599 206.093 110.172C200.934 106.456 196.503 101.822 193.023 96.5013V67.234C193.023 67.234 188.88 72.7851 182.087 68.2697C175.293 63.7543 175.024 52.5901 178.98 48.5925C182.936 44.5949 191.407 45.8377 193.023 51.3887C193.023 51.3887 202.841 51.7408 215.807 44.5742C220.925 41.8549 225.329 37.9646 228.658 33.2205C231.988 28.4764 234.149 23.0127 234.967 17.2747Z" fill="#FFA8A7"/>
<path d="M221.981 50.0216C222.011 50.6918 221.774 51.3465 221.321 51.8418C220.869 52.337 220.238 52.6322 219.568 52.6625C218.898 52.6927 218.243 52.4554 217.748 52.0029C217.252 51.5503 216.957 50.9196 216.927 50.2494C216.912 49.9176 216.962 49.586 217.076 49.2737C217.189 48.9614 217.362 48.6744 217.586 48.4292C217.811 48.184 218.081 47.9853 218.382 47.8445C218.682 47.7037 219.008 47.6235 219.34 47.6085C219.672 47.5936 220.003 47.6441 220.316 47.7573C220.628 47.8705 220.915 48.044 221.16 48.2681C221.405 48.4922 221.604 48.7624 221.745 49.0632C221.886 49.3641 221.966 49.6897 221.981 50.0216Z" fill="#263238"/>
<path d="M217.402 42.2542L212.141 45.5061C211.713 44.7855 211.582 43.927 211.775 43.1116C211.968 42.2961 212.471 41.5877 213.176 41.1357C213.526 40.9255 213.914 40.7875 214.317 40.73C214.721 40.6725 215.132 40.6966 215.526 40.801C215.92 40.9053 216.289 41.0876 216.611 41.3373C216.933 41.5869 217.202 41.8987 217.402 42.2542Z" fill="#263238"/>
<path d="M222.665 67.1099L228.548 68.9947C228.436 69.385 228.248 69.7489 227.994 70.0653C227.74 70.3817 227.425 70.6441 227.068 70.8371C226.711 71.03 226.319 71.1497 225.915 71.189C225.511 71.2283 225.103 71.1865 224.716 71.066C223.934 70.7916 223.287 70.2295 222.906 69.4944C222.525 68.7592 222.439 67.9064 222.665 67.1099Z" fill="#F28F8F"/>
<path d="M242.837 42.2334L237.7 38.6708C237.914 38.3231 238.197 38.023 238.532 37.789C238.866 37.5551 239.245 37.3923 239.645 37.3107C240.045 37.2292 240.457 37.2306 240.857 37.3149C241.256 37.3992 241.634 37.5646 241.967 37.8009C242.65 38.2896 243.12 39.0206 243.282 39.8445C243.443 40.6684 243.284 41.5229 242.837 42.2334Z" fill="#263238"/>
<path d="M241.594 48.1782C241.602 48.6783 241.462 49.1696 241.192 49.5908C240.922 50.012 240.534 50.3444 240.077 50.5467C239.619 50.7489 239.112 50.812 238.619 50.7281C238.126 50.6442 237.669 50.4169 237.304 50.0747C236.939 49.7325 236.683 49.2905 236.568 48.8037C236.452 48.317 236.483 47.8071 236.655 47.3376C236.828 46.8681 237.135 46.4598 237.538 46.1636C237.941 45.8673 238.423 45.6964 238.922 45.6719C239.262 45.6608 239.601 45.7169 239.919 45.8369C240.238 45.9569 240.529 46.1385 240.778 46.3712C241.026 46.604 241.226 46.8834 241.366 47.1934C241.506 47.5035 241.583 47.8381 241.594 48.1782Z" fill="#263238"/>
<path d="M229.624 46.7283L230.038 61.9936L238.075 59.5081L229.624 46.7283Z" fill="#F28F8F"/>
<path d="M218.438 81.1945C213.322 80.6146 203.048 77.5076 200.77 74.0486C201.209 76.2581 202.439 78.2317 204.229 79.5996C207.584 82.8101 218.438 85.1299 218.438 85.1299V81.1945Z" fill="#F28F8F"/>
<path d="M164.812 425.69L0 330.536L346.982 130.201L511.794 225.356L164.812 425.69Z" fill="#6C64C4"/>
<path opacity="0.4" d="M164.812 425.69L0 330.536L346.982 130.201L511.794 225.356L164.812 425.69Z" fill="white"/>
<path d="M0 330.536V520.845L8.67869 525.858V395.636L156.154 480.766V610.988L164.812 616V425.69L0 330.536Z" fill="#6C64C4"/>
<path opacity="0.3" d="M0 330.536V520.845L8.67869 525.858V395.636L156.154 480.766V610.988L164.812 616V425.69L0 330.536Z" fill="black"/>
<path d="M8.67871 525.858L17.3574 520.845V400.649L8.67871 395.636V525.858Z" fill="#6C64C4"/>
<path opacity="0.5" d="M8.67871 525.858L17.3574 520.845V400.649L8.67871 395.636V525.858Z" fill="black"/>
<path d="M164.812 616L173.491 610.987V480.766L503.115 290.456V420.678L511.794 415.665V225.356L164.812 425.69V616Z" fill="#6C64C4"/>
<path opacity="0.1" d="M164.812 616L173.491 610.987V480.766L503.115 290.456V420.678L511.794 415.665V225.356L164.812 425.69V616Z" fill="black"/>
<path d="M173.491 470.762V430.703L277.593 370.594V410.653L173.491 470.762Z" fill="#6C64C4"/>
<path opacity="0.3" d="M173.491 470.762V430.703L277.593 370.594V410.653L173.491 470.762Z" fill="black"/>
<path d="M286.252 405.661V365.582L390.355 305.494V345.552L286.252 405.661Z" fill="#6C64C4"/>
<path opacity="0.3" d="M286.252 405.661V365.582L390.355 305.494V345.552L286.252 405.661Z" fill="black"/>
<path d="M399.034 340.54V300.481L503.116 240.373V280.452L399.034 340.54Z" fill="#6C64C4"/>
<path opacity="0.3" d="M399.034 340.54V300.481L503.116 240.373V280.452L399.034 340.54Z" fill="black"/>
<path d="M242.839 390.624V393.834C242.839 395.595 238.696 399.427 233.58 402.368L217.383 411.73C212.267 414.671 208.124 415.645 208.124 413.801V410.612L242.839 390.624Z" fill="#263238"/>
<path d="M355.66 325.523V328.733C355.66 330.494 351.518 334.326 346.402 337.267L330.204 346.629C325.109 349.57 320.966 350.523 320.966 348.701V345.49L355.66 325.523Z" fill="#263238"/>
<path d="M468.422 260.423V263.612C468.422 265.394 464.279 269.205 459.184 272.167L442.966 281.508C437.871 284.47 433.728 285.423 433.728 283.58V280.369L468.422 260.423Z" fill="#263238"/>
<path d="M503.115 420.678L494.457 415.665V295.469L503.115 290.456V420.678Z" fill="#6C64C4"/>
<path opacity="0.3" d="M503.115 420.678L494.457 415.665V295.469L503.115 290.456V420.678Z" fill="black"/>
<path d="M260.238 238.239V237.515C260.275 236.873 260.461 236.249 260.781 235.692C261.101 235.135 261.546 234.66 262.081 234.304L371.259 171.337C371.834 171.049 372.469 170.899 373.112 170.899C373.756 170.899 374.391 171.049 374.966 171.337L397.295 184.22C397.83 184.576 398.275 185.051 398.595 185.608C398.915 186.165 399.101 186.789 399.138 187.431V188.177C399.095 188.816 398.905 189.437 398.581 189.991C398.258 190.544 397.81 191.015 397.274 191.366L288.221 254.333C287.645 254.621 287.011 254.771 286.367 254.771C285.724 254.771 285.089 254.621 284.513 254.333L262.081 241.388C261.554 241.039 261.114 240.573 260.794 240.028C260.475 239.482 260.284 238.87 260.238 238.239Z" fill="#6C64C4"/>
<path opacity="0.7" d="M260.238 238.239V237.515C260.275 236.873 260.461 236.249 260.781 235.692C261.101 235.135 261.546 234.66 262.081 234.304L371.259 171.337C371.834 171.049 372.469 170.899 373.112 170.899C373.756 170.899 374.391 171.049 374.966 171.337L397.295 184.22C397.83 184.576 398.275 185.051 398.595 185.608C398.915 186.165 399.101 186.789 399.138 187.431V188.177C399.095 188.816 398.905 189.437 398.581 189.991C398.258 190.544 397.81 191.015 397.274 191.366L288.221 254.333C287.645 254.621 287.011 254.771 286.367 254.771C285.724 254.771 285.089 254.621 284.513 254.333L262.081 241.388C261.554 241.039 261.114 240.573 260.794 240.028C260.475 239.482 260.284 238.87 260.238 238.239Z" fill="white"/>
<path d="M262.08 236.437L284.408 249.342C284.984 249.63 285.618 249.78 286.262 249.78C286.906 249.78 287.54 249.63 288.116 249.342L397.169 186.375C397.367 186.284 397.535 186.138 397.653 185.954C397.771 185.771 397.834 185.557 397.834 185.339C397.834 185.121 397.771 184.907 397.653 184.724C397.535 184.54 397.367 184.394 397.169 184.303L374.84 171.42C374.265 171.132 373.63 170.982 372.987 170.982C372.343 170.982 371.708 171.132 371.133 171.42L262.059 234.387C261.065 234.905 261.065 235.858 262.08 236.437Z" fill="#6C64C4"/>
<path opacity="0.9" d="M262.08 236.437L284.408 249.342C284.984 249.63 285.618 249.78 286.262 249.78C286.906 249.78 287.54 249.63 288.116 249.342L397.169 186.375C397.367 186.284 397.535 186.138 397.653 185.954C397.771 185.771 397.834 185.557 397.834 185.339C397.834 185.121 397.771 184.907 397.653 184.724C397.535 184.54 397.367 184.394 397.169 184.303L374.84 171.42C374.265 171.132 373.63 170.982 372.987 170.982C372.343 170.982 371.708 171.132 371.133 171.42L262.059 234.387C261.065 234.905 261.065 235.858 262.08 236.437Z" fill="white"/>
<path d="M123.304 298.203L188.984 336.149C189.56 336.437 190.194 336.587 190.838 336.587C191.481 336.587 192.116 336.437 192.692 336.149L241.035 308.228C241.241 308.144 241.417 308.001 241.541 307.816C241.665 307.632 241.731 307.414 241.731 307.192C241.731 306.97 241.665 306.753 241.541 306.568C241.417 306.384 241.241 306.24 241.035 306.157L175.334 268.231C174.765 267.935 174.133 267.781 173.491 267.781C172.849 267.781 172.217 267.935 171.647 268.231L123.304 296.069C122.268 296.67 122.268 297.623 123.304 298.203Z" fill="#6C64C4"/>
<path opacity="0.8" d="M123.304 298.203L188.984 336.149C189.56 336.437 190.194 336.587 190.838 336.587C191.481 336.587 192.116 336.437 192.692 336.149L241.035 308.228C241.241 308.144 241.417 308.001 241.541 307.816C241.665 307.632 241.731 307.414 241.731 307.192C241.731 306.97 241.665 306.753 241.541 306.568C241.417 306.384 241.241 306.24 241.035 306.157L175.334 268.231C174.765 267.935 174.133 267.781 173.491 267.781C172.849 267.781 172.217 267.935 171.647 268.231L123.304 296.069C122.268 296.67 122.268 297.623 123.304 298.203Z" fill="white"/>
<path d="M171.647 268.169L125.727 294.661L188.984 331.198C189.559 331.486 190.194 331.636 190.837 331.636C191.481 331.636 192.116 331.486 192.691 331.198L238.694 304.686L175.417 268.169C174.837 267.859 174.189 267.697 173.532 267.697C172.874 267.697 172.227 267.859 171.647 268.169Z" fill="#6C64C4"/>
<path opacity="0.7" d="M171.647 268.169L125.727 294.661L188.984 331.198C189.559 331.486 190.194 331.636 190.837 331.636C191.481 331.636 192.116 331.486 192.691 331.198L238.694 304.686L175.417 268.169C174.837 267.859 174.189 267.697 173.532 267.697C172.874 267.697 172.227 267.859 171.647 268.169Z" fill="white"/>
<path d="M123.304 291.533L188.985 329.459C189.56 329.747 190.195 329.897 190.838 329.897C191.482 329.897 192.117 329.747 192.692 329.459L241.036 301.558C241.234 301.468 241.402 301.322 241.52 301.138C241.638 300.954 241.701 300.741 241.701 300.523C241.701 300.305 241.638 300.091 241.52 299.907C241.402 299.724 241.234 299.578 241.036 299.487L175.335 261.479C174.762 261.194 174.131 261.046 173.491 261.046C172.852 261.046 172.221 261.194 171.648 261.479L123.304 289.4C123.077 289.471 122.879 289.613 122.738 289.805C122.598 289.997 122.522 290.229 122.522 290.467C122.522 290.705 122.598 290.936 122.738 291.128C122.879 291.32 123.077 291.462 123.304 291.533Z" fill="#6C64C4"/>
<path opacity="0.9" d="M123.304 291.533L188.985 329.459C189.56 329.747 190.195 329.897 190.838 329.897C191.482 329.897 192.117 329.747 192.692 329.459L241.036 301.558C241.234 301.468 241.402 301.322 241.52 301.138C241.638 300.954 241.701 300.741 241.701 300.523C241.701 300.305 241.638 300.091 241.52 299.907C241.402 299.724 241.234 299.578 241.036 299.487L175.335 261.479C174.762 261.194 174.131 261.046 173.491 261.046C172.852 261.046 172.221 261.194 171.648 261.479L123.304 289.4C123.077 289.471 122.879 289.613 122.738 289.805C122.598 289.997 122.522 290.229 122.522 290.467C122.522 290.705 122.598 290.936 122.738 291.128C122.879 291.32 123.077 291.462 123.304 291.533Z" fill="white"/>
<path d="M159.716 252.013C157.541 257.937 160.876 262.722 167.193 262.68C170.513 262.507 173.716 261.403 176.438 259.495C179.16 257.586 181.289 254.951 182.583 251.889C184.779 245.965 181.423 241.18 175.106 241.222C171.786 241.395 168.583 242.499 165.861 244.407C163.14 246.316 161.01 248.951 159.716 252.013Z" fill="#6C64C4"/>
<path opacity="0.1" d="M159.716 252.013C157.541 257.937 160.876 262.722 167.193 262.68C170.513 262.507 173.716 261.403 176.438 259.495C179.16 257.586 181.289 254.951 182.583 251.889C184.779 245.965 181.423 241.18 175.106 241.222C171.786 241.395 168.583 242.499 165.861 244.407C163.14 246.316 161.01 248.951 159.716 252.013Z" fill="black"/>
<path d="M164.958 280.121C160.007 293.522 167.588 304.355 181.901 304.272C196.213 304.189 211.769 293.17 216.74 279.831C221.711 266.492 214.089 255.618 199.797 255.68C185.505 255.742 169.887 266.699 164.958 280.121Z" fill="#455A64"/>
<path d="M176.558 241.388L167.983 247.374L159.407 253.36C156.57 264.607 155.721 282.171 166.263 297.292L215.601 262.825C204.955 247.601 188.012 242.506 176.558 241.388Z" fill="#455A64"/>
<path d="M181.508 242.195C181.508 242.195 183.041 255.762 172.871 261.914C172.871 261.914 182.44 259.283 185.299 252.552C188.157 245.82 181.508 242.195 181.508 242.195Z" fill="#263238"/>
<path d="M182.771 243.728C178.951 238.418 173.81 234.199 167.858 231.487L160.981 236.375L160.215 236.913L153.317 241.802C153.916 248.29 156.185 254.513 159.904 259.863C160.761 260.953 161.871 261.817 163.138 262.38C164.406 262.943 165.791 263.189 167.174 263.094C170.67 262.903 174.042 261.731 176.903 259.713C179.764 257.694 181.999 254.911 183.351 251.682C183.909 250.4 184.144 249 184.035 247.607C183.927 246.213 183.479 244.867 182.73 243.686L182.771 243.728Z" fill="#37474F"/>
<path d="M153.545 238.115C153.131 238.949 152.95 239.879 153.022 240.807C153.093 241.735 153.415 242.627 153.952 243.387C154.489 244.147 155.222 244.748 156.073 245.125C156.924 245.502 157.861 245.642 158.786 245.53C161.096 245.408 163.326 244.635 165.217 243.301C167.107 241.967 168.583 240.126 169.473 237.991C169.886 237.159 170.067 236.231 169.996 235.305C169.925 234.378 169.606 233.489 169.071 232.729C168.536 231.97 167.807 231.369 166.959 230.99C166.111 230.61 165.176 230.467 164.254 230.575C161.944 230.711 159.718 231.488 157.826 232.82C155.934 234.152 154.451 235.986 153.545 238.115Z" fill="#455A64"/>
<path d="M167.671 254.954C166.81 253.714 165.67 252.693 164.342 251.974C163.015 251.254 161.537 250.856 160.028 250.812C159.454 250.762 158.878 250.88 158.37 251.152C157.863 251.424 157.445 251.839 157.17 252.344L136.83 301.455C136.68 301.93 136.643 302.435 136.722 302.927C136.801 303.42 136.994 303.887 137.285 304.292C138.147 305.536 139.291 306.56 140.622 307.28C141.954 307.999 143.436 308.395 144.949 308.435C145.523 308.488 146.1 308.371 146.609 308.098C147.117 307.826 147.534 307.41 147.807 306.902L168.106 257.958C168.298 257.462 168.359 256.925 168.283 256.399C168.207 255.873 167.996 255.375 167.671 254.954Z" fill="#455A64"/>
<path d="M191.885 375.234C191.885 374.538 191.809 373.843 191.658 373.163C189.914 365.218 185.23 358.226 178.546 353.589H151.102C144.412 358.223 139.721 365.215 137.97 373.163C137.824 373.844 137.755 374.538 137.763 375.234C137.756 375.358 137.756 375.483 137.763 375.607C138.011 379.398 140.621 383.147 145.634 385.963C156.218 392.177 173.347 392.177 183.932 385.963C188.944 383.064 191.554 379.315 191.803 375.607C191.838 375.485 191.865 375.36 191.885 375.234Z" fill="#455A64"/>
<path d="M164.814 371.216C174.972 371.216 183.207 366.458 183.207 360.59C183.207 354.721 174.972 349.964 164.814 349.964C154.656 349.964 146.421 354.721 146.421 360.59C146.421 366.458 154.656 371.216 164.814 371.216Z" fill="#37474F"/>
<path d="M160.463 358.063C159.934 358.238 159.474 358.576 159.148 359.028C158.822 359.479 158.646 360.022 158.646 360.58C158.646 361.137 158.822 361.68 159.148 362.132C159.474 362.583 159.934 362.921 160.463 363.096C161.815 363.781 163.308 364.137 164.823 364.137C166.338 364.137 167.832 363.781 169.183 363.096C169.712 362.921 170.172 362.583 170.499 362.132C170.825 361.68 171 361.137 171 360.58C171 360.022 170.825 359.479 170.499 359.028C170.172 358.576 169.712 358.238 169.183 358.063C167.832 357.379 166.338 357.022 164.823 357.022C163.308 357.022 161.815 357.379 160.463 358.063Z" fill="#455A64"/>
<path d="M135.275 310.051C134.746 310.226 134.286 310.563 133.96 311.015C133.634 311.467 133.458 312.01 133.458 312.567C133.458 313.124 133.634 313.668 133.96 314.119C134.286 314.571 134.746 314.909 135.275 315.084C136.627 315.768 138.12 316.125 139.635 316.125C141.15 316.125 142.644 315.768 143.995 315.084C144.524 314.909 144.984 314.571 145.311 314.119C145.637 313.668 145.812 313.124 145.812 312.567C145.812 312.01 145.637 311.467 145.311 311.015C144.984 310.563 144.524 310.226 143.995 310.051C142.644 309.366 141.15 309.01 139.635 309.01C138.12 309.01 136.627 309.366 135.275 310.051Z" fill="#6C64C4"/>
<path opacity="0.3" d="M135.275 310.051C134.746 310.226 134.286 310.563 133.96 311.015C133.634 311.467 133.458 312.01 133.458 312.567C133.458 313.124 133.634 313.668 133.96 314.119C134.286 314.571 134.746 314.909 135.275 315.084C136.627 315.768 138.12 316.125 139.635 316.125C141.15 316.125 142.644 315.768 143.995 315.084C144.524 314.909 144.984 314.571 145.311 314.119C145.637 313.668 145.812 313.124 145.812 312.567C145.812 312.01 145.637 311.467 145.311 311.015C144.984 310.563 144.524 310.226 143.995 310.051C142.644 309.366 141.15 309.01 139.635 309.01C138.12 309.01 136.627 309.366 135.275 310.051Z" fill="black"/>
<path d="M145.572 311.563L170.738 359.575L158.911 361.605L133.703 313.53L145.572 311.563Z" fill="#455A64"/>
<path d="M136.685 297.581C135.906 297.39 135.088 297.429 134.33 297.694C133.573 297.958 132.909 298.437 132.418 299.073C130.997 300.672 129.974 302.584 129.43 304.653C128.887 306.723 128.839 308.891 129.29 310.982C129.416 311.67 129.7 312.318 130.121 312.875C130.542 313.433 131.087 313.884 131.714 314.193L141.118 317.714L145.799 300.937L136.685 297.581Z" fill="#37474F"/>
<path d="M141.696 302.553C140.27 304.153 139.242 306.068 138.695 308.141C138.148 310.214 138.097 312.387 138.548 314.483C139.584 318.274 142.691 319.081 145.425 316.285C146.851 314.688 147.879 312.777 148.426 310.708C148.973 308.638 149.024 306.468 148.573 304.375C147.558 300.585 144.451 299.777 141.696 302.553Z" fill="#263238"/>
<path d="M94.4092 344.164C103.15 335.258 108.266 312.992 99.7531 305.929H56.4219C47.9089 312.992 53.025 335.237 61.7658 344.164L61.9936 344.413L62.3043 344.703C62.5521 344.954 62.8149 345.189 63.0914 345.407L63.2985 345.573L63.9613 346.07C64.3197 346.333 64.6931 346.575 65.0798 346.795C69.1155 348.837 73.5749 349.901 78.0979 349.901C82.6208 349.901 87.0802 348.837 91.1159 346.795C91.4887 346.588 91.8616 346.339 92.2551 346.07L92.8558 345.594L93.125 345.407L93.8707 344.724L94.2228 344.372L94.4092 344.164Z" fill="#6C64C4"/>
<path opacity="0.7" d="M94.4092 344.164C103.15 335.258 108.266 312.992 99.7531 305.929H56.4219C47.9089 312.992 53.025 335.237 61.7658 344.164L61.9936 344.413L62.3043 344.703C62.5521 344.954 62.8149 345.189 63.0914 345.407L63.2985 345.573L63.9613 346.07C64.3197 346.333 64.6931 346.575 65.0798 346.795C69.1155 348.837 73.5749 349.901 78.0979 349.901C82.6208 349.901 87.0802 348.837 91.1159 346.795C91.4887 346.588 91.8616 346.339 92.2551 346.07L92.8558 345.594L93.125 345.407L93.8707 344.724L94.2228 344.372L94.4092 344.164Z" fill="white"/>
<path d="M78.0681 328.05C92.0585 328.05 103.4 321.503 103.4 313.427C103.4 305.351 92.0585 298.804 78.0681 298.804C64.0778 298.804 52.7363 305.351 52.7363 313.427C52.7363 321.503 64.0778 328.05 78.0681 328.05Z" fill="#6C64C4"/>
<path opacity="0.9" d="M78.0681 328.05C92.0585 328.05 103.4 321.503 103.4 313.427C103.4 305.351 92.0585 298.804 78.0681 298.804C64.0778 298.804 52.7363 305.351 52.7363 313.427C52.7363 321.503 64.0778 328.05 78.0681 328.05Z" fill="white"/>
<path d="M67.1711 307.13C61.1643 310.61 61.1643 316.244 67.1711 319.724C70.5531 321.43 74.2883 322.319 78.0764 322.319C81.8644 322.319 85.5996 321.43 88.9817 319.724C94.9884 316.244 94.9884 310.61 88.9817 307.13C85.6025 305.415 81.8662 304.521 78.0764 304.521C74.2866 304.521 70.5503 305.415 67.1711 307.13Z" fill="#6C64C4"/>
<path opacity="0.7" d="M67.1711 307.13C61.1643 310.61 61.1643 316.244 67.1711 319.724C70.5531 321.43 74.2883 322.319 78.0764 322.319C81.8644 322.319 85.5996 321.43 88.9817 319.724C94.9884 316.244 94.9884 310.61 88.9817 307.13C85.6025 305.415 81.8662 304.521 78.0764 304.521C74.2866 304.521 70.5503 305.415 67.1711 307.13Z" fill="white"/>
<path d="M88.983 313.095C85.6009 311.389 81.8658 310.5 78.0777 310.5C74.2897 310.5 70.5545 311.389 67.1724 313.095C65.7234 313.896 64.4876 315.032 63.5684 316.409C64.4876 317.786 65.7234 318.922 67.1724 319.723C70.5545 321.429 74.2897 322.318 78.0777 322.318C81.8658 322.318 85.6009 321.429 88.983 319.723C90.432 318.922 91.6679 317.786 92.5871 316.409C91.6679 315.032 90.432 313.896 88.983 313.095Z" fill="#6C64C4"/>
<path opacity="0.3" d="M88.983 313.095C85.6009 311.389 81.8658 310.5 78.0777 310.5C74.2897 310.5 70.5545 311.389 67.1724 313.095C65.7234 313.896 64.4876 315.032 63.5684 316.409C64.4876 317.786 65.7234 318.922 67.1724 319.723C70.5545 321.429 74.2897 322.318 78.0777 322.318C81.8658 322.318 85.6009 321.429 88.983 319.723C90.432 318.922 91.6679 317.786 92.5871 316.409C91.6679 315.032 90.432 313.896 88.983 313.095Z" fill="black"/>
<path d="M82.0041 317.777C88.2816 313.855 93.0204 307.895 95.4261 300.896C99.4236 289.214 97.0624 275.087 93.479 269.246C88.6322 261.334 76.9088 262.225 80.3678 275.46C83.8269 288.696 85.981 303.008 80.4921 312.578L82.0041 317.777Z" fill="#37474F"/>
<path d="M82.4185 315.374C82.2904 315.374 82.1661 315.33 82.0664 315.249C82.0157 315.199 81.9754 315.14 81.9479 315.074C81.9204 315.008 81.9062 314.938 81.9062 314.866C81.9062 314.795 81.9204 314.724 81.9479 314.659C81.9754 314.593 82.0157 314.533 82.0664 314.483C85.5688 310.611 88.2485 306.068 89.9432 301.13C91.638 296.192 92.3124 290.961 91.9257 285.754C91.325 276.164 87.7831 269.184 86.4368 268.128C86.3392 268.024 86.2849 267.887 86.2849 267.745C86.2849 267.602 86.3392 267.465 86.4368 267.361C86.5371 267.265 86.6707 267.211 86.8096 267.211C86.9486 267.211 87.0822 267.265 87.1825 267.361C88.9638 268.894 92.4435 276.351 93.0235 285.713C93.4238 291.066 92.7324 296.444 90.9913 301.521C89.2502 306.598 86.4957 311.269 82.8949 315.249C82.8331 315.31 82.7567 315.353 82.6732 315.375C82.5896 315.396 82.5019 315.396 82.4185 315.374Z" fill="white"/>
<path d="M71.8948 317.776C71.5599 316.622 70.8259 315.623 69.8235 314.959C68.586 314.269 67.2812 313.707 65.9295 313.282C63.589 312.432 60.6063 311.21 60.2956 308.393C60.2223 307.384 60.3491 306.371 60.6685 305.411C61.2453 304.109 61.3834 302.655 61.062 301.268C60.5442 300.025 59.2186 299.363 58.0794 298.617C56.823 297.874 55.7532 296.854 54.9517 295.634C54.2759 294.551 53.9504 293.285 54.0196 292.01C54.2475 289.4 56.7537 287.681 56.8366 285.091C56.9402 281.301 48.0751 276.164 52.7976 272.664C58.8457 268.086 68.3115 273.389 71.0249 277.283C73.7383 281.177 73.7383 282.917 78.6886 286.21C82.8312 288.944 87.6366 289.503 87.6366 294.889C87.6366 300.274 80.7392 300.523 86.166 306.633C89.4386 310.299 84.0947 313.468 82.0234 317.818C78.6472 317.776 75.2296 317.611 71.8948 317.776Z" fill="#455A64"/>
<path d="M77.3642 318.253C77.2935 318.25 77.224 318.233 77.1596 318.204C77.0953 318.174 77.0375 318.132 76.9894 318.08C76.9413 318.028 76.9039 317.967 76.8794 317.901C76.8548 317.835 76.8436 317.764 76.8464 317.693C78.0478 286.396 62.1196 275.418 58.9298 274.548C58.7994 274.504 58.6909 274.412 58.6266 274.29C58.5624 274.168 58.5473 274.026 58.5844 273.893C58.6215 273.761 58.7081 273.647 58.8263 273.577C58.9445 273.506 59.0853 273.483 59.2198 273.513C64.6051 274.983 79.042 288.198 77.8613 317.735C77.8566 317.867 77.8033 317.993 77.7116 318.089C77.6199 318.184 77.4963 318.242 77.3642 318.253Z" fill="white"/>
<path d="M74.8368 296.007C74.7087 296.007 74.5844 295.963 74.4847 295.883C69.8658 291.74 60.835 291.906 60.7314 291.906C60.5921 291.906 60.4581 291.852 60.3577 291.756C60.2573 291.659 60.1982 291.527 60.1929 291.388C60.1925 291.247 60.2457 291.11 60.3417 291.007C60.4378 290.903 60.5697 290.839 60.7107 290.829C61.1042 290.829 70.2593 290.725 75.2097 294.971C75.2878 295.044 75.3424 295.139 75.3667 295.243C75.391 295.347 75.3838 295.456 75.3461 295.556C75.3083 295.655 75.2417 295.742 75.1548 295.804C75.0678 295.866 74.9643 295.9 74.8575 295.904L74.8368 296.007Z" fill="white"/>
<path d="M442.84 210.028L450.628 115.495C450.709 113.965 450.393 112.44 449.711 111.068C449.029 109.696 448.003 108.524 446.734 107.665C445.331 106.987 443.788 106.648 442.23 106.677C440.672 106.706 439.142 107.101 437.766 107.831L334.201 167.608C332.832 168.495 331.67 169.666 330.794 171.042C329.919 172.418 329.35 173.967 329.127 175.583L321.339 270.116C321.258 271.646 321.574 273.171 322.256 274.543C322.938 275.915 323.964 277.087 325.233 277.946C326.636 278.624 328.179 278.963 329.737 278.934C331.295 278.905 332.824 278.51 334.201 277.78L437.766 218.003C439.133 217.114 440.293 215.942 441.169 214.567C442.044 213.191 442.614 211.643 442.84 210.028Z" fill="#6C64C4"/>
<path opacity="0.8" d="M442.84 210.028L450.628 115.495C450.709 113.965 450.393 112.44 449.711 111.068C449.029 109.696 448.003 108.524 446.734 107.665C445.331 106.987 443.788 106.648 442.23 106.677C440.672 106.706 439.142 107.101 437.766 107.831L334.201 167.608C332.832 168.495 331.67 169.666 330.794 171.042C329.919 172.418 329.35 173.967 329.127 175.583L321.339 270.116C321.258 271.646 321.574 273.171 322.256 274.543C322.938 275.915 323.964 277.087 325.233 277.946C326.636 278.624 328.179 278.963 329.737 278.934C331.295 278.905 332.824 278.51 334.201 277.78L437.766 218.003C439.133 217.114 440.293 215.942 441.169 214.567C442.044 213.191 442.614 211.643 442.84 210.028Z" fill="white"/>
<path d="M442.841 210.028L450.629 115.495C450.71 113.965 450.394 112.44 449.711 111.068C449.029 109.696 448.004 108.524 446.735 107.665C445.332 106.987 443.789 106.648 442.231 106.677C440.672 106.706 439.143 107.101 437.766 107.831L334.202 167.608C332.826 168.461 331.67 169.625 330.826 171.005L346.92 180.285V270.385L437.704 217.961C439.08 217.086 440.251 215.924 441.137 214.555C442.024 213.186 442.605 211.642 442.841 210.028Z" fill="#6C64C4"/>
<path opacity="0.9" d="M442.841 210.028L450.629 115.495C450.71 113.965 450.394 112.44 449.711 111.068C449.029 109.696 448.004 108.524 446.735 107.665C445.332 106.987 443.789 106.648 442.231 106.677C440.672 106.706 439.143 107.101 437.766 107.831L334.202 167.608C332.826 168.461 331.67 169.625 330.826 171.005L346.92 180.285V270.385L437.704 217.961C439.08 217.086 440.251 215.924 441.137 214.555C442.024 213.186 442.605 211.642 442.841 210.028Z" fill="white"/>
<path d="M330.081 275.129L337.869 180.595C338.095 178.98 338.663 177.432 339.534 176.053C340.406 174.674 341.561 173.497 342.923 172.6L446.488 112.844C449.056 111.373 450.92 112.554 450.63 115.495L442.842 210.028C442.619 211.642 442.052 213.188 441.18 214.564C440.308 215.939 439.152 217.112 437.788 218.003L334.224 277.78C331.697 279.251 329.833 278.07 330.081 275.129Z" fill="#6C64C4"/>
<path opacity="0.7" d="M330.081 275.129L337.869 180.595C338.095 178.98 338.663 177.432 339.534 176.053C340.406 174.674 341.561 173.497 342.923 172.6L446.488 112.844C449.056 111.373 450.92 112.554 450.63 115.495L442.842 210.028C442.619 211.642 442.052 213.188 441.18 214.564C440.308 215.939 439.152 217.112 437.788 218.003L334.224 277.78C331.697 279.251 329.833 278.07 330.081 275.129Z" fill="white"/>
<path d="M383.499 199.278C383.781 196.737 384.603 194.285 385.91 192.088C387.218 189.891 388.981 187.999 391.08 186.54C394.87 184.344 397.605 186.54 397.294 191.345C397.01 193.886 396.186 196.336 394.879 198.533C393.572 200.73 391.81 202.622 389.713 204.084C385.757 206.176 383.106 204.104 383.499 199.278Z" fill="#6C64C4"/>
<path opacity="0.4" d="M383.499 199.278C383.781 196.737 384.603 194.285 385.91 192.088C387.218 189.891 388.981 187.999 391.08 186.54C394.87 184.344 397.605 186.54 397.294 191.345C397.01 193.886 396.186 196.336 394.879 198.533C393.572 200.73 391.81 202.622 389.713 204.084C385.757 206.176 383.106 204.104 383.499 199.278Z" fill="white"/>
<path d="M381.676 230.368L416.37 210.339L412.041 207.833L377.347 227.862L381.676 230.368Z" fill="#6C64C4"/>
<path opacity="0.9" d="M381.676 230.368L416.37 210.339L412.041 207.833L377.347 227.862L381.676 230.368Z" fill="white"/>
<path d="M423.184 256.466L392.115 274.362C391.481 274.704 390.763 274.862 390.044 274.818C389.46 274.793 388.888 274.645 388.366 274.383L374.716 266.512C374.198 266.154 373.768 265.683 373.46 265.133C373.151 264.584 372.971 263.972 372.935 263.343V262.618C372.935 261.437 373.764 260.94 374.779 261.541L383.064 266.284L384.907 267.361L384.493 265.29L377.326 228.007L381.655 230.513L416.37 210.318L424.655 253.277C424.752 253.894 424.664 254.526 424.402 255.094C424.14 255.661 423.717 256.139 423.184 256.466Z" fill="#6C64C4"/>
<path opacity="0.7" d="M423.184 256.466L392.115 274.362C391.481 274.704 390.763 274.862 390.044 274.818C389.46 274.793 388.888 274.645 388.366 274.383L374.716 266.512C374.198 266.154 373.768 265.683 373.46 265.133C373.151 264.584 372.971 263.972 372.935 263.343V262.618C372.935 261.437 373.764 260.94 374.779 261.541L383.064 266.284L384.907 267.361L384.493 265.29L377.326 228.007L381.655 230.513L416.37 210.318L424.655 253.277C424.752 253.894 424.664 254.526 424.402 255.094C424.14 255.661 423.717 256.139 423.184 256.466Z" fill="white"/>
<path d="M373.578 261.334L384.141 255.224L386.295 269.454L373.578 261.334Z" fill="#6C64C4"/>
<path opacity="0.7" d="M373.578 261.334L384.141 255.224L386.295 269.454L373.578 261.334Z" fill="white"/>
<path d="M381.614 230.368L377.285 227.862L384.451 265.145C384.7 266.285 384.037 266.761 383.022 266.16L374.737 261.417C373.722 260.816 372.894 261.417 372.894 262.494V263.219C372.93 263.848 373.109 264.46 373.418 265.009C373.727 265.559 374.156 266.03 374.675 266.388L388.325 274.259C388.847 274.521 389.419 274.669 390.002 274.694L381.614 230.368Z" fill="#6C64C4"/>
<path opacity="0.8" d="M381.614 230.368L377.285 227.862L384.451 265.145C384.7 266.285 384.037 266.761 383.022 266.16L374.737 261.417C373.722 260.816 372.894 261.417 372.894 262.494V263.219C372.93 263.848 373.109 264.46 373.418 265.009C373.727 265.559 374.156 266.03 374.675 266.388L388.325 274.259C388.847 274.521 389.419 274.669 390.002 274.694L381.614 230.368Z" fill="white"/>
<path d="M269.764 280.452C276.123 279.975 278.174 277.635 279.21 274.818C280.245 272.001 280.618 268.914 278.153 262.39C275.688 255.865 261.583 247.311 246.939 250.439C232.295 253.566 230.265 264.751 231.052 267.755C231.839 270.758 240.642 278.38 252.055 279.685C257.925 280.452 263.85 280.708 269.764 280.452Z" fill="#6C64C4"/>
<path opacity="0.7" d="M269.764 280.452C276.123 279.975 278.174 277.635 279.21 274.818C280.245 272.001 280.618 268.914 278.153 262.39C275.688 255.865 261.583 247.311 246.939 250.439C232.295 253.566 230.265 264.751 231.052 267.755C231.839 270.758 240.642 278.38 252.055 279.685C257.925 280.452 263.85 280.708 269.764 280.452Z" fill="white"/>
<path d="M262.33 260.029C263.17 259.366 264.21 259.005 265.281 259.005C266.352 259.005 267.392 259.366 268.233 260.029C270.17 261.127 271.719 262.799 272.665 264.814C273.307 266.492 272.997 267.983 272.272 267.983C271.547 267.983 271.008 266.45 268.233 264.131C265.457 261.811 261.708 260.899 262.33 260.029Z" fill="#6C64C4"/>
<path opacity="0.9" d="M262.33 260.029C263.17 259.366 264.21 259.005 265.281 259.005C266.352 259.005 267.392 259.366 268.233 260.029C270.17 261.127 271.719 262.799 272.665 264.814C273.307 266.492 272.997 267.983 272.272 267.983C271.547 267.983 271.008 266.45 268.233 264.131C265.457 261.811 261.708 260.899 262.33 260.029Z" fill="white"/>
<path d="M172.868 103.896C166.033 108.494 157.935 113.941 159.053 131.879C160.171 149.816 173.552 199.299 174.463 205.326C175.375 211.354 211.746 240.538 218.437 246.296C226.121 252.987 229.021 254.395 232.501 258.227C235.98 262.059 239.253 271.835 242.857 276.082C248.512 282.648 260.691 282.792 266.304 282.026C271.917 281.26 268.375 274.445 266.304 269.598C264.233 264.752 258.682 258.144 260.256 257.005C261.333 256.239 267.195 257.274 271.731 261.148C275.231 264.13 275.646 267.051 277.613 268.418C280.907 270.738 282.004 266.636 278.608 260.133C275.211 253.629 270.032 248.968 264.916 247.353C267.174 247.531 269.433 247.026 271.399 245.903C274.216 244.163 275.211 240.228 271.731 241.263C269.66 241.864 267.588 241.263 263.446 241.263C250.438 241.263 246.523 245.986 231.465 231.445C216.407 216.905 196.253 197.124 196.253 197.124C196.253 197.124 189.48 155.906 186.435 137.658C183.846 121.937 182.769 111.642 172.868 103.896Z" fill="#FFA8A7"/>
<path d="M293.771 144.431L319.475 89.9972L333.974 95.9832C333.974 95.9832 312.661 160.483 309.595 167.484C307.793 171.627 302.014 176.66 293.646 172.579C291.824 171.689 288.199 169.555 283.704 166.759" fill="#FFA8A7"/>
<path d="M328.526 112.201C330.308 106.878 335.962 101.203 336.812 98.9452C337.566 97.1622 337.817 95.2063 337.536 93.2906L330.929 93.9535L328.526 112.201Z" fill="#FFA8A7"/>
<path d="M314.899 99.505C315.976 97.0402 316.162 88.4029 314.899 83.4318C313.635 78.4608 316.68 72.2469 315.914 68.7464C315.147 65.2459 317.384 64.1896 319.414 65.4531C320.658 66.242 321.687 67.3262 322.409 68.6092C323.132 69.8921 323.526 71.3339 323.557 72.8061C323.66 76.4309 323.888 85.6481 322.418 90.1428C320.947 94.6375 314.899 99.505 314.899 99.505Z" fill="#FFA8A7"/>
<path d="M318.315 91.0331C318.708 92.1516 320.2 93.705 325.026 92.8765L333.912 95.9834L337.536 95.7763C335.599 97.1471 333.228 97.7645 330.868 97.5129C328.507 97.2612 326.32 96.1578 324.715 94.4093C324.715 94.4093 318.19 95.2171 318.315 91.0331Z" fill="#F28F8F"/>
<path d="M343.171 87.3873C337.599 91.737 338.386 97.3916 344.952 100.043C348.592 101.293 352.475 101.668 356.286 101.135C360.098 100.602 363.73 99.1778 366.887 96.9774C372.459 92.6277 371.651 86.9524 365.106 84.3011C361.464 83.0586 357.581 82.6905 353.77 83.2266C349.959 83.7628 346.329 85.1881 343.171 87.3873Z" fill="#6C64C4"/>
<path opacity="0.7" d="M343.171 87.3873C337.599 91.737 338.386 97.3916 344.952 100.043C348.592 101.293 352.475 101.668 356.286 101.135C360.098 100.602 363.73 99.1778 366.887 96.9774C372.459 92.6277 371.651 86.9524 365.106 84.3011C361.464 83.0586 357.581 82.6905 353.77 83.2266C349.959 83.7628 346.329 85.1881 343.171 87.3873Z" fill="white"/>
<path d="M370.761 55.6342L350.318 58.4925L329.833 61.3509C330.288 74.6071 334.783 89.4582 340.645 97.0184L370.14 92.8759C373.723 83.9693 373.951 68.4968 370.761 55.6342Z" fill="#6C64C4"/>
<path opacity="0.7" d="M370.761 55.6342L350.318 58.4925L329.833 61.3509C330.288 74.6071 334.783 89.4582 340.645 97.0184L370.14 92.8759C373.723 83.9693 373.951 68.4968 370.761 55.6342Z" fill="white"/>
<path d="M335.094 55.1585C327.596 59.736 328.383 65.3699 336.855 67.7105C346.704 69.867 357.001 68.396 365.853 63.5679C373.351 58.9696 372.564 53.3565 364.092 50.9952C354.24 48.8469 343.944 50.3251 335.094 55.1585Z" fill="#6C64C4"/>
<path opacity="0.9" d="M335.094 55.1585C327.596 59.736 328.383 65.3699 336.855 67.7105C346.704 69.867 357.001 68.396 365.853 63.5679C373.351 58.9696 372.564 53.3565 364.092 50.9952C354.24 48.8469 343.944 50.3251 335.094 55.1585Z" fill="white"/>
<path d="M338.115 57.043C331.902 60.2121 332.502 63.8783 339.255 65.3281C347.188 66.5292 355.3 65.392 362.598 62.0555C368.708 58.8865 368.211 55.2203 361.438 53.7704C353.511 52.571 345.406 53.7083 338.115 57.043Z" fill="#6C64C4"/>
<path opacity="0.4" d="M338.115 57.043C331.902 60.2121 332.502 63.8783 339.255 65.3281C347.188 66.5292 355.3 65.392 362.598 62.0555C368.708 58.8865 368.211 55.2203 361.438 53.7704C353.511 52.571 345.406 53.7083 338.115 57.043Z" fill="white"/>
<path d="M338.884 61.89C337.787 62.429 336.775 63.1269 335.881 63.9613C336.969 64.5189 338.135 64.9099 339.34 65.1212C347.274 66.3223 355.386 65.1851 362.683 61.8486C363.786 61.3183 364.799 60.6195 365.687 59.7773C364.598 59.2198 363.432 58.8288 362.228 58.6174C354.294 57.4164 346.182 58.5536 338.884 61.89Z" fill="#6C64C4"/>
<path opacity="0.3" d="M338.884 61.89C337.787 62.429 336.775 63.1269 335.881 63.9613C336.969 64.5189 338.135 64.9099 339.34 65.1212C347.274 66.3223 355.386 65.1851 362.683 61.8486C363.786 61.3183 364.799 60.6195 365.687 59.7773C364.598 59.2198 363.432 58.8288 362.228 58.6174C354.294 57.4164 346.182 58.5536 338.884 61.89Z" fill="black"/>
<path d="M334.534 96.3975C332.815 96.6524 331.062 96.568 329.376 96.1489C327.056 95.5275 324.861 93.2905 322.686 89.293C320.863 85.9375 317.735 78.4808 319.061 74.359C320.759 69.1186 326.828 68.373 330.867 67.8759L332.255 67.6895L333.146 74.0483L331.654 74.2347C329.376 74.504 325.586 74.9804 325.151 76.306C324.571 78.8744 328.92 88.8787 331.137 89.9765C333.135 90.2539 335.171 89.9219 336.978 89.0237L339.877 94.7404C338.194 95.5692 336.391 96.1284 334.534 96.3975Z" fill="#6C64C4"/>
<path opacity="0.7" d="M334.534 96.3975C332.815 96.6524 331.062 96.568 329.376 96.1489C327.056 95.5275 324.861 93.2905 322.686 89.293C320.863 85.9375 317.735 78.4808 319.061 74.359C320.759 69.1186 326.828 68.373 330.867 67.8759L332.255 67.6895L333.146 74.0483L331.654 74.2347C329.376 74.504 325.586 74.9804 325.151 76.306C324.571 78.8744 328.92 88.8787 331.137 89.9765C333.135 90.2539 335.171 89.9219 336.978 89.0237L339.877 94.7404C338.194 95.5692 336.391 96.1284 334.534 96.3975Z" fill="white"/>
<path d="M326.931 76.3265C322.975 76.3265 311.355 80.9455 311.107 85.1295C310.858 89.3135 318.75 89.0028 318.75 89.0028C318.377 89.6244 318.235 90.3573 318.349 91.0731C318.463 91.7889 318.825 92.4418 319.371 92.9175C321.339 94.616 336.252 89.4378 336.252 89.4378C335.731 87.7287 334.941 86.1135 333.912 84.6531C333.168 83.7087 332.081 83.0978 330.888 82.9546C330.888 82.9546 332.814 76.3265 326.931 76.3265Z" fill="#FFA8A7"/>
</svg>
