<svg width="350" height="347" viewBox="0 0 350 347" fill="none" xmlns="http://www.w3.org/2000/svg">
<path d="M265.47 346.051C293.577 346.051 316.362 333.452 316.362 317.91C316.362 302.368 293.577 289.769 265.47 289.769C237.363 289.769 214.578 302.368 214.578 317.91C214.578 333.452 237.363 346.051 265.47 346.051Z" fill="#EBEBEB"/>
<path d="M291.748 293.938C292.04 295.686 292.605 297.713 293.085 301.283C293.565 304.853 292.725 304.984 294.97 313.946C296.315 319.33 296.006 321.447 292.494 325.895C288.732 330.647 284.928 329.596 282.555 324.188C280.525 319.56 280.696 317.434 280.79 312.699C280.884 307.964 280.859 306.568 280.713 302.81C280.585 299.486 280.927 297.229 280.765 294.677L291.748 293.938Z" fill="#37474F"/>
<path d="M292.596 306.962C292.014 302.35 291.954 297.582 291.739 294.472C291.337 287.504 293.102 273.774 292.288 263.286L273.91 261.136C274.441 265.239 279.136 283.787 280.764 294.964C280.764 294.964 281.167 310.097 282.041 316.778C282.064 316.976 282.135 317.166 282.249 317.333C282.362 317.5 282.516 317.639 282.696 317.738C282.876 317.838 283.078 317.896 283.285 317.907C283.493 317.919 283.701 317.883 283.891 317.803C286.542 316.743 289.499 316.618 292.236 317.451C292.437 317.525 292.654 317.552 292.868 317.528C293.082 317.505 293.287 317.431 293.465 317.315C293.643 317.199 293.788 317.043 293.889 316.86C293.99 316.678 294.043 316.475 294.044 316.269C294.061 313.807 293.033 310.417 292.596 306.962Z" fill="#FFA8A7"/>
<path d="M242.176 263.672C242.245 278.165 242.091 291 241.551 294.759C241.011 298.517 240.788 299.789 239.786 302.416C238.783 305.042 237.096 308.554 235.588 310.245C235.588 310.245 231.261 314.66 232.229 315.12C233.197 315.579 242.245 316.49 246.297 315.317C250.35 314.143 250.787 310.852 252.166 304.837C253.545 298.821 254.736 290.064 254.736 290.064C254.548 289.743 254.407 289.397 254.317 289.039C253.777 287.307 255.43 282.802 255.85 278.427L242.176 263.672Z" fill="#FFA8A7"/>
<path d="M258.763 299.018C258.497 300.421 257.238 302.013 256.672 304.196C256.017 306.689 255.621 309.237 255.49 311.804L255.284 315.382L254.273 315.325C254.273 315.325 254.53 310.795 254.65 308.809C254.77 306.823 254.65 305.362 253.656 305.091C253.699 305.091 253.853 298.764 258.763 299.018Z" fill="#263238"/>
<path d="M254.556 289.228C255.215 290.869 257.417 293.224 258.36 294.808C258.844 295.64 259.109 296.572 259.131 297.525C259.15 297.918 259.084 298.31 258.937 298.678C258.789 299.045 258.563 299.379 258.274 299.658C257.143 300.7 256.089 301.816 255.121 302.998C253.879 304.591 251.557 308.308 250.914 310.934C250.272 313.561 249.895 315.858 247.539 317.18C245.705 318.197 238.174 319.642 234.362 319.847C229.153 320.159 227.807 317.762 229.752 315.85C231.697 313.938 235.004 310.655 235.604 310.245C237.249 310.054 238.917 310.278 240.445 310.893C243.358 312.092 244.283 313.716 247.342 312.256C250.118 310.934 251.223 306.027 250.983 298.961C250.7 290.943 254.556 289.228 254.556 289.228Z" fill="#37474F"/>
<path d="M280.053 161.219C280.387 163.041 280.773 164.748 281.45 165.659C285.596 171.231 289.812 177.969 290.514 188.317C291.511 204.649 291.591 221.021 290.754 237.361C290.934 239.568 292.673 244.919 292.922 257.492C293.11 267.521 292.416 283.097 292.416 283.097C292.416 283.097 284.894 286.577 278.382 284.18C275.812 274.603 271.571 251.599 269.044 240.644C266.388 229.097 264.854 220.209 264.854 220.209L262.284 239.125C262.733 243.459 262.673 247.828 262.104 252.149C261.247 258.838 255.592 282.424 255.592 282.424C255.592 282.424 247.256 284.886 241.653 281.086C241.653 281.086 241.173 247.701 241.164 240.332C241.156 232.962 239.528 185.552 244.369 166.315C244.554 164.828 244.657 163.332 244.677 161.834C250.178 166.217 272.694 165.913 280.053 161.219Z" fill="#37474F"/>
<path d="M292.57 279.634C289.708 282.096 280.969 282.744 277.551 280.979L278.587 286.191C278.587 286.191 280.841 287.668 285.81 287.266C290.779 286.864 292.364 284.968 292.364 284.968L292.57 279.634Z" fill="#455A64"/>
<path d="M256.448 279.117C253.483 280.052 244.684 279.56 241.463 277.64L241.6 282.121C241.6 282.121 243.408 283.762 248.368 284.295C253.329 284.829 255.488 283.475 255.488 283.475L256.448 279.117Z" fill="#455A64"/>
<path d="M264.838 220.209L260.426 190.664C257.918 190.69 255.438 190.161 253.179 189.118C250.92 188.074 248.943 186.545 247.403 184.649C247.403 184.649 247.188 190.829 257.787 193.676L262.687 218.633L262.285 239.15L264.838 220.209Z" fill="#263238"/>
<path d="M244.446 165.954C244.446 165.954 249.784 169.844 262.37 169.343C274.956 168.843 281.073 165.035 280.987 164.822C280.598 163.802 280.311 162.75 280.13 161.678C280.13 161.498 280.062 161.334 280.045 161.219C272.685 165.913 250.169 166.217 244.686 161.834C244.686 161.834 244.617 164.715 244.438 165.938L244.446 165.954Z" fill="#263238"/>
<path d="M271.554 165.7C270.106 168.58 267.956 174.62 267.793 178.773C269.818 179.698 272.035 180.172 274.279 180.16C274.279 180.16 275.135 172.897 273.756 166.676L271.554 165.7Z" fill="#263238"/>
<path d="M275.237 164.116C277.465 166.496 281.303 171.724 282.665 175.663C280.987 177.09 278.996 178.139 276.839 178.732C276.839 178.732 273.892 171.986 273.412 165.642L275.237 164.116Z" fill="#263238"/>
<path d="M246.845 125.446C241.361 128.942 228.536 137.452 224.723 140.16C224.723 140.16 211.794 133.792 207.005 131.051C204.897 129.836 204.435 129.114 204.143 128.22C203.826 127.021 203.372 125.86 202.79 124.756C202.087 123.501 201.702 123.115 200.862 121.474C200.022 119.832 199.149 116.623 199.268 115.122C198.789 114.473 197.015 114.613 196.433 116.451C196.078 117.994 196.099 119.595 196.493 121.129C196.655 122.138 196.938 123.197 196.638 123.394C196.338 123.591 194.745 123.008 193.211 122.811C191.677 122.614 190.255 122.13 188.636 122.811C188.371 122.903 188.13 123.048 187.928 123.235C187.726 123.423 187.568 123.649 187.463 123.899C187.359 124.15 187.311 124.418 187.323 124.688C187.334 124.957 187.405 125.221 187.531 125.462C187.778 125.834 188.124 126.137 188.533 126.34C188.242 126.338 187.953 126.393 187.685 126.502C187.417 126.61 187.175 126.77 186.974 126.972C186.672 127.399 186.534 127.912 186.582 128.425C186.631 128.938 186.863 129.419 187.239 129.787C186.912 129.813 186.606 129.954 186.38 130.183C186.154 130.411 186.024 130.712 186.014 131.026C185.937 131.986 186.151 132.922 187.179 133.193C187.179 133.193 186.383 133.464 186.383 133.923C186.351 134.313 186.425 134.705 186.6 135.059C186.774 135.413 187.042 135.718 187.377 135.942C188.312 136.239 189.298 136.362 190.281 136.303C190.281 136.303 190.469 136.631 191.463 137.001C191.815 137.132 192.646 137.452 194.034 137.871C195.21 138.26 196.434 138.5 197.675 138.585C198.883 138.667 199.568 138.437 203.098 141.088C205.369 142.795 214.236 149.081 218.965 152.068C226.145 156.598 227.216 155.417 234.267 151.527C241.319 147.637 251.548 141.851 251.548 141.851L257.863 121.334C257.863 121.334 253.219 121.351 246.845 125.446Z" fill="#FFA8A7"/>
<path d="M191.721 123.73C191.943 123.853 192.152 123.996 192.346 124.157C192.545 124.325 192.716 124.521 192.852 124.74L192.792 124.691C193.931 124.776 195.005 125.234 195.833 125.987C196.042 126.189 196.21 126.425 196.33 126.685C196.466 126.965 196.487 127.285 196.39 127.579C196.335 127.735 196.237 127.874 196.107 127.982C195.96 128.08 195.781 128.126 195.602 128.113C195.302 128.113 195.045 128.113 194.745 128.055C194.214 128.055 193.657 128.055 193.1 128.055C192.532 128.041 191.971 127.939 191.438 127.752C190.389 127.406 189.39 126.934 188.465 126.348C188.951 126.595 189.455 126.809 189.973 126.989C190.487 127.177 190.992 127.374 191.515 127.514C192.035 127.651 192.57 127.728 193.109 127.744C193.648 127.744 194.197 127.744 194.762 127.744C195.045 127.744 195.328 127.785 195.576 127.785C195.824 127.785 195.927 127.719 196.03 127.481C196.074 127.251 196.055 127.014 195.973 126.794C195.892 126.574 195.752 126.378 195.567 126.225C194.798 125.498 193.809 125.021 192.74 124.863H192.697C192.59 124.649 192.449 124.452 192.277 124.28C192.109 124.082 191.923 123.898 191.721 123.73Z" fill="#F28F8F"/>
<path d="M194.583 127.875C194.831 127.862 195.077 127.928 195.282 128.061C195.488 128.194 195.643 128.388 195.723 128.614C195.795 128.851 195.793 129.104 195.717 129.34C195.64 129.576 195.494 129.786 195.294 129.943C194.609 130.644 193.709 131.118 192.724 131.297C192.227 131.312 191.732 131.245 191.259 131.1C190.796 130.969 190.351 130.838 189.897 130.69C188.997 130.403 188.097 130.116 187.215 129.779C188.149 129.968 189.065 130.198 189.982 130.427C190.853 130.726 191.766 130.9 192.69 130.944C193.135 130.878 193.564 130.737 193.958 130.526C194.36 130.304 194.738 130.046 195.089 129.754C195.265 129.633 195.401 129.466 195.48 129.272C195.559 129.078 195.578 128.867 195.534 128.663C195.481 128.453 195.361 128.264 195.191 128.123C195.02 127.981 194.808 127.895 194.583 127.875Z" fill="#F28F8F"/>
<path d="M193.236 131.027C193.456 130.988 193.682 130.994 193.899 131.045C194.116 131.095 194.32 131.19 194.496 131.322C194.585 131.401 194.656 131.498 194.703 131.606C194.75 131.713 194.773 131.829 194.77 131.946C194.758 132.17 194.702 132.389 194.607 132.594C194.346 132.95 193.991 133.233 193.579 133.415C193.202 133.669 192.767 133.832 192.311 133.891C191.866 133.865 191.427 133.776 191.009 133.628C190.595 133.549 190.178 133.491 189.758 133.456C188.901 133.366 188.044 133.292 187.188 133.185C188.044 133.185 188.901 133.185 189.758 133.185C190.195 133.193 190.631 133.237 191.06 133.316C191.451 133.44 191.857 133.515 192.268 133.538C192.667 133.489 193.049 133.351 193.382 133.136C193.748 132.975 194.072 132.74 194.333 132.446C194.418 132.275 194.476 132.092 194.504 131.905C194.518 131.817 194.51 131.728 194.482 131.644C194.454 131.56 194.406 131.484 194.342 131.421C194.039 131.159 193.644 131.018 193.236 131.027Z" fill="#F28F8F"/>
<path d="M192.681 133.644C192.759 133.697 192.825 133.764 192.875 133.841C192.925 133.919 192.958 134.005 192.972 134.096C192.984 134.283 192.952 134.471 192.878 134.646C192.707 134.942 192.5 135.217 192.261 135.466C192.133 135.59 191.999 135.708 191.858 135.819C191.711 135.938 191.539 136.025 191.353 136.073C191.012 136.18 190.657 136.244 190.299 136.262L191.241 135.819C191.385 135.756 191.518 135.673 191.635 135.573C191.759 135.464 191.876 135.349 191.987 135.228C192.215 134.993 192.427 134.743 192.621 134.481C192.708 134.36 192.76 134.218 192.771 134.071C192.781 133.923 192.75 133.776 192.681 133.644Z" fill="#F28F8F"/>
<path d="M196.218 127.522C195.658 128.938 195.704 130.507 196.346 131.89C196.988 133.273 198.173 134.358 199.645 134.909C198.527 134.655 197.491 134.142 196.629 133.415C195.907 132.836 195.338 132.102 194.967 131.273L194.616 131.888C194.496 131.486 194.479 131.158 193.459 131.002C194.016 130.723 194.534 130.379 195.001 129.976C195.447 129.5 196.115 128.745 195.001 127.925C195.263 127.958 195.528 127.958 195.789 127.925C195.846 127.929 195.903 127.922 195.957 127.904C196.011 127.886 196.06 127.856 196.1 127.818C196.141 127.78 196.173 127.734 196.193 127.683C196.213 127.632 196.222 127.577 196.218 127.522Z" fill="#F28F8F"/>
<path d="M212.574 134.063C213.885 137.395 211.803 143.329 208.436 145.553C208.436 145.553 216.832 151.396 220.499 153.595C224.166 155.795 225.579 156.336 229.281 154.728C232.982 153.119 252.456 142.377 252.456 142.377L258.891 120.694C258.891 120.694 257.939 120.465 254.838 121.195C251.736 121.925 249.843 123.009 242.252 127.916C234.661 132.824 224.663 139.586 224.663 139.586L212.574 134.063Z" fill="#48428E"/>
<path opacity="0.2" d="M224.689 139.545C227.275 140.545 229.354 142.466 230.49 144.904C230.49 144.904 229.959 140.514 226.069 138.61L224.689 139.545Z" fill="black"/>
<path d="M287.312 125.144C292.941 128.64 306.107 137.15 310.021 139.858C310.021 139.858 323.294 133.49 328.21 130.749C330.374 129.534 330.849 128.812 331.148 127.918C331.473 126.719 331.939 125.558 332.537 124.454C333.259 123.199 333.655 122.813 334.516 121.172C335.378 119.53 336.276 116.321 336.152 114.82C336.645 114.171 338.466 114.311 339.064 116.149C339.427 117.692 339.406 119.293 339.002 120.827C338.835 121.836 338.545 122.895 338.853 123.092C339.16 123.289 340.796 122.706 342.371 122.509C343.945 122.312 345.405 121.828 347.067 122.509C347.339 122.601 347.587 122.746 347.794 122.933C348.001 123.121 348.164 123.347 348.271 123.597C348.378 123.848 348.428 124.116 348.416 124.386C348.404 124.655 348.331 124.919 348.202 125.16C347.948 125.532 347.593 125.835 347.173 126.038C347.472 126.036 347.768 126.091 348.043 126.2C348.319 126.308 348.567 126.468 348.774 126.67C349.083 127.097 349.225 127.61 349.176 128.123C349.126 128.636 348.888 129.117 348.501 129.485C348.837 129.511 349.151 129.652 349.384 129.881C349.616 130.109 349.749 130.41 349.759 130.724C349.838 131.684 349.618 132.62 348.563 132.891C348.563 132.891 349.381 133.162 349.381 133.621C349.414 134.011 349.337 134.403 349.158 134.757C348.979 135.111 348.704 135.416 348.36 135.64C347.4 135.937 346.388 136.06 345.379 136.001C345.379 136.001 345.185 136.329 344.165 136.699C343.804 136.83 342.951 137.15 341.526 137.569C340.319 137.958 339.062 138.198 337.788 138.283C336.548 138.365 335.845 138.135 332.221 140.786C329.89 142.493 320.787 148.779 315.932 151.766C308.561 156.296 307.462 155.115 300.223 151.225C292.985 147.335 282.483 141.549 282.483 141.549L276.001 121.032C276.001 121.032 280.768 121.048 287.312 125.144Z" fill="#FFA8A7"/>
<path d="M322.209 133.925C320.863 137.257 323 143.191 326.457 145.415C326.457 145.415 317.838 151.258 314.073 153.458C310.309 155.657 308.858 156.199 305.058 154.59C301.258 152.982 281.267 142.239 281.267 142.239L274.661 120.557C274.661 120.557 275.638 120.327 278.821 121.057C282.005 121.788 283.949 122.871 291.742 127.779C299.534 132.686 309.799 139.449 309.799 139.449L322.209 133.925Z" fill="#48428E"/>
<path d="M343.738 123.272C343.515 123.382 343.306 123.509 343.112 123.653C342.912 123.803 342.741 123.978 342.605 124.173L342.665 124.129C341.524 124.205 340.448 124.614 339.618 125.287C339.409 125.467 339.24 125.678 339.12 125.909C338.984 126.16 338.963 126.445 339.06 126.708C339.115 126.847 339.213 126.971 339.343 127.067C339.491 127.154 339.67 127.196 339.85 127.184C340.15 127.184 340.391 127.252 340.691 127.201C341.223 127.201 341.798 127.133 342.356 127.133C342.925 127.12 343.487 127.028 344.021 126.862C345.072 126.553 346.073 126.132 347 125.609C346.513 125.829 346.008 126.02 345.489 126.18C344.974 126.349 344.468 126.525 343.944 126.649C343.424 126.772 342.888 126.84 342.348 126.854C341.807 126.854 341.258 126.854 340.691 126.854C340.408 126.854 340.125 126.891 339.876 126.891C339.627 126.891 339.524 126.832 339.421 126.62C339.377 126.415 339.396 126.203 339.477 126.007C339.559 125.81 339.699 125.635 339.884 125.499C340.655 124.85 341.646 124.424 342.717 124.283H342.76C342.867 124.092 343.009 123.917 343.18 123.763C343.349 123.586 343.536 123.422 343.738 123.272Z" fill="#F28F8F"/>
<path d="M341.114 127.188C340.882 127.173 340.653 127.248 340.461 127.4C340.268 127.553 340.124 127.774 340.049 128.032C339.982 128.303 339.984 128.591 340.055 128.861C340.126 129.131 340.263 129.371 340.45 129.55C341.09 130.351 341.931 130.893 342.852 131.097C343.316 131.114 343.779 131.038 344.221 130.872C344.653 130.722 345.07 130.572 345.494 130.403C346.335 130.075 347.175 129.747 348 129.363C347.127 129.578 346.271 129.841 345.414 130.103C344.6 130.445 343.747 130.644 342.884 130.694C342.467 130.618 342.066 130.457 341.699 130.216C341.323 129.963 340.969 129.668 340.642 129.335C340.477 129.196 340.35 129.005 340.276 128.784C340.202 128.562 340.184 128.321 340.225 128.088C340.275 127.848 340.387 127.632 340.546 127.471C340.706 127.309 340.904 127.21 341.114 127.188Z" fill="#F28F8F"/>
<path d="M342.416 130.147C342.213 130.107 342.005 130.113 341.804 130.165C341.604 130.217 341.416 130.313 341.253 130.447C341.171 130.528 341.106 130.626 341.062 130.735C341.018 130.844 340.997 130.962 341 131.081C341.012 131.308 341.063 131.531 341.151 131.739C341.392 132.1 341.719 132.388 342.1 132.573C342.447 132.831 342.849 132.997 343.27 133.056C343.681 133.03 344.086 132.94 344.472 132.789C344.854 132.709 345.24 132.65 345.627 132.614C346.418 132.523 347.209 132.448 348 132.339C347.209 132.339 346.418 132.339 345.627 132.339C345.224 132.347 344.821 132.392 344.425 132.473C344.064 132.598 343.689 132.674 343.31 132.698C342.941 132.648 342.589 132.508 342.282 132.289C341.944 132.126 341.644 131.887 341.404 131.589C341.325 131.415 341.272 131.23 341.245 131.039C341.233 130.95 341.24 130.86 341.266 130.774C341.292 130.689 341.337 130.611 341.396 130.547C341.675 130.281 342.04 130.138 342.416 130.147Z" fill="#F28F8F"/>
<path d="M342.329 133.056C342.242 133.115 342.168 133.19 342.112 133.277C342.056 133.364 342.019 133.461 342.003 133.562C341.989 133.773 342.025 133.983 342.108 134.179C342.3 134.511 342.532 134.819 342.8 135.099C342.944 135.238 343.094 135.37 343.252 135.494C343.416 135.628 343.61 135.726 343.818 135.78C344.201 135.9 344.598 135.971 345 135.991L343.943 135.494C343.782 135.424 343.633 135.331 343.501 135.218C343.363 135.096 343.231 134.967 343.107 134.832C342.852 134.568 342.614 134.288 342.397 133.995C342.298 133.858 342.24 133.699 342.228 133.534C342.216 133.369 342.251 133.204 342.329 133.056Z" fill="#F28F8F"/>
<path d="M339 126.208C339.543 127.52 339.822 129.953 339.2 131.236C338.577 132.518 337.428 133.524 336 134.034C337.084 133.799 338.089 133.323 338.925 132.649C339.625 132.112 340.178 131.432 340.537 130.663L340.878 131.234C340.994 130.861 341.011 130.557 342 130.412C341.46 130.154 340.957 129.834 340.504 129.461C340.072 129.02 339.92 127.947 341 127.186C340.746 127.216 340.254 127.216 340 127.186C339.945 127.19 339.552 127.203 339.5 127.186C339.448 127.169 339.388 127.195 339.348 127.159C339.309 127.124 339.298 127.186 339.348 127.334C339.328 127.287 338.996 126.258 339 126.208Z" fill="#F28F8F"/>
<path d="M269.026 117.953L280.549 121.391C282.528 122.04 289.973 126.406 287.403 137.181C286.546 140.751 285.364 145.757 284.302 150.755C283.488 154.571 286.469 161.924 288.885 173.635C288.885 173.635 278.998 181.169 259.361 179.044C244.376 177.402 242.757 172.051 242.757 172.051C243.168 158.691 244.402 153.529 244.376 148.449C242.866 146.366 242.07 143.885 242.097 141.35C241.995 136.59 243.305 134.03 247.761 128.63C250.283 125.561 253.011 122.653 255.926 119.922L269.026 117.953Z" fill="#FAFAFA"/>
<path d="M247.701 134.571C244.274 142.13 246.571 185.264 246.262 182.031C246.262 182.031 239.811 179.635 239.211 177.575C239.211 169.803 240.702 154.202 240.796 148.851C240.907 142.721 240.839 138.281 242.904 134.514C244.968 130.747 252.799 121.506 255.892 119.906C252.714 122.581 249.029 130.041 247.701 134.571Z" fill="#48428E"/>
<g opacity="0.2">
<path d="M247.701 134.572C244.274 142.13 246.571 185.265 246.262 182.031C246.262 182.031 239.811 179.635 239.211 177.575C239.211 169.803 240.702 154.202 240.796 148.852C240.907 142.721 240.839 138.281 242.904 134.514C244.968 130.748 252.799 121.507 255.892 119.906C252.714 122.582 249.029 130.042 247.701 134.572Z" fill="black"/>
</g>
<path d="M260.331 120.357C258.155 121.785 248.387 128.211 246.451 140.726C246.451 135.203 248.619 128.416 250.675 125.249C253.185 121.342 257.306 118.757 260.254 117.116L260.331 120.357Z" fill="#263238"/>
<path d="M273.405 118.084C273.506 118.919 273.506 119.761 273.405 120.595C273.302 122.943 269.438 140.661 269.37 149.163C269.346 160.591 270.061 172.009 271.512 183.352C271.512 183.352 285.811 184.592 291.08 177.78C288.881 171.991 287.266 166.014 286.257 159.93C285.203 153.8 289.461 138.806 288.364 129.935C287.902 126.225 287.867 123.73 284.937 122.861C282.903 122.158 280.925 121.316 279.017 120.341L273.405 118.084Z" fill="#48428E"/>
<g opacity="0.2">
<path d="M273.403 118.084C273.504 118.919 273.504 119.761 273.403 120.595C273.3 122.943 269.436 140.661 269.368 149.163C269.344 160.591 270.059 172.009 271.51 183.352C271.51 183.352 285.809 184.592 291.078 177.78C288.879 171.991 287.264 166.014 286.255 159.93C285.201 153.8 289.459 138.806 288.362 129.935C287.9 126.225 287.865 123.73 284.935 122.861C282.901 122.158 280.923 121.316 279.015 120.341L273.403 118.084Z" fill="black"/>
</g>
<path d="M249.261 85.7579C245.071 86.0205 241.421 93.5871 245.619 99.7093C253.065 110.616 270.234 104.839 270.234 104.839L273.524 113.792C273.524 113.792 275.957 111.149 279.05 107.473C284.611 100.907 283.763 89.6314 277.054 88.3758C278.048 81.8514 256.046 72.9718 249.261 85.7579Z" fill="#E0E0E0"/>
<path d="M249.519 89.0408C248.533 90.9694 246.845 94.5311 247.214 105.192C247.505 113.522 250.529 115.343 253.383 116.402C254.779 116.919 256.93 116.919 259.92 116.607L259.997 120.514C259.997 120.514 254.556 125.282 256.27 134.908C273.114 128.179 273.405 119.947 273.405 119.947L273.679 107.03C274.228 107.851 277.021 108.967 279.111 106.398C281.579 103.378 281.03 99.7752 278.837 98.4457C276.644 97.1163 273.962 98.3801 272.96 100.842C270.595 101.786 267.459 99.4305 267.613 90.674C264.726 89.2296 259.106 91.2731 257.332 91.0761C254.556 90.8135 252.312 87.6211 249.519 89.0408Z" fill="#FFA8A7"/>
<path d="M249.518 89.0405C251.951 88.3019 253.107 92.7007 256.586 95.7783C258.396 97.3495 260.633 98.3989 263.038 98.8055C265.444 99.212 267.921 98.9592 270.183 98.0762C270.183 97.6822 271.982 90.1649 265.154 86.7016C258.325 83.2384 251.128 84.691 249.518 89.0405Z" fill="#E0E0E0"/>
<path d="M277.791 105.249C277.827 105.484 277.79 105.723 277.684 105.938C277.578 106.153 277.408 106.332 277.196 106.454C276.983 106.576 276.738 106.634 276.49 106.622C276.243 106.61 276.005 106.528 275.806 106.386C275.607 106.245 275.457 106.049 275.374 105.826C275.292 105.602 275.28 105.36 275.341 105.13C275.403 104.9 275.534 104.693 275.718 104.534C275.902 104.376 276.132 104.273 276.377 104.24C276.704 104.195 277.036 104.276 277.301 104.465C277.566 104.654 277.742 104.936 277.791 105.249Z" fill="#48428E"/>
<path d="M259.92 116.607C267.237 115.097 271.332 112.249 272.086 109.41C272.086 109.41 271.623 113.119 269.567 114.761C266.688 117.05 259.954 118.544 259.954 118.544L259.92 116.607Z" fill="#F28F8F"/>
<path d="M256.047 109.278L261.145 107.473C261.282 107.781 261.352 108.114 261.35 108.449C261.348 108.785 261.275 109.117 261.135 109.424C260.994 109.731 260.79 110.008 260.534 110.237C260.277 110.466 259.975 110.642 259.645 110.755C258.962 110.991 258.21 110.97 257.542 110.696C256.875 110.421 256.34 109.915 256.047 109.278Z" fill="#B16668"/>
<path d="M258.479 110.936C258.873 110.965 259.27 110.915 259.644 110.788C260.11 110.633 260.519 110.352 260.823 109.979C261.127 109.607 261.312 109.158 261.357 108.688C260.691 108.722 260.053 108.959 259.535 109.363C259.018 109.767 258.648 110.318 258.479 110.936Z" fill="#F28F8F"/>
<path d="M261.445 101.819C262.264 101.819 262.927 101.187 262.927 100.407C262.927 99.6276 262.264 98.9956 261.445 98.9956C260.627 98.9956 259.963 99.6276 259.963 100.407C259.963 101.187 260.627 101.819 261.445 101.819Z" fill="#263238"/>
<path d="M252.482 100.013C252.485 100.294 252.401 100.571 252.24 100.806C252.08 101.042 251.849 101.226 251.579 101.336C251.308 101.446 251.01 101.477 250.721 101.424C250.433 101.371 250.167 101.237 249.958 101.039C249.749 100.841 249.606 100.588 249.547 100.312C249.489 100.037 249.517 99.7503 249.629 99.4899C249.74 99.2296 249.93 99.0068 250.174 98.8501C250.419 98.6934 250.706 98.6097 251 98.6096C251.193 98.6086 251.385 98.644 251.564 98.7139C251.743 98.7839 251.907 98.887 252.044 99.0173C252.182 99.1476 252.291 99.3026 252.366 99.4734C252.442 99.6443 252.481 99.8276 252.482 100.013Z" fill="#263238"/>
<path d="M257.29 97.7646L256.501 107.252L251.789 105.463L257.29 97.7646Z" fill="#F28F8F"/>
<path d="M248.634 97.666L252.061 96.5499C251.997 96.3339 251.886 96.133 251.737 95.9595C251.588 95.786 251.403 95.6437 251.195 95.5414C250.986 95.4391 250.757 95.3789 250.523 95.3646C250.289 95.3504 250.054 95.3823 249.834 95.4584C249.375 95.607 248.994 95.9197 248.771 96.3312C248.547 96.7426 248.498 97.2209 248.634 97.666Z" fill="#455A64"/>
<path d="M263.818 97.748L260.477 96.3693C260.557 96.154 260.683 95.9572 260.847 95.7913C261.011 95.6255 261.21 95.4944 261.43 95.4063C261.65 95.3182 261.887 95.2752 262.126 95.2799C262.364 95.2846 262.599 95.337 262.816 95.4337C263.261 95.6219 263.614 95.9674 263.801 96.3984C263.988 96.8295 263.994 97.3128 263.818 97.748Z" fill="#455A64"/>
<path d="M273.491 115.647C274.587 115.598 274.879 116.246 276.327 117.822C277.154 118.738 278.066 119.581 279.051 120.341C277.715 128.138 271.34 137.863 269.481 147.021C269.395 139.635 271.469 129.41 273.431 118.085L273.491 115.647Z" fill="#263238"/>
<path d="M5.04131 317.941L1.83041 316.129C1.29873 315.793 0.856366 315.342 0.538579 314.813C0.220792 314.284 0.0363706 313.692 0 313.083L0 85.1237C0.0379273 84.5162 0.223091 83.9255 0.54081 83.3984C0.858529 82.8714 1.30007 82.4225 1.83041 82.0873L149.491 0.416649C150.06 0.142676 150.689 0 151.326 0C151.963 0 152.592 0.142676 153.162 0.416649L156.373 2.19934C156.905 2.53343 157.348 2.98188 157.668 3.509C157.987 4.03613 158.174 4.62739 158.213 5.23578L158.213 233.234C158.176 233.844 157.99 234.437 157.67 234.966C157.35 235.495 156.906 235.945 156.373 236.28L8.71236 317.941C8.14276 318.215 7.51421 318.358 6.87683 318.358C6.23946 318.358 5.6109 318.215 5.04131 317.941Z" fill="#37474F"/>
<path d="M158.193 4.95148C158.06 4.05034 157.293 3.71732 156.373 4.22666L8.71285 85.8875C8.1701 86.2074 7.72278 86.6562 7.41418 87.1902L0.532227 83.3898C0.843764 82.8578 1.29046 82.4097 1.8309 82.087L149.491 0.416405C150.061 0.142432 150.689 -0.000244141 151.327 -0.000244141C151.964 -0.000244141 152.593 0.142432 153.162 0.416405L156.373 2.19909C156.865 2.50593 157.282 2.91054 157.596 3.38546C157.91 3.86038 158.114 4.39448 158.193 4.95148Z" fill="#455A64"/>
<path d="M8.38513 318.087C8.35154 318.095 8.31647 318.095 8.28288 318.087L8.08858 318.156H8.017C7.90452 318.156 7.79204 318.215 7.67955 318.244C6.95193 318.379 6.19988 318.325 5.50146 318.087C5.36062 318.039 5.22388 317.98 5.09243 317.911L1.83041 316.128C1.29873 315.792 0.856366 315.342 0.538579 314.813C0.220792 314.284 0.0363706 313.691 0 313.082L0 85.1234C0.0224644 84.5119 0.205331 83.9156 0.531737 83.3896L7.41369 87.1901C7.08079 87.7139 6.89415 88.3109 6.87171 88.9238L6.87171 316.932C6.85534 317.259 6.9524 317.583 7.14781 317.852C7.27232 317.989 7.4338 318.089 7.61431 318.143C7.79482 318.196 7.9873 318.201 8.17039 318.156L8.38513 318.087Z" fill="#263238"/>
<path d="M60.1578 75.9751C60.1102 75.7358 59.9973 75.5127 59.8306 75.3287L59.7079 75.2307C59.6112 75.161 59.4979 75.1155 59.3783 75.0984C59.2586 75.0813 59.1364 75.0931 59.0227 75.1328C58.9315 75.1538 58.8449 75.1903 58.7671 75.2405C58.313 75.5402 57.9581 75.9583 57.7445 76.4453C57.4712 76.9967 57.3247 77.598 57.315 78.2084C57.2739 78.6646 57.4207 79.1181 57.7241 79.4719C57.8587 79.5964 58.0342 79.6723 58.2207 79.6866C58.4072 79.7008 58.5931 79.6527 58.7467 79.5503C58.9656 79.4239 59.1594 79.2614 59.3193 79.0703C59.4652 78.8882 59.5951 78.695 59.7079 78.4924C60.022 77.9032 60.1933 77.2537 60.2089 76.5922C60.2146 76.3854 60.1975 76.1785 60.1578 75.9751ZM84.1679 24.5808C83.635 24.281 83.0271 24.1252 82.4091 24.1302C81.2359 24.1827 80.0959 24.5197 79.0959 25.1097C76.3049 26.746 74.15 29.2127 72.9605 32.1328C72.7662 32.5441 72.5821 32.9751 72.4185 33.3963C72.2549 33.8175 72.0811 34.2485 71.9379 34.6892C71.7947 35.13 71.6311 35.5708 71.4982 36.0116C71.4471 36.1585 71.4061 36.3152 71.355 36.4523L71.0892 37.3437C71.0936 37.386 71.0936 37.4287 71.0892 37.471C70.9358 38.0098 70.7926 38.5681 70.629 39.1166C70.5472 39.4202 70.4756 39.7043 70.3938 39.9981L70.1586 40.8699C69.8314 42.0355 69.5042 43.1521 69.136 44.2198L68.9008 44.8662C68.7884 45.1699 68.6759 45.4735 68.5532 45.7674C68.4305 46.0612 68.3589 46.2179 68.2668 46.4236C68.1135 46.7861 67.9498 47.1289 67.776 47.4619C67.6022 47.7949 67.5613 47.8831 67.4488 48.0888C64.8617 52.8492 61.7019 54.7102 59.8715 57.159C58.266 59.2943 57.8263 60.9986 55.6585 64.3779C54.9733 65.4553 54.1144 66.6993 52.9895 68.1881C49.8707 72.302 48.7561 74.3394 48.3777 75.5735C48.3736 75.6061 48.3736 75.6389 48.3777 75.6715C48.3777 75.7694 48.3777 75.8576 48.3061 75.9457C48.3024 75.975 48.3024 76.0046 48.3061 76.0339C48.302 76.1122 48.302 76.1907 48.3061 76.269C48.2704 76.509 48.2533 76.7513 48.255 76.9938V86.1423L51.6909 88.0426V78.8842C51.6823 78.406 51.7548 77.9297 51.9056 77.4738C52.284 76.2396 53.3883 74.212 56.5174 70.0981C57.6423 68.5995 58.5012 67.3555 59.1864 66.2781C61.3338 62.9086 61.7939 61.1945 63.3994 59.0788C65.2298 56.6202 68.3896 54.769 70.9767 49.9988C71.3498 49.2657 71.6809 48.5136 71.9686 47.746C73.6251 43.828 74.3716 38.5485 76.4066 34.1113C77.5939 31.1952 79.7499 28.7342 82.542 27.1079C84.6383 25.9521 86.1722 25.8542 87.3481 26.3831L84.1679 24.5808ZM99.2305 36.276C98.9449 36.1201 98.6388 36.0015 98.3204 35.9234C97.0217 35.6296 95.0891 36.3544 93.1462 36.1389C95.8764 39.5182 99.6702 37.3437 101.756 37.8236C102.081 37.8981 102.391 38.0203 102.677 38.1861L99.2305 36.276ZM106.511 48.843C106.409 48.9028 106.313 48.9717 106.225 49.0487L106.082 49.1858L105.949 49.3328C105.375 50.0429 105.059 50.913 105.049 51.8109C105.015 52.2617 105.157 52.7086 105.448 53.0646C105.487 53.0997 105.528 53.1324 105.57 53.1626C105.665 53.2323 105.777 53.2778 105.895 53.295C106.013 53.3121 106.133 53.3002 106.245 53.2606C106.34 53.2391 106.43 53.2027 106.511 53.1528C106.613 53.094 106.706 53.0157 106.808 52.9471C106.956 52.8138 107.09 52.6661 107.207 52.5063C107.693 51.8245 107.96 51.0206 107.974 50.1947C107.974 49.0095 107.319 48.3924 106.511 48.843ZM108.761 40.5662C107.657 39.9766 106.458 39.5693 105.213 39.3615C104.681 39.2439 104.19 39.1166 103.791 38.9892C105.159 40.1556 106.836 40.9384 108.638 41.2519C109.732 41.4557 110.796 41.7846 111.808 42.2314L108.761 40.5662Z" fill="#48428E"/>
<path d="M112.085 42.398L111.808 42.2413C110.797 41.7945 109.732 41.4656 108.638 41.2618C106.836 40.9502 105.158 40.1671 103.791 38.9991C103.449 38.6961 103.076 38.427 102.677 38.1959C102.391 38.0342 102.08 37.9153 101.757 37.8433C99.7114 37.3634 95.8767 39.5378 93.1566 36.1586L93.0646 36.0508C91.1626 33.5923 90.4673 28.1071 87.6143 26.5007L87.3279 26.344C86.152 25.8151 84.6181 25.913 82.5218 27.0688C74.965 31.2513 74.7093 41.1834 71.9893 47.7167C69.2692 54.2499 65.4039 56.2971 63.3076 59.1082C61.2113 61.9194 61.0681 64.0057 56.4154 70.1374C51.7627 76.2691 51.5889 77.7775 51.5889 78.9529V88.1014L113.475 53.8189V44.6704C113.513 44.2011 113.399 43.732 113.151 43.3259C112.902 42.9198 112.53 42.5961 112.085 42.398ZM58.7674 79.5504C57.9595 80.001 57.3153 79.4035 57.3153 78.2085C57.3072 77.645 57.4339 77.0872 57.6856 76.5779C57.9372 76.0686 58.3073 75.6212 58.7674 75.27C59.5752 74.8194 60.2194 75.4267 60.2194 76.6217C60.2275 77.1837 60.1007 77.74 59.849 78.2478C59.5972 78.7555 59.2272 79.2012 58.7674 79.5504ZM82.5218 51.9873C82.1342 52.2699 81.6819 52.46 81.2023 52.5418C80.7227 52.6237 80.2297 52.595 79.764 52.4581C79.2983 52.3213 78.8733 52.0801 78.5243 51.7547C78.1752 51.4292 77.9121 51.0288 77.7566 50.5866C77.2223 49.4282 76.9671 48.1694 77.0101 46.9037C77.0101 42.4078 79.4746 37.4025 82.5218 35.7178C82.9333 35.4825 83.3824 35.3138 83.8512 35.2183C86.2645 34.7579 88.0335 36.9716 88.0335 40.8014C88.0335 45.2973 85.5691 50.3025 82.5218 51.9873ZM106.511 53.1431C105.704 53.5936 105.049 52.9962 105.049 51.811C105.043 51.2468 105.172 50.6888 105.425 50.1795C105.679 49.6703 106.05 49.2232 106.511 48.8725C107.319 48.4317 107.974 49.0292 107.974 50.2242C107.98 50.7855 107.851 51.3407 107.598 51.8468C107.344 52.3529 106.972 52.7964 106.511 53.1431Z" fill="#48428E"/>
<path opacity="0.1" d="M112.085 42.398L111.808 42.2413C110.797 41.7945 109.732 41.4656 108.638 41.2618C106.836 40.9502 105.158 40.1671 103.791 38.9991C103.449 38.6961 103.076 38.427 102.677 38.1959C102.391 38.0342 102.08 37.9153 101.757 37.8433C99.7114 37.3634 95.8767 39.5378 93.1566 36.1586L93.0646 36.0508C91.1626 33.5923 90.4673 28.1071 87.6143 26.5007L87.3279 26.344C86.152 25.8151 84.6181 25.913 82.5218 27.0688C74.965 31.2513 74.7093 41.1834 71.9893 47.7167C69.2692 54.2499 65.4039 56.2971 63.3076 59.1082C61.2113 61.9194 61.0681 64.0057 56.4154 70.1374C51.7627 76.2691 51.5889 77.7775 51.5889 78.9529V88.1014L113.475 53.8189V44.6704C113.513 44.2011 113.399 43.732 113.151 43.3259C112.902 42.9198 112.53 42.5961 112.085 42.398ZM58.7674 79.5504C57.9595 80.001 57.3153 79.4035 57.3153 78.2085C57.3072 77.645 57.4339 77.0872 57.6856 76.5779C57.9372 76.0686 58.3073 75.6212 58.7674 75.27C59.5752 74.8194 60.2194 75.4267 60.2194 76.6217C60.2275 77.1837 60.1007 77.74 59.849 78.2478C59.5972 78.7556 59.2272 79.2012 58.7674 79.5504ZM82.5218 51.9873C82.1342 52.2699 81.6819 52.46 81.2023 52.5418C80.7227 52.6237 80.2297 52.595 79.764 52.4581C79.2983 52.3212 78.8733 52.0801 78.5243 51.7547C78.1752 51.4292 77.9121 51.0288 77.7566 50.5866C77.2223 49.4282 76.9671 48.1694 77.0101 46.9037C77.0101 42.4078 79.4746 37.4025 82.5218 35.7178C82.9333 35.4825 83.3824 35.3138 83.8512 35.2183C86.2645 34.7579 88.0335 36.9716 88.0335 40.8014C88.0335 45.2973 85.5691 50.3025 82.5218 51.9873ZM106.511 53.1431C105.704 53.5937 105.049 52.9962 105.049 51.811C105.043 51.2468 105.172 50.6888 105.425 50.1795C105.679 49.6703 106.05 49.2232 106.511 48.8725C107.319 48.4317 107.974 49.0292 107.974 50.2242C107.98 50.7855 107.851 51.3407 107.598 51.8468C107.344 52.3529 106.972 52.7964 106.511 53.1431Z" fill="black"/>
<path opacity="0.25" d="M51.804 77.5128C51.6532 77.9687 51.5807 78.4451 51.5893 78.9233V88.0816L48.1534 86.1814V77.0328C48.1517 76.7903 48.1688 76.5481 48.2046 76.308C48.2005 76.2297 48.2005 76.1512 48.2046 76.0729C48.2008 76.0436 48.2008 76.014 48.2046 75.9848C48.2046 75.8966 48.2046 75.8085 48.2761 75.7105V75.6125L51.804 77.5128Z" fill="black"/>
<path opacity="0.25" d="M63.2978 59.1181C61.6924 61.2338 61.2527 62.948 59.0848 66.3174L55.6592 64.3976C57.8066 61.0183 58.2667 59.314 59.8722 57.1787L63.2978 59.1181Z" fill="black"/>
<path opacity="0.25" d="M76.4274 34.0328C74.3823 38.4699 73.646 43.7004 71.9895 47.6674C71.6676 48.4606 71.2988 49.2357 70.8851 49.9888L67.4492 48.0984C67.5617 47.8927 67.6742 47.6772 67.7764 47.4715C67.8787 47.2658 68.1139 46.7956 68.2673 46.4332C68.3593 46.2275 68.4616 46.0023 68.5536 45.777C68.6456 45.5517 68.7888 45.1795 68.9013 44.8758L69.1365 44.2294C69.5046 43.1617 69.8318 42.0451 70.159 40.8795L70.3942 40.0077C70.4761 39.7139 70.5476 39.4298 70.6294 39.1262C70.793 38.5776 70.9362 38.0193 71.0896 37.4806C71.094 37.4383 71.094 37.3956 71.0896 37.3533L71.3555 36.4619C71.4066 36.3248 71.4475 36.1681 71.4986 36.0212C71.6316 35.5804 71.7849 35.1396 71.9383 34.6988C72.0917 34.2581 72.2451 33.8369 72.4189 33.4059C72.5928 32.9749 72.7666 32.5537 72.9609 32.1423L76.4274 34.0328Z" fill="black"/>
<path d="M57.7351 76.4448C57.4617 76.9963 57.3153 77.5975 57.3056 78.2079C57.2645 78.6641 57.4113 79.1176 57.7146 79.4715C57.4206 79.1133 57.2782 78.6621 57.3158 78.2079C57.3272 77.5988 57.4699 76.9985 57.7351 76.4448ZM60.2302 76.5917C60.2292 76.3842 60.2052 76.1773 60.1586 75.9747C60.2017 76.1777 60.2223 76.3845 60.22 76.5917C60.2078 77.2525 60.04 77.902 59.7291 78.492C60.0432 77.9027 60.2145 77.2532 60.2302 76.5917ZM105.571 53.1621C105.666 53.2318 105.778 53.2773 105.896 53.2945C106.014 53.3116 106.134 53.2998 106.246 53.2601C106.133 53.294 106.014 53.3028 105.897 53.2859C105.78 53.2689 105.669 53.2266 105.571 53.1621Z" fill="#48428E"/>
<path d="M88.0449 40.8012C88.0449 45.2971 85.5703 50.3024 82.523 51.9871C82.1325 52.2594 81.6814 52.4411 81.2051 52.5178C80.7288 52.5946 80.2404 52.5644 79.7784 52.4295C79.3164 52.2947 78.8934 52.0589 78.5428 51.7407C78.1921 51.4226 77.9234 51.0308 77.7578 50.5962C78.2308 50.4989 78.6835 50.3267 79.0974 50.0869C82.1651 48.3924 84.6091 43.3969 84.6091 38.901C84.6539 37.6341 84.395 36.3742 83.8524 35.2181C86.2861 34.7577 88.0449 36.9714 88.0449 40.8012Z" fill="#48428E"/>
<path opacity="0.3" d="M88.0449 40.8012C88.0449 45.2971 85.5703 50.3024 82.523 51.9871C82.1325 52.2594 81.6814 52.4411 81.2051 52.5178C80.7288 52.5946 80.2404 52.5644 79.7784 52.4295C79.3164 52.2947 78.8934 52.0589 78.5428 51.7407C78.1921 51.4226 77.9234 51.0308 77.7578 50.5962C78.2308 50.4989 78.6835 50.3267 79.0974 50.0869C82.1651 48.3924 84.6091 43.3969 84.6091 38.901C84.6539 37.6341 84.395 36.3742 83.8524 35.2181C86.2861 34.7577 88.0449 36.9714 88.0449 40.8012Z" fill="black"/>
<path d="M18.2938 107.211L146.791 36.1481C147.132 35.9836 147.508 35.8979 147.89 35.8979C148.272 35.8979 148.648 35.9836 148.989 36.1481L150.227 36.8338C150.547 37.0358 150.813 37.3065 151.005 37.6245C151.197 37.9425 151.308 38.2989 151.331 38.6654L151.331 226.435C151.309 226.801 151.198 227.156 151.006 227.473C150.814 227.789 150.547 228.058 150.227 228.257L21.7297 299.32C21.3902 299.489 21.0131 299.577 20.6304 299.577C20.2477 299.577 19.8707 299.489 19.5312 299.32L18.2938 298.634C17.9728 298.436 17.7054 298.167 17.5135 297.85C17.3215 297.534 17.2105 297.178 17.1895 296.812L17.1895 109.042C17.2097 108.675 17.3204 108.318 17.5123 108C17.7042 107.681 17.972 107.411 18.2938 107.211Z" fill="#F5F5F5"/>
<path d="M151.29 38.343C151.147 37.912 150.728 37.7749 150.268 38.0492L21.7296 109.112C21.404 109.308 21.1364 109.581 20.9525 109.905L17.5166 108.005C17.6938 107.679 17.9631 107.408 18.2938 107.221L146.791 36.1587C147.129 35.9897 147.504 35.9014 147.885 35.9014C148.266 35.9014 148.641 35.9897 148.979 36.1587L150.227 36.8346C150.5 37.0057 150.734 37.2272 150.917 37.4862C151.1 37.7452 151.227 38.0365 151.29 38.343Z" fill="#FAFAFA"/>
<path d="M21.4741 299.477C21.3421 299.525 21.2048 299.558 21.065 299.575H20.8503C20.6295 299.6 20.4064 299.6 20.1856 299.575C20.0456 299.559 19.9082 299.526 19.7766 299.477L19.5312 299.36L18.2938 298.674C17.9717 298.477 17.7034 298.208 17.5113 297.891C17.3192 297.574 17.2089 297.218 17.1895 296.852L17.1895 109.043C17.2001 108.675 17.3131 108.317 17.5167 108.005L20.9525 109.905C20.7589 110.221 20.6499 110.578 20.6355 110.943L20.6355 298.713C20.6355 299.291 20.9832 299.575 21.4741 299.477Z" fill="#E0E0E0"/>
<path d="M44.5225 112.569L47.4266 110.336C46.2711 111.228 44.6963 112.393 44.5225 112.569Z" fill="#48428E"/>
<path d="M122.939 113.29C121.029 112.406 118.831 112.283 116.826 112.947C114.821 113.611 113.173 115.009 112.242 116.835L78.1435 184.113L71.3295 177.04C69.8713 175.621 67.8938 174.801 65.8158 174.755C63.7377 174.708 61.7223 175.438 60.1962 176.79C58.6702 178.142 57.7534 180.009 57.6399 181.997C57.5264 183.985 58.2252 185.938 59.5882 187.441L74.358 202.771C75.2421 203.688 76.3464 204.383 77.5749 204.798C78.8034 205.213 80.119 205.334 81.4076 205.151C82.6961 204.969 83.9187 204.488 84.9691 203.75C86.0195 203.012 86.8661 202.04 87.4353 200.918L126.655 123.537C127.58 121.706 127.707 119.598 127.01 117.677C126.313 115.756 124.849 114.178 122.939 113.29Z" fill="#48428E"/>
</svg>
