<svg width="630" height="445" viewBox="0 0 630 445" fill="none" xmlns="http://www.w3.org/2000/svg">
<path d="M92.2682 394.521C215.3 461.566 414.695 461.58 537.726 394.521C660.758 327.462 660.758 218.741 537.726 151.682C414.695 84.6232 215.3 84.6232 92.2682 151.682C-30.7631 218.741 -30.749 327.433 92.2682 394.521Z" fill="#F5F5F5"/>
<path d="M157.842 370.183L243.554 419.678C257.497 427.725 280.11 427.725 294.053 419.678L504.14 298.386C518.083 290.34 518.083 277.287 504.14 269.227L418.428 219.731C404.47 211.685 381.858 211.685 367.914 219.731L157.842 341.023C143.884 349.07 143.884 362.122 157.842 370.183Z" fill="#EBEBEB"/>
<path d="M283.334 69.6893C277.918 64.5984 268.118 62.6185 255.815 70.156C243.512 77.6934 233.782 101.805 230.728 118.859C227.673 135.914 225.75 158.187 231.859 167.634C237.968 177.08 260.142 187.092 260.142 187.092L262.829 177.801L283.334 69.6893Z" fill="#6C64C4"/>
<path opacity="0.4" d="M283.334 69.6893C277.918 64.5984 268.118 62.6185 255.815 70.156C243.512 77.6934 233.782 101.805 230.728 118.859C227.673 135.914 225.75 158.187 231.859 167.634C237.968 177.08 260.142 187.092 260.142 187.092L262.829 177.801L283.334 69.6893Z" fill="white"/>
<path d="M237.939 164.805C247.542 176.302 262.885 177.858 262.885 177.858L322.067 143.593L298.366 129.918L237.939 164.805Z" fill="#6C64C4"/>
<path opacity="0.2" d="M237.939 164.805C247.542 176.302 262.885 177.858 262.885 177.858L322.067 143.593L298.366 129.918L237.939 164.805Z" fill="black"/>
<path d="M237.939 164.805C234.05 160.195 233.258 148.33 235.365 129.989C237.656 109.851 245.109 78.6973 262.871 68.4306C283.701 56.4103 304.857 86.2772 298.408 129.989L237.939 164.805Z" fill="#6C64C4"/>
<path d="M376.584 262.269C387.515 274.657 395.519 277.118 398.446 279.762C401.374 282.406 400.214 288.12 393.681 289.944C387.147 291.768 379.808 290.693 375.212 286.748C370.616 282.802 367.208 277.414 362.598 274.614C357.987 271.814 355.696 271.15 354.763 267.544C353.83 263.938 356.319 252.695 356.319 252.695L376.584 262.269Z" fill="#263238"/>
<path d="M370.319 242.584C369.739 247.42 369.032 251.677 372.708 257.178C373.896 258.947 375.19 260.642 376.583 262.254C382.975 269.622 388.165 275.364 389.084 276.396C390.004 277.428 385.323 281.176 379.525 279.224C373.727 277.273 368.282 269.325 364.238 264.616C362.442 262.509 360.688 260.6 359.302 259.129C357.438 257.168 356.357 254.593 356.262 251.889L355.993 244.252L370.319 242.584Z" fill="#FFA8A7"/>
<path d="M343.394 282.534C354.326 294.936 362.316 297.382 365.257 300.027C368.198 302.671 367.025 308.399 360.491 310.223C353.958 312.047 346.618 310.972 342.008 307.013C337.398 303.053 334.018 297.693 329.408 294.893C324.798 292.093 322.493 291.429 321.574 287.823C320.655 284.217 323.129 272.974 323.129 272.974L343.394 282.534Z" fill="#263238"/>
<path d="M337.114 262.863C336.549 267.713 335.828 271.956 339.518 277.457C340.703 279.228 341.997 280.924 343.393 282.533C349.785 289.915 354.961 295.657 355.88 296.675C356.799 297.693 352.133 301.455 346.321 299.503C340.508 297.552 335.078 289.604 331.048 284.909C329.252 282.788 327.498 280.893 326.112 279.422C324.251 277.46 323.169 274.885 323.072 272.182L322.789 264.531L337.114 262.863Z" fill="#FFA8A7"/>
<path d="M292.908 1.60214e-05H301.308C304.589 -0.00370004 307.838 0.639057 310.871 1.89157C313.903 3.14408 316.659 4.9818 318.981 7.29972C321.302 9.61763 323.145 12.3703 324.403 15.4005C325.66 18.4307 326.308 21.679 326.31 24.9598V87.6917H267.934V24.9598C267.938 18.3388 270.571 11.9902 275.254 7.30972C279.937 2.62925 286.287 1.49599e-05 292.908 1.60214e-05Z" fill="#263238"/>
<path d="M329.818 72.8852C320.046 62.6185 315.054 61.572 309.115 61.572L320.428 94.8046C320.428 94.8046 339.038 107.108 349.927 113.896L356.842 98.6511C356.842 98.6511 339.59 83.1096 329.818 72.8852Z" fill="#FFA8A7"/>
<path d="M263.777 147.835C260.143 155.67 255.462 163.999 260.199 172.06C264.937 180.12 303.416 172.06 303.416 172.06V147.835H263.777Z" fill="#263238"/>
<path d="M305.41 61.5722C309.652 61.2187 314.46 61.3459 319.551 69.9157C324.642 78.4855 327.499 83.2936 325.886 95.7664C324.274 108.239 318.25 117.856 317.812 122.522C317.373 127.189 318.49 149.617 318.49 149.617C318.49 149.617 311.052 160.238 292.555 160.733C287.102 160.852 281.69 159.757 276.713 157.526C271.736 155.295 267.317 151.985 263.777 147.836L277.918 122.466L274.298 70.9056L288.114 62.6328L305.41 61.5722Z" fill="#6C64C4"/>
<path d="M305.41 61.5722C309.652 61.2187 314.46 61.3459 319.551 69.9157C324.642 78.4855 327.499 83.2936 325.886 95.7664C324.274 108.239 318.25 117.856 317.812 122.522C317.373 127.189 318.49 149.617 318.49 149.617C318.49 149.617 311.052 160.238 292.555 160.733C287.102 160.852 281.69 159.757 276.713 157.526C271.736 155.295 267.317 151.985 263.777 147.836L277.918 122.466L274.298 70.9056L288.114 62.6328L305.41 61.5722Z" fill="#E0E0E0"/>
<path d="M288.129 79.8149C286.789 79.8149 285.462 79.5507 284.224 79.0374C282.986 78.5241 281.861 77.7718 280.914 76.8235C279.968 75.8752 279.217 74.7496 278.705 73.5109C278.194 72.2722 277.931 70.9448 277.933 69.6047V39.9075H288.129V79.8149Z" fill="#263238"/>
<path d="M316.694 11.7942C319.763 13.6184 323.581 21.368 323.199 37.6025C322.888 51.3763 318.419 54.7703 316.128 55.7602C313.837 56.7501 309.567 56.142 305.352 55.435V63.7078C305.352 63.7078 311.165 70.4533 310.797 74.2291C310.429 78.0048 302.411 78.924 296.981 75.219C293.458 72.682 290.434 69.5181 288.057 65.8856V45.9036C288.057 45.9036 285.229 49.6935 280.591 46.6106C275.952 43.5278 275.768 35.9055 278.469 33.1762C281.17 30.4469 286.954 31.2954 288.057 35.0853C288.057 35.0853 294.76 35.3257 303.613 30.4327C307.107 28.5761 310.114 25.9201 312.387 22.6811C314.66 19.4421 316.136 15.7118 316.694 11.7942Z" fill="#FFA8A7"/>
<path d="M307.828 34.1518C307.849 34.6094 307.687 35.0564 307.378 35.3945C307.069 35.7327 306.638 35.9342 306.181 35.9549C305.723 35.9755 305.276 35.8135 304.938 35.5045C304.6 35.1956 304.398 34.7649 304.378 34.3074C304.368 34.0808 304.402 33.8544 304.479 33.6412C304.557 33.428 304.675 33.2321 304.828 33.0646C304.981 32.8972 305.165 32.7615 305.371 32.6654C305.576 32.5693 305.799 32.5145 306.025 32.5043C306.252 32.4941 306.478 32.5286 306.691 32.6059C306.905 32.6832 307.101 32.8016 307.268 32.9546C307.435 33.1076 307.571 33.2921 307.667 33.4975C307.763 33.7029 307.818 33.9252 307.828 34.1518Z" fill="#263238"/>
<path d="M304.702 28.8488L301.11 31.069C300.818 30.577 300.728 29.9908 300.86 29.4341C300.992 28.8774 301.335 28.3937 301.817 28.0851C302.055 27.9416 302.32 27.8474 302.596 27.8081C302.871 27.7689 303.152 27.7853 303.421 27.8566C303.69 27.9278 303.942 28.0523 304.162 28.2227C304.382 28.3932 304.566 28.6061 304.702 28.8488Z" fill="#263238"/>
<path d="M308.295 45.8187L312.312 47.1056C312.235 47.372 312.107 47.6205 311.933 47.8366C311.76 48.0526 311.545 48.2317 311.301 48.3635C311.057 48.4952 310.79 48.5769 310.514 48.6037C310.238 48.6306 309.96 48.602 309.695 48.5198C309.162 48.3324 308.72 47.9486 308.46 47.4467C308.2 46.9448 308.141 46.3626 308.295 45.8187Z" fill="#F28F8F"/>
<path d="M322.068 28.8346L318.561 26.4022C318.707 26.1648 318.9 25.9599 319.128 25.8002C319.357 25.6405 319.615 25.5293 319.888 25.4737C320.161 25.418 320.443 25.419 320.716 25.4765C320.988 25.5341 321.246 25.647 321.474 25.8083C321.94 26.142 322.261 26.6411 322.371 27.2036C322.482 27.7661 322.373 28.3495 322.068 28.8346Z" fill="#263238"/>
<path d="M321.219 32.8932C321.224 33.2347 321.129 33.5701 320.944 33.8577C320.76 34.1453 320.495 34.3722 320.183 34.5103C319.871 34.6484 319.524 34.6915 319.188 34.6342C318.851 34.5769 318.539 34.4217 318.29 34.1881C318.041 33.9544 317.866 33.6526 317.787 33.3203C317.708 32.988 317.729 32.6399 317.847 32.3193C317.965 31.9988 318.174 31.72 318.45 31.5178C318.725 31.3155 319.053 31.1988 319.395 31.1821C319.627 31.1745 319.858 31.2128 320.076 31.2947C320.293 31.3767 320.492 31.5006 320.661 31.6596C320.831 31.8185 320.967 32.0092 321.063 32.2209C321.159 32.4326 321.212 32.661 321.219 32.8932Z" fill="#263238"/>
<path d="M313.046 31.9033L313.329 42.3256L318.816 40.6287L313.046 31.9033Z" fill="#F28F8F"/>
<path d="M305.409 55.4349C301.916 55.0389 294.902 52.9177 293.346 50.556C293.646 52.0646 294.486 53.412 295.708 54.346C297.999 56.5379 305.409 58.1217 305.409 58.1217V55.4349Z" fill="#F28F8F"/>
<path d="M268.797 290.637L156.272 225.671L393.171 88.8937L505.696 153.86L268.797 290.637Z" fill="#6C64C4"/>
<path opacity="0.4" d="M268.797 290.637L156.272 225.671L393.171 88.8937L505.696 153.86L268.797 290.637Z" fill="white"/>
<path d="M156.272 225.671V355.603L162.198 359.025V270.117L262.885 328.239V417.147L268.797 420.569V290.637L156.272 225.671Z" fill="#6C64C4"/>
<path opacity="0.3" d="M156.272 225.671V355.603L162.198 359.025V270.117L262.885 328.239V417.147L268.797 420.569V290.637L156.272 225.671Z" fill="black"/>
<path d="M162.198 359.025L168.123 355.603V273.54L162.198 270.117V359.025Z" fill="#6C64C4"/>
<path opacity="0.5" d="M162.198 359.025L168.123 355.603V273.54L162.198 270.117V359.025Z" fill="black"/>
<path d="M268.797 420.569L274.722 417.147V328.239L499.771 198.307V287.215L505.696 283.792V153.86L268.797 290.637V420.569Z" fill="#6C64C4"/>
<path opacity="0.1" d="M268.797 420.569L274.722 417.147V328.239L499.771 198.307V287.215L505.696 283.792V153.86L268.797 290.637V420.569Z" fill="black"/>
<path d="M274.722 321.409V294.059L345.797 253.021V280.37L274.722 321.409Z" fill="#6C64C4"/>
<path opacity="0.3" d="M274.722 321.409V294.059L345.797 253.021V280.37L274.722 321.409Z" fill="black"/>
<path d="M351.709 276.962V249.598L422.784 208.573V235.923L351.709 276.962Z" fill="#6C64C4"/>
<path opacity="0.3" d="M351.709 276.962V249.598L422.784 208.573V235.923L351.709 276.962Z" fill="black"/>
<path d="M428.71 232.501V205.151L499.771 164.113V191.476L428.71 232.501Z" fill="#6C64C4"/>
<path opacity="0.3" d="M428.71 232.501V205.151L499.771 164.113V191.476L428.71 232.501Z" fill="black"/>
<path d="M322.069 266.695V268.887C322.069 270.089 319.241 272.705 315.748 274.713L304.689 281.105C301.196 283.114 298.368 283.778 298.368 282.52V280.342L322.069 266.695Z" fill="#263238"/>
<path d="M399.097 222.248V224.44C399.097 225.642 396.268 228.258 392.775 230.266L381.717 236.658C378.238 238.666 375.41 239.317 375.41 238.073V235.881L399.097 222.248Z" fill="#263238"/>
<path d="M476.084 177.802V179.979C476.084 181.195 473.256 183.798 469.777 185.82L458.704 192.198C455.225 194.22 452.397 194.87 452.397 193.612V191.42L476.084 177.802Z" fill="#263238"/>
<path d="M499.771 287.215L493.859 283.792V201.729L499.771 198.307V287.215Z" fill="#6C64C4"/>
<path opacity="0.3" d="M499.771 287.215L493.859 283.792V201.729L499.771 198.307V287.215Z" fill="black"/>
<path d="M333.948 162.656V162.161C333.973 161.723 334.1 161.297 334.319 160.917C334.537 160.536 334.841 160.212 335.206 159.969L409.746 116.979C410.139 116.782 410.573 116.68 411.012 116.68C411.451 116.68 411.885 116.782 412.278 116.979L427.522 125.775C427.888 126.018 428.192 126.342 428.41 126.723C428.629 127.103 428.755 127.529 428.781 127.967V128.476C428.752 128.913 428.622 129.337 428.401 129.715C428.18 130.093 427.874 130.414 427.508 130.654L353.053 173.644C352.66 173.841 352.227 173.943 351.787 173.943C351.348 173.943 350.915 173.841 350.522 173.644L335.206 164.806C334.846 164.567 334.546 164.249 334.328 163.877C334.11 163.504 333.98 163.087 333.948 162.656Z" fill="#6C64C4"/>
<path opacity="0.7" d="M333.948 162.656V162.161C333.973 161.723 334.1 161.297 334.319 160.917C334.537 160.536 334.841 160.212 335.206 159.969L409.746 116.979C410.139 116.782 410.573 116.68 411.012 116.68C411.451 116.68 411.885 116.782 412.278 116.979L427.522 125.775C427.888 126.018 428.192 126.342 428.41 126.723C428.629 127.103 428.755 127.529 428.781 127.967V128.476C428.752 128.913 428.622 129.337 428.401 129.715C428.18 130.093 427.874 130.414 427.508 130.654L353.053 173.644C352.66 173.841 352.227 173.943 351.787 173.943C351.348 173.943 350.915 173.841 350.522 173.644L335.206 164.806C334.846 164.567 334.546 164.249 334.328 163.877C334.11 163.504 333.98 163.087 333.948 162.656Z" fill="white"/>
<path d="M335.206 161.426L350.45 170.236C350.843 170.433 351.276 170.535 351.716 170.535C352.155 170.535 352.589 170.433 352.981 170.236L427.437 127.246C427.572 127.184 427.687 127.084 427.767 126.959C427.848 126.833 427.89 126.688 427.89 126.539C427.89 126.39 427.848 126.244 427.767 126.119C427.687 125.993 427.572 125.894 427.437 125.832L412.192 117.036C411.799 116.839 411.366 116.737 410.926 116.737C410.487 116.737 410.054 116.839 409.661 117.036L335.191 160.026C334.513 160.379 334.513 161.03 335.206 161.426Z" fill="#6C64C4"/>
<path opacity="0.9" d="M335.206 161.426L350.45 170.236C350.843 170.433 351.276 170.535 351.716 170.535C352.155 170.535 352.589 170.433 352.981 170.236L427.437 127.246C427.572 127.184 427.687 127.084 427.767 126.959C427.848 126.833 427.89 126.688 427.89 126.539C427.89 126.39 427.848 126.244 427.767 126.119C427.687 125.993 427.572 125.894 427.437 125.832L412.192 117.036C411.799 116.839 411.366 116.737 410.926 116.737C410.487 116.737 410.054 116.839 409.661 117.036L335.191 160.026C334.513 160.379 334.513 161.03 335.206 161.426Z" fill="white"/>
<path d="M240.457 203.596L285.3 229.503C285.693 229.7 286.126 229.802 286.566 229.802C287.005 229.802 287.438 229.7 287.831 229.503L320.838 210.44C320.978 210.383 321.098 210.285 321.183 210.159C321.268 210.033 321.313 209.885 321.313 209.733C321.313 209.581 321.268 209.433 321.183 209.307C321.098 209.181 320.978 209.083 320.838 209.026L275.981 183.133C275.592 182.931 275.16 182.825 274.722 182.825C274.284 182.825 273.852 182.931 273.463 183.133L240.457 202.139C239.75 202.549 239.75 203.2 240.457 203.596Z" fill="#6C64C4"/>
<path opacity="0.8" d="M240.457 203.596L285.3 229.503C285.693 229.7 286.126 229.802 286.566 229.802C287.005 229.802 287.438 229.7 287.831 229.503L320.838 210.44C320.978 210.383 321.098 210.285 321.183 210.159C321.268 210.033 321.313 209.885 321.313 209.733C321.313 209.581 321.268 209.433 321.183 209.307C321.098 209.181 320.978 209.083 320.838 209.026L275.981 183.133C275.592 182.931 275.16 182.825 274.722 182.825C274.284 182.825 273.852 182.931 273.463 183.133L240.457 202.139C239.75 202.549 239.75 203.2 240.457 203.596Z" fill="white"/>
<path d="M273.463 183.09L242.111 201.178L285.3 226.123C285.692 226.32 286.126 226.422 286.565 226.422C287.005 226.422 287.438 226.32 287.831 226.123L319.239 208.022L276.037 183.09C275.641 182.879 275.199 182.768 274.75 182.768C274.301 182.768 273.859 182.879 273.463 183.09Z" fill="#6C64C4"/>
<path opacity="0.7" d="M273.463 183.09L242.111 201.178L285.3 226.123C285.692 226.32 286.126 226.422 286.565 226.422C287.005 226.422 287.438 226.32 287.831 226.123L319.239 208.022L276.037 183.09C275.641 182.879 275.199 182.768 274.75 182.768C274.301 182.768 273.859 182.879 273.463 183.09Z" fill="white"/>
<path d="M240.457 199.042L285.3 224.935C285.693 225.132 286.126 225.234 286.566 225.234C287.005 225.234 287.439 225.132 287.831 224.935L320.838 205.887C320.973 205.825 321.088 205.725 321.168 205.6C321.249 205.474 321.292 205.329 321.292 205.18C321.292 205.031 321.249 204.885 321.168 204.759C321.088 204.634 320.973 204.535 320.838 204.472L275.981 178.523C275.59 178.328 275.159 178.227 274.722 178.227C274.286 178.227 273.855 178.328 273.464 178.523L240.457 197.586C240.302 197.634 240.167 197.731 240.071 197.862C239.975 197.993 239.923 198.151 239.923 198.314C239.923 198.476 239.975 198.634 240.071 198.765C240.167 198.896 240.302 198.993 240.457 199.042Z" fill="#6C64C4"/>
<path opacity="0.9" d="M240.457 199.042L285.3 224.935C285.693 225.132 286.126 225.234 286.566 225.234C287.005 225.234 287.439 225.132 287.831 224.935L320.838 205.887C320.973 205.825 321.088 205.725 321.168 205.6C321.249 205.474 321.292 205.329 321.292 205.18C321.292 205.031 321.249 204.885 321.168 204.759C321.088 204.634 320.973 204.535 320.838 204.472L275.981 178.523C275.59 178.328 275.159 178.227 274.722 178.227C274.286 178.227 273.855 178.328 273.464 178.523L240.457 197.586C240.302 197.634 240.167 197.731 240.071 197.862C239.975 197.993 239.923 198.151 239.923 198.314C239.923 198.476 239.975 198.634 240.071 198.765C240.167 198.896 240.302 198.993 240.457 199.042Z" fill="white"/>
<path d="M265.318 172.06C263.833 176.105 266.11 179.371 270.423 179.343C272.689 179.225 274.876 178.471 276.734 177.168C278.593 175.865 280.046 174.066 280.93 171.975C282.429 167.931 280.138 164.664 275.825 164.692C273.558 164.811 271.371 165.564 269.513 166.867C267.655 168.17 266.201 169.97 265.318 172.06Z" fill="#6C64C4"/>
<path opacity="0.1" d="M265.318 172.06C263.833 176.105 266.11 179.371 270.423 179.343C272.689 179.225 274.876 178.471 276.734 177.168C278.593 175.865 280.046 174.066 280.93 171.975C282.429 167.931 280.138 164.664 275.825 164.692C273.558 164.811 271.371 165.564 269.513 166.867C267.655 168.17 266.201 169.97 265.318 172.06Z" fill="black"/>
<path d="M268.896 191.25C265.516 200.4 270.692 207.796 280.464 207.739C290.236 207.683 300.856 200.159 304.25 191.052C307.644 181.945 302.44 174.521 292.682 174.563C282.924 174.606 272.262 182.087 268.896 191.25Z" fill="#455A64"/>
<path d="M276.816 164.805L270.961 168.892L265.107 172.979C263.169 180.658 262.59 192.65 269.788 202.973L303.473 179.442C296.204 169.048 284.636 165.569 276.816 164.805Z" fill="#455A64"/>
<path d="M280.196 165.357C280.196 165.357 281.242 174.62 274.299 178.82C274.299 178.82 280.832 177.024 282.784 172.428C284.735 167.832 280.196 165.357 280.196 165.357Z" fill="#263238"/>
<path d="M281.058 166.403C278.45 162.778 274.94 159.897 270.876 158.046L266.181 161.383L265.658 161.751L260.949 165.088C261.357 169.518 262.907 173.767 265.446 177.42C266.031 178.164 266.789 178.754 267.654 179.138C268.519 179.523 269.465 179.69 270.409 179.626C272.796 179.495 275.098 178.695 277.052 177.317C279.005 175.939 280.531 174.039 281.454 171.834C281.835 170.958 281.995 170.003 281.921 169.052C281.847 168.1 281.541 167.181 281.03 166.375L281.058 166.403Z" fill="#37474F"/>
<path d="M261.104 162.571C260.821 163.14 260.698 163.775 260.747 164.409C260.796 165.043 261.015 165.651 261.382 166.17C261.749 166.689 262.249 167.1 262.83 167.357C263.411 167.615 264.051 167.71 264.682 167.634C266.26 167.55 267.782 167.023 269.073 166.112C270.364 165.201 271.371 163.944 271.979 162.486C272.261 161.918 272.384 161.285 272.336 160.652C272.288 160.02 272.069 159.413 271.704 158.894C271.339 158.376 270.841 157.965 270.262 157.706C269.683 157.448 269.045 157.35 268.415 157.424C266.838 157.516 265.318 158.047 264.027 158.956C262.735 159.866 261.723 161.118 261.104 162.571Z" fill="#455A64"/>
<path d="M270.749 174.068C270.161 173.221 269.382 172.524 268.476 172.033C267.57 171.542 266.561 171.27 265.53 171.24C265.139 171.205 264.745 171.286 264.399 171.472C264.052 171.658 263.767 171.941 263.579 172.286L249.692 205.816C249.59 206.141 249.565 206.485 249.619 206.821C249.673 207.158 249.804 207.477 250.003 207.753C250.592 208.603 251.372 209.301 252.281 209.793C253.19 210.284 254.202 210.554 255.235 210.581C255.627 210.618 256.021 210.538 256.368 210.352C256.715 210.165 257 209.882 257.187 209.535L271.046 176.119C271.177 175.78 271.219 175.414 271.167 175.054C271.115 174.695 270.971 174.355 270.749 174.068Z" fill="#455A64"/>
<path d="M287.281 256.188C287.281 255.712 287.229 255.238 287.125 254.774C285.935 249.349 282.737 244.576 278.174 241.41H259.436C254.868 244.574 251.666 249.348 250.47 254.774C250.371 255.239 250.323 255.713 250.329 256.188C250.324 256.273 250.324 256.358 250.329 256.443C250.499 259.031 252.28 261.59 255.703 263.513C262.929 267.756 274.624 267.756 281.85 263.513C285.273 261.534 287.054 258.974 287.224 256.443C287.248 256.359 287.267 256.274 287.281 256.188Z" fill="#455A64"/>
<path d="M268.798 253.444C275.733 253.444 281.356 250.196 281.356 246.19C281.356 242.183 275.733 238.935 268.798 238.935C261.863 238.935 256.24 242.183 256.24 246.19C256.24 250.196 261.863 253.444 268.798 253.444Z" fill="#37474F"/>
<path d="M265.828 244.465C265.466 244.584 265.152 244.815 264.929 245.123C264.707 245.432 264.587 245.803 264.587 246.183C264.587 246.563 264.707 246.934 264.929 247.243C265.152 247.551 265.466 247.781 265.828 247.901C266.75 248.368 267.77 248.612 268.804 248.612C269.839 248.612 270.858 248.368 271.781 247.901C272.142 247.781 272.456 247.551 272.679 247.243C272.902 246.934 273.022 246.563 273.022 246.183C273.022 245.803 272.902 245.432 272.679 245.123C272.456 244.815 272.142 244.584 271.781 244.465C270.858 243.998 269.839 243.754 268.804 243.754C267.77 243.754 266.75 243.998 265.828 244.465Z" fill="#455A64"/>
<path d="M248.63 211.685C248.269 211.804 247.955 212.035 247.732 212.343C247.51 212.652 247.39 213.022 247.39 213.403C247.39 213.783 247.51 214.154 247.732 214.462C247.955 214.771 248.269 215.001 248.63 215.121C249.553 215.588 250.573 215.832 251.607 215.832C252.641 215.832 253.661 215.588 254.584 215.121C254.945 215.001 255.259 214.771 255.482 214.462C255.705 214.154 255.824 213.783 255.824 213.403C255.824 213.022 255.705 212.652 255.482 212.343C255.259 212.035 254.945 211.804 254.584 211.685C253.661 211.217 252.641 210.974 251.607 210.974C250.573 210.974 249.553 211.217 248.63 211.685Z" fill="#6C64C4"/>
<path opacity="0.3" d="M248.63 211.685C248.269 211.804 247.955 212.035 247.732 212.343C247.51 212.652 247.39 213.022 247.39 213.403C247.39 213.783 247.51 214.154 247.732 214.462C247.955 214.771 248.269 215.001 248.63 215.121C249.553 215.588 250.573 215.832 251.607 215.832C252.641 215.832 253.661 215.588 254.584 215.121C254.945 215.001 255.259 214.771 255.482 214.462C255.705 214.154 255.824 213.783 255.824 213.403C255.824 213.022 255.705 212.652 255.482 212.343C255.259 212.035 254.945 211.804 254.584 211.685C253.661 211.217 252.641 210.974 251.607 210.974C250.573 210.974 249.553 211.217 248.63 211.685Z" fill="black"/>
<path d="M255.66 212.717L272.842 245.497L264.767 246.883L247.557 214.06L255.66 212.717Z" fill="#455A64"/>
<path d="M249.593 203.171C249.061 203.041 248.502 203.067 247.985 203.248C247.468 203.429 247.014 203.756 246.68 204.189C245.71 205.281 245.011 206.587 244.64 208C244.269 209.413 244.236 210.893 244.544 212.321C244.63 212.79 244.824 213.233 245.111 213.613C245.399 213.994 245.771 214.302 246.199 214.513L252.619 216.917L255.815 205.462L249.593 203.171Z" fill="#37474F"/>
<path d="M253.015 206.565C252.041 207.658 251.339 208.966 250.965 210.381C250.592 211.796 250.557 213.28 250.865 214.711C251.572 217.299 253.693 217.85 255.56 215.941C256.534 214.851 257.236 213.546 257.609 212.133C257.983 210.72 258.017 209.239 257.71 207.81C257.017 205.222 254.895 204.67 253.015 206.565Z" fill="#263238"/>
<path d="M220.729 234.976C226.697 228.895 230.19 213.693 224.378 208.87H194.794C188.982 213.693 192.475 228.881 198.442 234.976L198.598 235.145L198.81 235.343C198.979 235.514 199.159 235.675 199.347 235.824L199.489 235.937L199.941 236.277C200.186 236.456 200.441 236.622 200.705 236.772C203.46 238.166 206.505 238.892 209.593 238.892C212.681 238.892 215.726 238.166 218.481 236.772C218.736 236.63 218.99 236.461 219.259 236.277L219.669 235.951L219.853 235.824L220.362 235.357L220.602 235.117L220.729 234.976Z" fill="#6C64C4"/>
<path opacity="0.7" d="M220.729 234.976C226.697 228.895 230.19 213.693 224.378 208.87H194.794C188.982 213.693 192.475 228.881 198.442 234.976L198.598 235.145L198.81 235.343C198.979 235.514 199.159 235.675 199.347 235.824L199.489 235.937L199.941 236.277C200.186 236.456 200.441 236.622 200.705 236.772C203.46 238.166 206.505 238.892 209.593 238.892C212.681 238.892 215.726 238.166 218.481 236.772C218.736 236.63 218.99 236.461 219.259 236.277L219.669 235.951L219.853 235.824L220.362 235.357L220.602 235.117L220.729 234.976Z" fill="white"/>
<path d="M209.573 223.974C219.125 223.974 226.868 219.504 226.868 213.99C226.868 208.476 219.125 204.006 209.573 204.006C200.021 204.006 192.278 208.476 192.278 213.99C192.278 219.504 200.021 223.974 209.573 223.974Z" fill="#6C64C4"/>
<path opacity="0.9" d="M209.573 223.974C219.125 223.974 226.868 219.504 226.868 213.99C226.868 208.476 219.125 204.006 209.573 204.006C200.021 204.006 192.278 208.476 192.278 213.99C192.278 219.504 200.021 223.974 209.573 223.974Z" fill="white"/>
<path d="M202.133 209.691C198.032 212.067 198.032 215.913 202.133 218.289C204.442 219.454 206.992 220.061 209.578 220.061C212.165 220.061 214.715 219.454 217.024 218.289C221.125 215.913 221.125 212.067 217.024 209.691C214.717 208.52 212.166 207.909 209.578 207.909C206.991 207.909 204.44 208.52 202.133 209.691Z" fill="#6C64C4"/>
<path opacity="0.7" d="M202.133 209.691C198.032 212.067 198.032 215.913 202.133 218.289C204.442 219.454 206.992 220.061 209.578 220.061C212.165 220.061 214.715 219.454 217.024 218.289C221.125 215.913 221.125 212.067 217.024 209.691C214.717 208.52 212.166 207.909 209.578 207.909C206.991 207.909 204.44 208.52 202.133 209.691Z" fill="white"/>
<path d="M217.025 213.763C214.716 212.598 212.166 211.992 209.579 211.992C206.993 211.992 204.443 212.598 202.134 213.763C201.145 214.31 200.301 215.086 199.673 216.026C200.301 216.966 201.145 217.742 202.134 218.288C204.443 219.453 206.993 220.06 209.579 220.06C212.166 220.06 214.716 219.453 217.025 218.288C218.014 217.742 218.858 216.966 219.486 216.026C218.858 215.086 218.014 214.31 217.025 213.763Z" fill="#6C64C4"/>
<path opacity="0.3" d="M217.025 213.763C214.716 212.598 212.166 211.992 209.579 211.992C206.993 211.992 204.443 212.598 202.134 213.763C201.145 214.31 200.301 215.086 199.673 216.026C200.301 216.966 201.145 217.742 202.134 218.288C204.443 219.453 206.993 220.06 209.579 220.06C212.166 220.06 214.716 219.453 217.025 218.288C218.014 217.742 218.858 216.966 219.486 216.026C218.858 215.086 218.014 214.31 217.025 213.763Z" fill="black"/>
<path d="M212.26 216.959C216.546 214.282 219.781 210.213 221.424 205.434C224.153 197.458 222.541 187.814 220.095 183.826C216.785 178.424 208.781 179.032 211.143 188.068C213.505 197.105 214.975 206.877 211.228 213.41L212.26 216.959Z" fill="#37474F"/>
<path d="M212.543 215.319C212.456 215.319 212.371 215.289 212.303 215.234C212.268 215.2 212.241 215.159 212.222 215.114C212.203 215.069 212.193 215.021 212.193 214.972C212.193 214.924 212.203 214.876 212.222 214.831C212.241 214.786 212.268 214.745 212.303 214.711C214.694 212.067 216.523 208.966 217.681 205.594C218.838 202.223 219.298 198.651 219.034 195.097C218.624 188.549 216.206 183.783 215.287 183.062C215.22 182.991 215.183 182.898 215.183 182.801C215.183 182.703 215.22 182.61 215.287 182.539C215.355 182.473 215.446 182.437 215.541 182.437C215.636 182.437 215.727 182.473 215.796 182.539C217.012 183.585 219.388 188.676 219.784 195.068C220.057 198.723 219.585 202.395 218.396 205.861C217.207 209.328 215.327 212.516 212.868 215.234C212.826 215.275 212.774 215.305 212.717 215.32C212.66 215.334 212.6 215.334 212.543 215.319Z" fill="white"/>
<path d="M205.358 216.959C205.129 216.171 204.628 215.489 203.944 215.036C203.099 214.565 202.208 214.181 201.285 213.891C199.687 213.311 197.651 212.476 197.439 210.553C197.389 209.864 197.475 209.172 197.693 208.517C198.087 207.628 198.182 206.635 197.962 205.689C197.609 204.84 196.704 204.387 195.926 203.878C195.068 203.371 194.338 202.675 193.79 201.842C193.329 201.102 193.107 200.238 193.154 199.367C193.31 197.585 195.021 196.412 195.077 194.644C195.148 192.056 189.095 188.549 192.32 186.159C196.449 183.034 202.912 186.654 204.764 189.313C206.617 191.971 206.617 193.159 209.997 195.408C212.825 197.274 216.106 197.656 216.106 201.333C216.106 205.01 211.397 205.179 215.102 209.351C217.336 211.854 213.687 214.018 212.273 216.988C209.968 216.959 207.635 216.846 205.358 216.959Z" fill="#455A64"/>
<path d="M209.092 217.284C209.044 217.283 208.996 217.271 208.953 217.251C208.909 217.231 208.869 217.202 208.836 217.167C208.803 217.131 208.778 217.09 208.761 217.044C208.744 216.999 208.737 216.951 208.739 216.903C209.559 195.535 198.684 188.04 196.506 187.446C196.417 187.416 196.343 187.352 196.299 187.269C196.255 187.186 196.245 187.089 196.27 186.999C196.296 186.908 196.355 186.831 196.436 186.782C196.516 186.734 196.612 186.718 196.704 186.739C200.381 187.743 210.238 196.765 209.432 216.931C209.428 217.021 209.392 217.107 209.329 217.172C209.267 217.238 209.182 217.278 209.092 217.284Z" fill="white"/>
<path d="M207.367 202.096C207.279 202.097 207.194 202.067 207.126 202.012C203.973 199.183 197.807 199.296 197.736 199.296C197.641 199.297 197.55 199.26 197.481 199.194C197.413 199.128 197.372 199.038 197.369 198.943C197.368 198.846 197.405 198.753 197.47 198.682C197.536 198.612 197.626 198.568 197.722 198.561C197.991 198.561 204.241 198.49 207.621 201.389C207.675 201.439 207.712 201.504 207.728 201.575C207.745 201.646 207.74 201.72 207.714 201.788C207.689 201.856 207.643 201.915 207.584 201.958C207.524 202 207.454 202.024 207.381 202.026L207.367 202.096Z" fill="white"/>
<path d="M458.618 143.395L463.935 78.8532C463.991 77.8086 463.775 76.7674 463.309 75.8307C462.843 74.8941 462.143 74.0939 461.277 73.5077C460.319 73.0443 459.265 72.813 458.201 72.8327C457.138 72.8524 456.093 73.1224 455.153 73.6208L384.446 114.433C383.511 115.039 382.718 115.838 382.12 116.778C381.522 117.717 381.133 118.775 380.981 119.878L375.664 184.42C375.608 185.464 375.824 186.505 376.29 187.442C376.756 188.379 377.456 189.179 378.322 189.765C379.28 190.229 380.334 190.46 381.398 190.44C382.461 190.421 383.506 190.151 384.446 189.652L455.153 148.84C456.087 148.233 456.879 147.433 457.477 146.494C458.075 145.554 458.464 144.498 458.618 143.395Z" fill="#6C64C4"/>
<path opacity="0.8" d="M458.618 143.395L463.935 78.8532C463.991 77.8086 463.775 76.7674 463.309 75.8307C462.843 74.8941 462.143 74.0939 461.277 73.5077C460.319 73.0443 459.265 72.813 458.201 72.8327C457.138 72.8524 456.093 73.1224 455.153 73.6208L384.446 114.433C383.511 115.039 382.718 115.838 382.12 116.778C381.522 117.717 381.133 118.775 380.981 119.878L375.664 184.42C375.608 185.464 375.824 186.505 376.29 187.442C376.756 188.379 377.456 189.179 378.322 189.765C379.28 190.229 380.334 190.46 381.398 190.44C382.461 190.421 383.506 190.151 384.446 189.652L455.153 148.84C456.087 148.233 456.879 147.433 457.477 146.494C458.075 145.554 458.464 144.498 458.618 143.395Z" fill="white"/>
<path d="M458.619 143.395L463.936 78.8532C463.991 77.8085 463.775 76.7674 463.309 75.8307C462.844 74.8941 462.144 74.0939 461.277 73.5077C460.319 73.0443 459.266 72.813 458.202 72.8327C457.138 72.8524 456.094 73.1224 455.154 73.6208L384.446 114.433C383.507 115.016 382.718 115.81 382.141 116.752L393.129 123.088V184.604L455.111 148.811C456.051 148.213 456.85 147.42 457.455 146.486C458.061 145.551 458.457 144.497 458.619 143.395Z" fill="#6C64C4"/>
<path opacity="0.9" d="M458.619 143.395L463.936 78.8532C463.991 77.8085 463.775 76.7674 463.309 75.8307C462.844 74.8941 462.144 74.0939 461.277 73.5077C460.319 73.0443 459.266 72.813 458.202 72.8327C457.138 72.8524 456.094 73.1224 455.154 73.6208L384.446 114.433C383.507 115.016 382.718 115.81 382.141 116.752L393.129 123.088V184.604L455.111 148.811C456.051 148.213 456.85 147.42 457.455 146.486C458.061 145.551 458.457 144.497 458.619 143.395Z" fill="white"/>
<path d="M381.633 187.842L386.95 123.3C387.104 122.197 387.492 121.14 388.087 120.199C388.682 119.257 389.471 118.454 390.401 117.841L461.108 77.0431C462.862 76.0391 464.135 76.8451 463.937 78.8532L458.619 143.395C458.467 144.497 458.08 145.553 457.485 146.492C456.889 147.431 456.1 148.232 455.169 148.84L384.461 189.652C382.736 190.656 381.463 189.85 381.633 187.842Z" fill="#6C64C4"/>
<path opacity="0.7" d="M381.633 187.842L386.95 123.3C387.104 122.197 387.492 121.14 388.087 120.199C388.682 119.257 389.471 118.454 390.401 117.841L461.108 77.0431C462.862 76.0391 464.135 76.8451 463.937 78.8532L458.619 143.395C458.467 144.497 458.08 145.553 457.485 146.492C456.889 147.431 456.1 148.232 455.169 148.84L384.461 189.652C382.736 190.656 381.463 189.85 381.633 187.842Z" fill="white"/>
<path d="M418.104 136.056C418.296 134.321 418.857 132.647 419.75 131.147C420.643 129.647 421.846 128.355 423.279 127.359C425.867 125.86 427.734 127.359 427.522 130.639C427.328 132.374 426.766 134.047 425.873 135.547C424.981 137.047 423.778 138.339 422.346 139.337C419.645 140.765 417.835 139.351 418.104 136.056Z" fill="#6C64C4"/>
<path opacity="0.4" d="M418.104 136.056C418.296 134.321 418.857 132.647 419.75 131.147C420.643 129.647 421.846 128.355 423.279 127.359C425.867 125.86 427.734 127.359 427.522 130.639C427.328 132.374 426.766 134.047 425.873 135.547C424.981 137.047 423.778 138.339 422.346 139.337C419.645 140.765 417.835 139.351 418.104 136.056Z" fill="white"/>
<path d="M416.859 157.282L440.546 143.607L437.59 141.896L413.903 155.571L416.859 157.282Z" fill="#6C64C4"/>
<path opacity="0.9" d="M416.859 157.282L440.546 143.607L437.59 141.896L413.903 155.571L416.859 157.282Z" fill="white"/>
<path d="M445.198 175.1L423.986 187.319C423.553 187.552 423.063 187.66 422.572 187.63C422.174 187.613 421.783 187.511 421.427 187.333L412.107 181.959C411.753 181.715 411.46 181.393 411.249 181.018C411.038 180.643 410.916 180.225 410.891 179.795V179.3C410.891 178.494 411.457 178.155 412.15 178.565L417.806 181.803L419.065 182.539L418.782 181.125L413.889 155.67L416.845 157.381L440.546 143.593L446.203 172.923C446.269 173.344 446.208 173.776 446.03 174.163C445.851 174.551 445.562 174.877 445.198 175.1Z" fill="#6C64C4"/>
<path opacity="0.7" d="M445.198 175.1L423.986 187.319C423.553 187.552 423.063 187.66 422.572 187.63C422.174 187.613 421.783 187.511 421.427 187.333L412.107 181.959C411.753 181.715 411.46 181.393 411.249 181.018C411.038 180.643 410.916 180.225 410.891 179.795V179.3C410.891 178.494 411.457 178.155 412.15 178.565L417.806 181.803L419.065 182.539L418.782 181.125L413.889 155.67L416.845 157.381L440.546 143.593L446.203 172.923C446.269 173.344 446.208 173.776 446.03 174.163C445.851 174.551 445.562 174.877 445.198 175.1Z" fill="white"/>
<path d="M411.33 178.424L418.542 174.252L420.013 183.967L411.33 178.424Z" fill="#6C64C4"/>
<path opacity="0.7" d="M411.33 178.424L418.542 174.252L420.013 183.967L411.33 178.424Z" fill="white"/>
<path d="M416.816 157.282L413.861 155.571L418.754 181.026C418.923 181.804 418.471 182.129 417.778 181.719L412.121 178.48C411.428 178.07 410.863 178.48 410.863 179.216V179.711C410.888 180.14 411.01 180.558 411.221 180.933C411.432 181.308 411.725 181.63 412.079 181.874L421.398 187.248C421.755 187.427 422.145 187.528 422.544 187.545L416.816 157.282Z" fill="#6C64C4"/>
<path opacity="0.8" d="M416.816 157.282L413.861 155.571L418.754 181.026C418.923 181.804 418.471 182.129 417.778 181.719L412.121 178.48C411.428 178.07 410.863 178.48 410.863 179.216V179.711C410.888 180.14 411.01 180.558 411.221 180.933C411.432 181.308 411.725 181.63 412.079 181.874L421.398 187.248C421.755 187.427 422.145 187.528 422.544 187.545L416.816 157.282Z" fill="white"/>
<path d="M340.452 191.476C344.793 191.151 346.193 189.553 346.9 187.63C347.607 185.706 347.862 183.599 346.179 179.145C344.496 174.69 334.866 168.85 324.868 170.985C314.87 173.12 313.484 180.757 314.021 182.807C314.559 184.858 320.569 190.062 328.361 190.953C332.368 191.476 336.414 191.651 340.452 191.476Z" fill="#6C64C4"/>
<path opacity="0.7" d="M340.452 191.476C344.793 191.151 346.193 189.553 346.9 187.63C347.607 185.706 347.862 183.599 346.179 179.145C344.496 174.69 334.866 168.85 324.868 170.985C314.87 173.12 313.484 180.757 314.021 182.807C314.559 184.858 320.569 190.062 328.361 190.953C332.368 191.476 336.414 191.651 340.452 191.476Z" fill="white"/>
<path d="M335.376 177.533C335.95 177.08 336.66 176.833 337.391 176.833C338.122 176.833 338.832 177.08 339.406 177.533C340.729 178.282 341.786 179.424 342.432 180.8C342.871 181.945 342.659 182.963 342.164 182.963C341.669 182.963 341.301 181.917 339.406 180.333C337.511 178.749 334.951 178.127 335.376 177.533Z" fill="#6C64C4"/>
<path opacity="0.9" d="M335.376 177.533C335.95 177.08 336.66 176.833 337.391 176.833C338.122 176.833 338.832 177.08 339.406 177.533C340.729 178.282 341.786 179.424 342.432 180.8C342.871 181.945 342.659 182.963 342.164 182.963C341.669 182.963 341.301 181.917 339.406 180.333C337.511 178.749 334.951 178.127 335.376 177.533Z" fill="white"/>
<path d="M274.297 70.934C269.63 74.0734 264.101 77.7926 264.865 90.0392C265.628 102.286 274.764 136.07 275.386 140.185C276.008 144.3 300.841 164.226 305.408 168.157C310.655 172.725 312.635 173.686 315.011 176.303C317.386 178.919 319.621 185.594 322.081 188.493C325.942 192.975 334.257 193.074 338.089 192.551C341.922 192.028 339.504 187.375 338.089 184.066C336.675 180.757 332.885 176.246 333.96 175.468C334.696 174.945 338.698 175.652 341.795 178.296C344.185 180.333 344.467 182.327 345.811 183.26C348.059 184.844 348.809 182.044 346.49 177.604C344.17 173.163 340.635 169.981 337.142 168.878C338.683 169 340.226 168.655 341.568 167.888C343.492 166.7 344.17 164.014 341.795 164.721C340.38 165.131 338.966 164.721 336.138 164.721C327.257 164.721 324.584 167.945 314.303 158.018C304.023 148.09 290.263 134.585 290.263 134.585C290.263 134.585 285.639 106.443 283.56 93.9847C281.792 83.2512 281.057 76.2229 274.297 70.934Z" fill="#FFA8A7"/>
<path d="M356.842 98.6089L374.392 61.4449L384.291 65.5318C384.291 65.5318 369.739 109.569 367.646 114.348C366.416 117.177 362.47 120.613 356.757 117.827C355.513 117.219 353.038 115.763 349.969 113.853" fill="#FFA8A7"/>
<path d="M380.571 76.6047C381.787 72.9703 385.648 69.0955 386.228 67.5541C386.743 66.3367 386.914 65.0014 386.723 63.6935L382.212 64.146L380.571 76.6047Z" fill="#FFA8A7"/>
<path d="M371.267 67.9363C372.002 66.2534 372.13 60.3564 371.267 56.9625C370.404 53.5685 372.483 49.326 371.96 46.9361C371.437 44.5462 372.964 43.825 374.35 44.6876C375.199 45.2262 375.901 45.9665 376.395 46.8424C376.888 47.7183 377.157 48.7027 377.178 49.7078C377.249 52.1826 377.404 58.4756 376.4 61.5443C375.396 64.613 371.267 67.9363 371.267 67.9363Z" fill="#FFA8A7"/>
<path d="M373.599 62.1521C373.868 62.9157 374.886 63.9764 378.181 63.4107L384.248 65.5319L386.723 65.3905C385.4 66.3264 383.781 66.7479 382.17 66.5761C380.558 66.4043 379.065 65.6509 377.969 64.4572C377.969 64.4572 373.514 65.0087 373.599 62.1521Z" fill="#F28F8F"/>
<path d="M390.569 59.6631C386.765 62.6328 387.303 66.4934 391.786 68.3035C394.27 69.1573 396.922 69.4127 399.524 69.0491C402.126 68.6854 404.606 67.7129 406.761 66.2106C410.566 63.2409 410.014 59.3661 405.545 57.556C403.059 56.7076 400.408 56.4563 397.806 56.8224C395.204 57.1884 392.725 58.1615 390.569 59.6631Z" fill="#6C64C4"/>
<path opacity="0.7" d="M390.569 59.6631C386.765 62.6328 387.303 66.4934 391.786 68.3035C394.27 69.1573 396.922 69.4127 399.524 69.0491C402.126 68.6854 404.606 67.7129 406.761 66.2106C410.566 63.2409 410.014 59.3661 405.545 57.556C403.059 56.7076 400.408 56.4563 397.806 56.8224C395.204 57.1884 392.725 58.1615 390.569 59.6631Z" fill="white"/>
<path d="M409.407 37.9838L395.449 39.9353L381.463 41.8868C381.774 50.9374 384.843 61.0769 388.845 66.2385L408.982 63.4102C411.429 57.3294 411.584 46.7657 409.407 37.9838Z" fill="#6C64C4"/>
<path opacity="0.7" d="M409.407 37.9838L395.449 39.9353L381.463 41.8868C381.774 50.9374 384.843 61.0769 388.845 66.2385L408.982 63.4102C411.429 57.3294 411.584 46.7657 409.407 37.9838Z" fill="white"/>
<path d="M385.055 37.659C379.936 40.7843 380.473 44.6308 386.257 46.2288C392.982 47.7011 400.012 46.6968 406.055 43.4005C411.175 40.2611 410.637 36.4287 404.853 34.8166C398.127 33.3498 391.097 34.3591 385.055 37.659Z" fill="#6C64C4"/>
<path opacity="0.9" d="M385.055 37.659C379.936 40.7843 380.473 44.6308 386.257 46.2288C392.982 47.7011 400.012 46.6968 406.055 43.4005C411.175 40.2611 410.637 36.4287 404.853 34.8166C398.127 33.3498 391.097 34.3591 385.055 37.659Z" fill="white"/>
<path d="M387.118 38.9456C382.876 41.1093 383.286 43.6123 387.896 44.6023C393.313 45.4223 398.851 44.6458 403.833 42.3679C408.005 40.2042 407.666 37.7012 403.042 36.7113C397.629 35.8924 392.096 36.6689 387.118 38.9456Z" fill="#6C64C4"/>
<path opacity="0.4" d="M387.118 38.9456C382.876 41.1093 383.286 43.6123 387.896 44.6023C393.313 45.4223 398.851 44.6458 403.833 42.3679C408.005 40.2042 407.666 37.7012 403.042 36.7113C397.629 35.8924 392.096 36.6689 387.118 38.9456Z" fill="white"/>
<path d="M387.643 42.2549C386.893 42.6228 386.203 43.0993 385.592 43.669C386.335 44.0497 387.131 44.3166 387.954 44.461C393.371 45.281 398.909 44.5045 403.891 42.2266C404.644 41.8645 405.336 41.3874 405.942 40.8125C405.199 40.4318 404.403 40.1649 403.58 40.0205C398.164 39.2005 392.625 39.9769 387.643 42.2549Z" fill="#6C64C4"/>
<path opacity="0.3" d="M387.643 42.2549C386.893 42.6228 386.203 43.0993 385.592 43.669C386.335 44.0497 387.131 44.3166 387.954 44.461C393.371 45.281 398.909 44.5045 403.891 42.2266C404.644 41.8645 405.336 41.3874 405.942 40.8125C405.199 40.4318 404.403 40.1649 403.58 40.0205C398.164 39.2005 392.625 39.9769 387.643 42.2549Z" fill="black"/>
<path d="M384.673 65.8146C383.499 65.9887 382.303 65.931 381.151 65.645C379.568 65.2207 378.069 63.6934 376.584 60.9641C375.339 58.6732 373.204 53.5822 374.109 50.7681C375.269 47.1902 379.412 46.6811 382.17 46.3417L383.117 46.2145L383.725 50.5559L382.707 50.6832C381.151 50.867 378.564 51.1923 378.267 52.0974C377.871 53.8509 380.84 60.6813 382.354 61.4308C383.718 61.6202 385.108 61.3935 386.341 60.7803L388.321 64.6833C387.172 65.2492 385.941 65.6309 384.673 65.8146Z" fill="#6C64C4"/>
<path opacity="0.7" d="M384.673 65.8146C383.499 65.9887 382.303 65.931 381.151 65.645C379.568 65.2207 378.069 63.6934 376.584 60.9641C375.339 58.6732 373.204 53.5822 374.109 50.7681C375.269 47.1902 379.412 46.6811 382.17 46.3417L383.117 46.2145L383.725 50.5559L382.707 50.6832C381.151 50.867 378.564 51.1923 378.267 52.0974C377.871 53.8509 380.84 60.6813 382.354 61.4308C383.718 61.6202 385.108 61.3935 386.341 60.7803L388.321 64.6833C387.172 65.2492 385.941 65.6309 384.673 65.8146Z" fill="white"/>
<path d="M379.482 52.1113C376.781 52.1113 368.848 55.2649 368.678 58.1215C368.509 60.9781 373.896 60.7659 373.896 60.7659C373.642 61.1904 373.545 61.6907 373.623 62.1794C373.7 62.6681 373.947 63.1139 374.321 63.4387C375.664 64.5983 385.846 61.0629 385.846 61.0629C385.49 59.8961 384.951 58.7933 384.248 57.7962C383.741 57.1515 382.998 56.7344 382.183 56.6366C382.183 56.6366 383.499 52.1113 379.482 52.1113Z" fill="#FFA8A7"/>
<path d="M177.414 191.377L165.563 184.547L177.414 181.125V191.377Z" fill="#E0E0E0"/>
<g style="mix-blend-mode:multiply" opacity="0.5">
<path d="M177.414 181.125V191.377L165.563 184.547" fill="#6C64C4"/>
</g>
<path d="M106.338 222.163V233.052L41.2017 195.45V184.547L106.338 222.163Z" fill="#E0E0E0"/>
<g style="mix-blend-mode:multiply" opacity="0.5">
<path d="M106.338 222.163V233.052L41.2017 195.45V184.547L106.338 222.163Z" fill="#48428E"/>
</g>
<path d="M36.2773 187.392V100.794L99.4274 137.255V223.84L36.2773 187.392Z" fill="#B5B1E1" stroke="#6C64C4" stroke-width="2"/>
<path d="M100.426 136.678L189.249 85.3866V174.28L100.426 225.572V136.678Z" fill="#6C64C4"/>
<path d="M37.2773 99.0615L124.114 48.9249L187.251 85.3866L100.427 135.523L37.2773 99.0615Z" fill="#B5B1E1" stroke="#6C64C4" stroke-width="2"/>
<path d="M106.338 140.1L183.339 95.639V116.158L106.338 160.605V140.1Z" fill="#48428E"/>
<path d="M106.338 167.45L183.339 123.003V143.508L106.338 187.969V167.45Z" fill="#48428E"/>
<path d="M106.338 194.8L183.339 150.353V170.872L106.338 215.319V194.8Z" fill="#48428E"/>
<path d="M106.338 233.052L112.263 229.644V218.741L106.338 222.163V233.052Z" fill="#6C64C4"/>
<path d="M177.414 191.377L183.339 187.969V177.702L177.414 181.125V191.377Z" fill="#6C64C4"/>
<path d="M73.3598 102.767C79.3276 96.6716 82.8347 81.5543 77.0083 76.6472H47.4101C41.5979 81.4836 45.0909 96.6716 51.0586 102.752L51.2142 102.922L51.4263 103.12C51.5955 103.291 51.7749 103.452 51.9637 103.601L52.1051 103.714L52.5576 104.053C52.8023 104.233 53.0573 104.399 53.3213 104.548C56.0766 105.943 59.1213 106.669 62.2092 106.669C65.2972 106.669 68.3419 105.943 71.0972 104.548C71.3658 104.399 71.6255 104.233 71.875 104.053L72.2851 103.742L72.4689 103.601L72.9922 103.134L73.2184 102.908L73.3598 102.767Z" fill="#EBEBEB"/>
<path d="M49.9838 74.7095C43.2241 78.6126 43.2241 84.9338 49.9838 88.8511C56.7435 92.7683 67.689 92.7541 74.4345 88.8511C81.18 84.948 81.1942 78.6409 74.4345 74.7095C67.6749 70.7782 56.7293 70.8065 49.9838 74.7095Z" fill="#F5F5F5"/>
<path d="M54.7926 77.4671C50.6915 79.8428 50.6915 83.6893 54.7926 86.0651C57.0997 87.2365 59.6506 87.847 62.2381 87.847C64.8255 87.847 67.3765 87.2365 69.6836 86.0651C73.7847 83.6893 73.7847 79.8428 69.6836 77.4671C67.3745 76.3022 64.8243 75.6954 62.2381 75.6954C59.6518 75.6954 57.1017 76.3022 54.7926 77.4671Z" fill="#E0E0E0"/>
<path d="M69.6549 81.5543C67.3478 80.3829 64.7968 79.7725 62.2094 79.7725C59.6219 79.7725 57.071 80.3829 54.7639 81.5543C53.7712 82.0901 52.9261 82.8624 52.3032 83.8028C52.9252 84.7477 53.7703 85.5248 54.7639 86.0655C57.071 87.2368 59.6219 87.8473 62.2094 87.8473C64.7968 87.8473 67.3478 87.2368 69.6549 86.0655C70.6485 85.5248 71.4936 84.7477 72.1155 83.8028C71.4927 82.8624 70.6475 82.0901 69.6549 81.5543Z" fill="#E0E0E0"/>
<g style="mix-blend-mode:multiply" opacity="0.5">
<path d="M69.6549 81.5543C67.3478 80.3829 64.7968 79.7725 62.2094 79.7725C59.6219 79.7725 57.071 80.3829 54.7639 81.5543C53.7712 82.0901 52.9261 82.8624 52.3032 83.8028C52.9252 84.7477 53.7703 85.5248 54.7639 86.0655C57.071 87.2368 59.6219 87.8473 62.2094 87.8473C64.7968 87.8473 67.3478 87.2368 69.6549 86.0655C70.6485 85.5248 71.4936 84.7477 72.1155 83.8028C71.4927 82.8624 70.6475 82.0901 69.6549 81.5543Z" fill="#D9D9D9"/>
</g>
<path d="M55.6831 83.803C53.5768 81.6681 51.7649 79.2616 50.2952 76.6474C47.8063 72.2635 47.3537 66.3665 48.6406 65.6453C49.9275 64.9241 55.1457 70.7928 55.1457 70.7928C54.6701 68.3198 54.4851 65.7996 54.5942 63.2837C54.8205 59.3664 55.7679 55.8169 56.8993 55.0957C58.0306 54.3745 60.5195 59.3382 61.5943 62.9018C62.669 66.4655 63.2771 69.4211 63.2771 69.4211C63.7101 66.6285 64.353 63.8725 65.2004 61.1766C66.5014 57.4715 67.6893 56.623 68.6085 56.9341C69.5277 57.2452 70.1357 59.0412 70.4044 64.0049C70.4982 66.3642 70.4226 68.7272 70.1782 71.0756C70.1782 71.0756 72.0307 69.0392 74.0671 67.0736C76.3156 64.9099 77.2772 64.613 77.9277 65.0231C78.5782 65.4332 78.7479 68.7988 75.2691 75.0918C73.5349 78.2974 71.3169 81.2166 68.6933 83.7464C68.6933 83.7464 63.9135 86.9141 55.6831 83.803Z" fill="#5AC48C"/>
<path d="M133.052 110.092L168.406 89.5864C169.099 89.1904 169.099 88.5399 168.406 88.1722L119.844 60.5114C119.451 60.3148 119.018 60.2124 118.579 60.2124C118.139 60.2124 117.706 60.3148 117.313 60.5114L82.2702 80.7762C81.5773 81.1863 81.5773 81.8368 82.2702 82.1904L130.521 110.049C130.911 110.252 131.342 110.362 131.782 110.369C132.221 110.377 132.656 110.282 133.052 110.092Z" fill="#E0E0E0"/>
<g style="mix-blend-mode:multiply" opacity="0.5">
<path d="M133.052 110.092L168.406 89.5864C169.099 89.1904 169.099 88.5399 168.406 88.1722L119.844 60.5114C119.451 60.3148 119.018 60.2124 118.579 60.2124C118.139 60.2124 117.706 60.3148 117.313 60.5114L82.2702 80.7762C81.5773 81.1863 81.5773 81.8368 82.2702 82.1904L130.521 110.049C130.911 110.252 131.342 110.362 131.782 110.369C132.221 110.377 132.656 110.282 133.052 110.092Z" fill="#E0E0E0"/>
</g>
<path d="M82.2404 80.734L122.091 55.3924C122.477 55.1904 122.907 55.085 123.343 55.085C123.779 55.085 124.208 55.1904 124.594 55.3924L138.948 63.6793C139.284 63.883 139.531 64.205 139.641 64.582C139.751 64.959 139.716 65.3635 139.542 65.7157L138.962 66.847C138.788 67.1992 138.753 67.6038 138.863 67.9807C138.973 68.3577 139.22 68.6798 139.556 68.8834L168.475 85.6129C168.629 85.673 168.761 85.7781 168.854 85.9143C168.947 86.0505 168.996 86.2116 168.996 86.3765C168.996 86.5414 168.947 86.7025 168.854 86.8387C168.761 86.9749 168.629 87.08 168.475 87.1401L132.98 109.993C132.599 110.202 132.171 110.312 131.736 110.312C131.301 110.312 130.873 110.202 130.491 109.993L82.2404 82.134C82.1169 82.0635 82.0143 81.9617 81.943 81.8388C81.8716 81.7158 81.834 81.5762 81.834 81.434C81.834 81.2919 81.8716 81.1523 81.943 81.0293C82.0143 80.9064 82.1169 80.8045 82.2404 80.734Z" fill="#EBEBEB"/>
<path d="M135.95 152.078C135.95 153.025 138.778 152.078 142.271 150.141L153.33 143.749C156.823 141.741 159.637 139.336 159.637 138.403V136.692L135.936 150.367L135.95 152.078Z" fill="#B5B1E1"/>
<path d="M135.95 124.7C135.95 125.647 138.778 124.785 142.271 122.777L153.33 116.385C156.823 114.377 159.637 111.972 159.637 111.025V109.314L135.936 123.003L135.95 124.7Z" fill="#B5B1E1"/>
</svg>
