<svg width="541" height="545" viewBox="0 0 541 545" fill="none" xmlns="http://www.w3.org/2000/svg">
<path d="M270.5 544.86C419.893 544.86 541 474.939 541 388.686C541 302.434 419.893 232.512 270.5 232.512C121.107 232.512 0 302.434 0 388.686C0 474.939 121.107 544.86 270.5 544.86Z" fill="#E0E0E0"/>
<path d="M540.162 376.46L291.664 232.993C285.292 232.707 278.898 232.546 272.516 232.524L540.976 387.517C540.928 383.818 540.656 380.126 540.162 376.46Z" fill="#FAFAFA"/>
<path d="M75.7307 280.319C72.7208 282.13 69.7949 283.967 66.9531 285.831L448.651 506.198C451.882 504.556 455.064 502.867 458.196 501.133L75.7307 280.319Z" fill="#FAFAFA"/>
<path d="M6.5775 422.96L211.12 541.056C218.522 542.018 225.978 542.782 233.488 543.348L2.54395 410.057C3.5933 414.445 4.94094 418.756 6.5775 422.96Z" fill="#FAFAFA"/>
<path opacity="0.1" d="M344.544 433.594L353.431 438.732L502.604 352.609L493.717 347.485L344.544 433.594Z" fill="black"/>
<path opacity="0.1" d="M377.758 384.435C406.964 384.435 430.64 370.765 430.64 353.903C430.64 337.041 406.964 323.372 377.758 323.372C348.551 323.372 324.875 337.041 324.875 353.903C324.875 370.765 348.551 384.435 377.758 384.435Z" fill="black"/>
<path opacity="0.1" d="M219.217 467.154C248.423 467.154 272.099 453.485 272.099 436.623C272.099 419.761 248.423 406.092 219.217 406.092C190.01 406.092 166.334 419.761 166.334 436.623C166.334 453.485 190.01 467.154 219.217 467.154Z" fill="black"/>
<path opacity="0.1" d="M180.559 527.696L189.446 532.834L338.619 446.725L329.732 441.587L180.559 527.696Z" fill="black"/>
<path d="M129.65 6.06319L118.895 12.2682C118.952 11.7943 118.983 11.3177 118.988 10.8404V7.71786C118.988 2.16673 115.092 -0.0750777 110.288 2.68714C108.218 3.97353 106.448 5.68903 105.097 7.71786C104.31 0.738911 98.8389 -1.84984 92.1935 1.97991C85.0011 6.12992 79.183 16.218 79.183 24.518V29.1885C79.1501 31.0266 79.5237 32.8492 80.2773 34.5261L71.3501 39.7436C69.9456 40.6589 68.7763 41.8921 67.9371 43.3434C67.0979 44.7946 66.6122 46.4232 66.5195 48.097C66.5195 51.1795 68.6813 52.4338 71.3501 50.8859L129.65 17.2322C131.057 16.3156 132.227 15.0803 133.066 13.6265C133.906 12.1728 134.39 10.5416 134.481 8.86545C134.481 5.76963 132.319 4.51528 129.65 6.06319Z" fill="#EBEBEB"/>
<path d="M175.7 37.4083L167.573 42.0921C167.592 41.7365 167.592 41.3801 167.573 41.0245V38.6627C167.573 34.486 164.637 32.7779 161.008 34.8729C159.452 35.836 158.12 37.1187 157.098 38.636C156.511 33.3784 152.374 31.4168 147.357 34.3125C144.498 36.1775 142.119 38.6898 140.413 41.6458C138.707 44.6017 137.721 47.9181 137.535 51.3262V54.8357C137.502 56.243 137.789 57.6394 138.376 58.919L131.624 62.8154C130.577 63.509 129.707 64.4394 129.086 65.5312C128.465 66.6231 128.109 67.8458 128.048 69.1005C128.048 71.4223 129.676 72.3698 131.691 71.2088L175.726 45.8551C176.785 45.1616 177.666 44.2291 178.299 43.1329C178.932 42.0366 179.298 40.8071 179.369 39.5434C179.342 37.1815 177.701 36.2474 175.7 37.4083Z" fill="#EBEBEB"/>
<path d="M358.485 317.1V418.929C358.485 419.052 358.452 419.173 358.391 419.28C358.329 419.386 358.241 419.475 358.134 419.537C358.027 419.599 357.907 419.632 357.783 419.633C357.66 419.634 357.539 419.603 357.431 419.542L322.937 399.633L318.493 407.319L358.926 430.671C359.782 431.166 360.754 431.426 361.743 431.426C362.732 431.425 363.704 431.165 364.56 430.67C365.416 430.174 366.127 429.463 366.621 428.606C367.114 427.749 367.374 426.777 367.372 425.787V322.237L358.485 317.1Z" fill="#455A64"/>
<path d="M320.737 399.86C322.472 398.859 323.873 399.673 323.873 401.675C323.814 402.763 323.5 403.822 322.955 404.766C322.41 405.709 321.65 406.511 320.737 407.106C319.002 408.107 317.588 407.306 317.588 405.291C317.649 404.202 317.966 403.143 318.513 402.199C319.06 401.255 319.822 400.454 320.737 399.86Z" fill="#455A64"/>
<path d="M480.986 246.377V348.219C480.987 348.342 480.956 348.464 480.894 348.571C480.832 348.679 480.743 348.768 480.636 348.829C480.528 348.89 480.406 348.922 480.282 348.92C480.159 348.918 480.038 348.883 479.932 348.819L445.437 328.91L441.061 336.609L481.426 360.001C482.284 360.495 483.256 360.754 484.246 360.754C485.235 360.753 486.207 360.492 487.064 359.998C487.921 359.503 488.633 358.792 489.128 357.935C489.624 357.079 489.885 356.107 489.886 355.117V251.514L480.986 246.377Z" fill="#455A64"/>
<path d="M443.235 329.136C444.97 328.136 446.371 328.95 446.371 330.951C446.313 332.041 445.998 333.102 445.453 334.048C444.909 334.994 444.149 335.798 443.235 336.396C441.501 337.396 440.1 336.583 440.1 334.581C440.158 333.491 440.473 332.43 441.017 331.484C441.562 330.538 442.322 329.734 443.235 329.136Z" fill="#455A64"/>
<path d="M340.713 301.701L489.886 215.592L498.773 220.729V251.514L349.6 337.623L340.713 332.499V301.701Z" fill="white"/>
<path opacity="0.8" d="M340.713 301.701L349.6 306.839L498.773 220.729L489.886 215.592L340.713 301.701Z" fill="white"/>
<path opacity="0.65" d="M349.598 306.839L498.771 220.729V251.514L349.598 337.624V306.839Z" fill="white"/>
<path opacity="0.5" d="M340.713 301.701L349.6 306.838V337.623L340.713 332.499V301.701Z" fill="white"/>
<path d="M398.363 105.664C398.363 105.664 405.969 104.489 410.119 110.014C414.269 115.538 413.469 123.705 411.894 131.137C410.32 138.57 398.363 105.664 398.363 105.664Z" fill="#F28F8F"/>
<path d="M425.664 199.085C432.083 194.188 438.208 196.71 439.342 204.703C440.476 212.696 436.193 223.144 429.761 228.042C423.329 232.939 417.218 230.417 416.083 222.424C414.949 214.431 419.233 203.982 425.664 199.085Z" fill="white"/>
<path opacity="0.5" d="M425.664 199.085C432.083 194.188 438.208 196.71 439.342 204.703C440.476 212.696 436.193 223.144 429.761 228.042C423.329 232.939 417.218 230.417 416.083 222.424C414.949 214.431 419.233 203.982 425.664 199.085Z" fill="black"/>
<path d="M401.685 175.319C401.685 175.319 442.358 201.02 450.738 208.333C457.049 213.844 458.037 216.459 470.847 236.622C481.789 253.876 500.644 284.087 500.644 284.087C500.289 286.33 499.346 288.438 497.912 290.198C496.477 291.958 494.602 293.307 492.478 294.108C492.478 294.108 465.55 268.755 455.502 258.253C445.453 247.751 440.569 232.392 440.569 232.392L384.524 215.685L386.446 199.486L401.685 175.319Z" fill="#F28F8F"/>
<path d="M520.152 261.802C515.561 262.056 512.746 265.805 510.691 269.141C508.636 272.478 505.18 278.576 503.645 279.603C502.111 280.631 501.203 279.603 499.041 281.271C496.88 282.939 495.238 286.022 495.919 287.196L497.52 289.972C496.601 289.873 495.672 289.992 494.807 290.319C493.943 290.646 493.167 291.171 492.543 291.853C490.154 294.228 491.395 294.642 492.756 296.003C494.117 297.364 496.479 302.488 499.655 304.156C505.804 301.838 511.01 297.543 514.454 291.947C520.632 282.179 520.152 261.802 520.152 261.802Z" fill="white"/>
<path d="M501.403 305.437C501.074 305.383 500.76 305.259 500.482 305.074C500.204 304.89 499.969 304.648 499.791 304.366C499.613 304.083 499.497 303.766 499.451 303.436C499.404 303.105 499.428 302.769 499.522 302.448C500.47 299.456 501.893 296.635 503.738 294.095C505.9 291.039 509.917 285.341 510.597 282.165C511.278 278.99 512.746 270.249 515.121 266.553C517.496 262.857 519.965 260.748 523.127 261.936C526.29 263.123 516.335 286.716 513.426 290.706C510.517 294.696 501.403 305.437 501.403 305.437Z" fill="#37474F"/>
<path d="M503.243 304.931C511.103 300.741 513.692 296.657 515.987 291.386C518.282 286.116 523.74 281.165 525.141 276.401C526.542 271.637 526.702 259.414 521.284 262.376C515.867 265.339 514.759 276.268 512.384 282.579C510.009 288.891 495.53 309.041 503.243 304.931Z" fill="#263238"/>
<path d="M435.126 197.003L409.251 178.882L358.544 177.988C358.544 177.988 361.973 207.091 375.638 213.136C391.957 220.342 420.033 229.63 420.033 229.63C413.508 224.292 415.416 213.617 419.38 206.651C425.518 196.056 430.722 195.869 435.126 197.003Z" fill="white"/>
<path opacity="0.35" d="M435.126 197.003L409.251 178.882L358.544 177.988C358.544 177.988 361.973 207.091 375.638 213.136C391.957 220.342 420.033 229.63 420.033 229.63C413.508 224.292 415.416 213.617 419.38 206.651C425.518 196.056 430.722 195.869 435.126 197.003Z" fill="black"/>
<path opacity="0.2" d="M392.143 205.21C399.48 201.398 405.456 195.408 409.25 188.063C408.385 192.087 406.644 195.871 404.151 199.146C401.658 202.421 398.474 205.106 394.826 207.012L393.865 217.807L417.884 228.909C408.783 225.867 399.202 222.424 389.274 218.674L392.143 205.21Z" fill="black"/>
<path d="M336.271 203.622C335.617 202.103 334.495 200.831 333.069 199.993C331.547 199.457 329.905 199.361 328.331 199.715C326.757 200.069 325.314 200.859 324.168 201.994C321.219 204.997 319.578 209.16 317.683 211.482C315.788 213.804 310.824 217.02 308.182 218.594C305.54 220.169 301.937 225.266 302.097 230.844C302.227 232.296 302.72 233.691 303.532 234.902C304.344 236.112 305.447 237.099 306.741 237.77L336.271 203.622Z" fill="#37474F"/>
<path d="M335.203 202.208C333.121 201.007 329.131 201.314 326.169 203.663C323.593 205.704 321.658 209.494 319.91 212.15C318.904 213.453 317.697 214.588 316.334 215.512C314.813 216.78 310.996 219.155 309.662 220.543C308.546 221.677 307.605 222.973 306.873 224.386C306.007 225.904 305.411 227.561 305.112 229.283C304.711 231.952 305.112 235.955 306.98 237.984C307.46 238.548 308.061 238.997 308.739 239.298C309.417 239.598 310.153 239.742 310.894 239.719C311.635 239.696 312.361 239.507 313.019 239.165C313.676 238.823 314.249 238.337 314.693 237.743C315.413 236.876 316.121 236.022 316.774 235.075C318.048 233.358 319.512 231.791 321.138 230.404C323.247 228.652 325.553 227.151 328.01 225.934C328.277 225.814 328.557 225.654 328.824 225.56C331.813 224.399 334.842 223.479 335.323 222.478C335.803 221.477 337.244 212.47 339.673 210.708C340.313 210.255 340.073 209.374 339.579 208.507C339.086 207.639 337.298 203.409 335.203 202.208Z" fill="white"/>
<path d="M359.665 173.558C358.331 179.043 354.421 192.774 353.514 207.572C352.913 217.274 352.566 240.212 352.566 251.394C352.566 262.577 351.992 270.863 355.942 274.72C359.892 278.576 367.952 278.016 371.848 270.97C375.745 263.924 378.013 256.292 381.283 242.948C384.552 229.603 386.54 220.156 386.54 220.156L390.784 183.727L359.665 173.558Z" fill="#F28F8F"/>
<path d="M361.84 277.095C356.916 277.095 353.834 275.146 347.562 263.217C341.29 251.287 328.533 220.035 328.533 220.035C328.533 220.035 326.892 214.124 331.202 210.414C336.046 206.251 338.768 208.92 338.768 208.92C338.768 208.92 342.224 214.057 346.147 219.101C349.75 223.732 354.448 228.335 357.557 232.686C359.745 235.715 361.84 277.095 361.84 277.095Z" fill="#F28F8F"/>
<path d="M352.91 226.975C352.91 226.975 352.216 254.53 352.723 264.338C351.048 257.593 350.126 250.683 349.974 243.735C349.605 237.098 349.645 230.444 350.094 223.812L352.91 226.975Z" fill="#B16668"/>
<path d="M359.663 173.558C356.885 181.004 354.908 188.725 353.765 196.59C352.07 208.96 352.537 235.968 352.537 235.968C352.537 235.968 355.98 241.973 367.336 244.055C378.692 246.137 384.456 240.399 384.456 240.399L392.143 205.21C392.143 205.21 407.929 197.711 411.919 180.697L359.663 173.558Z" fill="white"/>
<path opacity="0.3" d="M359.663 173.558C356.885 181.004 354.908 188.725 353.765 196.59C352.07 208.96 352.537 235.968 352.537 235.968C352.537 235.968 355.98 241.973 367.336 244.055C378.692 246.137 384.456 240.399 384.456 240.399L392.143 205.21C392.143 205.21 407.929 197.711 411.919 180.697L359.663 173.558Z" fill="black"/>
<path d="M387.937 82.8719L383.173 98.9782C369.936 98.9782 361.756 86.0745 361.756 72.8371C361.756 59.4931 370.216 48.4175 383.52 48.4175H387.843C401.188 48.4175 411.863 57.2513 411.863 70.5553C411.916 79.2156 401.188 82.8719 387.937 82.8719Z" fill="#263238"/>
<path d="M375.501 105.383H372.925C361.196 106.184 360.556 110.281 359.968 115.378C358.893 120.888 358.993 126.563 360.262 132.031C362.09 139.211 362.677 156.438 362.677 156.438C362.677 156.438 359.194 171.303 357.727 178.936C378.21 192.28 403.43 188.757 411.917 180.671C411.743 173.425 412.117 165.618 411.503 158.8C411.503 158.8 411.823 147.217 412.664 142.6C418.175 135.581 417.788 130.137 415.333 124.439C411.183 114.364 401.028 105.65 398.359 105.664L375.501 105.383Z" fill="#37474F"/>
<path d="M403.299 59.0259C406.075 60.6672 409.504 67.6462 409.17 82.2579C408.877 94.6412 404.86 97.697 402.845 98.5911C400.83 99.4851 396.947 98.9247 393.157 98.2975V105.73C393.157 105.73 398.388 111.802 398.055 115.218C397.721 118.634 390.515 119.421 385.631 116.098C380.747 112.776 377.625 106.17 377.625 106.17V90.1576C377.625 90.1576 375.076 93.1867 370.953 90.4111C366.83 87.6356 366.629 80.7901 369.045 78.3214C371.46 75.8528 376.704 76.6401 377.678 80.0428C377.678 80.0428 383.71 80.2563 391.743 75.8528C394.855 74.1518 397.522 71.7422 399.53 68.8189C401.537 65.8956 402.829 62.5408 403.299 59.0259Z" fill="#F28F8F"/>
<path d="M393.944 79.1488C393.961 79.3561 393.936 79.5645 393.87 79.7619C393.805 79.9592 393.701 80.1416 393.564 80.2982C393.427 80.4548 393.261 80.5825 393.074 80.6739C392.887 80.7652 392.684 80.8184 392.477 80.8302C392.155 80.8591 391.833 80.7913 391.551 80.6354C391.269 80.4796 391.039 80.2428 390.893 79.9555C390.747 79.6683 390.689 79.3438 390.729 79.0238C390.769 78.7039 390.903 78.4031 391.115 78.1602C391.327 77.9173 391.607 77.7435 391.919 77.6611C392.23 77.5787 392.56 77.5914 392.864 77.6978C393.168 77.8041 393.434 77.9992 393.627 78.2578C393.819 78.5164 393.93 78.8267 393.944 79.1488Z" fill="#263238"/>
<path d="M395.695 89.6509L399.311 90.7985C399.251 91.0443 399.142 91.2753 398.99 91.4773C398.837 91.6793 398.645 91.848 398.425 91.973C398.205 92.098 397.962 92.1766 397.71 92.2041C397.459 92.2316 397.204 92.2074 396.963 92.1329C396.468 91.9679 396.058 91.6154 395.821 91.1512C395.584 90.6869 395.539 90.1482 395.695 89.6509Z" fill="#B16668"/>
<path d="M406.715 74.3583L403.565 72.1832C403.696 71.9627 403.872 71.772 404.081 71.6233C404.29 71.4745 404.528 71.3711 404.779 71.3196C405.03 71.2681 405.289 71.2697 405.54 71.3242C405.791 71.3787 406.027 71.4849 406.234 71.6361C406.646 71.943 406.926 72.3958 407.015 72.9018C407.104 73.4078 406.997 73.9288 406.715 74.3583Z" fill="#263238"/>
<path d="M405.994 78.0146C406.021 78.2284 406.004 78.4455 405.943 78.6522C405.882 78.8589 405.779 79.0509 405.641 79.2159C405.502 79.3809 405.331 79.5155 405.138 79.6111C404.945 79.7067 404.734 79.7613 404.519 79.7715C404.304 79.7817 404.088 79.7472 403.887 79.6702C403.686 79.5932 403.503 79.4753 403.349 79.3241C403.196 79.1728 403.075 78.9915 402.995 78.7914C402.915 78.5913 402.878 78.3768 402.885 78.1614C402.868 77.9542 402.894 77.7457 402.959 77.5483C403.024 77.351 403.128 77.1686 403.265 77.012C403.402 76.8554 403.568 76.7277 403.755 76.6363C403.942 76.545 404.145 76.4918 404.353 76.4801C404.561 76.4729 404.769 76.507 404.964 76.5803C405.16 76.6535 405.339 76.7646 405.491 76.9071C405.644 77.0497 405.767 77.2208 405.853 77.4109C405.939 77.6009 405.987 77.8061 405.994 78.0146Z" fill="#263238"/>
<path d="M398.388 77.1205L398.628 86.5014L403.565 84.9801L398.388 77.1205Z" fill="#B16668"/>
<path d="M393.154 98.2975C389.151 97.7771 380.984 95.4285 379.703 92.1859C380.217 93.8244 381.218 95.2673 382.572 96.3226C385.027 98.4176 393.154 100.779 393.154 100.779V98.2975Z" fill="#B16668"/>
<path d="M347.921 57.6649C342.49 62.2953 336.765 64.5505 329.546 64.0034C325.423 63.6831 320.766 62.5756 317.536 65.151C314.734 67.3527 314.547 70.8222 316.028 73.878C317.643 77.1606 321.86 79.3357 325.156 80.55C329.29 82.1143 333.808 82.3567 338.086 81.2439C342.247 80.2106 346.06 78.0926 349.135 75.1056C351.278 72.6812 353.24 70.1034 355.006 67.3928C356.781 64.669 359.219 62.4418 362.092 60.9209C363.708 60.2657 365.372 59.7348 367.069 59.3329C368.858 58.7992 370.873 57.785 371.073 55.9302C371.051 55.2229 370.841 54.5341 370.466 53.934C370.091 53.334 369.564 52.844 368.938 52.5141C366.313 50.9639 363.192 50.486 360.224 51.1797C355.654 52.3033 351.43 54.53 347.921 57.6649Z" fill="#263238"/>
<path d="M375.237 152.995C375.237 152.995 395.974 154.863 408.397 148.538L407.903 169.248C407.903 169.248 393.692 177.695 374.236 172.517L375.237 152.995Z" fill="#F0F0F0"/>
<path d="M386.043 162.429C386.043 162.629 386.043 162.829 386.043 163.07V163.777V164.484C386.043 164.711 386.043 164.924 386.043 165.111C385.995 165.657 385.879 166.195 385.696 166.712C385.538 167.188 385.273 167.622 384.922 167.98C384.556 168.36 384.095 168.636 383.588 168.781C382.974 168.966 382.331 169.029 381.693 168.968C381.052 168.936 380.422 168.782 379.838 168.514C379.371 168.287 378.965 167.953 378.651 167.54C378.355 167.141 378.142 166.687 378.023 166.205C377.903 165.662 377.845 165.107 377.85 164.551C377.85 164.177 377.85 163.737 377.85 163.216C377.85 162.696 377.85 162.309 377.943 161.882C378.004 161.336 378.124 160.799 378.304 160.281C378.46 159.815 378.72 159.39 379.064 159.04C379.436 158.673 379.895 158.406 380.399 158.266C381.013 158.084 381.657 158.025 382.293 158.092C382.932 158.126 383.56 158.27 384.148 158.519C384.605 158.725 385.007 159.035 385.322 159.424C385.638 159.814 385.857 160.271 385.963 160.761C386.056 161.312 386.082 161.872 386.043 162.429ZM379.798 164.657C379.778 165.26 379.926 165.856 380.225 166.379C380.401 166.603 380.626 166.784 380.883 166.907C381.14 167.029 381.422 167.091 381.706 167.086C381.983 167.134 382.267 167.114 382.534 167.028C382.802 166.942 383.044 166.793 383.241 166.592C383.602 166.112 383.816 165.537 383.855 164.938C383.855 164.564 383.922 164.137 383.948 163.683C383.975 163.23 383.948 162.789 383.948 162.416C383.972 161.817 383.824 161.225 383.521 160.708C383.345 160.485 383.12 160.306 382.863 160.186C382.605 160.065 382.324 160.006 382.04 160.014C381.764 159.963 381.481 159.98 381.213 160.064C380.946 160.147 380.703 160.295 380.505 160.494C380.144 160.964 379.93 161.531 379.892 162.122C379.892 162.496 379.825 162.923 379.798 163.39C379.771 163.857 379.798 164.271 379.798 164.657Z" fill="black"/>
<path d="M403.392 159.907C403.661 159.678 403.875 159.39 404.019 159.067C404.111 158.837 404.165 158.593 404.179 158.346C404.2 158.168 404.182 157.988 404.127 157.817C404.072 157.647 403.98 157.49 403.859 157.359C403.681 157.227 403.475 157.14 403.257 157.103C403.039 157.066 402.816 157.08 402.604 157.145C402.13 157.186 401.686 157.394 401.35 157.732C401.079 158.065 400.871 158.445 400.736 158.853C400.728 158.918 400.706 158.98 400.671 159.035C400.637 159.09 400.591 159.137 400.536 159.173C400.461 159.244 400.369 159.295 400.269 159.32L399.055 159.48C399.003 159.487 398.95 159.484 398.9 159.47C398.849 159.457 398.802 159.433 398.761 159.4C398.722 159.366 398.693 159.322 398.677 159.273C398.66 159.223 398.657 159.171 398.668 159.12C398.72 158.653 398.86 158.2 399.082 157.786C399.311 157.35 399.609 156.954 399.962 156.611C400.326 156.253 400.745 155.955 401.203 155.731C401.673 155.491 402.177 155.324 402.698 155.237C403.243 155.122 403.807 155.122 404.352 155.237C404.768 155.34 405.152 155.541 405.473 155.824C405.751 156.099 405.965 156.431 406.101 156.798C406.221 157.164 406.275 157.548 406.261 157.932C406.261 158.186 406.261 158.426 406.167 158.666C406.121 158.918 406.035 159.161 405.914 159.387C405.766 159.67 405.592 159.938 405.393 160.187C405.113 160.524 404.81 160.84 404.486 161.135L401.524 164.151C403.218 163.884 404.072 163.75 405.78 163.43C405.829 163.417 405.88 163.417 405.929 163.429C405.978 163.44 406.023 163.464 406.061 163.497C406.101 163.524 406.132 163.563 406.151 163.608C406.17 163.653 406.176 163.702 406.167 163.75C406.167 164.177 406.167 164.404 406.167 164.831C406.16 164.946 406.113 165.054 406.034 165.138C405.955 165.23 405.846 165.291 405.727 165.312C402.871 165.845 401.43 166.072 398.588 166.432C398.536 166.445 398.482 166.444 398.431 166.43C398.38 166.416 398.333 166.389 398.294 166.352C398.26 166.317 398.233 166.275 398.214 166.23C398.196 166.184 398.187 166.135 398.188 166.086C398.188 165.712 398.188 165.525 398.188 165.165C398.197 164.995 398.257 164.832 398.361 164.698C398.441 164.588 398.535 164.489 398.641 164.404C400.536 162.669 401.484 161.762 403.392 159.907Z" fill="black"/>
<path d="M396.013 156.891C396.061 156.876 396.113 156.874 396.162 156.886C396.212 156.898 396.257 156.923 396.293 156.958C396.331 156.987 396.36 157.027 396.376 157.071C396.393 157.116 396.396 157.165 396.387 157.212L396.253 158.279C396.231 158.403 396.176 158.518 396.093 158.613L395.839 158.906C394.812 160.014 394.305 160.561 393.277 161.575C393.689 161.549 394.102 161.581 394.505 161.669C394.832 161.746 395.138 161.897 395.399 162.109C395.639 162.313 395.815 162.582 395.906 162.883C395.987 163.257 395.987 163.643 395.906 164.017C395.849 164.532 395.681 165.029 395.412 165.472C395.143 165.925 394.801 166.331 394.398 166.673C393.971 167.039 393.495 167.344 392.984 167.58C392.438 167.823 391.864 167.998 391.276 168.1C390.661 168.198 390.035 168.198 389.421 168.1C388.976 168.047 388.548 167.896 388.167 167.66C387.862 167.48 387.617 167.216 387.459 166.899C387.316 166.61 387.247 166.289 387.259 165.965C387.26 165.907 387.273 165.849 387.298 165.796C387.324 165.743 387.361 165.696 387.406 165.659C387.49 165.569 387.604 165.512 387.726 165.498L388.954 165.325C388.991 165.307 389.033 165.298 389.074 165.298C389.116 165.298 389.157 165.307 389.194 165.325C389.264 165.4 389.323 165.486 389.368 165.578C389.419 165.689 389.491 165.789 389.581 165.872C389.684 165.979 389.813 166.057 389.955 166.099C390.153 166.163 390.36 166.195 390.569 166.192C390.886 166.201 391.204 166.174 391.516 166.112C392.085 166.031 392.626 165.811 393.091 165.472C393.283 165.34 393.447 165.17 393.571 164.973C393.695 164.776 393.776 164.555 393.811 164.324C393.858 164.147 393.836 163.959 393.749 163.798C393.662 163.637 393.518 163.515 393.344 163.457C392.853 163.34 392.341 163.34 391.85 163.457L390.515 163.67C390.465 163.68 390.414 163.678 390.365 163.664C390.317 163.65 390.272 163.625 390.235 163.59C390.2 163.558 390.174 163.519 390.157 163.475C390.141 163.431 390.136 163.383 390.142 163.337L390.275 162.269C390.292 162.144 390.348 162.027 390.435 161.936L390.689 161.655C391.676 160.628 392.17 160.121 393.144 159.08C391.436 159.387 390.569 159.52 388.861 159.774C388.811 159.784 388.76 159.781 388.711 159.767C388.662 159.754 388.617 159.728 388.58 159.694C388.544 159.661 388.516 159.619 388.499 159.572C388.483 159.526 388.479 159.476 388.487 159.427L388.62 158.359C388.635 158.241 388.692 158.132 388.78 158.052C388.862 157.966 388.97 157.91 389.087 157.892C391.916 157.665 393.291 157.439 396.013 156.891Z" fill="black"/>
<path d="M371.017 105.543C361.756 105.41 357.339 107.878 353.843 117.446C350.347 127.014 344.943 164.431 347.972 169.101C351.001 173.772 379.103 175.279 388.644 175.319C398.185 175.359 409.995 172.877 417.067 168.888C423.819 165.058 427.916 155.81 424.647 151.367C422.752 148.791 421.391 149.352 419.242 151.193C416.451 153.524 413.097 155.079 409.515 155.704C410.546 154.412 411.44 153.017 412.183 151.54C412.716 150.583 413.119 149.56 413.384 148.498C413.525 148.107 413.576 147.69 413.534 147.276C413.493 146.863 413.36 146.464 413.144 146.109C412.807 145.802 412.374 145.623 411.918 145.601C411.463 145.579 411.014 145.716 410.649 145.989C409.923 146.541 409.289 147.203 408.767 147.951C407.721 149.088 406.543 150.096 405.258 150.953L398.999 155.53C397.943 156.34 396.838 157.084 395.69 157.759C392.803 159.207 389.564 159.809 386.349 159.493C379.078 159.102 371.853 158.079 364.759 156.438L370.003 127.815C370.003 127.815 376.048 115.805 371.017 105.543Z" fill="#F28F8F"/>
<path d="M243.568 203.769C242.46 191.306 239.084 186.102 233.853 184.874C225.513 182.912 224.939 186.062 227.822 192.12C229.089 194.648 229.988 197.344 230.491 200.126C229.602 199.046 228.564 198.098 227.408 197.311C226.814 196.857 226.068 196.647 225.324 196.724C224.58 196.8 223.894 197.158 223.405 197.724C223.031 198.245 224.406 199.059 225.687 201.287C227.341 204.156 227.408 206.265 229.89 208.827C230.856 210.138 231.404 211.71 231.465 213.337C231.424 218.872 230.652 224.377 229.169 229.71C224.806 223.558 219.975 217.313 216.319 212.363C209.647 203.342 208.019 200.527 196.156 200.353L199.839 221.33C199.839 221.33 225.006 254.583 232.012 256.545C235.001 257.386 237.349 256.852 238.684 255.291L238.764 255.197C240.859 252.795 242.087 245.469 242.767 235.074C243.221 229.87 243.568 223.985 243.981 217.66C244.18 213.026 244.041 208.383 243.568 203.769Z" fill="#B16668"/>
<path d="M229.128 229.683C228.452 231.706 227.886 233.764 227.434 235.848C226.696 239.352 226.75 242.977 227.594 246.457C227.594 246.457 225.325 243.788 225.499 237.756C225.552 234.326 226.349 230.948 227.834 227.855L229.128 229.683Z" fill="#9A4A4D"/>
<path d="M129.357 320.196C128.434 318.916 127.132 317.958 125.634 317.461C124.113 317.275 122.571 317.521 121.184 318.17C119.797 318.819 118.62 319.845 117.787 321.13C115.652 324.507 114.972 328.697 113.664 331.245C112.356 333.794 108.42 337.771 106.285 339.759C104.812 341.47 103.759 343.5 103.208 345.689C102.656 347.878 102.623 350.165 103.109 352.369C103.52 353.687 104.256 354.88 105.249 355.839C106.243 356.797 107.462 357.49 108.793 357.853L129.357 320.196Z" fill="#37474F"/>
<path d="M128.077 319.089C125.888 318.395 122.259 319.489 119.977 322.265C118.002 324.68 116.974 328.603 115.88 331.419C115.194 332.83 114.294 334.126 113.211 335.262C112.064 336.743 109.021 339.705 107.994 341.28C107.192 342.564 106.581 343.957 106.179 345.417C105.682 347.004 105.465 348.666 105.538 350.327C105.699 352.889 106.873 356.572 109.035 358.027C109.595 358.453 110.245 358.747 110.935 358.888C111.625 359.029 112.337 359.013 113.02 358.841C113.703 358.67 114.339 358.347 114.88 357.896C115.421 357.446 115.854 356.879 116.147 356.239C116.627 355.291 117.121 354.357 117.481 353.37C118.318 351.519 119.361 349.769 120.591 348.152C122.219 346.109 124.082 344.263 126.142 342.654C126.369 342.481 126.595 342.281 126.822 342.134C129.371 340.466 132 338.985 132.24 337.971C132.48 336.957 133.428 324.747 133.428 324.747C132.04 324.333 130.252 319.783 128.077 319.089Z" fill="white"/>
<path d="M173.366 270.209L171.031 343.989C169.323 340.239 161.476 336.996 155.018 334.768C150.841 333.34 143.796 329.564 139.005 327.722L131.426 323.719C129.847 323.979 128.381 324.699 127.209 325.787C125.648 327.122 122.832 332.032 124.9 333.514C125.219 333.69 125.485 333.949 125.668 334.264C125.851 334.579 125.946 334.937 125.941 335.302C127.276 334.554 129.384 335.515 130.652 336.396C131.161 336.726 131.535 337.228 131.706 337.81C131.706 337.81 158.167 355.558 166.841 361.336C177.596 368.502 183.508 365.486 187.537 360.188C191.567 354.891 198.813 336.823 203.55 322.305C208.287 307.786 209.302 285.595 209.422 275.267L173.366 270.209Z" fill="#B16668"/>
<path d="M209.463 275.32L173.367 270.21C173.367 270.21 170.471 321.598 170.698 325.481C170.67 326.672 170.894 327.855 171.354 328.954C171.813 330.053 172.499 331.043 173.367 331.859C178.171 337.037 187.659 339.959 194.544 338.384C198.04 337.584 200.309 335.809 200.949 333.554C200.949 333.554 206.62 319.022 208.475 305.905C210.33 292.788 209.463 275.32 209.463 275.32Z" fill="#37474F"/>
<path d="M195.264 292.627L207.167 307.226L198.426 293.882C198.426 293.882 206.299 290.559 208.234 284.234C208.234 284.287 202.469 291.773 195.264 292.627Z" fill="#263238"/>
<path d="M201.676 328.824C208.935 321.286 211.235 311.723 206.813 307.464C202.391 303.206 192.921 305.865 185.662 313.403C178.403 320.941 176.103 330.504 180.525 334.762C184.947 339.02 194.417 336.362 201.676 328.824Z" fill="#263238"/>
<path d="M213.56 432.874C212.879 433.034 212.826 435.716 213.093 436.477C213.734 437.876 214.733 439.082 215.988 439.973C218.222 441.719 220.113 443.864 221.566 446.298C223.329 449.356 225.732 451.996 228.612 454.037C232.529 456.3 237.146 457.027 241.569 456.079C246.493 455.238 246.987 452.823 247.013 451.102L213.56 432.874Z" fill="#37474F"/>
<path d="M227.889 423.453C228.623 425.308 232.399 434.449 237.083 438.265C240.819 441.294 245.863 444.764 247.304 448.3C248.746 451.836 243.701 454.011 237.737 454.011C231.532 454.011 228.503 450.929 225.607 447.739C223.565 445.511 220.83 441.508 219.362 439.733C217.894 437.958 214.638 436.09 213.784 433.995C213.317 432.847 213.651 430.259 214.104 428.057C214.558 425.855 214.945 423.813 215.639 423.96L215.706 425.188C216.573 426.069 227.889 423.453 227.889 423.453Z" fill="white"/>
<path d="M220.282 323.092C208.379 308.747 195.262 292.628 195.262 292.628L209.46 275.28L159.287 268.168C157.152 276.775 155.123 279.844 154.99 289.772C154.91 296.711 154.069 305.144 181.411 327.442C196.463 339.732 207.966 347.872 207.966 347.872C207.966 347.872 204.59 353.997 204.803 365.219C205.017 376.442 214.825 413.912 215.612 423.8C215.612 424.227 215.612 424.64 215.612 424.921C215.612 425.414 215.959 425.628 216.279 425.948C216.761 426.489 217.133 427.119 217.373 427.803C217.476 428.192 217.724 428.527 218.067 428.737C218.353 428.843 218.661 428.871 218.961 428.817C219.855 428.817 221.243 428.604 221.63 429.591C221.682 429.132 221.827 428.688 222.057 428.286C222.286 427.885 222.595 427.534 222.965 427.256C224.299 426.228 228.102 424.427 229.196 427.029C228.194 423.975 227.742 420.767 227.862 417.555C228.262 403.77 229.476 362.097 229.61 351.635C229.757 339.986 231.118 336.143 220.282 323.092Z" fill="#B16668"/>
<path d="M180.851 335.048C176.941 330.391 179.196 321.704 186.802 314.071C194.155 306.759 205.777 306.065 208.566 308.867L195.289 292.628C200.493 292.628 207.659 286.556 209.487 281.819V275.32L159.313 268.208C159.313 268.208 155.137 278.816 154.216 286.756C153.295 294.696 152.988 302.769 158.953 310.896C164.918 319.022 180.851 335.048 180.851 335.048Z" fill="#455A64"/>
<path d="M185.484 177.521L180.721 193.614C167.47 193.614 159.29 180.724 159.29 167.473C159.29 154.129 167.764 143.067 181.068 143.067H185.378C198.722 143.067 209.464 151.887 209.464 165.191C209.464 173.865 198.722 177.521 185.484 177.521Z" fill="#263238"/>
<path d="M211.944 152.875C212.939 151.212 213.405 149.285 213.278 147.351C213.219 146.382 212.94 145.439 212.461 144.595C211.982 143.751 211.317 143.028 210.516 142.48C208.047 140.892 204.618 141.639 202.309 143.467C202.133 141.732 201.285 140.135 199.945 139.017C198.606 137.9 196.882 137.351 195.143 137.489C192.955 137.852 190.878 138.711 189.072 139.998C185.838 141.633 182.35 142.706 178.757 143.174L182.76 144.762C182.209 145.612 181.859 146.577 181.737 147.583C181.614 148.588 181.722 149.609 182.053 150.566C182.222 150.961 182.432 151.337 182.68 151.687C185.377 155.711 189.096 158.943 193.456 161.054C197.815 163.165 202.658 164.077 207.487 163.697C208.84 163.669 210.164 163.292 211.33 162.603C212.013 162.12 212.59 161.503 213.024 160.788C213.887 159.533 214.305 158.025 214.212 156.505C214.17 155.758 213.94 155.033 213.544 154.399C213.147 153.764 212.597 153.24 211.944 152.875Z" fill="#263238"/>
<path d="M173.045 200.02H170.456C158.74 200.834 158.1 204.917 157.499 210.028C156.431 215.534 156.535 221.204 157.806 226.668C159.634 233.86 163.144 251.061 163.144 251.061C163.144 251.061 158.46 266.366 157.005 273.999C177.489 287.343 200.934 283.34 209.421 275.334C209.247 268.074 209.608 260.281 209.007 253.463C209.134 248.037 209.535 242.621 210.208 237.236C215.706 230.217 215.332 224.786 212.944 219.088C208.727 209.014 198.532 200.3 195.917 200.313L173.045 200.02Z" fill="white"/>
<path d="M200.869 153.676C203.644 155.317 207.06 162.283 206.727 176.895C206.447 189.291 202.43 192.347 200.415 193.228C198.4 194.109 194.504 193.575 190.727 192.948V200.38C190.727 200.38 195.945 206.452 195.625 209.855C195.304 213.257 188.072 214.071 183.188 210.735C178.304 207.399 175.181 200.821 175.181 200.821V184.808C175.181 184.808 172.633 187.837 168.509 185.061C164.386 182.286 164.173 175.427 166.601 172.958C169.03 170.49 174.261 171.277 175.235 174.68C175.235 174.68 181.266 174.906 189.286 170.49C192.404 168.796 195.078 166.391 197.09 163.47C199.103 160.548 200.398 157.192 200.869 153.676Z" fill="#B16668"/>
<path d="M191.528 173.785C191.542 173.994 191.515 174.203 191.449 174.401C191.382 174.6 191.277 174.783 191.139 174.94C191.001 175.098 190.834 175.226 190.647 175.319C190.459 175.412 190.255 175.466 190.046 175.48C189.625 175.487 189.217 175.329 188.91 175.04C188.604 174.751 188.422 174.353 188.405 173.932C188.395 173.727 188.426 173.522 188.496 173.329C188.565 173.136 188.672 172.958 188.81 172.806C188.949 172.655 189.115 172.532 189.301 172.444C189.487 172.357 189.688 172.307 189.893 172.297C190.098 172.288 190.303 172.318 190.496 172.388C190.689 172.458 190.867 172.564 191.018 172.703C191.17 172.841 191.293 173.008 191.381 173.193C191.468 173.379 191.518 173.58 191.528 173.785Z" fill="#263238"/>
<path d="M193.289 184.287L196.905 185.448C196.843 185.693 196.733 185.923 196.58 186.124C196.427 186.325 196.235 186.492 196.016 186.617C195.796 186.742 195.554 186.821 195.303 186.849C195.052 186.878 194.798 186.855 194.556 186.782C194.059 186.617 193.646 186.263 193.409 185.795C193.172 185.328 193.128 184.786 193.289 184.287Z" fill="#9A4A4D"/>
<path d="M204.258 169.008L201.108 166.82C201.24 166.6 201.417 166.411 201.626 166.263C201.836 166.116 202.074 166.014 202.325 165.963C202.576 165.913 202.835 165.916 203.085 165.971C203.335 166.027 203.571 166.134 203.777 166.286C204.189 166.593 204.469 167.046 204.558 167.552C204.647 168.058 204.54 168.579 204.258 169.008Z" fill="#263238"/>
<path d="M203.537 172.664C203.564 172.878 203.547 173.095 203.486 173.302C203.425 173.509 203.322 173.7 203.184 173.865C203.045 174.031 202.874 174.165 202.681 174.261C202.488 174.356 202.277 174.411 202.062 174.421C201.846 174.431 201.631 174.397 201.43 174.32C201.229 174.243 201.046 174.125 200.892 173.974C200.739 173.822 200.618 173.641 200.538 173.441C200.458 173.241 200.421 173.026 200.428 172.811C200.4 172.597 200.418 172.38 200.478 172.173C200.539 171.967 200.642 171.775 200.781 171.61C200.919 171.445 201.09 171.31 201.283 171.214C201.477 171.119 201.687 171.064 201.903 171.054C202.118 171.044 202.333 171.078 202.534 171.155C202.735 171.232 202.919 171.35 203.072 171.502C203.226 171.653 203.346 171.834 203.426 172.034C203.506 172.234 203.544 172.449 203.537 172.664Z" fill="#263238"/>
<path d="M195.918 171.771L196.172 181.151L201.109 179.617L195.918 171.771Z" fill="#9A4A4D"/>
<path d="M190.701 192.947C186.698 192.427 178.518 190.065 177.237 186.822C177.75 188.465 178.756 189.909 180.12 190.959C182.562 193.067 190.701 195.429 190.701 195.429V192.947Z" fill="#9A4A4D"/>
<path d="M136.604 288.985C135.137 285.542 134.096 284.434 133.442 281.232C134.349 282.189 135.382 283.019 136.511 283.7C137.845 284.394 139.754 284.381 140.234 283.127C140.714 281.872 138.593 281.125 137.792 279.67C136.568 277.205 135.102 274.867 133.415 272.691C132.946 272.25 132.571 271.719 132.312 271.13C132.053 270.541 131.915 269.906 131.907 269.262C132.041 260.041 133.388 250.127 133.655 240.692C140.394 235.862 151.723 230.564 157.808 226.668C161.586 226.063 165.025 224.133 167.509 221.223C169.098 219.249 170.251 216.961 170.895 214.51C171.539 212.058 171.658 209.499 171.246 206.999C170.885 204.77 169.911 200.954 167.723 200.327C166.695 200.046 163.8 200.22 159.836 201.955C157.168 203.115 151.67 205.958 140.634 212.897C132.541 217.821 125.194 223.878 118.817 230.884C115.961 234.154 117.763 260.882 118.216 267.207C118.456 270.636 118.964 275.921 119.724 280.444C121.059 288.077 125.302 294.429 130.8 295.777C139.487 297.925 138.606 293.642 136.604 288.985Z" fill="#B16668"/>
<path d="M175.139 251.701C175.139 251.701 195.916 253.036 208.179 246.457V267.18C208.179 267.18 194.181 275.961 174.605 271.184L175.139 251.701Z" fill="#F0F0F0"/>
<path d="M186.19 260.882V261.509V262.216C186.19 262.456 186.19 262.697 186.19 262.923C186.19 263.15 186.19 263.364 186.19 263.564C186.149 264.113 186.042 264.655 185.87 265.179C185.73 265.673 185.479 266.13 185.136 266.513C184.788 266.888 184.352 267.172 183.868 267.34C183.263 267.541 182.623 267.618 181.987 267.567C181.342 267.56 180.706 267.419 180.119 267.154C179.644 266.945 179.227 266.625 178.904 266.219C178.599 265.823 178.377 265.369 178.251 264.885C178.116 264.348 178.045 263.797 178.037 263.244C178.037 262.857 178.037 262.416 178.037 261.909C178.037 261.402 178.037 260.989 178.117 260.575C178.154 260.031 178.257 259.493 178.424 258.974C178.569 258.501 178.82 258.067 179.158 257.706C179.509 257.346 179.938 257.072 180.412 256.905C181.024 256.709 181.668 256.637 182.307 256.692C182.947 256.703 183.58 256.83 184.175 257.065C184.643 257.267 185.058 257.573 185.39 257.96C185.707 258.348 185.931 258.805 186.044 259.294C186.153 259.816 186.202 260.349 186.19 260.882ZM179.999 263.244C179.993 263.85 180.155 264.445 180.466 264.965C180.644 265.187 180.872 265.364 181.132 265.48C181.392 265.596 181.676 265.648 181.96 265.632C182.238 265.677 182.523 265.651 182.788 265.558C183.054 265.465 183.292 265.307 183.481 265.099C183.838 264.619 184.039 264.041 184.055 263.444C184.055 263.07 184.055 262.643 184.122 262.176C184.189 261.709 184.122 261.296 184.122 260.909C184.131 260.309 183.964 259.72 183.642 259.214C183.464 259.004 183.241 258.838 182.988 258.729C182.736 258.62 182.462 258.571 182.187 258.587C181.909 258.543 181.625 258.566 181.358 258.654C181.091 258.742 180.849 258.893 180.653 259.094C180.305 259.578 180.105 260.153 180.079 260.748C180.079 261.122 180.079 261.549 180.012 262.003C179.945 262.456 179.972 262.87 179.985 263.244H179.999Z" fill="black"/>
<path d="M193.475 260.482C193.739 260.243 193.945 259.946 194.076 259.614C194.162 259.383 194.216 259.14 194.236 258.894C194.252 258.715 194.227 258.535 194.165 258.366C194.103 258.198 194.004 258.045 193.876 257.92C193.7 257.789 193.495 257.704 193.278 257.671C193.062 257.639 192.841 257.66 192.635 257.733C192.159 257.785 191.718 258.007 191.394 258.36C191.115 258.689 190.914 259.077 190.806 259.494C190.773 259.618 190.703 259.73 190.606 259.815C190.531 259.886 190.44 259.936 190.339 259.961L189.125 260.148C189.079 260.171 189.029 260.182 188.978 260.182C188.927 260.182 188.877 260.171 188.832 260.148C188.791 260.114 188.76 260.071 188.742 260.022C188.723 259.973 188.717 259.92 188.725 259.868C188.776 259.402 188.911 258.95 189.125 258.534C189.344 258.097 189.627 257.697 189.966 257.346C190.321 256.982 190.731 256.676 191.18 256.438C191.648 256.186 192.152 256.006 192.675 255.905C193.216 255.791 193.775 255.791 194.316 255.905C194.736 256.003 195.128 256.195 195.464 256.465C195.751 256.724 195.97 257.05 196.104 257.413C196.24 257.78 196.303 258.169 196.291 258.56C196.305 258.8 196.305 259.041 196.291 259.281C196.244 259.533 196.168 259.78 196.064 260.015C195.92 260.304 195.746 260.577 195.544 260.829C195.282 261.173 194.992 261.494 194.676 261.789L191.781 264.885C193.475 264.578 194.316 264.418 196.011 264.058C196.057 264.037 196.107 264.027 196.157 264.027C196.208 264.027 196.258 264.037 196.304 264.058C196.342 264.091 196.371 264.132 196.389 264.179C196.408 264.225 196.415 264.275 196.411 264.325V265.392C196.404 265.511 196.357 265.624 196.278 265.713C196.201 265.803 196.098 265.868 195.984 265.899C193.142 266.5 191.714 266.753 188.858 267.234C188.809 267.242 188.758 267.238 188.709 267.225C188.661 267.211 188.616 267.187 188.578 267.154C188.539 267.122 188.508 267.081 188.49 267.034C188.471 266.988 188.465 266.937 188.471 266.887V265.966C188.469 265.797 188.526 265.632 188.631 265.499C188.708 265.387 188.797 265.284 188.898 265.192C190.686 263.311 191.62 262.377 193.475 260.482Z" fill="black"/>
<path d="M206.205 252.729C206.249 252.708 206.297 252.698 206.345 252.698C206.394 252.698 206.442 252.708 206.486 252.729C206.526 252.757 206.559 252.795 206.58 252.839C206.601 252.884 206.61 252.933 206.606 252.982V254.05C206.603 254.175 206.561 254.296 206.486 254.397L206.259 254.717L203.964 257.693C204.375 257.633 204.793 257.633 205.205 257.693C205.534 257.736 205.849 257.855 206.125 258.04C206.393 258.217 206.598 258.473 206.712 258.773C206.851 259.125 206.91 259.504 206.886 259.881C206.872 260.398 206.754 260.906 206.539 261.376C206.315 261.866 206.013 262.316 205.645 262.71C205.251 263.118 204.802 263.468 204.31 263.751C203.795 264.048 203.243 264.277 202.669 264.431C202.071 264.604 201.45 264.685 200.828 264.672C200.366 264.657 199.912 264.548 199.493 264.351C199.17 264.193 198.898 263.948 198.706 263.644C198.541 263.368 198.445 263.057 198.426 262.737C198.42 262.678 198.428 262.618 198.448 262.563C198.469 262.507 198.503 262.457 198.546 262.416C198.625 262.325 198.733 262.263 198.853 262.243L200.054 261.949C200.091 261.932 200.132 261.922 200.174 261.922C200.215 261.922 200.256 261.932 200.294 261.949C200.374 262.012 200.442 262.089 200.494 262.176C200.561 262.293 200.651 262.395 200.759 262.475C200.867 262.556 200.99 262.613 201.121 262.643C201.334 262.673 201.549 262.673 201.762 262.643C202.073 262.614 202.381 262.556 202.682 262.47C203.241 262.331 203.758 262.062 204.19 261.682C204.369 261.532 204.514 261.347 204.617 261.138C204.721 260.929 204.78 260.701 204.791 260.468C204.823 260.29 204.786 260.106 204.686 259.955C204.587 259.803 204.433 259.696 204.257 259.654C203.756 259.582 203.246 259.623 202.763 259.774L201.428 260.121C201.381 260.136 201.331 260.14 201.282 260.131C201.233 260.123 201.187 260.103 201.148 260.073C201.108 260.042 201.077 260.003 201.056 259.958C201.035 259.913 201.025 259.864 201.028 259.814V258.733C201.045 258.613 201.091 258.499 201.161 258.4C201.23 258.293 201.306 258.19 201.388 258.093L203.59 255.304C201.909 255.771 201.055 255.985 199.373 256.385C199.329 256.405 199.281 256.416 199.233 256.416C199.185 256.416 199.137 256.405 199.093 256.385C199.053 256.353 199.021 256.312 199.001 256.266C198.98 256.22 198.97 256.169 198.973 256.118V255.05C198.975 254.933 199.017 254.82 199.093 254.73C199.172 254.642 199.273 254.577 199.386 254.543C202.202 253.89 203.537 253.529 206.205 252.729Z" fill="black"/>
<path d="M192.487 412.804V514.632C192.486 514.756 192.451 514.878 192.388 514.985C192.325 515.092 192.235 515.18 192.127 515.241C192.018 515.301 191.896 515.333 191.772 515.331C191.648 515.33 191.526 515.296 191.419 515.233L156.925 495.323L152.481 503.023L192.861 526.362C193.718 526.86 194.691 527.123 195.682 527.124C196.673 527.125 197.647 526.865 198.505 526.37C199.363 525.874 200.076 525.161 200.57 524.302C201.064 523.443 201.323 522.469 201.321 521.478V417.928L192.487 412.804Z" fill="#455A64"/>
<path d="M154.724 495.55C156.458 494.55 157.873 495.364 157.873 497.365C157.812 498.456 157.495 499.517 156.948 500.463C156.401 501.409 155.639 502.213 154.724 502.81C152.989 503.81 151.588 502.996 151.588 500.995C151.647 499.905 151.961 498.844 152.506 497.898C153.051 496.952 153.81 496.148 154.724 495.55Z" fill="#455A64"/>
<path d="M314.988 342.08V443.909C314.988 444.032 314.955 444.153 314.893 444.26C314.832 444.367 314.743 444.455 314.637 444.517C314.53 444.579 314.409 444.613 314.286 444.613C314.163 444.614 314.041 444.583 313.934 444.523L279.439 424.6L274.982 432.299L315.428 455.638C316.284 456.132 317.254 456.392 318.242 456.393C319.23 456.393 320.201 456.133 321.057 455.64C321.913 455.146 322.624 454.436 323.118 453.581C323.613 452.726 323.874 451.755 323.875 450.768V347.204L314.988 342.08Z" fill="#455A64"/>
<path d="M277.223 424.827C278.958 423.826 280.372 424.64 280.372 426.642C280.311 427.733 279.994 428.794 279.447 429.739C278.9 430.685 278.138 431.489 277.223 432.086C275.488 433.087 274.087 432.273 274.087 430.271C274.146 429.181 274.46 428.12 275.005 427.175C275.55 426.229 276.309 425.424 277.223 424.827Z" fill="#455A64"/>
<path d="M174.713 397.405L323.873 311.282L332.76 316.42V347.204L183.6 433.327L174.713 428.19V397.405Z" fill="white"/>
<path opacity="0.8" d="M174.713 397.405L183.6 402.529L332.76 316.42L323.873 311.282L174.713 397.405Z" fill="white"/>
<path opacity="0.65" d="M183.604 402.528L332.763 316.419V347.204L183.604 433.327V402.528Z" fill="white"/>
<path opacity="0.5" d="M174.713 397.405L183.6 402.529V433.327L174.713 428.19V397.405Z" fill="white"/>
</svg>
