<svg width="272" height="311" viewBox="0 0 272 311" fill="none" xmlns="http://www.w3.org/2000/svg">
<path fill-rule="evenodd" clip-rule="evenodd" d="M15.0242 0C6.72654 0 0 6.72655 0 15.0242V295.976C0 304.273 6.72656 311 15.0242 311H256.913C265.211 311 271.937 304.273 271.937 295.976V15.0242C271.937 6.72654 265.211 0 256.913 0H15.0242ZM258.613 19.8174H13.7197V290.252H258.613V19.8174Z" fill="#B5B1E1"/>
<rect x="97.5684" y="6.09766" width="74.701" height="6.09804" rx="3.04902" fill="#48428E"/>
<path d="M200.917 201.83L177.422 177.776C183.58 167.948 187.165 156.273 187.165 143.732C187.165 108.85 159.545 80.5732 125.475 80.5732C91.4044 80.5732 63.7849 108.85 63.7849 143.732C63.7849 178.613 91.4044 206.89 125.475 206.89C137.725 206.89 149.128 203.22 158.728 196.915L182.223 220.97C187.387 226.257 195.755 226.257 200.917 220.97C206.079 215.682 206.081 207.118 200.917 201.83ZM125.475 202.379C93.8389 202.379 68.1913 176.121 68.1913 143.732C68.1913 111.343 93.8389 85.0846 125.475 85.0846C157.111 85.0846 182.758 111.343 182.758 143.732C182.758 176.121 157.111 202.379 125.475 202.379ZM197.802 217.78C194.36 221.304 188.78 221.304 185.34 217.78L162.42 194.315C167.146 190.692 171.346 186.391 174.884 181.557L197.802 205.02C201.245 208.541 201.245 214.257 197.802 217.78Z" fill="#B5B1E1"/>
<path d="M125.476 89.5967C96.2724 89.5967 72.5989 113.834 72.5989 143.732C72.5989 173.631 96.2724 197.868 125.476 197.868C154.68 197.868 178.353 173.631 178.353 143.732C178.353 113.834 154.68 89.5967 125.476 89.5967ZM125.476 193.357C98.7069 193.357 77.0053 171.139 77.0053 143.732C77.0053 116.326 98.7069 94.108 125.476 94.108C152.245 94.108 173.947 116.326 173.947 143.732C173.947 171.139 152.245 193.357 125.476 193.357Z" fill="#B5B1E1"/>
<path d="M125.474 105.386C124.256 105.386 123.271 106.394 123.271 107.641C123.271 108.889 124.256 109.897 125.474 109.897C143.726 109.897 158.523 125.046 158.523 143.732C158.523 144.979 159.507 145.988 160.726 145.988C161.944 145.988 162.929 144.979 162.929 143.732C162.929 122.554 146.16 105.386 125.474 105.386Z" fill="#B5B1E1"/>
</svg>
