<svg width="272" height="311" viewBox="0 0 272 311" fill="none" xmlns="http://www.w3.org/2000/svg">
<rect width="271.937" height="311" rx="15.0242" fill="#B5B1E1"/>
<rect x="13.7202" y="19.8174" width="244.894" height="270.435" fill="#F8F3FB"/>
<rect x="97.5688" y="6.09741" width="74.701" height="6.09804" rx="3.04902" fill="#6C64C4"/>
<path d="M200.917 201.831L177.422 177.777C183.58 167.949 187.164 156.274 187.164 143.732C187.164 108.851 159.545 80.5737 125.475 80.5737C91.4041 80.5737 63.7847 108.851 63.7847 143.732C63.7847 178.614 91.4041 206.89 125.475 206.89C137.724 206.89 149.128 203.22 158.728 196.916L182.223 220.97C187.387 226.257 195.755 226.257 200.917 220.97C206.079 215.683 206.081 207.118 200.917 201.831ZM125.475 202.379C93.8387 202.379 68.1911 176.121 68.1911 143.732C68.1911 111.343 93.8387 85.085 125.475 85.085C157.11 85.085 182.758 111.343 182.758 143.732C182.758 176.121 157.11 202.379 125.475 202.379ZM197.802 217.781C194.36 221.304 188.779 221.304 185.34 217.781L162.42 194.315C167.146 190.693 171.345 186.391 174.884 181.557L197.802 205.02C201.245 208.542 201.245 214.257 197.802 217.781Z" fill="#B5B1E1"/>
<path d="M125.476 89.5972C96.2721 89.5972 72.5986 113.834 72.5986 143.733C72.5986 173.632 96.2721 197.869 125.476 197.869C154.679 197.869 178.353 173.632 178.353 143.733C178.353 113.834 154.679 89.5972 125.476 89.5972ZM125.476 193.357C98.7067 193.357 77.0051 171.139 77.0051 143.733C77.0051 116.327 98.7067 94.1085 125.476 94.1085C152.245 94.1085 173.946 116.327 173.946 143.733C173.946 171.139 152.245 193.357 125.476 193.357Z" fill="#B5B1E1"/>
<path d="M125.474 105.386C124.256 105.386 123.271 106.394 123.271 107.642C123.271 108.889 124.256 109.897 125.474 109.897C143.726 109.897 158.522 125.046 158.522 143.732C158.522 144.979 159.507 145.988 160.726 145.988C161.944 145.988 162.929 144.979 162.929 143.732C162.929 122.554 146.16 105.386 125.474 105.386Z" fill="#B5B1E1"/>
</svg>
