<svg width="30" height="31" viewBox="0 0 30 31" fill="none" xmlns="http://www.w3.org/2000/svg">
<path d="M23.3435 30.3673L6.68564 30.3832C3.02091 30.3865 0.0199923 27.3914 0.0158278 23.7267L2.77671e-06 7.06872C-0.0033288 3.40398 2.99176 0.403049 6.65649 0.398885L23.3144 0.383059C26.9791 0.379728 29.98 3.37483 29.9842 7.03957L30 23.6975C30.0042 27.3631 27.0082 30.364 23.3435 30.3673Z" fill="url(#paint0_radial_1769_786)"/>
<path d="M23.3435 30.3673L6.68564 30.3832C3.02091 30.3865 0.0199923 27.3914 0.0158278 23.7267L2.77671e-06 7.06872C-0.0033288 3.40398 2.99176 0.403049 6.65649 0.398885L23.3144 0.383059C26.9791 0.379728 29.98 3.37483 29.9842 7.03957L30 23.6975C30.0042 27.3631 27.0082 30.364 23.3435 30.3673Z" fill="url(#paint1_radial_1769_786)"/>
<path d="M15.0002 21.2138C11.786 21.2138 9.16992 18.5985 9.16992 15.3835C9.16992 12.1685 11.786 9.55322 15.0002 9.55322C18.2143 9.55322 20.8304 12.1685 20.8304 15.3835C20.8304 18.5985 18.2143 21.2138 15.0002 21.2138ZM15.0002 11.219C12.7039 11.219 10.8357 13.0872 10.8357 15.3835C10.8357 17.6798 12.7039 19.548 15.0002 19.548C17.2965 19.548 19.1646 17.6798 19.1646 15.3835C19.1646 13.0872 17.2965 11.219 15.0002 11.219Z" fill="#FBF8F3"/>
<path d="M21.2474 10.3861C21.9374 10.3861 22.4967 9.82679 22.4967 9.1368C22.4967 8.4468 21.9374 7.88745 21.2474 7.88745C20.5574 7.88745 19.998 8.4468 19.998 9.1368C19.998 9.82679 20.5574 10.3861 21.2474 10.3861Z" fill="#FBF8F3"/>
<path d="M19.9978 26.2112H10.0031C6.78897 26.2112 4.17285 23.5959 4.17285 20.3809V10.3862C4.17285 7.1712 6.78897 4.55591 10.0031 4.55591H19.9978C23.212 4.55591 25.8281 7.1712 25.8281 10.3862V20.3809C25.8281 23.5959 23.212 26.2112 19.9978 26.2112ZM10.0031 6.2217C7.70682 6.2217 5.83864 8.08989 5.83864 10.3862V20.3809C5.83864 22.6772 7.70682 24.5454 10.0031 24.5454H19.9978C22.2941 24.5454 24.1623 22.6772 24.1623 20.3809V10.3862C24.1623 8.08989 22.2941 6.2217 19.9978 6.2217H10.0031Z" fill="#FBF8F3"/>
<defs>
<radialGradient id="paint0_radial_1769_786" cx="0" cy="0" r="1" gradientUnits="userSpaceOnUse" gradientTransform="translate(11.1524 30.4048) scale(37.3961 37.3962)">
<stop stop-color="#FFDD55"/>
<stop offset="0.328" stop-color="#FF543F"/>
<stop offset="0.348" stop-color="#FC5245"/>
<stop offset="0.504" stop-color="#E64771"/>
<stop offset="0.643" stop-color="#D53E91"/>
<stop offset="0.761" stop-color="#CC39A4"/>
<stop offset="0.841" stop-color="#C837AB"/>
</radialGradient>
<radialGradient id="paint1_radial_1769_786" cx="0" cy="0" r="1" gradientUnits="userSpaceOnUse" gradientTransform="translate(4.82745 0.00850764) scale(24.8311 16.545)">
<stop stop-color="#4168C9"/>
<stop offset="0.999" stop-color="#4168C9" stop-opacity="0"/>
</radialGradient>
</defs>
</svg>
