<svg width="179" height="31" viewBox="0 0 179 31" fill="none" xmlns="http://www.w3.org/2000/svg">
<path d="M20.1521 0.125122C20.1521 0.125122 15.9105 -0.598908 13.4347 1.43639C10.9604 -0.598908 6.71737 0.125122 6.71737 0.125122C0.447825 1.43639 0 8.03833 0 8.03833C0 11.4305 2.36525 13.7366 2.36525 13.7366L9.46242 20.7959C9.46242 20.7959 10.8838 22.3227 13.4347 22.3227C15.9856 22.3227 17.407 20.7959 17.407 20.7959L24.5028 13.7366C24.5028 13.7366 26.868 11.4305 26.868 8.03833C26.868 8.03833 26.4216 1.43639 20.1521 0.125122ZM21.9051 11.8823L15.0871 18.3944C15.0871 18.3944 14.5174 19.1185 13.4347 19.1185C12.352 19.1185 11.7823 18.3944 11.7823 18.3944L4.96433 11.8823C3.34168 10.5711 3.29491 8.03833 3.29491 8.03833C3.29491 5.96987 4.84387 4.54115 5.85715 3.82679C6.46228 3.39984 7.18078 3.14145 7.92763 3.10691C9.86064 3.01848 11.3189 3.96773 11.3189 3.96773C11.3189 3.96773 12.5575 5.07036 13.4361 5.07036C14.3148 5.07036 15.5534 3.96773 15.5534 3.96773C15.5534 3.96773 17.0102 3.0171 18.9447 3.10691C19.6915 3.14145 20.4086 3.39984 21.0152 3.82679C22.0298 4.54115 23.5774 5.96987 23.5774 8.03833C23.5746 8.03833 23.5292 10.5711 21.9051 11.8823Z" fill="#FBF8F3"/>
<path d="M23.5727 16.0469C23.5557 16.4103 23.3927 18.6362 21.9047 19.8384L15.0867 26.3505C15.0867 26.3505 14.517 27.0745 13.4343 27.0745C12.3516 27.0745 11.7819 26.3505 11.7819 26.3505L4.96389 19.8384C3.55664 18.7012 3.33415 16.6493 3.30014 16.1215C2.5873 15.49 1.51309 14.4551 0.67413 13.2848C0.0845894 14.7771 0.000976562 15.9944 0.000976562 15.9944C0.000976562 19.3865 2.36622 21.6926 2.36622 21.6926L9.46197 28.7519C9.46197 28.7519 10.8834 30.2788 13.4343 30.2788C15.9852 30.2788 17.4066 28.7519 17.4066 28.7519L24.5024 21.6926C24.5024 21.6926 26.8676 19.3865 26.8676 15.9944C26.8676 15.9944 26.7826 14.737 26.1661 13.2115C25.3527 14.3681 24.2997 15.3975 23.5727 16.0469Z" fill="#FBF8F3"/>
<path d="M6.14043 11.6032C6.68179 11.2854 7.29401 11.0933 7.92748 11.0643C9.86049 10.9759 11.3188 11.9251 11.3188 11.9251C11.3188 11.9251 12.5574 13.0278 13.436 13.0278C14.3146 13.0278 15.5532 11.9251 15.5532 11.9251C15.5532 11.9251 17.0101 10.9745 18.9445 11.0643C19.5596 11.0919 20.1534 11.2757 20.6834 11.5769C21.7675 10.6152 22.1884 9.57203 22.35 8.85491C21.7108 8.52329 20.9838 8.25662 20.1534 8.08252C20.1534 8.08252 15.9118 7.35849 13.436 9.39379C10.9616 7.35849 6.71864 8.08252 6.71864 8.08252C5.857 8.26215 5.10732 8.54264 4.45117 8.89222C4.61981 9.61487 5.05205 10.6498 6.14043 11.6032Z" fill="#FBF8F3"/>
<path d="M52.4586 7.58733C52.5602 7.77769 52.6173 7.94901 52.63 8.1013C52.6553 8.25359 52.668 8.47567 52.668 8.76756V19.3325C52.668 20.2082 52.4269 20.7222 51.9447 20.8744C51.7035 20.9506 51.399 20.9887 51.0309 20.9887C50.6629 20.9887 50.371 20.9569 50.1553 20.8935C49.9395 20.83 49.7746 20.7539 49.6603 20.665C49.5461 20.5762 49.4573 20.4493 49.3938 20.2843C49.3304 20.0686 49.2987 19.7386 49.2987 19.2945V12.9174C48.9814 13.3108 48.5182 13.939 47.909 14.802C47.2999 15.6522 46.9128 16.1852 46.7478 16.401C46.5829 16.6167 46.4686 16.769 46.4052 16.8578C46.3417 16.934 46.1831 17.0482 45.9293 17.2005C45.6882 17.3401 45.4217 17.4099 45.1298 17.4099C44.8506 17.4099 44.5904 17.3464 44.3493 17.2195C44.1209 17.0799 43.9559 16.9467 43.8544 16.8198L43.7021 16.6104C43.4483 16.2931 42.947 15.6205 42.1982 14.5926C41.4495 13.5519 41.0434 12.9935 40.9799 12.9174V19.3325C40.9799 19.6244 40.9672 19.8465 40.9419 19.9988C40.9292 20.1384 40.8721 20.297 40.7705 20.4747C40.5802 20.8173 40.0852 20.9887 39.2857 20.9887C38.5116 20.9887 38.0294 20.8173 37.839 20.4747C37.7375 20.297 37.674 20.132 37.6486 19.9797C37.6359 19.8275 37.6296 19.599 37.6296 19.2945V8.72948C37.6296 8.4376 37.6359 8.22186 37.6486 8.08226C37.674 7.92997 37.7375 7.75865 37.839 7.56829C38.0294 7.23833 38.5243 7.07335 39.3238 7.07335C39.6665 7.07335 39.9583 7.11777 40.1995 7.20661C40.4533 7.28275 40.6183 7.36524 40.6944 7.45407L40.8086 7.56829L45.1298 13.241C47.2872 10.3856 48.7276 8.50105 49.4509 7.58733C49.6667 7.24468 50.1743 7.07335 50.9738 7.07335C51.786 7.07335 52.281 7.24468 52.4586 7.58733ZM57.5625 17.6383H63.4256C63.7175 17.6383 63.9332 17.651 64.0728 17.6764C64.2251 17.6891 64.3964 17.7462 64.5868 17.8477C64.9294 18.0254 65.1007 18.5203 65.1007 19.3325C65.1007 20.2209 64.866 20.7412 64.3964 20.8935C64.1807 20.9696 63.8507 21.0077 63.4065 21.0077H55.8683C54.98 21.0077 54.4596 20.7666 54.3073 20.2843C54.2312 20.0813 54.1931 19.7577 54.1931 19.3135V8.72948C54.1931 8.08226 54.3137 7.64443 54.5548 7.416C54.7959 7.17488 55.2528 7.05432 55.9254 7.05432H63.4256C63.7175 7.05432 63.9332 7.06701 64.0728 7.09239C64.2251 7.10508 64.3964 7.16219 64.5868 7.26371C64.9294 7.44138 65.1007 7.93632 65.1007 8.74852C65.1007 9.63687 64.866 10.1572 64.3964 10.3095C64.1807 10.3856 63.8507 10.4237 63.4065 10.4237H57.5625V12.3463H61.3316C61.6235 12.3463 61.8393 12.359 61.9788 12.3844C62.1311 12.3971 62.3025 12.4542 62.4928 12.5557C62.8355 12.7334 63.0068 13.2283 63.0068 14.0405C63.0068 14.9289 62.7657 15.4492 62.2834 15.6015C62.0677 15.6776 61.7377 15.7157 61.2936 15.7157H57.5625V17.6383ZM68.0265 7.03528L71.5481 7.05432C73.3883 7.05432 75.0063 7.72058 76.4023 9.0531C77.7983 10.3729 78.4963 12.0037 78.4963 13.9453C78.4963 15.8743 77.811 17.5305 76.4404 18.9137C75.0825 20.297 73.4327 20.9887 71.491 20.9887H68.0075C67.2333 20.9887 66.7511 20.83 66.5607 20.5128C66.4084 20.2463 66.3323 19.8402 66.3323 19.2945V8.71045C66.3323 8.40587 66.3386 8.18379 66.3513 8.04419C66.3767 7.90459 66.4402 7.73961 66.5417 7.54925C66.7194 7.20661 67.2143 7.03528 68.0265 7.03528ZM71.5481 17.6193C72.4619 17.6193 73.2868 17.283 74.0228 16.6104C74.7589 15.9251 75.1269 15.0685 75.1269 14.0405C75.1269 13.0126 74.7652 12.156 74.0419 11.4707C73.3312 10.7727 72.4936 10.4237 71.5291 10.4237H69.7017V17.6193H71.5481ZM79.7355 8.72948C79.7355 8.4376 79.7419 8.22186 79.7546 8.08226C79.78 7.92997 79.8434 7.75865 79.9449 7.56829C80.1226 7.22564 80.6175 7.05432 81.4297 7.05432C82.3181 7.05432 82.8448 7.2891 83.0097 7.75865C83.0732 7.97439 83.1049 8.30435 83.1049 8.74852V19.3325C83.1049 19.6371 83.0922 19.8592 83.0668 19.9988C83.0542 20.1384 82.997 20.3034 82.8955 20.4937C82.7178 20.8364 82.2229 21.0077 81.4107 21.0077C80.5224 21.0077 80.002 20.7666 79.8498 20.2843C79.7736 20.0813 79.7355 19.7577 79.7355 19.3135V8.72948ZM93.3431 17.3528L93.6858 17.1053C94.1173 16.8515 94.4219 16.7246 94.5995 16.7246C94.9929 16.7246 95.4181 17.0799 95.8749 17.7906C96.1541 18.2348 96.2937 18.5901 96.2937 18.8566C96.2937 19.1231 96.2049 19.3452 96.0272 19.5229C95.8622 19.7006 95.6655 19.8592 95.4371 19.9988C95.2087 20.1384 94.9866 20.2716 94.7708 20.3985C94.5678 20.5254 94.1427 20.6904 93.4954 20.8935C92.8482 21.0965 92.22 21.1981 91.6109 21.1981C91.0144 21.1981 90.4053 21.1219 89.7834 20.9696C89.1743 20.8046 88.5397 20.5381 87.8798 20.1701C87.2326 19.7894 86.6488 19.3325 86.1285 18.7995C85.6082 18.2538 85.1767 17.5622 84.8341 16.7246C84.5041 15.8743 84.3391 14.9542 84.3391 13.9644C84.3391 12.9745 84.5041 12.0798 84.8341 11.2803C85.164 10.4681 85.5828 9.80184 86.0904 9.28153C86.6108 8.74852 87.2009 8.30435 87.8608 7.94901C89.1045 7.26372 90.3545 6.92107 91.6109 6.92107C92.2073 6.92107 92.8101 7.01625 93.4193 7.20661C94.0411 7.38428 94.5107 7.56829 94.828 7.75865L95.2848 8.02515C95.5132 8.16475 95.6909 8.27897 95.8178 8.3678C96.1478 8.63431 96.3128 8.93888 96.3128 9.28153C96.3128 9.61149 96.1795 9.96048 95.913 10.3285C95.4181 11.0138 94.9739 11.3564 94.5805 11.3564C94.3521 11.3564 94.0284 11.2169 93.6097 10.9377C93.0766 10.5062 92.366 10.2904 91.4776 10.2904C90.6527 10.2904 89.8405 10.576 89.041 11.1471C88.6603 11.4262 88.343 11.8197 88.0892 12.3273C87.8354 12.8349 87.7085 13.4123 87.7085 14.0596C87.7085 14.6941 87.8354 15.2652 88.0892 15.7728C88.343 16.2804 88.6666 16.6802 89.0601 16.9721C89.8342 17.5305 90.64 17.8096 91.4776 17.8096C91.871 17.8096 92.2391 17.7589 92.5817 17.6574C92.937 17.5558 93.1909 17.4543 93.3431 17.3528ZM104.093 6.883C105.971 6.883 107.602 7.56194 108.985 8.91984C110.369 10.2777 111.06 11.9656 111.06 13.9834C111.06 15.9885 110.4 17.7018 109.08 19.1231C107.761 20.5318 106.136 21.2361 104.207 21.2361C102.278 21.2361 100.635 20.5381 99.2769 19.1422C97.9317 17.7462 97.2591 16.0837 97.2591 14.1547C97.2591 13.1014 97.4494 12.1179 97.8301 11.2042C98.2109 10.2777 98.7185 9.50362 99.353 8.88177C99.9875 8.25993 100.717 7.77134 101.542 7.416C102.367 7.06066 103.217 6.883 104.093 6.883ZM100.628 14.0596C100.628 15.189 100.99 16.1091 101.713 16.8198C102.45 17.5178 103.268 17.8668 104.169 17.8668C105.07 17.8668 105.882 17.5241 106.606 16.8388C107.329 16.1535 107.691 15.2334 107.691 14.0786C107.691 12.9237 107.323 11.9973 106.587 11.2993C105.863 10.6014 105.051 10.2524 104.15 10.2524C103.249 10.2524 102.437 10.6077 101.713 11.3184C100.99 12.0164 100.628 12.9301 100.628 14.0596ZM121.309 7.64443C121.436 7.416 121.62 7.26372 121.861 7.18757C122.102 7.11143 122.4 7.07335 122.756 7.07335C123.124 7.07335 123.416 7.10508 123.631 7.16853C123.86 7.23199 124.025 7.30813 124.126 7.39697C124.24 7.4858 124.323 7.61905 124.374 7.79672C124.45 7.99977 124.488 8.32338 124.488 8.76756V19.3325C124.488 19.6371 124.475 19.8592 124.45 19.9988C124.437 20.1384 124.38 20.3034 124.279 20.4937C124.101 20.8364 123.606 21.0077 122.794 21.0077C122.299 21.0077 121.956 20.9696 121.766 20.8935C121.575 20.8173 121.417 20.6968 121.29 20.5318C118.434 16.7246 116.556 14.2372 115.655 13.0697V19.3325C115.655 19.6371 115.643 19.8592 115.617 19.9988C115.604 20.1384 115.547 20.3034 115.446 20.4937C115.268 20.8364 114.773 21.0077 113.961 21.0077C113.174 21.0077 112.692 20.8364 112.514 20.4937C112.413 20.3034 112.349 20.132 112.324 19.9797C112.311 19.8275 112.305 19.6054 112.305 19.3135V8.69141C112.305 8.20917 112.362 7.86018 112.476 7.64443C112.603 7.416 112.787 7.26372 113.028 7.18757C113.269 7.11143 113.58 7.07335 113.961 7.07335C114.342 7.07335 114.64 7.11143 114.856 7.18757C115.084 7.25102 115.243 7.32717 115.332 7.416C115.382 7.45407 115.528 7.61905 115.769 7.91094C118.447 11.5532 120.237 13.958 121.138 15.1256V8.69141C121.138 8.20917 121.195 7.86018 121.309 7.64443ZM135.01 7.64443C135.137 7.416 135.321 7.26372 135.562 7.18757C135.803 7.11143 136.101 7.07335 136.456 7.07335C136.824 7.07335 137.116 7.10508 137.332 7.16853C137.56 7.23199 137.725 7.30813 137.827 7.39697C137.941 7.4858 138.024 7.61905 138.074 7.79672C138.151 7.99977 138.189 8.32338 138.189 8.76756V19.3325C138.189 19.6371 138.176 19.8592 138.151 19.9988C138.138 20.1384 138.081 20.3034 137.979 20.4937C137.802 20.8364 137.307 21.0077 136.494 21.0077C135.999 21.0077 135.657 20.9696 135.466 20.8935C135.276 20.8173 135.117 20.6968 134.991 20.5318C132.135 16.7246 130.257 14.2372 129.356 13.0697V19.3325C129.356 19.6371 129.343 19.8592 129.318 19.9988C129.305 20.1384 129.248 20.3034 129.147 20.4937C128.969 20.8364 128.474 21.0077 127.662 21.0077C126.875 21.0077 126.393 20.8364 126.215 20.4937C126.113 20.3034 126.05 20.132 126.025 19.9797C126.012 19.8275 126.006 19.6054 126.006 19.3135V8.69141C126.006 8.20917 126.063 7.86018 126.177 7.64443C126.304 7.416 126.488 7.26372 126.729 7.18757C126.97 7.11143 127.281 7.07335 127.662 7.07335C128.042 7.07335 128.341 7.11143 128.556 7.18757C128.785 7.25102 128.943 7.32717 129.032 7.416C129.083 7.45407 129.229 7.61905 129.47 7.91094C132.148 11.5532 133.937 13.958 134.838 15.1256V8.69141C134.838 8.20917 134.895 7.86018 135.01 7.64443ZM143.076 17.6383H148.939C149.231 17.6383 149.446 17.651 149.586 17.6764C149.738 17.6891 149.91 17.7462 150.1 17.8477C150.443 18.0254 150.614 18.5203 150.614 19.3325C150.614 20.2209 150.379 20.7412 149.91 20.8935C149.694 20.9696 149.364 21.0077 148.92 21.0077H141.381C140.493 21.0077 139.973 20.7666 139.821 20.2843C139.744 20.0813 139.706 19.7577 139.706 19.3135V8.72948C139.706 8.08226 139.827 7.64443 140.068 7.416C140.309 7.17488 140.766 7.05432 141.439 7.05432H148.939C149.231 7.05432 149.446 7.06701 149.586 7.09239C149.738 7.10508 149.91 7.16219 150.1 7.26371C150.443 7.44138 150.614 7.93632 150.614 8.74852C150.614 9.63687 150.379 10.1572 149.91 10.3095C149.694 10.3856 149.364 10.4237 148.92 10.4237H143.076V12.3463H146.845C147.137 12.3463 147.352 12.359 147.492 12.3844C147.644 12.3971 147.816 12.4542 148.006 12.5557C148.349 12.7334 148.52 13.2283 148.52 14.0405C148.52 14.9289 148.279 15.4492 147.797 15.6015C147.581 15.6776 147.251 15.7157 146.807 15.7157H143.076V17.6383ZM160.564 17.3528L160.907 17.1053C161.338 16.8515 161.643 16.7246 161.82 16.7246C162.214 16.7246 162.639 17.0799 163.096 17.7906C163.375 18.2348 163.515 18.5901 163.515 18.8566C163.515 19.1231 163.426 19.3452 163.248 19.5229C163.083 19.7006 162.886 19.8592 162.658 19.9988C162.429 20.1384 162.207 20.2716 161.992 20.3985C161.789 20.5254 161.363 20.6904 160.716 20.8935C160.069 21.0965 159.441 21.1981 158.832 21.1981C158.235 21.1981 157.626 21.1219 157.004 20.9696C156.395 20.8046 155.761 20.5381 155.101 20.1701C154.453 19.7894 153.87 19.3325 153.349 18.7995C152.829 18.2538 152.398 17.5622 152.055 16.7246C151.725 15.8743 151.56 14.9542 151.56 13.9644C151.56 12.9745 151.725 12.0798 152.055 11.2803C152.385 10.4681 152.804 9.80184 153.311 9.28153C153.832 8.74852 154.422 8.30435 155.082 7.94901C156.325 7.26372 157.575 6.92107 158.832 6.92107C159.428 6.92107 160.031 7.01625 160.64 7.20661C161.262 7.38428 161.731 7.56829 162.049 7.75865L162.506 8.02515C162.734 8.16475 162.912 8.27897 163.039 8.3678C163.369 8.63431 163.534 8.93888 163.534 9.28153C163.534 9.61149 163.4 9.96048 163.134 10.3285C162.639 11.0138 162.195 11.3564 161.801 11.3564C161.573 11.3564 161.249 11.2169 160.83 10.9377C160.297 10.5062 159.587 10.2904 158.698 10.2904C157.874 10.2904 157.061 10.576 156.262 11.1471C155.881 11.4262 155.564 11.8197 155.31 12.3273C155.056 12.8349 154.929 13.4123 154.929 14.0596C154.929 14.6941 155.056 15.2652 155.31 15.7728C155.564 16.2804 155.887 16.6802 156.281 16.9721C157.055 17.5305 157.861 17.8096 158.698 17.8096C159.092 17.8096 159.46 17.7589 159.803 17.6574C160.158 17.5558 160.412 17.4543 160.564 17.3528ZM165.679 7.03528H176.263C176.669 7.03528 176.967 7.08605 177.158 7.18757C177.348 7.27641 177.475 7.42235 177.539 7.6254C177.602 7.82845 177.634 8.09495 177.634 8.42491C177.634 8.75487 177.602 9.02137 177.539 9.22442C177.475 9.41478 177.367 9.54803 177.215 9.62418C176.986 9.73839 176.663 9.7955 176.244 9.7955H172.608V19.3706C172.608 19.6625 172.596 19.8782 172.57 20.0178C172.557 20.1574 172.5 20.3224 172.399 20.5128C172.31 20.6904 172.145 20.8173 171.904 20.8935C171.663 20.9696 171.345 21.0077 170.952 21.0077C170.559 21.0077 170.241 20.9696 170 20.8935C169.772 20.8173 169.607 20.6904 169.505 20.5128C169.417 20.3224 169.359 20.1574 169.334 20.0178C169.321 19.8655 169.315 19.6434 169.315 19.3516V9.7955H165.66C165.254 9.7955 164.956 9.75108 164.765 9.66225C164.575 9.56072 164.448 9.40844 164.385 9.20538C164.321 9.00233 164.289 8.73583 164.289 8.40587C164.289 8.07592 164.321 7.81576 164.385 7.6254C164.448 7.42235 164.556 7.28275 164.708 7.20661C164.937 7.09239 165.26 7.03528 165.679 7.03528Z" fill="#FBF8F3"/>
</svg>
