<?xml version="1.0" standalone="no"?>
<!DOCTYPE svg PUBLIC "-//W3C//DTD SVG 20010904//EN"
 "http://www.w3.org/TR/2001/REC-SVG-20010904/DTD/svg10.dtd">
<svg version="1.0" xmlns="http://www.w3.org/2000/svg"
 width="1024.000000pt" height="1024.000000pt" viewBox="0 0 1024.000000 1024.000000"
 preserveAspectRatio="xMidYMid meet">

<g transform="translate(0.000000,1024.000000) scale(0.100000,-0.100000)"
fill="#000000" stroke="none">
<path d="M0 10031 l0 -208 28 1 c20 1 26 5 24 20 -2 11 1 15 7 11 6 -3 25 1
43 9 17 9 37 16 45 16 7 0 13 5 13 10 0 6 11 8 25 4 17 -4 27 -2 30 8 4 11 17
14 46 11 27 -3 39 -1 34 6 -3 7 2 11 14 11 11 0 23 -5 27 -11 3 -6 15 -9 25
-6 11 3 19 1 19 -4 0 -5 11 -14 25 -19 14 -5 25 -14 25 -19 0 -6 16 -18 35
-27 19 -9 35 -23 35 -31 0 -8 -4 -11 -10 -8 -6 3 -7 -1 -4 -9 3 -9 12 -16 20
-16 8 0 14 -7 14 -15 0 -8 5 -15 10 -15 7 0 7 -6 0 -19 -10 -20 -4 -51 12 -62
26 -17 28 -124 3 -162 -9 -15 -15 -33 -12 -41 3 -8 -1 -13 -11 -12 -9 0 -16
-5 -15 -11 2 -7 -3 -13 -10 -13 -9 0 -9 -2 1 -9 9 -5 2 -10 -24 -14 -21 -4
-43 -2 -50 4 -14 12 -38 3 -29 -11 7 -11 -30 -19 -46 -9 -8 5 -22 3 -34 -5
-24 -16 -158 -30 -150 -15 4 5 -1 9 -9 9 -9 0 -16 8 -16 18 0 22 -66 58 -73
39 -3 -9 -9 -8 -22 3 -14 11 -19 12 -22 2 -3 -6 -9 -10 -14 -7 -5 4 -9 -262
-9 -626 l0 -631 40 4 c22 2 40 0 40 -5 0 -17 71 -77 119 -101 42 -22 51 -32
67 -77 10 -28 24 -54 31 -56 7 -3 10 -9 7 -14 -3 -5 2 -9 11 -9 8 0 18 -7 22
-16 9 -23 61 -72 84 -79 11 -4 19 -13 19 -21 0 -8 4 -14 10 -14 5 0 7 -8 4
-17 -5 -15 -4 -16 5 -3 10 13 16 10 40 -17 21 -22 28 -39 25 -55 l-5 -23 14
24 c13 22 13 27 -1 40 -14 15 -14 16 8 19 l24 4 -24 13 c-23 12 -23 13 11 11
19 0 34 4 34 9 0 6 -6 9 -13 7 -8 -2 -11 1 -7 8 4 6 15 8 26 5 14 -5 17 -3 13
9 -6 16 10 23 19 9 2 -5 2 -3 1 4 -3 14 20 35 30 26 3 -4 12 8 18 25 7 18 20
35 30 38 10 3 18 12 18 21 0 10 6 13 17 9 10 -4 15 -4 11 -1 -11 12 72 85 97
85 14 0 24 3 23 8 -3 16 15 42 29 42 9 0 29 15 45 34 20 23 40 35 68 40 27 4
41 12 45 26 4 11 10 18 15 15 4 -3 66 -5 136 -5 124 0 143 0 209 -1 29 0 29 0
10 -16 -22 -17 -15 -16 67 18 46 19 58 29 58 47 0 12 -3 22 -7 22 -5 1 -28 19
-53 41 -46 42 -37 40 48 -11 35 -21 57 -18 48 6 -4 12 3 14 34 12 31 -1 40 -6
40 -20 0 -13 8 -18 31 -18 16 0 28 4 24 9 -3 5 -1 12 5 16 19 12 0 26 -21 15
-13 -7 -19 -7 -19 0 0 5 7 10 16 10 14 0 15 2 3 17 -13 15 -12 15 7 5 16 -8
24 -8 33 1 10 9 12 9 9 -3 -2 -11 7 -16 31 -18 18 -2 31 1 27 6 -3 5 7 9 22
10 80 1 152 38 152 78 0 14 -4 22 -10 19 -9 -6 21 70 33 82 4 3 7 -1 7 -10 0
-31 37 -18 64 22 15 21 36 41 46 44 10 2 23 15 30 27 11 20 10 22 -5 16 -17
-6 -17 -5 0 21 10 16 27 36 39 46 16 13 17 16 4 11 -18 -6 -19 0 -3 81 4 19 3
19 -10 2 -7 -10 -19 -20 -27 -21 -37 -6 -77 -38 -83 -66 -5 -23 -12 -30 -30
-30 -18 0 -29 -10 -41 -35 -9 -20 -18 -34 -20 -32 -6 6 20 67 28 67 4 0 8 7 8
15 0 9 9 34 20 55 19 37 19 40 3 40 -12 1 -9 6 12 17 39 20 126 104 123 118
-2 5 9 26 25 46 15 20 27 41 27 46 0 6 21 32 48 58 29 29 42 49 35 52 -15 6
-17 33 -3 33 6 0 10 -4 10 -10 0 -17 20 -11 45 13 20 19 63 57 144 126 34 30
18 38 -17 10 -16 -13 -42 -33 -57 -44 -16 -11 -44 -35 -64 -52 -50 -45 -57
-41 -22 10 42 62 25 78 -24 22 -21 -25 -42 -45 -47 -45 -16 0 -8 25 13 38 12
7 18 16 15 19 -10 10 59 58 140 97 17 8 34 24 37 36 3 11 13 20 22 20 9 0 13
5 10 10 -3 6 -2 10 4 10 6 0 8 6 5 13 -3 8 6 18 21 25 14 7 23 17 20 22 -3 6
-1 10 6 10 7 0 10 2 7 5 -8 9 -55 -12 -78 -35 -20 -20 -47 -19 -34 2 12 18
108 58 142 58 36 0 99 51 87 70 -4 6 5 10 19 10 14 0 26 5 26 10 0 6 7 10 16
10 11 0 15 6 11 20 -3 13 0 20 9 20 8 0 14 -4 14 -10 0 -23 19 -8 25 19 6 27
10 30 46 29 36 0 71 15 58 25 -2 2 -37 -4 -77 -14 -66 -17 -77 -17 -102 -4
-33 17 -164 24 -225 12 l-40 -8 30 17 c23 13 53 17 134 16 57 -1 101 1 98 4
-9 9 -70 44 -109 62 -21 9 -38 20 -38 25 0 8 66 -17 84 -32 13 -11 126 -55
141 -55 6 0 31 5 57 12 35 9 46 16 42 27 -5 11 1 15 24 15 22 0 41 11 71 41
22 23 38 45 35 50 -8 13 38 69 50 62 6 -3 0 6 -13 20 -33 36 -17 34 53 -8 66
-40 60 -42 151 34 57 47 82 55 42 13 -15 -16 -24 -32 -20 -36 5 -4 4 -6 -2 -5
-14 4 -77 -55 -69 -64 11 -10 42 -8 49 3 3 5 0 7 -8 4 -8 -3 -18 -1 -21 4 -5
8 9 16 49 27 6 1 28 14 49 29 21 14 54 30 73 35 20 6 44 18 54 27 15 14 22 15
31 6 9 -9 9 -12 -2 -12 -8 0 -44 -15 -80 -32 -80 -40 -75 -37 -67 -45 4 -3 26
2 49 12 76 31 83 34 108 40 14 4 -2 -10 -35 -29 -33 -19 -58 -36 -55 -37 3 -1
45 -3 93 -4 49 -1 92 -6 95 -11 4 -6 16 -14 26 -17 10 -4 17 -10 14 -12 -3 -3
-24 2 -48 10 -52 19 -53 19 -46 0 4 -11 -2 -15 -22 -14 -24 0 -25 1 -7 9 16 7
11 9 -20 9 -74 1 -179 -19 -207 -39 -15 -11 -38 -20 -52 -20 -35 0 -76 -20
-76 -38 0 -18 83 -10 190 18 100 26 131 24 50 -4 -36 -12 -74 -27 -85 -33 -11
-6 -47 -17 -80 -23 -33 -7 -76 -15 -95 -19 -19 -4 -54 -20 -77 -34 -31 -20
-43 -23 -43 -13 0 8 6 17 13 20 6 3 -6 3 -27 1 -38 -5 -65 -27 -66 -54 0 -9 7
-11 24 -7 23 6 23 4 13 -19 -7 -14 -17 -25 -23 -25 -7 0 -14 -9 -17 -20 -6
-22 0 -25 23 -10 9 6 17 5 21 -2 4 -7 13 -3 25 11 26 30 84 48 95 30 5 -8 9
-9 9 -4 0 6 5 3 10 -5 7 -12 12 -12 22 -2 6 6 21 12 32 12 27 0 106 26 175 58
40 18 58 22 70 15 9 -6 31 -8 50 -5 44 6 34 -10 -22 -38 -96 -47 -145 -80
-120 -80 20 0 2 -37 -23 -49 -23 -10 -26 -15 -28 -51 -1 -10 -10 -14 -28 -12
-22 3 -30 -2 -39 -22 -7 -14 -15 -26 -19 -26 -4 0 -13 -15 -20 -32 -6 -18 -18
-46 -27 -61 -15 -28 -15 -28 14 -21 15 3 38 13 50 20 12 8 30 14 39 14 28 0
-1 -25 -43 -38 -25 -8 -57 -33 -93 -73 -30 -33 -75 -80 -98 -104 -24 -24 -41
-48 -38 -53 3 -6 -2 -16 -12 -23 -15 -13 -16 -12 -3 4 8 10 9 17 3 17 -13 0
-37 -40 -25 -40 4 -1 -5 -12 -22 -25 -18 -15 -24 -25 -15 -25 8 0 42 23 75 50
33 28 63 50 67 50 18 0 6 -21 -16 -32 -14 -6 -27 -17 -30 -24 -3 -8 8 -5 30 8
21 12 34 28 34 40 0 13 5 18 13 15 15 -5 142 116 142 136 1 7 6 11 12 10 12
-3 76 68 68 75 -2 3 -23 -7 -47 -21 -58 -34 -122 -102 -113 -118 6 -8 4 -10
-5 -4 -7 4 -16 2 -21 -6 -4 -7 -11 -11 -14 -7 -4 3 14 28 39 55 25 26 46 50
46 53 0 3 23 19 50 35 28 16 50 33 50 37 0 4 11 8 25 8 14 0 29 8 35 20 6 11
15 20 21 20 6 0 5 -8 -2 -21 -13 -26 7 -45 28 -27 10 8 12 7 7 -6 -3 -9 -16
-22 -28 -28 -19 -10 -20 -9 -8 5 12 14 10 15 -14 13 -22 -2 -27 -8 -29 -34 -2
-18 2 -32 7 -32 6 0 5 -7 -2 -15 -7 -9 -18 -14 -24 -12 -5 2 -19 -15 -30 -37
-11 -23 -29 -50 -39 -61 -16 -18 -86 -114 -155 -214 -13 -19 -31 -41 -41 -50
-10 -9 -31 -34 -46 -56 -18 -26 4 -7 61 50 49 50 100 105 112 123 13 17 28 32
34 32 12 0 37 30 38 45 0 5 -5 4 -12 -3 -7 -7 -19 -12 -27 -12 -11 0 -9 6 9
19 13 11 28 17 33 14 5 -3 24 14 44 36 19 23 38 40 41 37 3 -3 27 10 55 30 35
25 52 32 57 24 11 -17 60 17 60 41 0 22 18 35 31 22 6 -6 -3 -26 -23 -54 -18
-24 -47 -66 -65 -94 -18 -27 -39 -58 -48 -67 -10 -9 -14 -21 -11 -26 3 -6 3
-12 -2 -14 -4 -1 -18 -20 -31 -41 -12 -20 -26 -35 -31 -32 -4 3 -20 -15 -34
-40 -15 -25 -30 -45 -35 -45 -11 0 -39 -67 -47 -112 -4 -25 -2 -38 5 -38 6 0
11 6 11 14 0 8 4 16 8 18 8 3 63 113 83 166 9 23 39 31 39 10 0 -6 8 -3 20 7
11 10 18 21 15 24 -5 9 6 24 29 36 10 6 27 32 38 59 19 49 67 120 75 112 3 -2
-5 -17 -17 -33 -20 -28 -52 -105 -45 -111 3 -3 31 11 92 48 46 27 51 6 6 -24
-21 -15 -34 -26 -30 -26 4 0 3 -9 -3 -20 -14 -26 12 -39 37 -19 14 12 15 11 8
-11 l-7 -25 23 24 c17 16 20 25 12 28 -20 7 -15 23 6 23 11 0 28 13 37 30 22
36 48 50 39 19 -6 -19 -5 -20 14 -9 29 15 47 3 28 -18 -8 -10 -18 -30 -21 -47
-7 -28 -7 -29 12 -12 10 9 22 17 26 17 4 0 24 11 44 25 20 14 54 30 75 36 20
5 37 14 37 19 0 6 14 10 30 10 19 0 30 -5 30 -14 0 -25 -12 -46 -26 -46 -21 0
-65 -42 -59 -57 2 -8 -5 -17 -19 -23 -13 -5 -39 -30 -57 -56 -31 -46 -25 -50
18 -11 12 10 19 25 16 33 -3 8 1 14 10 14 9 0 24 3 34 6 17 5 17 5 0 -9 -14
-12 -15 -16 -3 -26 10 -9 16 -8 26 4 7 8 24 15 39 15 26 0 26 0 -11 -35 -38
-34 -45 -49 -29 -59 5 -3 14 8 21 24 14 35 16 35 37 15 24 -25 52 -9 130 71
40 41 76 74 80 74 4 0 18 12 31 28 15 17 22 20 18 10 -7 -22 7 -23 24 -3 7 9
15 13 18 11 7 -8 -48 -97 -90 -145 -21 -25 -38 -54 -38 -68 0 -13 -7 -26 -15
-29 -8 -4 -15 -15 -15 -26 0 -10 -12 -30 -26 -43 -14 -13 -24 -30 -21 -37 4
-12 112 91 178 172 19 22 29 29 29 19 0 -9 -7 -22 -15 -29 -8 -7 -15 -19 -15
-27 0 -8 16 2 38 24 20 21 37 44 37 51 0 8 11 21 25 30 l25 16 -20 -24 -20
-24 30 22 c61 46 76 55 81 49 4 -3 -19 -29 -49 -58 -31 -29 -54 -56 -52 -59 3
-4 -13 -24 -35 -44 -22 -20 -40 -32 -40 -26 0 6 -5 8 -11 5 -6 -4 -8 -14 -5
-22 4 -10 2 -13 -7 -10 -8 3 -13 -3 -13 -14 0 -11 4 -19 8 -19 4 0 8 -7 8 -16
0 -10 5 -14 15 -10 10 3 18 -1 22 -11 7 -18 -50 -75 -102 -103 -16 -8 -47 -34
-68 -57 -22 -24 -45 -43 -51 -43 -16 0 -47 -55 -41 -72 3 -7 -6 -18 -20 -24
-17 -9 -25 -9 -28 -1 -2 6 -14 -11 -28 -38 -19 -39 -32 -51 -64 -62 l-39 -13
32 33 c18 18 32 42 32 53 0 11 5 25 12 32 22 22 -3 12 -48 -19 -25 -17 -50
-39 -57 -50 -6 -10 -16 -19 -21 -19 -5 0 -1 10 10 22 l19 22 -25 -16 c-14 -9
-24 -21 -23 -26 1 -5 -10 -12 -25 -16 -15 -3 -60 -30 -101 -61 -40 -30 -78
-52 -83 -49 -5 3 -20 -7 -34 -23 -18 -20 -20 -29 -10 -31 11 -2 11 -8 2 -27
-10 -23 -28 -35 -25 -17 4 23 -2 42 -12 37 -6 -4 -8 -14 -5 -22 5 -13 -72 -94
-110 -116 -8 -4 -14 -15 -14 -23 0 -8 -7 -17 -15 -20 -8 -3 -17 -15 -21 -26
-5 -16 -8 -17 -14 -7 -6 8 -13 10 -22 3 -12 -8 1 4 40 37 29 24 0 20 -33 -5
-56 -43 -41 -22 37 51 40 38 109 102 153 143 44 42 116 106 160 143 44 37 105
91 135 122 30 30 58 55 61 55 3 0 20 13 37 28 l32 29 -22 19 c-12 10 -18 14
-14 7 4 -7 -4 -18 -21 -27 -15 -8 -55 -42 -88 -77 -120 -125 -189 -189 -202
-189 -7 0 -13 -5 -13 -11 0 -18 -90 -97 -146 -129 -54 -30 -85 -60 -48 -46 15
6 17 5 7 -5 -9 -9 -16 -10 -24 -2 -7 7 -2 20 18 43 19 23 24 35 15 38 -17 5 4
32 25 32 8 0 13 5 11 11 -4 11 63 85 111 125 l24 19 -13 -24 c-12 -22 -11 -22
23 5 20 15 41 37 47 49 6 11 26 29 43 40 33 21 66 69 55 81 -4 3 -33 -17 -65
-45 -31 -28 -60 -51 -64 -51 -15 0 -20 21 -9 35 10 12 9 15 -4 15 -26 0 -18
14 19 34 49 27 36 32 -19 7 -48 -21 -56 -19 -31 9 11 12 13 24 7 39 l-8 22
-27 -25 c-16 -14 -33 -26 -39 -26 -6 0 -19 -7 -29 -16 -9 -8 -27 -16 -40 -16
-13 -1 -31 -6 -39 -12 -8 -6 -4 3 10 19 28 32 29 33 -64 -32 -26 -18 -53 -33
-60 -33 -7 0 -21 -9 -32 -21 -10 -12 -46 -35 -79 -51 -54 -28 -58 -28 -40 -8
15 17 122 105 154 126 9 7 -12 23 -22 17 -13 -9 -30 -11 -103 -15 -27 -2 -62
-11 -77 -21 -24 -16 -30 -16 -48 -3 l-20 14 22 21 c13 12 24 32 24 44 0 13 7
23 18 25 16 3 17 1 8 -17 -8 -14 -8 -22 0 -26 6 -5 4 -12 -8 -22 -10 -8 -13
-13 -8 -10 57 21 75 30 75 38 0 6 -8 5 -19 -1 -31 -16 -36 -12 -15 13 26 30
54 82 54 101 0 8 6 19 13 23 30 19 62 143 36 143 -4 0 -20 -29 -35 -65 -27
-62 -43 -80 -45 -52 0 6 -13 -14 -28 -46 -15 -32 -31 -57 -37 -55 -5 2 -18
-15 -29 -37 -11 -23 -28 -53 -37 -68 -10 -14 -18 -33 -18 -42 0 -8 -4 -15 -9
-15 -9 0 -29 -42 -36 -77 -2 -13 -9 -31 -15 -40 -11 -17 -11 -17 -6 0 3 10 9
44 13 74 6 55 6 55 -18 48 -22 -7 -22 -6 -10 9 8 9 20 15 27 12 19 -7 26 9 29
65 l3 49 -52 -55 c-65 -68 -76 -83 -76 -92 0 -9 -60 -26 -67 -19 -3 2 9 12 26
21 17 8 31 21 31 29 0 7 9 21 21 32 13 12 19 27 16 42 -4 19 4 30 39 55 24 17
44 35 44 39 0 5 -17 -4 -37 -20 -39 -30 -84 -56 -116 -66 -31 -10 -7 -29 29
-23 23 4 32 2 28 -5 -4 -6 -25 -8 -50 -5 -55 6 -104 -16 -166 -76 -27 -25 -48
-48 -48 -51 0 -3 17 -6 38 -7 33 0 35 -1 14 -10 -13 -5 -49 -13 -80 -18 -44
-6 -52 -6 -37 3 11 6 33 26 50 44 16 19 49 53 72 77 l43 43 -31 6 c-20 4 -44
0 -65 -10 -19 -9 -38 -14 -41 -10 -3 3 -1 6 5 6 7 0 12 4 12 10 0 5 -16 2 -35
-7 -19 -9 -35 -20 -35 -24 0 -8 -103 -78 -205 -139 -41 -24 -77 -39 -88 -36
-19 5 -125 -69 -126 -88 -1 -5 -14 -21 -30 -35 -24 -21 -30 -36 -34 -78 -3
-34 0 -51 7 -50 6 1 12 -12 14 -30 3 -28 -1 -33 -23 -39 -19 -5 -23 -9 -15
-19 8 -10 4 -23 -15 -50 -14 -21 -25 -43 -25 -49 0 -6 -3 -22 -5 -36 -5 -22
-4 -23 5 -5 11 21 9 -9 -5 -95 -8 -44 79 128 90 180 14 65 60 118 133 156 25
13 26 -8 2 -26 -14 -10 -21 -22 -17 -26 4 -4 0 -18 -8 -31 -9 -13 -12 -23 -8
-23 7 0 33 36 58 82 5 10 15 18 22 18 7 0 13 6 13 14 0 19 57 59 71 51 6 -5 4
-11 -7 -19 -23 -17 -29 -67 -7 -59 13 5 13 2 5 -14 -6 -11 -18 -26 -27 -33
-13 -11 -15 -10 -9 6 6 18 5 17 -9 -1 -9 -11 -17 -28 -17 -37 0 -10 -14 -48
-31 -85 -17 -38 -35 -78 -40 -90 -5 -13 -13 -23 -19 -23 -14 0 -13 12 6 49 9
18 14 35 11 38 -3 3 -17 -18 -32 -46 -14 -28 -56 -97 -92 -154 -90 -137 -172
-321 -109 -244 20 25 24 26 30 12 13 -34 6 -82 -14 -100 -11 -10 -20 -28 -20
-40 0 -14 -13 -33 -33 -48 l-34 -26 17 71 c26 113 3 162 -31 66 -9 -24 -23
-59 -32 -78 -10 -18 -17 -39 -17 -46 0 -7 -7 -34 -16 -59 -17 -51 -22 -79 -29
-180 -3 -38 -10 -85 -16 -102 -6 -18 -8 -37 -5 -42 15 -24 25 -208 13 -234 -5
-12 -4 -16 4 -15 18 4 26 -47 19 -129 -3 -40 -2 -73 1 -73 3 0 11 -64 17 -142
6 -79 17 -181 26 -228 9 -47 13 -92 11 -101 -6 -19 13 -75 22 -66 3 4 17 -6
29 -21 19 -21 24 -23 24 -9 0 22 19 21 46 -1 20 -17 27 -39 40 -130 4 -28 10
-39 15 -31 5 9 10 5 14 -13 4 -16 12 -25 20 -22 8 4 13 -3 12 -18 0 -13 3 -32
7 -43 4 -11 -17 7 -47 40 -31 33 -58 73 -62 90 -7 29 -7 30 -17 7 -9 -17 -8
-26 5 -40 26 -28 20 -38 -6 -13 -51 47 -76 -10 -58 -132 17 -116 19 -128 36
-217 9 -47 18 -107 19 -135 2 -51 18 -117 39 -168 12 -27 24 -31 79 -27 22 1
28 -4 33 -27 4 -15 9 -39 12 -53 l6 -25 13 30 c9 19 13 66 13 130 -1 107 17
238 32 229 5 -3 9 -12 9 -20 0 -8 5 -14 10 -14 6 0 10 -15 10 -33 0 -18 5 -38
12 -45 7 -7 13 -69 15 -174 2 -89 8 -165 12 -168 4 -3 16 -30 26 -60 20 -61
41 -119 60 -165 7 -16 18 -49 24 -71 16 -59 64 -104 112 -104 21 0 44 -3 53
-6 27 -11 36 35 20 107 -30 136 -34 164 -39 267 -5 91 -16 225 -20 242 -2 10
-19 215 -19 245 -1 17 -4 35 -7 40 -3 6 -5 26 -3 45 1 19 -1 39 -4 45 -6 9
-10 33 -13 75 -1 8 2 56 5 105 4 50 8 113 10 140 4 55 16 125 24 139 3 5 6 25
8 45 2 19 8 47 13 61 13 34 46 184 66 305 9 55 23 123 31 151 8 29 12 60 8 70
-4 14 -3 16 4 5 5 -7 15 -10 21 -7 8 5 7 14 -4 29 -21 30 -19 40 7 32 17 -6
20 -4 14 10 -3 10 -1 24 6 32 9 11 9 16 -1 23 -11 6 -11 14 0 44 11 29 11 41
1 56 -10 16 -9 26 5 55 15 32 15 37 3 46 -13 8 -13 10 0 19 12 7 13 15 4 39
-8 19 -8 33 -2 39 13 13 0 74 -14 66 -11 -7 -9 54 3 71 10 16 18 55 9 50 -13
-8 -22 63 -10 84 5 11 10 30 10 43 -1 19 -4 17 -21 -14 -11 -21 -22 -38 -25
-38 -2 0 0 9 6 19 5 11 10 34 10 51 0 17 7 47 17 68 9 20 15 42 14 48 -1 7 15
15 34 18 24 5 39 14 44 28 14 39 23 0 22 -95 0 -51 3 -107 7 -126 l8 -35 22
35 c28 44 28 32 0 -26 -18 -36 -20 -47 -9 -58 10 -10 11 -9 6 5 -4 11 2 27 19
44 23 26 25 26 19 6 -4 -16 -1 -22 11 -22 9 0 16 -4 16 -10 0 -25 31 -7 37 20
6 31 18 32 18 3 0 -9 6 -18 13 -20 17 -6 15 27 -3 51 -19 26 -19 41 2 66 22
25 39 25 53 1 11 -21 9 -89 -3 -108 -5 -7 -1 -9 13 -6 11 3 20 0 20 -6 0 -6 5
-11 10 -11 7 0 7 6 1 18 -13 25 -11 70 5 83 11 9 14 8 14 -5 0 -16 1 -16 16
-2 8 9 27 16 41 16 15 0 23 5 20 13 -2 6 -12 11 -21 11 -19 -2 -22 12 -3 19 9
4 9 7 -1 15 -10 7 -10 14 3 38 8 16 15 38 15 49 -1 19 -1 19 -14 2 -12 -15
-14 -16 -20 -2 -5 15 27 35 57 35 7 0 36 11 65 25 l53 25 -7 -48 c-3 -26 -14
-65 -24 -87 -9 -22 -23 -55 -30 -72 -7 -18 -16 -30 -21 -27 -5 3 -9 -1 -9 -9
0 -8 -9 -22 -21 -33 -11 -10 -25 -26 -30 -36 -8 -14 -4 -17 21 -16 17 1 35 8
40 17 7 13 10 11 19 -12 15 -38 40 -45 61 -17 10 13 15 31 13 40 -5 17 20 30
60 30 14 0 17 -5 12 -20 -5 -15 -2 -20 13 -20 11 0 25 6 31 14 7 8 21 12 31 9
12 -3 22 1 26 11 4 11 13 14 30 10 14 -4 24 -2 24 5 0 6 6 8 14 5 9 -4 18 7
27 33 7 21 14 33 16 27 2 -7 13 -10 23 -7 16 4 20 0 20 -20 0 -29 18 -46 30
-27 6 9 12 10 26 1 11 -6 13 -11 7 -11 -7 0 -13 -7 -13 -16 0 -12 7 -14 29 -9
22 5 32 2 41 -12 10 -16 10 -16 5 4 -9 32 20 44 57 25 24 -11 32 -12 38 -2 6
9 10 7 15 -9 3 -11 11 -21 16 -21 6 0 18 -7 27 -16 15 -15 17 -15 25 10 6 18
16 26 32 26 13 0 27 -4 30 -10 3 -5 14 -10 24 -10 23 0 70 -23 96 -47 11 -10
28 -17 38 -15 9 2 17 -1 17 -7 0 -6 -6 -11 -12 -11 -14 0 31 -39 46 -40 4 0 6
7 2 15 -3 9 0 15 8 15 8 0 21 3 30 6 11 4 19 -2 25 -18 5 -14 25 -32 43 -41
22 -11 39 -28 48 -52 15 -38 28 -44 100 -49 25 -1 55 -8 66 -14 17 -9 32 -8
70 5 27 9 55 20 62 26 6 5 12 5 12 1 0 -5 10 -15 21 -22 19 -12 24 -11 48 12
27 26 27 26 48 6 14 -12 23 -15 25 -8 4 12 16 8 63 -21 17 -11 38 -20 48 -20
9 -1 17 -8 17 -16 0 -11 7 -14 25 -9 17 4 27 1 31 -9 3 -9 17 -15 33 -15 15 1
38 -5 51 -13 14 -7 31 -12 38 -11 6 2 13 -2 13 -8 1 -5 3 -14 4 -20 1 -5 3
-20 4 -32 1 -21 2 -21 15 -3 12 16 17 17 45 6 23 -10 31 -20 31 -38 0 -23 2
-24 17 -12 12 10 15 10 9 1 -5 -8 0 -19 13 -30 21 -18 35 -98 19 -108 -5 -3
-7 -13 -4 -21 4 -9 -4 -18 -25 -25 -22 -7 -27 -13 -18 -19 7 -4 17 -5 21 -3
13 8 21 -23 14 -52 -6 -21 -9 -24 -21 -14 -12 10 -15 9 -15 -4 0 -9 -7 -16
-15 -16 -8 0 -15 5 -15 10 0 6 -7 10 -16 10 -10 0 -13 -6 -10 -17 8 -24 -8
-48 -25 -37 -7 4 -23 9 -35 10 -12 1 -33 10 -47 19 -35 23 -74 4 -75 -36 0
-16 4 -29 9 -29 5 0 9 -11 9 -25 0 -14 8 -29 20 -35 11 -6 18 -15 15 -21 -9
-14 -25 -11 -25 6 0 8 -4 16 -10 16 -5 1 -14 2 -19 3 -5 0 -13 4 -17 9 -13 13
-24 8 -24 -11 0 -10 5 -23 12 -30 9 -9 9 -12 0 -12 -7 0 -12 -7 -12 -15 0 -8
-6 -15 -14 -15 -16 0 -38 24 -30 33 3 3 3 14 0 25 -8 23 -52 27 -60 5 -3 -8
-11 -11 -17 -7 -8 5 -7 9 2 14 17 11 20 37 6 43 -7 2 -27 2 -45 -1 -29 -4 -33
-7 -28 -28 4 -13 4 -24 2 -24 -3 0 -24 19 -47 42 l-42 43 -15 -23 c-20 -30
-46 -28 -72 6 -12 15 -25 27 -28 27 -4 1 -17 4 -29 9 -16 5 -28 1 -43 -14 -22
-22 -18 -48 4 -27 8 6 12 15 9 20 -2 4 2 7 10 7 13 0 13 -4 4 -25 -7 -14 -18
-25 -25 -25 -21 0 -25 -27 -7 -54 l16 -25 -42 -12 c-35 -11 -46 -11 -68 2 -20
11 -60 15 -163 14 -76 0 -138 3 -138 7 0 4 -15 5 -32 3 -18 -2 -57 -7 -86 -11
-30 -4 -56 -12 -58 -18 -3 -7 -20 -10 -44 -8 -22 2 -40 0 -40 -4 0 -5 -22 -10
-49 -10 -53 -2 -121 -21 -121 -33 0 -5 12 -6 28 -4 26 4 26 4 7 -12 -14 -11
-36 -15 -70 -14 -58 3 -115 -8 -115 -22 0 -6 7 -6 18 0 11 6 24 6 33 0 11 -7
11 -9 -3 -9 -20 0 -25 -20 -5 -21 37 -2 -43 -19 -98 -21 -35 -1 -75 -8 -87
-16 -21 -12 -19 -13 22 -9 106 12 245 -45 232 -95 -4 -17 -11 -19 -45 -15 -23
3 -49 1 -59 -4 -10 -5 -49 -11 -88 -13 -40 -2 -74 -7 -77 -10 -3 -3 5 -14 18
-25 l24 -20 -44 6 c-26 4 -46 2 -50 -5 -3 -6 -38 -16 -76 -22 -39 -7 -77 -13
-85 -15 -8 -2 -17 -4 -20 -4 -3 -1 10 -9 28 -18 l34 -16 -24 -15 c-13 -7 -34
-32 -48 -53 -15 -24 -42 -49 -67 -61 -32 -16 -43 -28 -43 -44 0 -28 -19 -73
-42 -98 -12 -13 -14 -24 -8 -36 6 -11 5 -21 -1 -27 -7 -7 0 -14 19 -22 17 -7
40 -23 53 -37 21 -22 21 -24 3 -30 -10 -3 -26 -8 -34 -11 -11 -4 -8 -8 9 -14
14 -6 31 -7 38 -5 7 3 20 3 29 -1 12 -4 13 -7 3 -14 -23 -14 -4 -20 67 -22 57
-1 80 4 129 26 59 28 62 28 143 17 67 -10 82 -15 78 -27 -5 -11 -2 -13 10 -9
8 3 24 1 34 -4 13 -7 21 -7 25 1 4 6 13 8 21 5 7 -3 29 1 48 9 30 13 35 13 47
-2 8 -8 14 -21 14 -27 0 -6 5 -20 12 -31 10 -17 14 -18 38 -7 14 7 46 12 70
12 25 0 45 5 48 13 3 7 6 5 6 -5 1 -12 9 -18 26 -18 14 0 25 -5 25 -11 0 -7
-14 -8 -41 -4 -35 6 -41 4 -46 -14 -4 -17 -9 -19 -25 -10 -14 8 -28 7 -48 -1
-16 -6 -45 -10 -65 -9 -20 2 -39 -1 -43 -6 -4 -6 -13 -10 -19 -11 -35 -3 -38
-4 -23 -14 13 -8 13 -10 -2 -10 -11 0 -15 -5 -12 -15 4 -11 -1 -15 -17 -15
-35 -1 -73 -35 -66 -61 5 -17 2 -20 -15 -16 -18 5 -18 4 -5 -11 7 -9 17 -25
20 -35 4 -10 11 -16 16 -13 5 4 31 -5 58 -20 26 -14 86 -34 131 -45 46 -11 96
-25 110 -31 15 -6 54 -12 86 -14 33 -2 62 -7 65 -11 7 -10 161 -11 176 -1 6 3
30 5 55 4 48 -3 100 16 100 38 0 8 13 12 43 11 29 -1 51 5 70 19 23 17 31 18
47 8 16 -10 20 -10 20 2 0 8 -6 17 -12 19 -7 3 2 6 20 6 19 1 45 10 59 21 14
11 34 20 45 20 37 0 158 142 158 185 0 8 9 19 20 25 11 6 18 15 15 19 -3 5 1
11 9 14 35 14 115 220 112 290 -1 16 4 27 11 27 7 0 13 5 13 10 0 19 3 25 18
36 14 10 19 28 21 76 1 17 35 34 60 29 8 -1 17 3 21 9 6 9 13 7 26 -6 11 -11
28 -18 38 -16 11 3 16 0 12 -7 -4 -6 -1 -11 6 -11 10 0 10 -2 0 -8 -9 -6 -7
-13 10 -29 13 -11 31 -23 40 -26 22 -8 49 -49 51 -79 1 -13 25 -46 55 -75 66
-65 128 -155 130 -187 0 -5 6 -12 14 -17 8 -5 13 -29 13 -69 0 -49 -4 -63 -18
-72 -14 -7 -18 -20 -16 -47 2 -20 0 -42 -4 -48 -4 -6 0 -14 9 -17 12 -4 14
-13 10 -32 -4 -14 -4 -35 -1 -45 6 -17 9 -18 22 -7 15 12 16 8 10 -29 -5 -28
-4 -43 3 -43 6 0 9 -4 6 -9 -7 -11 19 -63 30 -60 11 2 62 -91 63 -115 1 -10 8
-24 17 -30 26 -20 41 -286 16 -286 -9 0 -11 -12 -8 -41 4 -30 1 -45 -12 -58
-25 -26 -92 -62 -103 -56 -5 4 -25 -1 -44 -11 -19 -9 -41 -14 -49 -11 -17 7
-28 -16 -20 -38 6 -14 -7 -19 -44 -18 -7 1 -18 -10 -24 -23 -6 -13 -16 -25
-22 -25 -6 -1 -20 -3 -31 -4 -11 -1 -37 -7 -58 -13 -21 -6 -35 -6 -32 -1 8 11
0 12 -23 0 -57 -29 -85 -29 -195 0 -49 13 -100 -6 -91 -33 6 -19 -16 -48 -35
-48 -6 0 -11 -4 -11 -8 0 -5 -30 -14 -67 -21 -38 -7 -81 -18 -98 -25 -59 -25
-103 -36 -119 -30 -9 3 -16 3 -16 -1 0 -4 36 -58 80 -120 44 -62 80 -117 80
-122 0 -12 62 -107 72 -111 5 -2 8 -10 8 -18 0 -8 5 -14 11 -14 6 0 9 -6 6
-12 -4 -14 71 -89 116 -116 15 -9 27 -22 27 -29 0 -7 11 -15 24 -19 13 -3 28
-16 34 -30 7 -13 17 -21 25 -19 7 3 22 -2 32 -12 11 -10 31 -19 44 -21 14 -1
33 -9 42 -18 11 -10 19 -12 24 -5 3 6 14 11 23 11 15 -1 15 -2 -2 -15 -21 -16
-16 -32 6 -19 20 14 67 12 61 -1 -3 -8 -31 -12 -83 -11 -46 1 -82 -3 -84 -9
-3 -6 -8 -4 -14 4 -6 8 -18 11 -30 7 -12 -4 -63 -9 -114 -11 -51 -2 -160 -8
-243 -12 -82 -4 -208 -8 -279 -7 l-129 1 -20 28 c-14 19 -20 40 -18 65 2 31
-1 38 -19 43 -19 5 -20 10 -15 79 3 40 8 101 10 134 4 78 36 175 77 235 9 14
15 29 12 32 -8 8 15 47 55 93 70 80 81 96 75 105 -3 5 0 8 8 7 7 -2 12 3 10
10 -1 8 2 11 7 8 5 -4 12 -2 16 4 3 5 1 10 -4 10 -6 0 -11 7 -11 16 0 8 4 12
10 9 15 -10 12 11 -4 25 -8 6 -23 11 -33 10 -54 -6 -62 -1 -58 35 2 20 10 47
19 60 19 29 21 65 4 66 -7 0 -2 4 10 10 13 5 22 15 19 21 -6 19 -46 10 -82
-18 -18 -13 -44 -24 -59 -24 -15 0 -29 -7 -32 -15 -4 -8 -12 -15 -18 -15 -7 0
-26 -13 -42 -29 -15 -16 -34 -26 -41 -24 -7 3 -29 -4 -48 -16 -20 -12 -42 -21
-50 -21 -7 0 -15 -3 -17 -7 -1 -5 -23 -19 -48 -32 -25 -12 -72 -38 -104 -56
-33 -18 -65 -31 -72 -28 -6 2 -15 0 -19 -6 -3 -6 -19 -11 -36 -11 -18 0 -29
-5 -29 -14 0 -8 -10 -16 -23 -20 -13 -3 -29 -17 -37 -30 -15 -28 -30 -25 -30
5 0 12 -4 17 -11 13 -6 -3 -9 -19 -7 -33 4 -24 -1 -30 -39 -45 -24 -10 -40
-22 -36 -28 4 -7 -4 -9 -21 -6 -18 4 -24 2 -18 -6 18 -24 7 -41 -26 -41 -20 0
-37 -6 -42 -16 -6 -9 -24 -16 -45 -17 -20 -1 -42 -7 -50 -14 -37 -33 -46 -38
-75 -38 -17 0 -30 -5 -30 -12 0 -10 -2 -10 -9 0 -10 16 -80 10 -91 -7 -5 -9
-10 -10 -14 -2 -11 16 -26 13 -20 -4 4 -10 0 -15 -12 -15 -9 0 -14 -3 -11 -7
10 -9 -41 -33 -58 -26 -8 3 -16 0 -16 -6 -1 -6 -3 -15 -4 -21 -1 -5 -3 -26 -4
-46 0 -21 -5 -33 -11 -29 -5 3 -10 1 -10 -4 0 -6 -10 -11 -21 -11 -16 0 -19
-3 -11 -12 5 -7 9 -24 8 -38 -1 -14 4 -33 12 -42 13 -16 13 -18 -1 -18 -19 0
-23 -25 -6 -35 6 -4 8 -13 5 -21 -3 -8 0 -14 7 -14 7 0 14 -14 15 -32 2 -18
10 -43 18 -56 9 -13 13 -33 11 -44 -4 -12 2 -28 13 -40 14 -15 18 -33 16 -64
-1 -26 3 -49 10 -55 7 -6 9 -21 5 -42 -8 -37 -4 -67 10 -67 5 0 9 -13 9 -28 0
-16 3 -32 7 -36 7 -7 9 -14 18 -88 5 -43 3 -48 -15 -48 -11 0 -20 6 -21 13 0
6 -5 -1 -10 -18 -10 -35 -5 -55 14 -55 9 0 12 -9 9 -31 -3 -20 -7 -27 -12 -19
-5 8 -15 10 -26 5 -17 -7 -17 -9 -2 -12 9 -2 19 -11 22 -20 4 -11 2 -14 -9 -9
-8 3 -15 4 -15 3 0 -11 46 -91 78 -134 20 -28 56 -78 79 -110 22 -32 58 -76
78 -98 20 -22 83 -89 139 -150 55 -60 116 -125 134 -144 17 -19 32 -38 32 -43
0 -4 6 -8 13 -8 6 0 26 -13 42 -28 17 -15 43 -36 60 -46 16 -11 24 -21 18 -23
-8 -3 -5 -16 11 -41 14 -20 27 -61 31 -89 4 -29 10 -53 14 -53 12 0 31 -48 31
-75 0 -14 5 -25 10 -25 6 0 10 -7 10 -15 0 -8 5 -15 10 -15 6 0 9 -3 8 -7 -5
-19 14 -52 27 -47 17 7 54 -24 66 -54 5 -13 14 -20 19 -17 6 4 10 3 9 -2 -4
-23 2 -32 18 -26 13 5 15 2 10 -11 -4 -10 -1 -19 8 -22 8 -4 15 -12 15 -20 0
-8 7 -14 15 -14 16 0 53 -37 47 -46 -2 -3 8 -18 23 -33 14 -16 25 -32 23 -37
-3 -12 32 -65 59 -87 12 -10 24 -26 28 -36 3 -11 18 -22 33 -26 25 -7 25 -8 7
-15 -19 -7 -19 -8 5 -18 14 -5 38 -24 54 -41 16 -16 34 -27 39 -24 6 4 8 -1 4
-11 -5 -13 -3 -17 6 -13 8 3 20 -4 28 -15 8 -11 20 -26 27 -32 7 -6 18 -17 25
-24 58 -64 77 -87 77 -95 0 -5 14 -25 31 -44 17 -19 28 -41 25 -48 -2 -7 4
-22 15 -34 13 -14 19 -32 17 -50 -1 -16 2 -35 8 -42 6 -8 14 -24 17 -37 4 -19
3 -21 -9 -11 -11 9 -17 9 -28 0 -11 -9 -15 -8 -20 5 -5 12 -9 14 -20 5 -7 -6
-15 -8 -18 -6 -3 3 -11 -8 -18 -25 -7 -16 -16 -27 -21 -24 -5 3 -9 0 -9 -6 0
-15 -90 -5 -102 12 -7 10 -11 10 -15 1 -6 -15 -43 -17 -43 -3 0 6 -7 10 -15
10 -26 0 -16 -14 25 -34 22 -10 50 -28 62 -40 l23 -21 -33 -3 c-18 -2 -46 4
-64 12 -41 21 -47 20 -57 -6 -10 -28 -3 -51 14 -44 7 2 15 -4 18 -15 3 -11 11
-17 19 -14 8 3 21 -8 32 -29 10 -19 23 -34 29 -33 5 1 11 -6 12 -16 2 -9 -1
-17 -7 -17 -6 0 -8 -6 -5 -14 4 -9 0 -12 -12 -9 -12 3 -20 -2 -24 -16 l-5 -21
2086 1 c1148 1 2080 3 2071 6 -13 3 -15 11 -10 36 6 29 10 32 38 29 31 -3 31
-3 26 37 -4 27 -2 41 6 41 6 0 11 -9 11 -20 0 -11 6 -30 13 -41 10 -17 10 -23
0 -26 -18 -6 -16 -33 1 -33 8 0 18 5 22 11 5 8 10 7 16 -4 5 -9 15 -14 23 -11
9 4 15 0 15 -10 0 -13 12 -16 65 -16 36 0 65 3 65 7 0 4 -10 17 -22 31 -21 22
-22 24 -5 33 26 15 21 32 -7 25 -14 -3 -28 -2 -31 4 -4 6 8 10 29 10 40 0 43
6 20 38 -20 28 -57 28 -77 0 -16 -23 -16 -22 -16 15 -1 20 -5 37 -11 37 -5 0
-10 -6 -10 -12 -1 -20 -68 91 -89 147 -37 97 -70 155 -85 149 -8 -3 -12 -13
-9 -24 4 -14 0 -18 -14 -15 -10 2 -19 4 -20 5 -2 2 -7 3 -12 4 -20 3 -23 17
-10 65 12 46 11 57 -10 121 -19 58 -35 84 -90 143 -63 68 -151 180 -151 191 0
15 -105 224 -128 255 -27 37 -102 114 -137 141 -128 98 -313 210 -347 210 -34
0 -39 24 -24 101 42 213 90 536 105 699 9 101 11 107 151 356 54 96 127 298
164 449 35 150 41 185 51 344 4 47 8 88 11 93 3 4 0 8 -5 8 -6 0 -11 5 -11 11
0 5 4 7 10 4 6 -3 10 -1 10 4 0 6 -5 11 -11 11 -7 0 -9 9 -5 22 6 20 10 36 15
73 1 6 5 3 10 -4 5 -8 7 -36 4 -61 -7 -57 0 -63 100 -85 139 -31 253 1 348 98
48 48 96 129 114 187 4 14 31 75 60 135 82 170 81 170 114 345 39 208 88 359
167 525 34 72 79 184 99 250 33 105 38 137 42 252 3 72 0 191 -6 265 -14 147
-30 195 -84 247 -63 60 -100 91 -108 91 -5 0 -9 9 -9 20 0 11 6 20 14 20 16 0
27 33 16 50 -9 15 -1 50 11 50 5 0 0 16 -11 35 -19 34 -19 35 -1 35 11 0 21 5
23 12 2 6 20 17 39 23 22 8 33 18 33 29 -1 11 11 24 32 33 19 9 34 20 34 24 0
4 9 9 19 12 10 2 27 17 37 32 18 27 18 28 -5 46 -28 23 -20 39 22 40 27 0 29
2 12 9 -19 7 -19 8 6 18 15 6 29 20 32 31 6 26 44 25 69 -2 9 -10 27 -17 40
-16 13 2 29 0 37 -5 7 -5 16 -4 20 1 8 13 44 26 36 13 -3 -6 -2 -10 4 -10 5 0
12 -8 14 -17 4 -16 5 -16 6 1 1 14 4 16 14 7 11 -8 18 -6 32 9 12 14 25 18 42
14 19 -5 22 -3 16 12 -4 12 -3 15 5 10 7 -4 12 -2 12 4 0 6 14 25 30 42 17 16
30 40 30 52 0 12 8 31 18 42 32 37 77 99 91 126 19 37 45 64 89 92 44 28 79
66 76 84 -1 6 -2 25 -3 40 0 16 -10 38 -22 51 -11 12 -18 29 -15 37 3 8 -1 14
-9 14 -10 0 -15 10 -15 28 0 52 -4 70 -16 65 -10 -4 -42 26 -36 34 1 1 2 8 2
15 0 9 -3 9 -12 0 -18 -18 -52 -14 -82 9 -14 11 -26 16 -26 10 0 -6 -17 -15
-38 -20 -41 -12 -105 -66 -99 -84 4 -13 -30 -47 -46 -47 -11 0 -57 -47 -57
-59 0 -5 -15 -11 -32 -15 -23 -5 -29 -9 -20 -15 11 -7 11 -11 0 -22 -13 -13
-26 -39 -28 -57 -1 -4 -8 -14 -16 -23 -8 -9 -12 -18 -9 -21 3 -3 -1 -11 -10
-18 -8 -7 -15 -17 -15 -23 0 -5 -7 -15 -15 -21 -8 -6 -16 -24 -18 -39 -2 -16
-9 -32 -16 -36 -6 -4 -11 -12 -10 -17 2 -5 -3 -27 -9 -49 -8 -26 -8 -43 -2
-49 17 -17 11 -27 -10 -16 -11 6 -20 8 -20 5 0 -9 24 -50 34 -56 13 -10 -2
-42 -16 -33 -8 5 -9 2 -5 -9 11 -30 -30 -19 -53 14 -12 16 -25 28 -28 25 -2
-3 0 -12 6 -19 9 -10 8 -17 0 -25 -9 -9 -9 -12 3 -13 7 -1 1 -5 -16 -9 -16 -4
-38 -11 -49 -15 -15 -7 -17 -5 -12 11 4 13 -3 28 -19 46 -13 14 -27 37 -30 50
-9 31 -85 118 -85 96 0 -9 6 -23 13 -30 25 -26 48 -69 42 -78 -3 -6 -2 -10 4
-10 5 0 13 -10 16 -22 4 -13 17 -33 28 -46 18 -20 19 -24 7 -33 -8 -5 -26 -7
-38 -4 -15 4 -21 2 -17 -5 4 -6 -6 -10 -25 -10 -18 0 -33 6 -36 15 -4 8 -10
15 -16 15 -5 0 -7 -4 -4 -8 8 -13 -11 -35 -24 -27 -8 5 -10 31 -6 83 3 43 5
99 6 126 0 39 3 47 15 42 19 -7 20 18 1 33 -18 15 -9 52 10 44 18 -7 18 5 0
39 -8 15 -14 51 -13 80 0 29 -4 83 -11 121 -7 37 -17 97 -23 135 -16 102 -45
199 -106 351 -16 41 -22 66 -15 70 6 3 14 19 18 36 8 33 62 97 75 89 5 -2 22
8 38 23 16 16 39 29 52 30 20 2 34 13 42 37 2 5 11 6 22 3 17 -7 17 -8 -1 -21
-18 -14 -18 -15 9 -21 15 -4 27 -10 27 -14 0 -4 20 -18 45 -30 25 -12 43 -27
40 -32 -4 -5 3 -9 14 -9 11 0 25 -10 32 -21 8 -16 13 -18 19 -9 7 11 12 10 25
-3 16 -16 40 -17 77 -2 10 4 18 11 18 15 0 4 14 13 30 20 17 7 30 15 30 19 0
8 37 57 67 88 12 12 24 32 28 43 3 11 13 20 22 20 13 0 13 3 3 15 -11 13 -10
14 4 9 12 -4 16 0 16 15 0 23 15 28 23 9 4 -8 8 -4 13 10 5 18 9 20 20 11 8
-7 17 -9 20 -6 3 2 31 -1 62 -9 31 -7 71 -13 89 -14 17 0 35 -5 38 -11 4 -5
14 -9 23 -7 10 2 22 -3 28 -11 10 -12 27 -17 72 -20 7 -1 11 -5 8 -10 -10 -15
68 -20 85 -5 9 8 19 11 22 7 4 -3 7 2 7 13 0 14 2 16 9 6 11 -19 15 -19 33 -4
9 7 24 9 33 5 13 -4 16 -3 11 6 -5 8 -1 14 12 18 11 2 25 15 32 28 7 12 24 29
39 36 14 8 35 22 45 31 10 10 23 15 27 12 5 -3 24 9 41 26 35 33 88 65 88 54
0 -4 9 1 21 12 12 10 22 17 23 15 0 -3 13 3 29 13 l27 18 0 1054 0 1054 -1628
0 c-1159 0 -1631 -3 -1639 -11 -8 -8 -13 -8 -17 0 -9 14 -246 15 -246 1 0 -5
6 -10 13 -10 7 0 23 -11 34 -24 11 -13 26 -25 33 -28 7 -2 11 -10 9 -17 -4
-10 -13 -7 -33 12 -35 33 -63 27 -39 -9 8 -13 21 -24 29 -24 7 0 11 -6 8 -13
-2 -7 11 -28 31 -47 38 -37 58 -33 58 14 0 14 5 26 11 26 6 0 11 -16 11 -35 0
-24 -4 -34 -12 -30 -17 6 -16 -11 0 -27 8 -7 12 -20 9 -30 -3 -13 -7 -15 -16
-5 -7 7 -15 20 -19 29 -4 11 -15 17 -29 15 -12 -1 -23 3 -23 8 -1 21 -17 38
-25 26 -5 -9 -14 -9 -34 -1 -15 5 -24 14 -21 20 3 5 1 10 -4 10 -6 0 -11 7
-11 15 0 8 -4 15 -10 15 -6 0 -6 -9 0 -26 13 -32 13 -61 1 -49 -17 19 -81 149
-75 154 5 6 16 -7 40 -46 7 -10 15 -15 19 -11 8 8 -12 44 -40 72 -14 14 -20
14 -32 4 -12 -10 -17 -9 -27 4 -10 13 -44 15 -241 17 l-230 1 30 -20 c30 -20
30 -20 5 -19 -14 1 -32 -1 -41 -5 -9 -4 -22 1 -34 14 -10 11 -13 20 -7 20 6 0
12 -6 15 -12 2 -7 8 -10 12 -6 17 16 -10 28 -60 28 -49 0 -56 -3 -70 -27 l-16
-28 4 28 4 27 -103 0 c-63 0 -104 -4 -104 -10 0 -5 -5 -10 -11 -10 -5 0 -7 5
-4 10 4 7 -93 10 -283 10 -276 0 -290 -1 -307 -20 -10 -11 -13 -20 -7 -20 6 0
12 4 14 10 2 5 19 12 38 16 32 5 29 2 -25 -28 -33 -18 -82 -50 -109 -71 -27
-21 -54 -36 -60 -34 -20 7 -17 25 6 33 34 10 82 45 112 82 l28 32 -49 0 c-45
-1 -49 -3 -73 -40 -13 -22 -28 -40 -34 -40 -5 0 -2 8 6 18 9 9 19 27 22 40 7
21 5 22 -48 22 -31 0 -56 -4 -56 -10 0 -5 -5 -10 -11 -10 -5 0 -7 5 -4 10 4 7
-91 10 -278 10 l-284 0 -32 -40 c-37 -46 -32 -51 15 -15 18 14 35 25 38 25 11
0 6 -23 -9 -39 -38 -41 -76 -91 -70 -91 4 0 -6 -15 -21 -34 -16 -18 -37 -46
-46 -62 -53 -89 -125 -177 -139 -169 -5 4 -8 3 -7 -2 5 -13 -111 -125 -122
-118 -6 3 -7 -1 -4 -9 4 -10 1 -16 -8 -16 -8 0 -24 -9 -36 -20 -12 -11 -25
-20 -29 -20 -5 0 -35 -25 -68 -55 -33 -31 -82 -75 -110 -97 -44 -37 -42 -33
20 32 39 40 84 87 100 104 17 17 41 48 54 69 12 20 33 43 46 50 36 19 174 149
171 161 -2 6 -1 8 1 4 3 -5 12 -4 21 1 9 5 20 8 24 8 9 -3 76 87 87 116 8 20
6 24 -7 23 -9 0 -24 -9 -34 -18 -10 -10 -27 -18 -38 -18 -11 0 -20 -6 -20 -13
0 -7 -16 -29 -37 -48 -37 -35 -37 -26 2 26 24 33 65 110 65 122 0 4 -18 18
-40 31 -45 25 -125 31 -133 8 -3 -7 -17 -16 -30 -20 -14 -3 -44 -18 -66 -33
-30 -20 -40 -31 -35 -45 8 -26 -13 -22 -31 6 -16 23 -17 24 -70 11 -48 -11
-55 -10 -55 3 0 8 -3 12 -7 8 -5 -4 -8 -13 -8 -19 0 -7 -7 -12 -15 -12 -11 0
-14 -9 -12 -30 2 -29 2 -29 -10 -8 -10 17 -17 19 -31 12 -10 -6 -23 -8 -30 -6
-7 2 5 12 26 22 43 22 47 32 12 41 -14 3 -25 10 -25 14 0 5 -9 11 -19 15 -20
6 -20 6 0 26 11 11 28 19 37 18 24 -3 52 11 52 26 0 6 9 20 21 30 20 19 20 19
10 -7 -9 -24 -8 -26 22 -31 50 -7 166 11 212 33 23 11 48 20 56 20 10 1 8 4
-5 11 -10 6 -21 7 -25 3 -10 -15 -51 -15 -51 0 0 11 -24 14 -106 15 -92 2
-108 0 -120 -16 -13 -17 -14 -17 -8 0 6 16 -85 17 -1815 17 l-1821 0 0 -209z
m4618 145 c-7 -25 -15 -46 -20 -46 -4 0 -1 21 7 48 8 26 15 49 15 51 0 2 2 2
5 -1 3 -3 0 -26 -7 -52z m1637 -44 c-2 -3 -17 4 -32 14 -15 10 -32 17 -37 16
-5 -2 -16 0 -25 4 -13 5 -12 8 8 15 15 6 21 14 17 24 -3 9 12 -4 34 -26 22
-23 38 -44 35 -47z m241 66 c-1 -24 -15 -40 -27 -32 -8 4 12 54 22 54 3 0 5
-10 5 -22z m-1830 -43 c-19 -49 -63 -92 -79 -76 -6 6 -5 16 2 28 10 17 10 17
11 1 0 -27 19 -22 26 7 3 14 10 25 15 25 5 0 9 4 9 9 0 19 21 64 27 58 3 -4
-2 -27 -11 -52z m288 41 c-3 -8 -13 -17 -22 -21 -13 -5 -13 -2 3 15 21 24 26
25 19 6z m1571 4 c3 -5 1 -10 -4 -10 -6 0 -11 5 -11 10 0 6 2 10 4 10 3 0 8
-4 11 -10z m-1775 -8 c0 -4 -5 -13 -12 -20 -8 -8 -8 -12 -1 -12 6 0 13 7 17
15 3 8 10 15 16 15 15 0 -7 -39 -34 -62 -12 -9 -16 -17 -10 -18 6 0 17 7 24
15 7 8 20 15 29 15 10 0 30 14 46 30 16 17 33 30 39 30 5 0 0 -10 -12 -23 -12
-13 -22 -31 -22 -40 0 -9 -7 -17 -15 -17 -8 0 -15 -3 -15 -8 0 -4 -10 -13 -22
-21 -23 -14 -23 -14 -4 8 11 11 17 24 13 27 -3 3 -13 -3 -21 -13 -49 -55 -76
-92 -76 -102 0 -6 -4 -11 -10 -11 -5 0 -10 -6 -10 -14 0 -7 -12 -22 -27 -32
l-28 -17 19 28 c14 21 15 29 6 35 -10 6 -8 17 9 44 13 20 18 36 12 36 -5 0
-12 -8 -15 -18 -7 -22 -66 -80 -66 -65 0 6 13 26 30 44 16 19 30 37 30 42 0 4
20 27 45 51 25 25 45 50 45 55 0 6 5 11 10 11 6 0 10 -4 10 -8z m1537 -44 c-3
-8 -6 -5 -6 6 -1 11 2 17 5 13 3 -3 4 -12 1 -19z m783 18 c0 -3 -4 -8 -10 -11
-5 -3 -10 -1 -10 4 0 6 5 11 10 11 6 0 10 -2 10 -4z m-2175 -39 c-9 -14 -27
-27 -42 -30 -24 -4 -23 -2 13 29 42 38 54 38 29 1z m-556 1 c-6 -13 -18 -31
-26 -40 -8 -9 -13 -21 -10 -25 3 -5 -10 -24 -28 -42 -19 -18 -31 -39 -28 -47
3 -8 -1 -14 -8 -14 -7 0 -25 -12 -41 -27 -35 -34 -46 -26 -13 10 14 14 25 31
25 36 0 6 15 25 34 43 18 18 36 47 40 63 4 18 18 38 34 48 35 21 35 21 21 -5z
m582 -27 c-27 -37 -26 -39 4 -33 39 7 30 -12 -32 -64 -32 -27 -67 -59 -78 -70
-11 -12 -38 -32 -60 -44 l-40 -23 38 40 c20 21 35 42 32 46 -3 4 -2 5 1 3 10
-8 94 83 89 96 -3 7 9 28 25 46 38 40 48 41 21 3z m1309 14 c30 -15 34 -24 45
-88 3 -21 15 -53 26 -70 10 -18 19 -42 19 -54 0 -15 6 -23 18 -23 21 0 55 -86
43 -108 -5 -9 -12 1 -21 33 -8 28 -20 50 -30 52 -22 6 -57 78 -65 136 -6 39
-55 129 -55 101 0 -10 -20 17 -20 29 0 10 7 9 40 -8z m-1185 -5 c-3 -5 -16
-15 -28 -21 -22 -12 -22 -12 -3 10 19 21 43 30 31 11z m295 1 c0 -6 -9 -9 -20
-8 -11 1 -20 5 -20 9 0 4 9 8 20 8 11 0 20 -4 20 -9z m1267 -13 c-3 -8 -6 -5
-6 6 -1 11 2 17 5 13 3 -3 4 -12 1 -19z m-2517 -3 c0 -8 -4 -15 -10 -15 -5 0
-10 7 -10 15 0 8 5 15 10 15 6 0 10 -7 10 -15z m3068 -31 c-3 -14 -5 -12 -10
9 -3 19 -2 25 4 19 6 -6 8 -18 6 -28z m-1858 10 c-34 -23 -150 -136 -150 -147
0 -9 86 58 123 95 26 26 44 22 21 -4 -10 -13 -25 -27 -33 -32 -7 -5 -31 -24
-51 -42 -21 -19 -43 -34 -49 -34 -6 0 -11 -4 -11 -10 0 -5 8 -7 18 -4 9 3 4
-2 -11 -11 -31 -18 -28 -36 6 -28 l22 5 -24 -21 c-26 -23 -47 -27 -53 -9 -3 8
-12 7 -34 -5 -50 -27 -146 -67 -162 -67 -8 0 2 13 23 30 39 31 40 39 2 18 -30
-17 -90 -38 -95 -33 -4 4 29 23 133 74 89 44 129 70 106 71 -10 0 -5 10 14 30
32 33 49 32 19 -1 -39 -44 58 23 121 83 33 31 67 57 75 58 8 0 4 -7 -10 -16z
m-1940 3 c0 -6 -97 -77 -105 -77 -9 0 87 79 98 80 4 0 7 -1 7 -3z m3075 -7
c-3 -5 -12 -10 -18 -10 -7 0 -6 4 3 10 19 12 23 12 15 0z m481 -7 c7 -10 14
-21 14 -25 0 -13 -25 2 -38 22 -16 26 5 28 24 3z m331 -15 c-3 -7 -5 -2 -5 12
0 14 2 19 5 13 2 -7 2 -19 0 -25z m600 21 c6 -6 53 -12 104 -14 83 -2 101 -7
156 -35 35 -18 60 -36 58 -41 -3 -5 11 -15 32 -24 20 -9 40 -19 43 -23 3 -4
34 -29 69 -55 64 -46 75 -66 16 -27 -16 11 -36 20 -42 20 -18 0 -16 -27 2 -34
8 -3 15 -13 15 -23 0 -10 7 -26 15 -36 7 -11 11 -25 8 -33 -3 -8 5 -16 23 -20
23 -6 25 -9 12 -18 -12 -9 -13 -17 -7 -29 6 -9 7 -22 4 -27 -3 -6 -1 -10 5
-10 6 0 9 -4 6 -9 -3 -4 4 -17 15 -27 11 -10 17 -24 15 -31 -4 -8 3 -13 17
-13 12 -1 36 -7 52 -15 l30 -13 -35 -2 c-19 -1 -44 -5 -55 -10 -19 -7 -18 -8
7 -18 14 -6 29 -20 33 -31 3 -12 11 -21 16 -21 6 0 7 -5 4 -11 -4 -6 3 -21 15
-34 22 -23 22 -26 6 -49 -14 -22 -14 -25 0 -19 17 6 56 -30 52 -50 -6 -30 13
-87 30 -87 15 -1 14 -3 -3 -16 -20 -15 -20 -15 1 -20 14 -4 20 -12 18 -22 -3
-12 10 -24 43 -40 46 -23 117 -36 107 -21 -2 4 1 11 7 15 6 3 15 0 20 -7 7
-12 9 -11 9 1 0 13 1 13 10 0 7 -11 10 -11 10 -2 0 7 4 11 9 7 5 -3 13 0 16 6
4 5 13 8 21 5 8 -3 14 -1 14 4 0 5 10 10 23 12 12 2 21 9 20 16 -4 17 12 15
28 -4 12 -14 14 -14 25 0 10 14 13 14 23 2 12 -14 51 -11 51 5 0 10 22 8 31
-4 3 -4 19 -2 36 4 25 8 38 7 62 -6 17 -8 31 -20 31 -25 0 -10 67 -110 80
-120 8 -7 8 -50 -1 -50 -3 0 -9 -18 -13 -41 -5 -31 -10 -40 -22 -35 -12 5 -12
2 -3 -15 14 -26 5 -49 -19 -49 -11 0 -25 -7 -32 -15 -7 -9 -19 -14 -26 -11 -7
3 -16 -4 -19 -15 -5 -16 -12 -19 -28 -15 -12 4 -38 9 -57 12 -19 3 -37 9 -38
15 -3 6 -9 6 -18 -1 -7 -7 -19 -8 -26 -4 -16 10 -48 6 -66 -8 -7 -6 -15 -8
-19 -4 -3 3 -1 6 6 6 7 0 9 5 6 10 -3 6 -15 10 -25 10 -10 0 -23 7 -28 16 -8
15 -11 14 -25 -6 -13 -19 -19 -21 -31 -11 -11 9 -15 9 -19 -1 -3 -10 -11 -9
-35 5 -16 9 -37 15 -45 12 -26 -11 -140 151 -129 184 3 8 0 11 -7 7 -6 -4 -14
1 -18 10 -8 21 -33 52 -85 107 -34 35 -43 38 -39 15 2 -16 -16 -7 -49 22 -22
19 -27 27 -13 20 38 -18 45 -11 21 19 -13 17 -31 30 -40 30 -9 1 -26 17 -38
36 -13 21 -30 35 -42 35 -11 0 -33 14 -50 30 -29 30 -29 30 -6 30 23 1 23 1 3
16 -26 20 -115 64 -131 64 -6 0 -21 10 -32 23 -11 12 -35 38 -52 57 -25 29
-30 31 -25 13 4 -13 3 -23 -1 -23 -18 0 -44 35 -44 59 -1 29 -62 80 -112 94
-81 21 -92 25 -84 26 16 2 -38 38 -67 45 -22 5 -27 4 -21 -6 6 -10 4 -10 -9 1
-9 7 -14 17 -11 22 3 5 -1 9 -8 9 -19 1 -71 57 -64 68 3 6 0 13 -6 15 -9 4 -8
6 3 6 16 1 23 31 7 31 -8 0 -34 57 -45 98 -4 17 -2 23 5 18 6 -3 13 -3 16 2 2
4 19 9 37 10 18 1 39 8 46 14 9 8 18 7 30 -3 11 -10 14 -10 9 -1 -4 6 -3 12 3
12 5 0 11 -4 13 -9 2 -4 14 -12 27 -16 19 -6 23 -4 18 8 -3 8 0 14 6 14 45 -1
67 5 67 18 0 9 6 12 15 9 9 -4 15 0 15 10 0 10 5 13 17 9 12 -5 15 -2 10 10
-7 19 13 23 30 6z m-738 -28 c20 -15 51 -36 69 -45 17 -9 32 -21 32 -27 0 -6
4 -8 9 -5 5 4 20 -11 32 -31 23 -37 32 -49 73 -96 10 -12 31 -48 47 -80 16
-32 34 -55 38 -52 12 7 34 -22 26 -35 -3 -5 3 -10 14 -10 19 0 41 -26 41 -49
0 -18 -29 -12 -47 9 -26 30 -45 26 -38 -7 4 -16 8 -37 10 -49 5 -22 50 -48 66
-39 5 4 9 2 9 -4 0 -5 -9 -13 -21 -16 -19 -6 -20 -8 -3 -26 9 -10 26 -19 38
-19 11 0 41 -3 66 -6 78 -11 126 -10 144 5 17 14 17 16 0 28 -10 7 -15 16 -11
19 3 4 -4 15 -16 25 -21 17 -21 18 -2 19 14 0 16 3 8 11 -8 8 -17 8 -31 0 -35
-19 -62 -14 -63 12 -1 16 -2 18 -6 5 -5 -19 -47 -25 -57 -10 -10 16 41 35 76
28 18 -4 42 -8 53 -10 35 -5 56 -18 51 -32 -3 -8 0 -11 9 -8 7 3 25 -2 39 -11
27 -18 46 -13 46 10 0 9 6 12 15 9 8 -4 15 -15 15 -25 0 -10 5 -19 10 -19 6 0
10 7 10 15 0 8 7 15 15 15 8 0 15 -7 15 -15 0 -8 -4 -15 -10 -15 -5 0 -10 -4
-10 -10 0 -5 7 -10 15 -10 8 0 15 -8 15 -17 0 -13 3 -14 12 -5 19 19 43 14 72
-13 14 -13 26 -27 26 -30 0 -4 14 -18 30 -32 32 -27 42 -60 14 -49 -9 3 -25 6
-35 6 -16 0 -19 5 -14 21 5 15 2 22 -14 26 -12 3 -21 11 -21 19 0 7 -12 17
-27 20 -16 4 -37 13 -48 20 -11 8 -30 14 -42 14 -20 0 -23 -5 -24 -37 -1 -21
-3 -30 -6 -20 -3 12 -13 17 -26 16 -12 -1 -30 2 -40 6 -22 9 -42 -8 -34 -29 3
-8 29 -25 56 -37 28 -12 51 -27 51 -34 0 -9 -19 -3 -55 17 -32 17 -63 27 -72
24 -10 -4 -33 5 -60 25 -42 30 -47 31 -109 24 -35 -4 -62 -11 -59 -16 4 -5 13
-9 21 -9 25 0 15 -15 -17 -27 -34 -13 -49 -10 -49 11 0 13 -126 20 -135 7 -4
-8 44 -36 58 -33 4 1 7 -2 7 -7 0 -5 -11 -11 -25 -13 -14 -3 -25 -2 -25 2 0
16 -34 20 -42 5 -6 -9 -23 -15 -48 -15 -46 0 -53 -19 -17 -46 l22 -16 -25 6
c-14 3 -38 6 -55 7 l-30 1 30 8 30 8 -27 1 c-16 0 -28 6 -28 11 0 6 -13 10
-30 10 -16 0 -30 3 -30 6 0 15 31 33 61 36 26 2 34 8 34 23 0 15 -8 21 -35 25
-55 8 -22 18 50 16 43 -2 69 2 78 10 7 8 20 17 28 22 19 11 21 70 3 106 -11
22 -22 30 -48 33 -19 2 -37 6 -40 9 -3 3 10 4 29 2 30 -3 35 0 38 20 4 27 -15
55 -31 45 -6 -4 -8 3 -4 19 5 17 2 30 -8 38 -8 7 -12 17 -8 23 3 6 1 7 -5 3
-8 -4 -12 0 -12 11 -1 10 -17 36 -36 58 -23 26 -30 30 -18 12 26 -42 9 -44
-27 -3 -34 39 -51 42 -25 4 21 -29 21 -48 0 -22 -15 18 -15 18 -10 -6 16 -66
18 -80 9 -80 -11 0 -33 43 -33 64 0 16 -40 69 -47 62 -3 -2 -9 -22 -13 -42
-12 -51 10 -68 27 -21 l11 32 1 -42 c1 -23 -5 -48 -12 -55 -9 -8 -13 -30 -11
-63 3 -33 1 -42 -4 -26 -8 25 -8 24 -40 -14 -18 -22 -32 -35 -32 -29 0 6 9 19
19 28 27 25 53 104 41 125 -8 14 -9 14 -10 -2 0 -9 -4 -25 -9 -35 -5 -9 -12
-25 -15 -35 -3 -10 -9 -16 -14 -13 -4 2 -21 -16 -37 -42 -20 -31 -31 -41 -33
-30 -2 8 6 31 17 49 12 19 21 44 21 56 0 12 4 24 9 27 7 5 23 115 23 159 -1
20 16 23 24 3 5 -14 28 -16 40 -3 4 3 -1 18 -10 31 -20 32 -20 36 1 36 14 0
14 3 -4 23 -11 12 -23 33 -26 47 l-6 24 22 -26 c12 -15 43 -42 68 -61 l47 -35
-2 26 c0 15 -10 35 -21 44 -27 24 -13 22 29 -3 20 -12 34 -25 31 -29 -4 -7 61
-126 80 -148 5 -6 35 11 35 20 0 5 -11 21 -25 36 -14 15 -25 35 -25 45 0 11
-6 17 -17 15 -10 -2 -19 5 -21 16 -3 12 0 16 8 11 9 -6 10 -3 4 7 -11 19 -61
61 -91 77 -13 6 -23 16 -23 21 0 16 10 12 49 -19z m-3559 -1 c-19 -12 -30 -12
-30 -1 0 10 31 20 40 14 2 -2 -2 -8 -10 -13z m-156 -5 c12 -9 14 -15 7 -15 -7
0 -24 -9 -38 -20 -15 -11 -29 -18 -32 -14 -3 3 5 14 19 24 14 11 19 20 12 20
-7 0 -10 5 -7 10 8 13 16 12 39 -5z m566 8 c0 -5 -16 -21 -36 -36 -19 -16 -33
-31 -30 -35 3 -3 16 3 28 13 13 10 6 2 -14 -19 -21 -20 -38 -40 -38 -45 0 -5
-4 -11 -9 -13 -5 -1 -12 -23 -16 -47 -4 -25 -12 -50 -19 -55 -18 -15 -69 -94
-91 -140 -10 -22 -26 -48 -36 -59 -17 -18 -17 -18 -6 15 7 18 21 49 33 68 11
19 23 45 26 58 10 39 -9 24 -33 -25 -17 -35 -25 -43 -27 -29 -2 10 1 21 6 25
6 3 14 20 18 36 9 39 36 85 45 79 4 -2 10 0 14 6 10 16 28 12 21 -6 -3 -9 -2
-12 5 -9 6 4 8 14 5 22 -3 8 1 24 9 36 32 45 13 36 -40 -18 -57 -60 -65 -59
-40 2 18 42 18 46 5 38 -5 -3 -7 0 -4 9 3 8 -11 32 -35 58 -23 23 -41 46 -41
50 0 15 21 8 27 -9 9 -23 35 -43 47 -36 5 4 6 1 2 -6 -8 -12 10 -41 25 -41 5
0 9 9 9 20 0 12 7 20 16 20 10 0 14 6 10 15 -8 21 21 19 34 -2 8 -14 9 -12 4
12 -4 17 -3 27 1 23 4 -4 17 -1 29 7 27 20 37 19 29 -2 -6 -14 -2 -13 21 5 29
22 46 28 46 15z m2466 -8 c4 -11 13 -13 28 -9 16 5 18 3 10 -6 -14 -14 -50 -5
-58 15 -3 8 -1 15 5 15 5 0 12 -7 15 -15z m-2416 -5 c0 -5 -4 -10 -9 -10 -6 0
-13 5 -16 10 -3 6 1 10 9 10 9 0 16 -4 16 -10z m3370 0 c0 -5 -7 -10 -15 -10
-8 0 -15 -5 -15 -12 0 -6 -2 -9 -5 -6 -3 3 -3 13 1 22 7 17 34 22 34 6z m-680
-30 c0 -16 -4 -30 -10 -30 -11 0 -14 43 -3 53 11 12 13 8 13 -23z m538 5 c0
-14 -4 -25 -9 -25 -10 0 -12 34 -2 43 10 10 11 9 11 -18z m-912 -15 c1 -17 -3
-30 -7 -30 -5 0 -9 14 -9 30 0 39 15 39 16 0z m271 -66 c-10 -10 -35 9 -30 23
5 12 7 12 15 1 6 -9 8 -4 7 17 -2 52 4 62 8 11 2 -26 2 -50 0 -52z m-1860 51
c-23 -22 -33 -18 -12 5 10 11 20 18 23 16 2 -3 -3 -12 -11 -21z m198 0 c-16
-13 -34 -24 -39 -25 -5 0 -17 -7 -27 -16 -11 -10 -19 -12 -24 -5 -3 6 -2 11 4
11 5 0 16 6 23 13 17 15 70 45 83 46 6 1 -3 -10 -20 -24z m2029 -31 l-7 -29
-12 35 c-14 41 -9 58 12 38 10 -10 12 -24 7 -44z m-424 25 c0 -11 -3 -11 -24
-3 -23 9 -20 23 4 17 11 -3 20 -9 20 -14z m87 -11 c-3 -7 -5 -2 -5 12 0 14 2
19 5 13 2 -7 2 -19 0 -25z m838 -7 c9 -22 15 -45 12 -53 -3 -7 -13 5 -23 30
-9 23 -23 42 -31 42 -7 0 -13 5 -13 10 0 6 8 10 18 10 12 0 25 -14 37 -39z
m-2894 -14 c-13 -13 -15 1 -4 30 7 17 8 17 11 -1 2 -10 -1 -23 -7 -29z m2713
28 c-7 -16 -24 -21 -24 -6 0 8 7 13 27 20 1 1 0 -6 -3 -14z m-3194 -9 c0 -2
-8 -10 -17 -17 -16 -13 -17 -12 -4 4 13 16 21 21 21 13z m2270 -16 c0 -5 -4
-10 -10 -10 -5 0 -10 5 -10 10 0 6 5 10 10 10 6 0 10 -4 10 -10z m-1140 -30
c0 -5 -8 -10 -17 -10 -15 0 -16 2 -3 10 19 12 20 12 20 0z m2210 -6 c0 -9 10
-25 23 -35 l22 -20 -32 6 c-19 4 -33 2 -33 -3 0 -14 26 -33 33 -25 4 3 7 -2 7
-13 0 -10 7 -28 15 -38 19 -25 19 -36 0 -36 -28 0 -85 73 -85 109 0 11 -9 25
-20 31 -31 16 -24 33 10 28 17 -3 33 -1 36 4 9 14 24 9 24 -8z m-3548 -26
l-22 -22 0 24 c0 19 2 22 10 10 8 -12 10 -12 16 3 3 10 9 15 12 12 3 -3 -4
-15 -16 -27z m2743 22 c3 -5 1 -10 -4 -10 -6 0 -11 5 -11 10 0 6 2 10 4 10 3
0 8 -4 11 -10z m-1310 -10 c-3 -5 -11 -10 -16 -10 -6 0 -7 5 -4 10 3 6 11 10
16 10 6 0 7 -4 4 -10z m-360 -10 c-3 -5 -11 -10 -16 -10 -6 0 -7 5 -4 10 3 6
11 10 16 10 6 0 7 -4 4 -10z m275 -5 c-7 -8 -17 -15 -22 -15 -6 0 -5 7 2 15 7
8 17 15 22 15 6 0 5 -7 -2 -15z m-1540 -5 c0 -5 -4 -10 -9 -10 -6 0 -13 5 -16
10 -3 6 1 10 9 10 9 0 16 -4 16 -10z m2870 -14 c0 -7 -8 -20 -17 -27 -15 -12
-16 -12 -10 4 4 10 7 23 7 28 0 5 5 9 10 9 6 0 10 -6 10 -14z m-1240 -26 c0
-5 -5 -10 -11 -10 -5 0 -7 5 -4 10 3 6 8 10 11 10 2 0 4 -4 4 -10z m-4253 -25
c13 -7 19 -16 15 -20 -4 -5 -1 -5 6 -1 7 4 9 12 6 18 -4 7 2 7 17 2 13 -4 34
-8 47 -7 13 0 22 -5 22 -13 0 -8 9 -14 21 -14 11 0 17 -4 14 -10 -3 -5 -1 -10
5 -10 21 0 70 -41 64 -52 -4 -6 -3 -8 3 -5 19 12 63 -17 63 -40 0 -23 62 -121
100 -159 21 -21 28 -72 17 -134 -3 -14 -5 -37 -6 -52 -1 -19 -5 -26 -15 -22
-8 3 -23 -5 -35 -17 -12 -13 -21 -19 -21 -15 0 4 -12 -6 -26 -23 -14 -17 -30
-31 -36 -31 -5 0 -21 -9 -35 -19 -13 -11 -31 -17 -39 -14 -8 3 -14 -1 -14 -8
0 -10 -3 -10 -11 -2 -7 7 -20 8 -33 4 -24 -9 -66 3 -66 19 0 5 -6 10 -14 10
-8 0 -35 20 -60 45 -26 25 -51 45 -57 45 -5 0 -7 5 -4 11 4 6 -1 13 -12 15
-16 5 -29 21 -69 86 -6 10 -21 27 -33 37 -13 11 -20 24 -18 29 3 4 -6 17 -20
27 -45 34 -81 153 -52 171 5 3 6 10 3 16 -5 8 4 9 29 5 41 -6 46 -1 20 20 -10
8 -12 11 -4 7 11 -5 13 -3 8 10 -5 13 -1 19 13 23 11 3 20 10 20 15 0 6 7 7
16 4 9 -3 29 4 47 18 18 12 40 26 50 29 9 4 17 11 17 16 0 11 18 6 57 -14z
m2246 18 c-7 -2 -19 -2 -25 0 -7 3 -2 5 12 5 14 0 19 -2 13 -5z m746 -62 c-18
-23 -36 -41 -41 -41 -13 0 -10 7 15 34 12 13 28 32 36 41 7 9 15 14 18 11 3
-2 -10 -23 -28 -45z m2798 -3 c-3 -7 -5 -2 -5 12 0 14 2 19 5 13 2 -7 2 -19 0
-25z m-588 -41 c-33 -61 -62 -91 -34 -36 20 41 58 99 62 95 2 -1 -11 -28 -28
-59z m630 4 c-6 -18 -13 -30 -15 -28 -2 2 1 18 7 36 6 18 13 30 15 28 2 -2 -1
-18 -7 -36z m308 -8 c-11 -10 -37 12 -37 31 1 21 1 21 21 -3 11 -13 18 -26 16
-28z m-3347 22 c0 -2 -10 -10 -22 -16 -21 -11 -22 -11 -9 4 13 16 31 23 31 12z
m126 -50 c-9 -9 -16 -13 -16 -8 0 12 22 34 28 28 2 -2 -3 -11 -12 -20z m3574
5 c0 -5 -2 -10 -4 -10 -3 0 -8 5 -11 10 -3 6 -1 10 4 10 6 0 11 -4 11 -10z
m-5290 -21 c0 -18 -2 -19 -15 -9 -15 12 -12 30 6 30 5 0 9 -10 9 -21z m1481
-30 c-26 -24 -27 -16 -3 16 9 13 19 19 21 13 2 -5 -6 -18 -18 -29z m-87 -3
c-3 -9 -10 -13 -16 -10 -5 3 -4 12 3 20 15 18 22 13 13 -10z m3455 -34 c1 -7
-3 -10 -9 -7 -5 3 -10 21 -9 38 1 31 1 31 9 7 4 -14 8 -31 9 -38z m-1394 19
c-3 -6 -14 -11 -23 -11 -15 1 -15 2 2 15 21 16 32 13 21 -4z m1828 -13 c-6
-11 -31 -10 -37 1 -3 5 5 8 18 7 13 0 22 -4 19 -8z m-3737 -45 c-10 -10 -19 5
-10 18 6 11 8 11 12 0 2 -7 1 -15 -2 -18z m-226 -43 c-22 -21 -40 -43 -40 -47
0 -4 -16 -25 -35 -47 -19 -21 -35 -42 -35 -48 0 -5 -5 -6 -10 -3 -6 4 -7 11
-4 17 4 6 -1 8 -15 3 -29 -9 -27 -4 15 36 27 25 33 28 25 12 -10 -19 -9 -22 3
-17 9 3 18 16 22 27 4 12 22 35 41 51 19 16 32 35 29 43 -4 9 3 13 20 13 24 0
23 -1 -16 -40z m3452 -2 c-7 -7 -12 -8 -12 -2 0 14 12 26 19 19 2 -3 -1 -11
-7 -17z m-3532 -32 c0 -3 -4 -8 -10 -11 -5 -3 -10 -1 -10 4 0 6 5 11 10 11 6
0 10 -2 10 -4z m-170 -31 c-7 -8 -18 -15 -24 -15 -6 0 -2 7 8 15 25 19 32 19
16 0z m-1200 -45 c0 -11 -2 -20 -4 -20 -2 0 -6 9 -9 20 -3 11 -1 20 4 20 5 0
9 -9 9 -20z m1259 11 c10 -7 11 -12 1 -27 -9 -16 -11 -16 -6 -2 3 10 -2 22
-12 27 -9 6 -12 10 -7 11 6 0 16 -4 24 -9z m4201 -36 c22 -14 44 -25 50 -25 5
0 10 -4 10 -9 0 -14 -42 0 -64 21 -11 10 -25 18 -32 18 -7 0 -16 5 -19 10 -11
18 14 11 55 -15z m-4270 1 c0 -3 -4 -8 -10 -11 -5 -3 -10 -1 -10 4 0 6 5 11
10 11 6 0 10 -2 10 -4z m108 -20 c9 3 1 -4 -18 -14 -41 -23 -52 -20 -24 7 10
10 20 15 22 10 2 -4 11 -6 20 -3z m3582 -27 c0 -14 -7 -19 -26 -19 -14 0 -23
4 -19 10 3 6 13 10 22 10 10 0 13 6 9 16 -3 8 -2 12 4 9 6 -3 10 -15 10 -26z
m375 11 c3 -5 1 -10 -4 -10 -6 0 -11 5 -11 10 0 6 2 10 4 10 3 0 8 -4 11 -10z
m465 0 c0 -5 -5 -10 -11 -10 -5 0 -7 5 -4 10 3 6 8 10 11 10 2 0 4 -4 4 -10z
m805 -55 c-8 -49 -22 -47 -19 2 1 15 3 37 3 48 1 13 4 16 12 8 7 -7 8 -28 4
-58z m-1792 28 c-7 -2 -19 -2 -25 0 -7 3 -2 5 12 5 14 0 19 -2 13 -5z m54 1
c-3 -3 -12 -4 -19 -1 -8 3 -5 6 6 6 11 1 17 -2 13 -5z m768 -4 c3 -5 1 -10 -4
-10 -6 0 -11 5 -11 10 0 6 2 10 4 10 3 0 8 -4 11 -10z m408 -16 c10 -13 16
-30 14 -37 -3 -7 -6 -4 -6 6 -1 9 -4 17 -9 17 -4 0 -13 9 -20 20 -18 29 0 24
21 -6z m-836 10 c-3 -3 -12 -4 -19 -1 -8 3 -5 6 6 6 11 1 17 -2 13 -5z m-252
-14 c-51 -11 -77 -12 -72 -2 3 4 29 8 59 9 52 1 52 1 13 -7z m-3435 -5 c0 -2
-10 -9 -22 -15 -22 -11 -22 -10 -4 4 21 17 26 19 26 11z m4696 -73 c-4 -3 -14
2 -24 12 -16 18 -16 18 6 6 13 -6 21 -14 18 -18z m-5096 -42 c0 -5 -5 -10 -11
-10 -5 0 -7 5 -4 10 3 6 8 10 11 10 2 0 4 -4 4 -10z m1950 -40 c0 -5 -4 -10
-10 -10 -5 0 -10 5 -10 10 0 6 5 10 10 10 6 0 10 -4 10 -10z m1280 -47 c63
-25 95 -43 74 -43 -6 0 -39 11 -74 25 -73 29 -70 28 -70 15 0 -5 8 -10 18 -10
9 0 26 -7 36 -15 11 -8 28 -15 38 -15 19 0 38 -28 31 -47 -3 -7 0 -13 5 -13 6
0 14 10 18 22 6 21 7 21 20 3 12 -17 14 -17 14 -2 0 9 2 17 5 17 16 0 105 -56
105 -66 0 -6 10 -14 21 -17 17 -4 19 -3 10 6 -24 24 -12 45 31 52 l41 7 -24
19 c-19 15 -3 12 67 -13 88 -30 90 -32 72 -50 -10 -10 -29 -18 -43 -18 -18 0
-23 -4 -18 -16 5 -15 3 -15 -26 0 -36 19 -41 30 -8 21 20 -6 20 -4 -6 19 -15
14 -36 26 -45 26 -15 -1 -15 -2 2 -15 17 -13 17 -15 2 -30 -21 -21 -20 -31 2
-47 35 -25 33 -38 -1 -15 -47 32 -96 51 -105 42 -4 -4 -2 -10 5 -12 6 -2 21
-13 34 -24 12 -10 28 -19 36 -19 7 0 13 -4 13 -10 0 -15 -11 -12 -55 15 -22
14 -46 28 -53 31 -16 8 -30 -4 -17 -14 6 -4 16 -19 22 -34 7 -16 19 -28 27
-28 20 0 76 -83 76 -112 0 -24 34 -83 48 -83 5 0 20 -12 33 -27 31 -34 69 -46
69 -22 0 18 -27 54 -42 54 -4 0 -8 -7 -8 -15 0 -23 -18 -18 -26 7 -4 13 -2 24
5 26 16 5 14 47 -4 62 -8 6 -26 33 -40 58 l-25 47 44 -49 c29 -33 45 -45 48
-35 4 12 7 12 21 1 9 -8 13 -20 10 -28 -3 -8 0 -14 6 -14 15 0 44 -67 36 -80
-4 -6 -2 -10 4 -10 5 0 15 -17 22 -37 6 -21 23 -58 36 -82 13 -24 22 -46 19
-48 -3 -3 -11 6 -17 21 -15 32 -56 61 -62 43 -3 -9 -8 -9 -20 2 -9 7 -15 17
-12 21 5 7 -25 22 -72 35 -27 8 -27 7 -8 -38 18 -42 19 -57 5 -57 -5 0 -10 5
-10 11 0 19 -55 89 -70 89 -13 0 -15 -24 -14 -160 1 -88 -2 -160 -7 -160 -11
0 -19 45 -23 137 -3 45 -8 88 -12 94 -4 7 -7 26 -8 42 -1 17 -7 32 -14 35 -11
3 -12 0 -3 -17 10 -17 9 -21 -4 -21 -8 0 -15 3 -15 8 0 4 -5 25 -10 47 -7 34
-7 37 4 23 20 -27 28 -22 22 12 -2 17 -16 40 -30 51 -14 11 -26 28 -26 38 0 9
-6 23 -12 30 -11 10 -10 11 5 6 24 -10 21 8 -8 39 -36 39 -31 45 8 10 17 -17
41 -37 51 -45 18 -13 19 -12 12 6 -4 11 -9 35 -11 54 -2 21 -12 42 -27 54 -13
10 -17 16 -10 12 6 -3 12 -1 12 5 0 15 -20 34 -43 43 -10 4 -15 11 -12 17 3 5
2 10 -2 10 -5 0 -24 15 -43 33 -19 17 -51 43 -70 56 -46 32 -90 73 -90 84 0
10 21 4 110 -30z m305 17 c17 -11 26 -20 22 -20 -13 0 -77 29 -77 34 0 12 26
5 55 -14z m-2958 -30 c2 -19 -8 -26 -20 -14 -7 7 2 34 12 34 4 0 7 -9 8 -20z
m3213 10 c12 -8 11 -10 -7 -10 -12 0 -25 5 -28 10 -8 13 15 13 35 0z m-3155
-19 c-3 -6 -11 -11 -17 -11 -6 0 -6 6 2 15 14 17 26 13 15 -4z m3027 -11 c12
-11 37 -23 55 -26 50 -9 52 -26 1 -18 -24 4 -44 11 -46 16 -2 4 -10 8 -18 8
-8 0 -14 7 -14 15 0 18 -20 20 -21 3 0 -10 -2 -10 -6 0 -2 6 -11 12 -19 12 -8
0 -14 5 -14 11 0 17 57 3 82 -21z m1541 14 c18 -7 23 -39 8 -49 -5 -3 -12 4
-16 15 -3 11 -13 20 -21 20 -8 0 -14 7 -14 16 0 9 5 13 13 10 6 -3 20 -9 30
-12z m-4821 -16 c-7 -7 -12 -8 -12 -2 0 14 12 26 19 19 2 -3 -1 -11 -7 -17z
m3496 8 c-7 -8 -17 -12 -22 -9 -4 3 -2 9 5 14 22 13 31 11 17 -5z m-3408 -6
c-8 -5 -19 -10 -25 -10 -5 0 -3 5 5 10 8 5 20 10 25 10 6 0 3 -5 -5 -10z m604
1 c3 -5 -1 -11 -9 -14 -9 -4 -12 -1 -8 9 6 16 10 17 17 5z m2848 -23 c-17 -8
-26 -8 -34 0 -9 9 -4 12 23 11 32 0 33 -1 11 -11z m-515 -4 c-3 -3 -12 -4 -19
-1 -8 3 -5 6 6 6 11 1 17 -2 13 -5z m-1337 -24 c0 -5 -16 -24 -35 -42 -20 -17
-51 -55 -69 -83 -19 -28 -72 -87 -118 -130 -45 -44 -89 -92 -97 -107 -7 -14
-19 -24 -26 -22 -6 3 -18 -3 -26 -12 -12 -16 -12 -17 3 -11 12 4 15 2 12 -8
-3 -8 -14 -17 -25 -20 -19 -6 -27 -35 -10 -35 26 0 191 181 191 209 0 13 10
14 29 2 10 -7 4 -18 -28 -51 -34 -35 -71 -91 -71 -107 0 -6 101 79 122 102 10
11 21 30 24 43 3 12 11 22 16 22 6 0 8 -6 5 -12 -2 -7 -8 -24 -12 -38 -7 -25
-7 -24 26 6 31 28 101 78 139 99 8 4 -4 -12 -28 -36 -34 -37 -40 -47 -30 -58
11 -11 9 -13 -9 -8 -30 7 -65 -19 -58 -43 3 -10 1 -21 -5 -25 -6 -3 -10 3 -10
15 0 12 -4 18 -10 15 -5 -3 -10 -15 -10 -27 0 -11 -8 -22 -19 -25 -22 -6 -37
-33 -18 -33 7 0 18 5 25 12 7 7 12 8 12 2 0 -5 -25 -34 -56 -64 -55 -54 -93
-110 -75 -110 5 0 11 7 14 14 3 8 20 22 36 31 46 24 39 0 -19 -65 -27 -30 -50
-58 -50 -62 0 -5 -6 -8 -12 -8 -7 0 -26 -16 -41 -35 -15 -19 -23 -35 -17 -35
6 0 -2 -16 -17 -35 -15 -19 -31 -35 -35 -35 -4 0 -31 -22 -60 -50 -46 -44
-100 -71 -114 -57 -3 3 -17 -6 -31 -19 -14 -13 -44 -29 -67 -36 -23 -7 -43
-15 -46 -18 -14 -17 -72 -51 -77 -46 -8 7 -11 4 65 55 34 24 62 46 62 49 0 4
-14 8 -30 9 -26 2 -44 -12 -134 -102 -57 -58 -108 -105 -113 -105 -5 0 -32
-21 -58 -47 -27 -27 -45 -42 -41 -35 9 15 -6 16 -22 0 -9 -9 -12 -9 -12 0 0 7
19 25 43 42 54 38 237 221 237 237 0 6 -5 13 -12 15 -6 2 26 45 70 95 45 50
82 93 82 96 0 7 -52 -37 -132 -113 -72 -68 -98 -87 -98 -72 0 5 11 14 25 20
14 6 25 16 25 22 0 15 -16 12 -30 -5 -7 -8 -18 -15 -24 -15 -6 0 5 15 25 34
19 18 57 56 83 84 44 47 47 53 34 71 -13 19 -17 16 -58 -52 -25 -39 -60 -85
-78 -101 -22 -19 -29 -32 -22 -36 8 -5 -5 -20 -34 -40 -25 -19 -46 -39 -46
-47 0 -7 -11 -15 -25 -19 -13 -3 -29 -12 -36 -20 -6 -8 -18 -14 -27 -14 -13 0
-13 3 2 19 9 10 25 34 35 52 42 80 57 104 66 111 6 5 5 8 -3 8 -9 0 -7 8 7 26
12 15 21 31 21 37 0 5 8 16 18 23 10 8 12 13 5 14 -7 0 -13 5 -13 11 0 5 5 7
11 3 12 -7 29 12 29 34 0 6 -8 12 -18 12 -18 0 -42 -37 -42 -64 0 -6 -6 -20
-12 -28 -11 -14 -15 -15 -26 -3 -10 12 -6 21 19 50 18 20 29 41 25 50 -9 23 4
44 35 61 16 8 29 19 29 25 0 6 -6 7 -12 4 -7 -4 32 36 87 89 55 52 105 94 110
92 6 -2 19 4 29 13 18 15 19 15 13 -2 -4 -10 -7 -23 -7 -28 0 -4 -7 -6 -15 -3
-11 4 -15 -1 -16 -17 0 -13 -3 -18 -6 -11 -7 17 -40 15 -46 -2 -4 -11 -1 -13
10 -9 16 6 12 -2 -72 -147 -67 -115 -107 -192 -102 -196 2 -3 19 16 38 41 19
25 42 55 52 68 10 12 21 34 24 49 3 15 9 26 13 23 4 -3 11 11 14 30 10 50 47
105 68 99 12 -3 18 3 23 25 6 29 45 74 45 53 0 -21 -54 -112 -67 -112 -6 0
-21 -21 -34 -47 -12 -27 -33 -63 -47 -81 -13 -18 -22 -35 -19 -38 2 -3 24 26
47 63 24 37 45 62 48 55 2 -7 -8 -31 -22 -53 -20 -30 -22 -37 -8 -28 24 15 54
63 76 122 17 44 36 63 36 35 0 -7 9 2 20 20 11 18 20 38 20 45 0 6 -8 0 -18
-15 -32 -52 -32 -28 0 30 17 31 47 86 66 122 46 87 106 176 152 225 21 22 42
49 48 60 10 17 11 17 12 3 0 -9 -4 -20 -10 -23 -5 -3 -10 -11 -10 -18 0 -6 13
4 30 23 48 57 34 12 -15 -48 -25 -30 -45 -59 -45 -65 0 -5 -6 -15 -14 -21 -17
-14 -33 -62 -17 -52 17 11 14 1 -20 -56 -18 -29 -34 -68 -36 -86 -5 -32 -4
-33 16 -23 11 7 28 25 37 42 21 42 29 30 10 -16 l-16 -37 29 29 c17 15 57 53
90 83 33 30 61 59 61 64 0 10 68 94 130 159 25 26 47 52 48 57 5 13 42 13 42
0z m-752 -20 c-7 -11 -16 -20 -20 -20 -3 0 -15 -3 -25 -6 -12 -4 -9 2 10 20
33 31 52 34 35 6z m2627 0 c-18 -20 -35 -26 -35 -12 0 4 10 12 23 18 32 16 32
16 12 -6z m-5055 -4 c0 -2 -8 -10 -17 -17 -16 -13 -17 -12 -4 4 13 16 21 21
21 13z m6404 -8 c31 -13 60 -54 46 -63 -14 -8 -50 13 -50 30 0 7 -7 21 -16 29
-18 19 -14 20 20 4z m-3437 -60 c-14 -29 -32 -71 -41 -92 -9 -22 -18 -37 -21
-34 -3 3 8 35 25 71 16 37 30 73 30 80 0 14 21 39 28 32 2 -2 -7 -28 -21 -57z
m2026 55 c-7 -2 -21 -2 -30 0 -10 3 -4 5 12 5 17 0 24 -2 18 -5z m167 -60 c0
-19 -17 -16 -24 5 -3 9 -9 24 -12 32 -5 10 0 9 15 -4 11 -11 21 -25 21 -33z
m-2010 -28 c-26 -28 -17 -34 12 -8 24 22 23 12 -2 -17 -11 -13 -20 -29 -20
-35 0 -7 -7 -18 -15 -25 -10 -8 -15 -9 -15 -2 0 7 -8 9 -17 5 -14 -5 -12 1 7
22 19 21 21 27 8 22 -27 -10 -22 1 19 38 42 38 59 38 23 0z m2105 -8 c11 -6
31 -20 45 -31 l25 -18 -24 7 c-35 11 -121 65 -121 76 0 9 24 -2 75 -34z
m-1875 24 c0 -12 -20 -25 -27 -18 -7 7 6 27 18 27 5 0 9 -4 9 -9z m-1086 -46
c-29 -22 -42 -17 -15 6 13 11 26 17 29 14 3 -3 -3 -12 -14 -20z m2046 -19 c0
-6 -7 -2 -15 8 -8 11 -15 25 -15 30 0 6 7 2 15 -8 8 -11 15 -25 15 -30z
m-2241 2 c-8 -14 -14 -18 -17 -10 -4 13 17 46 25 38 3 -2 -1 -15 -8 -28z
m4471 -78 c0 -14 -19 -31 -38 -35 -19 -3 -21 0 -18 26 2 16 -1 29 -5 29 -5 0
-9 7 -9 15 0 8 -4 15 -9 15 -10 0 -26 -74 -23 -110 2 -20 0 -22 -8 -10 -13 20
-13 121 1 157 l11 28 48 -55 c27 -30 49 -57 50 -60z m-3260 64 c0 -2 -15 -4
-32 -4 -23 0 -29 3 -19 9 12 8 51 4 51 -5z m-436 -28 c-6 -16 -24 -23 -24 -8
0 10 22 33 27 28 2 -2 1 -11 -3 -20z m174 -5 c-13 -15 -27 -26 -31 -24 -10 6
32 53 46 53 4 0 -2 -13 -15 -29z m-780 -20 c-47 -43 -60 -39 -14 5 21 19 40
33 43 31 3 -3 -10 -19 -29 -36z m2579 -14 c27 -29 9 -29 -30 0 -47 36 -58 61
-16 36 17 -10 38 -26 46 -36z m58 43 c3 -5 -1 -10 -9 -10 -8 0 -18 5 -21 10
-3 6 1 10 9 10 8 0 18 -4 21 -10z m-2495 -15 c-7 -9 -15 -13 -19 -10 -3 3 1
10 9 15 21 14 24 12 10 -5z m840 2 c0 -2 -14 -16 -31 -33 -26 -24 -30 -25 -20
-7 11 22 51 53 51 40z m1082 -11 c21 -5 35 -12 32 -17 -3 -5 0 -9 5 -9 6 0 11
7 11 17 0 11 11 3 34 -23 37 -42 30 -60 -10 -23 -31 29 -30 18 6 -93 17 -50
30 -105 31 -122 1 -30 1 -30 9 -6 6 16 7 -3 5 -55 -2 -44 -4 -89 -4 -99 -1
-19 -8 -20 -11 -1 -2 6 -14 15 -28 21 -21 8 -29 23 -45 80 -10 38 -18 81 -18
97 0 15 -4 27 -8 27 -5 0 -7 8 -5 18 3 9 -2 36 -10 60 -8 23 -12 42 -8 42 4 0
14 -20 21 -44 7 -25 20 -47 28 -50 10 -4 14 -15 11 -31 -3 -14 -1 -25 4 -25 5
0 14 -12 20 -27 21 -52 20 1 -1 62 -11 31 -23 76 -27 100 -7 47 -35 85 -62 85
-10 0 -27 7 -38 15 -19 15 -19 15 1 11 11 -1 37 -6 57 -10z m448 -1 c7 -8 8
-15 2 -15 -5 0 -15 7 -22 15 -7 8 -8 15 -2 15 5 0 15 -7 22 -15z m187 -20 c18
-11 33 -24 33 -28 0 -10 -57 23 -73 42 -14 16 -5 13 40 -14z m-1590 -12 c-9
-9 -20 -14 -24 -10 -3 4 2 14 13 21 10 8 21 12 23 10 3 -2 -3 -12 -12 -21z
m-3315 -5 c-7 -7 -12 -8 -12 -2 0 14 12 26 19 19 2 -3 -1 -11 -7 -17z m4823
12 c3 -5 1 -10 -4 -10 -6 0 -11 5 -11 10 0 6 2 10 4 10 3 0 8 -4 11 -10z
m-2526 -54 c-18 -25 -40 -46 -48 -46 -13 0 -14 -2 -2 -9 11 -7 10 -16 -10 -47
-12 -22 -36 -55 -51 -75 -17 -21 -26 -42 -23 -51 8 -19 -13 -62 -46 -99 -32
-34 -95 -129 -138 -210 -48 -88 -80 -130 -81 -106 0 17 55 117 107 196 25 36
34 82 10 49 -31 -42 -119 -184 -155 -248 -13 -25 -29 -49 -34 -55 -32 -34 84
184 133 251 21 29 39 65 41 85 1 19 11 40 21 47 9 7 17 21 17 30 1 27 20 55
83 122 57 60 80 73 57 31 -17 -34 -4 -24 19 13 12 18 21 42 21 53 0 10 6 25
13 32 6 6 12 17 12 24 0 6 12 17 26 24 15 7 32 20 39 28 7 9 15 13 17 11 3 -3
-10 -25 -28 -50z m268 13 c-28 -46 -72 -76 -81 -54 -2 7 4 21 15 31 11 10 19
12 19 5 0 -6 14 4 31 24 41 46 46 44 16 -6z m3083 31 c8 -5 11 -10 5 -10 -5 0
-17 5 -25 10 -8 5 -10 10 -5 10 6 0 17 -5 25 -10z m-2849 -23 c-10 -9 -11 -8
-5 6 3 10 9 15 12 12 3 -3 0 -11 -7 -18z m-580 -5 c-5 -9 -19 -26 -32 -37 -26
-23 -17 -2 14 33 25 27 31 28 18 4z m2564 -9 l18 -28 -21 19 c-12 11 -22 23
-22 28 0 14 7 9 25 -19z m645 -3 c8 -5 10 -10 4 -10 -7 0 -22 9 -35 21 -19 16
-20 18 -4 10 11 -6 27 -15 35 -21z m-1263 -2 c-3 -8 -6 -5 -6 6 -1 11 2 17 5
13 3 -3 4 -12 1 -19z m-929 -17 c-7 -12 -20 -21 -30 -21 -9 0 -20 -4 -23 -10
-3 -5 -11 -10 -17 -10 -14 0 27 40 57 56 26 14 29 11 13 -15z m1629 -8 c22
-21 48 -43 59 -50 17 -10 17 -12 2 -12 -9 -1 -20 4 -23 10 -4 5 -18 14 -30 19
-20 7 -65 70 -51 70 2 0 21 -17 43 -37z m-2702 17 c-3 -5 -10 -10 -16 -10 -5
0 -9 5 -9 10 0 6 7 10 16 10 8 0 12 -4 9 -10z m2215 -12 c11 -12 20 -26 20
-30 0 -14 -49 26 -50 40 0 17 6 15 30 -10z m248 3 c-7 -11 -16 -17 -20 -15
-14 9 -9 22 10 27 9 3 18 5 20 6 1 0 -3 -8 -10 -18z m655 12 c-7 -2 -19 -2
-25 0 -7 3 -2 5 12 5 14 0 19 -2 13 -5z m-263 -23 c38 -38 20 -41 -25 -5 -23
19 -26 25 -12 25 9 0 26 -9 37 -20z m-1630 -5 c-14 -17 -30 -20 -30 -6 0 5 8
12 18 14 9 3 19 5 21 6 2 0 -2 -6 -9 -14z m3390 1 c0 -3 -4 -8 -10 -11 -5 -3
-10 -1 -10 4 0 6 5 11 10 11 6 0 10 -2 10 -4z m-6870 -16 c0 -5 -4 -10 -10
-10 -5 0 -10 5 -10 10 0 6 5 10 10 10 6 0 10 -4 10 -10z m2495 -30 c-13 -21
-147 -145 -169 -157 -13 -7 -31 -24 -40 -38 -10 -15 -20 -24 -24 -21 -6 7 107
126 120 126 4 0 30 23 57 50 47 47 71 64 56 40z m2025 -95 c1 -22 5 -62 10
-90 5 -29 4 -54 -1 -59 -6 -6 -9 -6 -9 0 0 10 -18 174 -24 219 l-5 30 14 -30
c8 -16 15 -48 15 -70z m-1080 70 c-7 -9 -15 -13 -17 -11 -7 7 7 26 19 26 6 0
6 -6 -2 -15z m1453 1 c9 -7 17 -18 17 -24 0 -5 8 -13 17 -16 14 -6 14 -9 -6
-22 -26 -19 -33 -15 -34 23 -1 15 -9 33 -17 40 -20 17 1 16 23 -1z m-1649 -11
c-4 -8 -11 -15 -16 -15 -6 0 -5 6 2 15 7 8 14 15 16 15 2 0 1 -7 -2 -15z
m1046 -28 c0 -24 -3 -28 -10 -17 -13 20 -13 63 0 55 6 -3 10 -21 10 -38z
m2263 33 c15 0 27 -5 27 -10 0 -13 -81 -2 -95 13 -7 6 -2 8 15 3 14 -3 37 -6
53 -6z m-6560 -14 c4 -10 1 -13 -8 -9 -8 3 -12 9 -9 14 7 12 11 11 17 -5z
m4352 -25 c19 -28 25 -46 20 -63 -5 -18 -4 -20 4 -8 8 11 11 -11 10 -80 0 -94
-1 -95 -15 -56 -7 21 -19 67 -25 102 -6 35 -15 67 -20 70 -8 5 -13 74 -5 74 2
0 16 -18 31 -39z m2310 29 c-3 -5 -17 -10 -31 -10 -14 0 -22 4 -19 10 3 6 17
10 31 10 14 0 22 -4 19 -10z m-3463 -42 c-8 -8 -9 -4 -5 13 4 13 8 18 11 10 2
-7 -1 -18 -6 -23z m258 28 c0 -2 -8 -10 -17 -17 -16 -13 -17 -12 -4 4 13 16
21 21 21 13z m-1320 -19 c0 -2 -10 -12 -22 -23 l-23 -19 19 23 c18 21 26 27
26 19z m982 -19 c-7 -7 -12 -8 -12 -2 0 14 12 26 19 19 2 -3 -1 -11 -7 -17z
m1663 2 c3 -5 2 -10 -4 -10 -5 0 -13 5 -16 10 -3 6 -2 10 4 10 5 0 13 -4 16
-10z m325 0 c0 -5 -2 -10 -4 -10 -3 0 -8 5 -11 10 -3 6 -1 10 4 10 6 0 11 -4
11 -10z m1610 1 c0 -14 -18 -23 -30 -16 -6 4 -8 11 -5 16 8 12 35 12 35 0z
m-3495 -31 c-10 -11 -20 -18 -23 -15 -3 3 3 14 13 25 10 11 20 18 23 15 3 -3
-3 -14 -13 -25z m119 16 c-6 -16 -34 -30 -34 -18 0 5 5 13 12 20 16 16 29 15
22 -2z m76 -1 c-7 -9 -15 -13 -17 -11 -7 7 7 26 19 26 6 0 6 -6 -2 -15z m60
-5 c0 -5 -5 -10 -11 -10 -5 0 -7 5 -4 10 3 6 8 10 11 10 2 0 4 -4 4 -10z m757
-22 c-3 -8 -6 -5 -6 6 -1 11 2 17 5 13 3 -3 4 -12 1 -19z m-207 -128 c-4 -63
-8 -102 -8 -87 -1 15 -11 45 -22 67 -20 39 -20 39 0 50 15 8 18 15 11 33 -5
13 -7 36 -4 51 5 23 8 25 18 14 10 -10 11 -41 5 -128z m285 65 c0 -35 -3 -59
-7 -52 -10 16 -10 133 0 123 4 -4 7 -36 7 -71z m-2840 55 c-3 -5 -12 -10 -18
-10 -7 0 -6 4 3 10 19 12 23 12 15 0z m605 6 c0 -3 -4 -8 -10 -11 -5 -3 -10
-1 -10 4 0 6 5 11 10 11 6 0 10 -2 10 -4z m1393 -27 c-23 -39 -46 -60 -37 -33
7 18 43 64 51 64 2 0 -4 -14 -14 -31z m592 11 c3 -5 1 -10 -4 -10 -6 0 -11 5
-11 10 0 6 2 10 4 10 3 0 8 -4 11 -10z m765 -5 c7 -8 8 -15 2 -15 -5 0 -15 7
-22 15 -7 8 -8 15 -2 15 5 0 15 -7 22 -15z m-1714 -59 c-26 -30 -46 -61 -44
-68 3 -14 -105 -128 -122 -128 -5 0 -10 18 -10 40 0 22 5 40 10 40 6 0 10 7
10 15 0 8 18 32 40 52 22 21 40 44 40 51 0 6 7 12 15 12 23 0 18 -13 -20 -50
-19 -19 -35 -42 -35 -52 0 -23 19 -23 27 0 11 30 123 155 131 147 3 -2 -17
-29 -42 -59z m248 42 c-4 -13 -15 -28 -24 -35 -9 -7 -37 -40 -61 -73 -24 -34
-59 -78 -78 -98 l-33 -37 23 40 c49 87 153 223 172 224 5 1 5 -9 1 -21z m826
-37 c0 -11 -4 -9 -14 4 -8 11 -12 24 -9 28 7 11 23 -12 23 -32z m1020 7 c0 -6
-7 -5 -15 2 -8 7 -15 17 -15 22 0 6 7 5 15 -2 8 -7 15 -17 15 -22z m-5315 7
c-16 -7 -32 -11 -35 -9 -7 8 24 24 45 23 15 0 13 -4 -10 -14z m3752 1 c0 -7
-15 -19 -33 -25 -21 -7 -34 -20 -37 -34 -4 -20 -4 -20 -5 3 -1 18 8 31 31 47
39 26 44 27 44 9z m-2281 -24 c-18 -16 -18 -16 -6 6 6 13 14 21 18 18 3 -4 -2
-14 -12 -24z m-256 14 c0 -3 -4 -8 -10 -11 -5 -3 -10 -1 -10 4 0 6 5 11 10 11
6 0 10 -2 10 -4z m2100 -6 c0 -5 -5 -10 -11 -10 -5 0 -7 5 -4 10 3 6 8 10 11
10 2 0 4 -4 4 -10z m622 -41 l-9 -24 -8 24 c-5 16 -3 26 6 32 18 11 22 -1 11
-32z m245 -42 c-7 -80 -35 -189 -36 -140 -1 12 4 34 9 49 10 27 19 88 20 147
0 15 3 27 6 27 4 0 4 -37 1 -83z m-3423 62 c-7 -11 -66 -39 -83 -39 -5 0 -12
7 -15 16 -5 12 -2 15 10 10 9 -4 22 -2 28 3 10 8 35 16 59 20 5 0 5 -4 1 -10z
m391 1 c-3 -5 -13 -10 -21 -10 -8 0 -12 5 -9 10 3 6 13 10 21 10 8 0 12 -4 9
-10z m2586 -26 c-11 -15 -21 -32 -21 -40 0 -7 -6 -25 -14 -41 -18 -38 -37 -92
-43 -125 -10 -55 -31 -17 -24 40 2 10 -5 12 -21 7 -20 -5 -21 -5 -6 7 9 7 25
19 35 26 15 11 10 12 -37 8 l-54 -6 43 22 c23 11 48 31 53 44 6 13 23 27 39
33 15 5 35 21 45 36 9 14 19 23 21 21 3 -3 -4 -17 -16 -32z m119 26 c0 -5 -5
-10 -11 -10 -5 0 -7 5 -4 10 3 6 8 10 11 10 2 0 4 -4 4 -10z m-2810 -4 c0 -3
-4 -8 -10 -11 -5 -3 -10 -1 -10 4 0 6 5 11 10 11 6 0 10 -2 10 -4z m55 -6 c-3
-5 -14 -10 -23 -10 -15 0 -15 2 -2 10 20 13 33 13 25 0z m96 -11 c-13 -11 -27
-17 -30 -13 -7 7 28 34 43 34 6 -1 0 -10 -13 -21z m-668 4 c-7 -2 -19 -2 -25
0 -7 3 -2 5 12 5 14 0 19 -2 13 -5z m367 -3 c0 -5 -5 -10 -11 -10 -5 0 -7 5
-4 10 3 6 8 10 11 10 2 0 4 -4 4 -10z m2650 4 c0 -3 -9 -17 -20 -31 -22 -28
-28 -15 -8 17 12 19 28 27 28 14z m19 -30 c-6 -16 -13 -24 -16 -17 -5 13 16
58 23 50 3 -2 -1 -17 -7 -33z m705 -31 c-1 -38 -3 -70 -4 -73 -6 -14 -15 59
-11 97 5 68 17 50 15 -24z m38 25 c-9 -9 -12 -7 -12 12 0 19 3 21 12 12 9 -9
9 -15 0 -24z m1931 15 c-7 -2 -19 -2 -25 0 -7 3 -2 5 12 5 14 0 19 -2 13 -5z
m-4045 -15 c-3 -7 -13 -15 -24 -17 -16 -3 -17 -1 -5 13 16 19 34 21 29 4z
m1548 -26 c-17 -16 -18 -16 -5 5 7 12 15 20 18 17 3 -2 -3 -12 -13 -22z m481
-14 c-3 -8 -6 -5 -6 6 -1 11 2 17 5 13 3 -3 4 -12 1 -19z m-114 -8 c3 -11 1
-23 -4 -26 -5 -3 -9 6 -9 20 0 31 6 34 13 6z m-186 -22 c-3 -7 -5 -2 -5 12 0
14 2 19 5 13 2 -7 2 -19 0 -25z m-449 9 c-7 -7 -24 -30 -38 -50 -14 -20 -29
-37 -35 -37 -5 0 -33 -25 -61 -56 -29 -31 -57 -53 -63 -49 -6 3 -14 -1 -17 -9
-3 -9 -10 -16 -14 -16 -12 0 -9 59 3 67 6 4 8 0 4 -10 -3 -9 -3 -19 2 -21 14
-9 52 26 87 80 34 53 49 69 38 39 -11 -29 12 -15 49 30 21 25 43 45 48 45 6 0
4 -6 -3 -13z m-2119 -67 c-42 -62 -53 -73 -42 -42 6 18 71 102 79 102 2 0 -14
-27 -37 -60z m451 45 c-7 -8 -17 -15 -22 -15 -6 0 -5 7 2 15 7 8 17 15 22 15
6 0 5 -7 -2 -15z m2062 -9 c17 5 18 3 10 -13 -18 -32 -49 -52 -61 -40 -16 16
-14 27 4 21 9 -4 15 0 15 10 0 9 -3 15 -7 15 -20 -3 -24 2 -12 17 11 14 13 14
21 -1 6 -10 16 -14 30 -9z m-4317 -16 c3 -5 1 -10 -4 -10 -6 0 -11 5 -11 10 0
6 2 10 4 10 3 0 8 -4 11 -10z m1369 -47 c-10 -56 -23 -76 -24 -35 0 27 17 72
28 72 2 0 0 -17 -4 -37z m1418 15 c-7 -7 -12 -8 -12 -2 0 14 12 26 19 19 2 -3
-1 -11 -7 -17z m678 9 c11 3 20 1 20 -5 0 -9 -50 -75 -131 -175 -27 -33 -98
-87 -114 -87 -19 0 43 82 89 119 31 24 62 51 68 60 8 10 4 9 -10 -3 -26 -22
-33 -19 -25 12 3 13 12 21 22 20 11 -2 15 3 13 15 -2 12 4 21 17 24 12 3 21
13 22 22 0 9 3 11 5 5 3 -7 14 -10 24 -7z m3850 3 c0 -5 -15 -10 -32 -9 -31 1
-32 1 -8 9 35 11 40 11 40 0z m-4620 -8 c0 -5 -7 -17 -16 -28 -8 -10 -14 -14
-11 -9 2 6 7 18 10 28 7 17 17 23 17 9z m-531 -25 c-34 -27 -99 -64 -99 -57 0
11 92 71 99 64 2 -2 2 -5 0 -7z m5064 -4 c-7 -2 -19 -2 -25 0 -7 3 -2 5 12 5
14 0 19 -2 13 -5z m137 -1 c0 -10 -77 -32 -135 -38 -30 -4 -36 -2 -25 5 8 6
24 11 35 11 11 0 31 7 45 14 28 16 80 21 80 8z m-3413 -24 c-3 -8 -6 -5 -6 6
-1 11 2 17 5 13 3 -3 4 -12 1 -19z m3643 17 c0 -10 -120 -65 -142 -65 -12 0
-41 -9 -64 -20 -23 -12 -60 -23 -81 -26 l-38 -4 40 15 c22 9 46 22 54 30 12
11 5 13 -48 8 -38 -4 -61 -2 -61 4 0 15 133 28 138 14 2 -6 8 -8 14 -5 6 4 27
8 47 9 20 2 56 12 81 23 47 22 60 25 60 17z m-360 -49 c0 -3 -4 -8 -10 -11 -5
-3 -10 -1 -10 4 0 6 5 11 10 11 6 0 10 -2 10 -4z m-3301 -70 c-9 -8 -10 -5 -5
14 3 14 6 32 7 40 1 8 4 2 6 -14 3 -16 -1 -34 -8 -40z m331 39 c8 5 11 1 8
-11 -2 -12 -12 -19 -26 -20 -16 -1 -21 3 -18 13 3 8 6 20 6 26 0 8 4 7 9 -2 5
-7 14 -10 21 -6z m87 -17 c-3 -8 -6 -5 -6 6 -1 11 2 17 5 13 3 -3 4 -12 1 -19z
m223 8 c0 -3 -4 -8 -10 -11 -5 -3 -10 -1 -10 4 0 6 5 11 10 11 6 0 10 -2 10
-4z m-1655 -16 c-11 -5 -31 -9 -45 -9 -15 -1 -32 -7 -40 -13 -12 -11 -12 -10
-1 4 13 17 36 25 81 26 23 1 23 0 5 -8z m155 0 c0 -5 -9 -14 -20 -20 -22 -12
-27 -1 -8 18 14 14 28 16 28 2z m-520 -49 c-10 -20 -30 -37 -30 -26 0 11 25
45 33 45 4 0 3 -9 -3 -19z m1790 -4 c0 -19 -10 -27 -26 -20 -11 4 -12 9 -3 19
15 18 29 18 29 1z m-48 -37 c3 -17 1 -33 -4 -36 -5 -3 -6 -10 -3 -15 4 -5 -8
-22 -26 -39 -35 -31 -35 -36 -4 -42 12 -2 19 2 17 10 -1 7 5 15 13 18 8 4 15
12 15 20 0 8 5 14 11 14 8 0 8 4 0 14 -16 19 13 68 35 59 10 -4 12 0 8 11 -3
9 -2 16 3 16 20 0 31 -24 26 -55 -4 -25 -1 -34 13 -39 11 -4 20 -2 22 4 3 7 8
8 16 1 9 -8 12 -6 11 7 0 9 -4 23 -8 29 -12 19 24 8 39 -12 12 -16 14 -17 20
-2 9 24 23 21 17 -3 -3 -11 -10 -20 -15 -20 -5 0 -7 -9 -3 -20 3 -10 0 -32 -8
-47 -10 -19 -12 -35 -6 -51 14 -37 -17 -73 -56 -66 -22 4 -26 2 -16 -5 12 -8
12 -12 2 -25 -10 -12 -17 -13 -31 -3 -11 6 -17 13 -14 16 2 3 -10 11 -27 18
-25 10 -29 17 -24 35 3 13 3 18 -2 12 -4 -6 -17 -14 -28 -18 -12 -5 -15 -10
-8 -13 7 -2 9 -11 6 -19 -8 -21 -23 -17 -23 7 0 12 -5 19 -12 16 -7 -2 -12
-11 -11 -18 2 -10 -12 -19 -39 -26 -50 -13 -55 -11 -33 11 15 15 15 16 0 16
-9 0 -15 6 -12 13 4 12 10 14 65 16 30 1 32 3 32 36 0 28 -4 35 -20 35 -20 0
-73 -48 -96 -86 -6 -10 -17 -15 -26 -12 -24 10 -11 57 18 64 13 3 24 12 24 20
0 8 5 14 11 14 5 0 7 5 3 11 -5 8 -9 8 -14 -1 -13 -21 -45 10 -47 45 -2 21 4
34 17 43 24 15 35 0 20 -28 -12 -23 -7 -25 22 -9 18 9 19 8 13 -10 -9 -29 9
-26 40 7 15 15 24 35 21 45 -4 16 30 66 45 67 4 0 9 -14 11 -30z m238 10 c0
-5 -4 -10 -10 -10 -5 0 -10 5 -10 10 0 6 5 10 10 10 6 0 10 -4 10 -10z m-3680
-18 c0 -4 -9 -15 -20 -25 -11 -9 -20 -29 -20 -44 -1 -16 -7 -39 -14 -52 -12
-22 -11 -71 3 -71 4 0 12 5 19 12 6 6 14 9 18 6 9 -10 -51 -113 -64 -110 -7 1
-12 -11 -12 -30 0 -49 -58 -220 -72 -212 -4 3 -5 24 -3 47 3 23 7 65 10 92 2
28 9 70 15 95 6 25 14 62 17 83 3 20 9 40 14 43 5 3 9 13 9 24 0 19 30 76 65
123 20 26 35 35 35 19z m603 -49 c-6 -14 -43 -18 -43 -5 0 13 7 18 28 18 12 0
18 -5 15 -13z m2477 4 c0 -7 -7 -22 -16 -33 -14 -17 -15 -17 -10 -1 3 10 6 25
6 33 0 8 5 14 10 14 6 0 10 -6 10 -13z m-2724 -12 c-11 -8 -27 -15 -35 -15 -9
1 -2 7 14 15 39 18 44 18 21 0z m6003 6 c11 -7 10 -11 -7 -20 -27 -14 -27 -14
-29 9 -2 21 13 26 36 11z m56 -39 c-6 -7 -35 18 -35 31 0 5 9 2 20 -8 11 -10
18 -20 15 -23z m-5725 24 c0 -11 -19 -15 -25 -6 -3 5 1 10 9 10 9 0 16 -2 16
-4z m440 -13 c0 -5 -16 -18 -36 -31 -19 -12 -32 -27 -28 -33 3 -6 11 -3 20 8
12 17 13 17 14 1 0 -12 5 -15 16 -11 14 5 15 1 9 -28 -4 -19 -15 -50 -25 -69
-10 -19 -30 -61 -46 -92 -16 -32 -35 -58 -43 -58 -7 0 -11 -6 -8 -13 3 -7 -2
-22 -10 -32 -16 -20 -16 -20 -9 0 5 18 4 18 -11 -2 -10 -13 -35 -47 -57 -78
-42 -59 -62 -63 -51 -9 4 24 2 34 -6 34 -7 0 -3 9 9 20 22 21 25 38 22 116 -1
24 4 45 11 50 9 5 11 1 7 -14 -4 -12 -4 -22 -2 -22 8 0 54 100 54 118 0 24 25
46 41 36 8 -4 9 -3 5 4 -4 7 -3 12 2 12 9 0 36 25 72 69 23 28 50 41 50 24z
m2575 -13 c-3 -5 -11 -10 -16 -10 -6 0 -7 5 -4 10 3 6 11 10 16 10 6 0 7 -4 4
-10z m2660 0 c3 -5 1 -10 -4 -10 -6 0 -11 5 -11 10 0 6 2 10 4 10 3 0 8 -4 11
-10z m-2665 -39 c0 -5 -9 -11 -20 -14 -13 -3 -20 0 -20 9 0 8 9 14 20 14 11 0
20 -4 20 -9z m-426 -16 c-4 -8 -10 -12 -15 -9 -14 8 -10 24 6 24 9 0 12 -6 9
-15z m106 -30 c-7 -9 -15 -13 -19 -10 -3 3 1 10 9 15 21 14 24 12 10 -5z m370
11 c0 -3 -4 -8 -10 -11 -5 -3 -10 -1 -10 4 0 6 5 11 10 11 6 0 10 -2 10 -4z
m-35 -16 c3 -5 1 -10 -4 -10 -6 0 -11 5 -11 10 0 6 2 10 4 10 3 0 8 -4 11 -10z
m-45 -50 c0 -5 -12 -10 -27 -9 l-28 1 25 8 c14 4 26 8 28 9 1 1 2 -3 2 -9z
m-445 -21 c0 -7 -8 -15 -17 -17 -18 -3 -25 18 -11 32 10 10 28 1 28 -15z
m-3500 -39 c-8 -16 -15 -35 -15 -42 0 -16 -60 -91 -67 -84 -6 6 80 155 90 156
4 0 1 -13 -8 -30z m3922 -24 c2 -49 0 -56 -20 -62 -12 -5 -28 -7 -36 -5 -8 1
-1 -9 15 -23 28 -24 28 -25 7 -26 -13 0 -23 3 -23 8 0 4 -10 18 -22 32 -13 14
-24 35 -25 48 -4 29 24 72 42 66 8 -3 22 -1 32 5 27 16 28 15 30 -43z m148 26
c0 -7 6 -17 14 -21 18 -11 7 -41 -15 -41 -9 0 -14 6 -11 13 3 7 -3 19 -14 25
-11 7 -16 18 -12 27 7 19 38 16 38 -3z m-385 -11 c0 -5 -7 -11 -14 -14 -10 -4
-13 -1 -9 9 6 15 23 19 23 5z m280 -41 c0 -5 -2 -10 -4 -10 -3 0 -8 5 -11 10
-3 6 -1 10 4 10 6 0 11 -4 11 -10z m-2905 -29 c-3 -5 1 -11 9 -13 13 -3 13 -6
0 -22 -12 -17 -14 -18 -14 -3 0 9 -7 17 -16 17 -14 0 -14 3 -4 15 13 16 35 21
25 6z m59 -78 c-8 -123 -27 -143 -140 -143 -43 0 -44 1 -38 28 4 15 11 29 16
30 4 2 8 14 8 27 0 13 5 27 11 31 6 3 18 22 26 41 18 44 28 37 15 -11 -6 -20
-7 -34 -3 -32 4 3 12 1 19 -3 10 -6 9 -17 -3 -50 -17 -50 -18 -54 -7 -47 4 3
14 28 22 55 7 28 19 51 25 51 16 0 35 44 35 80 0 17 4 30 10 30 6 0 8 -32 4
-87z m-564 74 c0 -9 -52 -71 -69 -84 -32 -22 -25 -7 20 42 38 41 49 51 49 42z
m3282 -53 c-4 -24 -18 -30 -38 -16 -19 12 2 51 24 45 14 -3 18 -11 14 -29z
m-3866 -15 c3 -6 1 -16 -5 -22 -6 -6 -11 -21 -11 -34 0 -16 -4 -21 -15 -17 -8
4 -15 2 -15 -4 0 -6 5 -12 11 -14 11 -4 -4 -78 -21 -103 -4 -5 -17 -36 -30
-67 -27 -69 -46 -77 -35 -15 4 23 8 60 9 82 1 28 12 57 37 95 20 30 39 67 43
83 7 28 20 35 32 16z m1262 -84 c-6 -14 -13 -23 -15 -21 -5 5 15 46 22 46 3 0
-1 -11 -7 -25z m1864 -17 c-7 -7 -12 -8 -12 -2 0 14 12 26 19 19 2 -3 -1 -11
-7 -17z m-2527 -17 c40 -7 40 -7 10 -13 -16 -3 -37 -2 -47 3 -9 5 -28 9 -42 9
-14 0 -28 5 -32 12 -5 8 3 9 32 4 21 -5 57 -11 79 -15z m-524 -67 c-12 -21
-21 -45 -21 -53 0 -8 -2 -12 -5 -9 -11 11 8 88 21 88 8 0 14 5 14 12 0 6 3 9
6 6 3 -3 -4 -23 -15 -44z m459 41 c0 -11 -41 -25 -53 -18 -8 5 -4 9 13 14 33
9 40 10 40 4z m680 -44 c-12 -24 -29 -35 -38 -26 -4 4 4 15 17 26 29 24 34 24
21 0z m2670 -11 c-18 -11 -24 -6 -16 16 5 14 9 15 19 5 9 -9 9 -14 -3 -21z
m-3753 -2 c-3 -8 -6 -5 -6 6 -1 11 2 17 5 13 3 -3 4 -12 1 -19z m3703 -48 c0
-5 -4 -10 -10 -10 -5 0 -10 5 -10 10 0 6 5 10 10 10 6 0 10 -4 10 -10z m-3334
-25 c-11 -8 -25 -15 -30 -15 -6 1 0 7 14 15 32 19 40 18 16 0z m409 5 c3 -5
-1 -10 -9 -10 -9 0 -16 -4 -16 -10 0 -5 7 -10 15 -10 12 0 14 -7 9 -27 -9 -36
-14 -44 -23 -38 -11 6 -21 73 -14 91 6 16 29 19 38 4z m265 -80 c0 -5 -5 -10
-11 -10 -5 0 -7 5 -4 10 3 6 8 10 11 10 2 0 4 -4 4 -10z m2510 -10 c0 -5 -5
-10 -11 -10 -5 0 -7 5 -4 10 3 6 8 10 11 10 2 0 4 -4 4 -10z m-2330 -20 c0 -5
-5 -10 -11 -10 -5 0 -7 5 -4 10 3 6 8 10 11 10 2 0 4 -4 4 -10z m-1549 -80
c-5 -24 -5 -24 -14 7 -5 18 -6 40 -2 50 7 16 9 15 14 -7 4 -14 5 -36 2 -50z
m-125 -467 c-10 -10 -19 5 -10 18 6 11 8 11 12 0 2 -7 1 -15 -2 -18z m3284
-314 c0 -5 -4 -9 -10 -9 -5 0 -10 7 -10 16 0 8 5 12 10 9 6 -3 10 -10 10 -16z
m-555 -99 c3 -5 1 -10 -4 -10 -6 0 -11 5 -11 10 0 6 2 10 4 10 3 0 8 -4 11
-10z m-2 -56 c-6 -16 -16 -11 -19 11 -1 8 4 11 11 8 8 -2 11 -11 8 -19z m382
-24 c3 -5 1 -11 -5 -15 -5 -3 -10 -1 -10 4 0 6 -3 10 -7 10 -23 -4 -40 3 -40
15 0 11 6 12 29 4 15 -6 30 -14 33 -18z m-2875 -391 c0 -17 -4 -28 -10 -24 -5
3 -10 17 -10 31 0 13 5 24 10 24 6 0 10 -14 10 -31z m4154 -1028 c9 -7 23 -11
32 -7 12 5 14 1 9 -15 -6 -18 -3 -20 22 -17 22 2 28 8 28 28 1 22 5 25 33 24
48 -3 66 -12 54 -27 -7 -8 -6 -17 2 -30 17 -22 36 -22 36 0 0 9 3 13 6 10 4
-3 16 0 27 8 15 11 24 12 34 3 10 -8 13 -7 14 3 0 8 4 5 8 -6 7 -16 18 -20 62
-21 30 0 48 1 41 3 -6 3 -10 9 -6 14 9 14 72 10 106 -7 17 -9 39 -13 50 -11
11 3 34 -3 51 -14 18 -10 27 -19 20 -19 -12 0 -12 -37 1 -58 4 -7 5 -16 1 -21
-10 -18 36 -23 54 -7 18 17 31 12 31 -11 0 -7 -7 -13 -15 -13 -23 0 -19 -41 5
-47 27 -7 26 -44 -1 -69 -12 -10 -23 -18 -25 -16 -2 1 -11 2 -19 2 -13 0 -12
-4 5 -22 23 -25 25 -34 8 -41 -7 -3 -5 -6 6 -6 18 -1 18 -2 2 -20 -10 -11 -15
-24 -12 -30 4 -5 2 -12 -4 -16 -5 -3 -10 -14 -10 -25 0 -10 -7 -21 -16 -24 -9
-4 -14 -9 -11 -13 4 -3 2 -14 -4 -24 -7 -14 -16 -18 -34 -13 -23 6 -25 3 -26
-27 -1 -28 -3 -29 -6 -9 -5 27 -23 52 -23 33 0 -6 -7 -19 -16 -27 -12 -12 -12
-16 -2 -16 8 0 14 -9 15 -20 2 -22 -4 -24 -27 -10 -11 7 -20 2 -36 -17 -20
-26 -22 -26 -38 -10 -10 9 -22 17 -27 17 -16 0 -24 -5 -21 -13 1 -4 -4 -15
-13 -23 -11 -11 -15 -12 -15 -3 0 10 -3 10 -12 1 -9 -9 -7 -16 8 -33 l19 -21
-38 18 c-20 10 -37 24 -37 31 0 8 -4 12 -9 8 -5 -3 -12 4 -16 15 -3 11 -9 19
-13 19 -34 -5 -59 4 -74 29 -10 15 -18 21 -18 13 0 -10 -5 -8 -18 6 -9 11 -32
24 -50 27 -23 6 -32 13 -32 28 0 14 -5 18 -15 14 -9 -3 -18 1 -21 9 -4 8 -11
15 -18 15 -6 0 -17 9 -24 20 -10 17 -10 20 5 21 11 0 13 3 5 6 -7 3 -19 0 -26
-6 -10 -9 -13 -6 -12 11 1 13 -2 31 -6 41 -6 12 -5 17 7 17 8 0 15 7 15 15 0
8 -5 15 -11 15 -6 0 -9 7 -5 15 3 8 -4 21 -17 30 -20 14 -21 15 -2 16 12 0 15
3 7 6 -7 3 -17 16 -22 29 -7 17 -14 22 -27 17 -16 -6 -16 -5 -5 10 8 9 14 32
15 52 1 25 3 31 9 20 14 -24 41 -19 33 6 -5 14 0 26 14 38 26 23 26 27 1 27
-11 0 -20 -5 -20 -11 0 -5 -4 -3 -9 4 -6 9 -6 22 0 32 6 12 5 19 -3 21 -8 3
-7 11 3 28 7 14 13 28 12 31 -3 10 35 3 51 -10z m606 -581 c0 -5 -5 -10 -11
-10 -5 0 -7 5 -4 10 3 6 8 10 11 10 2 0 4 -4 4 -10z m-40 -72 c0 -16 -3 -19
-11 -11 -6 6 -8 16 -5 22 11 17 16 13 16 -11z m-2410 -83 c0 -8 -4 -15 -10
-15 -5 0 -10 7 -10 15 0 8 5 15 10 15 6 0 10 -7 10 -15z m-119 -1435 c9 -4 40
-11 70 -15 30 -4 61 -13 70 -21 21 -19 29 -18 29 6 0 11 5 20 10 20 6 0 10 -7
10 -15 0 -23 17 -18 52 15 37 36 38 36 30 8 -4 -16 -2 -20 10 -15 9 3 22 0 29
-6 11 -10 11 -9 1 4 -6 9 -9 19 -5 22 9 10 68 8 79 -2 5 -5 27 -11 49 -13 45
-5 117 -23 188 -45 27 -9 73 -15 103 -15 30 0 56 -4 60 -9 3 -5 16 -6 29 -3
12 3 26 1 29 -5 4 -6 0 -11 -10 -11 -9 0 -22 -8 -29 -17 -16 -22 -95 -27 -95
-6 0 18 -10 16 -32 -4 -15 -13 -23 -15 -37 -6 -12 8 -32 8 -69 1 -39 -8 -59
-7 -83 3 -18 7 -42 13 -55 14 -12 0 -32 9 -43 19 -12 11 -24 16 -28 12 -4 -4
-3 -10 3 -14 15 -9 24 -61 12 -68 -5 -3 -18 2 -29 12 -18 16 -19 16 -19 -2 0
-13 -3 -15 -8 -7 -4 7 -12 9 -17 5 -12 -8 -19 -36 -8 -29 5 3 14 -1 20 -9 10
-10 10 -15 -5 -23 -16 -10 -16 -10 2 -11 15 0 17 -5 11 -27 -5 -20 -1 -31 14
-42 30 -24 18 -67 -21 -75 -17 -3 -32 -14 -34 -23 -3 -10 -16 -23 -30 -30 -25
-11 -26 -11 -20 12 5 18 2 25 -8 25 -8 0 -16 5 -18 12 -2 6 -12 12 -21 14 -14
2 -17 -6 -17 -42 0 -25 3 -43 8 -41 4 3 8 -6 8 -20 2 -25 70 -97 84 -88 4 2
18 -7 30 -20 13 -14 29 -25 37 -25 7 0 13 -9 13 -20 0 -10 10 -25 22 -31 12
-6 31 -20 42 -30 21 -21 36 -24 36 -10 0 5 9 7 20 4 24 -6 27 -23 4 -23 -8 0
-12 -5 -9 -10 4 -6 12 -7 18 -3 7 5 26 7 42 5 17 -2 44 -3 62 -3 18 1 58 -6
90 -14 31 -8 85 -15 118 -15 34 0 86 -4 116 -10 30 -5 72 -12 94 -16 22 -4 59
-6 82 -5 23 1 44 -3 48 -9 3 -5 15 -10 25 -10 25 0 92 -46 107 -73 8 -14 12
-17 13 -7 0 11 3 11 18 -3 15 -16 15 -19 2 -28 -11 -8 -12 -12 -2 -16 18 -7
15 -64 -5 -79 -16 -12 -16 -15 -3 -24 13 -8 13 -10 -1 -10 -9 0 -19 -6 -22
-14 -4 -9 -14 -12 -25 -9 -11 2 -23 0 -27 -7 -5 -8 -11 -8 -21 1 -12 10 -16 9
-20 -8 -5 -16 -13 -20 -45 -18 -21 1 -39 -1 -39 -5 0 -14 -83 -45 -87 -33 -5
15 -109 -20 -106 -36 2 -6 0 -10 -5 -9 -4 1 -27 -1 -51 -5 -27 -5 -48 -4 -56
3 -7 6 -41 13 -75 15 -34 3 -65 7 -69 9 -4 3 -27 -1 -52 -8 -48 -14 -212 -11
-217 4 -2 4 -17 4 -35 -1 -18 -5 -33 -9 -34 -9 -2 0 -3 10 -4 23 0 19 -1 20
-8 4 -6 -18 -8 -18 -21 -2 -13 16 -15 16 -27 -1 -13 -18 -14 -18 -19 4 -4 15
-18 25 -45 32 -22 6 -39 14 -39 18 0 4 -14 8 -32 8 -19 1 -38 10 -49 23 -9 11
-25 21 -34 21 -10 0 -44 27 -77 60 -33 33 -64 60 -69 60 -4 0 -20 21 -36 48
-15 26 -35 56 -45 67 -26 30 -64 85 -88 129 -12 21 -30 41 -41 43 -10 3 -19
11 -19 18 0 6 -9 20 -20 30 -11 10 -17 22 -13 28 3 5 -2 16 -12 23 -10 7 -15
20 -12 29 4 8 1 15 -6 16 -9 0 -9 2 0 6 10 3 10 9 0 24 -9 15 -9 23 1 39 15
25 15 33 0 24 -8 -5 -7 0 2 11 8 11 20 26 25 33 6 7 17 21 26 30 13 14 29 44
33 62 5 20 44 64 68 76 17 9 27 18 24 21 -12 12 15 44 33 38 13 -4 26 7 49 39
18 24 32 49 32 55 0 6 9 15 20 21 11 6 19 14 19 18 -3 18 3 20 34 11 17 -6 39
-14 48 -19z m849 -130 c0 -5 -4 -10 -9 -10 -6 0 -13 5 -16 10 -3 6 1 10 9 10
9 0 16 -4 16 -10z m40 6 c0 -3 -4 -8 -10 -11 -5 -3 -10 -1 -10 4 0 6 5 11 10
11 6 0 10 -2 10 -4z m3240 -1983 c11 -10 20 -22 20 -28 0 -12 78 -166 91 -180
14 -14 11 -25 -6 -25 -8 0 -15 7 -15 15 0 8 -4 15 -10 15 -11 0 -14 -20 -11
-57 2 -29 -15 -30 -30 -2 -8 15 -8 19 0 15 15 -10 14 19 -2 32 -7 6 -26 13
-42 16 -17 2 -32 5 -35 7 -3 1 -12 2 -20 3 -19 1 -22 49 -7 139 12 73 27 84
67 50z m-3885 -73 c-3 -5 -13 -10 -21 -10 -8 0 -14 5 -14 10 0 6 9 10 21 10
11 0 17 -4 14 -10z m-98 -118 c7 -5 9 -13 3 -22 -7 -11 -11 -11 -24 -1 -29 24
-11 43 21 23z m88 -12 c3 -5 1 -10 -4 -10 -6 0 -11 5 -11 10 0 6 2 10 4 10 3
0 8 -4 11 -10z m4200 -60 c3 -5 -3 -10 -15 -10 -12 0 -18 5 -15 10 3 6 10 10
15 10 5 0 12 -4 15 -10z"/>
<path d="M4686 10062 l-19 -27 24 22 c12 12 21 24 18 27 -2 2 -13 -8 -23 -22z"/>
<path d="M8240 9890 c20 -13 33 -13 25 0 -3 6 -14 10 -23 10 -15 0 -15 -2 -2
-10z"/>
<path d="M7570 9785 c7 -8 19 -15 27 -15 13 0 13 3 3 15 -7 8 -19 15 -27 15
-13 0 -13 -3 -3 -15z"/>
<path d="M8025 9460 c3 -5 11 -10 16 -10 6 0 7 5 4 10 -3 6 -11 10 -16 10 -6
0 -7 -4 -4 -10z"/>
<path d="M8435 9400 c-3 -5 1 -10 10 -10 9 0 13 5 10 10 -3 6 -8 10 -10 10 -2
0 -7 -4 -10 -10z"/>
<path d="M8445 9320 c-3 -5 -1 -10 4 -10 6 0 11 5 11 10 0 6 -2 10 -4 10 -3 0
-8 -4 -11 -10z"/>
<path d="M8288 9274 c13 -25 42 -50 42 -37 0 5 -12 20 -26 34 -24 21 -26 22
-16 3z"/>
<path d="M6967 9853 c-3 -5 -1 -17 4 -28 7 -17 8 -17 8 8 1 27 -4 34 -12 20z"/>
<path d="M7275 9658 c4 -13 11 -27 16 -33 5 -5 4 5 -2 23 -12 36 -24 44 -14
10z"/>
<path d="M7312 9498 c0 -32 -3 -62 -6 -67 -10 -16 32 -23 68 -11 34 11 51 33
40 51 -9 15 -24 0 -18 -19 2 -9 -5 2 -16 26 -14 27 -27 42 -40 42 -10 0 -20 8
-23 18 -2 9 -4 -9 -5 -40z m28 -17 c0 -6 -4 -13 -10 -16 -5 -3 -10 1 -10 9 0
9 5 16 10 16 6 0 10 -4 10 -9z"/>
<path d="M6552 8953 c-12 -2 -20 -9 -17 -14 9 -13 28 -11 51 6 20 15 13 17
-34 8z"/>
<path d="M6631 8755 c0 -11 2 -31 6 -43 4 -18 8 -20 14 -10 7 10 9 10 9 -3 0
-15 30 -49 43 -49 3 0 -3 16 -14 35 -12 19 -25 35 -29 35 -5 0 -13 12 -18 28
-8 21 -11 23 -11 7z"/>
<path d="M6657 8609 c7 -7 15 -10 18 -7 3 3 -2 9 -12 12 -14 6 -15 5 -6 -5z"/>
<path d="M5099 8662 c-30 -35 -32 -45 -6 -26 15 10 27 25 27 32 0 16 -3 15
-21 -6z"/>
<path d="M4866 8515 c-5 -13 -2 -14 17 -4 32 17 33 19 10 19 -12 0 -23 -7 -27
-15z"/>
<path d="M4444 8473 c-16 -21 -39 -48 -52 -60 -22 -20 -23 -24 -9 -38 21 -20
27 -19 27 5 0 11 3 20 8 20 9 0 65 100 59 106 -2 2 -17 -12 -33 -33z"/>
<path d="M4723 8345 c-62 -58 -123 -126 -137 -150 -13 -25 -23 -45 -20 -45 7
0 278 280 282 291 10 25 -25 -1 -125 -96z"/>
<path d="M4964 8428 l-19 -23 23 19 c21 18 27 26 19 26 -2 0 -12 -10 -23 -22z"/>
<path d="M4421 8266 c-17 -24 -31 -48 -31 -52 0 -4 -7 -16 -17 -26 -9 -10 -11
-18 -5 -18 10 0 52 51 52 64 0 4 10 20 22 36 12 16 19 32 16 36 -3 3 -20 -15
-37 -40z"/>
<path d="M4539 8271 c-13 -11 -21 -22 -18 -25 3 -3 16 5 29 19 28 30 22 33
-11 6z"/>
<path d="M4466 8199 c-21 -22 -35 -43 -32 -47 3 -3 7 -3 9 -1 1 2 17 21 36 41
19 21 32 40 29 43 -3 3 -22 -13 -42 -36z"/>
<path d="M4310 8148 c-48 -57 -56 -69 -64 -95 -10 -33 12 -29 25 4 5 14 26 41
45 60 22 20 34 40 32 53 -3 16 -8 13 -38 -22z"/>
<path d="M4725 8170 c-3 -5 -1 -10 4 -10 6 0 11 5 11 10 0 6 -2 10 -4 10 -3 0
-8 -4 -11 -10z"/>
<path d="M6451 8505 c0 -11 4 -27 9 -35 9 -13 10 -13 9 0 0 8 -4 24 -9 35 l-9
20 0 -20z"/>
<path d="M4210 8408 c-23 -48 -25 -57 -8 -40 11 11 39 82 32 82 -2 0 -13 -19
-24 -42z"/>
<path d="M4995 8259 c-4 -6 -5 -12 -2 -15 2 -3 7 2 10 11 7 17 1 20 -8 4z"/>
<path d="M4749 7988 c-12 -23 -12 -23 10 -4 23 21 26 26 11 26 -5 0 -15 -10
-21 -22z"/>
<path d="M5903 7833 c2 -15 9 -29 15 -31 13 -4 14 3 6 36 -9 31 -25 28 -21 -5z"/>
<path d="M6106 4647 c3 -10 9 -15 12 -12 3 3 0 11 -7 18 -10 9 -11 8 -5 -6z"/>
<path d="M6025 4471 c-3 -5 -1 -12 5 -16 5 -3 10 1 10 9 0 18 -6 21 -15 7z"/>
<path d="M4380 2382 c0 -12 19 -26 26 -19 2 2 -2 10 -11 17 -9 8 -15 8 -15 2z"/>
<path d="M4255 2070 c-3 -5 -1 -10 4 -10 6 0 11 5 11 10 0 6 -2 10 -4 10 -3 0
-8 -4 -11 -10z"/>
<path d="M4023 10233 c9 -2 23 -2 30 0 6 3 -1 5 -18 5 -16 0 -22 -2 -12 -5z"/>
<path d="M4108 10209 c-32 -35 -21 -47 17 -17 15 11 42 23 61 25 18 2 44 8 56
13 17 6 7 9 -42 8 -58 0 -68 -3 -92 -29z"/>
<path d="M3188 9863 c6 -2 18 -2 25 0 6 3 1 5 -13 5 -14 0 -19 -2 -12 -5z"/>
<path d="M3100 9850 c0 -5 4 -10 9 -10 6 0 13 5 16 10 3 6 -1 10 -9 10 -9 0
-16 -4 -16 -10z"/>
<path d="M2745 9720 c-3 -5 1 -10 10 -10 9 0 13 5 10 10 -3 6 -8 10 -10 10 -2
0 -7 -4 -10 -10z"/>
<path d="M3396 9675 c-11 -8 -15 -15 -9 -15 19 0 43 12 43 21 0 13 -12 11 -34
-6z"/>
<path d="M2785 9592 c-3 -8 -12 -11 -20 -8 -9 3 -15 0 -15 -8 0 -7 -7 -19 -16
-27 -13 -10 -13 -14 -1 -20 17 -10 87 21 87 38 0 8 10 17 22 22 20 7 19 9 -14
13 -26 3 -39 0 -43 -10z"/>
<path d="M3080 9580 c-14 -11 -20 -20 -14 -20 14 0 50 27 44 33 -3 3 -16 -3
-30 -13z"/>
<path d="M3141 9427 c-6 -8 -7 -17 -3 -22 4 -4 -2 -3 -14 3 -24 13 -58 -2 -36
-16 7 -5 10 -16 6 -25 -3 -9 -2 -17 2 -17 18 1 53 38 60 64 7 29 2 33 -15 13z"/>
<path d="M2525 9380 c-3 -5 1 -10 10 -10 9 0 13 5 10 10 -3 6 -8 10 -10 10 -2
0 -7 -4 -10 -10z"/>
<path d="M3045 9349 c-18 -11 -24 -19 -14 -19 9 0 24 9 34 20 22 24 19 24 -20
-1z"/>
<path d="M2891 9231 c-51 -48 -92 -94 -89 -101 2 -7 39 23 88 72 98 97 116
118 104 118 -5 0 -51 -40 -103 -89z"/>
<path d="M3063 9251 c-9 -11 -21 -17 -28 -15 -6 3 -18 -3 -26 -12 -12 -16 -12
-17 4 -11 9 3 17 3 17 -2 0 -14 -41 -61 -52 -61 -13 0 -33 -24 -54 -65 l-15
-30 20 23 c10 12 26 22 35 22 9 0 16 8 16 20 0 11 5 20 11 20 5 0 7 -4 4 -10
-10 -16 11 -11 26 6 10 13 10 17 -1 24 -12 8 -12 10 2 15 20 8 83 95 69 95 -6
0 -19 -9 -28 -19z"/>
<path d="M2294 9073 c-32 -33 -71 -93 -61 -93 5 0 127 122 127 127 0 15 -36
-4 -66 -34z"/>
<path d="M2853 9100 c-29 -12 -30 -20 -1 -12 l23 6 -19 -30 c-10 -16 -28 -40
-40 -54 -11 -14 -1 -5 24 21 70 72 74 79 53 78 -10 0 -28 -4 -40 -9z"/>
<path d="M2673 9071 c-13 -11 -23 -22 -23 -25 0 -13 28 -5 43 12 32 35 17 43
-20 13z"/>
<path d="M2631 9027 c0 -10 -18 -35 -39 -55 -21 -20 -50 -54 -66 -74 -16 -21
-32 -35 -37 -32 -5 3 -9 -4 -9 -15 0 -11 -9 -25 -20 -31 -24 -13 -100 -123
-100 -145 0 -16 -5 -26 -42 -90 -22 -39 -48 -101 -48 -119 0 -5 7 -3 15 4 8 7
15 18 15 24 0 6 14 17 31 25 17 7 35 24 41 37 6 13 14 24 18 24 4 0 36 27 71
60 63 59 66 70 14 50 -19 -7 4 21 72 90 78 80 102 100 119 95 14 -3 24 1 28
11 8 22 8 24 -8 24 -8 0 -18 5 -21 10 -4 6 -3 10 2 9 20 -3 27 2 13 11 -13 9
-11 14 10 31 14 12 26 32 27 44 2 21 -1 20 -33 -13 -29 -30 -34 -33 -29 -14 4
12 2 22 -4 22 -5 0 -12 8 -14 18 -4 16 -5 15 -6 -1z"/>
<path d="M3243 8883 c-72 -100 -86 -124 -68 -117 8 3 33 35 55 70 22 35 44 64
49 64 5 0 11 11 13 25 3 14 4 25 3 25 -1 0 -24 -30 -52 -67z"/>
<path d="M4154 8908 l-19 -23 23 19 c21 18 27 26 19 26 -2 0 -12 -10 -23 -22z"/>
<path d="M3009 8873 c-13 -16 -12 -17 4 -4 9 7 17 15 17 17 0 8 -8 3 -21 -13z"/>
<path d="M2881 8856 c-7 -8 -28 -22 -49 -32 -35 -16 -35 -17 -13 -25 15 -6 26
-5 34 4 50 55 59 67 50 67 -6 0 -16 -6 -22 -14z"/>
<path d="M2319 8843 c-13 -16 -12 -17 4 -4 9 7 17 15 17 17 0 8 -8 3 -21 -13z"/>
<path d="M2345 8826 c-15 -19 -33 -44 -39 -55 -6 -11 -32 -49 -58 -85 -27 -35
-48 -72 -48 -80 0 -9 -4 -16 -10 -16 -5 0 -10 -5 -10 -11 0 -8 5 -8 15 1 8 7
15 9 15 5 0 -12 40 27 41 39 0 10 32 56 117 167 18 23 31 47 29 53 -7 21 -25
15 -52 -18z"/>
<path d="M2219 8823 c-6 -16 -12 -45 -14 -66 -3 -33 -2 -37 11 -26 8 7 12 20
9 30 -4 11 -3 19 2 19 4 0 13 16 19 35 9 28 8 35 -3 35 -7 0 -18 -12 -24 -27z"/>
<path d="M4089 8823 c-13 -16 -12 -17 4 -4 9 7 17 15 17 17 0 8 -8 3 -21 -13z"/>
<path d="M2286 8813 c-6 -14 -5 -15 5 -6 7 7 10 15 7 18 -3 3 -9 -2 -12 -12z"/>
<path d="M3940 8805 c0 -9 5 -15 11 -13 6 2 11 8 11 13 0 5 -5 11 -11 13 -6 2
-11 -4 -11 -13z"/>
<path d="M2863 8787 c-9 -10 -23 -15 -30 -13 -7 3 -17 -4 -23 -14 -6 -11 -16
-20 -23 -20 -7 0 -39 -25 -72 -56 -70 -64 -115 -99 -115 -88 0 10 -29 -28 -30
-38 -1 -21 147 73 235 148 121 104 120 103 96 101 -12 -1 -29 -10 -38 -20z"/>
<path d="M4023 8797 c4 -10 1 -17 -6 -17 -26 -1 -97 -80 -97 -109 0 -15 120
105 120 121 0 4 -5 10 -12 14 -8 5 -9 2 -5 -9z"/>
<path d="M2640 8790 c-9 -6 -10 -10 -3 -10 6 0 15 5 18 10 8 12 4 12 -15 0z"/>
<path d="M4042 8760 c-8 -13 -8 -20 -2 -20 6 0 13 7 17 15 9 24 -1 27 -15 5z"/>
<path d="M2970 8725 c-7 -9 -8 -15 -2 -15 5 0 12 7 16 15 3 8 4 15 2 15 -2 0
-9 -7 -16 -15z"/>
<path d="M2314 8687 c-12 -17 -28 -45 -36 -60 -8 -16 -37 -46 -64 -68 -41 -32
-50 -36 -55 -22 -3 11 -9 1 -17 -28 -17 -67 -21 -89 -16 -89 18 0 84 43 84 55
0 18 16 20 23 3 3 -7 6 -3 6 8 1 12 8 24 16 28 8 3 15 15 15 27 0 12 14 39 31
60 17 22 29 46 26 53 -3 8 1 22 8 33 16 20 19 33 8 33 -5 0 -18 -15 -29 -33z"/>
<path d="M3999 8703 c-13 -16 -12 -17 4 -4 9 7 17 15 17 17 0 8 -8 3 -21 -13z"/>
<path d="M2625 8691 c-16 -10 -41 -30 -54 -45 -14 -14 -29 -26 -34 -26 -6 0
-19 -8 -29 -17 -14 -12 -21 -14 -30 -5 -9 9 -18 5 -39 -16 -14 -15 -53 -47
-85 -72 -32 -25 -80 -69 -108 -99 -28 -30 -63 -66 -78 -79 -16 -14 -28 -31
-28 -39 0 -7 -10 -14 -22 -14 -17 -1 -19 -2 -5 -6 9 -2 17 -8 17 -13 0 -14 42
3 108 45 50 30 60 40 46 45 -14 5 -5 16 46 51 36 24 70 46 77 49 11 5 56 40
119 94 20 17 34 37 34 51 0 15 13 33 38 51 72 54 91 85 27 45z"/>
<path d="M2920 8693 c0 -9 -6 -23 -14 -32 -8 -9 -41 -45 -73 -80 l-58 -64 50
38 c28 20 62 57 77 80 15 24 32 46 38 50 5 3 8 11 5 16 -10 15 -25 10 -25 -8z"/>
<path d="M3871 8661 c-8 -6 -9 -11 -3 -15 6 -3 14 -1 17 5 9 14 2 20 -14 10z"/>
<path d="M4006 8639 c-14 -17 -26 -38 -26 -46 0 -17 27 13 49 55 16 31 7 28
-23 -9z"/>
<path d="M2495 8630 c-3 -6 1 -7 9 -4 18 7 21 14 7 14 -6 0 -13 -4 -16 -10z"/>
<path d="M4099 8600 c-9 -5 -24 -21 -33 -35 -16 -25 -16 -25 1 -14 16 10 59
60 51 59 -2 0 -10 -5 -19 -10z"/>
<path d="M2665 8579 c-16 -10 -26 -19 -22 -19 11 0 67 29 67 35 0 9 -15 4 -45
-16z"/>
<path d="M2800 8590 c-9 -6 -10 -10 -3 -10 6 0 15 5 18 10 8 12 4 12 -15 0z"/>
<path d="M3593 8558 c-18 -11 -33 -24 -33 -29 0 -11 56 19 72 39 15 17 -2 13
-39 -10z"/>
<path d="M2688 8554 c-3 -3 -17 -6 -31 -8 -24 -2 -87 -52 -87 -68 0 -5 11 -8
25 -8 26 0 116 73 104 84 -3 3 -8 3 -11 0z"/>
<path d="M3260 8535 c-11 -13 -10 -14 4 -9 9 3 16 10 16 15 0 13 -6 11 -20 -6z"/>
<path d="M3895 8539 c-4 -6 -5 -12 -2 -15 2 -3 7 2 10 11 7 17 1 20 -8 4z"/>
<path d="M3640 8530 c0 -5 7 -7 15 -4 8 4 15 8 15 10 0 2 -7 4 -15 4 -8 0 -15
-4 -15 -10z"/>
<path d="M3135 8520 c-3 -5 -2 -10 4 -10 5 0 13 5 16 10 3 6 2 10 -4 10 -5 0
-13 -4 -16 -10z"/>
<path d="M2550 8505 c-7 -9 -10 -18 -7 -21 3 -3 10 4 17 15 13 25 8 27 -10 6z"/>
<path d="M3710 8495 c-20 -24 -6 -28 15 -5 10 11 13 20 8 20 -6 0 -16 -7 -23
-15z"/>
<path d="M2030 8475 c0 -9 6 -12 15 -9 10 4 15 0 15 -11 0 -10 -5 -14 -12 -9
-10 5 -10 3 0 -7 11 -12 16 -10 32 11 18 23 18 26 2 32 -29 11 -52 9 -52 -7z"/>
<path d="M2230 8451 c-62 -30 -93 -52 -129 -94 -22 -27 -41 -54 -41 -60 0 -7
7 -4 14 5 7 10 16 15 19 12 7 -7 56 23 81 50 11 12 33 36 49 53 31 33 34 46 7
34z"/>
<path d="M3731 8319 c-13 -10 -19 -19 -15 -19 13 1 48 29 43 34 -2 2 -15 -4
-28 -15z"/>
<path d="M3569 8189 c-23 -19 -23 -20 -2 -10 12 6 25 16 28 21 10 16 -1 12
-26 -11z"/>
<path d="M1375 8171 c-3 -5 -1 -12 4 -15 5 -3 11 1 15 9 6 16 -9 21 -19 6z"/>
<path d="M3420 8055 c-7 -8 -8 -15 -2 -15 5 0 15 7 22 15 7 8 8 15 2 15 -5 0
-15 -7 -22 -15z"/>
<path d="M3329 7973 c-13 -16 -12 -17 4 -4 9 7 17 15 17 17 0 8 -8 3 -21 -13z"/>
<path d="M9730 7810 c-9 -6 -10 -10 -3 -10 6 0 15 5 18 10 8 12 4 12 -15 0z"/>
<path d="M505 7500 c-3 -5 -2 -10 4 -10 5 0 13 5 16 10 3 6 2 10 -4 10 -5 0
-13 -4 -16 -10z"/>
<path d="M540 7496 c0 -8 4 -17 9 -20 5 -4 7 3 4 14 -6 23 -13 26 -13 6z"/>
<path d="M725 7500 c-4 -6 -15 -8 -26 -5 -13 4 -19 2 -19 -9 0 -13 -3 -13 -27
0 -32 16 -57 19 -30 3 23 -13 22 -29 -3 -29 -11 0 -20 7 -20 16 0 8 -5 12 -11
8 -6 -3 -8 -17 -4 -31 5 -22 3 -24 -17 -17 -13 3 -27 13 -31 20 -10 18 -37 18
-37 0 0 -8 -4 -16 -10 -18 -21 -7 3 -45 36 -57 19 -7 32 -17 29 -22 -3 -5 0
-6 8 -4 15 7 56 -13 81 -38 20 -19 36 -22 36 -6 0 8 4 8 15 -1 8 -6 18 -9 24
-6 5 3 11 0 14 -6 3 -10 7 -10 19 -1 10 9 24 10 49 3 l34 -10 -25 20 c-14 11
-19 20 -12 20 7 0 11 4 7 9 -3 5 0 13 5 16 23 14 29 53 14 84 -16 31 -31 43
-21 16 4 -8 2 -17 -3 -20 -6 -4 -10 1 -10 9 0 9 -11 18 -25 22 -23 6 -30 15
-26 37 2 10 -7 9 -14 -3z m-185 -74 c0 -8 6 -16 13 -18 6 -3 -3 -5 -20 -5 -33
0 -46 20 -20 30 21 9 27 7 27 -7z m240 -96 c0 -5 -4 -10 -10 -10 -5 0 -10 5
-10 10 0 6 5 10 10 10 6 0 10 -4 10 -10z"/>
<path d="M760 7490 c0 -5 5 -10 10 -10 6 0 10 5 10 10 0 6 -4 10 -10 10 -5 0
-10 -4 -10 -10z"/>
<path d="M9540 7295 c0 -8 4 -15 10 -15 5 0 7 7 4 15 -4 8 -8 15 -10 15 -2 0
-4 -7 -4 -15z"/>
<path d="M3036 7283 c-6 -14 -5 -15 5 -6 7 7 10 15 7 18 -3 3 -9 -2 -12 -12z"/>
<path d="M9480 7290 c0 -5 5 -10 11 -10 5 0 7 5 4 10 -3 6 -8 10 -11 10 -2 0
-4 -4 -4 -10z"/>
<path d="M9520 7270 c0 -5 5 -10 11 -10 5 0 7 5 4 10 -3 6 -8 10 -11 10 -2 0
-4 -4 -4 -10z"/>
<path d="M2840 7020 c0 -5 5 -10 11 -10 5 0 7 5 4 10 -3 6 -8 10 -11 10 -2 0
-4 -4 -4 -10z"/>
<path d="M3820 7020 c0 -5 5 -10 10 -10 6 0 10 5 10 10 0 6 -4 10 -10 10 -5 0
-10 -4 -10 -10z"/>
<path d="M5041 6471 c-10 -7 -10 -10 -1 -16 6 -4 16 -3 22 3 13 13 -4 23 -21
13z"/>
<path d="M4971 6386 c-7 -9 -8 -17 -2 -20 5 -3 7 -15 4 -26 -5 -19 -3 -20 19
-10 20 9 23 17 20 41 -5 31 -22 38 -41 15z"/>
<path d="M5101 6384 c0 -11 3 -14 6 -6 3 7 2 16 -1 19 -3 4 -6 -2 -5 -13z"/>
<path d="M4870 6380 c0 -5 5 -10 11 -10 5 0 7 5 4 10 -3 6 -8 10 -11 10 -2 0
-4 -4 -4 -10z"/>
<path d="M4270 6365 c0 -7 -8 -18 -17 -24 -24 -13 -10 -25 20 -17 38 9 48 56
11 56 -8 0 -14 -7 -14 -15z"/>
<path d="M4570 6284 c0 -16 36 -33 51 -23 12 7 12 10 0 21 -11 11 -14 11 -18
0 -4 -10 -8 -10 -19 -1 -8 6 -14 7 -14 3z"/>
<path d="M4762 6235 c10 -11 48 -14 48 -4 0 5 -12 9 -27 9 -14 0 -24 -2 -21
-5z"/>
<path d="M3178 5803 c7 -3 16 -2 19 1 4 3 -2 6 -13 5 -11 0 -14 -3 -6 -6z"/>
<path d="M4986 5532 c-3 -6 -1 -14 5 -17 15 -10 25 3 12 16 -7 7 -13 7 -17 1z"/>
<path d="M9868 5063 c-26 -13 -33 -24 -29 -47 1 -5 -6 -5 -16 -2 -9 4 -14 4
-10 0 4 -4 2 -13 -3 -19 -12 -15 -2 -95 11 -95 5 0 9 -7 9 -16 0 -8 4 -13 9
-10 5 3 11 -1 14 -8 3 -8 18 -23 32 -32 21 -13 28 -15 34 -5 5 7 14 14 22 15
8 2 27 8 42 14 16 7 32 12 38 12 5 0 8 10 6 23 -1 15 3 21 13 19 8 -2 12 -1 8
3 -4 4 -1 14 7 21 15 16 9 53 -11 61 -8 3 -14 16 -14 29 0 16 -4 22 -14 18 -7
-3 -16 2 -19 10 -4 11 -16 15 -39 12 -18 -2 -40 -1 -48 3 -8 4 -27 1 -42 -6z"/>
<path d="M3360 5030 c0 -5 5 -10 10 -10 6 0 10 5 10 10 0 6 -4 10 -10 10 -5 0
-10 -4 -10 -10z"/>
<path d="M4330 3858 c0 -9 5 -20 10 -23 13 -8 13 5 0 25 -8 13 -10 13 -10 -2z"/>
<path d="M2484 3649 c-19 -12 -53 -20 -87 -22 -61 -2 -62 -13 -3 -41 41 -19
129 -21 144 -3 14 16 4 87 -12 86 -6 0 -25 -9 -42 -20z"/>
<path d="M2900 2650 c0 -5 5 -10 10 -10 6 0 10 5 10 10 0 6 -4 10 -10 10 -5 0
-10 -4 -10 -10z"/>
<path d="M2807 2613 c-13 -12 -7 -23 11 -23 10 0 23 -5 30 -12 7 -7 12 -8 12
-2 0 11 -32 44 -42 44 -2 0 -8 -3 -11 -7z"/>
<path d="M9192 1749 c-12 -10 -27 -19 -33 -19 -8 0 -6 -7 4 -18 10 -10 17 -23
17 -29 0 -6 5 -13 12 -15 6 -2 12 -11 14 -20 1 -10 -3 -15 -11 -12 -7 3 -16 1
-20 -5 -4 -7 6 -12 24 -12 17 -1 37 -2 44 -3 6 -1 13 8 13 19 1 11 4 34 7 52
4 26 1 33 -15 39 -11 3 -17 12 -14 19 8 22 -20 25 -42 4z"/>
<path d="M3246 1688 c-48 -48 -74 -88 -114 -168 -28 -58 -53 -116 -56 -130
-13 -69 -19 -96 -26 -105 -18 -25 -23 -63 -44 -332 -3 -30 -11 -60 -20 -69
-14 -14 -23 -63 -16 -89 2 -5 4 -131 5 -280 1 -148 5 -283 8 -298 3 -15 11
-60 17 -100 21 -128 13 -117 77 -117 l56 0 -6 97 c-8 112 -12 151 -29 248 -20
112 -16 464 5 555 10 41 23 95 29 120 26 110 63 201 103 254 13 17 51 84 85
149 62 117 62 118 54 175 -7 52 -9 76 -13 132 -1 15 -8 20 -27 20 -18 0 -44
-18 -88 -62z"/>
<path d="M2745 1364 c-11 -3 -46 -9 -78 -16 -76 -14 -82 -28 -12 -28 54 0 115
23 115 42 0 4 -1 7 -2 7 -2 -1 -12 -3 -23 -5z"/>
<path d="M2651 1182 c-7 -13 -11 -26 -8 -28 8 -8 29 25 25 38 -3 8 -9 4 -17
-10z"/>
<path d="M2463 1160 c-71 -16 -203 -131 -268 -235 -11 -18 -36 -57 -55 -86
-94 -145 -152 -280 -166 -386 -3 -30 -46 -318 -61 -420 l-5 -33 61 0 c73 0 66
-17 80 205 19 297 72 460 200 613 48 56 70 74 143 109 l86 42 30 74 c43 102
31 133 -45 117z"/>
<path d="M2523 853 c-3 -10 -14 -29 -23 -43 -17 -24 -60 -151 -60 -174 0 -6 5
-3 11 7 5 9 16 17 23 17 8 0 16 7 20 15 7 19 26 20 26 1 0 -8 4 -17 10 -21 5
-3 9 6 8 22 -1 15 1 65 6 111 5 58 4 82 -4 82 -6 0 -13 -8 -17 -17z"/>
<path d="M2532 574 c-1 -39 -4 -93 -7 -120 l-5 -49 11 40 c5 22 8 76 6 120
l-3 80 -2 -71z"/>
<path d="M2425 580 c-4 -23 -5 -44 -2 -46 3 -3 8 13 12 36 4 23 5 44 2 46 -3
3 -8 -13 -12 -36z"/>
<path d="M2519 313 c0 -38 -2 -86 -5 -108 -2 -22 -6 -75 -7 -118 -3 -70 -2
-77 15 -77 16 0 18 4 11 23 -4 12 -6 95 -5 185 2 89 0 162 -3 162 -3 0 -5 -30
-6 -67z"/>
<path d="M4281 354 c6 -8 18 -14 26 -14 20 0 8 16 -17 23 -17 4 -19 3 -9 -9z"/>
<path d="M4041 356 c12 -10 60 -16 54 -6 -3 5 -18 10 -32 10 -15 0 -24 -2 -22
-4z"/>
<path d="M4050 299 c0 -5 5 -7 10 -4 6 3 10 8 10 11 0 2 -4 4 -10 4 -5 0 -10
-5 -10 -11z"/>
<path d="M8627 182 c-22 -25 -21 -75 1 -95 22 -20 73 -22 90 -5 7 7 12 22 12
35 0 19 -5 23 -30 23 -16 0 -30 -4 -30 -10 0 -5 9 -10 20 -10 26 0 26 -17 0
-25 -51 -16 -85 54 -36 76 17 8 29 8 46 -1 28 -15 36 -7 15 14 -22 21 -68 20
-88 -2z"/>
<path d="M8771 158 c-29 -68 -34 -88 -21 -88 7 0 14 9 17 20 6 24 63 29 63 6
0 -15 18 -31 26 -24 7 7 -43 122 -55 126 -6 2 -19 -16 -30 -40z m39 -8 c9 -17
8 -20 -9 -20 -14 0 -18 5 -14 20 3 11 7 20 9 20 2 0 8 -9 14 -20z"/>
<path d="M8870 135 c0 -75 17 -89 22 -17 l3 47 30 -47 c42 -67 55 -63 55 17 0
75 -17 89 -22 18 l-3 -48 -30 47 c-42 67 -55 63 -55 -17z"/>
<path d="M9010 185 c-17 -20 -5 -32 15 -15 12 10 19 10 27 2 8 -8 1 -22 -25
-52 -21 -22 -37 -42 -37 -45 0 -3 20 -5 45 -5 25 0 45 5 45 10 0 6 -14 10 -31
10 l-31 0 32 26 c40 34 39 77 -1 82 -14 2 -31 -4 -39 -13z"/>
<path d="M9169 184 c-22 -26 -18 -119 5 -141 18 -17 19 -17 12 2 -16 42 -18
85 -7 116 13 38 9 46 -10 23z"/>
<path d="M9210 135 c0 -64 16 -91 22 -38 4 37 20 38 43 3 11 -16 26 -30 34
-30 9 0 5 11 -13 34 -31 42 -32 48 -6 71 33 30 14 29 -24 0 l-36 -27 0 26 c0
14 -4 26 -10 26 -6 0 -10 -28 -10 -65z"/>
<path d="M9893 185 c-16 -30 -2 -109 20 -113 9 -2 17 1 17 7 0 6 -4 11 -10 11
-15 0 -12 57 3 63 8 4 9 8 1 14 -6 4 -13 15 -16 23 -4 12 -7 11 -15 -5z"/>
<path d="M10090 135 c0 -37 4 -65 10 -65 6 0 10 28 10 65 0 37 -4 65 -10 65
-6 0 -10 -28 -10 -65z"/>
<path d="M10190 181 c5 -11 10 -41 10 -66 0 -25 -5 -55 -10 -66 -6 -11 -7 -19
-1 -19 14 0 42 80 36 104 -10 34 -28 66 -37 66 -5 0 -4 -9 2 -19z"/>
<path d="M9337 164 c-16 -16 -5 -23 26 -18 l32 5 -33 -15 c-26 -12 -33 -21
-30 -38 2 -19 10 -24 41 -26 l38 -3 -3 48 c-3 45 -5 48 -33 51 -17 2 -34 0
-38 -4z m48 -63 c-8 -13 -35 -15 -35 -2 0 5 8 11 18 13 21 5 26 2 17 -11z"/>
<path d="M9430 120 c0 -27 5 -50 10 -50 6 0 10 16 10 35 0 22 6 38 15 41 24 9
17 24 -10 24 -23 0 -25 -3 -25 -50z"/>
<path d="M9490 120 c0 -27 5 -50 10 -50 6 0 10 16 10 35 0 22 6 38 15 41 24 9
17 24 -10 24 -23 0 -25 -3 -25 -50z"/>
<path d="M9557 164 c-16 -16 -5 -23 26 -18 l32 5 -33 -15 c-26 -12 -33 -21
-30 -38 2 -19 10 -24 41 -26 l38 -3 -3 48 c-3 45 -5 48 -33 51 -17 2 -34 0
-38 -4z m48 -63 c-8 -13 -35 -15 -35 -2 0 5 8 11 18 13 21 5 26 2 17 -11z"/>
<path d="M9654 156 c-9 -24 3 -46 26 -46 11 0 20 -5 20 -11 0 -7 -11 -8 -32
-3 -29 6 -31 5 -19 -10 19 -22 58 -20 71 4 9 17 6 23 -22 41 l-33 21 28 -7
c21 -4 28 -2 25 7 -7 20 -57 22 -64 4z"/>
<path d="M9804 163 c-18 -13 -24 -42 -14 -69 8 -21 15 -25 42 -22 17 2 34 9
36 17 3 10 -2 12 -21 7 -14 -3 -28 -2 -32 3 -3 6 10 11 30 13 33 3 34 4 22 28
-13 25 -43 36 -63 23z m41 -23 c3 -5 -3 -10 -15 -10 -12 0 -18 5 -15 10 3 6
10 10 15 10 5 0 12 -4 15 -10z"/>
<path d="M9997 164 c-15 -16 -5 -23 26 -19 l32 5 -32 -11 c-59 -21 -50 -69 14
-69 l34 0 -3 48 c-3 44 -5 47 -33 50 -17 2 -34 0 -38 -4z m48 -63 c-8 -13 -35
-15 -35 -2 0 5 8 11 18 13 21 5 26 2 17 -11z"/>
<path d="M2223 50 c0 -25 2 -35 4 -22 2 12 2 32 0 45 -2 12 -4 2 -4 -23z"/>
<path d="M10130 80 c0 -5 7 -10 15 -10 8 0 15 5 15 10 0 6 -7 10 -15 10 -8 0
-15 -4 -15 -10z"/>
<path d="M2326 34 c-4 -14 -5 -29 -2 -31 3 -3 8 7 12 21 3 15 4 29 1 32 -2 3
-8 -7 -11 -22z"/>
</g>
</svg>
