<?xml version="1.0" encoding="UTF-8"?>
<svg xmlns="http://www.w3.org/2000/svg" xmlns:xlink="http://www.w3.org/1999/xlink" width="30px" height="30px" viewBox="0 0 30 30" version="1.1">
<defs>
<linearGradient id="linear0" gradientUnits="userSpaceOnUse" x1="609.77" y1="1190.114" x2="609.77" y2="21.084" gradientTransform="matrix(0.0245977,0,0,0.0244895,0.000970744,0)">
<stop offset="0" style="stop-color:rgb(12.54902%,69.019608%,21.960784%);stop-opacity:1;"/>
<stop offset="1" style="stop-color:rgb(37.647059%,83.921569%,41.568627%);stop-opacity:1;"/>
</linearGradient>
</defs>
<g id="surface1">
<path style=" stroke:none;fill-rule:nonzero;fill:rgb(87.843137%,87.843137%,87.843137%);fill-opacity:1;" d="M 25.628906 4.359375 C 22.808594 1.550781 19.058594 0 15.0625 0 C 6.828125 0 0.128906 6.667969 0.125 14.863281 C 0.125 17.484375 0.8125 20.042969 2.121094 22.296875 L 0 30 L 7.917969 27.933594 C 10.101562 29.117188 12.558594 29.742188 15.054688 29.742188 L 15.0625 29.742188 C 23.292969 29.742188 29.996094 23.074219 30 14.875 C 30 10.90625 28.449219 7.167969 25.628906 4.359375 Z M 15.0625 27.230469 L 15.058594 27.230469 C 12.828125 27.230469 10.644531 26.636719 8.738281 25.507812 L 8.285156 25.242188 L 3.585938 26.46875 L 4.839844 21.910156 L 4.546875 21.441406 C 3.304688 19.472656 2.648438 17.199219 2.648438 14.867188 C 2.652344 8.054688 8.21875 2.511719 15.066406 2.511719 C 18.382812 2.511719 21.5 3.800781 23.84375 6.132812 C 26.1875 8.46875 27.476562 11.574219 27.476562 14.875 C 27.472656 21.6875 21.90625 27.230469 15.0625 27.230469 Z M 15.0625 27.230469 "/>
<path style=" stroke:none;fill-rule:nonzero;fill:url(#linear0);" d="M 0.6875 29.144531 L 2.707031 21.792969 C 1.460938 19.640625 0.804688 17.203125 0.804688 14.703125 C 0.808594 6.878906 7.203125 0.515625 15.058594 0.515625 C 18.871094 0.519531 22.453125 1.996094 25.140625 4.675781 C 27.832031 7.359375 29.316406 10.921875 29.3125 14.714844 C 29.308594 22.535156 22.914062 28.898438 15.058594 28.898438 C 15.058594 28.898438 15.0625 28.898438 15.058594 28.898438 L 15.054688 28.898438 C 12.667969 28.898438 10.324219 28.300781 8.242188 27.171875 Z M 0.6875 29.144531 "/>
<path style=" stroke:none;fill-rule:evenodd;fill:rgb(100%,100%,100%);fill-opacity:1;" d="M 11.371094 8.554688 C 11.09375 7.941406 10.804688 7.929688 10.542969 7.917969 C 10.328125 7.910156 10.082031 7.910156 9.835938 7.910156 C 9.589844 7.910156 9.1875 8.003906 8.851562 8.371094 C 8.511719 8.738281 7.558594 9.625 7.558594 11.433594 C 7.558594 13.242188 8.882812 14.988281 9.066406 15.230469 C 9.25 15.476562 11.617188 19.304688 15.367188 20.777344 C 18.484375 22 19.117188 21.757812 19.796875 21.695312 C 20.472656 21.632812 21.976562 20.808594 22.285156 19.949219 C 22.59375 19.089844 22.59375 18.355469 22.5 18.203125 C 22.40625 18.050781 22.164062 17.957031 21.792969 17.773438 C 21.425781 17.589844 19.609375 16.703125 19.273438 16.578125 C 18.933594 16.457031 18.6875 16.394531 18.441406 16.761719 C 18.195312 17.132812 17.488281 17.957031 17.273438 18.203125 C 17.058594 18.449219 16.84375 18.480469 16.476562 18.296875 C 16.105469 18.109375 14.917969 17.722656 13.507812 16.472656 C 12.410156 15.5 11.671875 14.296875 11.457031 13.929688 C 11.242188 13.5625 11.433594 13.363281 11.617188 13.179688 C 11.785156 13.015625 11.988281 12.75 12.171875 12.535156 C 12.355469 12.320312 12.417969 12.167969 12.539062 11.921875 C 12.664062 11.679688 12.601562 11.464844 12.507812 11.28125 C 12.417969 11.097656 11.699219 9.28125 11.371094 8.554688 Z M 11.371094 8.554688 "/>
<path style=" stroke:none;fill-rule:nonzero;fill:rgb(100%,100%,100%);fill-opacity:1;" d="M 25.507812 4.3125 C 22.71875 1.535156 19.011719 0.00390625 15.0625 0.00390625 C 6.921875 0.00390625 0.300781 6.59375 0.296875 14.695312 C 0.296875 17.285156 0.976562 19.816406 2.269531 22.042969 L 0.171875 29.660156 L 8 27.613281 C 10.15625 28.785156 12.585938 29.402344 15.054688 29.402344 L 15.0625 29.402344 C 23.199219 29.402344 29.824219 22.8125 29.828125 14.707031 C 29.828125 10.78125 28.292969 7.089844 25.507812 4.3125 Z M 15.0625 26.921875 L 15.058594 26.921875 C 12.855469 26.921875 10.695312 26.332031 8.8125 25.21875 L 8.363281 24.953125 L 3.71875 26.167969 L 4.957031 21.660156 L 4.667969 21.199219 C 3.4375 19.253906 2.789062 17.003906 2.789062 14.699219 C 2.792969 7.964844 8.296875 2.484375 15.066406 2.484375 C 18.34375 2.484375 21.425781 3.757812 23.742188 6.066406 C 26.058594 8.375 27.335938 11.445312 27.332031 14.707031 C 27.332031 21.441406 21.824219 26.921875 15.0625 26.921875 Z M 15.0625 26.921875 "/>
</g>
</svg>
